<?xml version="1.0" encoding="UTF-8" standalone="no"?>
<!-- Generator: Adobe Illustrator 15.0.0, SVG Export Plug-In . SVG Version: 6.00 Build 0)  -->

<svg
   xmlns:dc="http://purl.org/dc/elements/1.1/"
   xmlns:cc="http://creativecommons.org/ns#"
   xmlns:rdf="http://www.w3.org/1999/02/22-rdf-syntax-ns#"
   xmlns:svg="http://www.w3.org/2000/svg"
   xmlns="http://www.w3.org/2000/svg"
   xmlns:sodipodi="http://sodipodi.sourceforge.net/DTD/sodipodi-0.dtd"
   xmlns:inkscape="http://www.inkscape.org/namespaces/inkscape"
   version="1.1"
   x="0px"
   y="0px"
   width="117.72205"
   height="59.972607"
   viewBox="0 0 117.72205 59.972608"
   enable-background="new 0 0 494.667 265.667"
   xml:space="preserve"
   id="svg2"
   inkscape:version="0.47 r22583"
   sodipodi:docname="SignalEarthCoordinates.svg"><metadata
   id="metadata569"><rdf:RDF><cc:Work
       rdf:about=""><dc:format>image/svg+xml</dc:format><dc:type
         rdf:resource="http://purl.org/dc/dcmitype/StillImage" /><dc:title></dc:title></cc:Work></rdf:RDF></metadata><defs
   id="defs567"><inkscape:perspective
     sodipodi:type="inkscape:persp3d"
     inkscape:vp_x="0 : 132.8335 : 1"
     inkscape:vp_y="0 : 1000 : 0"
     inkscape:vp_z="494.66699 : 132.8335 : 1"
     inkscape:persp3d-origin="247.3335 : 88.555664 : 1"
     id="perspective571" /></defs><sodipodi:namedview
   pagecolor="#ffffff"
   bordercolor="#666666"
   borderopacity="1"
   objecttolerance="10"
   gridtolerance="10"
   guidetolerance="10"
   inkscape:pageopacity="0"
   inkscape:pageshadow="2"
   inkscape:window-width="1016"
   inkscape:window-height="756"
   id="namedview565"
   showgrid="false"
   inkscape:zoom="0.88833015"
   inkscape:cx="230.70949"
   inkscape:cy="-61.663889"
   inkscape:window-x="0"
   inkscape:window-y="0"
   inkscape:window-maximized="0"
   inkscape:current-layer="svg2" />
<g
   id="Layer_21"
   transform="translate(-16.624003,-11.197)">
</g>
<g
   id="outline"
   transform="matrix(0.25457104,0,0,0.25457104,-4.2319923,-2.8504319)">
	<g
   id="g6">
		<polygon
   stroke-miterlimit="10"
   points="204.847,38.855 212.437,39.942 216.981,37.733 216.981,37.111 214.726,34.829 211.585,35.875 207.8,35.795 206.997,36.885 204.847,36.835 "
   id="polygon8"
   style="fill:none;stroke:#000000;stroke-width:1.5;stroke-miterlimit:10" />
		<polygon
   stroke-miterlimit="10"
   points="250.413,87.263 252.849,87.891 252.864,85.747 250.428,85.683 "
   id="polygon10"
   style="fill:none;stroke:#000000;stroke-width:1.5;stroke-miterlimit:10" />
		<polygon
   stroke-miterlimit="10"
   points="193.532,13.851 177.45,13.851 168.18,17.072 160.771,19.327 160.771,21.587 172.046,21.748 174.945,26.735 174.945,31.245 169.526,34.318 169.688,40.438 173.087,43.875 177.114,43.875 183.249,37.386 191.918,34.829 195.17,32.34 201.73,31.935 206.325,30.58 214.968,16.831 220.296,15.741 222.175,13.851 206.808,12.305 "
   id="polygon12"
   style="fill:none;stroke:#000000;stroke-width:1.5;stroke-miterlimit:10" />
		<polygon
   stroke-miterlimit="10"
   points="421.097,105.01 418.947,108.07 421.097,110.083 422.41,106.378 "
   id="polygon14"
   style="fill:none;stroke:#000000;stroke-width:1.5;stroke-miterlimit:10" />
		<polygon
   stroke-miterlimit="10"
   points="403.005,114.995 403.005,116.525 404.052,117.787 405.582,115.881 405.582,114.432 "
   id="polygon16"
   style="fill:none;stroke:#000000;stroke-width:1.5;stroke-miterlimit:10" />
		<polygon
   stroke-miterlimit="10"
   points="437.025,70.342 437.146,75.737 438.436,76.502 439.361,75.254 442.301,75.214 443.549,73.08 "
   id="polygon18"
   style="fill:none;stroke:#000000;stroke-width:1.5;stroke-miterlimit:10" />
		<polygon
   stroke-miterlimit="10"
   points="443.474,81.552 441.495,78.113 439.535,77.545 440.662,82.699 436.65,86.336 431.245,87.728 430.765,89.387 437.234,88.432 437.726,90.93 439.197,90.306 439.361,88.34 443.697,87.225 "
   id="polygon20"
   style="fill:none;stroke:#000000;stroke-width:1.5;stroke-miterlimit:10" />
		<polygon
   stroke-miterlimit="10"
   points="430.101,90.93 432.355,94.42 433.201,91.763 432.436,90.635 "
   id="polygon22"
   style="fill:none;stroke:#000000;stroke-width:1.5;stroke-miterlimit:10" />
		<polygon
   stroke-miterlimit="10"
   points="435.214,91.883 436.342,89.83 433.725,90.192 "
   id="polygon24"
   style="fill:none;stroke:#000000;stroke-width:1.5;stroke-miterlimit:10" />
		<polygon
   stroke-miterlimit="10"
   points="425.712,119.934 424.426,117.086 422.088,117.035 421.524,122.045 424.826,126.028 428.714,126.519 429.255,124.873 425.712,124.498 424.423,122.887 "
   id="polygon26"
   style="fill:none;stroke:#000000;stroke-width:1.5;stroke-miterlimit:10" />
		<polygon
   stroke-miterlimit="10"
   points="419.649,134.049 422.44,131.731 422.375,129.829 418.079,133.737 "
   id="polygon28"
   style="fill:none;stroke:#000000;stroke-width:1.5;stroke-miterlimit:10" />
		<polygon
   stroke-miterlimit="10"
   points="430.329,139.557 432.66,138.862 431.872,137.422 433.752,136.936 432.154,131.946 430.974,135.029 427.108,135.029 430.329,137.328 "
   id="polygon30"
   style="fill:none;stroke:#000000;stroke-width:1.5;stroke-miterlimit:10" />
		<polygon
   stroke-miterlimit="10"
   points="425.12,127.826 423.457,126.201 423.243,127.516 424.584,128.833 "
   id="polygon32"
   style="fill:none;stroke:#000000;stroke-width:1.5;stroke-miterlimit:10" />
		<polygon
   stroke-miterlimit="10"
   points="427.592,129.039 425.873,128.833 425.12,130.188 426.303,130.994 "
   id="polygon34"
   style="fill:none;stroke:#000000;stroke-width:1.5;stroke-miterlimit:10" />
		<polygon
   stroke-miterlimit="10"
   points="432.906,130.242 431.215,127.518 429.524,128.148 431.135,130.242 "
   id="polygon36"
   style="fill:none;stroke:#000000;stroke-width:1.5;stroke-miterlimit:10" />
		<polygon
   stroke-miterlimit="10"
   points="428.422,130.539 429.697,132.471 430.43,131.503 429.524,129.913 "
   id="polygon38"
   style="fill:none;stroke:#000000;stroke-width:1.5;stroke-miterlimit:10" />
		<polygon
   stroke-miterlimit="10"
   points="428.422,132.767 427.592,131.519 426.638,132.607 427.592,133.773 "
   id="polygon40"
   style="fill:none;stroke:#000000;stroke-width:1.5;stroke-miterlimit:10" />
		<polygon
   stroke-miterlimit="10"
   points="400.587,157.917 400.587,154.615 387.702,141.248 383.288,139.557 398.216,159.89 "
   id="polygon42"
   style="fill:none;stroke:#000000;stroke-width:1.5;stroke-miterlimit:10" />
		<polygon
   stroke-miterlimit="10"
   points="415.887,164.923 415.646,163.796 409.848,160.978 406.224,161.782 402.197,160.252 399.781,162.186 "
   id="polygon44"
   style="fill:none;stroke:#000000;stroke-width:1.5;stroke-miterlimit:10" />
		<polygon
   stroke-miterlimit="10"
   points="425.953,163.796 423.457,163.796 423.939,165.406 426.315,165.406 427.322,164.601 "
   id="polygon46"
   style="fill:none;stroke:#000000;stroke-width:1.5;stroke-miterlimit:10" />
		<polygon
   stroke-miterlimit="10"
   points="421.604,166.413 422.329,167.299 424.061,167.299 423.457,166.01 "
   id="polygon48"
   style="fill:none;stroke:#000000;stroke-width:1.5;stroke-miterlimit:10" />
		<polygon
   stroke-miterlimit="10"
   points="434.892,164.279 430.744,164.279 428.248,167.057 430.141,167.299 431.827,165.778 434.892,165.406 "
   id="polygon50"
   style="fill:none;stroke:#000000;stroke-width:1.5;stroke-miterlimit:10" />
		<polygon
   stroke-miterlimit="10"
   points="428.812,149.421 430.181,149.3 432.234,146.885 430.43,146.844 429.255,147.609 425.39,146.671 422.833,148.979 423.014,152.643 421.524,154.615 422.45,159.366 424.303,158.803 423.738,155.542 424.826,154.333 425.752,156.75 427.967,157.515 427.967,155.783 426.718,153.02 429.094,151.032 425.309,151.193 424.531,150.106 426.033,148.455 "
   id="polygon52"
   style="fill:none;stroke:#000000;stroke-width:1.5;stroke-miterlimit:10" />
		<polygon
   stroke-miterlimit="10"
   points="435.911,155.69 440.099,155.26 440.099,154.178 436.336,154.178 "
   id="polygon54"
   style="fill:none;stroke:#000000;stroke-width:1.5;stroke-miterlimit:10" />
		<polygon
   stroke-miterlimit="10"
   points="435.375,149.248 437.308,149.723 436.877,146.671 438.005,145.274 437.308,144.429 435.911,145.812 "
   id="polygon56"
   style="fill:none;stroke:#000000;stroke-width:1.5;stroke-miterlimit:10" />
		<polygon
   stroke-miterlimit="10"
   points="441.651,151.246 446.805,153.581 446.241,150.602 "
   id="polygon58"
   style="fill:none;stroke:#000000;stroke-width:1.5;stroke-miterlimit:10" />
		<polygon
   stroke-miterlimit="10"
   points="408.76,155.26 416.584,155.26 420.452,150.322 420.452,141.359 420.452,138.081 417.581,138.316 414.141,142.953 406.198,146.615 406.146,146.641 406.304,150.966 "
   id="polygon60"
   style="fill:none;stroke:#000000;stroke-width:1.5;stroke-miterlimit:10" />
		<polygon
   stroke-miterlimit="10"
   points="444.395,153.729 443.911,156.146 446.488,156.065 452.893,158.728 454.035,161.999 451.906,163.298 457.387,165.202 459.385,165.896 463.192,162.396 468.13,167.216 472.635,168.145 467.058,162.565 467.332,159.613 457.387,154.414 452.943,152.091 448.793,155.456 "
   id="polygon62"
   style="fill:none;stroke:#000000;stroke-width:1.5;stroke-miterlimit:10" />
		<polygon
   stroke-miterlimit="10"
   points="471.854,161.319 475.317,159.366 475.317,157.354 469.842,160.116 "
   id="polygon64"
   style="fill:none;stroke:#000000;stroke-width:1.5;stroke-miterlimit:10" />
		<polygon
   stroke-miterlimit="10"
   points="474.2,154.349 472.635,154.454 476.687,157.354 478.307,156.8 "
   id="polygon66"
   style="fill:none;stroke:#000000;stroke-width:1.5;stroke-miterlimit:10" />
		<path
   stroke-miterlimit="10"
   d="m 386.499,122.365 1.312,4.857 -0.31,5.016 -0.121,1.978 3.543,3.006 0.34,1.104 1.379,4.48 5.675,4.839 0.445,-1.726 -5.365,-7.916 -3.439,-5.076 0.808,-7.839 3.862,3.831 1.934,1.917 2.174,-0.298 0,0 0.08,3.463 6.176,-4.081 -0.214,-6.07 -6.444,-6.815 0.322,-3.723 4.406,-2.504 0.075,2.055 12.484,-4.46 4.082,-9.134 -7.283,-11.976 3.74,-4.079 h -4.296 l -1.382,0.893 -2.697,-4.435 3.435,-3.007 2.36,4.504 3.307,-2.276 1.86,3.53 2.458,0.685 2.577,5.584 3.113,-0.215 0.536,-3.597 -4.316,-3.536 -1.91,-1.564 2.469,-0.322 -0.43,-4.938 0.002,-10e-4 4.605,-0.811 2.479,-3.699 v -6.873 l -7.086,-8.053 -6.873,-0.107 1.181,-8.482 14.173,0.107 1.54,-4.814 5.977,2.264 0.021,-2.22 1.482,0.154 2.576,2.469 -2.486,1.695 -0.304,5.069 10.094,9.557 v -9.234 l -5.692,-5.476 13.476,-4.268 0.169,-1.376 -6.772,-1.845 2.633,-2.057 6.064,1.252 4.107,0.081 -3.3,-3.541 -21.156,-4.191 -32.801,-0.931 -1.847,-2.513 -11.445,-1.87 -3.221,2.899 h -9.256 l -3.865,-2.899 h -20.938 l -1.289,-4.616 h -19.327 l -17.044,7.623 3.73,4.618 -3.221,3.328 -2.909,-9.511 -5.141,-0.406 2.467,5.623 -19.864,0.536 -18.576,7.624 -2.45,-4.668 7.068,0.266 3.435,-1.718 -13.528,-4.314 -2.876,0.147 -2.922,0.148 -5.729,0.292 -19.649,13.6 1.972,4.623 5.905,-0.966 0.408,0.469 V 47.5 l 3.801,4.376 6.205,-5.491 -2.899,-3.6 6.523,-7.137 h 2.336 l -3.141,7.113 3.664,1.852 h 5.597 l -0.761,0.71 -0.907,0.845 -4.595,0.104 -0.376,0.965 1.359,1.024 h -0.001 l 0.288,0.217 -0.322,1.451 -3.167,-1.451 0.009,1.882 h 0.001 l 0.01,2.151 0.008,1.603 -3.22,0.106 -0.725,-0.669 -4.625,1.127 -6.352,-0.073 -0.267,-1.054 -0.112,-0.445 0.685,-3.823 -1.876,-0.025 -1.324,2.998 0.542,1.296 0.424,1.015 -3.122,1.869 -3.11,1.862 -1.825,1.093 -7.688,4.603 h -2.812 v 1.181 l 3.313,1.793 0.445,5.883 -11.381,0.082 -0.054,2.173 -0.161,6.388 1.601,2.845 0.902,0.068 7.054,0.527 6.953,-8.936 1.529,-1.965 7.193,0.053 0.215,-3.006 h 0.186 2.606 l 7.999,7.984 0.403,3.397 1.476,-0.859 0.457,-2.442 1.818,-0.365 -9.753,-8.447 3.908,-0.234 3.392,3.919 0.701,0.174 1.107,0.275 1.323,0.329 0.905,3.881 0.253,0.292 1.419,1.64 2.738,0.766 -1.666,0.708 2.205,2.778 1.394,-2.201 -1.555,-3.382 3.085,-1.516 h 2.541 10e-4 3.069 l -1.241,-2.67 0.955,-2.955 0.8,-2.476 0.397,-1.228 h 5.79 l -1.289,1.329 1.78,1.006 2.407,-0.188 -2.286,-2.913 5.999,-1.275 0.725,1.718 -1.771,0.483 0.308,2.824 6.417,2.245 v 3.012 l -17.247,0.564 -1.476,1.771 -3.328,-0.027 2.738,5.506 12.585,0.697 -0.588,2.75 -0.587,2.748 -1.114,4.135 -14.039,-1.908 -5.897,-0.8 -2.442,3.651 -5.369,-1.074 -2.131,-2.582 -4.573,-1.097 -1.671,-0.4 0.215,-5.799 -5.061,-0.147 -5.919,-0.171 -7.918,3.03 v -0.001 l -9.02,0.94 -15.999,20.831 -0.082,2.309 h -0.001 l -0.225,6.364 -0.22,6.207 h 0.001 l -0.05,1.441 h -0.001 l -0.084,2.362 h 0.001 l -0.003,0.116 2.26,2.44 5.662,6.11 v 0.001 l 5.806,6.266 8.521,-2.459 5.778,-1.667 2.095,-0.604 0.88,-0.254 4.667,0.682 0.645,2.85 h 4.54 1.581 l -0.081,3.645 h 0.001 l -0.061,2.65 -0.096,4.329 3.634,4.847 1.831,2.444 0.998,1.328 v 11.728 l -3.006,4.942 0.267,3.221 6.612,18.628 3.858,10.574 h 12.67 l 9.748,-11.279 0.435,-3.055 0.126,-0.884 3.81,-2.67 -0.281,-8.002 8.94,-7.328 -0.896,-8.37 -1.076,-12.049 2.923,-3.402 17.35,-20.185 -0.706,-3.54 -12.07,1.788 -0.626,-1.075 h 0.002 l -8.401,-14.435 -4.15,-7.134 -6.375,-10.958 3.49,2.846 0.943,-2.237 0.035,-0.083 0.04,-0.094 12.509,21.742 2.47,8.053 16.279,-7.343 8.202,-10.158 -4.541,-4.038 -1.687,-1.499 -2.657,2.979 -3.356,-0.666 h -0.001 l -2.845,-1.878 -3.549,-5.798 h 0.002 l -1.874,-3.06 1.713,-0.021 0.115,0.198 2.359,0.227 5.477,5.717 10.092,3.006 h 2.804 8.793 l 2.317,2.645 0.34,0.389 3.181,1.006 -1.489,1.53 1.409,1.838 2.536,0.295 0.443,-2.101 1.007,0.007 8.133,23.384 5.154,-3.171 0.805,-9.396 11.768,-11.378 1.251,-1.21 8.086,6.782 0.961,5.023 1.774,0.532 1.263,-1.589 2.359,2.658 z m -102.379,28.32 -0.516,0.911 h -2.991 l 0.764,-1.329 1.143,-1.985 h 2.965 l -1.365,2.403 z m 27.934,-67.487 0,0 -0.073,1.737 -4.969,-0.003 -2.744,-4.834 -2.181,-3.841 -1.463,-2.577 v -5.23 h 10e-4 l 5.046,-2.04 3.007,2.04 -3.651,1.771 -0.108,2.631 2.416,2.002 4.896,4.058 -0.177,4.286 z"
   id="path68"
   style="fill:none;stroke:#000000;stroke-width:1.5;stroke-miterlimit:10" />
		<polygon
   stroke-miterlimit="10"
   points="437.094,68.45 433.765,63.726 435.694,63.726 428.877,56.747 426.947,56.692 432.423,63.457 435.105,68.45 "
   id="polygon70"
   style="fill:none;stroke:#000000;stroke-width:1.5;stroke-miterlimit:10" />
		<polygon
   stroke-miterlimit="10"
   points="249.152,52.214 247.979,51.055 246.938,51.482 246.615,53.125 248.563,53.106 "
   id="polygon72"
   style="fill:none;stroke:#000000;stroke-width:1.5;stroke-miterlimit:10" />
		<polygon
   stroke-miterlimit="10"
   points="253.138,84.555 253.138,82.22 249.273,82.22 249.273,83.187 250.722,84.18 "
   id="polygon74"
   style="fill:none;stroke:#000000;stroke-width:1.5;stroke-miterlimit:10" />
		<polygon
   stroke-miterlimit="10"
   points="242.992,80.744 244.844,80.744 244.844,77.308 242.992,76.771 "
   id="polygon76"
   style="fill:none;stroke:#000000;stroke-width:1.5;stroke-miterlimit:10" />
		<polygon
   stroke-miterlimit="10"
   points="245.247,74.034 243.917,74.034 243.917,75.672 244.844,76.019 "
   id="polygon78"
   style="fill:none;stroke:#000000;stroke-width:1.5;stroke-miterlimit:10" />
		<polygon
   stroke-miterlimit="10"
   points="224.43,61.363 228.416,60.638 232.482,59.994 232.739,58.504 233.57,58.504 233.751,56.841 231.116,56.286 227.832,48.726 225.322,48.649 225.324,52.72 227.61,52.935 227.651,55.404 225.96,56.33 227.45,58.499 "
   id="polygon80"
   style="fill:none;stroke:#000000;stroke-width:1.5;stroke-miterlimit:10" />
		<polygon
   stroke-miterlimit="10"
   points="223.423,58.424 223.182,55.162 224.43,54.719 224.43,53.106 221.49,52.907 218.511,55.092 218.512,59.495 220.203,59.484 220.202,57.981 "
   id="polygon82"
   style="fill:none;stroke:#000000;stroke-width:1.5;stroke-miterlimit:10" />
		<polygon
   stroke-miterlimit="10"
   points="235.754,80.648 235.754,78.757 233.57,80.648 "
   id="polygon84"
   style="fill:none;stroke:#000000;stroke-width:1.5;stroke-miterlimit:10" />
		<polygon
   stroke-miterlimit="10"
   points="311.067,106.038 311.965,105.117 310.395,102.916 309.71,105.141 "
   id="polygon86"
   style="fill:none;stroke:#000000;stroke-width:1.5;stroke-miterlimit:10" />
		<polygon
   stroke-miterlimit="10"
   points="281.564,88.582 282.585,86.609 278.988,87.938 "
   id="polygon88"
   style="fill:none;stroke:#000000;stroke-width:1.5;stroke-miterlimit:10" />
		<polygon
   stroke-miterlimit="10"
   points="304.004,194.09 310.929,171.863 308.462,171.863 300.408,180.224 299.604,186.021 298.234,189.887 299.926,193.913 "
   id="polygon90"
   style="fill:none;stroke:#000000;stroke-width:1.5;stroke-miterlimit:10" />
		<polygon
   stroke-miterlimit="10"
   points="55.991,63.457 55.991,62.24 53.36,60.092 52.232,61.059 54.066,63.457 "
   id="polygon92"
   style="fill:none;stroke:#000000;stroke-width:1.5;stroke-miterlimit:10" />
		<polygon
   stroke-miterlimit="10"
   points="153.086,59.751 147.365,65.565 156.837,65.565 154.868,62.427 153.086,62.002 "
   id="polygon94"
   style="fill:none;stroke:#000000;stroke-width:1.5;stroke-miterlimit:10" />
		<polygon
   stroke-miterlimit="10"
   points="156.013,33.309 153.934,32.551 153.838,29.247 142.304,24.534 140.578,24.516 136.57,27.81 137.908,24.496 135.969,24.481 131.298,29.446 142.653,28.829 149.578,35.03 144.92,34.95 142.572,36.875 137.279,36.875 137.279,38.387 142.653,38.387 147.196,42.15 148.438,41.608 147.365,39.218 150.493,40.708 151.511,40.265 151.511,35.594 155.111,36.875 157.182,35.494 "
   id="polygon96"
   style="fill:none;stroke:#000000;stroke-width:1.5;stroke-miterlimit:10" />
		<polygon
   stroke-miterlimit="10"
   points="131.8,39.901 132.419,38.387 128.91,36.875 125.953,39.282 "
   id="polygon98"
   style="fill:none;stroke:#000000;stroke-width:1.5;stroke-miterlimit:10" />
		<polygon
   stroke-miterlimit="10"
   points="121.344,30.752 120.519,29.446 117.491,30.752 118.575,32.159 "
   id="polygon100"
   style="fill:none;stroke:#000000;stroke-width:1.5;stroke-miterlimit:10" />
		<polygon
   stroke-miterlimit="10"
   points="125.125,26.548 126.114,23.906 119.579,26.026 121.344,27.81 "
   id="polygon102"
   style="fill:none;stroke:#000000;stroke-width:1.5;stroke-miterlimit:10" />
		<polygon
   stroke-miterlimit="10"
   points="132.419,25.286 131.378,23.906 126.789,24.964 127.271,26.655 "
   id="polygon104"
   style="fill:none;stroke:#000000;stroke-width:1.5;stroke-miterlimit:10" />
		<polygon
   stroke-miterlimit="10"
   points="145.471,23.503 148.37,21.461 139.915,21.461 137.096,20.293 134.358,22.628 "
   id="polygon106"
   style="fill:none;stroke:#000000;stroke-width:1.5;stroke-miterlimit:10" />
		<polygon
   stroke-miterlimit="10"
   points="149.82,21.179 159.322,16.75 166.972,15.22 172.771,11.947 149.739,13.655 149.739,14.898 157.51,14.737 156.423,16.187 148.37,16.347 149.417,18.2 145.954,17.636 147.323,19.407 141.364,19.407 142.25,20.293 148.773,20.293 "
   id="polygon108"
   style="fill:none;stroke:#000000;stroke-width:1.5;stroke-miterlimit:10" />
		<polygon
   stroke-miterlimit="10"
   points="145.535,15.8 143.764,14.471 138.793,16.564 143.075,17.375 "
   id="polygon110"
   style="fill:none;stroke:#000000;stroke-width:1.5;stroke-miterlimit:10" />
		<polygon
   stroke-miterlimit="10"
   points="103.564,24.381 101.236,23.306 91.71,25.733 93.479,27.81 "
   id="polygon112"
   style="fill:none;stroke:#000000;stroke-width:1.5;stroke-miterlimit:10" />
		<polygon
   stroke-miterlimit="10"
   points="112.857,31.165 116.423,30.348 112.945,28.741 115.622,25.281 112.938,25.281 111.327,27.363 110.683,25.281 107.84,26.383 104.862,25.007 99.429,26.854 102.63,28.202 97.637,29.474 103.838,31.89 108.106,30.037 "
   id="polygon114"
   style="fill:none;stroke:#000000;stroke-width:1.5;stroke-miterlimit:10" />
		<polygon
   stroke-miterlimit="10"
   points="105.932,112.499 104.412,114.19 111.327,114.19 103.06,108.231 98.684,108.231 96.993,109.841 101.935,109.841 "
   id="polygon116"
   style="fill:none;stroke:#000000;stroke-width:1.5;stroke-miterlimit:10" />
		<polygon
   stroke-miterlimit="10"
   points="106.898,116.042 103.918,116.042 103.918,117.25 104.965,118.136 107.945,118.136 107.945,117.089 "
   id="polygon118"
   style="fill:none;stroke:#000000;stroke-width:1.5;stroke-miterlimit:10" />
		<polygon
   stroke-miterlimit="10"
   points="123.326,117.439 123.94,116.432 122.271,116.432 121.665,117.439 "
   id="polygon120"
   style="fill:none;stroke:#000000;stroke-width:1.5;stroke-miterlimit:10" />
		<polygon
   stroke-miterlimit="10"
   points="134.896,243.761 137.1,245.784 143.884,246.03 136.564,242.211 "
   id="polygon122"
   style="fill:none;stroke:#000000;stroke-width:1.5;stroke-miterlimit:10" />
		<path
   stroke-miterlimit="10"
   d="m 157.39,154.132 0.21,-2.205 -3.716,-1.603 -3.721,2.179 1.209,-3.264 -2.471,-1.067 -3.516,2.698 2.554,-3.759 -2.249,-4.914 -1.293,-2.829 -2.737,-0.234 -4.78,-0.41 -5.107,-4.864 -1.657,-1.578 -6.549,-0.644 -3.65,-2.6 -8.457,-0.074 -1.725,-0.015 -3.585,4.856 -1.791,0.112 -0.508,-1.862 -3.875,0.346 -1.366,1.136 -1.812,-1 -1.027,-0.567 -0.031,-1.349 -0.215,-9.461 -8.033,0.081 -0.043,0.038 0.565,-1.023 2.617,-4.938 0.133,-3.405 -3.435,-0.063 -2.731,4.48 h -7.517 l -3.656,-7.884 3.036,-3.811 7.058,-8.858 16.776,0.053 1.111,8.387 2.66,0.069 0.068,-10.441 27.165,-23.22 1.853,-0.32 5.154,-0.888 -3.382,1.61 0.322,1.397 9.18,-3.225 -4.484,-0.213 -2.094,-1.883 2.068,-3.21 -1.004,-0.964 -6.492,2.944 v -1.691 l 6.207,-2.979 9.959,-0.429 7.479,-3.981 0.037,-1.817 -5.454,-0.943 -0.657,-8.91 -7.128,2.806 0.045,-4.192 -3.437,-2.926 h -4.668 l -12.636,18.375 -3.056,0.01 0.054,-6.045 -10.875,-5.905 10.875,-8.053 6.173,-1.126 -1.289,-1.908 9.502,-1.047 3.866,-4.026 -3.624,-0.402 -4.993,3.302 0.563,-2.819 -2.335,-0.242 -0.546,-3.405 -4.044,1.794 1.047,2.174 -5.396,2.577 -9.422,-1.771 -4.977,2.335 -12.096,-4.832 -23.11,0.483 h -10e-4 l -3.65,-1.503 -19.113,0.108 -7.73,3.113 v 3.436 l -8.696,-0.107 -1.65,2.304 7.339,-0.264 -9.448,3.543 -4.565,6.186 3.921,-0.065 -7.517,4.939 2.748,0.215 14.389,-6.871 16.606,-0.579 5.045,5.047 -1.933,8.846 3.463,3.141 V 63.46 L 44.917,76.932 v 10.362 l 4.666,4.667 0.032,0.032 0.694,7.348 5.021,9.502 2.057,-1.592 -3.959,-8.441 v -4.751 h 2.335 l 0.09,4.419 7.5,17.618 12.23,5.103 3.051,-0.807 2.687,2.738 3.99,2.015 2.822,1.266 0.726,0.326 2.535,3.426 2.893,3.909 1.044,0.373 4.313,1.537 1.049,-1.561 2.466,0.237 0.721,2.389 0.738,2.45 -0.702,4.598 -5.154,6.496 -0.37,5.917 -0.113,1.814 10.801,18.396 9.332,6.246 1.562,38.246 4.138,3.344 0.19,6.86 7.156,9.259 2.316,0.238 1.871,0.194 -0.966,-20.133 10.898,-4.726 -4.942,-6.87 5.889,2.159 2.354,-4.1 4.807,-8.367 1.127,-7.248 11.66,-5.161 2.171,-16.123 5.028,-6.578 v -3.972 l -8.229,-5.37 -8.052,-0.484 z M 111.381,76.127 h -3.047 l 2.521,-1.719 h 3.032 l -2.506,1.719 z m 6.929,-4.753 h 1.782 l -2.481,1.692 h -1.768 l 2.467,-1.692 z m -17.244,-5.836 7.724,-1.639 0.967,3.423 1.562,1.151 2.625,-0.185 1.035,3.085 h -1.534 l -2.119,1.64 -2.147,0.215 0.429,-3.705 h -1.657 l -1.94,1.289 -3.603,5.315 h -2.115 l 4.074,-6.604 4.811,-1.029 -0.268,-0.903 -3.167,-0.108 -1.504,-0.913 -1.878,0.913 h -2.202 l 0.907,-1.945 z"
   id="path124"
   style="fill:none;stroke:#000000;stroke-width:1.5;stroke-miterlimit:10" />
		<polygon
   stroke-miterlimit="10"
   points="112.107,114.565 113.099,115.961 111.327,115.961 111.327,116.588 115.152,116.588 115.152,117.25 116.783,116.042 119.385,116.042 120.024,115.096 115.152,114.565 "
   id="polygon126"
   style="fill:none;stroke:#000000;stroke-width:1.5;stroke-miterlimit:10" />
	</g>
</g>
<g
   id="countries"
   transform="matrix(0.25457104,0,0,0.25457104,-4.2319923,-2.8504319)">
	<polygon
   stroke-miterlimit="10"
   points="76.46,104.635 72.673,97.198 68.083,97.359 65.906,94.058 49.583,91.96 49.614,91.992 50.309,99.34 55.329,108.842 57.386,107.25 53.427,98.809 53.427,94.058 55.762,94.058 55.853,98.477 63.353,116.095 75.583,121.197 78.635,120.391 81.321,123.128 82.659,120.753 85.477,120.753 85.075,117.658 87.49,117.658 90.631,115.317 90.764,111.913 87.329,111.85 84.598,116.33 77.081,116.33 73.424,108.446 "
   id="polygon129"
   style="fill:#bcbec0;stroke:#000000;stroke-width:0.25;stroke-miterlimit:10" />
	<polygon
   stroke-miterlimit="10"
   points="216.981,37.111 214.726,34.829 211.585,35.875 207.8,35.795 206.997,36.885 204.847,36.835 204.847,38.855 212.437,39.942 216.981,37.733 "
   id="polygon131"
   style="fill:#bcbec0;stroke:#000000;stroke-width:0.25;stroke-miterlimit:10" />
	<polygon
   stroke-miterlimit="10"
   points="250.428,85.683 250.413,87.263 252.849,87.891 252.864,85.747 "
   id="polygon133"
   style="fill:#bcbec0;stroke:#000000;stroke-width:0.25;stroke-miterlimit:10" />
	<polygon
   stroke-miterlimit="10"
   points="172.046,21.748 174.945,26.735 174.945,31.245 169.526,34.318 169.688,40.438 173.087,43.875 177.114,43.875 183.249,37.386 191.918,34.829 195.17,32.34 201.73,31.935 206.325,30.58 214.968,16.831 220.296,15.741 222.175,13.851 206.808,12.305 193.532,13.851 177.45,13.851 168.18,17.072 160.771,19.327 160.771,21.587 "
   id="polygon135"
   style="fill:#bcbec0;stroke:#000000;stroke-width:0.25;stroke-miterlimit:10" />
	<polygon
   stroke-miterlimit="10"
   points="418.947,108.07 421.097,110.083 422.41,106.378 421.097,105.01 "
   id="polygon137"
   style="fill:#bcbec0;stroke:#000000;stroke-width:0.25;stroke-miterlimit:10" />
	<polygon
   stroke-miterlimit="10"
   points="397.688,65.309 395.972,62.49 387.38,62.49 369.824,58.142 367.892,62.49 360.752,60.316 355.423,64.376 372.779,74.516 392.855,74.731 395.284,69.807 401.77,68.45 402.197,66.034 "
   id="polygon139"
   style="fill:#bcbec0;stroke:#000000;stroke-width:0.25;stroke-miterlimit:10" />
	<g
   id="china">
		<polygon
   stroke-miterlimit="10"
   points="405.582,114.432 403.005,114.995 403.005,116.525 404.052,117.787 405.582,115.881 "
   id="polygon142"
   style="fill:#bcbec0;stroke:#000000;stroke-width:0.25;stroke-miterlimit:10" />
		<polygon
   stroke-miterlimit="10"
   points="395.974,62.49 397.69,65.309 402.199,66.034 401.771,68.45 395.287,69.807 392.858,74.731 372.781,74.516 355.425,64.376 347.91,70.101 349.159,75.912 341.642,78.705 343.788,83.965 351.789,87.615 352.11,94.058 373.048,101.305 376.914,97.762 385.128,101.305 384,104.365 388.349,111.613 395.974,107.748 400.951,112.007 403.061,110.808 403.136,112.862 415.62,108.402 419.702,99.268 412.419,87.292 416.159,83.213 411.863,83.213 410.481,84.106 407.784,79.671 411.219,76.664 413.579,81.168 416.889,78.891 416.889,78.891 423.245,74.517 423.245,66.034 412.724,63.35 404.993,55.779 397.477,55.779 399.192,61.846 "
   id="polygon144"
   style="fill:#bcbec0;stroke:#000000;stroke-width:0.25;stroke-miterlimit:10" />
	</g>
	<g
   id="japan">
		<polygon
   stroke-miterlimit="10"
   points="439.361,75.254 442.301,75.214 443.549,73.08 437.025,70.342 437.146,75.737 438.436,76.502 "
   id="polygon147"
   style="fill:#bcbec0;stroke:#000000;stroke-width:0.25;stroke-miterlimit:10" />
		<polygon
   stroke-miterlimit="10"
   points="431.245,87.728 430.765,89.387 437.234,88.432 437.726,90.93 439.197,90.306 439.361,88.34 443.697,87.225 443.474,81.552 441.495,78.113 439.535,77.545 440.662,82.699 436.65,86.336 "
   id="polygon149"
   style="fill:#bcbec0;stroke:#000000;stroke-width:0.25;stroke-miterlimit:10" />
		<polygon
   stroke-miterlimit="10"
   points="430.101,90.93 432.436,90.635 433.201,91.763 432.355,94.42 "
   id="polygon151"
   style="fill:#bcbec0;stroke:#000000;stroke-width:0.25;stroke-miterlimit:10" />
		<polygon
   stroke-miterlimit="10"
   points="436.342,89.83 435.214,91.883 433.725,90.192 "
   id="polygon153"
   style="fill:#bcbec0;stroke:#000000;stroke-width:0.25;stroke-miterlimit:10" />
	</g>
	<g
   id="phillipines">
		<polygon
   stroke-miterlimit="10"
   points="429.255,124.873 425.712,124.498 424.423,122.887 425.712,119.934 424.426,117.086 422.088,117.035 421.524,122.045 424.826,126.028 428.714,126.519 "
   id="polygon156"
   style="fill:#bcbec0;stroke:#000000;stroke-width:0.25;stroke-miterlimit:10" />
		<polygon
   stroke-miterlimit="10"
   points="418.079,133.737 419.649,134.049 422.44,131.731 422.375,129.829 "
   id="polygon158"
   style="fill:#bcbec0;stroke:#000000;stroke-width:0.25;stroke-miterlimit:10" />
		<path
   stroke-miterlimit="10"
   d="M 434.812,133.919"
   id="path160"
   style="fill:#bcbec0;stroke:#000000;stroke-width:0.25;stroke-miterlimit:10" />
		<polygon
   stroke-miterlimit="10"
   points="430.329,137.328 430.329,139.557 432.66,138.862 431.872,137.422 433.752,136.936 432.154,131.946 430.974,135.029 427.108,135.029 "
   id="polygon162"
   style="fill:#bcbec0;stroke:#000000;stroke-width:0.25;stroke-miterlimit:10" />
		<polygon
   stroke-miterlimit="10"
   points="423.457,126.201 425.12,127.826 424.584,128.833 423.243,127.516 "
   id="polygon164"
   style="fill:#bcbec0;stroke:#000000;stroke-width:0.25;stroke-miterlimit:10" />
		<polygon
   stroke-miterlimit="10"
   points="425.12,130.188 426.303,130.994 427.592,129.039 425.873,128.833 "
   id="polygon166"
   style="fill:#bcbec0;stroke:#000000;stroke-width:0.25;stroke-miterlimit:10" />
		<polygon
   stroke-miterlimit="10"
   points="429.524,128.148 431.135,130.242 432.906,130.242 431.215,127.518 "
   id="polygon168"
   style="fill:#bcbec0;stroke:#000000;stroke-width:0.25;stroke-miterlimit:10" />
		<polygon
   stroke-miterlimit="10"
   points="429.524,129.913 430.43,131.503 429.697,132.471 428.422,130.539 "
   id="polygon170"
   style="fill:#bcbec0;stroke:#000000;stroke-width:0.25;stroke-miterlimit:10" />
		<polygon
   stroke-miterlimit="10"
   points="427.592,131.519 428.422,132.767 427.592,133.773 426.638,132.607 "
   id="polygon172"
   style="fill:#bcbec0;stroke:#000000;stroke-width:0.25;stroke-miterlimit:10" />
	</g>
	<polygon
   stroke-miterlimit="10"
   points="434.892,165.406 434.892,164.279 430.744,164.279 431.827,165.78 "
   id="polygon174"
   style="fill:#bcbec0;stroke:#000000;stroke-width:0.25;stroke-miterlimit:10" />
	<g
   id="indonesia">
		<polygon
   stroke-miterlimit="10"
   points="406.146,146.641 406.304,150.965 408.76,155.26 416.584,155.26 420.452,150.321 420.452,141.359 417.658,141.65 415.404,145.918 407.834,147.609 406.198,146.615 "
   id="polygon177"
   style="fill:#bcbec0;stroke:#000000;stroke-width:0.25;stroke-miterlimit:10" />
		<polygon
   stroke-miterlimit="10"
   points="400.587,157.917 400.587,154.615 387.702,141.248 383.288,139.557 398.216,159.889 "
   id="polygon179"
   style="fill:#bcbec0;stroke:#000000;stroke-width:0.25;stroke-miterlimit:10" />
		<polygon
   stroke-miterlimit="10"
   points="415.646,163.796 415.887,164.923 399.781,162.186 402.197,160.252 406.224,161.782 409.848,160.978 "
   id="polygon181"
   style="fill:#bcbec0;stroke:#000000;stroke-width:0.25;stroke-miterlimit:10" />
		<polygon
   stroke-miterlimit="10"
   points="425.953,163.796 423.457,163.796 423.939,165.406 426.315,165.406 427.322,164.601 "
   id="polygon183"
   style="fill:#bcbec0;stroke:#000000;stroke-width:0.25;stroke-miterlimit:10" />
		<polygon
   stroke-miterlimit="10"
   points="421.604,166.413 422.329,167.299 424.061,167.299 423.457,166.01 "
   id="polygon185"
   style="fill:#bcbec0;stroke:#000000;stroke-width:0.25;stroke-miterlimit:10" />
		<polygon
   stroke-miterlimit="10"
   points="430.744,164.279 430.744,164.279 428.248,167.057 430.141,167.299 431.827,165.78 "
   id="polygon187"
   style="fill:#bcbec0;stroke:#000000;stroke-width:0.25;stroke-miterlimit:10" />
		<polygon
   stroke-miterlimit="10"
   points="422.45,159.366 424.303,158.803 423.738,155.542 424.826,154.333 425.752,156.75 427.967,157.515 427.967,155.783 426.718,153.019 429.094,151.032 425.309,151.193 424.531,150.106 426.033,148.455 428.812,149.421 430.181,149.3 432.234,146.885 430.43,146.844 429.255,147.609 425.39,146.671 422.833,148.979 423.014,152.643 421.524,154.615 "
   id="polygon189"
   style="fill:#bcbec0;stroke:#000000;stroke-width:0.25;stroke-miterlimit:10" />
		<polygon
   stroke-miterlimit="10"
   points="436.336,154.176 435.911,155.69 440.099,155.26 440.099,154.176 "
   id="polygon191"
   style="fill:#bcbec0;stroke:#000000;stroke-width:0.25;stroke-miterlimit:10" />
		<polygon
   stroke-miterlimit="10"
   points="437.308,144.429 435.911,145.812 435.375,149.248 437.308,149.723 436.877,146.671 438.005,145.274 "
   id="polygon193"
   style="fill:#bcbec0;stroke:#000000;stroke-width:0.25;stroke-miterlimit:10" />
		<polygon
   stroke-miterlimit="10"
   points="446.805,153.581 446.241,150.602 441.651,151.246 "
   id="polygon195"
   style="fill:#bcbec0;stroke:#000000;stroke-width:0.25;stroke-miterlimit:10" />
		<polygon
   stroke-miterlimit="10"
   points="446.488,156.065 452.893,158.729 454.035,162 451.906,163.299 457.387,165.202 457.387,154.414 452.943,152.091 448.793,155.457 444.395,153.729 443.911,156.146 "
   id="polygon197"
   style="fill:#bcbec0;stroke:#000000;stroke-width:0.25;stroke-miterlimit:10" />
	</g>
	<polygon
   stroke-miterlimit="10"
   points="421.204,83.106 423.781,88.69 426.895,88.475 427.431,84.877 423.114,81.342 "
   id="polygon199"
   style="fill:#bcbec0;stroke:#000000;stroke-width:0.25;stroke-miterlimit:10" />
	<polygon
   stroke-miterlimit="10"
   points="423.673,79.456 423.243,74.517 416.886,78.891 418.746,82.421 421.204,83.106 423.114,81.342 421.204,79.778 "
   id="polygon201"
   style="fill:#bcbec0;stroke:#000000;stroke-width:0.25;stroke-miterlimit:10" />
	<g
   id="malaysia">
		<polygon
   stroke-miterlimit="10"
   points="417.581,138.316 414.141,142.953 406.198,146.615 407.834,147.609 415.404,145.918 417.658,141.65 420.452,141.359 420.452,138.081 "
   id="polygon204"
   style="fill:#bcbec0;stroke:#000000;stroke-width:0.25;stroke-miterlimit:10" />
		<polygon
   stroke-miterlimit="10"
   points="391.263,138.325 392.642,142.805 398.316,147.645 398.762,145.918 393.396,138.002 "
   id="polygon206"
   style="fill:#bcbec0;stroke:#000000;stroke-width:0.25;stroke-miterlimit:10" />
	</g>
	<g
   id="papua_x5F_new_x5F_guinea">
		<polygon
   stroke-miterlimit="10"
   points="459.385,165.896 463.192,162.396 468.13,167.216 472.635,168.145 467.058,162.565 467.332,159.612 457.387,154.414 457.387,165.202 "
   id="polygon209"
   style="fill:#bcbec0;stroke:#000000;stroke-width:0.25;stroke-miterlimit:10" />
		<polygon
   stroke-miterlimit="10"
   points="469.842,160.118 471.854,161.32 475.317,159.366 475.317,157.354 "
   id="polygon211"
   style="fill:#bcbec0;stroke:#000000;stroke-width:0.25;stroke-miterlimit:10" />
		<polygon
   stroke-miterlimit="10"
   points="472.635,154.454 476.687,157.354 478.307,156.801 474.2,154.349 "
   id="polygon213"
   style="fill:#bcbec0;stroke:#000000;stroke-width:0.25;stroke-miterlimit:10" />
	</g>
	<polygon
   stroke-miterlimit="10"
   points="385.125,101.305 382.605,100.218 379.219,102.648 377.631,113.636 380.138,115.738 381.099,120.761 382.873,121.293 384.136,119.704 386.499,122.365 387.811,127.222 387.501,132.237 389.526,128.256 385.877,115.104 388.346,113.312 388.346,111.613 383.998,104.365 "
   id="polygon215"
   style="fill:#bcbec0;stroke:#000000;stroke-width:0.25;stroke-miterlimit:10" />
	<polygon
   stroke-miterlimit="10"
   points="395.835,124.498 401.955,124.498 401.955,122.94 395.996,116.596 394.683,112.525 390.541,110.5 388.346,111.613 388.346,113.312 390.493,114.565 390.493,117.787 395.646,117.787 398.573,121.76 "
   id="polygon217"
   style="fill:#bcbec0;stroke:#000000;stroke-width:0.25;stroke-miterlimit:10" />
	<polygon
   stroke-miterlimit="10"
   points="388.346,113.312 385.877,115.104 389.526,128.256 387.501,132.237 387.38,134.215 390.923,137.221 391.263,138.325 393.396,138.002 389.957,132.927 390.765,125.088 394.627,128.919 394.627,125.706 398.573,121.76 395.646,117.787 390.493,117.787 390.493,114.565 "
   id="polygon219"
   style="fill:#bcbec0;stroke:#000000;stroke-width:0.25;stroke-miterlimit:10" />
	<polygon
   stroke-miterlimit="10"
   points="396.561,130.835 398.734,130.537 401.955,128.122 401.955,124.498 395.835,124.498 394.627,125.706 394.627,128.919 "
   id="polygon221"
   style="fill:#bcbec0;stroke:#000000;stroke-width:0.25;stroke-miterlimit:10" />
	<polygon
   stroke-miterlimit="10"
   points="401.958,124.498 401.958,128.122 398.734,130.537 398.814,134 404.99,129.919 404.776,123.85 398.332,117.035 398.654,113.312 400.949,112.007 395.974,107.748 390.543,110.5 394.683,112.525 395.996,116.596 401.958,122.94 "
   id="polygon223"
   style="fill:#bcbec0;stroke:#000000;stroke-width:0.25;stroke-miterlimit:10" />
	<polygon
   stroke-miterlimit="10"
   points="370.801,110.166 372.052,108.956 377.631,113.635 377.99,111.143 375.059,108.402 374.576,105.117 372.24,106.083 370.228,103.399 368.858,104.043 "
   id="polygon225"
   style="fill:#bcbec0;stroke:#000000;stroke-width:0.25;stroke-miterlimit:10" />
	<polygon
   stroke-miterlimit="10"
   points="369.331,100.02 368.36,99.684 366.291,102.984 354.919,98.674 354.952,95.042 352.108,94.058 351.786,87.615 349.31,86.485 347.02,86.485 343.62,88.901 343.529,90.958 345.588,92.125 346.572,96.146 342.1,100.262 339.236,100.262 339.236,103.303 341.383,104.109 341.383,106.727 337.515,107.761 337.854,108.15 341.035,109.157 339.546,110.687 340.955,112.525 343.491,112.821 343.935,110.72 344.941,110.727 353.074,134.111 358.229,130.94 359.033,121.544 370.801,110.166 368.858,104.043 370.228,103.399 372.24,106.083 374.576,105.117 375.059,108.402 377.99,111.143 379.219,102.648 382.605,100.218 376.911,97.762 373.046,101.305 372.24,102.984 368.858,102.145 "
   id="polygon227"
   style="fill:#bcbec0;stroke:#000000;stroke-width:0.25;stroke-miterlimit:10" />
	<polygon
   stroke-miterlimit="10"
   points="366.291,102.984 368.36,99.684 354.952,95.042 354.919,98.674 "
   id="polygon229"
   style="fill:#bcbec0;stroke:#000000;stroke-width:0.25;stroke-miterlimit:10" />
	<polygon
   stroke-miterlimit="10"
   points="372.24,102.984 373.046,101.305 369.331,100.02 368.858,102.145 "
   id="polygon231"
   style="fill:#bcbec0;stroke:#000000;stroke-width:0.25;stroke-miterlimit:10" />
	<polygon
   stroke-miterlimit="10"
   points="310.395,74.006 313.122,76.276 312.649,70.382 316.837,69.416 322.363,73.201 326.983,72.315 330.365,76.771 333.624,76.627 336.808,74.006 344.34,73.679 349.156,75.912 349.159,75.912 349.159,75.912 347.91,70.101 355.425,64.378 351.089,61.846 325.851,52.945 315.896,55.188 315.896,59.686 298.262,59.686 298.262,65.498 300.625,68.45 305.671,66.41 308.678,68.45 305.026,70.221 304.918,72.852 307.334,74.854 "
   id="polygon233"
   style="fill:#bcbec0;stroke:#000000;stroke-width:0.25;stroke-miterlimit:10" />
	<polygon
   stroke-miterlimit="10"
   points="315.951,81.898 312.053,83.198 311.98,84.935 307.012,84.932 304.268,80.097 297.725,80.744 297.725,82.677 305.673,96.167 308.032,96.393 313.509,102.11 323.601,105.117 326.404,105.117 328.433,101.627 326.178,98.809 322.957,89.468 324.245,86.729 322.554,83.992 "
   id="polygon235"
   style="fill:#bcbec0;stroke:#000000;stroke-width:0.25;stroke-miterlimit:10" />
	<polygon
   stroke-miterlimit="10"
   points="307.334,74.854 312.23,78.912 312.054,83.198 315.952,81.898 322.556,83.992 324.246,86.729 330.529,83.508 320.176,75.225 315.791,75.225 313.122,76.276 310.396,74.006 "
   id="polygon237"
   style="fill:#bcbec0;stroke:#000000;stroke-width:0.25;stroke-miterlimit:10" />
	<polygon
   stroke-miterlimit="10"
   points="346.572,96.146 345.588,92.125 343.529,90.958 343.62,88.901 347.02,86.485 349.312,86.485 344.536,84.306 339.465,85.039 337.854,92.017 331.976,97.444 325.685,97.381 326.178,98.809 328.433,101.627 326.404,105.117 335.197,105.117 337.515,107.761 341.383,106.727 341.383,104.109 339.236,103.303 339.236,100.262 342.1,100.262 "
   id="polygon239"
   style="fill:#bcbec0;stroke:#000000;stroke-width:0.25;stroke-miterlimit:10" />
	<polygon
   stroke-miterlimit="10"
   points="312.65,70.382 313.122,76.276 315.791,75.225 320.176,75.225 330.526,83.508 333.924,84.415 332.379,79.885 337.19,78.505 337.459,76.457 330.365,76.771 326.985,72.315 322.365,73.201 316.838,69.416 "
   id="polygon241"
   style="fill:#bcbec0;stroke:#000000;stroke-width:0.25;stroke-miterlimit:10" />
	<polygon
   stroke-miterlimit="10"
   points="325.685,97.381 331.976,97.444 337.854,92.017 339.465,85.039 338.418,82.099 333.921,84.415 330.526,83.508 324.245,86.729 322.957,89.468 "
   id="polygon243"
   style="fill:#bcbec0;stroke:#000000;stroke-width:0.25;stroke-miterlimit:10" />
	<polygon
   stroke-miterlimit="10"
   points="332.379,79.885 333.921,84.415 338.418,82.099 339.465,85.039 344.536,84.306 343.788,83.965 342.307,80.334 337.99,80.744 333.954,79.433 "
   id="polygon245"
   style="fill:#bcbec0;stroke:#000000;stroke-width:0.25;stroke-miterlimit:10" />
	<polygon
   stroke-miterlimit="10"
   points="337.459,76.457 337.19,78.505 333.954,79.433 337.99,80.744 342.307,80.334 341.642,78.705 349.156,75.912 344.34,73.679 336.808,74.006 333.624,76.627 "
   id="polygon247"
   style="fill:#bcbec0;stroke:#000000;stroke-width:0.25;stroke-miterlimit:10" />
	<polygon
   stroke-miterlimit="10"
   points="304.268,80.097 302.087,76.256 299.728,75.672 298.262,77.778 301.145,80.406 "
   id="polygon249"
   style="fill:#bcbec0;stroke:#000000;stroke-width:0.25;stroke-miterlimit:10" />
	<polygon
   stroke-miterlimit="10"
   points="298.262,77.778 299.728,75.672 294.275,73.201 292.074,73.679 292.074,76.691 296.345,77.778 "
   id="polygon251"
   style="fill:#bcbec0;stroke:#000000;stroke-width:0.25;stroke-miterlimit:10" />
	<polygon
   stroke-miterlimit="10"
   points="298.262,77.778 296.345,77.778 297.725,80.744 301.145,80.406 "
   id="polygon253"
   style="fill:#bcbec0;stroke:#000000;stroke-width:0.25;stroke-miterlimit:10" />
	<polygon
   stroke-miterlimit="10"
   points="264.331,48.479 264.008,49.929 260.841,48.479 260.85,50.361 265.171,51.463 268.278,52.886 269.484,51.86 269.053,48.804 267.471,49.284 265.171,47.995 264.042,48.262 "
   id="polygon255"
   style="fill:#bcbec0;stroke:#000000;stroke-width:0.25;stroke-miterlimit:10" />
	<polygon
   stroke-miterlimit="10"
   points="263.929,54.679 264.454,56.134 268.279,52.886 265.172,51.463 260.852,50.361 260.861,52.512 263.269,53.315 "
   id="polygon257"
   style="fill:#bcbec0;stroke:#000000;stroke-width:0.25;stroke-miterlimit:10" />
	<polygon
   stroke-miterlimit="10"
   points="264.454,56.134 265.249,58.339 272.465,59.489 276.955,58.507 274.277,57.417 275.888,56.39 273.096,51.86 269.485,51.86 "
   id="polygon259"
   style="fill:#bcbec0;stroke:#000000;stroke-width:0.25;stroke-miterlimit:10" />
	<polygon
   stroke-miterlimit="10"
   points="264.043,48.262 265.172,47.995 267.472,49.284 269.054,48.804 268.563,45.323 267.656,46.168 263.061,46.272 262.685,47.238 "
   id="polygon261"
   style="fill:#bcbec0;stroke:#000000;stroke-width:0.25;stroke-miterlimit:10" />
	<polygon
   stroke-miterlimit="10"
   points="265.701,59.591 263.124,62.808 263.124,64.628 272.868,64.628 273.809,66.41 272.123,69.059 273.598,69.678 273.995,68.45 279.785,68.45 278.496,69.778 280.276,70.785 282.684,70.597 280.397,67.685 286.396,66.41 287.927,62.974 276.955,58.507 272.465,59.489 265.249,58.339 "
   id="polygon263"
   style="fill:#bcbec0;stroke:#000000;stroke-width:0.25;stroke-miterlimit:10" />
	<polygon
   stroke-miterlimit="10"
   points="248.627,45.323 247.238,47.5 251.04,51.875 257.244,46.385 254.345,42.785 260.868,35.648 262.156,35.648 260.385,31.326 258.734,31.326 248.627,38.734 "
   id="polygon265"
   style="fill:#bcbec0;stroke:#000000;stroke-width:0.25;stroke-miterlimit:10" />
	<polygon
   stroke-miterlimit="10"
   points="247.239,47.5 248.628,45.323 248.628,38.734 258.735,31.326 260.386,31.326 264.332,31.326 264.332,29.481 258.603,29.773 238.954,43.373 240.925,47.995 246.831,47.029 "
   id="polygon267"
   style="fill:#bcbec0;stroke:#000000;stroke-width:0.25;stroke-miterlimit:10" />
	<polygon
   stroke-miterlimit="10"
   points="262.157,35.648 263.204,35.648 260.063,42.761 263.728,44.613 269.325,44.613 272.465,40.989 267.253,29.333 264.332,29.481 264.332,31.326 260.386,31.326 "
   id="polygon269"
   style="fill:#bcbec0;stroke:#000000;stroke-width:0.25;stroke-miterlimit:10" />
	<g
   id="russia">
		<polygon
   stroke-miterlimit="10"
   points="433.765,63.726 435.694,63.726 428.877,56.747 426.947,56.692 432.423,63.457 435.105,68.45 437.094,68.45 "
   id="polygon272"
   style="fill:#bcbec0;stroke:#000000;stroke-width:0.25;stroke-miterlimit:10" />
		<polygon
   stroke-miterlimit="10"
   points="263.269,53.315 260.861,52.512 260.869,54.115 263.929,54.679 "
   id="polygon274"
   style="fill:#bcbec0;stroke:#000000;stroke-width:0.25;stroke-miterlimit:10" />
		<polygon
   stroke-miterlimit="10"
   points="407.351,29.186 405.504,26.673 394.059,24.803 390.838,27.702 381.582,27.702 377.717,24.803 356.779,24.803 355.49,20.187 336.163,20.187 319.119,27.809 322.85,32.427 319.629,35.755 316.72,26.244 311.579,25.837 314.046,31.46 294.182,31.997 275.606,39.62 273.156,34.952 280.224,35.218 283.658,33.5 270.13,29.186 267.253,29.333 272.465,40.989 269.325,44.613 268.563,45.323 269.054,48.804 269.485,51.86 273.096,51.86 275.888,56.39 274.277,57.417 276.955,58.507 287.927,62.974 286.396,66.41 287.121,68.127 285.35,68.61 285.657,71.434 292.074,73.679 294.275,73.201 299.728,75.672 302.087,76.256 300.624,73.679 300.624,68.45 298.262,65.498 298.262,59.686 315.896,59.686 315.896,55.188 325.851,52.945 351.089,61.846 355.42,64.376 360.752,60.316 367.892,62.49 369.824,58.142 387.38,62.49 395.972,62.49 399.189,61.846 397.474,55.779 404.99,55.779 412.722,63.35 423.243,66.034 423.243,74.517 427.851,73.707 430.329,70.007 430.329,63.135 423.243,55.082 416.37,54.975 417.551,46.493 431.724,46.6 433.264,41.786 439.24,44.049 439.261,41.83 440.743,41.983 443.319,44.452 440.833,46.147 440.529,51.216 450.623,60.773 450.623,51.539 444.931,46.062 458.406,41.794 458.575,40.418 451.803,38.573 454.436,36.516 460.5,37.768 464.607,37.849 461.308,34.308 440.151,30.117 "
   id="polygon276"
   style="fill:#bcbec0;stroke:#000000;stroke-width:0.25;stroke-miterlimit:10" />
	</g>
	<polygon
   stroke-miterlimit="10"
   points="257.406,68.512 261.271,67.846 264.332,64.628 263.124,64.628 263.124,63.867 256.279,65.126 253.789,67.167 "
   id="polygon278"
   style="fill:#bcbec0;stroke:#000000;stroke-width:0.25;stroke-miterlimit:10" />
	<polygon
   stroke-miterlimit="10"
   points="263.124,63.867 263.124,62.808 256.923,62.055 256.665,61.953 254.427,63.376 256.279,65.126 "
   id="polygon280"
   style="fill:#bcbec0;stroke:#000000;stroke-width:0.25;stroke-miterlimit:10" />
	<polygon
   stroke-miterlimit="10"
   points="245.599,68.048 244.879,65.873 242.992,65.873 241.762,66.44 241.37,68.353 243.59,68.512 "
   id="polygon282"
   style="fill:#bcbec0;stroke:#000000;stroke-width:0.25;stroke-miterlimit:10" />
	<polygon
   stroke-miterlimit="10"
   points="256.665,61.953 252.296,60.235 248.403,61.443 249.867,63.376 254.427,63.376 "
   id="polygon284"
   style="fill:#bcbec0;stroke:#000000;stroke-width:0.25;stroke-miterlimit:10" />
	<polygon
   stroke-miterlimit="10"
   points="221.168,75.672 217.786,75.107 217.625,81.495 219.226,84.34 220.128,84.408 "
   id="polygon286"
   style="fill:#bcbec0;stroke:#000000;stroke-width:0.25;stroke-miterlimit:10" />
	<polygon
   stroke-miterlimit="10"
   points="272.868,64.628 269.979,64.628 272.123,69.059 273.809,66.41 "
   id="polygon288"
   style="fill:#bcbec0;stroke:#000000;stroke-width:0.25;stroke-miterlimit:10" />
	<polygon
   stroke-miterlimit="10"
   points="257.649,54.221 256.924,53.552 252.299,54.679 251.886,54.674 252.299,60.235 256.667,61.953 256.924,62.055 263.125,62.808 265.702,59.591 265.249,58.339 264.454,56.134 263.93,54.679 260.87,54.115 "
   id="polygon290"
   style="fill:#bcbec0;stroke:#000000;stroke-width:0.25;stroke-miterlimit:10" />
	<polygon
   stroke-miterlimit="10"
   points="264.01,72.396 270.854,71.617 272.797,72.154 273.598,69.678 272.123,69.059 269.979,64.628 264.332,64.628 261.271,67.846 "
   id="polygon292"
   style="fill:#bcbec0;stroke:#000000;stroke-width:0.25;stroke-miterlimit:10" />
	<polygon
   stroke-miterlimit="10"
   points="245.681,53.552 243.596,53.552 244.02,54.567 240.898,56.436 240.619,61.821 242.508,62.808 241.762,66.44 242.992,65.873 247.394,65.873 247.769,65.762 250.964,64.826 249.867,63.376 248.403,61.443 252.296,60.235 251.885,54.674 245.947,54.606 "
   id="polygon294"
   style="fill:#bcbec0;stroke:#000000;stroke-width:0.25;stroke-miterlimit:10" />
	<g
   id="denmark">
		<polygon
   stroke-miterlimit="10"
   points="243.596,53.552 245.681,53.552 245.568,53.106 246.253,49.284 244.377,49.258 243.053,52.256 "
   id="polygon297"
   style="fill:#bcbec0;stroke:#000000;stroke-width:0.25;stroke-miterlimit:10" />
		<polygon
   stroke-miterlimit="10"
   points="249.152,52.214 247.979,51.055 246.938,51.482 246.615,53.125 248.563,53.106 "
   id="polygon299"
   style="fill:#bcbec0;stroke:#000000;stroke-width:0.25;stroke-miterlimit:10" />
	</g>
	<polygon
   stroke-miterlimit="10"
   points="244.879,65.873 245.599,68.048 249.409,67.167 253.789,67.167 255.625,65.663 256.279,65.126 254.427,63.376 249.867,63.376 250.964,64.826 247.394,65.873 "
   id="polygon301"
   style="fill:#bcbec0;stroke:#000000;stroke-width:0.25;stroke-miterlimit:10" />
	<g
   id="italy">
		<polygon
   stroke-miterlimit="10"
   points="253.138,82.22 249.273,82.22 249.273,83.187 250.722,84.18 253.138,84.555 "
   id="polygon304"
   style="fill:#bcbec0;stroke:#000000;stroke-width:0.25;stroke-miterlimit:10" />
		<polygon
   stroke-miterlimit="10"
   points="242.992,76.771 242.992,80.744 244.844,80.744 244.844,77.308 "
   id="polygon306"
   style="fill:#bcbec0;stroke:#000000;stroke-width:0.25;stroke-miterlimit:10" />
		<polygon
   stroke-miterlimit="10"
   points="241.371,68.353 241.02,70.06 243.258,71.081 245.864,71.081 253.863,79.064 254.266,82.461 255.742,81.602 256.198,79.16 258.017,78.795 248.264,70.348 251.034,70.182 249.409,67.167 243.59,68.512 "
   id="polygon308"
   style="fill:#bcbec0;stroke:#000000;stroke-width:0.25;stroke-miterlimit:10" />
	</g>
	<g
   id="france">
		<polygon
   stroke-miterlimit="10"
   points="243.917,74.034 243.917,75.672 244.844,76.019 245.247,74.034 "
   id="polygon311"
   style="fill:#bcbec0;stroke:#000000;stroke-width:0.25;stroke-miterlimit:10" />
		<polygon
   stroke-miterlimit="10"
   points="225.463,63.994 225.463,65.175 228.776,66.969 229.221,72.852 234.135,75.999 235.664,74.034 242.857,74.086 243.072,71.081 243.258,71.081 241.02,70.06 242.508,62.808 235.963,59.391 228.275,63.994 "
   id="polygon313"
   style="fill:#bcbec0;stroke:#000000;stroke-width:0.25;stroke-miterlimit:10" />
	</g>
	<polygon
   stroke-miterlimit="10"
   points="239.631,61.305 240.675,60.739 240.722,59.853 237.788,58.298 235.963,59.391 "
   id="polygon315"
   style="fill:#bcbec0;stroke:#000000;stroke-width:0.25;stroke-miterlimit:10" />
	<polygon
   stroke-miterlimit="10"
   points="237.788,58.298 240.722,59.853 240.898,56.436 "
   id="polygon317"
   style="fill:#bcbec0;stroke:#000000;stroke-width:0.25;stroke-miterlimit:10" />
	<polygon
   stroke-miterlimit="10"
   points="240.674,60.739 239.629,61.305 240.617,61.821 "
   id="polygon319"
   style="fill:#bcbec0;stroke:#000000;stroke-width:0.25;stroke-miterlimit:10" />
	<g
   id="united_kingdom">
		<polygon
   stroke-miterlimit="10"
   points="227.61,52.935 227.651,55.404 225.96,56.33 227.45,58.499 224.43,61.363 228.416,60.638 232.482,59.994 232.739,58.504 233.57,58.504 233.751,56.841 231.116,56.286 227.832,48.726 225.322,48.649 225.324,52.72 "
   id="polygon322"
   style="fill:#bcbec0;stroke:#000000;stroke-width:0.25;stroke-miterlimit:10" />
		<polygon
   stroke-miterlimit="10"
   points="224.43,54.719 224.43,53.106 221.49,52.907 223.182,55.162 "
   id="polygon324"
   style="fill:#bcbec0;stroke:#000000;stroke-width:0.25;stroke-miterlimit:10" />
	</g>
	<polygon
   stroke-miterlimit="10"
   points="220.203,59.484 220.202,57.981 223.423,58.424 223.182,55.162 221.49,52.907 218.511,55.092 218.512,59.495 "
   id="polygon326"
   style="fill:#bcbec0;stroke:#000000;stroke-width:0.25;stroke-miterlimit:10" />
	<g
   id="spain">
		<polygon
   stroke-miterlimit="10"
   points="220.128,84.408 227.182,84.935 234.135,75.999 229.221,72.852 217.84,72.934 217.786,75.107 221.168,75.672 "
   id="polygon329"
   style="fill:#bcbec0;stroke:#000000;stroke-width:0.25;stroke-miterlimit:10" />
		<polygon
   stroke-miterlimit="10"
   points="235.754,80.648 235.754,78.757 233.57,80.648 "
   id="polygon331"
   style="fill:#bcbec0;stroke:#000000;stroke-width:0.25;stroke-miterlimit:10" />
	</g>
	<polygon
   stroke-miterlimit="10"
   points="264.953,74.601 261.271,75.321 261.512,78.449 265.981,77.003 "
   id="polygon333"
   style="fill:#bcbec0;stroke:#000000;stroke-width:0.25;stroke-miterlimit:10" />
	<polygon
   stroke-miterlimit="10"
   points="261.271,75.321 264.953,74.601 264.01,72.396 261.271,67.846 258.682,68.292 259.5,72.852 "
   id="polygon335"
   style="fill:#bcbec0;stroke:#000000;stroke-width:0.25;stroke-miterlimit:10" />
	<polygon
   stroke-miterlimit="10"
   points="253.54,69.059 254.491,67.429 253.788,67.167 249.407,67.167 251.033,70.182 251.443,70.158 "
   id="polygon337"
   style="fill:#bcbec0;stroke:#000000;stroke-width:0.25;stroke-miterlimit:10" />
	<g
   id="turkey">
		<polygon
   stroke-miterlimit="10"
   points="273.351,79.026 270.023,78.999 272.761,84.505 285.35,85.2 297.725,82.677 297.725,80.744 296.345,77.778 292.074,76.691 274.827,77.255 "
   id="polygon340"
   style="fill:#bcbec0;stroke:#000000;stroke-width:0.25;stroke-miterlimit:10" />
		<polygon
   stroke-miterlimit="10"
   points="270.013,77.778 273.083,77.778 271.842,75.108 269.981,75.709 "
   id="polygon342"
   style="fill:#bcbec0;stroke:#000000;stroke-width:0.25;stroke-miterlimit:10" />
	</g>
	<polygon
   stroke-miterlimit="10"
   points="259.5,72.852 258.898,69.498 254.346,70.114 256.265,74.208 257.372,74.483 "
   id="polygon344"
   style="fill:#bcbec0;stroke:#000000;stroke-width:0.25;stroke-miterlimit:10" />
	<polygon
   stroke-miterlimit="10"
   points="264.01,81.391 262.344,82.099 264.548,84.877 265.942,82.677 264.387,79.294 267.472,77.778 270.014,77.778 269.981,75.709 259.853,78.985 261.271,80.625 "
   id="polygon346"
   style="fill:#bcbec0;stroke:#000000;stroke-width:0.25;stroke-miterlimit:10" />
	<polygon
   stroke-miterlimit="10"
   points="253.541,69.059 251.444,70.158 252.172,70.114 255.564,74.034 256.265,74.208 254.346,70.114 258.898,69.498 258.682,68.292 257.406,68.512 254.492,67.429 "
   id="polygon348"
   style="fill:#bcbec0;stroke:#000000;stroke-width:0.25;stroke-miterlimit:10" />
	<polygon
   stroke-miterlimit="10"
   points="259.5,72.852 257.372,74.483 258.695,74.812 260.295,73.961 "
   id="polygon350"
   style="fill:#bcbec0;stroke:#000000;stroke-width:0.25;stroke-miterlimit:10" />
	<polygon
   stroke-miterlimit="10"
   points="259.853,78.985 261.512,78.449 261.271,75.321 260.295,73.961 258.695,74.812 259.6,78.693 "
   id="polygon352"
   style="fill:#bcbec0;stroke:#000000;stroke-width:0.25;stroke-miterlimit:10" />
	<polygon
   stroke-miterlimit="10"
   points="272.797,72.154 270.854,71.617 264.01,72.396 265.981,77.003 271.842,75.108 "
   id="polygon354"
   style="fill:#bcbec0;stroke:#000000;stroke-width:0.25;stroke-miterlimit:10" />
	<polygon
   stroke-miterlimit="10"
   points="311.965,105.117 310.395,102.916 309.71,105.141 311.067,106.038 "
   id="polygon356"
   style="fill:#bcbec0;stroke:#000000;stroke-width:0.25;stroke-miterlimit:10" />
	<polygon
   stroke-miterlimit="10"
   points="281.564,88.582 282.585,86.609 278.988,87.938 "
   id="polygon358"
   style="fill:#bcbec0;stroke:#000000;stroke-width:0.25;stroke-miterlimit:10" />
	<polygon
   stroke-miterlimit="10"
   points="286.235,97.816 288.249,96.876 288.866,93.252 290.44,92.588 290.521,92.554 290.055,90.629 286.826,92.554 284.893,91.202 284.893,97.655 "
   id="polygon360"
   style="fill:#bcbec0;stroke:#000000;stroke-width:0.25;stroke-miterlimit:10" />
	<polygon
   stroke-miterlimit="10"
   points="304.166,99.05 303.064,97.611 300.031,97.601 290.439,92.588 288.865,93.252 288.248,96.876 286.234,97.816 284.892,97.655 297.401,119.398 297.651,120.214 298.953,117.975 303.387,118.536 302.984,120.229 309.266,116.928 318.124,114.565 318.124,109.95 313.507,109.304 312.11,106.727 309.266,104.849 305.717,99.05 "
   id="polygon362"
   style="fill:#bcbec0;stroke:#000000;stroke-width:0.25;stroke-miterlimit:10" />
	<polygon
   stroke-miterlimit="10"
   points="304.167,99.05 305.719,99.05 303.845,95.99 302.074,95.99 301.657,97.606 303.066,97.611 "
   id="polygon364"
   style="fill:#bcbec0;stroke:#000000;stroke-width:0.25;stroke-miterlimit:10" />
	<polygon
   stroke-miterlimit="10"
   points="290.54,92.64 300.032,97.601 301.657,97.606 302.074,95.99 305.558,95.969 297.725,82.677 294.117,83.412 292.678,89.065 290.055,90.629 "
   id="polygon366"
   style="fill:#bcbec0;stroke:#000000;stroke-width:0.25;stroke-miterlimit:10" />
	<polygon
   stroke-miterlimit="10"
   points="313.509,109.304 316.109,109.667 316.109,109.667 319.812,105.912 318.125,104.413 315.468,107.393 312.111,106.727 "
   id="polygon368"
   style="fill:#bcbec0;stroke:#000000;stroke-width:0.25;stroke-miterlimit:10" />
	<polygon
   stroke-miterlimit="10"
   points="318.125,114.565 313.666,115.754 313.666,118.432 316.15,120.107 324.353,109.95 319.812,105.912 316.109,109.667 316.109,109.667 318.125,109.95 "
   id="polygon370"
   style="fill:#bcbec0;stroke:#000000;stroke-width:0.25;stroke-miterlimit:10" />
	<polygon
   stroke-miterlimit="10"
   points="286.826,92.554 292.678,89.065 294.117,83.412 285.35,85.2 284.762,87.95 286.354,88.501 284.893,91.202 "
   id="polygon372"
   style="fill:#bcbec0;stroke:#000000;stroke-width:0.25;stroke-miterlimit:10" />
	<polygon
   stroke-miterlimit="10"
   points="303.389,118.536 298.954,117.975 297.653,120.214 299.871,127.451 316.15,120.107 313.666,118.432 313.666,115.754 309.267,116.928 302.985,120.229 "
   id="polygon374"
   style="fill:#bcbec0;stroke:#000000;stroke-width:0.25;stroke-miterlimit:10" />
	<polygon
   stroke-miterlimit="10"
   points="284.762,87.95 284.175,90.698 284.893,91.202 286.354,88.501 "
   id="polygon376"
   style="fill:#bcbec0;stroke:#000000;stroke-width:0.25;stroke-miterlimit:10" />
	<polygon
   stroke-miterlimit="10"
   points="284.893,91.202 284.175,90.698 283.061,94.833 284.853,97.75 284.893,97.655 "
   id="polygon378"
   style="fill:#bcbec0;stroke:#000000;stroke-width:0.25;stroke-miterlimit:10" />
	<polygon
   stroke-miterlimit="10"
   points="304.004,194.091 310.929,171.865 308.462,171.865 300.408,180.224 299.604,186.021 298.234,189.887 299.926,193.913 "
   id="polygon380"
   style="fill:#bcbec0;stroke:#000000;stroke-width:0.25;stroke-miterlimit:10" />
	<polygon
   stroke-miterlimit="10"
   points="254.668,131.798 251.757,125.625 251.757,129.039 247.582,137.704 243.932,137.912 243.424,141.468 245.005,141.468 244.924,145.113 254.99,145.113 255.436,143.825 255.419,143.825 252.414,139.584 253.487,135.289 252.307,131.798 "
   id="polygon382"
   style="fill:#bcbec0;stroke:#000000;stroke-width:0.25;stroke-miterlimit:10" />
	<polygon
   stroke-miterlimit="10"
   points="244.77,152.091 248.403,156.938 248.403,152.79 253.058,152.79 250.678,145.113 247.69,145.113 247.69,147.763 244.865,147.763 "
   id="polygon384"
   style="fill:#bcbec0;stroke:#000000;stroke-width:0.25;stroke-miterlimit:10" />
	<polygon
   stroke-miterlimit="10"
   points="244.926,145.113 244.865,147.763 247.691,147.763 247.691,145.113 "
   id="polygon386"
   style="fill:#bcbec0;stroke:#000000;stroke-width:0.25;stroke-miterlimit:10" />
	<polygon
   stroke-miterlimit="10"
   points="243.424,141.468 243.932,137.912 247.582,137.704 251.757,129.039 251.757,125.625 236.107,125.625 233.573,137.936 238.24,138.618 238.885,141.468 "
   id="polygon388"
   style="fill:#bcbec0;stroke:#000000;stroke-width:0.25;stroke-miterlimit:10" />
	<polygon
   stroke-miterlimit="10"
   points="216.299,142.92 224.82,140.461 224.82,132.578 216.498,130.94 216.498,135.081 215.151,136.26 216.299,137.552 "
   id="polygon390"
   style="fill:#bcbec0;stroke:#000000;stroke-width:0.25;stroke-miterlimit:10" />
	<polygon
   stroke-miterlimit="10"
   points="213.215,134.077 210.493,136.654 216.299,142.92 216.299,137.552 "
   id="polygon392"
   style="fill:#bcbec0;stroke:#000000;stroke-width:0.25;stroke-miterlimit:10" />
	<polygon
   stroke-miterlimit="10"
   points="264.654,161.166 261.326,161.166 260.663,163.527 257.352,163.635 256.494,160.673 251.232,160.712 251.232,172.438 248.226,177.38 248.493,180.6 267.035,180.6 264.01,176.842 264.01,172.654 267.714,172.654 267.591,167.983 264.654,166.533 "
   id="polygon394"
   style="fill:#bcbec0;stroke:#000000;stroke-width:0.25;stroke-miterlimit:10" />
	<polygon
   stroke-miterlimit="10"
   points="224.82,130.35 224.82,140.461 230.598,138.794 229.221,130.35 "
   id="polygon396"
   style="fill:#bcbec0;stroke:#000000;stroke-width:0.25;stroke-miterlimit:10" />
	<polygon
   stroke-miterlimit="10"
   points="248.403,152.79 248.403,156.938 250.234,159.381 254.668,157.354 259.339,149.599 260.076,143.825 255.436,143.825 254.99,145.113 250.678,145.113 253.058,152.79 "
   id="polygon398"
   style="fill:#bcbec0;stroke:#000000;stroke-width:0.25;stroke-miterlimit:10" />
	<polygon
   stroke-miterlimit="10"
   points="297.876,127.291 290.909,115.317 287.308,123.819 294.08,123.819 296.828,128.169 "
   id="polygon400"
   style="fill:#bcbec0;stroke:#000000;stroke-width:0.25;stroke-miterlimit:10" />
	<polygon
   stroke-miterlimit="10"
   points="210.433,130.94 207.717,133.655 210.495,136.654 213.216,134.077 "
   id="polygon402"
   style="fill:#bcbec0;stroke:#000000;stroke-width:0.25;stroke-miterlimit:10" />
	<polygon
   stroke-miterlimit="10"
   points="297.878,127.291 295.793,129.039 297.558,131.013 299.311,129.752 "
   id="polygon404"
   style="fill:#bcbec0;stroke:#000000;stroke-width:0.25;stroke-miterlimit:10" />
	<polygon
   stroke-miterlimit="10"
   points="286.88,174.162 286.88,177.381 284.732,179.257 284.732,175.486 282.585,173.729 282.52,173.773 278.459,176.599 282.52,179.257 282.52,182.978 279.983,188.921 279.983,195.495 281.815,195.47 281.941,194.585 285.751,191.917 285.47,183.911 294.41,176.585 293.515,168.216 284.625,170.072 284.625,172.654 "
   id="polygon406"
   style="fill:#bcbec0;stroke:#000000;stroke-width:0.25;stroke-miterlimit:10" />
	<polygon
   stroke-miterlimit="10"
   points="299.335,133.006 306.426,135.516 295.361,144.738 295.361,152.765 312.711,132.578 312.005,129.039 299.935,130.827 299.309,129.752 297.557,131.013 "
   id="polygon408"
   style="fill:#bcbec0;stroke:#000000;stroke-width:0.25;stroke-miterlimit:10" />
	<polygon
   stroke-miterlimit="10"
   points="261.755,182.204 270.597,182.204 269.453,180.6 248.493,180.6 255.105,199.229 261.755,199.229 "
   id="polygon410"
   style="fill:#bcbec0;stroke:#000000;stroke-width:0.25;stroke-miterlimit:10" />
	<path
   stroke-miterlimit="10"
   d="m 279.983,195.495 v 2.123 l -1.801,-1.073 v -1.659 h 1.801 v -5.965 h -4.599 l -10.946,7.33 -2.684,-3.094 v 6.071 h -6.65 l 3.858,10.575 h 12.67 l 9.748,-11.278 0.435,-3.056 -1.832,0.026 z m -4.055,6.309 -1.396,1.451 h -2.363 v -2.146 l 1.826,-1.182 h 1.933 v 1.877 z"
   id="path412"
   style="fill:#bcbec0;stroke:#000000;stroke-width:0.25;stroke-miterlimit:10" />
	<polygon
   stroke-miterlimit="10"
   points="285.913,145.113 285.484,148.281 284.12,150.685 292.438,156.166 295.361,152.765 295.361,144.738 298.583,142.053 289.135,142.053 288.075,140.943 285.04,141.368 "
   id="polygon414"
   style="fill:#bcbec0;stroke:#000000;stroke-width:0.25;stroke-miterlimit:10" />
	<polygon
   stroke-miterlimit="10"
   points="280.613,151.594 281.377,150.267 280.015,150.267 276.965,157.848 282.52,165.676 284.625,165.676 284.625,170.072 293.515,168.216 292.438,156.166 284.12,150.685 283.604,151.594 "
   id="polygon416"
   style="fill:#bcbec0;stroke:#000000;stroke-width:0.25;stroke-miterlimit:10" />
	<polygon
   stroke-miterlimit="10"
   points="211.074,108.849 209.249,111.613 203.154,111.613 202.929,117.977 210.43,123.37 210.43,121.438 219.446,121.438 218.59,106.057 223.341,106.057 216.013,100.653 216.013,103.184 211.074,103.184 "
   id="polygon418"
   style="fill:#bcbec0;stroke:#000000;stroke-width:0.25;stroke-miterlimit:10" />
	<polygon
   stroke-miterlimit="10"
   points="277.384,150.267 276.54,153.816 278.775,153.347 280.015,150.267 "
   id="polygon420"
   style="fill:#bcbec0;stroke:#000000;stroke-width:0.25;stroke-miterlimit:10" />
	<polygon
   stroke-miterlimit="10"
   points="276.54,153.816 275.928,156.387 276.965,157.848 278.775,153.347 "
   id="polygon422"
   style="fill:#bcbec0;stroke:#000000;stroke-width:0.25;stroke-miterlimit:10" />
	<polygon
   stroke-miterlimit="10"
   points="210.432,130.94 213.215,134.077 215.151,136.26 216.498,135.081 216.498,130.94 215.854,127.987 207.257,127.987 204.831,130.542 207.716,133.655 "
   id="polygon424"
   style="fill:#bcbec0;stroke:#000000;stroke-width:0.25;stroke-miterlimit:10" />
	<polygon
   stroke-miterlimit="10"
   points="210.432,123.37 212.471,127.987 215.854,127.987 216.498,130.94 220.659,131.759 220.659,127.59 236.63,121.115 236.63,115.854 223.343,106.057 218.591,106.057 219.447,121.438 210.432,121.438 "
   id="polygon426"
   style="fill:#bcbec0;stroke:#000000;stroke-width:0.25;stroke-miterlimit:10" />
	<polygon
   stroke-miterlimit="10"
   points="277.055,172.654 267.591,167.983 267.714,172.654 264.01,172.654 264.01,176.842 267.035,180.6 272.707,180.6 282.52,173.773 282.52,165.676 281.294,163.948 275.928,164.762 274.961,169.11 278.183,170.399 "
   id="polygon428"
   style="fill:#bcbec0;stroke:#000000;stroke-width:0.25;stroke-miterlimit:10" />
	<polygon
   stroke-miterlimit="10"
   points="275.384,188.921 270.597,182.204 261.755,182.204 261.755,193.157 264.438,196.251 "
   id="polygon430"
   style="fill:#bcbec0;stroke:#000000;stroke-width:0.25;stroke-miterlimit:10" />
	<polygon
   stroke-miterlimit="10"
   points="224.82,130.35 229.221,130.35 234.333,128.473 229.448,124.027 220.659,127.59 220.659,131.759 224.82,132.578 "
   id="polygon432"
   style="fill:#bcbec0;stroke:#000000;stroke-width:0.25;stroke-miterlimit:10" />
	<polygon
   stroke-miterlimit="10"
   points="282.585,173.729 284.732,175.486 284.732,179.257 286.88,177.381 286.88,174.162 284.625,172.654 284.625,165.676 282.52,165.676 282.52,173.773 "
   id="polygon434"
   style="fill:#bcbec0;stroke:#000000;stroke-width:0.25;stroke-miterlimit:10" />
	<polygon
   stroke-miterlimit="10"
   points="287.309,123.819 282.52,135.127 289.135,142.053 298.583,142.053 306.426,135.516 299.335,133.006 295.792,129.039 296.829,128.169 294.081,123.819 "
   id="polygon436"
   style="fill:#bcbec0;stroke:#000000;stroke-width:0.25;stroke-miterlimit:10" />
	<polygon
   stroke-miterlimit="10"
   points="282.52,148.281 285.484,148.281 285.913,145.113 285.04,141.368 279.31,142.171 277.384,150.267 281.377,150.267 "
   id="polygon438"
   style="fill:#bcbec0;stroke:#000000;stroke-width:0.25;stroke-miterlimit:10" />
	<polygon
   stroke-miterlimit="10"
   points="229.449,124.027 234.335,128.473 235.62,128 236.109,125.625 251.758,125.625 255.286,118.377 253.896,108.849 246.939,108.849 236.631,115.854 236.631,121.115 "
   id="polygon440"
   style="fill:#bcbec0;stroke:#000000;stroke-width:0.25;stroke-miterlimit:10" />
	<polygon
   stroke-miterlimit="10"
   points="211.076,108.849 211.076,103.184 216.015,103.184 216.015,99.741 210.581,99.741 203.237,109.304 203.155,111.613 209.25,111.613 "
   id="polygon442"
   style="fill:#bcbec0;stroke:#000000;stroke-width:0.25;stroke-miterlimit:10" />
	<polygon
   stroke-miterlimit="10"
   points="202.658,125.625 202.574,127.987 212.47,127.987 210.43,123.37 202.929,117.977 202.708,124.184 207.638,125.625 "
   id="polygon444"
   style="fill:#bcbec0;stroke:#000000;stroke-width:0.25;stroke-miterlimit:10" />
	<polygon
   stroke-miterlimit="10"
   points="202.659,125.625 207.64,125.625 202.709,124.184 "
   id="polygon446"
   style="fill:#bcbec0;stroke:#000000;stroke-width:0.25;stroke-miterlimit:10" />
	<polygon
   stroke-miterlimit="10"
   points="254.668,131.798 252.307,131.798 253.487,135.289 265.172,129.77 265.172,123.762 267.768,121.196 268.027,115.359 257.89,108.849 253.895,108.849 255.285,118.377 251.757,125.625 "
   id="polygon448"
   style="fill:#bcbec0;stroke:#000000;stroke-width:0.25;stroke-miterlimit:10" />
	<polygon
   stroke-miterlimit="10"
   points="248.608,91.023 244.36,95.594 247.115,108.849 257.89,108.849 268.027,115.359 269.021,92.925 263.124,92.125 260.682,95.776 255.312,94.702 253.181,92.12 "
   id="polygon450"
   style="fill:#bcbec0;stroke:#000000;stroke-width:0.25;stroke-miterlimit:10" />
	<polygon
   stroke-miterlimit="10"
   points="216.015,99.009 228.255,92.328 228.255,87.534 219.235,88.474 210.581,99.74 215.155,99.74 216.015,99.74 "
   id="polygon452"
   style="fill:#bcbec0;stroke:#000000;stroke-width:0.25;stroke-miterlimit:10" />
	<polygon
   stroke-miterlimit="10"
   points="216.015,99.01 216.015,100.653 236.63,115.854 246.938,108.849 247.115,108.849 242.092,84.676 236.173,84.505 228.255,87.535 228.255,92.329 "
   id="polygon454"
   style="fill:#bcbec0;stroke:#000000;stroke-width:0.25;stroke-miterlimit:10" />
	<polygon
   stroke-miterlimit="10"
   points="248.608,91.023 246.938,90.623 247.153,84.823 242.092,84.676 244.36,95.594 "
   id="polygon456"
   style="fill:#bcbec0;stroke:#000000;stroke-width:0.25;stroke-miterlimit:10" />
	<polygon
   stroke-miterlimit="10"
   points="279.983,188.921 282.52,182.978 282.52,179.257 278.459,176.599 272.707,180.6 269.453,180.6 275.384,188.921 "
   id="polygon458"
   style="fill:#bcbec0;stroke:#000000;stroke-width:0.25;stroke-miterlimit:10" />
	<polygon
   stroke-miterlimit="10"
   points="275.928,201.804 275.928,199.927 273.995,199.927 272.169,201.108 272.169,203.255 274.532,203.255 "
   id="polygon460"
   style="fill:#bcbec0;stroke:#000000;stroke-width:0.25;stroke-miterlimit:10" />
	<polygon
   stroke-miterlimit="10"
   points="278.183,196.545 279.983,197.618 279.983,194.886 278.183,194.886 "
   id="polygon462"
   style="fill:#bcbec0;stroke:#000000;stroke-width:0.25;stroke-miterlimit:10" />
	<polygon
   stroke-miterlimit="10"
   points="283.061,94.833 269.021,92.925 268.266,109.95 283.658,109.95 286.759,108.183 280.384,97.225 283.874,100.071 284.817,97.834 284.853,97.75 "
   id="polygon464"
   style="fill:#bcbec0;stroke:#000000;stroke-width:0.25;stroke-miterlimit:10" />
	<polygon
   stroke-miterlimit="10"
   points="268.265,109.95 267.767,121.196 265.172,123.762 265.172,129.77 274.378,140.368 279.31,142.171 288.072,140.943 282.519,135.127 287.308,123.819 290.909,115.317 286.759,108.183 283.658,109.95 "
   id="polygon466"
   style="fill:#bcbec0;stroke:#000000;stroke-width:0.25;stroke-miterlimit:10" />
	<polygon
   stroke-miterlimit="10"
   points="274.38,140.368 260.466,140.765 259.339,149.599 254.668,157.354 250.234,159.381 251.232,160.712 256.494,160.673 257.352,163.635 260.663,163.527 261.326,161.166 264.654,161.166 264.654,166.533 277.055,172.654 278.183,170.399 274.961,169.11 275.928,164.762 281.294,163.948 275.928,156.387 279.31,142.171 "
   id="polygon468"
   style="fill:#bcbec0;stroke:#000000;stroke-width:0.25;stroke-miterlimit:10" />
	<polygon
   stroke-miterlimit="10"
   points="255.436,143.825 260.076,143.825 260.466,140.765 274.38,140.368 265.172,129.77 253.487,135.289 252.414,139.584 255.419,143.825 "
   id="polygon470"
   style="fill:#bcbec0;stroke:#000000;stroke-width:0.25;stroke-miterlimit:10" />
	<polygon
   stroke-miterlimit="10"
   points="232.693,138.19 233.573,137.936 235.618,128 231.263,129.604 "
   id="polygon472"
   style="fill:#bcbec0;stroke:#000000;stroke-width:0.25;stroke-miterlimit:10" />
	<polygon
   stroke-miterlimit="10"
   points="230.598,138.794 232.693,138.19 231.263,129.604 229.221,130.35 "
   id="polygon474"
   style="fill:#bcbec0;stroke:#000000;stroke-width:0.25;stroke-miterlimit:10" />
	<polygon
   stroke-miterlimit="10"
   points="202.575,127.987 202.571,128.103 204.831,130.542 207.257,127.987 "
   id="polygon476"
   style="fill:#bcbec0;stroke:#000000;stroke-width:0.25;stroke-miterlimit:10" />
	<g
   id="united_x5F_states">
		<polygon
   stroke-miterlimit="10"
   points="68.485,30.279 64.835,28.775 45.722,28.883 37.992,31.997 37.992,35.433 29.296,35.326 27.646,37.629 34.985,37.365 25.537,40.909 20.972,47.094 24.893,47.029 17.376,51.968 20.124,52.183 34.513,45.312 51.119,44.732 56.165,49.779 58.071,47.727 56.406,46.008 54.528,46.008 52.694,43.906 68.487,30.279 "
   id="polygon479"
   style="fill:#bcbec0;stroke:#000000;stroke-width:0.25;stroke-miterlimit:10" />
		<path
   stroke-miterlimit="10"
   d="m 131.298,67 -3.221,2.792 h -7.462 l -2.305,1.582 h 1.782 l -2.481,1.692 h -1.768 l 2.467,-1.692 h -3.331 -1.534 l -2.119,1.64 -2.147,0.215 0.429,-3.705 h -1.657 l -1.94,1.289 -3.603,5.315 h -2.115 l 4.074,-6.604 4.811,-1.029 -0.268,-0.903 -3.167,-0.108 -1.504,-0.913 -1.878,0.913 h -2.202 l 0.906,-1.945 -4.556,-2.082 H 57.695 L 44.917,76.932 v 10.362 l 4.666,4.667 16.324,2.098 2.177,3.302 4.59,-0.161 3.788,7.437 7.058,-8.858 16.776,0.053 1.111,8.387 2.66,0.069 0.068,-10.441 27.165,-23.22 1.853,-0.32 1.044,-3.307 h -2.899 z m -22.965,9.127 2.521,-1.719 h 3.032 l -2.505,1.719 h -3.048 z"
   id="path481"
   style="fill:#bcbec0;stroke:#000000;stroke-width:0.25;stroke-miterlimit:10" />
	</g>
	<g
   id="canada">
		<polygon
   stroke-miterlimit="10"
   points="55.991,62.24 53.36,60.092 52.232,61.059 54.066,63.457 55.991,63.457 "
   id="polygon484"
   style="fill:#bcbec0;stroke:#000000;stroke-width:0.25;stroke-miterlimit:10" />
		<g
   id="canada_1_">
			<polygon
   stroke-miterlimit="10"
   points="153.086,59.751 147.365,65.565 156.837,65.565 154.868,62.427 153.086,62.002 "
   id="polygon487"
   style="fill:#bcbec0;stroke:#000000;stroke-width:0.25;stroke-miterlimit:10" />
			<polygon
   stroke-miterlimit="10"
   points="156.013,33.309 153.934,32.551 153.838,29.247 142.304,24.534 140.578,24.516 136.57,27.81 137.908,24.496 135.969,24.481 131.298,29.446 142.653,28.829 149.578,35.03 144.92,34.95 142.572,36.875 137.279,36.875 137.279,38.387 142.653,38.387 147.196,42.15 148.438,41.608 147.365,39.218 150.493,40.708 151.511,40.265 151.511,35.594 155.111,36.875 157.182,35.494 "
   id="polygon489"
   style="fill:#bcbec0;stroke:#000000;stroke-width:0.25;stroke-miterlimit:10" />
			<polygon
   stroke-miterlimit="10"
   points="111.319,68.474 113.944,68.289 114.979,71.374 118.31,71.374 120.615,69.792 128.077,69.792 131.298,67 134.197,67 133.15,70.304 138.304,69.416 134.922,71.026 135.244,72.423 144.424,69.198 139.94,68.985 137.846,67.102 139.915,63.892 138.911,62.928 132.419,65.873 132.419,64.182 138.626,61.202 148.585,60.773 156.064,56.792 156.101,54.975 150.647,54.031 149.991,45.121 142.863,47.927 142.908,43.735 139.472,40.809 134.804,40.809 122.168,59.184 119.112,59.194 119.166,53.149 108.291,47.244 119.166,39.191 125.339,38.065 124.05,36.157 133.553,35.11 137.418,31.084 133.794,30.682 128.802,33.983 129.365,31.165 127.03,30.923 126.484,27.518 122.44,29.312 123.487,31.487 118.091,34.063 108.669,32.292 103.693,34.627 91.597,29.796 68.487,30.279 52.694,43.906 54.528,46.008 56.406,46.008 58.071,47.727 56.165,49.779 54.232,58.625 57.695,61.766 57.695,63.457 96.51,63.457 101.066,65.538 101.066,65.538 108.79,63.899 109.757,67.322 "
   id="polygon491"
   style="fill:#bcbec0;stroke:#000000;stroke-width:0.25;stroke-miterlimit:10" />
			<polygon
   stroke-miterlimit="10"
   points="131.8,39.901 132.419,38.387 128.91,36.875 125.953,39.282 "
   id="polygon493"
   style="fill:#bcbec0;stroke:#000000;stroke-width:0.25;stroke-miterlimit:10" />
			<polygon
   stroke-miterlimit="10"
   points="121.344,30.752 120.519,29.446 117.491,30.752 118.575,32.159 "
   id="polygon495"
   style="fill:#bcbec0;stroke:#000000;stroke-width:0.25;stroke-miterlimit:10" />
			<polygon
   stroke-miterlimit="10"
   points="125.125,26.548 126.114,23.906 119.579,26.026 121.344,27.81 "
   id="polygon497"
   style="fill:#bcbec0;stroke:#000000;stroke-width:0.25;stroke-miterlimit:10" />
			<polygon
   stroke-miterlimit="10"
   points="132.419,25.286 131.378,23.906 126.789,24.964 127.271,26.655 "
   id="polygon499"
   style="fill:#bcbec0;stroke:#000000;stroke-width:0.25;stroke-miterlimit:10" />
			<polygon
   stroke-miterlimit="10"
   points="145.471,23.503 148.37,21.461 139.915,21.461 137.096,20.293 134.358,22.628 "
   id="polygon501"
   style="fill:#bcbec0;stroke:#000000;stroke-width:0.25;stroke-miterlimit:10" />
			<polygon
   stroke-miterlimit="10"
   points="149.82,21.179 159.322,16.75 166.972,15.22 172.771,11.947 149.739,13.655 149.739,14.898 157.51,14.737 156.423,16.187 148.37,16.347 149.417,18.2 145.954,17.636 147.323,19.407 141.364,19.407 142.25,20.293 148.773,20.293 "
   id="polygon503"
   style="fill:#bcbec0;stroke:#000000;stroke-width:0.25;stroke-miterlimit:10" />
			<polygon
   stroke-miterlimit="10"
   points="145.535,15.8 143.764,14.471 138.793,16.564 143.075,17.375 "
   id="polygon505"
   style="fill:#bcbec0;stroke:#000000;stroke-width:0.25;stroke-miterlimit:10" />
			<polygon
   stroke-miterlimit="10"
   points="101.236,23.306 91.71,25.733 93.479,27.81 103.564,24.381 "
   id="polygon507"
   style="fill:#bcbec0;stroke:#000000;stroke-width:0.25;stroke-miterlimit:10" />
			<polygon
   stroke-miterlimit="10"
   points="110.683,25.281 107.84,26.383 104.862,25.007 99.429,26.854 102.63,28.202 97.637,29.474 103.838,31.89 108.106,30.037 112.857,31.165 116.423,30.348 112.945,28.741 115.622,25.281 112.938,25.281 111.327,27.363 "
   id="polygon509"
   style="fill:#bcbec0;stroke:#000000;stroke-width:0.25;stroke-miterlimit:10" />
		</g>
	</g>
	<polygon
   stroke-miterlimit="10"
   points="105.932,112.499 104.412,114.19 111.327,114.19 103.06,108.231 98.684,108.231 96.993,109.841 101.935,109.841 "
   id="polygon511"
   style="fill:#bcbec0;stroke:#000000;stroke-width:0.25;stroke-miterlimit:10" />
	<polygon
   stroke-miterlimit="10"
   points="107.945,118.136 107.945,117.089 106.898,116.042 103.918,116.042 103.918,117.25 104.965,118.136 "
   id="polygon513"
   style="fill:#bcbec0;stroke:#000000;stroke-width:0.25;stroke-miterlimit:10" />
	<polygon
   stroke-miterlimit="10"
   points="123.326,117.439 123.94,116.432 122.271,116.432 121.665,117.439 "
   id="polygon515"
   style="fill:#bcbec0;stroke:#000000;stroke-width:0.25;stroke-miterlimit:10" />
	<polygon
   stroke-miterlimit="10"
   points="81.321,123.128 85.311,125.143 88.014,120.255 87.49,117.658 85.075,117.658 85.477,120.753 82.659,120.753 "
   id="polygon517"
   style="fill:#bcbec0;stroke:#000000;stroke-width:0.25;stroke-miterlimit:10" />
	<polygon
   stroke-miterlimit="10"
   points="88.859,126.735 95.524,121.159 87.492,121.24 86.167,123.613 88.618,124.699 88.133,126.409 "
   id="polygon519"
   style="fill:#bcbec0;stroke:#000000;stroke-width:0.25;stroke-miterlimit:10" />
	<polygon
   stroke-miterlimit="10"
   points="86.167,123.613 85.311,125.143 88.133,126.409 88.618,124.699 "
   id="polygon521"
   style="fill:#bcbec0;stroke:#000000;stroke-width:0.25;stroke-miterlimit:10" />
	<polygon
   stroke-miterlimit="10"
   points="88.014,120.255 88.014,120.255 90.631,115.317 87.49,117.658 "
   id="polygon523"
   style="fill:#bcbec0;stroke:#000000;stroke-width:0.25;stroke-miterlimit:10" />
	<polygon
   stroke-miterlimit="10"
   points="95.524,121.159 88.859,126.735 91.395,130.161 95.74,130.62 "
   id="polygon525"
   style="fill:#bcbec0;stroke:#000000;stroke-width:0.25;stroke-miterlimit:10" />
	<polygon
   stroke-miterlimit="10"
   points="108.287,150.417 101.83,146.726 98.765,150.589 98.395,156.505 101.949,158.196 "
   id="polygon527"
   style="fill:#bcbec0;stroke:#000000;stroke-width:0.25;stroke-miterlimit:10" />
	<polygon
   stroke-miterlimit="10"
   points="106.15,133.805 104.321,133.919 104.839,135.677 103.882,137.045 104.62,139.495 103.918,144.093 101.83,146.726 116.589,155.16 116.589,145.705 120.024,145.469 120.024,137.96 114.387,137.382 111.945,134.667 111.46,128.964 109.735,128.949 "
   id="polygon529"
   style="fill:#bcbec0;stroke:#000000;stroke-width:0.25;stroke-miterlimit:10" />
	<g
   id="argentina">
		<polygon
   stroke-miterlimit="10"
   points="134.896,243.76 137.1,245.783 143.884,246.03 136.564,242.212 "
   id="polygon532"
   style="fill:#bcbec0;stroke:#000000;stroke-width:0.25;stroke-miterlimit:10" />
		<polygon
   stroke-miterlimit="10"
   points="145.32,195.012 142.357,196.812 138.385,196.812 138.385,193.27 130.254,187.769 129.794,188.612 123.011,188.612 121.192,205.51 125.017,222.26 128.479,228.418 128.641,233.042 133.775,240.909 135.646,241.104 134.68,220.971 145.578,216.246 140.636,209.374 140.64,201.804 145.451,196.86 "
   id="polygon534"
   style="fill:#bcbec0;stroke:#000000;stroke-width:0.25;stroke-miterlimit:10" />
	</g>
	<polygon
   stroke-miterlimit="10"
   points="140.64,201.804 140.636,209.374 146.524,211.534 148.878,207.435 "
   id="polygon536"
   style="fill:#bcbec0;stroke:#000000;stroke-width:0.25;stroke-miterlimit:10" />
	<polygon
   stroke-miterlimit="10"
   points="111.46,128.964 111.945,134.667 114.387,137.382 120.024,137.96 120.024,145.469 120.924,145.407 122.065,147.959 125.715,146.778 125.424,142.815 130.318,141.023 131.773,133.86 130.117,132.282 123.567,131.638 119.917,129.039 "
   id="polygon538"
   style="fill:#bcbec0;stroke:#000000;stroke-width:0.25;stroke-miterlimit:10" />
	<polygon
   stroke-miterlimit="10"
   points="95.332,134.443 96.798,132.537 95.771,131.969 95.74,130.62 91.395,130.161 94.288,134.07 "
   id="polygon540"
   style="fill:#bcbec0;stroke:#000000;stroke-width:0.25;stroke-miterlimit:10" />
	<polygon
   stroke-miterlimit="10"
   points="130.318,141.023 132.451,140.242 132.157,146.349 137.046,145.805 135.38,141.521 136.881,138.725 131.773,133.86 "
   id="polygon542"
   style="fill:#bcbec0;stroke:#000000;stroke-width:0.25;stroke-miterlimit:10" />
	<polygon
   stroke-miterlimit="10"
   points="119.247,181.029 123.011,188.612 129.794,188.612 132.433,183.766 137.539,183.744 137.421,179.918 128.721,172.813 124.237,168.214 119.247,169.615 "
   id="polygon544"
   style="fill:#bcbec0;stroke:#000000;stroke-width:0.25;stroke-miterlimit:10" />
	<polygon
   stroke-miterlimit="10"
   points="145.691,142.198 144.398,139.369 141.661,139.135 141.436,145.317 144.72,144.952 "
   id="polygon546"
   style="fill:#bcbec0;stroke:#000000;stroke-width:0.25;stroke-miterlimit:10" />
	<polygon
   stroke-miterlimit="10"
   points="130.254,187.769 138.385,193.27 138.385,196.812 142.357,196.812 145.32,195.012 145.121,192.207 137.677,188.237 137.539,183.744 132.433,183.766 "
   id="polygon548"
   style="fill:#bcbec0;stroke:#000000;stroke-width:0.25;stroke-miterlimit:10" />
	<polygon
   stroke-miterlimit="10"
   points="141.661,139.135 136.881,138.725 135.38,141.521 137.046,145.805 141.436,145.317 "
   id="polygon550"
   style="fill:#bcbec0;stroke:#000000;stroke-width:0.25;stroke-miterlimit:10" />
	<polygon
   stroke-miterlimit="10"
   points="150.163,152.504 151.373,149.241 148.901,148.174 145.386,150.871 147.94,147.112 145.691,142.198 144.72,144.952 132.157,146.349 132.451,140.242 130.318,141.023 125.424,142.815 125.715,146.778 122.065,147.959 120.924,145.407 116.589,145.705 116.589,156.87 112.187,157.407 110.253,163.743 117.608,170.075 124.237,168.214 128.721,172.813 137.421,179.918 137.677,188.237 145.121,192.207 145.451,196.86 140.64,201.804 148.878,207.435 153.685,199.067 154.812,191.819 166.473,186.658 168.644,170.536 173.671,163.957 173.671,159.984 165.442,154.615 157.39,154.132 157.6,151.928 153.884,150.325 "
   id="polygon552"
   style="fill:#bcbec0;stroke:#000000;stroke-width:0.25;stroke-miterlimit:10" />
	<polygon
   stroke-miterlimit="10"
   points="96.798,132.537 95.332,134.443 99.645,135.979 100.694,134.419 103.161,134.656 103.882,137.045 104.839,135.677 104.392,134.034 103.852,132.055 99.976,132.401 98.61,133.537 "
   id="polygon554"
   style="fill:#bcbec0;stroke:#000000;stroke-width:0.25;stroke-miterlimit:10" />
	<polygon
   stroke-miterlimit="10"
   points="116.589,155.16 108.287,150.417 101.949,158.196 98.395,156.505 98.281,158.319 109.082,176.714 118.414,182.962 119.247,181.029 119.247,169.615 117.608,170.075 110.253,163.743 112.187,157.407 116.589,156.87 "
   id="polygon556"
   style="fill:#bcbec0;stroke:#000000;stroke-width:0.25;stroke-miterlimit:10" />
	<polygon
   stroke-miterlimit="10"
   points="123.011,188.612 119.247,181.029 118.414,182.962 119.975,221.208 124.113,224.552 124.303,231.412 131.459,240.671 133.775,240.909 128.641,233.042 128.479,228.418 125.017,222.26 121.192,205.51 "
   id="polygon558"
   style="fill:#bcbec0;stroke:#000000;stroke-width:0.25;stroke-miterlimit:10" />
	<polygon
   stroke-miterlimit="10"
   points="115.152,117.25 116.783,116.042 119.385,116.042 120.024,115.096 115.152,114.565 "
   id="polygon560"
   style="fill:#bcbec0;stroke:#000000;stroke-width:0.25;stroke-miterlimit:10" />
	<g
   id="haiti">
		<polygon
   stroke-miterlimit="10"
   points="115.152,116.588 115.152,114.565 112.107,114.565 113.099,115.961 111.327,115.961 111.327,116.588 "
   id="polygon563"
   style="fill:#bcbec0;stroke:#000000;stroke-width:0.25;stroke-miterlimit:10" />
	</g>
</g>
</svg>