<?xml version="1.0" encoding="UTF-8" standalone="no"?>
<!-- Created with Inkscape (http://www.inkscape.org/) -->

<svg
   xmlns:dc="http://purl.org/dc/elements/1.1/"
   xmlns:cc="http://creativecommons.org/ns#"
   xmlns:rdf="http://www.w3.org/1999/02/22-rdf-syntax-ns#"
   xmlns:svg="http://www.w3.org/2000/svg"
   xmlns="http://www.w3.org/2000/svg"
   xmlns:sodipodi="http://sodipodi.sourceforge.net/DTD/sodipodi-0.dtd"
   xmlns:inkscape="http://www.inkscape.org/namespaces/inkscape"
   width="10"
   height="10"
   id="svg2"
   version="1.1"
   inkscape:version="0.47 r22583"
   sodipodi:docname="ElectricPortQ.svg">
  <defs
     id="defs4">
    <inkscape:perspective
       sodipodi:type="inkscape:persp3d"
       inkscape:vp_x="0 : 526.18109 : 1"
       inkscape:vp_y="0 : 1000 : 0"
       inkscape:vp_z="744.09448 : 526.18109 : 1"
       inkscape:persp3d-origin="372.04724 : 350.78739 : 1"
       id="perspective10" />
  </defs>
  <sodipodi:namedview
     id="base"
     pagecolor="#ffffff"
     bordercolor="#666666"
     borderopacity="1.0"
     inkscape:pageopacity="0.0"
     inkscape:pageshadow="2"
     inkscape:zoom="35.4"
     inkscape:cx="1.3790447"
     inkscape:cy="10.110385"
     inkscape:document-units="px"
     inkscape:current-layer="layer1"
     showgrid="false"
     inkscape:window-width="550"
     inkscape:window-height="481"
     inkscape:window-x="1912"
     inkscape:window-y="429"
     inkscape:window-maximized="0" />
  <metadata
     id="metadata7">
    <rdf:RDF>
      <cc:Work
         rdf:about="">
        <dc:format>image/svg+xml</dc:format>
        <dc:type
           rdf:resource="http://purl.org/dc/dcmitype/StillImage" />
        <dc:title></dc:title>
      </cc:Work>
    </rdf:RDF>
  </metadata>
  <g
     inkscape:label="Layer 1"
     inkscape:groupmode="layer"
     id="layer1"
     transform="translate(-356.39287,-588.82649)">
    <rect
       style="fill:#ffff00;stroke:#000000;stroke-width:0.50000000000000000;stroke-linecap:round;stroke-linejoin:round;stroke-miterlimit:4;stroke-opacity:1;stroke-dasharray:none;stroke-dashoffset:0;fill-opacity:1"
       id="rect2815"
       width="9.5"
       height="9.5"
       x="356.64288"
       y="589.07648" />
    <g
       style="font-size:36px;font-style:normal;font-weight:normal;fill:#000000;fill-opacity:1;stroke:none;font-family:Bitstream Vera Sans"
       id="text2815">
      <path
         d="m 361.14429,589.81991 c 0.26666,0 0.51666,0.07 0.75,0.21 0.23999,0.13334 0.44666,0.33334 0.62,0.6 0.17333,0.26 0.30999,0.58 0.41,0.96 0.1,0.38 0.14999,0.81 0.15,1.29 -1e-5,0.48 -0.05,0.91 -0.15,1.29 -0.10001,0.37333 -0.23667,0.69333 -0.41,0.96 -0.17334,0.26 -0.37667,0.46 -0.61,0.6 -0.22667,0.13333 -0.47334,0.2 -0.74,0.2 -0.27334,0 -0.52667,-0.0667 -0.76,-0.2 -0.23334,-0.14 -0.43667,-0.34 -0.61,-0.6 -0.17334,-0.26 -0.31,-0.58 -0.41,-0.96 -0.1,-0.38 -0.15,-0.81 -0.15,-1.29 0,-0.48 0.05,-0.91 0.15,-1.29 0.1,-0.38 0.23666,-0.7 0.41,-0.96 0.17333,-0.26666 0.37666,-0.46666 0.61,-0.6 0.23333,-0.14 0.47999,-0.21 0.74,-0.21 m 0.65,6.29 c 0.29333,-0.08 0.56333,-0.21667 0.81,-0.41 0.25333,-0.19334 0.46999,-0.43 0.65,-0.71 0.18666,-0.28667 0.32999,-0.60667 0.43,-0.96 0.10666,-0.36 0.15999,-0.74333 0.16,-1.15 -10e-6,-0.48 -0.0733,-0.92333 -0.22,-1.33 -0.14001,-0.40666 -0.33334,-0.75666 -0.58,-1.05 -0.24667,-0.3 -0.53334,-0.53333 -0.86,-0.7 -0.32667,-0.16666 -0.67001,-0.25 -1.03,-0.25 -0.36001,0 -0.70334,0.0833 -1.03,0.25 -0.32667,0.16667 -0.61334,0.4 -0.86,0.7 -0.24667,0.29334 -0.44334,0.64334 -0.59,1.05 -0.14667,0.40667 -0.22,0.85 -0.22,1.33 0,0.38667 0.0467,0.75333 0.14,1.1 0.1,0.34667 0.23666,0.66 0.41,0.94 0.18,0.28 0.39333,0.52333 0.64,0.73 0.24666,0.2 0.52,0.35 0.82,0.45 l 0.17,0.05 c 0.06,0.02 0.09,0.0933 0.09,0.22 l 0,0.24 c -10e-6,0.2 0.0467,0.39 0.14,0.57 0.0933,0.18 0.22999,0.33666 0.41,0.47 0.17999,0.14 0.39666,0.25 0.65,0.33 0.25333,0.08 0.53999,0.12 0.86,0.12 0.29999,0 0.54999,-0.0467 0.75,-0.14 0.20666,-0.0867 0.30999,-0.18334 0.31,-0.29 -10e-6,-0.0733 -0.04,-0.11 -0.12,-0.11 -0.0533,0 -0.14334,0.03 -0.27,0.09 -0.12667,0.06 -0.28667,0.09 -0.48,0.09 -0.16667,0 -0.33001,-0.0267 -0.49,-0.08 -0.16001,-0.0533 -0.30667,-0.13 -0.44,-0.23 -0.12667,-0.0933 -0.23667,-0.20667 -0.33,-0.34 -0.0867,-0.13334 -0.14667,-0.27667 -0.18,-0.43 l -0.06,-0.29 c -10e-6,-0.0133 -0.003,-0.0233 -0.01,-0.03 -1e-5,-0.007 -1e-5,-0.0133 0,-0.02 -1e-5,-0.08 0.04,-0.13 0.12,-0.15 l 0.21,-0.06"
         style="font-size:10px;font-variant:normal;font-stretch:normal;font-family:Apple Garamond Light;-inkscape-font-specification:'Apple Garamond Light,'"
         id="path2852" />
    </g>
  </g>
</svg>
