<?xml version="1.0" encoding="UTF-8" standalone="no"?>
<!-- Created with Inkscape (http://www.inkscape.org/) -->

<svg
   xmlns:dc="http://purl.org/dc/elements/1.1/"
   xmlns:cc="http://creativecommons.org/ns#"
   xmlns:rdf="http://www.w3.org/1999/02/22-rdf-syntax-ns#"
   xmlns:svg="http://www.w3.org/2000/svg"
   xmlns="http://www.w3.org/2000/svg"
   xmlns:sodipodi="http://sodipodi.sourceforge.net/DTD/sodipodi-0.dtd"
   xmlns:inkscape="http://www.inkscape.org/namespaces/inkscape"
   width="68.974167"
   height="44.421196"
   id="svg3336"
   sodipodi:version="0.32"
   inkscape:version="0.47 r22583"
   sodipodi:docname="ElectricIcontroller.svg"
   inkscape:output_extension="org.inkscape.output.svg.inkscape"
   version="1.0">
  <defs
     id="defs3338">
    <marker
       style="overflow:visible"
       id="TriangleOutL"
       refX="0"
       refY="0"
       orient="auto"
       inkscape:stockid="TriangleOutL">
      <path
         transform="scale(0.8,0.8)"
         style="fill-rule:evenodd;stroke:#000000;stroke-width:1pt;marker-start:none"
         d="m 5.77,0 -8.65,5 0,-10 8.65,5 z"
         id="path8118"
         inkscape:connector-curvature="0" />
    </marker>
    <inkscape:perspective
       sodipodi:type="inkscape:persp3d"
       inkscape:vp_x="0 : 526.18109 : 1"
       inkscape:vp_y="0 : 1000 : 0"
       inkscape:vp_z="744.09448 : 526.18109 : 1"
       inkscape:persp3d-origin="372.04724 : 350.78739 : 1"
       id="perspective3344" />
    <inkscape:perspective
       id="perspective3624"
       inkscape:persp3d-origin="0.5 : 0.33333333 : 1"
       inkscape:vp_z="1 : 0.5 : 1"
       inkscape:vp_y="0 : 1000 : 0"
       inkscape:vp_x="0 : 0.5 : 1"
       sodipodi:type="inkscape:persp3d" />
    <inkscape:perspective
       id="perspective2880"
       inkscape:persp3d-origin="0.5 : 0.33333333 : 1"
       inkscape:vp_z="1 : 0.5 : 1"
       inkscape:vp_y="0 : 1000 : 0"
       inkscape:vp_x="0 : 0.5 : 1"
       sodipodi:type="inkscape:persp3d" />
  </defs>
  <sodipodi:namedview
     id="base"
     pagecolor="#ffffff"
     bordercolor="#666666"
     borderopacity="1.0"
     gridtolerance="10000"
     guidetolerance="10"
     objecttolerance="10"
     inkscape:pageopacity="0.0"
     inkscape:pageshadow="2"
     inkscape:zoom="4.0000002"
     inkscape:cx="26.793248"
     inkscape:cy="10.806859"
     inkscape:document-units="px"
     inkscape:current-layer="g2994"
     showgrid="false"
     inkscape:window-width="1048"
     inkscape:window-height="814"
     inkscape:window-x="218"
     inkscape:window-y="144"
     inkscape:window-maximized="0"
     showguides="true"
     inkscape:guide-bbox="true"
     fit-margin-top="0"
     fit-margin-left="0"
     fit-margin-right="0"
     fit-margin-bottom="0">
    <sodipodi:guide
       orientation="0,1"
       position="17.699748,36.036607"
       id="guide3163" />
    <sodipodi:guide
       orientation="1,0"
       position="10.762247,40.270982"
       id="guide3165" />
    <sodipodi:guide
       orientation="1,0"
       position="40.783102,41.440451"
       id="guide3173" />
    <sodipodi:guide
       orientation="0,1"
       position="-5.0099364,24.312958"
       id="guide3177" />
  </sodipodi:namedview>
  <metadata
     id="metadata3341">
    <rdf:RDF>
      <cc:Work
         rdf:about="">
        <dc:format>image/svg+xml</dc:format>
        <dc:type
           rdf:resource="http://purl.org/dc/dcmitype/StillImage" />
        <dc:title />
      </cc:Work>
    </rdf:RDF>
  </metadata>
  <g
     inkscape:label="Layer 1"
     inkscape:groupmode="layer"
     id="layer1"
     transform="translate(-455.36664,-487.33667)">
    <g
       id="g2994"
       transform="matrix(0,1,-1,0,978.30752,20.807525)">
      <path
         id="path2385"
         d="m 478.7652,454.71671 0,67.47417"
         style="fill:none;stroke:#000000;stroke-width:1.5;stroke-linecap:square;stroke-linejoin:miter;stroke-miterlimit:3.83333325;stroke-opacity:1;stroke-dasharray:none"
         inkscape:connector-curvature="0" />
      <rect
         style="fill:#ffffff;fill-opacity:1;stroke:#000000;stroke-width:1.5;stroke-miterlimit:3.83333325;stroke-opacity:0.99404764;stroke-dasharray:none"
         id="rect2824"
         width="39.691475"
         height="22.972107"
         x="-508.29953"
         y="467.27914"
         transform="matrix(0,-1,1,0,0,0)" />
      <path
         style="fill:none;stroke:#000000;stroke-width:1.5;stroke-linecap:square;stroke-linejoin:miter;stroke-miterlimit:3.83333325;stroke-opacity:1;stroke-dasharray:none;stroke-dashoffset:0"
         d="m 503.01056,488.4538 -12.17734,0"
         id="path3646-4-1"
         inkscape:connector-curvature="0" />
      <path
         id="path3638-5"
         d="m 503.31632,481.87687 0,13.15385"
         style="fill:none;stroke:#000000;stroke-width:1.5;stroke-linecap:square;stroke-linejoin:miter;stroke-miterlimit:3.83333325;stroke-opacity:1;stroke-dasharray:none;stroke-dashoffset:0"
         inkscape:connector-curvature="0" />
      <path
         style="fill:none;stroke:#000000;stroke-width:1.5;stroke-linecap:square;stroke-linejoin:miter;stroke-miterlimit:3.83333325;stroke-opacity:1;stroke-dasharray:none;stroke-dashoffset:0"
         d="m 510.20034,487.34511 0,2.21739"
         id="path4174"
         inkscape:connector-curvature="0" />
      <path
         style="fill:none;stroke:#000000;stroke-width:1.5;stroke-linecap:square;stroke-linejoin:miter;stroke-miterlimit:3.83333325;stroke-opacity:1;stroke-dasharray:none;stroke-dashoffset:0"
         d="m 506.98107,484.03107 0,8.84545"
         id="path4176"
         inkscape:connector-curvature="0" />
      <text
         xml:space="preserve"
         style="font-size:40px;font-style:normal;font-weight:normal;fill:#000000;fill-opacity:1;stroke:none;font-family:Bitstream Vera Sans"
         x="14.749999"
         y="4.2533607"
         id="text2903"
         transform="matrix(0,-1,1,0,477.41372,522.69171)"><tspan
           sodipodi:role="line"
           id="tspan2905"
           x="14.749999"
           y="4.2533607" /></text>
      <text
         xml:space="preserve"
         style="font-size:10px;font-style:normal;font-weight:normal;fill:#000000;fill-opacity:1;stroke:none;font-family:Bitstream Vera Sans"
         x="13.749999"
         y="15.25336"
         id="text2907"
         transform="matrix(0,-1,1,0,477.41372,522.69171)"><tspan
           sodipodi:role="line"
           id="tspan2909"
           x="13.749999"
           y="15.25336" /></text>
      <g
         transform="matrix(0,-1.3356803,1.3356803,0,-171.26418,-175.28917)"
         style="font-size:10px;font-style:normal;font-weight:normal;fill:#000000;fill-opacity:1;stroke:none;font-family:Bitstream Vera Sans;-inkscape-font-specification:Sans"
         id="text2911">
        <path
           d="m -506.91983,490.47107 c 0,0.0391 -0.0127,0.0742 -0.0381,0.10547 -0.0254,0.0312 -0.0674,0.0566 -0.12597,0.0762 -0.0586,0.0195 -0.13672,0.0352 -0.23438,0.0469 -0.0977,0.0117 -0.22266,0.0176 -0.375,0.0176 -0.14844,0 -0.27246,-0.006 -0.37207,-0.0176 -0.0996,-0.0117 -0.17871,-0.0273 -0.2373,-0.0469 -0.0586,-0.0195 -0.10059,-0.0449 -0.12598,-0.0762 -0.0254,-0.0312 -0.0381,-0.0664 -0.0381,-0.10547 l 0,-7.16016 c 0,-0.039 0.0127,-0.0742 0.0381,-0.10547 0.0254,-0.0312 0.0684,-0.0566 0.12891,-0.0762 0.0605,-0.0195 0.13964,-0.0352 0.2373,-0.0469 0.0977,-0.0117 0.2207,-0.0176 0.36914,-0.0176 0.15234,1e-5 0.27734,0.006 0.375,0.0176 0.0977,0.0117 0.17578,0.0274 0.23438,0.0469 0.0586,0.0195 0.10058,0.0449 0.12597,0.0762 0.0254,0.0313 0.0381,0.0664 0.0381,0.10547 z"
           style="font-size:12px;font-variant:normal;font-weight:bold;font-stretch:normal;font-family:Calibri;-inkscape-font-specification:Calibri Bold"
           id="path3779" />
        <path
           d="m -502.75381,487.73474 c -1e-5,0.22657 -0.0215,0.38477 -0.0645,0.47461 -0.043,0.0899 -0.11133,0.13477 -0.20508,0.13477 l -2.4375,0 c -0.0976,0 -0.16797,-0.0459 -0.21093,-0.1377 -0.043,-0.0918 -0.0645,-0.24902 -0.0645,-0.47168 0,-0.21875 0.0215,-0.37304 0.0645,-0.46289 0.043,-0.0898 0.11328,-0.13476 0.21093,-0.13477 l 2.4375,0 c 0.0469,10e-6 0.0869,0.01 0.12012,0.0293 0.0332,0.0195 0.0615,0.0527 0.085,0.0996 0.0234,0.0469 0.04,0.10938 0.0498,0.1875 0.01,0.0781 0.0146,0.17188 0.0147,0.28125 z"
           style="font-size:12px;font-variant:normal;font-weight:bold;font-stretch:normal;font-family:Calibri;-inkscape-font-specification:Calibri Bold"
           id="path3781" />
        <path
           d="m -496.33194,489.53357 c -1e-5,0.0977 -0.003,0.18066 -0.009,0.24902 -0.006,0.0684 -0.0147,0.12696 -0.0264,0.17578 -0.0117,0.0488 -0.0274,0.0908 -0.0469,0.12598 -0.0195,0.0352 -0.0508,0.0752 -0.0937,0.12012 -0.043,0.0449 -0.12598,0.10254 -0.24902,0.17285 -0.12306,0.0703 -0.27345,0.13769 -0.45118,0.20215 -0.17774,0.0644 -0.38086,0.11816 -0.60937,0.16113 -0.22852,0.043 -0.47559,0.0645 -0.74121,0.0645 -0.51954,0 -0.98829,-0.0801 -1.40625,-0.24023 -0.41797,-0.16016 -0.77344,-0.39941 -1.06641,-0.71777 -0.29297,-0.31836 -0.51758,-0.71582 -0.67383,-1.19239 -0.15625,-0.47656 -0.23437,-1.03124 -0.23437,-1.66406 0,-0.64453 0.0859,-1.21679 0.25781,-1.7168 0.17188,-0.49999 0.41211,-0.91991 0.7207,-1.25976 0.3086,-0.33984 0.67871,-0.59765 1.11036,-0.77344 0.43163,-0.17577 0.90722,-0.26366 1.42675,-0.26367 0.21094,10e-6 0.41406,0.0176 0.60938,0.0527 0.19531,0.0352 0.37597,0.0811 0.54199,0.1377 0.16601,0.0567 0.31542,0.12208 0.44824,0.19629 0.13281,0.0742 0.22558,0.1377 0.27832,0.19043 0.0527,0.0527 0.0889,0.0967 0.1084,0.13183 0.0195,0.0352 0.0351,0.0801 0.0469,0.13477 0.0117,0.0547 0.0205,0.11915 0.0264,0.19336 0.006,0.0742 0.009,0.16602 0.009,0.27539 0,0.11719 -0.004,0.2168 -0.0117,0.29883 -0.008,0.082 -0.0215,0.14844 -0.041,0.19922 -0.0195,0.0508 -0.043,0.0879 -0.0703,0.11132 -0.0273,0.0235 -0.0586,0.0352 -0.0937,0.0352 -0.0586,1e-5 -0.13282,-0.0342 -0.22266,-0.10254 -0.0899,-0.0683 -0.20606,-0.14452 -0.34863,-0.22851 -0.14259,-0.084 -0.31251,-0.16015 -0.50977,-0.22852 -0.19727,-0.0684 -0.43262,-0.10253 -0.70605,-0.10254 -0.30079,1e-5 -0.56934,0.0615 -0.80567,0.18457 -0.23633,0.12305 -0.4375,0.29883 -0.60351,0.52734 -0.16602,0.22853 -0.292,0.50489 -0.37793,0.82911 -0.0859,0.32422 -0.12891,0.68945 -0.12891,1.0957 0,0.44532 0.0459,0.83106 0.1377,1.15723 0.0918,0.32617 0.22265,0.59472 0.39257,0.80566 0.16992,0.21094 0.375,0.36817 0.61524,0.47168 0.24023,0.10352 0.51074,0.15527 0.81152,0.15527 0.27344,0 0.50976,-0.0322 0.70899,-0.0967 0.19921,-0.0644 0.37011,-0.13574 0.51269,-0.21386 0.14257,-0.0781 0.25976,-0.14844 0.35156,-0.21094 0.0918,-0.0625 0.16308,-0.0937 0.21387,-0.0937 0.0391,0 0.0703,0.008 0.0937,0.0234 0.0234,0.0156 0.043,0.0469 0.0586,0.0937 0.0156,0.0469 0.0273,0.1123 0.0351,0.19629 0.008,0.084 0.0117,0.19629 0.0117,0.33691 z"
           style="font-size:12px;font-variant:normal;font-weight:bold;font-stretch:normal;font-family:Calibri;-inkscape-font-specification:Calibri Bold"
           id="path3783" />
        <path
           d="m -492.21866,489.96716 c 0,0.17188 -0.0107,0.30371 -0.0322,0.39551 -0.0215,0.0918 -0.0498,0.15625 -0.085,0.19336 -0.0352,0.0371 -0.0869,0.0703 -0.15527,0.0996 -0.0684,0.0293 -0.14844,0.0547 -0.24023,0.0762 -0.0918,0.0215 -0.19141,0.0381 -0.29883,0.0498 -0.10743,0.0117 -0.21583,0.0176 -0.3252,0.0176 -0.29297,0 -0.54687,-0.0371 -0.76172,-0.11132 -0.21484,-0.0742 -0.39258,-0.18848 -0.5332,-0.34278 -0.14063,-0.15429 -0.24414,-0.34863 -0.31055,-0.58301 -0.0664,-0.23437 -0.0996,-0.51171 -0.0996,-0.83203 l 0,-2.67773 -0.62695,0 c -0.0742,0 -0.13086,-0.0459 -0.16992,-0.1377 -0.0391,-0.0918 -0.0586,-0.24511 -0.0586,-0.45996 0,-0.11327 0.005,-0.20898 0.0146,-0.28711 0.01,-0.0781 0.0244,-0.13964 0.0439,-0.18457 0.0195,-0.0449 0.0439,-0.0771 0.0732,-0.0967 0.0293,-0.0195 0.0635,-0.0293 0.10254,-0.0293 l 0.62109,0 0,-1.16602 c 0,-0.039 0.0107,-0.0742 0.0322,-0.10547 0.0215,-0.0312 0.0606,-0.0576 0.11719,-0.0791 0.0566,-0.0215 0.13281,-0.0371 0.22851,-0.0469 0.0957,-0.01 0.21387,-0.0147 0.3545,-0.0147 0.14453,0 0.26464,0.005 0.36035,0.0147 0.0957,0.01 0.17089,0.0254 0.22558,0.0469 0.0547,0.0215 0.0937,0.0479 0.11719,0.0791 0.0234,0.0313 0.0352,0.0664 0.0352,0.10547 l 0,1.16602 1.13672,0 c 0.0391,0 0.0732,0.01 0.10254,0.0293 0.0293,0.0195 0.0537,0.0518 0.0732,0.0967 0.0195,0.0449 0.0342,0.10645 0.0439,0.18457 0.01,0.0781 0.0147,0.17384 0.0147,0.28711 0,0.21485 -0.0195,0.36817 -0.0586,0.45996 -0.0391,0.0918 -0.0957,0.1377 -0.16992,0.1377 l -1.14258,0 0,2.45508 c 0,0.28516 0.0449,0.49902 0.13476,0.6416 0.0898,0.14258 0.25,0.21387 0.48047,0.21387 0.0781,0 0.14844,-0.007 0.21094,-0.0205 0.0625,-0.0137 0.11816,-0.0293 0.16699,-0.0469 0.0488,-0.0176 0.0898,-0.0332 0.12305,-0.0469 0.0332,-0.0137 0.0635,-0.0205 0.0908,-0.0205 0.0234,0 0.0459,0.007 0.0674,0.0205 0.0215,0.0137 0.0381,0.041 0.0498,0.082 0.0117,0.041 0.0224,0.0967 0.0322,0.16699 0.01,0.0703 0.0147,0.16016 0.0147,0.26953 z"
           style="font-size:12px;font-variant:normal;font-weight:bold;font-stretch:normal;font-family:Calibri;-inkscape-font-specification:Calibri Bold"
           id="path3785" />
        <path
           d="m -487.78311,485.74255 c -10e-6,0.14063 -0.004,0.25587 -0.0117,0.34571 -0.008,0.0899 -0.0195,0.16016 -0.0352,0.21093 -0.0156,0.0508 -0.0361,0.0859 -0.0615,0.10547 -0.0254,0.0195 -0.0576,0.0293 -0.0967,0.0293 -0.0312,0 -0.0664,-0.007 -0.10547,-0.0205 -0.0391,-0.0137 -0.083,-0.0283 -0.13183,-0.0439 -0.0488,-0.0156 -0.10255,-0.0303 -0.16114,-0.0439 -0.0586,-0.0137 -0.12305,-0.0205 -0.19336,-0.0205 -0.082,10e-6 -0.16406,0.0166 -0.24609,0.0498 -0.082,0.0332 -0.167,0.085 -0.25488,0.15527 -0.0879,0.0703 -0.17969,0.16407 -0.27539,0.28125 -0.0957,0.11719 -0.19825,0.26172 -0.30762,0.4336 l 0,3.25781 c 0,0.0391 -0.0117,0.0732 -0.0352,0.10254 -0.0234,0.0293 -0.0635,0.0537 -0.12011,0.0732 -0.0567,0.0195 -0.13184,0.0342 -0.22559,0.0439 -0.0937,0.01 -0.21289,0.0146 -0.35742,0.0146 -0.14453,0 -0.26368,-0.005 -0.35742,-0.0146 -0.0938,-0.01 -0.16895,-0.0244 -0.22559,-0.0439 -0.0566,-0.0195 -0.0967,-0.0439 -0.12012,-0.0732 -0.0234,-0.0293 -0.0351,-0.0635 -0.0351,-0.10254 l 0,-5.22656 c 0,-0.0391 0.01,-0.0732 0.0293,-0.10254 0.0195,-0.0293 0.0547,-0.0537 0.10547,-0.0732 0.0508,-0.0195 0.11621,-0.0342 0.19629,-0.0439 0.0801,-0.01 0.18066,-0.0146 0.30176,-0.0147 0.125,10e-6 0.22851,0.005 0.31055,0.0147 0.082,0.01 0.1455,0.0244 0.19043,0.0439 0.0449,0.0195 0.0771,0.044 0.0967,0.0732 0.0195,0.0293 0.0293,0.0635 0.0293,0.10254 l 0,0.65039 c 0.13672,-0.19531 0.26562,-0.35644 0.38672,-0.4834 0.12109,-0.12695 0.23633,-0.22754 0.3457,-0.30176 0.10938,-0.0742 0.21875,-0.12597 0.32813,-0.15527 0.10937,-0.0293 0.21875,-0.0439 0.32812,-0.0439 0.0508,10e-6 0.10547,0.003 0.16407,0.009 0.0586,0.006 0.11913,0.0156 0.18164,0.0293 0.0625,0.0137 0.11718,0.0293 0.16406,0.0469 0.0469,0.0176 0.0811,0.0361 0.10254,0.0557 0.0215,0.0195 0.0371,0.041 0.0469,0.0645 0.01,0.0234 0.0186,0.0557 0.0264,0.0967 0.008,0.041 0.0137,0.10254 0.0176,0.18457 0.004,0.082 0.006,0.19336 0.006,0.33398 z"
           style="font-size:12px;font-variant:normal;font-weight:bold;font-stretch:normal;font-family:Calibri;-inkscape-font-specification:Calibri Bold"
           id="path3787" />
        <path
           d="m -485.39835,490.48279 c 0,0.0391 -0.0117,0.0732 -0.0351,0.10254 -0.0234,0.0293 -0.0635,0.0537 -0.12012,0.0732 -0.0566,0.0195 -0.13184,0.0342 -0.22559,0.0439 -0.0937,0.01 -0.21289,0.0146 -0.35742,0.0146 -0.14453,0 -0.26367,-0.005 -0.35742,-0.0146 -0.0937,-0.01 -0.16895,-0.0244 -0.22559,-0.0439 -0.0566,-0.0195 -0.0967,-0.0439 -0.12011,-0.0732 -0.0234,-0.0293 -0.0352,-0.0635 -0.0352,-0.10254 l 0,-7.70508 c 0,-0.0391 0.0117,-0.0742 0.0352,-0.10547 0.0234,-0.0312 0.0635,-0.0576 0.12011,-0.0791 0.0566,-0.0215 0.13184,-0.0381 0.22559,-0.0498 0.0937,-0.0117 0.21289,-0.0176 0.35742,-0.0176 0.14453,0 0.26367,0.006 0.35742,0.0176 0.0937,0.0117 0.16895,0.0283 0.22559,0.0498 0.0566,0.0215 0.0967,0.0479 0.12012,0.0791 0.0234,0.0313 0.0351,0.0664 0.0351,0.10547 z"
           style="font-size:12px;font-variant:normal;font-weight:bold;font-stretch:normal;font-family:Calibri;-inkscape-font-specification:Calibri Bold"
           id="path3789" />
      </g>
    </g>
  </g>
</svg>
