<?xml version="1.0" encoding="UTF-8" standalone="no"?>
<!-- Created with Inkscape (http://www.inkscape.org/) -->

<svg
   xmlns:svg="http://www.w3.org/2000/svg"
   xmlns="http://www.w3.org/2000/svg"
   version="1.0"
   width="24.999998"
   height="24.999998"
   id="svg3336">
  <defs
     id="defs3338">
    <marker
       refX="0"
       refY="0"
       orient="auto"
       id="TriangleOutL"
       style="overflow:visible">
      <path
         d="m 5.77,0 -8.65,5 0,-10 8.65,5 z"
         transform="scale(0.8,0.8)"
         id="path8118"
         style="fill-rule:evenodd;stroke:#000000;stroke-width:1pt;marker-start:none" />
    </marker>
  </defs>
  <g
     transform="translate(-172.58114,-363.382)"
     id="layer1">
    <path
       d="m 417.14286,316.64789 a 87.14286,88.571426 0 1 1 -174.28572,0 87.14286,88.571426 0 1 1 174.28572,0 z"
       transform="matrix(0.1319672,0,0,0.1298387,141.53196,334.76885)"
       id="path2160"
       style="font-weight:bold;fill:#ffffff;fill-opacity:1;stroke:#000000;stroke-width:15.27899933;stroke-miterlimit:4;stroke-opacity:1;stroke-dasharray:none" />
    <text
       x="178.02353"
       y="381.93765"
       id="text3353"
       xml:space="preserve"
       style="font-size:18px;font-style:normal;font-variant:normal;font-weight:bold;font-stretch:normal;text-align:start;line-height:119.00000572%;writing-mode:lr-tb;text-anchor:start;fill:#000000;fill-opacity:1;stroke:none;font-family:Bitstream Vera Sans;-inkscape-font-specification:Bitstream Vera Sans"><tspan
         x="178.02353"
         y="381.93765"
         id="tspan3355"
         style="font-size:18px;font-weight:normal" /></text>
    <path
       d="m 10.9375,9.1517839 a 0.71428573,0.71428573 0 1 1 -1.4285716,0 0.71428573,0.71428573 0 1 1 1.4285716,0 z"
       transform="matrix(1.3999999,0,0,1.4,170.76864,363.0695)"
       id="path2471"
       style="fill:#000000;fill-opacity:1;fill-rule:nonzero;stroke:#000000;stroke-width:1.42857146;stroke-linecap:square;stroke-linejoin:miter;stroke-miterlimit:4;stroke-opacity:1;stroke-dasharray:none;stroke-dashoffset:0" />
  </g>
</svg>
