<?xml version="1.0" encoding="UTF-8" standalone="no"?>
<!-- Created with Inkscape (http://www.inkscape.org/) -->

<svg
   xmlns:dc="http://purl.org/dc/elements/1.1/"
   xmlns:cc="http://creativecommons.org/ns#"
   xmlns:rdf="http://www.w3.org/1999/02/22-rdf-syntax-ns#"
   xmlns:svg="http://www.w3.org/2000/svg"
   xmlns="http://www.w3.org/2000/svg"
   xmlns:sodipodi="http://sodipodi.sourceforge.net/DTD/sodipodi-0.dtd"
   xmlns:inkscape="http://www.inkscape.org/namespaces/inkscape"
   width="31.930845"
   height="24.48097"
   id="svg3336"
   sodipodi:version="0.32"
   inkscape:version="0.47pre4 r22446"
   sodipodi:docname="Source.svg"
   inkscape:output_extension="org.inkscape.output.svg.inkscape"
   version="1.0">
  <defs
     id="defs3338">
    <marker
       inkscape:stockid="Arrow2Mend"
       orient="auto"
       refY="0"
       refX="0"
       id="Arrow2Mend"
       style="overflow:visible">
      <path
         id="path3629"
         style="font-size:12px;fill-rule:evenodd;stroke-width:0.625;stroke-linejoin:round"
         d="M 8.7185878,4.0337352 -2.2072895,0.01601326 8.7185884,-4.0017078 c -1.7454984,2.3720609 -1.7354408,5.6174519 -6e-7,8.035443 z"
         transform="scale(-0.6,-0.6)" />
    </marker>
    <marker
       inkscape:stockid="DotM"
       orient="auto"
       refY="0"
       refX="0"
       id="DotM"
       style="overflow:visible">
      <path
         id="path3667"
         d="m -2.5,-1 c 0,2.76 -2.24,5 -5,5 -2.76,0 -5,-2.24 -5,-5 0,-2.76 2.24,-5 5,-5 2.76,0 5,2.24 5,5 z"
         style="fill-rule:evenodd;stroke:#000000;stroke-width:1pt;marker-start:none;marker-end:none"
         transform="matrix(0.4,0,0,0.4,2.96,0.4)" />
    </marker>
    <marker
       inkscape:stockid="DotL"
       orient="auto"
       refY="0"
       refX="0"
       id="DotL"
       style="overflow:visible">
      <path
         id="path3664"
         d="m -2.5,-1 c 0,2.76 -2.24,5 -5,5 -2.76,0 -5,-2.24 -5,-5 0,-2.76 2.24,-5 5,-5 2.76,0 5,2.24 5,5 z"
         style="fill-rule:evenodd;stroke:#000000;stroke-width:1pt;marker-start:none;marker-end:none"
         transform="matrix(0.8,0,0,0.8,5.92,0.8)" />
    </marker>
    <marker
       style="overflow:visible"
       id="TriangleOutL"
       refX="0"
       refY="0"
       orient="auto"
       inkscape:stockid="TriangleOutL">
      <path
         transform="scale(0.8,0.8)"
         style="fill-rule:evenodd;stroke:#000000;stroke-width:1pt;marker-start:none"
         d="m 5.77,0 -8.65,5 0,-10 8.65,5 z"
         id="path8118" />
    </marker>
    <inkscape:perspective
       sodipodi:type="inkscape:persp3d"
       inkscape:vp_x="0 : 526.18109 : 1"
       inkscape:vp_y="0 : 1000 : 0"
       inkscape:vp_z="744.09448 : 526.18109 : 1"
       inkscape:persp3d-origin="372.04724 : 350.78739 : 1"
       id="perspective3344" />
  </defs>
  <sodipodi:namedview
     id="base"
     pagecolor="#ffffff"
     bordercolor="#666666"
     borderopacity="1.0"
     gridtolerance="10000"
     guidetolerance="10"
     objecttolerance="10"
     inkscape:pageopacity="0.0"
     inkscape:pageshadow="2"
     inkscape:zoom="7.9195959"
     inkscape:cx="5.71828"
     inkscape:cy="14.219644"
     inkscape:document-units="px"
     inkscape:current-layer="layer1"
     showgrid="false"
     inkscape:window-width="1274"
     inkscape:window-height="942"
     inkscape:window-x="0"
     inkscape:window-y="24"
     showguides="true"
     inkscape:snap-global="true"
     inkscape:snap-intersection-line-segments="true"
     inkscape:snap-center="true"
     inkscape:window-maximized="1">
    <inkscape:grid
       type="xygrid"
       id="grid2405"
       visible="true"
       enabled="true"
       empspacing="5"
       snapvisiblegridlinesonly="true" />
  </sodipodi:namedview>
  <metadata
     id="metadata3341">
    <rdf:RDF>
      <cc:Work
         rdf:about="">
        <dc:format>image/svg+xml</dc:format>
        <dc:type
           rdf:resource="http://purl.org/dc/dcmitype/StillImage" />
      </cc:Work>
    </rdf:RDF>
  </metadata>
  <g
     inkscape:label="Layer 1"
     inkscape:groupmode="layer"
     id="layer1"
     transform="translate(-211.82785,-381.42102)">
    <rect
       style="fill:none;stroke:#000000;stroke-width:1.49999988;stroke-linecap:round;stroke-linejoin:round;stroke-miterlimit:4;stroke-opacity:1;stroke-dasharray:none;stroke-dashoffset:0"
       id="rect3623"
       width="30.430845"
       height="22.98097"
       x="212.57785"
       y="382.17102" />
    <g
       style="font-size:36px;font-style:normal;font-weight:normal;fill:#000000;fill-opacity:1;stroke:none;font-family:Bitstream Vera Sans"
       id="text2826">
      <path
         d="m 225.41727,388.44749 c 0,-0.35199 0.022,-0.59399 0.066,-0.726 0.0587,-0.14665 0.22733,-0.24932 0.506,-0.308 0.132,-0.0293 0.25667,-0.044 0.374,-0.044 0.11733,-0.0146 0.22,-0.0293 0.308,-0.044 0.088,-0.0147 0.154,-0.0367 0.198,-0.066 0.044,-0.044 0.066,-0.11732 0.066,-0.22 0,-0.20532 -0.11,-0.30798 -0.33,-0.308 -0.14667,2e-5 -0.38133,0.0293 -0.704,0.088 -0.32267,0.0587 -0.748,0.088 -1.276,0.088 -0.484,2e-5 -0.88,-0.0293 -1.188,-0.088 -0.308,-0.0587 -0.54266,-0.088 -0.704,-0.088 -0.22,2e-5 -0.33,0.10268 -0.33,0.308 0,0.11735 0.022,0.19802 0.066,0.242 0.0587,0.0293 0.132,0.0513 0.22,0.066 0.10267,0.0147 0.21267,0.022 0.33,0.022 0.132,1e-5 0.27134,0.022 0.418,0.066 0.22,0.0734 0.352,0.17601 0.396,0.308 0.0587,0.11735 0.088,0.35201 0.088,0.704 l 0,10.076 c 0,0.24934 -0.007,0.44734 -0.022,0.594 0,0.14667 -0.0293,0.27134 -0.088,0.374 -0.044,0.10267 -0.11733,0.18334 -0.22,0.242 -0.10266,0.044 -0.242,0.088 -0.418,0.132 -0.11733,0.0293 -0.22733,0.044 -0.33,0.044 -0.10266,0 -0.198,0.007 -0.286,0.022 -0.088,0.0147 -0.16133,0.044 -0.22,0.088 -0.044,0.044 -0.066,0.11734 -0.066,0.22 0,0.23467 0.16134,0.352 0.484,0.352 0.16134,0 0.40334,-0.0147 0.726,-0.044 0.32267,-0.044 0.71867,-0.066 1.188,-0.066 0.46933,0 0.858,0.022 1.166,0.066 0.32267,0.0293 0.56467,0.044 0.726,0.044 0.32267,0 0.484,-0.10266 0.484,-0.308 0,-0.11733 -0.0293,-0.198 -0.088,-0.242 -0.044,-0.044 -0.11,-0.0733 -0.198,-0.088 -0.0733,-0.0293 -0.16867,-0.044 -0.286,-0.044 -0.10267,0 -0.20533,-0.0147 -0.308,-0.044 -0.19067,-0.044 -0.33733,-0.0953 -0.44,-0.154 -0.10267,-0.0587 -0.176,-0.132 -0.22,-0.22 -0.044,-0.10266 -0.0733,-0.22733 -0.088,-0.374 0,-0.16133 0,-0.35933 0,-0.594 l 0,-3.674 c 0,-0.11733 0.007,-0.21266 0.022,-0.286 0.0293,-0.0733 0.0807,-0.15399 0.154,-0.242 l 0.594,-0.748 c 0.044,-0.0733 0.0953,-0.10999 0.154,-0.11 0.0293,1e-5 0.0807,0.0513 0.154,0.154 l 2.816,4.488 c 0.23466,0.38134 0.40333,0.71134 0.506,0.99 0.11733,0.264 0.176,0.45467 0.176,0.572 0,0.22 -0.22,0.33 -0.66,0.33 -0.33734,0 -0.506,0.0953 -0.506,0.286 0,0.0733 0.044,0.14667 0.132,0.22 0.088,0.0587 0.21266,0.088 0.374,0.088 0.132,0 0.32266,-0.0147 0.572,-0.044 0.264,-0.044 0.60133,-0.066 1.012,-0.066 0.45466,0 0.83599,0.022 1.144,0.066 0.32266,0.0293 0.57199,0.044 0.748,0.044 0.33733,0 0.50599,-0.10266 0.506,-0.308 -1e-5,-0.10266 -0.022,-0.16866 -0.066,-0.198 -0.044,-0.044 -0.10267,-0.066 -0.176,-0.066 -0.0733,-0.0147 -0.16134,-0.0293 -0.264,-0.044 -0.088,-0.0147 -0.18334,-0.044 -0.286,-0.088 -0.20534,-0.088 -0.40334,-0.23466 -0.594,-0.44 -0.17601,-0.20533 -0.36667,-0.47666 -0.572,-0.814 l -3.894,-6.27 c -0.0293,-0.0587 -0.044,-0.10266 -0.044,-0.132 0,-0.088 0.044,-0.17599 0.132,-0.264 l 2.596,-3.146 c 0.41066,-0.49865 0.77,-0.84332 1.078,-1.034 0.32266,-0.20532 0.59399,-0.33732 0.814,-0.396 0.21999,-0.0733 0.38866,-0.11732 0.506,-0.132 0.11733,-0.0147 0.17599,-0.088 0.176,-0.22 -1e-5,-0.20532 -0.0953,-0.30798 -0.286,-0.308 -0.14667,2e-5 -0.36667,0.0293 -0.66,0.088 -0.27867,0.0587 -0.66,0.088 -1.144,0.088 -0.44,2e-5 -0.80667,-0.0293 -1.1,-0.088 -0.27867,-0.0587 -0.484,-0.088 -0.616,-0.088 -0.20534,2e-5 -0.308,0.10268 -0.308,0.308 0,0.14668 0.0587,0.23468 0.176,0.264 0.11733,0.0293 0.24933,0.0587 0.396,0.088 0.14666,0.0147 0.27866,0.0514 0.396,0.11 0.11733,0.044 0.176,0.16135 0.176,0.352 0,0.17601 -0.088,0.38135 -0.264,0.616 l -3.784,4.796 c -0.11733,0.16134 -0.19067,0.24201 -0.22,0.242 -0.044,10e-6 -0.066,-0.0733 -0.066,-0.22 l 0,-4.84"
         style="font-size:22px;font-variant:normal;font-stretch:normal;font-family:Apple Garamond Light;-inkscape-font-specification:'Apple Garamond Light,'"
         id="path2825" />
    </g>
  </g>
</svg>
