<?xml version="1.0" encoding="UTF-8" standalone="no"?>
<!-- Created with Inkscape (http://www.inkscape.org/) -->

<svg
   xmlns:dc="http://purl.org/dc/elements/1.1/"
   xmlns:cc="http://creativecommons.org/ns#"
   xmlns:rdf="http://www.w3.org/1999/02/22-rdf-syntax-ns#"
   xmlns:svg="http://www.w3.org/2000/svg"
   xmlns="http://www.w3.org/2000/svg"
   xmlns:sodipodi="http://sodipodi.sourceforge.net/DTD/sodipodi-0.dtd"
   xmlns:inkscape="http://www.inkscape.org/namespaces/inkscape"
   width="90"
   height="60"
   id="svg2531"
   sodipodi:version="0.32"
   inkscape:version="0.48.4 r9939"
   sodipodi:docname="conditionalSubsystemDefault.svg"
   inkscape:output_extension="org.inkscape.output.svg.inkscape"
   version="1.0">
  <defs
     id="defs2533">
    <marker
       inkscape:stockid="DotM"
       orient="auto"
       refY="0"
       refX="0"
       id="DotM"
       style="overflow:visible">
      <path
         id="path3671"
         d="m -2.5,-1 c 0,2.76 -2.24,5 -5,5 -2.76,0 -5,-2.24 -5,-5 0,-2.76 2.24,-5 5,-5 2.76,0 5,2.24 5,5 z"
         style="fill-rule:evenodd;stroke:#000000;stroke-width:1pt;marker-start:none;marker-end:none"
         transform="matrix(0.4,0,0,0.4,2.96,0.4)"
         inkscape:connector-curvature="0" />
    </marker>
    <marker
       inkscape:stockid="Arrow2Mend"
       orient="auto"
       refY="0"
       refX="0"
       id="Arrow2Mend"
       style="overflow:visible">
      <path
         id="path3633"
         style="font-size:12px;fill-rule:evenodd;stroke-width:0.625;stroke-linejoin:round"
         d="M 8.7185878,4.0337352 -2.2072895,0.01601326 8.7185884,-4.0017078 c -1.7454984,2.3720609 -1.7354408,5.6174519 -6e-7,8.035443 z"
         transform="scale(-0.6,-0.6)"
         inkscape:connector-curvature="0" />
    </marker>
    <marker
       inkscape:stockid="Arrow1Lstart"
       orient="auto"
       refY="0"
       refX="0"
       id="Arrow1Lstart"
       style="overflow:visible">
      <path
         id="path3606"
         d="M 0,0 5,-5 -12.5,0 5,5 0,0 z"
         style="fill-rule:evenodd;stroke:#000000;stroke-width:1pt;marker-start:none"
         transform="matrix(0.8,0,0,0.8,10,0)"
         inkscape:connector-curvature="0" />
    </marker>
    <inkscape:perspective
       sodipodi:type="inkscape:persp3d"
       inkscape:vp_x="0 : 526.18109 : 1"
       inkscape:vp_y="0 : 1000 : 0"
       inkscape:vp_z="744.09448 : 526.18109 : 1"
       inkscape:persp3d-origin="372.04724 : 350.78739 : 1"
       id="perspective2539" />
    <inkscape:perspective
       id="perspective10"
       inkscape:persp3d-origin="372.04724 : 350.78739 : 1"
       inkscape:vp_z="744.09448 : 526.18109 : 1"
       inkscape:vp_y="0 : 1000 : 0"
       inkscape:vp_x="0 : 526.18109 : 1"
       sodipodi:type="inkscape:persp3d" />
    <inkscape:perspective
       sodipodi:type="inkscape:persp3d"
       inkscape:vp_x="0 : 526.18109 : 1"
       inkscape:vp_y="0 : 1000 : 0"
       inkscape:vp_z="744.09448 : 526.18109 : 1"
       inkscape:persp3d-origin="372.04724 : 350.78739 : 1"
       id="perspective3344" />
    <marker
       style="overflow:visible"
       id="TriangleOutL"
       refX="0"
       refY="0"
       orient="auto"
       inkscape:stockid="TriangleOutL">
      <path
         transform="scale(0.8,0.8)"
         style="fill-rule:evenodd;stroke:#000000;stroke-width:1pt;marker-start:none"
         d="m 5.77,0 -8.65,5 0,-10 8.65,5 z"
         id="path8118" />
    </marker>
    <marker
       inkscape:stockid="DotL"
       orient="auto"
       refY="0"
       refX="0"
       id="DotL"
       style="overflow:visible">
      <path
         id="path3664"
         d="m -2.5,-1 c 0,2.76 -2.24,5 -5,5 -2.76,0 -5,-2.24 -5,-5 0,-2.76 2.24,-5 5,-5 2.76,0 5,2.24 5,5 z"
         style="fill-rule:evenodd;stroke:#000000;stroke-width:1pt;marker-start:none;marker-end:none"
         transform="matrix(0.8,0,0,0.8,5.92,0.8)" />
    </marker>
    <marker
       inkscape:stockid="DotM"
       orient="auto"
       refY="0"
       refX="0"
       id="DotM-8"
       style="overflow:visible">
      <path
         id="path3667"
         d="m -2.5,-1 c 0,2.76 -2.24,5 -5,5 -2.76,0 -5,-2.24 -5,-5 0,-2.76 2.24,-5 5,-5 2.76,0 5,2.24 5,5 z"
         style="fill-rule:evenodd;stroke:#000000;stroke-width:1pt;marker-start:none;marker-end:none"
         transform="matrix(0.4,0,0,0.4,2.96,0.4)" />
    </marker>
    <marker
       inkscape:stockid="Arrow2Mend"
       orient="auto"
       refY="0"
       refX="0"
       id="Arrow2Mend-4"
       style="overflow:visible">
      <path
         id="path3629"
         style="font-size:12px;fill-rule:evenodd;stroke-width:0.625;stroke-linejoin:round"
         d="M 8.7185878,4.0337352 -2.2072895,0.01601326 8.7185884,-4.0017078 c -1.7454984,2.3720609 -1.7354408,5.6174519 -6e-7,8.035443 l 0,0 z"
         transform="scale(-0.6,-0.6)" />
    </marker>
  </defs>
  <sodipodi:namedview
     id="base"
     pagecolor="#ffffff"
     bordercolor="#666666"
     borderopacity="1.0"
     gridtolerance="10000"
     guidetolerance="10"
     objecttolerance="10"
     inkscape:pageopacity="0.0"
     inkscape:pageshadow="2"
     inkscape:zoom="3.4147284"
     inkscape:cx="94.517391"
     inkscape:cy="38.492258"
     inkscape:document-units="px"
     inkscape:current-layer="layer1"
     showgrid="false"
     inkscape:window-width="1600"
     inkscape:window-height="876"
     inkscape:window-x="0"
     inkscape:window-y="24"
     inkscape:window-maximized="1"
     showguides="true"
     inkscape:guide-bbox="true"
     inkscape:snap-bbox="true"
     inkscape:bbox-nodes="true">
    <sodipodi:guide
       orientation="1,0"
       position="101.56243,100.95581"
       id="guide3946" />
    <sodipodi:guide
       orientation="0,1"
       position="-7.9801369,67.794557"
       id="guide3912" />
  </sodipodi:namedview>
  <metadata
     id="metadata2536">
    <rdf:RDF>
      <cc:Work
         rdf:about="">
        <dc:format>image/svg+xml</dc:format>
        <dc:type
           rdf:resource="http://purl.org/dc/dcmitype/StillImage" />
        <dc:title />
      </cc:Work>
    </rdf:RDF>
  </metadata>
  <g
     inkscape:label="Layer 1"
     inkscape:groupmode="layer"
     id="layer1"
     transform="translate(-350.44375,-475.67327)">
    <rect
       ry="0"
       y="-439.69376"
       x="476.42328"
       height="88.5"
       width="58.5"
       id="rect4023"
       style="fill:#ffffff;fill-opacity:1;stroke:#000000;stroke-width:1.5;stroke-linecap:butt;stroke-miterlimit:7.67599964;stroke-opacity:1;stroke-dasharray:none;stroke-dashoffset:0"
       rx="1.7202593"
       transform="matrix(0,1,-1,0,0,0)" />
    <path
       sodipodi:type="inkscape:offset"
       inkscape:radius="-3.1829953"
       inkscape:original="M 480.4375 -442.9375 C 479.48448 -442.9375 478.71875 -442.17177 478.71875 -441.21875 L 478.71875 -352.53125 C 478.71875 -351.57823 479.48448 -350.8125 480.4375 -350.8125 L 533.5625 -350.8125 C 534.51552 -350.8125 535.3125 -351.57823 535.3125 -352.53125 L 535.3125 -441.21875 C 535.3125 -442.17177 534.51552 -442.9375 533.5625 -442.9375 L 480.4375 -442.9375 z "
       style="fill:none;stroke:#000000;stroke-width:1.55636435;stroke-linecap:butt;stroke-miterlimit:7.67599964;stroke-opacity:1;stroke-dasharray:none;stroke-dashoffset:0"
       id="path4811"
       d="m 481.90625,-439.75 0,85.75 50.21875,0 0,-85.75 -50.21875,0 z"
       transform="matrix(0,0.99564406,-0.93294461,0,25.181359,0.86617611)" />
    <rect
       style="fill:#ffffff;fill-opacity:1;stroke:#000000;stroke-width:1.5;stroke-miterlimit:7.67599964;stroke-opacity:1;stroke-dasharray:none;stroke-dashoffset:0"
       id="rect3858"
       width="18"
       height="18"
       x="369.75079"
       y="496.67328" />
    <rect
       style="fill:#ffffff;fill-opacity:1;stroke:#000000;stroke-width:1.5;stroke-miterlimit:7.67599964;stroke-opacity:1;stroke-dasharray:none;stroke-dashoffset:0"
       id="rect3858-4"
       width="18"
       height="18"
       x="403.13672"
       y="496.67328" />
    <path
       style="fill:none;stroke:#000000;stroke-width:1.5;stroke-linecap:square;stroke-linejoin:miter;stroke-miterlimit:7.67599964;stroke-opacity:1;stroke-dasharray:none"
       d="m 361.83133,505.67327 c 6.66085,0 6.66085,0 6.66085,0"
       id="path3885"
       inkscape:connector-curvature="0" />
    <path
       style="fill:none;stroke:#000000;stroke-width:1.5;stroke-linecap:square;stroke-linejoin:miter;stroke-miterlimit:7.67599964;stroke-opacity:1;stroke-dasharray:none"
       d="m 422.62391,505.67327 c 6.51623,0 6.51623,0 6.51623,0"
       id="path3885-7"
       inkscape:connector-curvature="0" />
    <path
       style="fill:none;stroke:#000000;stroke-width:1.5;stroke-linecap:square;stroke-linejoin:miter;stroke-miterlimit:7.67599964;stroke-opacity:1;stroke-dasharray:none"
       d="m 388.95583,505.67327 c 12.73402,0 12.73402,0 12.73402,0"
       id="path3885-7-9"
       inkscape:connector-curvature="0" />
    <rect
       style="fill:#ffffff;fill-opacity:1;stroke:#000000;stroke-width:1.17900001999999993;stroke-linecap:round;stroke-linejoin:miter;stroke-miterlimit:4;stroke-opacity:1;stroke-dasharray:none;stroke-dashoffset:0"
       id="rect3843"
       width="29.744438"
       height="10.821273"
       x="351.03326"
       y="476.26279" />
    <g
       id="g3894"
       transform="matrix(0.97339864,0,0,0.97339864,9.3379604,13.642708)">
      <path
         inkscape:connector-curvature="0"
         d="m 354.99549,478.29385 c -0.53644,10e-6 -0.96315,0.19995 -1.28014,0.59983 -0.31455,0.3999 -0.47182,0.94487 -0.47182,1.63493 0,0.68761 0.15727,1.23137 0.47182,1.63126 0.31699,0.39989 0.7437,0.59984 1.28014,0.59984 0.53644,0 0.96071,-0.19995 1.27282,-0.59984 0.31455,-0.39989 0.47182,-0.94365 0.47183,-1.63126 -10e-6,-0.69006 -0.15728,-1.23503 -0.47183,-1.63493 -0.31211,-0.39988 -0.73638,-0.59982 -1.27282,-0.59983 m 0,-0.59984 c 0.76564,1e-5 1.37767,0.25725 1.83608,0.77175 0.45841,0.51206 0.68762,1.19967 0.68762,2.06285 0,0.86074 -0.22921,1.54836 -0.68762,2.06285 -0.45841,0.51205 -1.07044,0.76808 -1.83608,0.76808 -0.76809,0 -1.38255,-0.25603 -1.8434,-0.76808 -0.45841,-0.51205 -0.68762,-1.19967 -0.68762,-2.06285 0,-0.86318 0.22921,-1.55079 0.68762,-2.06285 0.46085,-0.5145 1.07531,-0.77174 1.8434,-0.77175"
         style="font-size:10px;font-style:normal;font-weight:normal;line-height:125%;letter-spacing:0px;word-spacing:0px;fill:#000000;fill-opacity:1;stroke:none;font-family:Sans"
         id="path3854" />
      <path
         inkscape:connector-curvature="0"
         d="m 358.67497,477.79277 0.99485,0 2.42129,4.56826 0,-4.56826 0.71688,0 0,5.4607 -0.99485,0 -2.42129,-4.56827 0,4.56827 -0.71688,0 0,-5.4607"
         style="font-size:10px;font-style:normal;font-weight:normal;line-height:125%;letter-spacing:0px;word-spacing:0px;fill:#000000;fill-opacity:1;stroke:none;font-family:Sans"
         id="path3856" />
      <path
         inkscape:connector-curvature="0"
         d="m 365.44507,477.79277 0.62179,0 -1.90192,6.15563 -0.62178,0 1.90191,-6.15563"
         style="font-size:10px;font-style:normal;font-weight:normal;line-height:125%;letter-spacing:0px;word-spacing:0px;fill:#000000;fill-opacity:1;stroke:none;font-family:Sans"
         id="path3858" />
      <path
         inkscape:connector-curvature="0"
         d="m 369.0258,478.29385 c -0.53643,10e-6 -0.96315,0.19995 -1.28013,0.59983 -0.31455,0.3999 -0.47183,0.94487 -0.47183,1.63493 0,0.68761 0.15728,1.23137 0.47183,1.63126 0.31698,0.39989 0.7437,0.59984 1.28013,0.59984 0.53644,0 0.96071,-0.19995 1.27282,-0.59984 0.31455,-0.39989 0.47182,-0.94365 0.47183,-1.63126 -10e-6,-0.69006 -0.15728,-1.23503 -0.47183,-1.63493 -0.31211,-0.39988 -0.73638,-0.59982 -1.27282,-0.59983 m 0,-0.59984 c 0.76564,1e-5 1.37767,0.25725 1.83609,0.77175 0.4584,0.51206 0.68761,1.19967 0.68761,2.06285 0,0.86074 -0.22921,1.54836 -0.68761,2.06285 -0.45842,0.51205 -1.07045,0.76808 -1.83609,0.76808 -0.76808,0 -1.38255,-0.25603 -1.84339,-0.76808 -0.45842,-0.51205 -0.68762,-1.19967 -0.68762,-2.06285 0,-0.86318 0.2292,-1.55079 0.68762,-2.06285 0.46084,-0.5145 1.07531,-0.77174 1.84339,-0.77175"
         style="font-size:10px;font-style:normal;font-weight:normal;line-height:125%;letter-spacing:0px;word-spacing:0px;fill:#000000;fill-opacity:1;stroke:none;font-family:Sans"
         id="path3860" />
      <path
         inkscape:connector-curvature="0"
         d="m 372.70528,477.79277 3.13818,0 0,0.62178 -2.39935,0 0,1.60931 2.16526,0 0,0.62179 -2.16526,0 0,2.60782 -0.73883,0 0,-5.4607"
         style="font-size:10px;font-style:normal;font-weight:normal;line-height:125%;letter-spacing:0px;word-spacing:0px;fill:#000000;fill-opacity:1;stroke:none;font-family:Sans"
         id="path3862" />
      <path
         inkscape:connector-curvature="0"
         d="m 377.02118,477.79277 3.13817,0 0,0.62178 -2.39935,0 0,1.60931 2.16527,0 0,0.62179 -2.16527,0 0,2.60782 -0.73882,0 0,-5.4607"
         style="font-size:10px;font-style:normal;font-weight:normal;line-height:125%;letter-spacing:0px;word-spacing:0px;fill:#000000;fill-opacity:1;stroke:none;font-family:Sans"
         id="path3864" />
    </g>
  </g>
</svg>
