<?xml version="1.0" encoding="UTF-8" standalone="no"?>
<svg
   xmlns:dc="http://purl.org/dc/elements/1.1/"
   xmlns:cc="http://creativecommons.org/ns#"
   xmlns:rdf="http://www.w3.org/1999/02/22-rdf-syntax-ns#"
   xmlns:svg="http://www.w3.org/2000/svg"
   xmlns="http://www.w3.org/2000/svg"
   xmlns:sodipodi="http://sodipodi.sourceforge.net/DTD/sodipodi-0.dtd"
   xmlns:inkscape="http://www.inkscape.org/namespaces/inkscape"
   height="70.001701"
   width="89.602821"
   version="1.1"
   id="svg40"
   sodipodi:docname="dcpcomponent.svg"
   style="fill:none;stroke:#000000"
   inkscape:version="0.92.5 (2060ec1f9f, 2020-04-08)">
  <metadata
     id="metadata46">
    <rdf:RDF>
      <cc:Work
         rdf:about="">
        <dc:format>image/svg+xml</dc:format>
        <dc:type
           rdf:resource="http://purl.org/dc/dcmitype/StillImage" />
        <dc:title></dc:title>
      </cc:Work>
    </rdf:RDF>
  </metadata>
  <defs
     id="defs44" />
  <sodipodi:namedview
     pagecolor="#ffffff"
     bordercolor="#666666"
     borderopacity="1"
     objecttolerance="10"
     gridtolerance="10"
     guidetolerance="10"
     inkscape:pageopacity="0"
     inkscape:pageshadow="2"
     inkscape:window-width="1920"
     inkscape:window-height="1016"
     id="namedview42"
     showgrid="false"
     fit-margin-top="0"
     fit-margin-left="0"
     fit-margin-right="0"
     fit-margin-bottom="0"
     inkscape:zoom="2.8284271"
     inkscape:cx="17.814269"
     inkscape:cy="-12.58912"
     inkscape:window-x="0"
     inkscape:window-y="27"
     inkscape:window-maximized="1"
     inkscape:current-layer="svg40" />
  <rect
     style="fill:#d8d8d8;fill-opacity:1;stroke:#000000;stroke-width:1.5;stroke-linecap:round;stroke-linejoin:round;stroke-miterlimit:4;stroke-dasharray:none;stroke-opacity:1"
     id="rect3224"
     width="88.102821"
     height="68.501701"
     x="0.75"
     y="0.75" />
  <g
     id="g9982"
     transform="translate(34.265278,-27.325677)">
    <path
       id="path9934"
       d="M -21.468724,85.626022 V 84.044125 H -0.01187838 21.444966 l 1.320393,1.130208 1.320394,1.130205 1.379268,-1.130205 1.379268,-1.130208 h 8.272373 8.272373 v 1.581897 1.581896 h -32.428879 -32.42888 z"
       style="fill:#cb1f3c;fill-opacity:1;stroke:none;stroke-width:1"
       inkscape:connector-curvature="0" />
    <path
       sodipodi:nodetypes="scsscccssssccsscsssscssssss"
       inkscape:connector-curvature="0"
       id="path9908"
       d="m 32.791042,49.401547 c -3.171022,0 -3.624629,0.0744 -5.101563,0.853516 -2.070187,1.092062 -4.034815,3.324187 -4.855468,5.517578 -0.60608,1.619894 -0.642578,2.426494 -0.642578,13.949219 v 12.230468 l 1.861328,1.775391 1.935546,-1.701172 v -5.792969 c 1e-6,-3.186604 0.05405,-5.792968 0.119141,-5.792968 0.06508,0 0.811877,0.387215 1.660156,0.861328 1.313797,0.734298 1.994983,0.879761 4.59961,0.984375 2.783714,0.111809 3.223253,0.04693 4.904297,-0.720703 2.242879,-1.024186 3.991883,-2.651296 5.117187,-4.763672 0.797238,-1.496534 0.841797,-1.821423 0.841797,-6.011719 0,-4.038642 -0.06449,-4.55538 -0.744141,-5.853516 -1.015593,-1.939779 -2.738837,-3.68336 -4.634765,-4.693359 -1.437425,-0.765748 -1.898209,-0.841797 -5.060547,-0.841797 z m 0,3.648438 c 1.888895,0 3.77617,0.766502 5.125,2.302734 1.20786,1.375677 1.673828,2.885651 1.673828,5.4375 0,1.044052 -0.149499,2.436463 -0.332031,3.09375 -0.431889,1.555229 -2.022164,3.343756 -3.617188,4.068359 -0.697527,0.31688 -1.979566,0.576172 -2.849609,0.576172 -1.993458,0 -3.830772,-0.824514 -5.126953,-2.300781 -1.20786,-1.375677 -1.671875,-2.885651 -1.671875,-5.4375 0,-2.551849 0.464015,-4.061823 1.671875,-5.4375 1.348829,-1.536232 3.238058,-2.302734 5.126953,-2.302734 z"
       style="fill:#333f48;fill-opacity:1;stroke:none;stroke-width:1" />
    <path
       id="path9874"
       d="m -4.0683334,40.067563 v 5.5625 c 0,3.059654 -0.105822,5.508296 -0.236328,5.441406 -3.128727,-1.603477 -3.394385,-1.669922 -6.5644526,-1.669922 -2.579042,0 -3.439181,0.125885 -4.650391,0.685547 -1.901201,0.878488 -4.010377,2.989459 -5.001953,5.007813 -0.70296,1.430869 -0.777503,1.975049 -0.783203,5.695312 -0.0054,3.555971 0.08665,4.312833 0.677734,5.591797 1.438415,3.1124 4.338323,5.380552 7.615234,5.955078 5.3696456,0.941437 10.3616926,-1.656434 12.13085962,-6.3125 0.562814,-1.481209 0.609375,-2.526216 0.609375,-13.779297 V 40.067563 H -2.1698964 Z m -6.4238276,13.033203 c 1.5079346,0.07497 3.0090336,0.631139 4.2128896,1.71875 1.790787,1.617869 2.318551,3.273637 2.152344,6.75 -0.121112,2.533167 -0.240813,3.005615 -1.066406,4.177734 -0.51197,0.726859 -1.559266,1.653713 -2.326172,2.058594 -1.681475,0.887712 -4.7153416,0.990812 -6.1972656,0.210937 -1.265969,-0.666226 -2.645048,-1.96998 -3.193359,-3.019531 -0.726296,-1.390243 -0.606349,-6.924239 0.183594,-8.472656 1.190912,-2.334379 3.721149,-3.548773 6.234375,-3.423828 z"
       style="fill:#333f48;fill-opacity:1;stroke:none;stroke-width:1"
       inkscape:connector-curvature="0" />
    <path
       id="path9870"
       d="m 11.667096,71.993854 c -3.1921354,-0.752059 -5.7895394,-2.91995 -7.3981674,-6.174785 -1.040712,-2.105735 -1.17323,-2.645251 -1.180884,-4.807694 -0.0053,-1.490516 0.201129,-3.049681 0.531867,-4.017682 0.718032,-2.101511 2.575926,-4.508908 4.453719,-5.770974 C 10.510138,49.58515 12.17913,49.2424 17.716695,49.2424 H 22.6183 l -0.648818,0.711854 c -0.356851,0.391519 -1.024547,1.317605 -1.483775,2.057968 l -0.834956,1.346118 -3.483258,-0.02753 c -3.284836,-0.02594 -3.577414,0.02503 -5.136244,0.89516 -5.3127904,2.965534 -5.2706424,10.336125 0.07508,13.128761 1.453519,0.75933 2.024973,0.87042 4.477457,0.87042 h 2.811287 v 2.056466 2.056465 l -2.768319,-0.03178 c -1.522576,-0.0175 -3.304421,-0.158085 -3.959655,-0.312456 z"
       style="fill:#333f48;fill-opacity:1;stroke:none;stroke-width:1"
       inkscape:connector-curvature="0" />
  </g>
</svg>
