<?xml version="1.0" encoding="UTF-8" standalone="no"?>
<!-- Created with Inkscape (http://www.inkscape.org/) -->

<svg
   xmlns:dc="http://purl.org/dc/elements/1.1/"
   xmlns:cc="http://creativecommons.org/ns#"
   xmlns:rdf="http://www.w3.org/1999/02/22-rdf-syntax-ns#"
   xmlns:svg="http://www.w3.org/2000/svg"
   xmlns="http://www.w3.org/2000/svg"
   xmlns:sodipodi="http://sodipodi.sourceforge.net/DTD/sodipodi-0.dtd"
   xmlns:inkscape="http://www.inkscape.org/namespaces/inkscape"
   width="66.53125"
   height="36.75"
   id="svg2"
   version="1.1"
   inkscape:version="0.48.0 r9654"
   sodipodi:docname="New document 1">
  <defs
     id="defs4" />
  <sodipodi:namedview
     id="base"
     pagecolor="#ffffff"
     bordercolor="#666666"
     borderopacity="1.0"
     inkscape:pageopacity="0.0"
     inkscape:pageshadow="2"
     inkscape:zoom="3.0278533"
     inkscape:cx="156.04736"
     inkscape:cy="-69.926433"
     inkscape:document-units="px"
     inkscape:current-layer="layer1"
     showgrid="false"
     fit-margin-top="0"
     fit-margin-left="0"
     fit-margin-right="0"
     fit-margin-bottom="0"
     inkscape:window-width="1680"
     inkscape:window-height="982"
     inkscape:window-x="1592"
     inkscape:window-y="142"
     inkscape:window-maximized="1" />
  <metadata
     id="metadata7">
    <rdf:RDF>
      <cc:Work
         rdf:about="">
        <dc:format>image/svg+xml</dc:format>
        <dc:type
           rdf:resource="http://purl.org/dc/dcmitype/StillImage" />
        <dc:title></dc:title>
      </cc:Work>
    </rdf:RDF>
  </metadata>
  <g
     inkscape:label="Layer 1"
     inkscape:groupmode="layer"
     id="layer1"
     transform="translate(27.375,-313.1875)">
    <path
       style="fill:#faff9f;fill-opacity:1;stroke:#000000;stroke-width:1.5;stroke-linecap:square;stroke-linejoin:miter;stroke-miterlimit:4;stroke-opacity:1;stroke-dashoffset:0"
       d="m -26.622879,313.94629 65.028,0 0,35.245 -65.028,0 z"
       id="rect2985"
       inkscape:connector-curvature="0" />
    <g
       style="font-size:26px;font-style:normal;font-variant:normal;font-weight:normal;font-stretch:normal;line-height:125%;letter-spacing:0px;word-spacing:0px;fill:#000000;fill-opacity:1;stroke:none;font-family:Calibri;-inkscape-font-specification:Calibri"
       id="text3755">
      <path
         d="m -8.7402267,324.21185 c -1.09e-5,0.16083 -0.00847,0.30047 -0.025391,0.41895 -0.016938,0.1185 -0.04656,0.21372 -0.088867,0.28564 -0.042328,0.072 -0.090994,0.12485 -0.1459961,0.15869 -0.055023,0.0339 -0.1121523,0.0508 -0.1713867,0.0508 l -6.0175775,0 0,5.58593 5.6874994,0 c 0.059235,10e-6 0.1163635,0.0148 0.1713867,0.0444 0.055003,0.0296 0.1036681,0.0783 0.1459961,0.14599 0.042307,0.0677 0.07193,0.1587 0.088867,0.27295 0.016917,0.11427 0.02538,0.26026 0.025391,0.43799 -1.05e-5,0.16082 -0.00847,0.29835 -0.025391,0.4126 -0.016938,0.11426 -0.04656,0.20736 -0.088867,0.27929 -0.042328,0.0719 -0.090993,0.12697 -0.1459961,0.16504 -0.055023,0.0381 -0.112152,0.0571 -0.1713867,0.0571 l -5.6874994,0 0,6.84278 c -5e-6,0.0592 -0.01693,0.11637 -0.05078,0.17138 -0.03386,0.055 -0.0931,0.0973 -0.177734,0.12696 -0.08464,0.0296 -0.194666,0.055 -0.330078,0.0762 -0.135421,0.0212 -0.313155,0.0317 -0.533203,0.0317 -0.203128,0 -0.376631,-0.0106 -0.520508,-0.0317 -0.143883,-0.0212 -0.258141,-0.0466 -0.342774,-0.0762 -0.08464,-0.0296 -0.143882,-0.0719 -0.177734,-0.12696 -0.03386,-0.055 -0.05078,-0.11214 -0.05078,-0.17138 l 0,-15.20899 c -2e-6,-0.33006 0.08675,-0.56069 0.260254,-0.69189 0.1735,-0.13117 0.357581,-0.19676 0.552246,-0.19678 l 7.3886715,0 c 0.059234,2e-5 0.1163632,0.0169 0.1713867,0.0508 0.055003,0.0339 0.1036678,0.0889 0.1459961,0.16504 0.042307,0.0762 0.071929,0.17563 0.088867,0.29834 0.016916,0.12274 0.02538,0.2645 0.025391,0.42529 z"
         id="path3760"
         inkscape:connector-curvature="0" />
      <path
         d="m 12.422859,339.37006 c -2e-5,0.0677 -0.01695,0.12695 -0.05078,0.17773 -0.03387,0.0508 -0.09312,0.091 -0.177734,0.12061 -0.08466,0.0296 -0.192566,0.055 -0.323731,0.0762 -0.131204,0.0212 -0.302591,0.0317 -0.51416,0.0317 -0.19468,0 -0.361835,-0.0106 -0.501465,-0.0317 -0.139667,-0.0212 -0.249693,-0.0466 -0.330078,-0.0762 -0.08042,-0.0296 -0.137551,-0.0698 -0.171387,-0.12061 -0.03387,-0.0508 -0.0508,-0.11003 -0.05078,-0.17773 l 0,-14.30762 -0.02539,0 -5.8525387,14.37109 c -0.025403,0.0592 -0.061373,0.11003 -0.1079101,0.15235 -0.046561,0.0423 -0.1142697,0.0783 -0.203125,0.10791 -0.088879,0.0296 -0.194673,0.0508 -0.3173829,0.0635 -0.1227326,0.0127 -0.2687286,0.0191 -0.4379882,0.0191 -0.1777452,0 -0.3300888,-0.008 -0.4570313,-0.0254 -0.1269635,-0.0169 -0.2327577,-0.0402 -0.3173828,-0.0698 -0.084645,-0.0296 -0.1502379,-0.0656 -0.1967773,-0.10791 -0.046559,-0.0423 -0.078298,-0.0889 -0.095215,-0.13965 l -5.5986328,-14.37109 -0.012695,0 0,14.30762 c -4.3e-6,0.0677 -0.016931,0.12695 -0.050781,0.17773 -0.033858,0.0508 -0.093103,0.091 -0.1777343,0.12061 -0.084639,0.0296 -0.1946654,0.055 -0.3300782,0.0762 -0.1354202,0.0212 -0.3089227,0.0317 -0.5205078,0.0317 -0.203128,0 -0.3723987,-0.0106 -0.5078125,-0.0317 -0.1354192,-0.0212 -0.2433293,-0.0466 -0.3237304,-0.0762 -0.080406,-0.0296 -0.135419,-0.0698 -0.1650391,-0.12061 -0.029625,-0.0508 -0.044436,-0.11003 -0.044434,-0.17773 l 0,-15.10743 c -2.2e-6,-0.35545 0.093097,-0.60935 0.2792969,-0.76171 0.1861952,-0.15233 0.3935518,-0.2285 0.6220703,-0.22852 l 1.3203125,0 c 0.2708286,2e-5 0.5078076,0.0254 0.7109375,0.0762 0.2031197,0.0508 0.3808539,0.1312 0.5332031,0.24121 0.152338,0.11004 0.279291,0.24969 0.3808594,0.41895 0.1015564,0.16928 0.1904235,0.36818 0.2666016,0.59668 l 4.7607421,11.89551 0.063477,0 4.9511719,-11.85743 c 0.093083,-0.25389 0.1946452,-0.46971 0.3046875,-0.64746 0.1100095,-0.17772 0.2306149,-0.31948 0.3618164,-0.42529 0.131168,-0.10578 0.277164,-0.18195 0.4379883,-0.22852 0.1607899,-0.0465 0.3469877,-0.0698 0.5585939,-0.0698 l 1.383789,0 c 0.126934,2e-5 0.24754,0.0191 0.361817,0.0571 0.114238,0.0381 0.211569,0.0974 0.291992,0.17773 0.08038,0.0804 0.145976,0.18199 0.196777,0.30469 0.05076,0.12274 0.07615,0.27297 0.07617,0.45068 z"
         id="path3762"
         inkscape:connector-curvature="0" />
      <path
         d="m 29.155281,333.63177 c -1.4e-5,0.99871 -0.14601,1.88949 -0.437988,2.67237 -0.292006,0.78288 -0.708835,1.44515 -1.250488,1.98681 -0.541679,0.54167 -1.201835,0.95215 -1.980469,1.23145 -0.778656,0.2793 -1.663095,0.41894 -2.653321,0.41895 -0.905606,-10e-6 -1.7308,-0.13119 -2.475585,-0.39356 -0.744797,-0.26237 -1.383794,-0.64958 -1.916993,-1.16162 -0.533206,-0.51204 -0.943687,-1.15316 -1.231445,-1.92334 -0.287763,-0.77018 -0.431643,-1.65885 -0.431641,-2.66602 l 0,-10.19433 c -2e-6,-0.0677 0.01693,-0.12694 0.05078,-0.17774 0.03385,-0.0508 0.0931,-0.091 0.177734,-0.1206 0.08463,-0.0296 0.194659,-0.055 0.330078,-0.0762 0.135414,-0.0212 0.313148,-0.0317 0.533203,-0.0317 0.203122,1e-5 0.376624,0.0106 0.520508,0.0317 0.143876,0.0212 0.256018,0.0466 0.336426,0.0762 0.0804,0.0296 0.137528,0.0698 0.171387,0.1206 0.03385,0.0508 0.05078,0.11005 0.05078,0.17774 l 0,9.92773 c -5e-6,0.76173 0.09309,1.42611 0.279297,1.99317 0.186193,0.56706 0.45491,1.0389 0.806152,1.41552 0.351231,0.37663 0.774408,0.66016 1.269531,0.85059 0.49511,0.19043 1.051588,0.28565 1.669434,0.28564 0.634757,10e-6 1.199697,-0.0931 1.694824,-0.27929 0.495107,-0.1862 0.914052,-0.4655 1.256836,-0.83789 0.342762,-0.3724 0.605131,-0.83366 0.787109,-1.38379 0.181954,-0.55013 0.272937,-1.19336 0.27295,-1.92969 l 0,-10.04199 c -1.3e-5,-0.0677 0.01691,-0.12694 0.05078,-0.17774 0.03384,-0.0508 0.09309,-0.091 0.177734,-0.1206 0.08462,-0.0296 0.196765,-0.055 0.336426,-0.0762 0.139635,-0.0212 0.315254,-0.0317 0.526856,-0.0317 0.203111,1e-5 0.374497,0.0106 0.51416,0.0317 0.139634,0.0212 0.24966,0.0466 0.330078,0.0762 0.08039,0.0296 0.139634,0.0698 0.177734,0.1206 0.03807,0.0508 0.05711,0.11005 0.05713,0.17774 z"
         id="path3764"
         inkscape:connector-curvature="0" />
    </g>
  </g>
</svg>
