<?xml version="1.0" encoding="UTF-8" standalone="no"?>
<!-- Created with Inkscape (http://www.inkscape.org/) -->

<svg
   xmlns:dc="http://purl.org/dc/elements/1.1/"
   xmlns:cc="http://creativecommons.org/ns#"
   xmlns:rdf="http://www.w3.org/1999/02/22-rdf-syntax-ns#"
   xmlns:svg="http://www.w3.org/2000/svg"
   xmlns="http://www.w3.org/2000/svg"
   xmlns:sodipodi="http://sodipodi.sourceforge.net/DTD/sodipodi-0.dtd"
   xmlns:inkscape="http://www.inkscape.org/namespaces/inkscape"
   width="64.125"
   height="39.90625"
   id="svg2531"
   sodipodi:version="0.32"
   inkscape:version="0.48.2 r9819"
   sodipodi:docname="missingcomponent.svg"
   inkscape:output_extension="org.inkscape.output.svg.inkscape"
   version="1.0">
  <defs
     id="defs2533" />
  <sodipodi:namedview
     id="base"
     pagecolor="#ffffff"
     bordercolor="#666666"
     borderopacity="1.0"
     gridtolerance="10000"
     guidetolerance="10"
     objecttolerance="10"
     inkscape:pageopacity="0.0"
     inkscape:pageshadow="2"
     inkscape:zoom="3.7774936"
     inkscape:cx="9.4329748"
     inkscape:cy="31.390793"
     inkscape:document-units="px"
     inkscape:current-layer="layer1"
     showgrid="false"
     inkscape:window-width="1440"
     inkscape:window-height="838"
     inkscape:window-x="-8"
     inkscape:window-y="-8"
     inkscape:window-maximized="1"
     showguides="false"
     inkscape:guide-bbox="true"
     fit-margin-top="0"
     fit-margin-left="0"
     fit-margin-right="0"
     fit-margin-bottom="0">
    <sodipodi:guide
       orientation="1,0"
       position="79.131177,84.782536"
       id="guide3946" />
  </sodipodi:namedview>
  <metadata
     id="metadata2536">
    <rdf:RDF>
      <cc:Work
         rdf:about="">
        <dc:format>image/svg+xml</dc:format>
        <dc:type
           rdf:resource="http://purl.org/dc/dcmitype/StillImage" />
        <dc:title />
      </cc:Work>
    </rdf:RDF>
  </metadata>
  <g
     inkscape:label="Layer 1"
     inkscape:groupmode="layer"
     id="layer1"
     transform="translate(-372.875,-479.59375)">
    <rect
       style="fill:#ffffff;fill-opacity:1;stroke:#000000;stroke-width:2;stroke-miterlimit:4;stroke-dasharray:none"
       id="rect2878"
       width="62.1353"
       height="37.899681"
       x="373.87756"
       y="480.74454"
       ry="0" />
    <g
       style="font-size:18px;font-style:normal;font-variant:normal;font-weight:normal;font-stretch:normal;text-align:center;line-height:82.99999833%;letter-spacing:0px;word-spacing:0px;text-anchor:middle;fill:#ff0000;fill-opacity:1;stroke:none;font-family:Arial;-inkscape-font-specification:Arial"
       id="text2996">
      <path
         d="m 375.68643,498.08414 0,-12.88477 2.56641,0 3.0498,9.12305 c 0.28125,0.84961 0.48632,1.48535 0.61524,1.90722 0.14647,-0.46874 0.37499,-1.15722 0.68554,-2.06542 l 3.08497,-8.96485 2.29394,0 0,12.88477 -1.64355,0 0,-10.78418 -3.74414,10.78418 -1.53809,0 -3.72656,-10.96875 0,10.96875 z"
         style="line-height:82.99999833%;fill:#ff0000"
         id="path3759" />
      <path
         d="m 390.55753,487.01871 0,-1.81934 1.58203,0 0,1.81934 z m 0,11.06543 0,-9.33399 1.58203,0 0,9.33399 z"
         style="line-height:82.99999833%;fill:#ff0000"
         id="path3761" />
      <path
         d="m 393.92374,495.298 1.56445,-0.24609 c 0.0879,0.62696 0.33252,1.10742 0.73389,1.44141 0.40136,0.33398 0.96239,0.50097 1.6831,0.50097 0.72656,0 1.26562,-0.14794 1.61719,-0.44384 0.35156,-0.2959 0.52734,-0.64307 0.52734,-1.04151 0,-0.35742 -0.15528,-0.63867 -0.46582,-0.84375 -0.2168,-0.14062 -0.75586,-0.31933 -1.61718,-0.53613 -1.16016,-0.29297 -1.96436,-0.54638 -2.4126,-0.76026 -0.44825,-0.21386 -0.78809,-0.50976 -1.01953,-0.88769 -0.23145,-0.37792 -0.34717,-0.7954 -0.34717,-1.25244 0,-0.41601 0.0952,-0.80126 0.28564,-1.15576 0.19043,-0.35449 0.44971,-0.64892 0.77784,-0.8833 0.24609,-0.18164 0.58154,-0.33544 1.00634,-0.46143 0.4248,-0.12597 0.88037,-0.18896 1.3667,-0.18896 0.73242,0 1.37548,0.10547 1.9292,0.3164 0.55371,0.21095 0.9624,0.49659 1.22608,0.85693 0.26366,0.36036 0.4453,0.8423 0.54492,1.44581 l -1.54688,0.21093 c -0.0703,-0.48046 -0.27393,-0.85546 -0.61084,-1.125 -0.33692,-0.26952 -0.81299,-0.40429 -1.42822,-0.40429 -0.72657,0 -1.24512,0.12012 -1.55566,0.36035 -0.31055,0.24024 -0.46583,0.52149 -0.46582,0.84375 -10e-6,0.20508 0.0645,0.38965 0.19335,0.55371 0.12891,0.16993 0.33106,0.31055 0.60645,0.42187 0.1582,0.0586 0.62402,0.19337 1.39746,0.4043 1.11914,0.29883 1.8999,0.54346 2.34229,0.73389 0.44237,0.19043 0.78954,0.46729 1.0415,0.83056 0.25194,0.36329 0.37792,0.81446 0.37793,1.35352 -10e-6,0.52735 -0.15382,1.02393 -0.46143,1.48975 -0.30762,0.46582 -0.75147,0.82617 -1.33154,1.08105 -0.58008,0.25488 -1.23633,0.38232 -1.96875,0.38232 -1.21289,0 -2.13721,-0.25195 -2.77295,-0.75585 -0.63574,-0.50391 -1.0415,-1.25098 -1.21728,-2.24122 z"
         style="line-height:82.99999833%;fill:#ff0000"
         id="path3763" />
      <path
         d="m 402.92374,495.298 1.56445,-0.24609 c 0.0879,0.62696 0.33252,1.10742 0.73389,1.44141 0.40136,0.33398 0.96239,0.50097 1.6831,0.50097 0.72656,0 1.26562,-0.14794 1.61719,-0.44384 0.35156,-0.2959 0.52734,-0.64307 0.52734,-1.04151 0,-0.35742 -0.15528,-0.63867 -0.46582,-0.84375 -0.2168,-0.14062 -0.75586,-0.31933 -1.61718,-0.53613 -1.16016,-0.29297 -1.96436,-0.54638 -2.4126,-0.76026 -0.44825,-0.21386 -0.78809,-0.50976 -1.01953,-0.88769 -0.23145,-0.37792 -0.34717,-0.7954 -0.34717,-1.25244 0,-0.41601 0.0952,-0.80126 0.28564,-1.15576 0.19043,-0.35449 0.44971,-0.64892 0.77784,-0.8833 0.24609,-0.18164 0.58154,-0.33544 1.00634,-0.46143 0.4248,-0.12597 0.88037,-0.18896 1.3667,-0.18896 0.73242,0 1.37548,0.10547 1.9292,0.3164 0.55371,0.21095 0.9624,0.49659 1.22608,0.85693 0.26366,0.36036 0.4453,0.8423 0.54492,1.44581 l -1.54688,0.21093 c -0.0703,-0.48046 -0.27393,-0.85546 -0.61084,-1.125 -0.33692,-0.26952 -0.81299,-0.40429 -1.42822,-0.40429 -0.72657,0 -1.24512,0.12012 -1.55566,0.36035 -0.31055,0.24024 -0.46583,0.52149 -0.46582,0.84375 -10e-6,0.20508 0.0645,0.38965 0.19335,0.55371 0.12891,0.16993 0.33106,0.31055 0.60645,0.42187 0.1582,0.0586 0.62402,0.19337 1.39746,0.4043 1.11914,0.29883 1.8999,0.54346 2.34229,0.73389 0.44237,0.19043 0.78954,0.46729 1.0415,0.83056 0.25194,0.36329 0.37792,0.81446 0.37793,1.35352 -10e-6,0.52735 -0.15382,1.02393 -0.46143,1.48975 -0.30762,0.46582 -0.75147,0.82617 -1.33154,1.08105 -0.58008,0.25488 -1.23633,0.38232 -1.96875,0.38232 -1.21289,0 -2.13721,-0.25195 -2.77295,-0.75585 -0.63574,-0.50391 -1.0415,-1.25098 -1.21728,-2.24122 z"
         style="line-height:82.99999833%;fill:#ff0000"
         id="path3765" />
      <path
         d="m 412.56534,487.01871 0,-1.81934 1.58203,0 0,1.81934 z m 0,11.06543 0,-9.33399 1.58203,0 0,9.33399 z"
         style="line-height:82.99999833%;fill:#ff0000"
         id="path3767" />
      <path
         d="m 416.56436,498.08414 0,-9.33399 1.42383,0 0,1.32715 c 0.68554,-1.02538 1.67578,-1.53808 2.9707,-1.53808 0.5625,0 1.07959,0.10108 1.55127,0.30322 0.47167,0.20216 0.8247,0.46729 1.05908,0.79541 0.23437,0.32813 0.39843,0.71778 0.49219,1.16894 0.0586,0.29298 0.0879,0.80567 0.0879,1.53809 l 0,5.73926 -1.58203,0 0,-5.67774 c -1e-5,-0.64452 -0.0615,-1.12646 -0.18457,-1.4458 -0.12305,-0.31933 -0.34131,-0.57421 -0.65478,-0.76465 -0.31349,-0.19042 -0.68116,-0.28563 -1.10303,-0.28564 -0.67383,1e-5 -1.25538,0.21387 -1.74463,0.6416 -0.48926,0.42774 -0.73389,1.23926 -0.73389,2.43457 l 0,5.09766 z"
         style="line-height:82.99999833%;fill:#ff0000"
         id="path3769" />
      <path
         d="m 426.29385,498.85757 1.53809,0.22852 c 0.0645,0.47461 0.24316,0.82031 0.53613,1.03711 0.39258,0.29297 0.92871,0.43945 1.6084,0.43945 0.73242,0 1.29785,-0.14648 1.69629,-0.43945 0.39843,-0.29297 0.66796,-0.70313 0.80859,-1.23047 0.082,-0.32227 0.12011,-0.99902 0.11426,-2.03027 -0.69141,0.81445 -1.55274,1.22168 -2.58398,1.22168 -1.28321,0 -2.27637,-0.46289 -2.97949,-1.38867 -0.70313,-0.92578 -1.05469,-2.03613 -1.05469,-3.33106 0,-0.89062 0.16113,-1.7124 0.4834,-2.46533 0.32226,-0.75292 0.78954,-1.33447 1.40185,-1.74463 0.6123,-0.41015 1.33154,-0.61523 2.15772,-0.61523 1.10155,0 2.00976,0.44532 2.72461,1.33593 l 0,-1.125 1.45898,0 0,8.06836 c -10e-6,1.45313 -0.14796,2.48291 -0.44385,3.08936 -0.2959,0.60644 -0.76465,1.08544 -1.40625,1.43701 -0.64161,0.35156 -1.43116,0.52734 -2.36865,0.52734 -1.11328,0 -2.0127,-0.25049 -2.69824,-0.75146 -0.68555,-0.50098 -1.0166,-1.25537 -0.99317,-2.26319 z m 1.30957,-5.60742 c 0,1.22462 0.24317,2.11817 0.7295,2.68067 0.48632,0.5625 1.0957,0.84375 1.82812,0.84375 0.72656,0 1.33593,-0.27979 1.82813,-0.83936 0.49218,-0.55957 0.73827,-1.43701 0.73828,-2.63232 -10e-6,-1.14258 -0.25343,-2.0039 -0.76026,-2.58399 -0.50684,-0.58007 -1.11768,-0.87011 -1.83252,-0.87011 -0.70312,0 -1.30078,0.28565 -1.79296,0.85693 -0.49219,0.57129 -0.73829,1.41944 -0.73829,2.54443 z"
         style="line-height:82.99999833%;fill:#ff0000"
         id="path3771" />
    </g>
    <g
       style="font-size:11px;font-style:normal;font-variant:normal;font-weight:normal;font-stretch:normal;line-height:125%;letter-spacing:0px;word-spacing:0px;fill:#ff0000;fill-opacity:1;stroke:none;font-family:Arial;-inkscape-font-specification:Arial"
       id="text2986">
      <path
         d="m 381.9838,508.67468 0.95068,0.12354 c -0.10385,0.65527 -0.36972,1.16821 -0.79761,1.53882 -0.4279,0.3706 -0.95337,0.5559 -1.57641,0.5559 -0.78061,0 -1.40813,-0.25512 -1.88257,-0.76538 -0.47445,-0.51025 -0.71167,-1.24161 -0.71167,-2.19409 0,-0.61588 0.10205,-1.15478 0.30615,-1.6167 0.2041,-0.46191 0.51473,-0.80834 0.93188,-1.0393 0.41716,-0.23096 0.87101,-0.34643 1.36158,-0.34644 0.61946,10e-6 1.12613,0.15666 1.52002,0.46997 0.39387,0.31332 0.64631,0.75822 0.75732,1.33472 l -0.93994,0.14502 c -0.0895,-0.38314 -0.24797,-0.67138 -0.47534,-0.86475 -0.22738,-0.19335 -0.5022,-0.29003 -0.82447,-0.29004 -0.48698,10e-6 -0.88265,0.17457 -1.18701,0.52368 -0.30436,0.34913 -0.45654,0.90146 -0.45654,1.65699 0,0.76627 0.14681,1.32308 0.44043,1.67041 0.29362,0.34733 0.67675,0.52099 1.14941,0.52099 0.37956,0 0.69645,-0.11637 0.95069,-0.34912 0.25422,-0.23274 0.41536,-0.59082 0.4834,-1.07422 z"
         style=""
         id="path3774" />
      <path
         d="m 383.40176,507.91199 c 0,-1.05631 0.29362,-1.8387 0.88086,-2.34717 0.49056,-0.42252 1.08854,-0.63378 1.79395,-0.63379 0.78417,10e-6 1.42512,0.25692 1.92285,0.77075 0.49772,0.51384 0.74658,1.22372 0.74658,2.12964 0,0.73405 -0.11011,1.31144 -0.33032,1.73218 -0.22022,0.42074 -0.5407,0.74748 -0.96143,0.98022 -0.42074,0.23275 -0.87996,0.34912 -1.37768,0.34912 -0.79851,0 -1.44393,-0.25602 -1.93628,-0.76806 -0.49235,-0.51205 -0.73853,-1.24967 -0.73853,-2.21289 z m 0.99366,0 c -10e-6,0.73047 0.15934,1.27742 0.47802,1.64087 0.31869,0.36344 0.71973,0.54516 1.20313,0.54516 0.47981,0 0.87906,-0.18261 1.19775,-0.54785 0.31868,-0.36523 0.47803,-0.92203 0.47803,-1.67041 0,-0.7054 -0.16024,-1.23982 -0.48071,-1.60327 -0.32048,-0.36344 -0.71884,-0.54516 -1.19507,-0.54517 -0.4834,1e-5 -0.88444,0.18083 -1.20313,0.54248 -0.31868,0.36166 -0.47803,0.90772 -0.47802,1.63819 z"
         style=""
         id="path3776" />
      <path
         d="m 389.88467,510.76404 0,-5.7041 0.86475,0 0,0.80029 c 0.17903,-0.27929 0.41715,-0.50398 0.71436,-0.67407 0.29719,-0.17008 0.63557,-0.25512 1.01513,-0.25513 0.42252,10e-6 0.76896,0.0877 1.03931,0.26318 0.27034,0.17546 0.46101,0.42074 0.57202,0.73584 0.45117,-0.66601 1.03841,-0.99901 1.76172,-0.99902 0.56575,10e-6 1.00081,0.15666 1.30518,0.46997 0.30435,0.31332 0.45653,0.79582 0.45654,1.44751 l 0,3.91553 -0.96143,0 0,-3.59326 c -10e-6,-0.38672 -0.0313,-0.66512 -0.094,-0.83521 -0.0627,-0.17008 -0.17636,-0.30704 -0.34107,-0.41089 -0.16472,-0.10383 -0.35808,-0.15575 -0.58007,-0.15576 -0.40105,1e-5 -0.73406,0.13339 -0.99903,0.40015 -0.26498,0.26677 -0.39746,0.69377 -0.39746,1.281 l 0,3.31397 -0.9668,0 0,-3.70606 c 0,-0.42968 -0.0788,-0.75195 -0.23632,-0.96679 -0.15756,-0.21484 -0.41537,-0.32226 -0.77344,-0.32227 -0.27214,1e-5 -0.52369,0.0716 -0.75464,0.21484 -0.23096,0.14324 -0.39836,0.35271 -0.5022,0.62842 -0.10384,0.27572 -0.15576,0.67318 -0.15576,1.19239 l 0,2.95947 z"
         style=""
         id="path3778" />
      <path
         d="m 399.0585,512.95007 0,-7.89013 0.88086,0 0,0.74121 c 0.20768,-0.29004 0.44222,-0.50757 0.70361,-0.65259 0.2614,-0.14501 0.57829,-0.21752 0.95069,-0.21753 0.48697,10e-6 0.91666,0.12533 1.28906,0.37598 0.37239,0.25065 0.65348,0.60425 0.84326,1.06079 0.18978,0.45654 0.28466,0.95695 0.28467,1.50122 -10e-6,0.58366 -0.10474,1.10913 -0.31421,1.57641 -0.20948,0.46729 -0.51384,0.82536 -0.91308,1.07422 -0.39926,0.24886 -0.8191,0.37329 -1.25953,0.37329 -0.32226,0 -0.61141,-0.068 -0.86743,-0.2041 -0.25602,-0.13606 -0.46639,-0.30794 -0.6311,-0.51562 l 0,2.77685 z m 0.87549,-5.00586 c 0,0.73406 0.1486,1.27654 0.4458,1.62745 0.2972,0.35091 0.65706,0.52636 1.07959,0.52636 0.42969,0 0.7976,-0.18172 1.10376,-0.54516 0.30615,-0.36345 0.45922,-0.92652 0.45923,-1.68921 -1e-5,-0.72689 -0.1495,-1.27116 -0.44849,-1.63282 -0.29899,-0.36164 -0.65617,-0.54247 -1.07153,-0.54248 -0.41179,10e-6 -0.77613,0.19247 -1.09302,0.5774 -0.31689,0.38493 -0.47534,0.94442 -0.47534,1.67846 z"
         style=""
         id="path3780" />
      <path
         d="m 404.82169,507.91199 c 0,-1.05631 0.29361,-1.8387 0.88086,-2.34717 0.49055,-0.42252 1.08853,-0.63378 1.79394,-0.63379 0.78418,10e-6 1.42513,0.25692 1.92285,0.77075 0.49772,0.51384 0.74658,1.22372 0.74658,2.12964 0,0.73405 -0.11011,1.31144 -0.33032,1.73218 -0.22022,0.42074 -0.54069,0.74748 -0.96142,0.98022 -0.42074,0.23275 -0.87997,0.34912 -1.37769,0.34912 -0.7985,0 -1.44393,-0.25602 -1.93628,-0.76806 -0.49235,-0.51205 -0.73852,-1.24967 -0.73852,-2.21289 z m 0.99365,0 c 0,0.73047 0.15934,1.27742 0.47803,1.64087 0.31868,0.36344 0.71972,0.54516 1.20312,0.54516 0.47981,0 0.87907,-0.18261 1.19775,-0.54785 0.31868,-0.36523 0.47803,-0.92203 0.47803,-1.67041 0,-0.7054 -0.16024,-1.23982 -0.48071,-1.60327 -0.32048,-0.36344 -0.71884,-0.54516 -1.19507,-0.54517 -0.4834,1e-5 -0.88444,0.18083 -1.20312,0.54248 -0.31869,0.36166 -0.47803,0.90772 -0.47803,1.63819 z"
         style=""
         id="path3782" />
      <path
         d="m 411.3046,510.76404 0,-5.7041 0.87011,0 0,0.81103 c 0.41895,-0.62662 1.02409,-0.93993 1.81543,-0.93994 0.34375,10e-6 0.65975,0.0618 0.948,0.1853 0.28824,0.12354 0.50398,0.28557 0.64722,0.48609 0.14322,0.20052 0.24348,0.43864 0.30078,0.71435 0.0358,0.17904 0.0537,0.49236 0.0537,0.93994 l 0,3.50733 -0.9668,0 0,-3.46973 c 0,-0.39387 -0.0376,-0.68839 -0.11279,-0.88354 -0.0752,-0.19515 -0.20858,-0.35091 -0.40015,-0.46729 -0.19157,-0.11637 -0.41626,-0.17455 -0.67407,-0.17456 -0.41179,1e-5 -0.76717,0.1307 -1.06616,0.39209 -0.29899,0.2614 -0.44849,0.75733 -0.44849,1.48779 l 0,3.11524 z"
         style=""
         id="path3784" />
      <path
         d="m 421.33243,508.92712 0.99902,0.12354 c -0.15756,0.58366 -0.44939,1.03662 -0.87549,1.35889 -0.42611,0.32226 -0.97038,0.48339 -1.63281,0.48339 -0.83431,0 -1.49585,-0.25691 -1.98462,-0.77075 -0.48877,-0.51383 -0.73315,-1.23445 -0.73315,-2.16186 0,-0.95963 0.24707,-1.70443 0.74121,-2.23438 0.49414,-0.52994 1.13509,-0.79491 1.92285,-0.79492 0.76269,10e-6 1.38574,0.25961 1.86914,0.77881 0.48339,0.51921 0.72509,1.24968 0.7251,2.19141 -10e-6,0.0573 -0.002,0.14323 -0.005,0.25781 l -4.25391,0 c 0.0358,0.62663 0.21305,1.10644 0.53174,1.43945 0.31868,0.33301 0.71614,0.49951 1.19238,0.49951 0.35449,0 0.65706,-0.0931 0.90772,-0.27929 0.25064,-0.1862 0.44937,-0.4834 0.59619,-0.89161 z m -3.17432,-1.56298 3.18506,0 c -0.043,-0.47982 -0.16472,-0.83968 -0.36523,-1.07959 -0.30795,-0.3724 -0.7072,-0.55859 -1.19776,-0.5586 -0.44401,10e-6 -0.8173,0.14861 -1.11987,0.4458 -0.30257,0.29721 -0.46997,0.69467 -0.5022,1.19239 z"
         style=""
         id="path3786" />
      <path
         d="m 423.55069,510.76404 0,-5.7041 0.87012,0 0,0.81103 c 0.41894,-0.62662 1.02408,-0.93993 1.81543,-0.93994 0.34374,10e-6 0.65974,0.0618 0.94799,0.1853 0.28825,0.12354 0.50399,0.28557 0.64722,0.48609 0.14323,0.20052 0.24349,0.43864 0.30078,0.71435 0.0358,0.17904 0.0537,0.49236 0.0537,0.93994 l 0,3.50733 -0.96679,0 0,-3.46973 c -1e-5,-0.39387 -0.0376,-0.68839 -0.1128,-0.88354 -0.0752,-0.19515 -0.20858,-0.35091 -0.40014,-0.46729 -0.19158,-0.11637 -0.41627,-0.17455 -0.67407,-0.17456 -0.41179,1e-5 -0.76718,0.1307 -1.06617,0.39209 -0.29899,0.2614 -0.44849,0.75733 -0.44848,1.48779 l 0,3.11524 z"
         style=""
         id="path3788" />
      <path
         d="m 431.78458,509.89929 0.13964,0.85401 c -0.27213,0.0573 -0.51562,0.0859 -0.73046,0.0859 -0.35092,0 -0.62305,-0.0555 -0.81641,-0.1665 -0.19336,-0.111 -0.32943,-0.25692 -0.4082,-0.43774 -0.0788,-0.18083 -0.11817,-0.56128 -0.11817,-1.14136 l 0,-3.28174 -0.70898,0 0,-0.75195 0.70898,0 0,-1.4126 0.96143,-0.58008 0,1.99268 0.97217,0 0,0.75195 -0.97217,0 0,3.33545 c 0,0.27572 0.017,0.45296 0.051,0.53174 0.034,0.0788 0.0895,0.14144 0.16651,0.18799 0.077,0.0465 0.18709,0.0698 0.33032,0.0698 0.10742,0 0.24886,-0.0125 0.42432,-0.0376 z"
         style=""
         id="path3790" />
    </g>
  </g>
</svg>
