<?xml version="1.0" encoding="UTF-8" standalone="no"?>
<!-- Created with Inkscape (http://www.inkscape.org/) -->

<svg
   xmlns:dc="http://purl.org/dc/elements/1.1/"
   xmlns:cc="http://creativecommons.org/ns#"
   xmlns:rdf="http://www.w3.org/1999/02/22-rdf-syntax-ns#"
   xmlns:svg="http://www.w3.org/2000/svg"
   xmlns="http://www.w3.org/2000/svg"
   xmlns:sodipodi="http://sodipodi.sourceforge.net/DTD/sodipodi-0.dtd"
   xmlns:inkscape="http://www.inkscape.org/namespaces/inkscape"
   width="25.000002"
   height="25"
   id="svg3336"
   sodipodi:version="0.32"
   inkscape:version="0.48.0 r9654"
   sodipodi:docname="Source.svg"
   inkscape:output_extension="org.inkscape.output.svg.inkscape"
   version="1.0">
  <defs
     id="defs3338">
    <marker
       inkscape:stockid="Arrow2Mend"
       orient="auto"
       refY="0"
       refX="0"
       id="Arrow2Mend"
       style="overflow:visible">
      <path
         id="path3629"
         style="font-size:12px;fill-rule:evenodd;stroke-width:0.625;stroke-linejoin:round"
         d="M 8.7185878,4.0337352 L -2.2072895,0.01601326 L 8.7185884,-4.0017078 C 6.97309,-1.6296469 6.9831476,1.6157441 8.7185878,4.0337352 L 8.7185878,4.0337352 z"
         transform="scale(-0.6,-0.6)" />
    </marker>
    <marker
       inkscape:stockid="DotM"
       orient="auto"
       refY="0"
       refX="0"
       id="DotM"
       style="overflow:visible">
      <path
         id="path3667"
         d="M -2.5,-1 C -2.5,1.76 -4.74,4 -7.5,4 C -10.26,4 -12.5,1.76 -12.5,-1 C -12.5,-3.76 -10.26,-6 -7.5,-6 C -4.74,-6 -2.5,-3.76 -2.5,-1 z"
         style="fill-rule:evenodd;stroke:#000000;stroke-width:1pt;marker-start:none;marker-end:none"
         transform="matrix(0.4,0,0,0.4,2.96,0.4)" />
    </marker>
    <marker
       inkscape:stockid="DotL"
       orient="auto"
       refY="0"
       refX="0"
       id="DotL"
       style="overflow:visible">
      <path
         id="path3664"
         d="M -2.5,-1 C -2.5,1.76 -4.74,4 -7.5,4 C -10.26,4 -12.5,1.76 -12.5,-1 C -12.5,-3.76 -10.26,-6 -7.5,-6 C -4.74,-6 -2.5,-3.76 -2.5,-1 z"
         style="fill-rule:evenodd;stroke:#000000;stroke-width:1pt;marker-start:none;marker-end:none"
         transform="matrix(0.8,0,0,0.8,5.92,0.8)" />
    </marker>
    <marker
       style="overflow:visible"
       id="TriangleOutL"
       refX="0"
       refY="0"
       orient="auto"
       inkscape:stockid="TriangleOutL">
      <path
         transform="scale(0.8,0.8)"
         style="fill-rule:evenodd;stroke:#000000;stroke-width:1pt;marker-start:none"
         d="M 5.77,0 L -2.88,5 L -2.88,-5 L 5.77,0 z"
         id="path8118" />
    </marker>
    <inkscape:perspective
       sodipodi:type="inkscape:persp3d"
       inkscape:vp_x="0 : 526.18109 : 1"
       inkscape:vp_y="0 : 1000 : 0"
       inkscape:vp_z="744.09448 : 526.18109 : 1"
       inkscape:persp3d-origin="372.04724 : 350.78739 : 1"
       id="perspective3344" />
  </defs>
  <sodipodi:namedview
     id="base"
     pagecolor="#ffffff"
     bordercolor="#666666"
     borderopacity="1.0"
     gridtolerance="10000"
     guidetolerance="10"
     objecttolerance="10"
     inkscape:pageopacity="0.0"
     inkscape:pageshadow="2"
     inkscape:zoom="4.2820312"
     inkscape:cx="21.717645"
     inkscape:cy="-27.65674"
     inkscape:document-units="px"
     inkscape:current-layer="layer1"
     showgrid="false"
     inkscape:window-width="1680"
     inkscape:window-height="982"
     inkscape:window-x="-8"
     inkscape:window-y="38"
     showguides="true"
     inkscape:snap-global="true"
     inkscape:snap-intersection-line-segments="true"
     inkscape:snap-center="true"
     inkscape:window-maximized="1">
    <inkscape:grid
       type="xygrid"
       id="grid2405"
       visible="true"
       enabled="true"
       empspacing="5"
       snapvisiblegridlinesonly="true" />
  </sodipodi:namedview>
  <metadata
     id="metadata3341">
    <rdf:RDF>
      <cc:Work
         rdf:about="">
        <dc:format>image/svg+xml</dc:format>
        <dc:type
           rdf:resource="http://purl.org/dc/dcmitype/StillImage" />
      </cc:Work>
    </rdf:RDF>
  </metadata>
  <g
     inkscape:label="Layer 1"
     inkscape:groupmode="layer"
     id="layer1"
     transform="translate(-211.57785,-381.15201)">
    <rect
       style="fill:#ffffff;stroke:#000000;stroke-width:2;stroke-linecap:square;stroke-linejoin:miter;stroke-miterlimit:4;stroke-dasharray:none;stroke-dashoffset:0;stroke-opacity:1;fill-opacity:1"
       id="rect3623"
       width="23.000002"
       height="23"
       x="212.57785"
       y="382.15201" />
    <g
       style="font-size:18px;font-style:normal;font-variant:normal;font-weight:normal;font-stretch:normal;line-height:125%;letter-spacing:0px;word-spacing:0px;fill:#000000;fill-opacity:1;stroke:none;font-family:Calibri;-inkscape-font-specification:Calibri"
       id="text2995">
      <path
         d="m 228.28342,397.61588 c -1e-5,0.14648 -0.004,0.27099 -0.0132,0.37353 -0.009,0.10254 -0.022,0.19043 -0.0395,0.26367 -0.0176,0.0732 -0.041,0.13623 -0.0703,0.18897 -0.0293,0.0527 -0.0762,0.11279 -0.14063,0.18017 -0.0645,0.0674 -0.18897,0.15381 -0.37353,0.25928 -0.18458,0.10547 -0.41016,0.20654 -0.67676,0.30322 -0.26661,0.0967 -0.57129,0.17725 -0.91406,0.2417 -0.34278,0.0645 -0.71339,0.0967 -1.11182,0.0967 -0.7793,0 -1.48242,-0.12012 -2.10937,-0.36035 -0.62696,-0.24023 -1.16016,-0.59912 -1.59961,-1.07666 -0.43946,-0.47754 -0.77637,-1.07373 -1.01074,-1.78857 -0.23438,-0.71484 -0.35157,-1.54687 -0.35157,-2.4961 0,-0.96679 0.12891,-1.82519 0.38672,-2.57519 0.25781,-0.74999 0.61817,-1.37988 1.08106,-1.88965 0.46289,-0.50976 1.01806,-0.89648 1.66552,-1.16016 0.64746,-0.26366 1.36084,-0.39549 2.14014,-0.39551 0.3164,2e-5 0.62109,0.0264 0.91406,0.0791 0.29297,0.0527 0.56396,0.12159 0.81299,0.20654 0.24902,0.085 0.47314,0.18312 0.67237,0.29443 0.19921,0.11134 0.33837,0.20656 0.41748,0.28565 0.0791,0.0791 0.13329,0.14503 0.16259,0.19775 0.0293,0.0528 0.0527,0.12013 0.0703,0.20215 0.0176,0.082 0.0308,0.17872 0.0396,0.29004 0.009,0.11134 0.0132,0.24903 0.0132,0.41308 -10e-6,0.17579 -0.006,0.32521 -0.0176,0.44825 -0.0117,0.12305 -0.0322,0.22266 -0.0615,0.29882 -0.0293,0.0762 -0.0645,0.13185 -0.10547,0.167 -0.041,0.0352 -0.0879,0.0527 -0.14062,0.0527 -0.0879,1e-5 -0.19923,-0.0513 -0.33399,-0.15381 -0.13477,-0.10253 -0.30909,-0.21679 -0.52295,-0.34277 -0.21387,-0.12597 -0.46876,-0.24023 -0.76465,-0.34277 -0.2959,-0.10253 -0.64893,-0.1538 -1.05908,-0.15381 -0.45118,1e-5 -0.85401,0.0923 -1.20849,0.27685 -0.3545,0.18458 -0.65626,0.44825 -0.90528,0.79102 -0.24903,0.34278 -0.43799,0.75733 -0.56689,1.24365 -0.12891,0.48634 -0.19337,1.03419 -0.19336,1.64356 -1e-5,0.66797 0.0688,1.24658 0.20654,1.73584 0.13769,0.48926 0.33398,0.89209 0.58887,1.20849 0.25488,0.31641 0.56249,0.55225 0.92285,0.70752 0.36035,0.15528 0.76611,0.23291 1.21728,0.23291 0.41015,0 0.76465,-0.0483 1.06348,-0.14502 0.29882,-0.0967 0.55517,-0.20361 0.76904,-0.3208 0.21386,-0.11718 0.38964,-0.22265 0.52735,-0.31641 0.13768,-0.0937 0.24462,-0.14062 0.3208,-0.14062 0.0586,0 0.10546,0.0117 0.14062,0.0352 0.0351,0.0234 0.0644,0.0703 0.0879,0.14062 0.0234,0.0703 0.041,0.16846 0.0527,0.29443 0.0117,0.12598 0.0176,0.29444 0.0176,0.50538 z"
         style="font-weight:bold;-inkscape-font-specification:Calibri Bold"
         id="path3000" />
    </g>
  </g>
</svg>
