<?xml version="1.0" encoding="UTF-8" standalone="no"?>
<!-- Created with Inkscape (http://www.inkscape.org/) -->

<svg
   xmlns:dc="http://purl.org/dc/elements/1.1/"
   xmlns:cc="http://creativecommons.org/ns#"
   xmlns:rdf="http://www.w3.org/1999/02/22-rdf-syntax-ns#"
   xmlns:svg="http://www.w3.org/2000/svg"
   xmlns="http://www.w3.org/2000/svg"
   xmlns:sodipodi="http://sodipodi.sourceforge.net/DTD/sodipodi-0.dtd"
   xmlns:inkscape="http://www.inkscape.org/namespaces/inkscape"
   version="1.1"
   id="svg8123"
   width="526"
   height="94"
   viewBox="0 0 526 94.000002"
   sodipodi:docname="liu-flumes.svg"
   inkscape:version="0.92.4 (5da689c313, 2019-01-14)">
  <metadata
     id="metadata8129">
    <rdf:RDF>
      <cc:Work
         rdf:about="">
        <dc:format>image/svg+xml</dc:format>
        <dc:type
           rdf:resource="http://purl.org/dc/dcmitype/StillImage" />
        <dc:title></dc:title>
      </cc:Work>
    </rdf:RDF>
  </metadata>
  <defs
     id="defs8127" />
  <sodipodi:namedview
     pagecolor="#ffffff"
     bordercolor="#666666"
     borderopacity="1"
     objecttolerance="10"
     gridtolerance="10"
     guidetolerance="10"
     inkscape:pageopacity="0"
     inkscape:pageshadow="2"
     inkscape:window-width="1280"
     inkscape:window-height="657"
     id="namedview8125"
     showgrid="false"
     inkscape:snap-bbox="true"
     inkscape:snap-bbox-edge-midpoints="true"
     inkscape:snap-page="true"
     inkscape:zoom="0.86201359"
     inkscape:cx="269.69192"
     inkscape:cy="56.148902"
     inkscape:window-x="-8"
     inkscape:window-y="-8"
     inkscape:window-maximized="1"
     inkscape:current-layer="svg8123"
     fit-margin-top="0"
     fit-margin-left="0"
     fit-margin-right="0"
     fit-margin-bottom="0" />
  <g
     id="g9892">
    <g
       id="g9775"
       transform="matrix(0.0838424,0,0,-0.0838424,-0.19753244,94.198201)"
       style="stroke-width:1.5902853">
      <path
         inkscape:connector-curvature="0"
         id="path8187"
         style="fill:#231f20;fill-opacity:1;fill-rule:nonzero;stroke:none;stroke-width:1.5902853"
         d="M 482.477,216.762 H 696.871 V 694.648 H 482.477 V 216.762" />
      <path
         inkscape:connector-curvature="0"
         id="path8189"
         style="fill:#231f20;fill-opacity:1;fill-rule:nonzero;stroke:none;stroke-width:1.5902853"
         d="m 216.754,216.762 h 214.398 v 692.16 H 216.754 v -692.16" />
      <path
         inkscape:connector-curvature="0"
         id="path8191"
         style="fill:#231f20;fill-opacity:1;fill-rule:nonzero;stroke:none;stroke-width:1.5902853"
         d="m 951.105,312.719 c 0,63.004 -50.96,114.566 -114.328,114.566 -62.269,0 -113.238,-51.562 -113.238,-114.566 0,-63.008 50.969,-113.43 113.238,-113.43 63.368,0 114.328,50.422 114.328,113.43" />
      <path
         inkscape:connector-curvature="0"
         id="path8193"
         style="fill:#231f20;fill-opacity:1;fill-rule:nonzero;stroke:none;stroke-width:1.5902853"
         d="M 1226.12,694.648 V 417.305 c 0,-24.578 -10.13,-36.883 -30.38,-36.883 -20.54,0 -30.81,12.305 -30.81,36.883 V 694.648 H 951.137 V 470.684 c 0,-78.883 18.531,-140.547 55.593,-184.93 47.69,-56.887 110.63,-82.695 188.79,-82.695 78.17,0 141.1,25.808 188.8,82.695 37.06,44.383 55.58,106.047 55.58,184.93 v 223.964 h -213.78" />
      <path
         inkscape:connector-curvature="0"
         id="path8195"
         style="fill:#231f20;fill-opacity:1;fill-rule:nonzero;stroke:none;stroke-width:1.5902853"
         d="m 1891.22,489.609 h -17.02 l -0.25,0.45 -100.03,168.136 V 489.609 h -18.86 v 205.055 h 16.73 l 0.27,-0.449 100.3,-168.688 v 169.137 h 18.86 V 489.609" />
      <path
         inkscape:connector-curvature="0"
         id="path8197"
         style="fill:#231f20;fill-opacity:1;fill-rule:nonzero;stroke:none;stroke-width:1.5902853"
         d="m 2611.21,489.609 h -17.02 l -0.26,0.45 -100.02,168.136 V 489.609 h -18.87 v 205.055 h 16.72 l 0.28,-0.449 100.29,-168.688 v 169.137 h 18.88 V 489.609" />
      <path
         inkscape:connector-curvature="0"
         id="path8199"
         style="fill:#231f20;fill-opacity:1;fill-rule:nonzero;stroke:none;stroke-width:1.5902853"
         d="m 1672.38,489.609 h -108.21 v 205.055 h 18.84 V 507.891 h 89.37 v -18.282" />
      <path
         inkscape:connector-curvature="0"
         id="path8201"
         style="fill:#231f20;fill-opacity:1;fill-rule:nonzero;stroke:none;stroke-width:1.5902853"
         d="m 1713.44,489.609 h -18.85 v 205.055 h 18.85 V 489.609" />
      <path
         inkscape:connector-curvature="0"
         id="path8203"
         style="fill:#231f20;fill-opacity:1;fill-rule:nonzero;stroke:none;stroke-width:1.5902853"
         d="m 2118.31,706.715 c -6.22,0 -11.48,5.258 -11.48,11.476 0,6.219 5.26,11.485 11.48,11.485 6.22,0 11.48,-5.266 11.48,-11.485 0,-6.218 -5.26,-11.476 -11.48,-11.476 z m 52.52,0 c -6.22,0 -11.47,5.258 -11.47,11.476 0,6.219 5.25,11.485 11.47,11.485 6.23,0 11.48,-5.266 11.48,-11.485 0,-6.218 -5.25,-11.476 -11.48,-11.476 z m -26.25,-27.149 c -29.97,0 -50.1,-21.179 -50.1,-52.683 v -68.602 c 0,-31.531 20.13,-52.691 50.1,-52.691 29.96,0 50.08,21.16 50.08,52.691 v 68.309 c 0,31.68 -20.12,52.976 -50.08,52.976 z m 0,-192.25 c -40.61,0 -68.97,29.422 -68.97,71.524 v 67.172 c 0,42.293 28.36,71.816 68.97,71.816 40.58,0 68.94,-29.523 68.94,-71.816 V 558.84 c 0,-42.102 -28.36,-71.524 -68.94,-71.524" />
      <path
         inkscape:connector-curvature="0"
         id="path8205"
         style="fill:#231f20;fill-opacity:1;fill-rule:nonzero;stroke:none;stroke-width:1.5902853"
         d="m 2269.71,566.691 h 39.44 c 32.26,0 51.54,18.938 51.54,50.668 v 7.211 c 0,32.75 -18.79,51.539 -51.54,51.539 h -39.44 z m 0,-77.082 h -18.85 v 205.055 h 58.87 c 42.4,0 69.81,-27.508 69.81,-70.094 v -7.488 c 0,-42.363 -26.75,-68.66 -69.81,-68.66 h -40.02 v -58.813" />
      <path
         inkscape:connector-curvature="0"
         id="path8207"
         style="fill:#231f20;fill-opacity:1;fill-rule:nonzero;stroke:none;stroke-width:1.5902853"
         d="m 2431.24,489.609 h -18.86 v 205.055 h 18.86 V 489.609" />
      <path
         inkscape:connector-curvature="0"
         id="path8209"
         style="fill:#231f20;fill-opacity:1;fill-rule:nonzero;stroke:none;stroke-width:1.5902853"
         d="m 2717.06,486.738 c -40.42,0 -68.66,29.414 -68.66,71.543 v 68.309 c 0,42.113 28.24,71.539 68.66,71.539 39.71,0 68.06,-28.703 68.94,-69.797 l 0.02,-0.934 h -18.85 l -0.02,0.907 c -0.54,30.828 -20.67,51.55 -50.09,51.55 -31.2,0 -49.81,-21.527 -49.81,-57.593 V 557.98 c 0,-31.523 20.02,-52.683 49.81,-52.683 29.97,0 50.09,21.16 50.09,52.683 v 10.625 h -50.72 v 17.098 H 2786 v -27.422 c 0,-42.129 -28.35,-71.543 -68.94,-71.543" />
      <path
         inkscape:connector-curvature="0"
         id="path8211"
         style="fill:#231f20;fill-opacity:1;fill-rule:nonzero;stroke:none;stroke-width:1.5902853"
         d="m 2071.89,489.609 h -22.43 l -0.28,0.356 -71.28,95.055 h -21.04 v -95.411 h -18.85 v 205.055 h 18.85 v -91.941 h 21.31 l 60.86,91.941 h 21.56 l -66.66,-100.945 77.96,-104.11" />
      <path
         inkscape:connector-curvature="0"
         id="path8213"
         style="fill:#231f20;fill-opacity:1;fill-rule:nonzero;stroke:none;stroke-width:1.5902853"
         d="m 1880.57,216.762 h -17.01 l -0.26,0.449 -100.02,168.125 V 216.762 h -18.86 v 205.047 h 16.72 l 0.26,-0.442 100.3,-168.711 v 169.153 h 18.87 V 216.762" />
      <path
         inkscape:connector-curvature="0"
         id="path8215"
         style="fill:#231f20;fill-opacity:1;fill-rule:nonzero;stroke:none;stroke-width:1.5902853"
         d="m 2050.45,216.762 h -18.04 l -0.22,0.625 -66.95,204.422 h 19.82 l 0.21,-0.618 56.16,-174.644 56.68,175.262 h 19.82 l -0.43,-1.204 -67.05,-203.843" />
      <path
         inkscape:connector-curvature="0"
         id="path8217"
         style="fill:#231f20;fill-opacity:1;fill-rule:nonzero;stroke:none;stroke-width:1.5902853"
         d="m 1630.23,214.465 c -40.58,0 -68.94,29.414 -68.94,71.531 v 135.813 h 18.85 V 285.422 c 0,-31.516 20.14,-52.688 50.09,-52.688 29.97,0 50.11,21.172 50.11,52.688 v 136.387 h 18.84 V 285.996 c 0,-42.117 -28.35,-71.531 -68.95,-71.531" />
      <path
         inkscape:connector-curvature="0"
         id="path8219"
         style="fill:#231f20;fill-opacity:1;fill-rule:nonzero;stroke:none;stroke-width:1.5902853"
         d="m 1943.61,216.762 h -18.85 v 205.047 h 18.85 V 216.762" />
      <path
         inkscape:connector-curvature="0"
         id="path8221"
         style="fill:#231f20;fill-opacity:1;fill-rule:nonzero;stroke:none;stroke-width:1.5902853"
         d="m 2299.66,299.641 h 39.43 c 32.27,0 51.54,17.636 51.54,47.214 v 8.071 c 0,31.187 -18.3,48.355 -51.54,48.355 h -39.43 z m 110.21,-82.84 h -22.81 l -0.28,0.347 -49,64.219 h -38.12 v -64.566 h -18.85 v 205.047 h 59.72 c 42.53,0 68.95,-25.871 68.95,-67.508 v -7.485 c 0,-33.726 -19.5,-56.929 -52.27,-62.351 l 52.66,-67.703" />
      <path
         inkscape:connector-curvature="0"
         id="path8223"
         style="fill:#231f20;fill-opacity:1;fill-rule:nonzero;stroke:none;stroke-width:1.5902853"
         d="m 2620.96,216.801 h -18.85 v 205.047 h 18.85 V 216.801" />
      <path
         inkscape:connector-curvature="0"
         id="path8225"
         style="fill:#231f20;fill-opacity:1;fill-rule:nonzero;stroke:none;stroke-width:1.5902853"
         d="m 2253.17,216.762 h -114.54 v 205.047 h 111.93 v -18.547 h -93.08 v -74.254 h 68.6 v -17.129 h -68.6 v -76.82 h 95.69 v -18.297" />
      <path
         inkscape:connector-curvature="0"
         id="path8227"
         style="fill:#231f20;fill-opacity:1;fill-rule:nonzero;stroke:none;stroke-width:1.5902853"
         d="m 2503.89,327.504 c -26.91,6.734 -52.33,13.113 -52.33,41.824 0,23.613 16.12,37.703 45.32,37.703 22.27,0 45.98,-12.754 47.1,-48.101 h 18.91 c -1.14,48.867 -34.32,66.367 -65.43,66.367 -40.58,0 -64.47,-21.449 -64.47,-55.969 0,-42.433 33.88,-51.008 63.77,-58.566 26.05,-6.563 50.66,-12.782 50.66,-39.727 0,-29.273 -25.42,-39.707 -49.23,-39.707 -31.19,0 -49.81,20.332 -49.81,54.414 v 0.918 h -18.57 v -0.918 c 0,-43.98 26.86,-72.398 68.38,-72.398 41.36,0 68.08,22.761 68.08,57.984 0,40.527 -31.71,48.477 -62.38,56.176" />
      <path
         inkscape:connector-curvature="0"
         id="path8229"
         style="fill:#231f20;fill-opacity:1;fill-rule:nonzero;stroke:none;stroke-width:1.5902853"
         d="m 2711.92,216.801 h -18.85 v 186.48 h -54.78 v 18.567 h 126.39 v -18.567 h -52.76 v -186.48" />
      <path
         inkscape:connector-curvature="0"
         id="path8231"
         style="fill:#231f20;fill-opacity:1;fill-rule:nonzero;stroke:none;stroke-width:1.5902853"
         d="m 2792.14,421.848 51.64,-110.926 51.79,110.926 h 19.76 L 2852.5,293.352 v -76.551 h -17.15 v 76.551 l -62.55,128.496 h 19.34" />
    </g>
    <g
       style="stroke-width:1.13649368"
       transform="matrix(0.87989933,0,0,0.87989933,66.861398,-2.9394186)"
       id="g9785">
      <g
         transform="matrix(0.371195,0,0,0.371195,124.98391,-8.1074171)"
         style="display:inline;fill:#001f20;fill-opacity:1;stroke-width:3.06171608"
         id="g3977">
        <path
           id="path3068"
           style="fill:#001f20;fill-opacity:1;fill-rule:nonzero;stroke:none;stroke-width:3.06171608"
           d="m 565.07627,136.48317 v 37.45125 h 18.24375 c 4.1875,0 7.26625,-0.88625 9.20875,-2.63625 1.94375,-1.75 3.23,-5.2275 3.88625,-10.43 h 2.725 v 32.225 h -2.725 c -0.05,-3.69375 -0.555,-6.40375 -1.51375,-8.12875 -0.95875,-1.75125 -2.29625,-3.045 -4.0125,-3.90875 -1.69,-0.86375 -4.21375,-1.295 -7.56875,-1.295 h -18.24375 v 29.9225 c 0,4.81875 0.30375,8.00875 0.96,9.54375 0.47875,1.17375 1.51375,2.18125 3.1025,3.02125 2.17,1.12625 4.41625,1.70125 6.78875,1.70125 h 3.6325 v 2.59 h -43.02 v -2.59 h 3.5325 c 4.13875,0 7.16625,-1.15 9.0325,-3.4525 1.18625,-1.48625 1.76625,-5.1075 1.76625,-10.81375 v -61.54625 c 0,-4.82 -0.3275,-8.00875 -0.95875,-9.54375 -0.50375,-1.175 -1.51375,-2.18125 -3.0275,-3.02125 -2.11875,-1.12625 -4.39,-1.6775 -6.8125,-1.6775 h -3.5325 v -2.61375 h 74.585 l 0.95875,20.93125 h -2.59875 c -1.26125,-4.435 -2.775,-7.69625 -4.46625,-9.7825 -1.69,-2.085 -3.785,-3.59625 -6.2825,-4.53125 -2.4975,-0.935 -6.3325,-1.415 -11.55625,-1.415 z m 81.2225,-9.83 v 85.35625 c 0,4.0275 0.3275,6.69 0.93375,8.00875 0.605,1.295 1.565,2.3 2.85125,2.9725 1.28625,0.67125 3.65875,1.03125 7.165,1.03125 v 2.5175 h -33.18 v -2.5175 c 3.10375,0 5.22375,-0.31125 6.33375,-0.935 1.135,-0.6 2.04375,-1.6075 2.67375,-3.02125 0.63125,-1.39125 0.96,-4.075 0.96,-8.05625 v -58.455 c 0,-7.26375 -0.1775,-11.725 -0.505,-13.3775 -0.35375,-1.655 -0.9075,-2.80625 -1.665,-3.405 -0.7825,-0.62375 -1.74125,-0.9125 -2.9275,-0.9125 -1.28625,0 -2.90125,0.36 -4.87,1.1275 l -1.26125,-2.46875 20.185,-7.865 z m 78.1425,35.5325 v 38.98625 c 0,7.45625 0.17625,12.0125 0.555,13.6675 0.37875,1.6775 0.95875,2.82875 1.76625,3.47625 0.8325,0.67125 1.76625,0.9825 2.85125,0.9825 1.53875,0 3.255,-0.38375 5.1725,-1.19875 l 1.03375,2.47 -20.26,7.93625 h -3.30625 v -13.61875 c -5.8275,5.99375 -10.26875,9.75875 -13.32125,11.2925 -3.05375,1.55875 -6.28375,2.32625 -9.665,2.32625 -3.80875,0 -7.09,-1.03125 -9.89125,-3.1175 -2.775,-2.085 -4.7175,-4.77125 -5.8025,-8.05625 -1.085,-3.285 -1.615,-7.9125 -1.615,-13.90625 v -28.72375 c 0,-3.045 -0.3525,-5.15375 -1.03375,-6.33 -0.6825,-1.17375 -1.71625,-2.06125 -3.07875,-2.70875 -1.3375,-0.62375 -3.81,-0.91125 -7.3425,-0.86375 v -2.61375 h 23.7175 v 43.0625 c 0,5.99375 1.11125,9.92625 3.305,11.7975 2.19625,1.8925 4.845,2.8275 7.94875,2.8275 2.12,0 4.51625,-0.64625 7.19125,-1.8925 2.7,-1.27125 5.87875,-3.6925 9.5875,-7.2425 v -36.4675 c 0,-3.645 -0.70625,-6.11375 -2.11875,-7.40875 -1.41375,-1.27125 -4.315,-1.96625 -8.75625,-2.0625 v -2.61375 z m 73.55,64.35375 -38.73,-80.15375 v 63.6575 c 0,5.85125 0.65625,9.495 1.99375,10.9575 1.81625,1.96625 4.7175,2.94875 8.65375,2.94875 h 3.5325 v 2.59 h -34.87 v -2.59 h 3.5325 c 4.23875,0 7.24125,-1.2225 9.0325,-3.6675 1.085,-1.4875 1.615,-4.915 1.615,-10.23875 v -62.2425 c 0,-4.22 -0.48,-7.265 -1.4625,-9.135 -0.7075,-1.36625 -1.96875,-2.49375 -3.81125,-3.405 -1.86625,-0.91125 -4.81875,-1.36625 -8.90625,-1.36625 v -2.61375 h 28.38625 l 36.35875,74.5425 35.7775,-74.5425 h 28.38625 v 2.61375 h -3.48125 c -4.28875,0 -7.3175,1.2225 -9.0825,3.645 -1.0875,1.51 -1.64125,4.91375 -1.64125,10.26125 v 62.2425 c 0,5.85125 0.70625,9.495 2.09375,10.9575 1.8175,1.96625 4.69375,2.94875 8.63,2.94875 h 3.48125 v 2.59 h -42.59125 v -2.59 h 3.55875 c 4.2875,0 7.29125,-1.2225 9.03125,-3.6675 1.08625,-1.4875 1.615,-4.915 1.615,-10.23875 v -63.6575 l -38.65375,80.15375 z m 88.7925,-40.11375 c -0.05,9.5675 2.37125,17.04875 7.31625,22.49125 4.92125,5.41875 10.72375,8.12875 17.36,8.12875 4.44125,0 8.30125,-1.15125 11.58125,-3.47875 3.28,-2.3 6.005,-6.28125 8.22625,-11.89125 l 2.295,1.39125 c -1.03375,6.425 -4.0375,12.275 -9.00875,17.52625 -4.99375,5.275 -11.2275,7.9125 -18.69625,7.9125 -8.14875,0 -15.1125,-2.9975 -20.89,-9.015 -5.805,-6.01875 -8.68125,-14.1225 -8.68125,-24.28875 0,-11.00625 2.95375,-19.5875 8.9075,-25.72625 5.92875,-6.1625 13.37125,-9.255 22.355,-9.255 7.595,0 13.8275,2.37375 18.6975,7.14375 4.87,4.74875 7.31625,11.10125 7.31625,19.06125 z m 0,-4.075 h 31.3375 c -0.2525,-4.12375 -0.7575,-7.025 -1.565,-8.70375 -1.21125,-2.6125 -3.0525,-4.675 -5.5,-6.185 -2.4475,-1.48625 -4.99625,-2.255 -7.64625,-2.255 -4.0875,0 -7.745,1.51125 -10.975,4.53125 -3.23,3.02125 -5.12125,7.24125 -5.65125,12.6125 z m 120.48003,-53.2275 v 32.94375 h -2.7238 c -0.9087,-6.33 -2.4975,-11.365 -4.76873,-15.10625 -2.2975,-3.7625 -5.5775,-6.73625 -9.815,-8.91875 -4.24,-2.20625 -8.605,-3.30875 -13.14625,-3.30875 -5.12125,0 -9.36125,1.48625 -12.7175,4.46 -3.355,2.9725 -5.02,6.35375 -5.02,10.1425 0,2.9 1.05875,5.5625 3.17875,7.935 3.0525,3.525 10.32,8.2 21.8,14.05125 9.36125,4.77125 15.77,8.43875 19.17623,11.005 3.4313,2.54125 6.0813,5.56125 7.9225,9.015 1.8413,3.47625 2.7763,7.09625 2.7763,10.885 0,7.2175 -2.9525,13.42625 -8.8313,18.65375 -5.90373,5.2275 -13.47373,7.84 -22.73373,7.84 -2.92625,0 -5.6525,-0.215 -8.22625,-0.64625 -1.51375,-0.21625 -4.6925,-1.07875 -9.48625,-2.54125 -4.79375,-1.4875 -7.8475,-2.23 -9.135,-2.23 -1.235,0 -2.195,0.35875 -2.9275,1.05375 -0.705,0.69625 -1.235,2.15875 -1.5875,4.36375 h -2.72625 v -32.65625 h 2.72625 c 1.285,6.83375 3.0275,11.94125 5.19625,15.34625 2.17,3.38 5.47625,6.21 9.94125,8.4625 4.44125,2.23125 9.33625,3.3575 14.66125,3.3575 6.155,0 11.025,-1.535 14.6075,-4.6275 3.55875,-3.09375 5.34998,-6.7375 5.34998,-10.9575 0,-2.35 -0.6812,-4.7 -2.01873,-7.0975 -1.3625,-2.3975 -3.48125,-4.6025 -6.3325,-6.66625 -1.9175,-1.4125 -7.1675,-4.38625 -15.745,-8.965 -8.57875,-4.55625 -14.66,-8.20125 -18.29375,-10.91 -3.63375,-2.73375 -6.35875,-5.73 -8.25,-8.99125 -1.86625,-3.285 -2.8,-6.905 -2.8,-10.8375 0,-6.83375 2.75,-12.7075 8.275,-17.64625 5.52625,-4.94 12.54,-7.40875 21.06875,-7.40875 5.32375,0 10.975,1.2225 16.93,3.71625 2.75,1.17375 4.71875,1.75 5.82875,1.75 1.28628,0 2.34628,-0.36 3.15498,-1.07875 0.8063,-0.74375 1.4638,-2.20625 1.9675,-4.3875 h 2.7238"
           inkscape:connector-curvature="0" />
        <path
           id="path3070"
           style="fill:#001f20;fill-opacity:1;fill-rule:nonzero;stroke:none;stroke-width:3.06171608"
           d="m 534.01002,88.17067 h 479.99878 v 31.335 H 534.01002 Z"
           inkscape:connector-curvature="0" />
        <path
           id="path3074"
           style="fill:#001f20;fill-opacity:1;fill-rule:nonzero;stroke:none;stroke-width:3.06171608"
           d="m 534.01002,234.51317 h 479.99878 v 31.335 H 534.01002 Z"
           inkscape:connector-curvature="0" />
      </g>
      <text
         xml:space="preserve"
         style="font-style:normal;font-weight:normal;font-size:4.45433998px;line-height:0%;font-family:'Bitstream Vera Sans';display:inline;fill:#ffffff;fill-opacity:1;stroke:none;stroke-width:1.13649368"
         x="342.43988"
         y="32.934387"
         id="text2991"><tspan
           sodipodi:role="line"
           id="tspan2993"
           x="342.43988"
           y="32.934387"
           style="font-style:normal;font-variant:normal;font-weight:normal;font-stretch:normal;font-size:9.65106964px;line-height:1.25;font-family:Arial;-inkscape-font-specification:Arial;fill:#ffffff;stroke-width:1.13649368">Fluida och Mekatroniska System</tspan></text>
      <text
         id="text2995"
         y="87.255981"
         x="344.72308"
         style="font-style:normal;font-weight:normal;font-size:4.45433998px;line-height:0%;font-family:'Bitstream Vera Sans';display:inline;fill:#ffffff;fill-opacity:1;stroke:none;stroke-width:1.13649368"
         xml:space="preserve"><tspan
           style="font-style:normal;font-variant:normal;font-weight:normal;font-stretch:normal;font-size:9.65106964px;line-height:1.25;font-family:Arial;-inkscape-font-specification:Arial;fill:#ffffff;stroke-width:1.13649368"
           y="87.255981"
           x="344.72308"
           id="tspan2997"
           sodipodi:role="line">Fluid and Mechatronic Systems</tspan></text>
    </g>
  </g>
</svg>
