<?xml version="1.0" encoding="UTF-8" standalone="no"?>
<!-- Created with Inkscape (http://www.inkscape.org/) -->

<svg
   xmlns:dc="http://purl.org/dc/elements/1.1/"
   xmlns:cc="http://creativecommons.org/ns#"
   xmlns:rdf="http://www.w3.org/1999/02/22-rdf-syntax-ns#"
   xmlns:svg="http://www.w3.org/2000/svg"
   xmlns="http://www.w3.org/2000/svg"
   xmlns:xlink="http://www.w3.org/1999/xlink"
   xmlns:sodipodi="http://sodipodi.sourceforge.net/DTD/sodipodi-0.dtd"
   xmlns:inkscape="http://www.inkscape.org/namespaces/inkscape"
   version="1.1"
   id="svg7399"
   width="404.59921"
   height="49.129002"
   viewBox="0 0 404.59921 49.129002"
   sodipodi:docname="welcome.svg"
   inkscape:version="0.92.4 (5da689c313, 2019-01-14)">
  <metadata
     id="metadata7405">
    <rdf:RDF>
      <cc:Work
         rdf:about="">
        <dc:format>image/svg+xml</dc:format>
        <dc:type
           rdf:resource="http://purl.org/dc/dcmitype/StillImage" />
        <dc:title></dc:title>
      </cc:Work>
    </rdf:RDF>
  </metadata>
  <defs
     id="defs7403">
    <linearGradient
       id="linearGradient8014-0"
       inkscape:collect="always">
      <stop
         id="stop8010"
         offset="0"
         style="stop-color:#5d97be;stop-opacity:0.97989953" />
      <stop
         style="stop-color:#a5c5da;stop-opacity:0"
         offset="1"
         id="stop8084" />
      <stop
         id="stop8012"
         offset="1"
         style="stop-color:#ffffff;stop-opacity:0.05859375" />
    </linearGradient>
    <radialGradient
       inkscape:collect="always"
       xlink:href="#linearGradient8014-0"
       id="radialGradient8070"
       cx="202.20193"
       cy="259.43646"
       fx="202.20193"
       fy="259.43646"
       r="202.20193"
       gradientTransform="matrix(-0.99031563,0,0,-0.08226673,402.44568,51.733617)"
       gradientUnits="userSpaceOnUse"
       spreadMethod="pad" />
  </defs>
  <sodipodi:namedview
     pagecolor="#ffffff"
     bordercolor="#666666"
     borderopacity="1"
     objecttolerance="10"
     gridtolerance="10"
     guidetolerance="10"
     inkscape:pageopacity="0"
     inkscape:pageshadow="2"
     inkscape:window-width="1280"
     inkscape:window-height="657"
     id="namedview7401"
     showgrid="false"
     inkscape:snap-bbox="true"
     inkscape:bbox-nodes="true"
     fit-margin-top="0"
     fit-margin-left="0"
     fit-margin-right="0"
     fit-margin-bottom="0"
     inkscape:snap-bbox-edge-midpoints="true"
     inkscape:zoom="1.3894231"
     inkscape:cx="171.39298"
     inkscape:cy="-75.982304"
     inkscape:window-x="-8"
     inkscape:window-y="-8"
     inkscape:window-maximized="1"
     inkscape:current-layer="svg7399" />
  <g
     id="g8066"
     transform="translate(-1.5243306,-16.651169)">
    <g
       id="text7411"
       style="font-style:normal;font-weight:normal;font-size:40px;line-height:1.25;font-family:sans-serif;letter-spacing:0px;word-spacing:0px;fill:#000000;fill-opacity:1;stroke:none"
       aria-label="Welcome to HOPSAN!">
      <path
         id="path8016"
         style="letter-spacing:-1.29999995px"
         d="M 37.481362,17.959763 29.922768,47.041794 H 25.567299 L 19.454018,22.901169 13.477456,47.041794 H 9.2196431 L 1.5243306,17.959763 H 5.4891744 L 11.602456,42.13945 17.618081,17.959763 h 3.925781 l 6.074219,24.414062 6.074218,-24.414062 z"
         inkscape:connector-curvature="0" />
      <path
         id="path8018"
         style="letter-spacing:-1.29999995px"
         d="M 57.880581,36.51445 H 41.806363 q 0,2.011719 0.605468,3.515625 0.605469,1.484375 1.660157,2.441406 1.015625,0.9375 2.402343,1.40625 1.40625,0.46875 3.085938,0.46875 2.226562,0 4.472656,-0.878906 2.265625,-0.898437 3.222656,-1.757812 h 0.195313 v 4.003906 q -1.855469,0.78125 -3.789063,1.308594 -1.933593,0.527343 -4.0625,0.527343 -5.429687,0 -8.476562,-2.929687 -3.046875,-2.949219 -3.046875,-8.359375 0,-5.351563 2.910156,-8.496094 2.929688,-3.144531 7.695313,-3.144531 4.414062,0 6.796875,2.578125 2.402343,2.578125 2.402343,7.324219 z m -3.574218,-2.8125 q -0.01953,-2.890625 -1.464844,-4.472656 -1.425781,-1.582031 -4.355469,-1.582031 -2.949219,0 -4.707031,1.738281 -1.738281,1.738281 -1.972656,4.316406 z"
         inkscape:connector-curvature="0" />
      <path
         id="path8020"
         style="letter-spacing:-1.29999995px"
         d="M 65.857926,47.041794 H 62.186051 V 16.651169 h 3.671875 z"
         inkscape:connector-curvature="0" />
      <path
         id="path8022"
         style="letter-spacing:-1.29999995px"
         d="m 87.995423,45.674606 q -1.835938,0.878907 -3.496094,1.367188 -1.640625,0.488281 -3.496094,0.488281 -2.363281,0 -4.335937,-0.683594 -1.972656,-0.703125 -3.378906,-2.109375 -1.425782,-1.40625 -2.207032,-3.554687 -0.78125,-2.148438 -0.78125,-5.019531 0,-5.351563 2.929688,-8.398438 2.949219,-3.046875 7.773437,-3.046875 1.875,0 3.671875,0.527344 1.816407,0.527344 3.320313,1.289062 v 4.082032 H 87.80011 q -1.679687,-1.308594 -3.476562,-2.011719 -1.777344,-0.703125 -3.476563,-0.703125 -3.125,0 -4.941406,2.109375 -1.796875,2.089844 -1.796875,6.152344 0,3.945312 1.757813,6.074218 1.777343,2.109375 4.980468,2.109375 1.113282,0 2.265625,-0.292968 1.152344,-0.292969 2.070313,-0.761719 0.800781,-0.410156 1.503906,-0.859375 0.703125,-0.46875 1.113281,-0.800781 h 0.195313 z"
         inkscape:connector-curvature="0" />
      <path
         id="path8024"
         style="letter-spacing:-1.29999995px"
         d="m 110.01574,36.143356 q 0,5.332032 -2.73438,8.417969 -2.73437,3.085938 -7.324214,3.085938 -4.628906,0 -7.363281,-3.085938 -2.714844,-3.085937 -2.714844,-8.417969 0,-5.332031 2.714844,-8.417968 2.734375,-3.105469 7.363281,-3.105469 4.589844,0 7.324214,3.105469 2.73438,3.085937 2.73438,8.417968 z m -3.78906,0 q 0,-4.238281 -1.66016,-6.289062 -1.66016,-2.070313 -4.609374,-2.070313 -2.988281,0 -4.648437,2.070313 -1.640625,2.050781 -1.640625,6.289062 0,4.101563 1.660156,6.230469 1.660156,2.109375 4.628906,2.109375 2.929684,0 4.589844,-2.089844 1.67969,-2.109375 1.67969,-6.25 z"
         inkscape:connector-curvature="0" />
      <path
         id="path8026"
         style="letter-spacing:-1.29999995px"
         d="m 146.2548,47.041794 h -3.67188 V 34.619919 q 0,-1.40625 -0.13671,-2.714844 -0.11719,-1.308594 -0.52735,-2.089844 -0.44922,-0.839843 -1.28906,-1.269531 -0.83984,-0.429687 -2.42188,-0.429687 -1.54296,0 -3.08593,0.78125 -1.54297,0.761718 -3.08594,1.953125 0.0586,0.449218 0.0977,1.054687 0.0391,0.585938 0.0391,1.171875 v 13.964844 h -3.67188 V 34.619919 q 0,-1.445313 -0.13672,-2.734375 -0.11718,-1.308594 -0.52734,-2.089844 -0.44922,-0.839844 -1.28906,-1.25 -0.83985,-0.429687 -2.42188,-0.429687 -1.5039,0 -3.02734,0.742187 -1.50391,0.742188 -3.00781,1.894531 v 16.289063 h -3.67188 V 25.225388 h 3.67188 v 2.421875 q 1.71875,-1.425782 3.41797,-2.226563 1.71875,-0.800781 3.65234,-0.800781 2.22656,0 3.76953,0.9375 1.5625,0.9375 2.32422,2.597656 2.22656,-1.875 4.0625,-2.695312 1.83594,-0.839844 3.92578,-0.839844 3.59375,0 5.29297,2.1875 1.71875,2.167969 1.71875,6.074219 z"
         inkscape:connector-curvature="0" />
      <path
         id="path8028"
         style="letter-spacing:-1.29999995px"
         d="m 170.28683,36.51445 h -16.07422 q 0,2.011719 0.60547,3.515625 0.60547,1.484375 1.66015,2.441406 1.01563,0.9375 2.40235,1.40625 1.40625,0.46875 3.08594,0.46875 2.22656,0 4.47265,-0.878906 2.26563,-0.898437 3.22266,-1.757812 h 0.19531 v 4.003906 q -1.85547,0.78125 -3.78906,1.308594 -1.9336,0.527343 -4.0625,0.527343 -5.42969,0 -8.47656,-2.929687 -3.04688,-2.949219 -3.04688,-8.359375 0,-5.351563 2.91016,-8.496094 2.92968,-3.144531 7.69531,-3.144531 4.41406,0 6.79687,2.578125 2.40235,2.578125 2.40235,7.324219 z m -3.57422,-2.8125 q -0.0195,-2.890625 -1.46484,-4.472656 -1.42579,-1.582031 -4.35547,-1.582031 -2.94922,0 -4.70703,1.738281 -1.73829,1.738281 -1.97266,4.316406 z"
         inkscape:connector-curvature="0" />
      <path
         id="path8030"
         style="letter-spacing:-1.29999995px"
         d="m 198.64387,46.846481 q -1.03516,0.273438 -2.26563,0.449219 -1.21093,0.175781 -2.16797,0.175781 -3.33984,0 -5.07812,-1.796875 -1.73828,-1.796875 -1.73828,-5.761718 V 28.311325 h -2.48047 v -3.085937 h 2.48047 v -6.269532 h 3.67187 v 6.269532 h 7.57813 v 3.085937 h -7.57813 v 9.941406 q 0,1.71875 0.0781,2.695313 0.0781,0.957031 0.54687,1.796875 0.42969,0.78125 1.17188,1.152344 0.76172,0.351562 2.30469,0.351562 0.89843,0 1.875,-0.253906 0.97656,-0.273438 1.40625,-0.449219 h 0.19531 z"
         inkscape:connector-curvature="0" />
      <path
         id="path8032"
         style="letter-spacing:-1.29999995px"
         d="m 220.39074,36.143356 q 0,5.332032 -2.73438,8.417969 -2.73437,3.085938 -7.32421,3.085938 -4.62891,0 -7.36329,-3.085938 -2.71484,-3.085937 -2.71484,-8.417969 0,-5.332031 2.71484,-8.417968 2.73438,-3.105469 7.36329,-3.105469 4.58984,0 7.32421,3.105469 2.73438,3.085937 2.73438,8.417968 z m -3.78906,0 q 0,-4.238281 -1.66016,-6.289062 -1.66016,-2.070313 -4.60937,-2.070313 -2.98829,0 -4.64844,2.070313 -1.64063,2.050781 -1.64063,6.289062 0,4.101563 1.66016,6.230469 1.66016,2.109375 4.62891,2.109375 2.92968,0 4.58984,-2.089844 1.67969,-2.109375 1.67969,-6.25 z"
         inkscape:connector-curvature="0" />
      <path
         id="path8034"
         style="letter-spacing:-1.29999995px"
         d="m 260.09542,47.041794 h -3.86719 V 32.803513 h -14.51171 v 14.238281 h -3.86719 V 17.959763 h 3.86719 v 11.40625 h 14.51171 v -11.40625 h 3.86719 z"
         inkscape:connector-curvature="0" />
      <path
         id="path8036"
         style="letter-spacing:-1.29999995px"
         d="m 288.30714,21.299606 q 1.77734,1.953125 2.71484,4.785157 0.95703,2.832031 0.95703,6.425781 0,3.59375 -0.97656,6.445312 -0.95703,2.832032 -2.69531,4.726563 -1.79688,1.972656 -4.25782,2.96875 -2.4414,0.996094 -5.58593,0.996094 -3.06641,0 -5.58594,-1.015625 -2.5,-1.015625 -4.25781,-2.949219 -1.75782,-1.933594 -2.71485,-4.746094 -0.9375,-2.8125 -0.9375,-6.425781 0,-3.554688 0.9375,-6.367188 0.9375,-2.832031 2.73438,-4.84375 1.71875,-1.914062 4.25781,-2.929687 2.55859,-1.015625 5.56641,-1.015625 3.125,0 5.60547,1.035156 2.5,1.015625 4.23828,2.910156 z m -0.35157,11.210938 q 0,-5.664063 -2.53906,-8.730469 -2.53906,-3.085937 -6.93359,-3.085937 -4.4336,0 -6.97266,3.085937 -2.51953,3.066406 -2.51953,8.730469 0,5.722656 2.57813,8.769531 2.57812,3.027344 6.91406,3.027344 4.33594,0 6.89453,-3.027344 2.57812,-3.046875 2.57812,-8.769531 z"
         inkscape:connector-curvature="0" />
      <path
         id="path8038"
         style="letter-spacing:-1.29999995px"
         d="m 315.83527,26.748825 q 0,1.933594 -0.68359,3.59375 -0.66406,1.640625 -1.875,2.851563 -1.50391,1.503906 -3.55469,2.265625 -2.05078,0.742187 -5.17578,0.742187 h -3.86719 v 10.839844 h -3.86718 V 17.959763 h 7.89062 q 2.61719,0 4.4336,0.449218 1.8164,0.429688 3.22265,1.367188 1.66016,1.113281 2.5586,2.773437 0.91796,1.660157 0.91796,4.199219 z m -4.02343,0.09766 q 0,-1.503906 -0.52735,-2.617187 -0.52734,-1.113281 -1.60156,-1.816406 -0.9375,-0.605469 -2.14844,-0.859375 -1.1914,-0.273438 -3.02734,-0.273438 h -3.82813 v 11.621094 h 3.26172 q 2.34375,0 3.8086,-0.410156 1.46484,-0.429688 2.38281,-1.347657 0.91797,-0.9375 1.28906,-1.972656 0.39063,-1.035156 0.39063,-2.324219 z"
         inkscape:connector-curvature="0" />
      <path
         id="path8040"
         style="letter-spacing:-1.29999995px"
         d="m 340.78526,38.741013 q 0,1.699218 -0.80079,3.359375 -0.78125,1.660156 -2.20703,2.8125 -1.5625,1.25 -3.65234,1.953125 -2.07031,0.703125 -5,0.703125 -3.14453,0 -5.66406,-0.585938 -2.5,-0.585937 -5.09766,-1.738281 v -4.84375 h 0.27344 q 2.20703,1.835937 5.09765,2.832031 2.89063,0.996094 5.42969,0.996094 3.59375,0 5.58594,-1.347656 2.01172,-1.347657 2.01172,-3.59375 0,-1.933594 -0.95703,-2.851563 -0.9375,-0.917969 -2.8711,-1.425781 -1.46484,-0.390625 -3.18359,-0.644531 -1.69922,-0.253907 -3.61328,-0.644532 -3.86719,-0.820312 -5.74219,-2.792968 -1.85547,-1.992188 -1.85547,-5.175782 0,-3.652343 3.08594,-5.976562 3.08594,-2.34375 7.83203,-2.34375 3.06641,0 5.625,0.585937 2.55859,0.585938 4.53125,1.445313 v 4.570312 h -0.27344 q -1.66015,-1.40625 -4.375,-2.324218 -2.69531,-0.9375 -5.52734,-0.9375 -3.10547,0 -5,1.289062 -1.875,1.289063 -1.875,3.320313 0,1.816406 0.9375,2.851562 0.9375,1.035156 3.30078,1.582031 1.25,0.273438 3.55469,0.664063 2.30469,0.390625 3.90625,0.800781 3.24219,0.859375 4.88281,2.597656 1.64063,1.738282 1.64063,4.863282 z"
         inkscape:connector-curvature="0" />
      <path
         id="path8042"
         style="letter-spacing:-1.29999995px"
         d="m 368.23527,47.041794 h -4.1211 l -2.85156,-8.105469 h -12.57812 l -2.85157,8.105469 h -3.92578 l 10.58594,-29.082031 h 5.15625 z m -8.16406,-11.425781 -5.09766,-14.277344 -5.11719,14.277344 z"
         inkscape:connector-curvature="0" />
      <path
         id="path8044"
         style="letter-spacing:-1.29999995px"
         d="m 393.53684,47.041794 h -4.78515 L 374.96262,21.026169 v 26.015625 h -3.61328 V 17.959763 h 5.9961 l 12.57812,23.75 v -23.75 h 3.61328 z"
         inkscape:connector-curvature="0" />
      <path
         id="path8046"
         style="letter-spacing:-1.29999995px"
         d="m 406.12354,17.959763 -0.50781,21.074218 h -3.32031 l -0.54688,-21.074218 z m -0.19531,29.082031 h -3.98437 V 42.9207 h 3.98437 z"
         inkscape:connector-curvature="0" />
    </g>
  </g>
  <rect
     style="fill:url(#radialGradient8070);fill-opacity:1;stroke:none;stroke-width:15;stroke-linecap:round;stroke-linejoin:round;stroke-miterlimit:4;stroke-dasharray:none;stroke-opacity:1"
     id="rect7419"
     width="404.40387"
     height="17.298927"
     x="1.5997314e-08"
     y="30.390627" />
</svg>
