<?xml version="1.0" encoding="UTF-8" standalone="no"?>
<!-- Created with Inkscape (http://www.inkscape.org/) -->
<svg
   xmlns:dc="http://purl.org/dc/elements/1.1/"
   xmlns:cc="http://creativecommons.org/ns#"
   xmlns:rdf="http://www.w3.org/1999/02/22-rdf-syntax-ns#"
   xmlns:svg="http://www.w3.org/2000/svg"
   xmlns="http://www.w3.org/2000/svg"
   xmlns:sodipodi="http://sodipodi.sourceforge.net/DTD/sodipodi-0.dtd"
   xmlns:inkscape="http://www.inkscape.org/namespaces/inkscape"
   id="svg3443"
   sodipodi:version="0.32"
   inkscape:version="0.46"
   width="33.34"
   height="29.379999"
   version="1.0"
   sodipodi:docname="torsionalspring_user.svg"
   inkscape:output_extension="org.inkscape.output.svg.inkscape">
  <metadata
     id="metadata3448">
    <rdf:RDF>
      <cc:Work
         rdf:about="">
        <dc:format>image/svg+xml</dc:format>
        <dc:type
           rdf:resource="http://purl.org/dc/dcmitype/StillImage" />
      </cc:Work>
    </rdf:RDF>
  </metadata>
  <defs
     id="defs3446">
    <inkscape:perspective
       sodipodi:type="inkscape:persp3d"
       inkscape:vp_x="0 : 526.18109 : 1"
       inkscape:vp_y="0 : 1000 : 0"
       inkscape:vp_z="744.09448 : 526.18109 : 1"
       inkscape:persp3d-origin="372.04724 : 350.78739 : 1"
       id="perspective3450" />
    <inkscape:perspective
       id="perspective10"
       inkscape:persp3d-origin="372.04724 : 350.78739 : 1"
       inkscape:vp_z="744.09448 : 526.18109 : 1"
       inkscape:vp_y="0 : 1000 : 0"
       inkscape:vp_x="0 : 526.18109 : 1"
       sodipodi:type="inkscape:persp3d" />
  </defs>
  <sodipodi:namedview
     inkscape:window-height="948"
     inkscape:window-width="1680"
     inkscape:pageshadow="2"
     inkscape:pageopacity="0.0"
     guidetolerance="10.0"
     gridtolerance="10.0"
     objecttolerance="10.0"
     borderopacity="1.0"
     bordercolor="#666666"
     pagecolor="#ffffff"
     id="base"
     showgrid="false"
     inkscape:zoom="11.5472"
     inkscape:cx="48.63067"
     inkscape:cy="7.306206"
     inkscape:window-x="0"
     inkscape:window-y="68"
     inkscape:current-layer="svg3443" />
  <path
     style="fill:none;fill-rule:evenodd;stroke:#000000;stroke-width:2;stroke-linecap:square;stroke-linejoin:miter;stroke-miterlimit:4;stroke-dasharray:none;stroke-opacity:1"
     d="M -19.715912,8.5776794 L -19.715912,22.859925"
     id="path2379" />
  <path
     style="fill:none;fill-rule:evenodd;stroke:#000000;stroke-width:2;stroke-linecap:square;stroke-linejoin:miter;stroke-miterlimit:4;stroke-dasharray:none;stroke-opacity:1"
     d="M 32.34,11.780077 L 32.34,29.746557"
     id="path3151" />
  <g
     id="g4076"
     transform="translate(-0.132131,0)">
    <path
       d="M 1.1322944,9.3068726 C 1.1188974,6.3411336 1.9299264,3.5895315 3.2567594,2.0991375 C 4.5835934,0.60874392 6.2221974,0.60874392 7.5490304,2.0991376 C 8.8758634,3.5895317 9.6868934,6.3411339 9.6734954,9.3068729"
       id="path2451"
       style="fill:none;fill-opacity:1;fill-rule:nonzero;stroke:#000000;stroke-width:2;stroke-linecap:square;stroke-linejoin:miter;stroke-miterlimit:4;stroke-dasharray:none;stroke-dashoffset:0;stroke-opacity:1" />
    <path
       d="M 6.8329544,9.3068726 C 6.8195574,6.3411336 7.6305864,3.5895315 8.9574194,2.0991375 C 10.284253,0.60874392 11.922857,0.60874392 13.24969,2.0991376 C 14.576524,3.5895317 15.387553,6.3411339 15.374155,9.3068729"
       id="path3251"
       style="fill:none;fill-opacity:1;fill-rule:nonzero;stroke:#000000;stroke-width:2;stroke-linecap:square;stroke-linejoin:miter;stroke-miterlimit:4;stroke-dasharray:none;stroke-dashoffset:0;stroke-opacity:1" />
    <path
       d="M 12.530326,10.694033 C 12.52586,13.634112 12.796203,16.361908 13.238481,17.839407 C 13.680759,19.316906 14.226961,19.316906 14.669239,17.839407 C 15.111516,16.361908 15.38186,13.634112 15.377394,10.694032"
       id="path3253"
       style="fill:none;fill-opacity:1;fill-rule:nonzero;stroke:#000000;stroke-width:1.99999976;stroke-linecap:square;stroke-linejoin:miter;stroke-miterlimit:4;stroke-dasharray:none;stroke-dashoffset:0;stroke-opacity:1" />
    <path
       d="M 12.530575,9.3407226 C 12.517177,6.3749836 13.328206,3.6233815 14.65504,2.1329875 C 15.981873,0.64259392 17.620477,0.64259392 18.94731,2.1329876 C 20.274144,3.6233817 21.085173,6.3749839 21.071775,9.3407229"
       id="path3257"
       style="fill:none;fill-opacity:1;fill-rule:nonzero;stroke:#000000;stroke-width:2;stroke-linecap:square;stroke-linejoin:miter;stroke-miterlimit:4;stroke-dasharray:none;stroke-dashoffset:0;stroke-opacity:1" />
    <path
       d="M 18.227936,10.727883 C 18.22347,13.667962 18.493813,16.395758 18.936091,17.873257 C 19.378369,19.350756 19.924571,19.350756 20.366849,17.873257 C 20.809126,16.395758 21.07947,13.667962 21.075004,10.727882"
       id="path3259"
       style="fill:none;fill-opacity:1;fill-rule:nonzero;stroke:#000000;stroke-width:1.99999976;stroke-linecap:square;stroke-linejoin:miter;stroke-miterlimit:4;stroke-dasharray:none;stroke-dashoffset:0;stroke-opacity:1" />
    <path
       d="M 18.227045,9.3068726 C 18.213647,6.3411336 19.024676,3.5895315 20.35151,2.0991375 C 21.678343,0.60874392 23.316947,0.60874392 24.64378,2.0991376 C 25.970614,3.5895317 26.781643,6.3411339 26.768245,9.3068729"
       id="path3263"
       style="fill:none;fill-opacity:1;fill-rule:nonzero;stroke:#000000;stroke-width:2;stroke-linecap:square;stroke-linejoin:miter;stroke-miterlimit:4;stroke-dasharray:none;stroke-dashoffset:0;stroke-opacity:1" />
    <path
       d="M 23.924406,10.694033 C 23.91994,13.634112 24.190283,16.361908 24.632561,17.839407 C 25.074839,19.316906 25.621041,19.316906 26.063319,17.839407 C 26.505596,16.361908 26.77594,13.634112 26.771474,10.694032"
       id="path3265"
       style="fill:none;fill-opacity:1;fill-rule:nonzero;stroke:#000000;stroke-width:1.99999976;stroke-linecap:square;stroke-linejoin:miter;stroke-miterlimit:4;stroke-dasharray:none;stroke-dashoffset:0;stroke-opacity:1" />
    <path
       d="M 23.926765,9.3068626 C 23.913367,6.3411236 24.724396,3.5895215 26.05123,2.0991275 C 27.378064,0.60873392 29.016668,0.60873392 30.343502,2.0991276 C 31.670335,3.5895217 32.481365,6.3411239 32.467967,9.3068629"
       id="path3269"
       style="fill:none;fill-opacity:1;fill-rule:nonzero;stroke:#000000;stroke-width:2.00000024;stroke-linecap:square;stroke-linejoin:miter;stroke-miterlimit:4;stroke-dasharray:none;stroke-dashoffset:0;stroke-opacity:1" />
    <rect
       width="1"
       height="1"
       x="0.63214529"
       y="9.4813824"
       id="rect3494"
       style="fill:#0000ff;fill-rule:evenodd;stroke:#000000;stroke-width:1px;stroke-linecap:butt;stroke-linejoin:miter;stroke-opacity:1" />
    <rect
       width="1"
       height="1"
       x="31.969088"
       y="9.4813824"
       id="rect3496"
       style="fill:#0000ff;fill-rule:evenodd;stroke:#000000;stroke-width:1px;stroke-linecap:butt;stroke-linejoin:miter;stroke-opacity:1" />
    <path
       d="M 6.8289084,10.72786 C 6.8244424,13.667939 7.0947854,16.395735 7.5370634,17.873234 C 7.9793414,19.350733 8.5255434,19.350733 8.9678214,17.873234 C 9.4100984,16.395735 9.6804424,13.667939 9.6759764,10.727859"
       id="path3199"
       style="fill:none;fill-opacity:1;fill-rule:nonzero;stroke:#000000;stroke-width:1.99999976;stroke-linecap:square;stroke-linejoin:miter;stroke-miterlimit:4;stroke-dasharray:none;stroke-dashoffset:0;stroke-opacity:1" />
  </g>
  <path
     style="fill:none;fill-rule:evenodd;stroke:#000000;stroke-width:2;stroke-linecap:square;stroke-linejoin:miter;stroke-miterlimit:4;stroke-dasharray:none;stroke-opacity:1"
     d="M 1,11.65005 L 1,29.61653"
     id="path4089" />
</svg>
