<?xml version="1.0" encoding="UTF-8" standalone="no"?>
<!-- Created with Inkscape (http://www.inkscape.org/) -->

<svg
   xmlns:dc="http://purl.org/dc/elements/1.1/"
   xmlns:cc="http://creativecommons.org/ns#"
   xmlns:rdf="http://www.w3.org/1999/02/22-rdf-syntax-ns#"
   xmlns:svg="http://www.w3.org/2000/svg"
   xmlns="http://www.w3.org/2000/svg"
   xmlns:sodipodi="http://sodipodi.sourceforge.net/DTD/sodipodi-0.dtd"
   xmlns:inkscape="http://www.inkscape.org/namespaces/inkscape"
   width="25"
   height="25"
   id="svg3464"
   sodipodi:version="0.32"
   inkscape:version="0.48.0 r9654"
   version="1.0"
   sodipodi:docname="square.svg"
   inkscape:output_extension="org.inkscape.output.svg.inkscape">
  <sodipodi:namedview
     id="base"
     pagecolor="#ffffff"
     bordercolor="#666666"
     borderopacity="1.0"
     gridtolerance="10000"
     guidetolerance="10"
     objecttolerance="10"
     inkscape:pageopacity="0.0"
     inkscape:pageshadow="2"
     inkscape:zoom="22.2"
     inkscape:cx="12.5"
     inkscape:cy="12.5"
     inkscape:document-units="px"
     inkscape:current-layer="layer1"
     showgrid="false"
     inkscape:window-width="1680"
     inkscape:window-height="982"
     inkscape:window-x="-8"
     inkscape:window-y="-8"
     inkscape:window-maximized="1" />
  <defs
     id="defs3466">
    <inkscape:perspective
       sodipodi:type="inkscape:persp3d"
       inkscape:vp_x="0 : 526.18109 : 1"
       inkscape:vp_y="0 : 1000 : 0"
       inkscape:vp_z="744.09448 : 526.18109 : 1"
       inkscape:persp3d-origin="372.04724 : 350.78739 : 1"
       id="perspective3472" />
    <inkscape:perspective
       id="perspective3638"
       inkscape:persp3d-origin="0.5 : 0.33333333 : 1"
       inkscape:vp_z="1 : 0.5 : 1"
       inkscape:vp_y="0 : 1000 : 0"
       inkscape:vp_x="0 : 0.5 : 1"
       sodipodi:type="inkscape:persp3d" />
  </defs>
  <metadata
     id="metadata3469">
    <rdf:RDF>
      <cc:Work
         rdf:about="">
        <dc:format>image/svg+xml</dc:format>
        <dc:type
           rdf:resource="http://purl.org/dc/dcmitype/StillImage" />
      </cc:Work>
    </rdf:RDF>
  </metadata>
  <g
     inkscape:label="Layer 1"
     inkscape:groupmode="layer"
     id="layer1"
     transform="translate(-221.51094,-603.1616)">
    <path
       sodipodi:type="arc"
       style="fill:#ffffff;fill-opacity:1;stroke:#0000bb;stroke-width:7.57446810999999980;stroke-linecap:square;stroke-miterlimit:3;stroke-opacity:1;stroke-dasharray:none"
       id="path2395"
       sodipodi:cx="155"
       sodipodi:cy="513.07648"
       sodipodi:rx="63.57143"
       sodipodi:ry="63.57143"
       d="m 218.57143,513.07648 a 63.57143,63.57143 0 1 1 -127.14286,0 63.57143,63.57143 0 1 1 127.14286,0 z"
       transform="matrix(-0.18483146,0,0,-0.18483146,262.65982,710.49427)" />
    <g
       style="font-size:14px;font-style:normal;font-variant:normal;font-weight:normal;font-stretch:normal;line-height:125%;letter-spacing:0px;word-spacing:0px;fill:#0000bb;fill-opacity:1;stroke:none;font-family:Calibri;-inkscape-font-specification:Calibri"
       id="text2989">
      <path
         d="m 234.35817,621.07654 c -1e-5,0.0456 -0.0114,0.0854 -0.0342,0.11963 -0.0228,0.0342 -0.0627,0.0627 -0.11963,0.0854 -0.057,0.0228 -0.13217,0.0399 -0.22558,0.0513 -0.0934,0.0114 -0.21079,0.0171 -0.35206,0.0171 -0.15039,0 -0.2723,-0.006 -0.36572,-0.0171 -0.0934,-0.0114 -0.16748,-0.0285 -0.22217,-0.0513 -0.0547,-0.0228 -0.0934,-0.0513 -0.11621,-0.0854 -0.0228,-0.0342 -0.0342,-0.0741 -0.0342,-0.11963 l 0,-0.7041 c -0.33724,0.36458 -0.68018,0.63802 -1.02881,0.82031 -0.34863,0.18229 -0.7098,0.27344 -1.08349,0.27344 -0.41928,0 -0.77133,-0.0684 -1.05615,-0.20508 -0.28484,-0.13672 -0.51498,-0.32357 -0.69043,-0.56055 -0.17546,-0.23698 -0.30079,-0.51155 -0.37598,-0.82373 -0.0752,-0.31217 -0.11279,-0.70068 -0.11279,-1.16553 l 0,-3.73242 c 0,-0.0456 0.0125,-0.0854 0.0376,-0.11963 0.0251,-0.0342 0.0706,-0.0626 0.13672,-0.0854 0.0661,-0.0228 0.15495,-0.0399 0.2666,-0.0513 0.11166,-0.0114 0.24951,-0.0171 0.41358,-0.0171 0.16862,1e-5 0.30761,0.006 0.41699,0.0171 0.10937,0.0114 0.1971,0.0285 0.26318,0.0513 0.0661,0.0228 0.1128,0.0513 0.14014,0.0854 0.0273,0.0342 0.041,0.0741 0.041,0.11963 l 0,3.44531 c -1e-5,0.31902 0.0205,0.56283 0.0615,0.73145 0.041,0.16862 0.10368,0.31332 0.18799,0.43408 0.0843,0.12077 0.1914,0.2142 0.32129,0.28028 0.12988,0.0661 0.28141,0.0991 0.45459,0.0991 0.21874,0 0.43863,-0.0797 0.65967,-0.23926 0.22102,-0.15951 0.45686,-0.39193 0.70752,-0.69727 l 0,-4.05371 c -1e-5,-0.0456 0.0125,-0.0854 0.0376,-0.11963 0.0251,-0.0342 0.0706,-0.0626 0.13672,-0.0854 0.0661,-0.0228 0.1538,-0.0399 0.26319,-0.0513 0.10936,-0.0114 0.24836,-0.0171 0.41699,-0.0171 0.16861,1e-5 0.30761,0.006 0.41699,0.0171 0.10937,0.0114 0.19596,0.0285 0.25977,0.0513 0.0638,0.0228 0.10936,0.0513 0.13671,0.0854 0.0273,0.0342 0.041,0.0741 0.041,0.11963 z"
         style="font-weight:bold;-inkscape-font-specification:Calibri Bold;fill:#0000bb;fill-opacity:1"
         id="path2998" />
      <path
         d="m 239.48108,615.23351 c 0,0.0859 -0.004,0.15923 -0.0111,0.21995 -0.007,0.0607 -0.0185,0.11035 -0.0333,0.14886 -0.0148,0.0385 -0.0341,0.0659 -0.0578,0.0822 -0.0237,0.0163 -0.0504,0.0244 -0.08,0.0244 l -3.30591,0 c -0.0652,0 -0.12145,-0.006 -0.16885,-0.0178 -0.0474,-0.0118 -0.0859,-0.0348 -0.11552,-0.0689 -0.0296,-0.0341 -0.0511,-0.0837 -0.0644,-0.14885 -0.0133,-0.0652 -0.02,-0.1496 -0.02,-0.25328 0,-0.0978 0.004,-0.18144 0.0133,-0.25105 0.009,-0.0696 0.0252,-0.13182 0.0489,-0.18662 0.0237,-0.0548 0.0541,-0.10813 0.0911,-0.15997 0.037,-0.0518 0.0852,-0.10886 0.14441,-0.17107 l 0.99533,-1.06642 c 0.19847,-0.20736 0.35843,-0.3962 0.47989,-0.56654 0.12145,-0.17032 0.21624,-0.32584 0.28438,-0.46656 0.0681,-0.1407 0.11478,-0.2703 0.13996,-0.38879 0.0252,-0.11849 0.0378,-0.23106 0.0378,-0.3377 0,-0.0978 -0.0155,-0.19033 -0.0466,-0.27772 -0.0311,-0.0874 -0.077,-0.16366 -0.13775,-0.22883 -0.0607,-0.0652 -0.13701,-0.11627 -0.22884,-0.1533 -0.0918,-0.037 -0.19995,-0.0555 -0.32437,-0.0555 -0.17477,10e-6 -0.32955,0.0222 -0.46433,0.0667 -0.13479,0.0444 -0.25328,0.0941 -0.35548,0.14885 -0.1022,0.0548 -0.18736,0.10517 -0.25549,0.15108 -0.0681,0.0459 -0.12146,0.0689 -0.15997,0.0689 -0.0267,0 -0.0496,-0.009 -0.0689,-0.0267 -0.0193,-0.0178 -0.0348,-0.0474 -0.0467,-0.0889 -0.0118,-0.0415 -0.0215,-0.097 -0.0289,-0.16663 -0.007,-0.0696 -0.0111,-0.15477 -0.0111,-0.25549 0,-0.0681 0.002,-0.12516 0.007,-0.17108 0.004,-0.0459 0.0111,-0.0859 0.02,-0.11997 0.009,-0.0341 0.0207,-0.0637 0.0356,-0.0889 0.0148,-0.0252 0.0407,-0.0555 0.0778,-0.0911 0.037,-0.0355 0.10516,-0.0807 0.2044,-0.13552 0.0992,-0.0548 0.22143,-0.10812 0.36658,-0.15996 0.14515,-0.0518 0.30511,-0.0955 0.47989,-0.13109 0.17477,-0.0355 0.35695,-0.0533 0.54654,-0.0533 0.29919,10e-6 0.56061,0.0378 0.78426,0.11331 0.22365,0.0755 0.40954,0.18071 0.55765,0.31548 0.14811,0.13479 0.25846,0.29476 0.33104,0.47989 0.0726,0.18515 0.10886,0.38436 0.10886,0.59764 0,0.18663 -0.0178,0.37029 -0.0533,0.55099 -0.0356,0.1807 -0.10961,0.37547 -0.22217,0.58431 -0.11257,0.20884 -0.27105,0.4399 -0.47545,0.69317 -0.2044,0.25328 -0.47544,0.54728 -0.81314,0.88202 l -0.67096,0.68873 2.26615,0 c 0.0296,0 0.057,0.009 0.0822,0.0267 0.0252,0.0178 0.0466,0.0452 0.0644,0.0822 0.0178,0.037 0.0311,0.0859 0.04,0.14663 0.009,0.0607 0.0133,0.13256 0.0133,0.2155 z"
         style="font-size:65.00091553000000000%;baseline-shift:super;fill:#0000bb;fill-opacity:1"
         id="path3000" />
    </g>
  </g>
</svg>
