<?xml version="1.0" encoding="UTF-8" standalone="no"?>
<!-- Created with Inkscape (http://www.inkscape.org/) -->

<svg
   xmlns:dc="http://purl.org/dc/elements/1.1/"
   xmlns:cc="http://creativecommons.org/ns#"
   xmlns:rdf="http://www.w3.org/1999/02/22-rdf-syntax-ns#"
   xmlns:svg="http://www.w3.org/2000/svg"
   xmlns="http://www.w3.org/2000/svg"
   xmlns:sodipodi="http://sodipodi.sourceforge.net/DTD/sodipodi-0.dtd"
   xmlns:inkscape="http://www.inkscape.org/namespaces/inkscape"
   width="25.000004"
   height="25.000004"
   id="svg3336"
   sodipodi:version="0.32"
   inkscape:version="0.48.0 r9654"
   sodipodi:docname="min.svg"
   inkscape:output_extension="org.inkscape.output.svg.inkscape"
   version="1.0">
  <defs
     id="defs3338">
    <marker
       inkscape:stockid="Arrow2Mend"
       orient="auto"
       refY="0"
       refX="0"
       id="Arrow2Mend"
       style="overflow:visible">
      <path
         id="path3629"
         style="font-size:12px;fill-rule:evenodd;stroke-width:0.625;stroke-linejoin:round"
         d="M 8.7185878,4.0337352 -2.2072895,0.01601326 8.7185884,-4.0017078 c -1.7454984,2.3720609 -1.7354408,5.6174519 -6e-7,8.035443 l 0,0 z"
         transform="scale(-0.6,-0.6)"
         inkscape:connector-curvature="0" />
    </marker>
    <marker
       inkscape:stockid="DotM"
       orient="auto"
       refY="0"
       refX="0"
       id="DotM"
       style="overflow:visible">
      <path
         id="path3667"
         d="m -2.5,-1 c 0,2.76 -2.24,5 -5,5 -2.76,0 -5,-2.24 -5,-5 0,-2.76 2.24,-5 5,-5 2.76,0 5,2.24 5,5 z"
         style="fill-rule:evenodd;stroke:#000000;stroke-width:1pt;marker-start:none;marker-end:none"
         transform="matrix(0.4,0,0,0.4,2.96,0.4)"
         inkscape:connector-curvature="0" />
    </marker>
    <marker
       inkscape:stockid="DotL"
       orient="auto"
       refY="0"
       refX="0"
       id="DotL"
       style="overflow:visible">
      <path
         id="path3664"
         d="m -2.5,-1 c 0,2.76 -2.24,5 -5,5 -2.76,0 -5,-2.24 -5,-5 0,-2.76 2.24,-5 5,-5 2.76,0 5,2.24 5,5 z"
         style="fill-rule:evenodd;stroke:#000000;stroke-width:1pt;marker-start:none;marker-end:none"
         transform="matrix(0.8,0,0,0.8,5.92,0.8)"
         inkscape:connector-curvature="0" />
    </marker>
    <marker
       style="overflow:visible"
       id="TriangleOutL"
       refX="0"
       refY="0"
       orient="auto"
       inkscape:stockid="TriangleOutL">
      <path
         transform="scale(0.8,0.8)"
         style="fill-rule:evenodd;stroke:#000000;stroke-width:1pt;marker-start:none"
         d="m 5.77,0 -8.65,5 0,-10 8.65,5 z"
         id="path8118"
         inkscape:connector-curvature="0" />
    </marker>
    <inkscape:perspective
       sodipodi:type="inkscape:persp3d"
       inkscape:vp_x="0 : 526.18109 : 1"
       inkscape:vp_y="0 : 1000 : 0"
       inkscape:vp_z="744.09448 : 526.18109 : 1"
       inkscape:persp3d-origin="372.04724 : 350.78739 : 1"
       id="perspective3344" />
  </defs>
  <sodipodi:namedview
     id="base"
     pagecolor="#ffffff"
     bordercolor="#666666"
     borderopacity="1.0"
     gridtolerance="10000"
     guidetolerance="10"
     objecttolerance="10"
     inkscape:pageopacity="0.0"
     inkscape:pageshadow="2"
     inkscape:zoom="5.3952239"
     inkscape:cx="61.210376"
     inkscape:cy="1.0598264"
     inkscape:document-units="px"
     inkscape:current-layer="layer1"
     showgrid="false"
     inkscape:window-width="1680"
     inkscape:window-height="982"
     inkscape:window-x="-8"
     inkscape:window-y="-8"
     showguides="true"
     inkscape:snap-global="true"
     inkscape:snap-intersection-line-segments="true"
     inkscape:snap-center="true"
     inkscape:window-maximized="1"
     fit-margin-top="0"
     fit-margin-left="0"
     fit-margin-right="0"
     fit-margin-bottom="0">
    <inkscape:grid
       type="xygrid"
       id="grid2405"
       visible="true"
       enabled="true"
       empspacing="5"
       snapvisiblegridlinesonly="true" />
  </sodipodi:namedview>
  <metadata
     id="metadata3341">
    <rdf:RDF>
      <cc:Work
         rdf:about="">
        <dc:format>image/svg+xml</dc:format>
        <dc:type
           rdf:resource="http://purl.org/dc/dcmitype/StillImage" />
        <dc:title />
      </cc:Work>
    </rdf:RDF>
  </metadata>
  <g
     inkscape:label="Layer 1"
     inkscape:groupmode="layer"
     id="layer1"
     transform="translate(-247.4661,-352.29314)">
    <path
       sodipodi:type="arc"
       style="fill:#ffffff;fill-opacity:1;stroke:#0000bb;stroke-width:8.11550139999999940;stroke-linecap:square;stroke-miterlimit:3;stroke-opacity:1;stroke-dasharray:none"
       id="path2395"
       sodipodi:cx="155"
       sodipodi:cy="513.07648"
       sodipodi:rx="63.57143"
       sodipodi:ry="63.57143"
       d="m 218.57143,513.07648 a 63.57143,63.57143 0 1 1 -127.14286,0 63.57143,63.57143 0 1 1 127.14286,0 z"
       transform="matrix(-0.18483146,0,0,-0.18483146,288.61497,459.62581)" />
    <g
       style="font-size:13px;font-style:normal;font-variant:normal;font-weight:normal;font-stretch:normal;line-height:125%;letter-spacing:0px;word-spacing:0px;fill:#0000bb;fill-opacity:1;stroke:none;font-family:Times New Roman;-inkscape-font-specification:Times New Roman"
       id="text3010">
      <path
         d="m 259.46658,368.24139 c -1e-5,0.0358 -0.0108,0.0671 -0.0322,0.094 -0.0215,0.0268 -0.0573,0.0492 -0.10743,0.0671 -0.0501,0.0179 -0.11817,0.0313 -0.2041,0.0403 -0.0859,0.009 -0.19515,0.0134 -0.32763,0.0134 -0.13608,0 -0.24708,-0.004 -0.33301,-0.0134 -0.086,-0.009 -0.15487,-0.0224 -0.20679,-0.0403 -0.0519,-0.0179 -0.0877,-0.0403 -0.10742,-0.0671 -0.0197,-0.0269 -0.0296,-0.0582 -0.0295,-0.094 l 0,-2.8413 c -1e-5,-0.16113 -0.0152,-0.30794 -0.0457,-0.44043 -0.0304,-0.13249 -0.077,-0.24618 -0.13964,-0.34107 -0.0627,-0.0949 -0.14145,-0.16829 -0.23633,-0.22021 -0.0949,-0.0519 -0.20859,-0.0779 -0.34107,-0.0779 -0.16114,0 -0.32406,0.0627 -0.48877,0.18798 -0.16472,0.12533 -0.34375,0.30795 -0.53711,0.54786 l 0,3.18505 c 0,0.0358 -0.0107,0.0671 -0.0322,0.094 -0.0215,0.0268 -0.0582,0.0492 -0.11011,0.0671 -0.0519,0.0179 -0.12085,0.0313 -0.20679,0.0403 -0.0859,0.009 -0.19336,0.0134 -0.32226,0.0134 -0.13249,0 -0.24171,-0.004 -0.32764,-0.0134 -0.0859,-0.009 -0.15487,-0.0224 -0.20679,-0.0403 -0.0519,-0.0179 -0.0886,-0.0403 -0.1101,-0.0671 -0.0215,-0.0269 -0.0322,-0.0582 -0.0322,-0.094 l 0,-2.8413 c 0,-0.16113 -0.0152,-0.30794 -0.0456,-0.44043 -0.0304,-0.13249 -0.0761,-0.24618 -0.13697,-0.34107 -0.0609,-0.0949 -0.13965,-0.16829 -0.23633,-0.22021 -0.0967,-0.0519 -0.20947,-0.0779 -0.33837,-0.0779 -0.16472,0 -0.32943,0.0627 -0.49414,0.18798 -0.16472,0.12533 -0.34197,0.30795 -0.53174,0.54786 l 0,3.18505 c -1e-5,0.0358 -0.0108,0.0671 -0.0322,0.094 -0.0215,0.0268 -0.0582,0.0492 -0.11011,0.0671 -0.0519,0.0179 -0.12085,0.0313 -0.20678,0.0403 -0.0859,0.009 -0.19516,0.0134 -0.32764,0.0134 -0.13249,0 -0.2417,-0.004 -0.32764,-0.0134 -0.0859,-0.009 -0.15487,-0.0224 -0.20678,-0.0403 -0.0519,-0.0179 -0.0886,-0.0403 -0.11011,-0.0671 -0.0215,-0.0269 -0.0322,-0.0582 -0.0322,-0.094 l 0,-4.79101 c 0,-0.0358 0.009,-0.0671 0.0269,-0.094 0.0179,-0.0269 0.0501,-0.0492 0.0967,-0.0671 0.0465,-0.0179 0.10652,-0.0313 0.17993,-0.0403 0.0734,-0.009 0.16561,-0.0134 0.27661,-0.0134 0.11458,1e-5 0.20947,0.004 0.28467,0.0134 0.0752,0.009 0.13338,0.0224 0.17456,0.0403 0.0412,0.0179 0.0707,0.0403 0.0886,0.0671 0.0179,0.0269 0.0268,0.0582 0.0269,0.094 l 0,0.55322 c 0.26497,-0.28645 0.52905,-0.5013 0.79223,-0.64453 0.26318,-0.14322 0.538,-0.21484 0.82447,-0.21484 0.19693,0 0.37418,0.0206 0.53173,0.0618 0.15755,0.0412 0.2981,0.10027 0.42163,0.17725 0.12354,0.077 0.23006,0.16919 0.31958,0.27661 0.0895,0.10743 0.16471,0.22738 0.22559,0.35986 0.14322,-0.15396 0.28377,-0.28645 0.42163,-0.39746 0.13785,-0.11099 0.27392,-0.20141 0.4082,-0.27124 0.13428,-0.0698 0.26855,-0.12174 0.40284,-0.15576 0.13427,-0.034 0.27123,-0.051 0.41089,-0.051 0.31867,0 0.58723,0.0537 0.80566,0.16113 0.21842,0.10743 0.39477,0.25334 0.52905,0.43774 0.13427,0.18442 0.23006,0.40015 0.28736,0.64722 0.0573,0.24707 0.0859,0.50847 0.0859,0.78418 z"
         style="font-size:11px;font-weight:bold;fill:#0000bb;font-family:Calibri;-inkscape-font-specification:Calibri Bold"
         id="path3788" />
      <path
         d="m 262.1575,368.24139 c 0,0.0358 -0.0107,0.0671 -0.0322,0.094 -0.0215,0.0268 -0.0582,0.0492 -0.1101,0.0671 -0.0519,0.0179 -0.12085,0.0313 -0.20679,0.0403 -0.0859,0.009 -0.19515,0.0134 -0.32764,0.0134 -0.13248,0 -0.2417,-0.004 -0.32763,-0.0134 -0.0859,-0.009 -0.15487,-0.0224 -0.20679,-0.0403 -0.0519,-0.0179 -0.0886,-0.0403 -0.11011,-0.0671 -0.0215,-0.0269 -0.0322,-0.0582 -0.0322,-0.094 l 0,-4.78027 c -10e-6,-0.0358 0.0107,-0.0671 0.0322,-0.094 0.0215,-0.0268 0.0582,-0.0501 0.11011,-0.0698 0.0519,-0.0197 0.12085,-0.0349 0.20679,-0.0457 0.0859,-0.0107 0.19515,-0.0161 0.32763,-0.0161 0.13249,1e-5 0.2417,0.005 0.32764,0.0161 0.0859,0.0108 0.15486,0.026 0.20679,0.0457 0.0519,0.0197 0.0886,0.043 0.1101,0.0698 0.0215,0.0269 0.0322,0.0582 0.0322,0.094 z m 0.10205,-6.41308 c 0,0.27214 -0.0555,0.46013 -0.1665,0.56396 -0.11101,0.10385 -0.3169,0.15577 -0.61768,0.15576 -0.30436,1e-5 -0.50936,-0.0501 -0.61499,-0.15039 -0.10563,-0.10025 -0.15845,-0.28108 -0.15845,-0.54248 0,-0.27213 0.0546,-0.46101 0.16382,-0.56665 0.10921,-0.10562 0.316,-0.15844 0.62036,-0.15844 0.30078,0 0.50489,0.051 0.61231,0.15307 0.10742,0.10206 0.16113,0.28378 0.16113,0.54517 z"
         style="font-size:11px;font-weight:bold;fill:#0000bb;font-family:Calibri;-inkscape-font-specification:Calibri Bold"
         id="path3790" />
      <path
         d="m 268.08719,368.24139 c -1e-5,0.0358 -0.0108,0.0671 -0.0322,0.094 -0.0215,0.0268 -0.0573,0.0492 -0.10742,0.0671 -0.0501,0.0179 -0.11906,0.0313 -0.20679,0.0403 -0.0877,0.009 -0.19605,0.0134 -0.32495,0.0134 -0.13249,0 -0.2426,-0.004 -0.33032,-0.0134 -0.0877,-0.009 -0.15666,-0.0224 -0.20679,-0.0403 -0.0501,-0.0179 -0.0859,-0.0403 -0.10742,-0.0671 -0.0215,-0.0269 -0.0322,-0.0582 -0.0322,-0.094 l 0,-2.73388 c 0,-0.23275 -0.017,-0.41536 -0.051,-0.54785 -0.034,-0.13249 -0.0833,-0.24618 -0.14771,-0.34107 -0.0644,-0.0949 -0.1477,-0.16829 -0.24975,-0.22021 -0.10206,-0.0519 -0.22112,-0.0779 -0.35718,-0.0779 -0.17188,0 -0.34554,0.0627 -0.521,0.18798 -0.17545,0.12533 -0.35807,0.30795 -0.54785,0.54786 l 0,3.18505 c 0,0.0358 -0.0107,0.0671 -0.0322,0.094 -0.0215,0.0268 -0.0582,0.0492 -0.11011,0.0671 -0.0519,0.0179 -0.12085,0.0313 -0.20679,0.0403 -0.0859,0.009 -0.19515,0.0134 -0.32764,0.0134 -0.13248,0 -0.2417,-0.004 -0.32763,-0.0134 -0.0859,-0.009 -0.15487,-0.0224 -0.20679,-0.0403 -0.0519,-0.0179 -0.0886,-0.0403 -0.11011,-0.0671 -0.0215,-0.0269 -0.0322,-0.0582 -0.0322,-0.094 l 0,-4.79101 c 0,-0.0358 0.009,-0.0671 0.0269,-0.094 0.0179,-0.0269 0.0501,-0.0492 0.0967,-0.0671 0.0466,-0.0179 0.10653,-0.0313 0.17993,-0.0403 0.0734,-0.009 0.16561,-0.0134 0.27661,-0.0134 0.11459,1e-5 0.20948,0.004 0.28467,0.0134 0.0752,0.009 0.13338,0.0224 0.17456,0.0403 0.0412,0.0179 0.0707,0.0403 0.0886,0.0671 0.0179,0.0269 0.0268,0.0582 0.0268,0.094 l 0,0.55322 c 0.26497,-0.28645 0.53442,-0.5013 0.80835,-0.64453 0.27392,-0.14322 0.55949,-0.21484 0.85669,-0.21484 0.32584,0 0.60066,0.0537 0.82446,0.16113 0.22379,0.10743 0.40462,0.25334 0.54248,0.43774 0.13786,0.18442 0.23722,0.40015 0.2981,0.64722 0.0609,0.24707 0.0913,0.54427 0.0913,0.8916 z"
         style="font-size:11px;font-weight:bold;fill:#0000bb;font-family:Calibri;-inkscape-font-specification:Calibri Bold"
         id="path3792" />
    </g>
  </g>
</svg>
