<?xml version="1.0" encoding="UTF-8" standalone="no"?>
<!-- Created with Inkscape (http://www.inkscape.org/) -->

<svg
   xmlns:dc="http://purl.org/dc/elements/1.1/"
   xmlns:cc="http://creativecommons.org/ns#"
   xmlns:rdf="http://www.w3.org/1999/02/22-rdf-syntax-ns#"
   xmlns:svg="http://www.w3.org/2000/svg"
   xmlns="http://www.w3.org/2000/svg"
   xmlns:sodipodi="http://sodipodi.sourceforge.net/DTD/sodipodi-0.dtd"
   xmlns:inkscape="http://www.inkscape.org/namespaces/inkscape"
   width="25.000004"
   height="25.000004"
   id="svg3336"
   sodipodi:version="0.32"
   inkscape:version="0.48.0 r9654"
   sodipodi:docname="cos.svg"
   inkscape:output_extension="org.inkscape.output.svg.inkscape"
   version="1.0">
  <defs
     id="defs3338">
    <marker
       inkscape:stockid="Arrow2Mend"
       orient="auto"
       refY="0"
       refX="0"
       id="Arrow2Mend"
       style="overflow:visible">
      <path
         id="path3629"
         style="font-size:12px;fill-rule:evenodd;stroke-width:0.625;stroke-linejoin:round"
         d="M 8.7185878,4.0337352 -2.2072895,0.01601326 8.7185884,-4.0017078 c -1.7454984,2.3720609 -1.7354408,5.6174519 -6e-7,8.035443 l 0,0 z"
         transform="scale(-0.6,-0.6)"
         inkscape:connector-curvature="0" />
    </marker>
    <marker
       inkscape:stockid="DotM"
       orient="auto"
       refY="0"
       refX="0"
       id="DotM"
       style="overflow:visible">
      <path
         id="path3667"
         d="m -2.5,-1 c 0,2.76 -2.24,5 -5,5 -2.76,0 -5,-2.24 -5,-5 0,-2.76 2.24,-5 5,-5 2.76,0 5,2.24 5,5 z"
         style="fill-rule:evenodd;stroke:#000000;stroke-width:1pt;marker-start:none;marker-end:none"
         transform="matrix(0.4,0,0,0.4,2.96,0.4)"
         inkscape:connector-curvature="0" />
    </marker>
    <marker
       inkscape:stockid="DotL"
       orient="auto"
       refY="0"
       refX="0"
       id="DotL"
       style="overflow:visible">
      <path
         id="path3664"
         d="m -2.5,-1 c 0,2.76 -2.24,5 -5,5 -2.76,0 -5,-2.24 -5,-5 0,-2.76 2.24,-5 5,-5 2.76,0 5,2.24 5,5 z"
         style="fill-rule:evenodd;stroke:#000000;stroke-width:1pt;marker-start:none;marker-end:none"
         transform="matrix(0.8,0,0,0.8,5.92,0.8)"
         inkscape:connector-curvature="0" />
    </marker>
    <marker
       style="overflow:visible"
       id="TriangleOutL"
       refX="0"
       refY="0"
       orient="auto"
       inkscape:stockid="TriangleOutL">
      <path
         transform="scale(0.8,0.8)"
         style="fill-rule:evenodd;stroke:#000000;stroke-width:1pt;marker-start:none"
         d="m 5.77,0 -8.65,5 0,-10 8.65,5 z"
         id="path8118"
         inkscape:connector-curvature="0" />
    </marker>
    <inkscape:perspective
       sodipodi:type="inkscape:persp3d"
       inkscape:vp_x="0 : 526.18109 : 1"
       inkscape:vp_y="0 : 1000 : 0"
       inkscape:vp_z="744.09448 : 526.18109 : 1"
       inkscape:persp3d-origin="372.04724 : 350.78739 : 1"
       id="perspective3344" />
  </defs>
  <sodipodi:namedview
     id="base"
     pagecolor="#ffffff"
     bordercolor="#666666"
     borderopacity="1.0"
     gridtolerance="10000"
     guidetolerance="10"
     objecttolerance="10"
     inkscape:pageopacity="0.0"
     inkscape:pageshadow="2"
     inkscape:zoom="16.501798"
     inkscape:cx="26.424982"
     inkscape:cy="9.3802175"
     inkscape:document-units="px"
     inkscape:current-layer="layer1"
     showgrid="false"
     inkscape:window-width="1680"
     inkscape:window-height="982"
     inkscape:window-x="1592"
     inkscape:window-y="142"
     showguides="true"
     inkscape:snap-global="true"
     inkscape:snap-intersection-line-segments="true"
     inkscape:snap-center="true"
     inkscape:window-maximized="1"
     fit-margin-top="0"
     fit-margin-left="0"
     fit-margin-right="0"
     fit-margin-bottom="0">
    <inkscape:grid
       type="xygrid"
       id="grid2405"
       visible="true"
       enabled="true"
       empspacing="5"
       snapvisiblegridlinesonly="true" />
  </sodipodi:namedview>
  <metadata
     id="metadata3341">
    <rdf:RDF>
      <cc:Work
         rdf:about="">
        <dc:format>image/svg+xml</dc:format>
        <dc:type
           rdf:resource="http://purl.org/dc/dcmitype/StillImage" />
        <dc:title />
      </cc:Work>
    </rdf:RDF>
  </metadata>
  <g
     inkscape:label="Layer 1"
     inkscape:groupmode="layer"
     id="layer1"
     transform="translate(-247.4661,-352.29314)">
    <path
       sodipodi:type="arc"
       style="fill:#ffffff;fill-opacity:1;stroke:#0000bb;stroke-width:8.11550139999999940;stroke-linecap:square;stroke-miterlimit:3;stroke-opacity:1;stroke-dasharray:none"
       id="path2395"
       sodipodi:cx="155"
       sodipodi:cy="513.07648"
       sodipodi:rx="63.57143"
       sodipodi:ry="63.57143"
       d="m 218.57143,513.07648 c 0,35.10953 -28.4619,63.57143 -63.57143,63.57143 -35.10953,0 -63.57143,-28.4619 -63.57143,-63.57143 0,-35.10953 28.4619,-63.57143 63.57143,-63.57143 35.10953,0 63.57143,28.4619 63.57143,63.57143 z"
       transform="matrix(-0.18483146,0,0,-0.18483146,288.61497,459.62581)" />
    <g
       style="font-size:11px;font-style:normal;font-variant:normal;font-weight:bold;font-stretch:normal;line-height:125%;letter-spacing:0px;word-spacing:0px;fill:#0000bb;fill-opacity:1;stroke:none;font-family:Calibri;-inkscape-font-specification:Calibri Bold"
       id="text2997">
      <path
         d="m 256.79715,366.42593 c 0,0.0931 -0.003,0.17098 -0.008,0.23365 -0.005,0.0627 -0.0125,0.11548 -0.0215,0.15844 -0.009,0.043 -0.0197,0.0779 -0.0322,0.10474 -0.0125,0.0269 -0.0403,0.0609 -0.0833,0.10205 -0.043,0.0412 -0.11638,0.0913 -0.22021,0.15039 -0.10385,0.0591 -0.22201,0.1119 -0.3545,0.15845 -0.13249,0.0466 -0.27661,0.0842 -0.43237,0.11279 -0.15576,0.0287 -0.316,0.043 -0.48071,0.043 -0.36882,0 -0.69556,-0.0573 -0.98023,-0.17187 -0.28467,-0.11459 -0.52368,-0.28378 -0.71704,-0.50757 -0.19336,-0.2238 -0.33927,-0.49683 -0.43774,-0.81909 -0.0985,-0.32227 -0.14771,-0.69108 -0.14771,-1.10645 0,-0.47981 0.06,-0.89428 0.17993,-1.24341 0.11996,-0.34912 0.28736,-0.63826 0.5022,-0.86743 0.21484,-0.22916 0.46908,-0.39925 0.7627,-0.51025 0.29361,-0.111 0.61588,-0.1665 0.96679,-0.16651 0.14323,10e-6 0.28377,0.0125 0.42163,0.0376 0.13786,0.0251 0.26677,0.0591 0.38672,0.10205 0.11995,0.043 0.22738,0.0913 0.32227,0.14502 0.0949,0.0537 0.16202,0.10027 0.20141,0.13965 0.0394,0.0394 0.0671,0.0725 0.0833,0.0994 0.0161,0.0269 0.0286,0.0618 0.0376,0.10474 0.009,0.043 0.0161,0.0958 0.0215,0.15845 0.005,0.0627 0.008,0.13876 0.008,0.22827 -10e-6,0.20769 -0.0179,0.3536 -0.0537,0.43774 -0.0358,0.0842 -0.0824,0.12623 -0.13964,0.12622 -0.0609,1e-5 -0.12533,-0.0251 -0.19336,-0.0752 -0.068,-0.0501 -0.14861,-0.10563 -0.2417,-0.16651 -0.0931,-0.0609 -0.20411,-0.11637 -0.33301,-0.1665 -0.12891,-0.0501 -0.28288,-0.0752 -0.46191,-0.0752 -0.35092,0 -0.61947,0.13517 -0.80567,0.40551 -0.1862,0.27035 -0.2793,0.66692 -0.2793,1.1897 0,0.25782 0.0233,0.48519 0.0698,0.68213 0.0465,0.19694 0.11548,0.36165 0.20679,0.49414 0.0913,0.13249 0.20589,0.23185 0.34375,0.2981 0.13785,0.0662 0.29809,0.0994 0.48071,0.0994 0.18619,0 0.34643,-0.0277 0.48071,-0.0832 0.13428,-0.0555 0.25154,-0.11727 0.35181,-0.1853 0.10025,-0.068 0.1844,-0.1298 0.25244,-0.18531 0.068,-0.0555 0.12532,-0.0833 0.17187,-0.0833 0.0322,0 0.0591,0.009 0.0806,0.0269 0.0215,0.0179 0.0385,0.051 0.051,0.0994 0.0125,0.0483 0.0224,0.11011 0.0295,0.1853 0.007,0.0752 0.0107,0.17188 0.0107,0.29004 z"
         style=""
         id="path3794" />
      <path
         d="m 262.61404,364.74478 c 0,0.40821 -0.0537,0.7806 -0.16113,1.11719 -0.10743,0.33659 -0.27035,0.62663 -0.48877,0.87012 -0.21843,0.24349 -0.49235,0.43147 -0.82178,0.56396 -0.32943,0.13249 -0.71435,0.19873 -1.15478,0.19873 -0.42611,0 -0.79671,-0.0591 -1.11182,-0.17724 -0.3151,-0.11817 -0.5765,-0.29004 -0.78418,-0.51563 -0.20768,-0.22558 -0.36165,-0.50309 -0.46191,-0.83252 -0.10026,-0.32942 -0.15039,-0.7054 -0.15039,-1.12793 0,-0.4082 0.0546,-0.78149 0.16382,-1.11987 0.10921,-0.33838 0.27303,-0.62842 0.49145,-0.87012 0.21843,-0.24169 0.49146,-0.42879 0.81909,-0.56128 0.32764,-0.13248 0.71167,-0.19872 1.1521,-0.19873 0.42969,1e-5 0.80208,0.0582 1.11719,0.17456 0.3151,0.11638 0.5756,0.28736 0.7815,0.51294 0.20588,0.22559 0.35896,0.5031 0.45922,0.83252 0.10026,0.32943 0.15039,0.7072 0.15039,1.1333 z m -1.39111,0.0537 c 0,-0.23632 -0.0188,-0.45385 -0.0564,-0.65259 -0.0376,-0.19872 -0.10116,-0.37149 -0.19067,-0.51831 -0.0895,-0.1468 -0.20858,-0.26139 -0.35718,-0.34375 -0.1486,-0.0824 -0.33569,-0.12353 -0.56128,-0.12353 -0.20052,0 -0.37598,0.0367 -0.52636,0.11011 -0.1504,0.0734 -0.27393,0.18083 -0.37061,0.32226 -0.0967,0.14144 -0.16919,0.31153 -0.21753,0.51026 -0.0483,0.19873 -0.0725,0.42521 -0.0725,0.67944 0,0.23633 0.0197,0.45386 0.0591,0.65259 0.0394,0.19873 0.10295,0.3715 0.19068,0.51831 0.0877,0.14681 0.20678,0.2605 0.35718,0.34106 0.15038,0.0806 0.33658,0.12085 0.55859,0.12085 0.2041,0 0.38134,-0.0367 0.53174,-0.11011 0.15038,-0.0734 0.27392,-0.17993 0.3706,-0.31958 0.0967,-0.13964 0.16829,-0.30883 0.21485,-0.50756 0.0465,-0.19873 0.0698,-0.42521 0.0698,-0.67945 z"
         style=""
         id="path3796" />
      <path
         d="m 267.05057,365.83511 c -10e-6,0.27214 -0.051,0.51205 -0.15308,0.71973 -0.10205,0.20768 -0.24618,0.38135 -0.43237,0.521 -0.1862,0.13964 -0.40642,0.24438 -0.66065,0.31421 -0.25423,0.0698 -0.52995,0.10473 -0.82714,0.10473 -0.17904,0 -0.35002,-0.0134 -0.51294,-0.0403 -0.16293,-0.0269 -0.30884,-0.0609 -0.43775,-0.10205 -0.12891,-0.0412 -0.23633,-0.0832 -0.32226,-0.12622 -0.0859,-0.043 -0.1486,-0.0832 -0.18799,-0.12085 -0.0394,-0.0376 -0.0698,-0.0967 -0.0913,-0.17725 -0.0215,-0.0806 -0.0322,-0.19962 -0.0322,-0.35718 0,-0.10384 0.004,-0.18709 0.0107,-0.24975 0.007,-0.0627 0.0179,-0.11279 0.0322,-0.15039 0.0143,-0.0376 0.0322,-0.0627 0.0537,-0.0752 0.0215,-0.0125 0.0483,-0.0188 0.0806,-0.0188 0.0394,0 0.0976,0.0224 0.17456,0.0671 0.077,0.0448 0.17277,0.094 0.28735,0.14771 0.11459,0.0537 0.24797,0.10384 0.40015,0.15039 0.15218,0.0466 0.32495,0.0698 0.51831,0.0698 0.12174,0 0.23006,-0.0125 0.32495,-0.0376 0.0949,-0.0251 0.17724,-0.0609 0.24707,-0.10742 0.0698,-0.0466 0.12264,-0.10563 0.15845,-0.17724 0.0358,-0.0716 0.0537,-0.15397 0.0537,-0.24707 0,-0.10742 -0.0331,-0.19963 -0.0994,-0.27662 -0.0662,-0.077 -0.15397,-0.14412 -0.26318,-0.20141 -0.10921,-0.0573 -0.23275,-0.111 -0.3706,-0.16113 -0.13786,-0.0501 -0.2793,-0.10563 -0.42432,-0.16651 -0.14502,-0.0609 -0.28646,-0.13069 -0.42432,-0.20947 -0.13786,-0.0788 -0.26139,-0.17545 -0.3706,-0.29004 -0.10922,-0.11458 -0.19694,-0.25244 -0.26319,-0.41357 -0.0662,-0.16113 -0.0994,-0.35449 -0.0994,-0.58008 0,-0.22917 0.0448,-0.43953 0.13428,-0.63111 0.0895,-0.19156 0.21842,-0.35538 0.38671,-0.49145 0.1683,-0.13606 0.37329,-0.2417 0.61499,-0.3169 0.2417,-0.0752 0.51294,-0.11278 0.81373,-0.11279 0.15038,1e-5 0.2963,0.0108 0.43774,0.0322 0.14144,0.0215 0.26945,0.0483 0.38403,0.0806 0.11458,0.0322 0.21126,0.0672 0.29004,0.10474 0.0788,0.0376 0.13517,0.0698 0.16919,0.0967 0.034,0.0269 0.0582,0.0537 0.0725,0.0806 0.0143,0.0269 0.0251,0.0591 0.0322,0.0967 0.007,0.0376 0.0134,0.0842 0.0188,0.13964 0.005,0.0555 0.008,0.12444 0.008,0.20679 0,0.0967 -0.003,0.17546 -0.008,0.23633 -0.005,0.0609 -0.0143,0.10922 -0.0269,0.14502 -0.0125,0.0358 -0.0295,0.06 -0.051,0.0725 -0.0215,0.0125 -0.0466,0.0188 -0.0752,0.0188 -0.0322,0 -0.0824,-0.0188 -0.15039,-0.0564 -0.068,-0.0376 -0.15308,-0.0779 -0.25513,-0.12085 -0.10205,-0.043 -0.22022,-0.0833 -0.35449,-0.12085 -0.13428,-0.0376 -0.28736,-0.0564 -0.45923,-0.0564 -0.12175,0 -0.22738,0.0125 -0.31689,0.0376 -0.0895,0.0251 -0.16293,0.0609 -0.22022,0.10743 -0.0573,0.0465 -0.10026,0.10116 -0.1289,0.16381 -0.0287,0.0627 -0.043,0.12981 -0.043,0.20142 0,0.11101 0.034,0.2041 0.10205,0.2793 0.068,0.0752 0.15755,0.14144 0.26855,0.19873 0.111,0.0573 0.23722,0.111 0.37867,0.16113 0.14143,0.0501 0.28466,0.10474 0.42968,0.16382 0.14502,0.0591 0.28825,0.12801 0.42969,0.20679 0.14144,0.0788 0.26766,0.17545 0.37866,0.29003 0.111,0.11459 0.20052,0.25155 0.26856,0.41089 0.068,0.15935 0.10204,0.34823 0.10205,0.56665 z"
         style=""
         id="path3798" />
    </g>
  </g>
</svg>
