<?xml version="1.0" encoding="UTF-8" standalone="no"?>
<!-- Created with Inkscape (http://www.inkscape.org/) -->

<svg
   xmlns:dc="http://purl.org/dc/elements/1.1/"
   xmlns:cc="http://creativecommons.org/ns#"
   xmlns:rdf="http://www.w3.org/1999/02/22-rdf-syntax-ns#"
   xmlns:svg="http://www.w3.org/2000/svg"
   xmlns="http://www.w3.org/2000/svg"
   xmlns:sodipodi="http://sodipodi.sourceforge.net/DTD/sodipodi-0.dtd"
   xmlns:inkscape="http://www.inkscape.org/namespaces/inkscape"
   width="25.000004"
   height="25.000004"
   id="svg3336"
   sodipodi:version="0.32"
   inkscape:version="0.48.0 r9654"
   sodipodi:docname="sin.svg"
   inkscape:output_extension="org.inkscape.output.svg.inkscape"
   version="1.0">
  <defs
     id="defs3338">
    <marker
       inkscape:stockid="Arrow2Mend"
       orient="auto"
       refY="0"
       refX="0"
       id="Arrow2Mend"
       style="overflow:visible">
      <path
         id="path3629"
         style="font-size:12px;fill-rule:evenodd;stroke-width:0.625;stroke-linejoin:round"
         d="M 8.7185878,4.0337352 -2.2072895,0.01601326 8.7185884,-4.0017078 c -1.7454984,2.3720609 -1.7354408,5.6174519 -6e-7,8.035443 l 0,0 z"
         transform="scale(-0.6,-0.6)"
         inkscape:connector-curvature="0" />
    </marker>
    <marker
       inkscape:stockid="DotM"
       orient="auto"
       refY="0"
       refX="0"
       id="DotM"
       style="overflow:visible">
      <path
         id="path3667"
         d="m -2.5,-1 c 0,2.76 -2.24,5 -5,5 -2.76,0 -5,-2.24 -5,-5 0,-2.76 2.24,-5 5,-5 2.76,0 5,2.24 5,5 z"
         style="fill-rule:evenodd;stroke:#000000;stroke-width:1pt;marker-start:none;marker-end:none"
         transform="matrix(0.4,0,0,0.4,2.96,0.4)"
         inkscape:connector-curvature="0" />
    </marker>
    <marker
       inkscape:stockid="DotL"
       orient="auto"
       refY="0"
       refX="0"
       id="DotL"
       style="overflow:visible">
      <path
         id="path3664"
         d="m -2.5,-1 c 0,2.76 -2.24,5 -5,5 -2.76,0 -5,-2.24 -5,-5 0,-2.76 2.24,-5 5,-5 2.76,0 5,2.24 5,5 z"
         style="fill-rule:evenodd;stroke:#000000;stroke-width:1pt;marker-start:none;marker-end:none"
         transform="matrix(0.8,0,0,0.8,5.92,0.8)"
         inkscape:connector-curvature="0" />
    </marker>
    <marker
       style="overflow:visible"
       id="TriangleOutL"
       refX="0"
       refY="0"
       orient="auto"
       inkscape:stockid="TriangleOutL">
      <path
         transform="scale(0.8,0.8)"
         style="fill-rule:evenodd;stroke:#000000;stroke-width:1pt;marker-start:none"
         d="m 5.77,0 -8.65,5 0,-10 8.65,5 z"
         id="path8118"
         inkscape:connector-curvature="0" />
    </marker>
    <inkscape:perspective
       sodipodi:type="inkscape:persp3d"
       inkscape:vp_x="0 : 526.18109 : 1"
       inkscape:vp_y="0 : 1000 : 0"
       inkscape:vp_z="744.09448 : 526.18109 : 1"
       inkscape:persp3d-origin="372.04724 : 350.78739 : 1"
       id="perspective3344" />
  </defs>
  <sodipodi:namedview
     id="base"
     pagecolor="#ffffff"
     bordercolor="#666666"
     borderopacity="1.0"
     gridtolerance="10000"
     guidetolerance="10"
     objecttolerance="10"
     inkscape:pageopacity="0.0"
     inkscape:pageshadow="2"
     inkscape:zoom="16.501798"
     inkscape:cx="26.424982"
     inkscape:cy="9.3802175"
     inkscape:document-units="px"
     inkscape:current-layer="layer1"
     showgrid="false"
     inkscape:window-width="1680"
     inkscape:window-height="982"
     inkscape:window-x="1592"
     inkscape:window-y="142"
     showguides="true"
     inkscape:snap-global="true"
     inkscape:snap-intersection-line-segments="true"
     inkscape:snap-center="true"
     inkscape:window-maximized="1"
     fit-margin-top="0"
     fit-margin-left="0"
     fit-margin-right="0"
     fit-margin-bottom="0">
    <inkscape:grid
       type="xygrid"
       id="grid2405"
       visible="true"
       enabled="true"
       empspacing="5"
       snapvisiblegridlinesonly="true" />
  </sodipodi:namedview>
  <metadata
     id="metadata3341">
    <rdf:RDF>
      <cc:Work
         rdf:about="">
        <dc:format>image/svg+xml</dc:format>
        <dc:type
           rdf:resource="http://purl.org/dc/dcmitype/StillImage" />
        <dc:title></dc:title>
      </cc:Work>
    </rdf:RDF>
  </metadata>
  <g
     inkscape:label="Layer 1"
     inkscape:groupmode="layer"
     id="layer1"
     transform="translate(-247.4661,-352.29314)">
    <path
       sodipodi:type="arc"
       style="fill:#ffffff;fill-opacity:1;stroke:#0000bb;stroke-width:8.11550139999999940;stroke-linecap:square;stroke-miterlimit:3;stroke-opacity:1;stroke-dasharray:none"
       id="path2395"
       sodipodi:cx="155"
       sodipodi:cy="513.07648"
       sodipodi:rx="63.57143"
       sodipodi:ry="63.57143"
       d="m 218.57143,513.07648 c 0,35.10953 -28.4619,63.57143 -63.57143,63.57143 -35.10953,0 -63.57143,-28.4619 -63.57143,-63.57143 0,-35.10953 28.4619,-63.57143 63.57143,-63.57143 35.10953,0 63.57143,28.4619 63.57143,63.57143 z"
       transform="matrix(-0.18483146,0,0,-0.18483146,288.61497,459.62581)" />
    <g
       style="font-size:11px;font-style:normal;font-variant:normal;font-weight:bold;font-stretch:normal;line-height:125%;letter-spacing:0px;word-spacing:0px;fill:#0000bb;fill-opacity:1;stroke:none;font-family:Calibri;-inkscape-font-specification:Calibri Bold"
       id="text2997">
      <path
         d="m 257.64847,366.84219 c -10e-6,0.27214 -0.051,0.51205 -0.15308,0.71973 -0.10205,0.20768 -0.24618,0.38135 -0.43237,0.521 -0.1862,0.13964 -0.40642,0.24438 -0.66065,0.31421 -0.25423,0.0698 -0.52995,0.10473 -0.82714,0.10473 -0.17904,0 -0.35002,-0.0134 -0.51294,-0.0403 -0.16293,-0.0269 -0.30884,-0.0609 -0.43775,-0.10205 -0.1289,-0.0412 -0.23633,-0.0833 -0.32226,-0.12622 -0.0859,-0.043 -0.1486,-0.0833 -0.18799,-0.12085 -0.0394,-0.0376 -0.0698,-0.0967 -0.0913,-0.17725 -0.0215,-0.0806 -0.0322,-0.19962 -0.0322,-0.35718 0,-0.10384 0.004,-0.18709 0.0108,-0.24975 0.007,-0.0627 0.0179,-0.11279 0.0322,-0.15039 0.0143,-0.0376 0.0322,-0.0627 0.0537,-0.0752 0.0215,-0.0125 0.0483,-0.0188 0.0806,-0.0188 0.0394,0 0.0976,0.0224 0.17456,0.0671 0.077,0.0448 0.17277,0.094 0.28735,0.14771 0.11459,0.0537 0.24797,0.10384 0.40015,0.15039 0.15218,0.0465 0.32495,0.0698 0.51831,0.0698 0.12174,0 0.23006,-0.0125 0.32495,-0.0376 0.0949,-0.0251 0.17725,-0.0609 0.24707,-0.10742 0.0698,-0.0465 0.12264,-0.10563 0.15845,-0.17724 0.0358,-0.0716 0.0537,-0.15397 0.0537,-0.24707 0,-0.10742 -0.0331,-0.19963 -0.0994,-0.27662 -0.0662,-0.077 -0.15397,-0.14412 -0.26318,-0.20141 -0.10921,-0.0573 -0.23275,-0.111 -0.3706,-0.16113 -0.13786,-0.0501 -0.2793,-0.10563 -0.42432,-0.16651 -0.14502,-0.0609 -0.28646,-0.13069 -0.42432,-0.20947 -0.13786,-0.0788 -0.26139,-0.17545 -0.3706,-0.29004 -0.10922,-0.11458 -0.19694,-0.25244 -0.26319,-0.41357 -0.0662,-0.16113 -0.0994,-0.35449 -0.0994,-0.58008 0,-0.22917 0.0448,-0.43953 0.13428,-0.63111 0.0895,-0.19156 0.21842,-0.35538 0.38671,-0.49145 0.1683,-0.13606 0.37329,-0.2417 0.61499,-0.3169 0.2417,-0.0752 0.51294,-0.11278 0.81373,-0.11279 0.15038,10e-6 0.2963,0.0107 0.43774,0.0322 0.14144,0.0215 0.26945,0.0483 0.38403,0.0806 0.11458,0.0322 0.21126,0.0672 0.29004,0.10474 0.0788,0.0376 0.13517,0.0698 0.16919,0.0967 0.034,0.0269 0.0582,0.0537 0.0725,0.0806 0.0143,0.0269 0.0251,0.0591 0.0322,0.0967 0.007,0.0376 0.0134,0.0842 0.0188,0.13964 0.005,0.0555 0.008,0.12444 0.008,0.20679 0,0.0967 -0.003,0.17546 -0.008,0.23633 -0.005,0.0609 -0.0143,0.10922 -0.0269,0.14502 -0.0125,0.0358 -0.0295,0.06 -0.051,0.0725 -0.0215,0.0125 -0.0466,0.0188 -0.0752,0.0188 -0.0322,0 -0.0824,-0.0188 -0.15039,-0.0564 -0.068,-0.0376 -0.15308,-0.0779 -0.25513,-0.12085 -0.10205,-0.043 -0.22021,-0.0832 -0.35449,-0.12085 -0.13428,-0.0376 -0.28736,-0.0564 -0.45923,-0.0564 -0.12174,0 -0.22738,0.0125 -0.31689,0.0376 -0.0895,0.0251 -0.16293,0.0609 -0.22022,0.10743 -0.0573,0.0466 -0.10026,0.10116 -0.1289,0.16381 -0.0286,0.0627 -0.043,0.12981 -0.043,0.20142 0,0.11101 0.034,0.20411 0.10205,0.2793 0.068,0.0752 0.15755,0.14144 0.26855,0.19873 0.111,0.0573 0.23722,0.111 0.37867,0.16113 0.14143,0.0501 0.28466,0.10474 0.42968,0.16382 0.14502,0.0591 0.28825,0.12801 0.42969,0.20679 0.14144,0.0788 0.26766,0.17545 0.37866,0.29003 0.111,0.11459 0.20052,0.25155 0.26856,0.41089 0.068,0.15935 0.10204,0.34823 0.10205,0.56665 z"
         style=""
         id="path3801" />
      <path
         d="m 260.01175,368.19571 c 0,0.0358 -0.0107,0.0671 -0.0322,0.094 -0.0215,0.0269 -0.0582,0.0492 -0.1101,0.0671 -0.0519,0.0179 -0.12086,0.0313 -0.20679,0.0403 -0.0859,0.009 -0.19515,0.0134 -0.32764,0.0134 -0.13249,0 -0.2417,-0.004 -0.32764,-0.0134 -0.0859,-0.009 -0.15486,-0.0224 -0.20678,-0.0403 -0.0519,-0.0179 -0.0886,-0.0403 -0.11011,-0.0671 -0.0215,-0.0268 -0.0322,-0.0582 -0.0322,-0.094 l 0,-4.78027 c 0,-0.0358 0.0107,-0.0671 0.0322,-0.094 0.0215,-0.0268 0.0582,-0.0501 0.11011,-0.0698 0.0519,-0.0197 0.12085,-0.0349 0.20678,-0.0457 0.0859,-0.0107 0.19515,-0.0161 0.32764,-0.0161 0.13249,1e-5 0.2417,0.005 0.32764,0.0161 0.0859,0.0107 0.15486,0.026 0.20679,0.0457 0.0519,0.0197 0.0886,0.043 0.1101,0.0698 0.0215,0.0269 0.0322,0.0582 0.0322,0.094 z m 0.10205,-6.41309 c 0,0.27215 -0.0555,0.46013 -0.1665,0.56397 -0.11101,0.10385 -0.3169,0.15577 -0.61768,0.15576 -0.30436,1e-5 -0.50936,-0.0501 -0.61499,-0.15039 -0.10563,-0.10026 -0.15845,-0.28108 -0.15845,-0.54248 0,-0.27213 0.0546,-0.46101 0.16382,-0.56665 0.10921,-0.10563 0.316,-0.15844 0.62036,-0.15845 0.30078,10e-6 0.50488,0.051 0.61231,0.15308 0.10742,0.10206 0.16113,0.28378 0.16113,0.54516 z"
         style=""
         id="path3803" />
      <path
         d="m 265.94144,368.19571 c -10e-6,0.0358 -0.0107,0.0671 -0.0322,0.094 -0.0215,0.0269 -0.0573,0.0492 -0.10742,0.0671 -0.0501,0.0179 -0.11907,0.0313 -0.20679,0.0403 -0.0877,0.009 -0.19605,0.0134 -0.32495,0.0134 -0.13249,0 -0.2426,-0.004 -0.33032,-0.0134 -0.0877,-0.009 -0.15666,-0.0224 -0.20679,-0.0403 -0.0501,-0.0179 -0.0859,-0.0403 -0.10742,-0.0671 -0.0215,-0.0268 -0.0322,-0.0582 -0.0322,-0.094 l 0,-2.73389 c 0,-0.23274 -0.017,-0.41536 -0.051,-0.54785 -0.034,-0.13248 -0.0833,-0.24617 -0.14771,-0.34106 -0.0645,-0.0949 -0.14771,-0.16829 -0.24975,-0.22022 -0.10206,-0.0519 -0.22112,-0.0779 -0.35718,-0.0779 -0.17188,0 -0.34554,0.0627 -0.521,0.18799 -0.17546,0.12533 -0.35807,0.30795 -0.54785,0.54785 l 0,3.18506 c 0,0.0358 -0.0107,0.0671 -0.0322,0.094 -0.0215,0.0269 -0.0582,0.0492 -0.1101,0.0671 -0.0519,0.0179 -0.12085,0.0313 -0.20679,0.0403 -0.0859,0.009 -0.19515,0.0134 -0.32764,0.0134 -0.13249,0 -0.2417,-0.004 -0.32763,-0.0134 -0.0859,-0.009 -0.15487,-0.0224 -0.20679,-0.0403 -0.0519,-0.0179 -0.0886,-0.0403 -0.11011,-0.0671 -0.0215,-0.0268 -0.0322,-0.0582 -0.0322,-0.094 l 0,-4.79102 c 0,-0.0358 0.009,-0.0671 0.0269,-0.094 0.0179,-0.0269 0.0501,-0.0492 0.0967,-0.0671 0.0465,-0.0179 0.10653,-0.0313 0.17993,-0.0403 0.0734,-0.009 0.16561,-0.0134 0.27661,-0.0134 0.11458,1e-5 0.20947,0.004 0.28467,0.0134 0.0752,0.009 0.13338,0.0224 0.17456,0.0403 0.0412,0.0179 0.0707,0.0403 0.0886,0.0671 0.0179,0.0269 0.0269,0.0582 0.0269,0.094 l 0,0.55323 c 0.26497,-0.28646 0.53442,-0.5013 0.80835,-0.64453 0.27392,-0.14323 0.55949,-0.21484 0.85669,-0.21485 0.32584,10e-6 0.60066,0.0537 0.82446,0.16113 0.22379,0.10743 0.40462,0.25335 0.54248,0.43775 0.13786,0.18441 0.23722,0.40015 0.2981,0.64722 0.0609,0.24707 0.0913,0.54427 0.0913,0.8916 z"
         style=""
         id="path3805" />
    </g>
  </g>
</svg>
