<?xml version="1.0" encoding="UTF-8" standalone="no"?>
<!-- Created with Inkscape (http://www.inkscape.org/) -->

<svg
   xmlns:dc="http://purl.org/dc/elements/1.1/"
   xmlns:cc="http://creativecommons.org/ns#"
   xmlns:rdf="http://www.w3.org/1999/02/22-rdf-syntax-ns#"
   xmlns:svg="http://www.w3.org/2000/svg"
   xmlns="http://www.w3.org/2000/svg"
   xmlns:sodipodi="http://sodipodi.sourceforge.net/DTD/sodipodi-0.dtd"
   xmlns:inkscape="http://www.inkscape.org/namespaces/inkscape"
   width="59.978321"
   height="60.027195"
   id="svg4568"
   sodipodi:version="0.32"
   inkscape:version="0.48.3.1 r9886"
   version="1.0"
   sodipodi:docname="motor.svg"
   inkscape:output_extension="org.inkscape.output.svg.inkscape">
  <defs
     id="defs4570">
    <inkscape:perspective
       sodipodi:type="inkscape:persp3d"
       inkscape:vp_x="0 : 526.18109 : 1"
       inkscape:vp_y="0 : 1000 : 0"
       inkscape:vp_z="744.09448 : 526.18109 : 1"
       inkscape:persp3d-origin="372.04724 : 350.78739 : 1"
       id="perspective4576" />
    <inkscape:perspective
       id="perspective3635"
       inkscape:persp3d-origin="0.5 : 0.33333333 : 1"
       inkscape:vp_z="1 : 0.5 : 1"
       inkscape:vp_y="0 : 1000 : 0"
       inkscape:vp_x="0 : 0.5 : 1"
       sodipodi:type="inkscape:persp3d" />
    <inkscape:perspective
       id="perspective3931"
       inkscape:persp3d-origin="0.5 : 0.33333333 : 1"
       inkscape:vp_z="1 : 0.5 : 1"
       inkscape:vp_y="0 : 1000 : 0"
       inkscape:vp_x="0 : 0.5 : 1"
       sodipodi:type="inkscape:persp3d" />
    <inkscape:perspective
       id="perspective3614"
       inkscape:persp3d-origin="0.5 : 0.33333333 : 1"
       inkscape:vp_z="1 : 0.5 : 1"
       inkscape:vp_y="0 : 1000 : 0"
       inkscape:vp_x="0 : 0.5 : 1"
       sodipodi:type="inkscape:persp3d" />
  </defs>
  <sodipodi:namedview
     id="base"
     pagecolor="#ffffff"
     bordercolor="#666666"
     borderopacity="1.0"
     gridtolerance="10000"
     guidetolerance="10"
     objecttolerance="10"
     inkscape:pageopacity="0.0"
     inkscape:pageshadow="2"
     inkscape:zoom="2.8"
     inkscape:cx="-170.13872"
     inkscape:cy="22.623295"
     inkscape:document-units="px"
     inkscape:current-layer="layer1"
     showgrid="false"
     inkscape:window-width="1280"
     inkscape:window-height="776"
     inkscape:window-x="0"
     inkscape:window-y="24"
     inkscape:window-maximized="1"
     fit-margin-top="0"
     fit-margin-left="0"
     fit-margin-right="0"
     fit-margin-bottom="0" />
  <metadata
     id="metadata4573">
    <rdf:RDF>
      <cc:Work
         rdf:about="">
        <dc:format>image/svg+xml</dc:format>
        <dc:type
           rdf:resource="http://purl.org/dc/dcmitype/StillImage" />
        <dc:title />
      </cc:Work>
    </rdf:RDF>
  </metadata>
  <g
     inkscape:label="Layer 1"
     inkscape:groupmode="layer"
     id="layer1"
     transform="translate(-428.58224,-269.48692)">
    <ellipse
       cx="18.8438"
       cy="21.018499"
       rx="18.8438"
       ry="18.8438"
       class="st1"
       id="ellipse4034"
       sodipodi:cx="18.8438"
       sodipodi:cy="21.018499"
       sodipodi:rx="18.8438"
       sodipodi:ry="18.8438"
       style="fill:#ffffff;fill-opacity:1;stroke:#000000;stroke-width:0.95815908;stroke-linecap:round;stroke-linejoin:round;stroke-miterlimit:3;stroke-dasharray:none"
       transform="matrix(1.5655027,0,0,1.5655014,429.07146,266.60053)"
       d="m 37.687599,21.018499 c 0,10.407144 -8.436656,18.8438 -18.843799,18.8438 C 8.4366564,39.862299 0,31.425643 0,21.018499 0,10.611356 8.4366564,2.1746998 18.8438,2.1746998 c 10.407143,0 18.843799,8.4366562 18.843799,18.8437992 z" />
    <g
       style="font-size:40px;font-style:normal;font-variant:normal;font-weight:bold;font-stretch:normal;line-height:125%;letter-spacing:0px;word-spacing:0px;fill:#000000;fill-opacity:1;stroke:none;font-family:ScalaSans;-inkscape-font-specification:ScalaSans Bold"
       id="text3068">
      <path
         d="m 472.31171,311.57535 c -3e-5,0.10416 -0.0261,0.19531 -0.0781,0.27344 -0.0521,0.0781 -0.14326,0.14322 -0.27344,0.19531 -0.13023,0.0391 -0.29951,0.0716 -0.50781,0.0976 -0.19534,0.0391 -0.45576,0.0586 -0.78125,0.0586 -0.29951,0 -0.55992,-0.0195 -0.78125,-0.0586 -0.20836,-0.026 -0.37763,-0.0586 -0.50781,-0.0976 -0.11722,-0.0521 -0.20185,-0.11719 -0.25391,-0.19531 -0.0521,-0.0781 -0.0781,-0.16928 -0.0781,-0.27344 l 0,-22.01172 -0.0391,0 -9.00391,22.10937 c -0.0391,0.0911 -0.0977,0.16928 -0.17578,0.23438 -0.0651,0.0651 -0.16929,0.1237 -0.3125,0.17578 -0.13023,0.0391 -0.29299,0.0651 -0.48828,0.0781 -0.18231,0.026 -0.40367,0.0391 -0.66407,0.0391 -0.27345,0 -0.50782,-0.013 -0.70312,-0.0391 -0.19533,-0.026 -0.35809,-0.0586 -0.48828,-0.0977 -0.13023,-0.0521 -0.23439,-0.11068 -0.3125,-0.17578 -0.0651,-0.0651 -0.11069,-0.13672 -0.13672,-0.21485 l -8.61328,-22.10937 -0.0195,0 0,22.01172 c -1e-5,0.10416 -0.026,0.19531 -0.0781,0.27344 -0.0521,0.0781 -0.14323,0.14322 -0.27344,0.19531 -0.13021,0.0391 -0.29948,0.0716 -0.50781,0.0976 -0.20834,0.0391 -0.47526,0.0586 -0.80078,0.0586 -0.3125,0 -0.57292,-0.0195 -0.78125,-0.0586 -0.20834,-0.026 -0.37761,-0.0586 -0.50781,-0.0976 -0.11719,-0.0521 -0.20183,-0.11719 -0.25391,-0.19531 -0.0391,-0.0781 -0.0586,-0.16928 -0.0586,-0.27344 l 0,-23.24219 c -10e-6,-0.54685 0.14322,-0.93747 0.42969,-1.17187 0.28645,-0.23435 0.60546,-0.35154 0.95703,-0.35157 l 2.03125,0 c 0.41666,3e-5 0.78124,0.0391 1.09375,0.11719 0.31249,0.0781 0.58593,0.20185 0.82031,0.37109 0.23437,0.1693 0.42968,0.38414 0.58594,0.64454 0.15624,0.26044 0.29296,0.56643 0.41015,0.91796 l 7.32422,18.30079 0.0977,0 7.61719,-18.24219 c 0.1432,-0.3906 0.29945,-0.72263 0.46875,-0.9961 0.16924,-0.27341 0.35153,-0.48825 0.54687,-0.64453 0.20831,-0.16924 0.43617,-0.28643 0.68359,-0.35156 0.24737,-0.0781 0.53383,-0.11716 0.85938,-0.11719 l 2.12891,0 c 0.19528,3e-5 0.37757,0.0326 0.54687,0.0977 0.18226,0.0521 0.332,0.14325 0.44922,0.27344 0.13018,0.11721 0.23434,0.27346 0.3125,0.46875 0.0781,0.18231 0.11716,0.41018 0.11719,0.68359 l 0,23.24219"
         style="font-weight:normal;font-family:Calibri;-inkscape-font-specification:Calibri"
         id="path2990" />
    </g>
  </g>
</svg>
