<?xml version="1.0" encoding="UTF-8" standalone="no"?>
<!-- Created with Inkscape (http://www.inkscape.org/) -->

<svg
   xmlns:dc="http://purl.org/dc/elements/1.1/"
   xmlns:cc="http://creativecommons.org/ns#"
   xmlns:rdf="http://www.w3.org/1999/02/22-rdf-syntax-ns#"
   xmlns:svg="http://www.w3.org/2000/svg"
   xmlns="http://www.w3.org/2000/svg"
   xmlns:sodipodi="http://sodipodi.sourceforge.net/DTD/sodipodi-0.dtd"
   xmlns:inkscape="http://www.inkscape.org/namespaces/inkscape"
   width="36.000698"
   height="36.000698"
   id="svg4097"
   version="1.1"
   inkscape:version="0.48.0 r9654"
   sodipodi:docname="flowsensor_user.svg">
  <defs
     id="defs4099" />
  <sodipodi:namedview
     id="base"
     pagecolor="#ffffff"
     bordercolor="#666666"
     borderopacity="1.0"
     inkscape:pageopacity="0.0"
     inkscape:pageshadow="2"
     inkscape:zoom="5.373224"
     inkscape:cx="87.04471"
     inkscape:cy="21.723363"
     inkscape:document-units="px"
     inkscape:current-layer="layer1"
     showgrid="false"
     inkscape:window-width="1680"
     inkscape:window-height="982"
     inkscape:window-x="-8"
     inkscape:window-y="-8"
     inkscape:window-maximized="1"
     fit-margin-top="0"
     fit-margin-left="0"
     fit-margin-right="0"
     fit-margin-bottom="0" />
  <metadata
     id="metadata4102">
    <rdf:RDF>
      <cc:Work
         rdf:about="">
        <dc:format>image/svg+xml</dc:format>
        <dc:type
           rdf:resource="http://purl.org/dc/dcmitype/StillImage" />
        <dc:title />
      </cc:Work>
    </rdf:RDF>
  </metadata>
  <g
     inkscape:label="Layer 1"
     inkscape:groupmode="layer"
     id="layer1"
     transform="translate(-354.57099,-487.52014)">
    <path
       sodipodi:type="arc"
       style="fill:#ffffff;fill-opacity:1;stroke:#000000;stroke-width:3.12200499;stroke-linecap:square;stroke-miterlimit:4;stroke-opacity:1;stroke-dasharray:none;stroke-dashoffset:0"
       id="path4105"
       sodipodi:cx="220.27011"
       sodipodi:cy="486.64642"
       sodipodi:rx="35.903057"
       sodipodi:ry="35.903057"
       d="m 256.17317,486.64642 a 35.903057,35.903057 0 1 1 -71.80612,0 35.903057,35.903057 0 1 1 71.80612,0 z"
       transform="matrix(0.48046048,0,0,0.48046048,266.73991,271.70647)" />
    <path
       style="fill:none;stroke:#000000;stroke-width:1.5;stroke-linecap:butt;stroke-linejoin:miter;stroke-miterlimit:4;stroke-opacity:1;stroke-dasharray:none"
       d="m 372.57346,487.69261 0,7.21227"
       id="path4615"
       inkscape:connector-curvature="0" />
    <path
       sodipodi:type="arc"
       style="fill:#008000;fill-opacity:1;fill-rule:nonzero;stroke:#000000;stroke-width:0.61012751;stroke-linecap:square;stroke-miterlimit:4;stroke-opacity:1;stroke-dasharray:none;stroke-dashoffset:0"
       id="path4818"
       sodipodi:cx="368.6015"
       sodipodi:cy="503.1391"
       sodipodi:rx="0.50823301"
       sodipodi:ry="0.50823301"
       d="m 369.10973,503.1391 c 0,0.28069 -0.22754,0.50823 -0.50823,0.50823 -0.28069,0 -0.50823,-0.22754 -0.50823,-0.50823 0,-0.28069 0.22754,-0.50823 0.50823,-0.50823 0.28069,0 0.50823,0.22754 0.50823,0.50823 z"
       transform="matrix(1.6390017,0,0,1.6390017,-231.56505,-319.12263)" />
    <path
       sodipodi:nodetypes="cc"
       style="fill:none;stroke:#000000;stroke-width:1.5;stroke-linecap:square;stroke-linejoin:miter;stroke-miterlimit:4;stroke-opacity:1;stroke-dasharray:none"
       d="m 374.72646,497.60228 -2.04071,7.56986"
       id="path4790"
       inkscape:connector-curvature="0" />
    <path
       sodipodi:type="star"
       style="fill:#000000;fill-opacity:1;fill-rule:nonzero;stroke:none;stroke-width:0.67995254;stroke-miterlimit:4;stroke-dasharray:none"
       id="path2422"
       sodipodi:sides="3"
       sodipodi:cx="3.9285715"
       sodipodi:cy="4.1964326"
       sodipodi:r1="2.1961381"
       sodipodi:r2="1.0980691"
       sodipodi:arg1="0.52359878"
       sodipodi:arg2="1.5707963"
       inkscape:flatsided="true"
       inkscape:rounded="0"
       inkscape:randomized="0"
       d="m 5.8304829,5.2945017 -3.8038229,0 1.9019115,-3.2942073 z"
       transform="matrix(1.6624767,0.43398964,-0.71478797,2.7407215,371.35603,484.02628)" />
    <path
       style="fill:none;stroke:#000000;stroke-width:1.5;stroke-linecap:butt;stroke-linejoin:miter;stroke-miterlimit:4;stroke-opacity:1;stroke-dasharray:none"
       d="m 381.57223,490.00154 -3.60613,6.24601"
       id="path4615-7-9-4"
       inkscape:connector-curvature="0" />
    <path
       style="fill:none;stroke:#000000;stroke-width:1.5;stroke-linecap:butt;stroke-linejoin:miter;stroke-miterlimit:4;stroke-opacity:1;stroke-dasharray:none"
       d="m 381.88939,500.21865 6.24603,-3.60614"
       id="path4615-5-4-0"
       inkscape:connector-curvature="0"
       inkscape:transform-center-x="7" />
    <path
       style="fill:none;stroke:#000000;stroke-width:1.5;stroke-linecap:butt;stroke-linejoin:miter;stroke-miterlimit:4;stroke-opacity:1;stroke-dasharray:none"
       d="m 363.57525,490.00216 3.60613,6.24601"
       id="path4615-7-9-4-2"
       inkscape:connector-curvature="0" />
    <path
       style="fill:none;stroke:#000000;stroke-width:1.5;stroke-linecap:butt;stroke-linejoin:miter;stroke-miterlimit:4;stroke-opacity:1;stroke-dasharray:none"
       d="m 363.25809,500.21927 -6.24603,-3.60614"
       id="path4615-5-4-0-3"
       inkscape:connector-curvature="0"
       inkscape:transform-center-x="7" />
    <g
       style="font-size:14px;font-style:normal;font-variant:normal;font-weight:normal;font-stretch:normal;line-height:125%;letter-spacing:0px;word-spacing:0px;fill:#000000;fill-opacity:1;stroke:none;font-family:Arial;-inkscape-font-specification:Arial"
       id="text3995">
      <path
         d="m 376.21002,519.59338 c -10e-6,0.0469 -0.0132,0.0879 -0.0395,0.12305 -0.0264,0.0352 -0.0659,0.0645 -0.11865,0.0879 -0.0527,0.0234 -0.12599,0.041 -0.21973,0.0527 -0.0938,0.0117 -0.21094,0.0176 -0.35156,0.0176 -0.14649,0 -0.26514,-0.006 -0.35596,-0.0176 -0.0908,-0.0117 -0.16553,-0.0293 -0.22412,-0.0527 -0.0586,-0.0234 -0.0981,-0.0527 -0.11865,-0.0879 -0.0205,-0.0352 -0.0308,-0.0762 -0.0308,-0.12305 l 0,-4.05175 c -0.24024,0.24023 -0.46876,0.44384 -0.68555,0.61084 -0.2168,0.16699 -0.43067,0.30175 -0.6416,0.40429 -0.21094,0.10254 -0.42335,0.17578 -0.63721,0.21973 -0.21387,0.0439 -0.43506,0.0659 -0.66357,0.0659 -0.57422,0 -1.06348,-0.1128 -1.46778,-0.33838 -0.40429,-0.22559 -0.73388,-0.53027 -0.98877,-0.91406 -0.25488,-0.38379 -0.44091,-0.83496 -0.5581,-1.35352 -0.11719,-0.51855 -0.17578,-1.06494 -0.17578,-1.63916 0,-0.67968 0.0732,-1.29345 0.21972,-1.84131 0.14649,-0.54784 0.36475,-1.01513 0.65479,-1.40185 0.29004,-0.38672 0.64746,-0.68408 1.07227,-0.89209 0.4248,-0.208 0.91552,-0.31201 1.47216,-0.31202 0.23437,1e-5 0.4541,0.0249 0.65918,0.0747 0.20508,0.0498 0.40869,0.12892 0.61084,0.23731 0.20215,0.1084 0.40722,0.24903 0.61524,0.42187 0.208,0.17286 0.43505,0.3794 0.68115,0.61963 l 0,-0.95801 c -10e-6,-0.0527 0.0117,-0.0952 0.0352,-0.12744 0.0234,-0.0322 0.0615,-0.06 0.11425,-0.0835 0.0527,-0.0234 0.12011,-0.0395 0.20215,-0.0483 0.082,-0.009 0.18457,-0.0132 0.30762,-0.0132 0.11718,10e-6 0.21679,0.004 0.29883,0.0132 0.082,0.009 0.14794,0.0249 0.19775,0.0483 0.0498,0.0235 0.085,0.0513 0.10547,0.0835 0.0205,0.0322 0.0308,0.0747 0.0308,0.12744 z m -1.45898,-8.70117 c -0.39259,-0.48632 -0.77198,-0.85693 -1.13819,-1.11181 -0.36621,-0.25488 -0.74854,-0.38232 -1.14697,-0.38233 -0.36914,10e-6 -0.68262,0.0879 -0.94043,0.26367 -0.25781,0.17579 -0.46729,0.40724 -0.62842,0.69434 -0.16113,0.28711 -0.27832,0.61231 -0.35156,0.97559 -0.0732,0.36328 -0.10986,0.73242 -0.10986,1.10742 0,0.4043 0.0308,0.79688 0.0923,1.17773 0.0615,0.38086 0.16846,0.71778 0.3208,1.01074 0.15234,0.29297 0.35449,0.52881 0.60645,0.70752 0.25195,0.17872 0.56835,0.26807 0.94922,0.26807 0.19335,0 0.37939,-0.0264 0.5581,-0.0791 0.17871,-0.0527 0.36181,-0.14063 0.54932,-0.26367 0.18749,-0.12305 0.38378,-0.28272 0.58887,-0.47901 0.20507,-0.19628 0.42187,-0.43798 0.65039,-0.7251 z"
         style="font-size:18px;fill:#008000;font-family:Calibri;-inkscape-font-specification:Calibri"
         id="path4003" />
    </g>
  </g>
</svg>
