<?xml version="1.0" encoding="UTF-8" standalone="no"?>
<!-- Created with Inkscape (http://www.inkscape.org/) -->

<svg
   xmlns:dc="http://purl.org/dc/elements/1.1/"
   xmlns:cc="http://creativecommons.org/ns#"
   xmlns:rdf="http://www.w3.org/1999/02/22-rdf-syntax-ns#"
   xmlns:svg="http://www.w3.org/2000/svg"
   xmlns="http://www.w3.org/2000/svg"
   xmlns:sodipodi="http://sodipodi.sourceforge.net/DTD/sodipodi-0.dtd"
   xmlns:inkscape="http://www.inkscape.org/namespaces/inkscape"
   width="36.000698"
   height="36.000698"
   id="svg4097"
   version="1.1"
   inkscape:version="0.48.3.1 r9886"
   sodipodi:docname="HydraulicPowerSensor_user.svg">
  <defs
     id="defs4099" />
  <sodipodi:namedview
     id="base"
     pagecolor="#ffffff"
     bordercolor="#666666"
     borderopacity="1.0"
     inkscape:pageopacity="0.0"
     inkscape:pageshadow="2"
     inkscape:zoom="8.5970555"
     inkscape:cx="38.222512"
     inkscape:cy="-18.052867"
     inkscape:document-units="px"
     inkscape:current-layer="layer1"
     showgrid="false"
     inkscape:window-width="1600"
     inkscape:window-height="1145"
     inkscape:window-x="-2"
     inkscape:window-y="-3"
     inkscape:window-maximized="1"
     fit-margin-top="0"
     fit-margin-left="0"
     fit-margin-right="0"
     fit-margin-bottom="0"
     showguides="true"
     inkscape:guide-bbox="true" />
  <metadata
     id="metadata4102">
    <rdf:RDF>
      <cc:Work
         rdf:about="">
        <dc:format>image/svg+xml</dc:format>
        <dc:type
           rdf:resource="http://purl.org/dc/dcmitype/StillImage" />
        <dc:title />
      </cc:Work>
    </rdf:RDF>
  </metadata>
  <g
     inkscape:label="Layer 1"
     inkscape:groupmode="layer"
     id="layer1"
     transform="translate(-354.57099,-487.52014)">
    <path
       sodipodi:type="arc"
       style="fill:#ffffff;fill-opacity:1;stroke:#000000;stroke-width:3.12200499;stroke-linecap:square;stroke-miterlimit:4;stroke-opacity:1;stroke-dasharray:none;stroke-dashoffset:0"
       id="path4105"
       sodipodi:cx="220.27011"
       sodipodi:cy="486.64642"
       sodipodi:rx="35.903057"
       sodipodi:ry="35.903057"
       d="m 256.17317,486.64642 c 0,19.82871 -16.07435,35.90306 -35.90306,35.90306 -19.82871,0 -35.90306,-16.07435 -35.90306,-35.90306 0,-19.82871 16.07435,-35.90305 35.90306,-35.90305 19.82871,0 35.90306,16.07434 35.90306,35.90305 z"
       transform="matrix(0.48046048,0,0,0.48046048,266.73991,271.70647)" />
    <g
       style="font-size:18px;font-style:normal;font-variant:normal;font-weight:normal;font-stretch:normal;line-height:125%;letter-spacing:0px;word-spacing:0px;fill:#000000;fill-opacity:1;stroke:none;font-family:Serif;-inkscape-font-specification:Serif"
       id="text2994">
      <path
         d="m 370.78925,513.89368 2.32031,0 c 0.87304,0 1.53808,-0.23437 1.99512,-0.70313 0.45702,-0.4746 0.68553,-1.15722 0.68554,-2.04785 -10e-6,-0.89647 -0.22852,-1.57909 -0.68554,-2.04785 -0.45704,-0.46874 -1.12208,-0.70311 -1.99512,-0.70313 l -2.32031,0 0,5.50196 m -3.45411,6.67968 0,-0.93164 1.66993,0 0,-11.25 -1.66993,0 0,-0.94043 6.20508,0 c 1.31249,2e-5 2.35253,0.334 3.12012,1.00196 0.76757,0.66212 1.15136,1.5586 1.15137,2.68945 -1e-5,1.12501 -0.3838,2.02149 -1.15137,2.68945 -0.76759,0.66798 -1.80763,1.00196 -3.12012,1.00196 l -2.75097,0 0,4.80761 2.03027,0 0,0.93164 -5.48438,0"
         style=""
         id="path2999" />
    </g>
    <path
       style="fill:none;stroke:#000000;stroke-width:1.5;stroke-linecap:butt;stroke-linejoin:miter;stroke-miterlimit:4;stroke-opacity:1;stroke-dasharray:none"
       d="m 372.57346,487.69261 0,7.21227"
       id="path4615"
       inkscape:connector-curvature="0" />
    <path
       sodipodi:type="arc"
       style="fill:#008000;fill-opacity:1;fill-rule:nonzero;stroke:#000000;stroke-width:0.61012751;stroke-linecap:square;stroke-miterlimit:4;stroke-opacity:1;stroke-dasharray:none;stroke-dashoffset:0"
       id="path4818"
       sodipodi:cx="368.6015"
       sodipodi:cy="503.1391"
       sodipodi:rx="0.50823301"
       sodipodi:ry="0.50823301"
       d="m 369.10973,503.1391 c 0,0.28069 -0.22754,0.50823 -0.50823,0.50823 -0.28069,0 -0.50823,-0.22754 -0.50823,-0.50823 0,-0.28069 0.22754,-0.50823 0.50823,-0.50823 0.28069,0 0.50823,0.22754 0.50823,0.50823 z"
       transform="matrix(1.6390017,0,0,1.6390017,-231.56505,-319.12263)" />
    <path
       sodipodi:nodetypes="cc"
       style="fill:none;stroke:#000000;stroke-width:1.5;stroke-linecap:square;stroke-linejoin:miter;stroke-miterlimit:4;stroke-opacity:1;stroke-dasharray:none"
       d="m 374.72646,497.60228 -2.04071,7.56986"
       id="path4790"
       inkscape:connector-curvature="0" />
    <path
       sodipodi:type="star"
       style="fill:#000000;fill-opacity:1;fill-rule:nonzero;stroke:none;stroke-width:0.67995254;stroke-miterlimit:4;stroke-dasharray:none"
       id="path2422"
       sodipodi:sides="3"
       sodipodi:cx="3.9285715"
       sodipodi:cy="4.1964326"
       sodipodi:r1="2.1961381"
       sodipodi:r2="1.0980691"
       sodipodi:arg1="0.52359878"
       sodipodi:arg2="1.5707963"
       inkscape:flatsided="true"
       inkscape:rounded="0"
       inkscape:randomized="0"
       d="m 5.8304829,5.2945017 -3.8038229,0 1.9019115,-3.2942073 z"
       transform="matrix(1.6624767,0.43398964,-0.71478797,2.7407215,371.35603,484.02628)" />
    <path
       style="fill:none;stroke:#000000;stroke-width:1.5;stroke-linecap:butt;stroke-linejoin:miter;stroke-miterlimit:4;stroke-opacity:1;stroke-dasharray:none"
       d="m 381.57223,490.00154 -3.60613,6.24601"
       id="path4615-7-9-4"
       inkscape:connector-curvature="0" />
    <path
       style="fill:none;stroke:#000000;stroke-width:1.5;stroke-linecap:butt;stroke-linejoin:miter;stroke-miterlimit:4;stroke-opacity:1;stroke-dasharray:none"
       d="m 381.88939,500.21865 6.24603,-3.60614"
       id="path4615-5-4-0"
       inkscape:connector-curvature="0"
       inkscape:transform-center-x="7" />
    <path
       style="fill:none;stroke:#000000;stroke-width:1.5;stroke-linecap:butt;stroke-linejoin:miter;stroke-miterlimit:4;stroke-opacity:1;stroke-dasharray:none"
       d="m 363.57525,490.00216 3.60613,6.24601"
       id="path4615-7-9-4-2"
       inkscape:connector-curvature="0" />
    <path
       style="fill:none;stroke:#000000;stroke-width:1.5;stroke-linecap:butt;stroke-linejoin:miter;stroke-miterlimit:4;stroke-opacity:1;stroke-dasharray:none"
       d="m 363.25809,500.21927 -6.24603,-3.60614"
       id="path4615-5-4-0-3"
       inkscape:connector-curvature="0"
       inkscape:transform-center-x="7" />
  </g>
</svg>
