<?xml version="1.0" encoding="UTF-8" standalone="no"?>
<!-- Created with Inkscape (http://www.inkscape.org/) -->

<svg
   xmlns:dc="http://purl.org/dc/elements/1.1/"
   xmlns:cc="http://creativecommons.org/ns#"
   xmlns:rdf="http://www.w3.org/1999/02/22-rdf-syntax-ns#"
   xmlns:svg="http://www.w3.org/2000/svg"
   xmlns="http://www.w3.org/2000/svg"
   xmlns:sodipodi="http://sodipodi.sourceforge.net/DTD/sodipodi-0.dtd"
   xmlns:inkscape="http://www.inkscape.org/namespaces/inkscape"
   id="svg2"
   version="1.1"
   inkscape:version="0.92.3 (2405546, 2018-03-11)"
   width="24"
   height="24"
   sodipodi:docname="Hopsan-ResetTimeVector.svg"
   inkscape:export-filename="/home/petno25/svn/hopsan/trunk/HOPSAN++/HopsanGUI/graphics/uiicons/svg/Hopsan-AxisScale.png"
   inkscape:export-xdpi="90"
   inkscape:export-ydpi="90">
  <sodipodi:namedview
     pagecolor="#ffffff"
     bordercolor="#666666"
     borderopacity="1"
     objecttolerance="10"
     gridtolerance="10"
     guidetolerance="10"
     inkscape:pageopacity="0"
     inkscape:pageshadow="2"
     inkscape:window-width="1680"
     inkscape:window-height="986"
     id="namedview4"
     showgrid="true"
     inkscape:zoom="6.9532168"
     inkscape:cx="16.274776"
     inkscape:cy="-15.946612"
     inkscape:window-x="0"
     inkscape:window-y="27"
     inkscape:window-maximized="1"
     inkscape:current-layer="svg2">
    <inkscape:grid
       type="xygrid"
       id="grid5190"
       empspacing="5"
       visible="true"
       enabled="true"
       snapvisiblegridlinesonly="true" />
  </sodipodi:namedview>
  <metadata
     id="metadata8">
    <rdf:RDF>
      <cc:Work
         rdf:about="">
        <dc:format>image/svg+xml</dc:format>
        <dc:type
           rdf:resource="http://purl.org/dc/dcmitype/StillImage" />
        <dc:title></dc:title>
      </cc:Work>
    </rdf:RDF>
  </metadata>
  <defs
     id="defs6">
    <marker
       inkscape:stockid="TriangleInSK"
       orient="auto"
       refY="0.0"
       refX="0.0"
       id="TriangleInSK"
       style="overflow:visible">
      <path
         id="path2998"
         d="M 5.77,0.0 L -2.88,5.0 L -2.88,-5.0 L 5.77,0.0 z "
         style="stroke:#606060;stroke-width:1.0pt;fill:#606060;fill-rule:evenodd"
         transform="scale(-0.2)" />
    </marker>
    <marker
       inkscape:stockid="TriangleOutSC"
       orient="auto"
       refY="0.0"
       refX="0.0"
       id="TriangleOutSC"
       style="overflow:visible">
      <path
         id="path3001"
         d="M 5.77,0.0 L -2.88,5.0 L -2.88,-5.0 L 5.77,0.0 z "
         style="stroke:#606060;stroke-width:1.0pt;fill:#606060;fill-rule:evenodd"
         transform="scale(0.2)" />
    </marker>
    <marker
       inkscape:stockid="TriangleInSm"
       orient="auto"
       refY="0.0"
       refX="0.0"
       id="TriangleInSm"
       style="overflow:visible">
      <path
         id="path3038"
         d="M 5.77,0.0 L -2.88,5.0 L -2.88,-5.0 L 5.77,0.0 z "
         style="stroke:#000080;stroke-width:1.0pt;fill:#000080;fill-rule:evenodd"
         transform="scale(-0.2)" />
    </marker>
    <marker
       inkscape:stockid="TriangleOutS2"
       orient="auto"
       refY="0.0"
       refX="0.0"
       id="TriangleOutS2"
       style="overflow:visible">
      <path
         id="path3041"
         d="M 5.77,0.0 L -2.88,5.0 L -2.88,-5.0 L 5.77,0.0 z "
         style="stroke:#000080;stroke-width:1.0pt;fill:#000080;fill-rule:evenodd"
         transform="scale(0.2)" />
    </marker>
  </defs>
  <g
     aria-label="f(t)"
     style="font-style:normal;font-weight:normal;font-size:40px;line-height:1.25;font-family:sans-serif;letter-spacing:0px;word-spacing:0px;fill:#000000;fill-opacity:1;stroke:none"
     id="text8047">
    <path
       d="M 5.5142188,9.6900001 V 11.05 h -1.74 v 9.12 h -1.66 V 11.05 H 0.71421876 V 9.6900001 H 2.1142188 v -1.78 q 0,-1.12 0.64,-1.74 0.66,-0.64 1.82,-0.64 0.46,0 0.94,0.1 v 1.38 q -0.38,-0.02 -0.58,-0.02 -1.16,0 -1.16,1.06 v 1.64 z"
       style="font-style:normal;font-variant:normal;font-weight:normal;font-stretch:normal;font-size:20px;font-family:FreeSans;-inkscape-font-specification:FreeSans"
       id="path8067" />
    <path
       d="m 10.620156,2.5900001 h 1.1 q -2.7399997,4.42 -2.7399997,9.3999999 0,4.96 2.7399997,9.42 h -1.1 q -1.4999997,-1.96 -2.3799997,-4.5 -0.88,-2.56 -0.88,-4.92 0,-2.3599999 0.88,-4.8999999 0.88,-2.54 2.3799997,-4.5 z"
       style="font-style:normal;font-variant:normal;font-weight:normal;font-stretch:normal;font-size:20px;font-family:FreeSans;-inkscape-font-specification:FreeSans"
       id="path8069" />
    <path
       d="M 17.779844,9.6900001 V 11.05 h -1.72 v 7.18 q 0,0.56 0.18,0.76 0.2,0.18 0.74,0.18 0.5,0 0.8,-0.08 v 1.4 q -0.78,0.14 -1.36,0.14 -0.98,0 -1.5,-0.44 -0.52,-0.42 -0.52,-1.22 v -7.92 h -1.42 V 9.6900001 h 1.42 v -2.88 h 1.66 v 2.88 z"
       style="font-style:normal;font-variant:normal;font-weight:normal;font-stretch:normal;font-size:20px;font-family:FreeSans;-inkscape-font-specification:FreeSans"
       id="path8071" />
    <path
       d="m 20.025781,21.41 h -1.1 q 2.74,-4.42 2.74,-9.4 0,-4.9599999 -2.74,-9.4199999 h 1.1 q 1.5,1.96 2.38,4.52 0.88,2.54 0.88,4.8999999 0,2.36 -0.88,4.9 -0.88,2.54 -2.38,4.5 z"
       style="font-style:normal;font-variant:normal;font-weight:normal;font-stretch:normal;font-size:20px;font-family:FreeSans;-inkscape-font-specification:FreeSans"
       id="path8073" />
  </g>
  <text
     xml:space="preserve"
     style="font-style:normal;font-weight:normal;font-size:40px;line-height:1.25;font-family:sans-serif;letter-spacing:0px;word-spacing:0px;fill:#000000;fill-opacity:1;stroke:none"
     x="-32.683258"
     y="10.17"
     id="text8047-4"><tspan
       sodipodi:role="line"
       id="tspan8045-5"
       x="-32.683258"
       y="10.17"
       style="font-style:normal;font-variant:normal;font-weight:normal;font-stretch:normal;font-size:20px;font-family:FreeSans;-inkscape-font-specification:FreeSans"
       dy="0 -3 3 -3">f(t)</tspan></text>
</svg>
