<?xml version="1.0" encoding="UTF-8" standalone="no"?>
<!-- Created with Inkscape (http://www.inkscape.org/) -->

<svg
   xmlns:dc="http://purl.org/dc/elements/1.1/"
   xmlns:cc="http://creativecommons.org/ns#"
   xmlns:rdf="http://www.w3.org/1999/02/22-rdf-syntax-ns#"
   xmlns:svg="http://www.w3.org/2000/svg"
   xmlns="http://www.w3.org/2000/svg"
   xmlns:xlink="http://www.w3.org/1999/xlink"
   xmlns:sodipodi="http://sodipodi.sourceforge.net/DTD/sodipodi-0.dtd"
   xmlns:inkscape="http://www.inkscape.org/namespaces/inkscape"
   version="1.1"
   id="svg7775"
   width="480"
   height="480"
   viewBox="0 0 480 480"
   sodipodi:docname="Hopsan-ToggleNames.svg"
   inkscape:version="0.92.3 (2405546, 2018-03-11)">
  <metadata
     id="metadata7781">
    <rdf:RDF>
      <cc:Work
         rdf:about="">
        <dc:format>image/svg+xml</dc:format>
        <dc:type
           rdf:resource="http://purl.org/dc/dcmitype/StillImage" />
        <dc:title></dc:title>
      </cc:Work>
    </rdf:RDF>
  </metadata>
  <defs
     id="defs7779">
    <linearGradient
       inkscape:collect="always"
       id="linearGradient8453">
      <stop
         style="stop-color:#ffffff;stop-opacity:1;"
         offset="0"
         id="stop8449" />
      <stop
         style="stop-color:#dbd3d3;stop-opacity:1"
         offset="1"
         id="stop8451" />
    </linearGradient>
    <linearGradient
       gradientTransform="translate(-1.3976049e-5,3.8928104e-6)"
       inkscape:collect="always"
       xlink:href="#linearGradient8453"
       id="linearGradient8472-8"
       x1="452.5"
       y1="227.5"
       x2="27.5"
       y2="452.5"
       gradientUnits="userSpaceOnUse" />
  </defs>
  <sodipodi:namedview
     pagecolor="#ffffff"
     bordercolor="#666666"
     borderopacity="1"
     objecttolerance="10"
     gridtolerance="10"
     guidetolerance="10"
     inkscape:pageopacity="0"
     inkscape:pageshadow="2"
     inkscape:window-width="1920"
     inkscape:window-height="1016"
     id="namedview7777"
     showgrid="false"
     inkscape:zoom="0.61458333"
     inkscape:cx="15.254237"
     inkscape:cy="12"
     inkscape:window-x="0"
     inkscape:window-y="27"
     inkscape:window-maximized="1"
     inkscape:current-layer="svg7775" />
  <rect
     style="opacity:1;fill:url(#linearGradient8472-8);fill-opacity:1;stroke:#969696;stroke-width:15;stroke-linecap:round;stroke-miterlimit:4;stroke-dasharray:none;stroke-dashoffset:150;stroke-opacity:1"
     id="rect8418-9"
     width="425"
     height="225"
     x="27.5"
     y="227.5" />
  <text
     xml:space="preserve"
     style="font-style:normal;font-weight:normal;font-size:40px;line-height:1.25;font-family:sans-serif;letter-spacing:0px;word-spacing:0px;fill:#000000;fill-opacity:1;stroke:none"
     x="-571.11865"
     y="135.05086"
     id="text8422"><tspan
       sodipodi:role="line"
       id="tspan8420"
       x="-571.11865"
       y="135.05086"
       style="-inkscape-font-specification:FreeSans;font-family:FreeSans;font-weight:normal;font-style:normal;font-stretch:normal;font-variant:normal;font-size:240px">Abc</tspan></text>
  <g
     aria-label="Abc"
     style="font-style:normal;font-weight:normal;font-size:240px;line-height:1.25;font-family:sans-serif;letter-spacing:0px;word-spacing:0px;fill:#000000;fill-opacity:1;stroke:none"
     id="text8422-1"
     transform="translate(-4.952704,-0.21391)">
    <path
       d="M 152.35958,147.13391 H 84.919578 l -18.48,52.56 h -23.76 L 105.07958,24.733909 h 28.8 l 61.44,174.960001 h -24.96 z m -6.24,-18.72 -26.88,-79.680001 -28.800002,79.680001 z"
       style="font-style:normal;font-variant:normal;font-weight:normal;font-stretch:normal;font-size:240px;font-family:FreeSans;-inkscape-font-specification:FreeSans"
       id="path8442"
       inkscape:connector-curvature="0" />
    <path
       d="m 213.32333,24.733909 h 19.92 v 66.24 q 13.68,-20.64 38.88,-20.64 24.96,0 39.36,17.76 14.4,17.760001 14.4,48.240001 0,31.2 -14.88,50.16 -14.88,18.72 -39.84,18.72 -25.68,0 -39.84,-21.6 v 16.08 h -18 z m 54.96,64.32 q -15.84,0 -25.44,13.440001 -9.6,13.2 -9.6,35.28 0,22.08 9.6,35.52 9.6,13.2 25.44,13.2 16.32,0 26.4,-13.2 10.32,-13.44 10.32,-34.8 0,-22.56 -10.08,-36 -9.84,-13.440001 -26.64,-13.440001 z"
       style="font-style:normal;font-variant:normal;font-weight:normal;font-stretch:normal;font-size:240px;font-family:FreeSans;-inkscape-font-specification:FreeSans"
       id="path8444"
       inkscape:connector-curvature="0" />
    <path
       d="m 445.78583,116.17391 h -20.16 q -1.92,-13.2 -9.6,-20.160001 -7.68,-7.2 -20.16,-7.2 -16.32,0 -25.68,13.440001 -9.12,13.2 -9.12,36.72 0,22.32 9.36,35.04 9.36,12.72 25.92,12.72 25.68,0 30.72,-30.24 h 20.16 q -1.92,23.04 -15.36,36 -13.44,12.72 -36,12.72 -25.68,0 -40.8,-17.76 -14.88,-18 -14.88,-48.48 0,-31.2 15.12,-49.920001 15.36,-18.72 40.8,-18.72 21.84,0 34.8,11.76 13.2,11.76 14.88,34.080001 z"
       style="font-style:normal;font-variant:normal;font-weight:normal;font-stretch:normal;font-size:240px;font-family:FreeSans;-inkscape-font-specification:FreeSans"
       id="path8446"
       inkscape:connector-curvature="0" />
  </g>
</svg>
