<?xml version="1.0" encoding="UTF-8" standalone="no"?>
<!-- Created with Inkscape (http://www.inkscape.org/) -->

<svg
   version="1.1"
   id="svg182"
   xml:space="preserve"
   width="230.04666"
   height="230.047"
   viewBox="0 0 230.04666 230.047"
   sodipodi:docname="Hopsan-SSD.svg"
   inkscape:version="1.3.2 (091e20e, 2023-11-25, custom)"
   xmlns:inkscape="http://www.inkscape.org/namespaces/inkscape"
   xmlns:sodipodi="http://sodipodi.sourceforge.net/DTD/sodipodi-0.dtd"
   xmlns="http://www.w3.org/2000/svg"
   xmlns:svg="http://www.w3.org/2000/svg"
   xmlns:rdf="http://www.w3.org/1999/02/22-rdf-syntax-ns#"
   xmlns:cc="http://creativecommons.org/ns#"
   xmlns:dc="http://purl.org/dc/elements/1.1/"><metadata
     id="metadata188"><rdf:RDF><cc:Work
         rdf:about=""><dc:format>image/svg+xml</dc:format><dc:type
           rdf:resource="http://purl.org/dc/dcmitype/StillImage" /></cc:Work></rdf:RDF></metadata><defs
     id="defs186" /><sodipodi:namedview
     pagecolor="#ffffff"
     bordercolor="#666666"
     borderopacity="1"
     objecttolerance="10"
     gridtolerance="10"
     guidetolerance="10"
     inkscape:pageopacity="0"
     inkscape:pageshadow="2"
     inkscape:window-width="2560"
     inkscape:window-height="1369"
     id="namedview184"
     showgrid="false"
     fit-margin-top="2"
     fit-margin-right="2"
     fit-margin-left="2"
     fit-margin-bottom="2"
     inkscape:zoom="0.86069101"
     inkscape:cx="772.635"
     inkscape:cy="-358.43293"
     inkscape:window-x="-8"
     inkscape:window-y="-8"
     inkscape:window-maximized="1"
     inkscape:current-layer="g190"
     inkscape:showpageshadow="2"
     inkscape:pagecheckerboard="0"
     inkscape:deskcolor="#d1d1d1" /><g
     id="g190"
     inkscape:groupmode="layer"
     inkscape:label="ink_ext_XXXXXX"
     transform="matrix(1.3333333,0,0,-1.3333333,0,135.184)"><g
       id="g1"
       transform="translate(0,-15.07518)"><path
         d="m 0,-35.303116 v 8.842184 l 113.89,0.05469 7.034,-6.30664 7.038,6.30664 44.573,-0.05469 -0.004,-8.842184 H 0"
         style="fill:#cc193a;fill-opacity:1;fill-rule:nonzero;stroke:none;stroke-width:0.1"
         id="path194"
         inkscape:connector-curvature="0" /><path
         d="m 1.79297,3.595668 v 11.002 H 32.7 c 3.9801,0 7.2172,3.2336 7.2172,7.2129 0,3.9801 -3.2371,7.2172 -7.2172,7.2172 H 18.348 c -10.04487,0 -18.215187,8.1707 -18.215187,18.2148 0,10.0449 8.170317,18.2193 18.215187,18.2193 l 36.0274,0.074 c -4.4719,-4.4089 -6.557,-9.1968 -7.2524,-11.0757 H 18.348 c -3.98,0 -7.2132,-3.2375 -7.2132,-7.2176 0,-3.9793 3.2332,-7.2168 7.2132,-7.2168 l 14.352,0.0039 c 10.0449,0 18.2191,-8.1742 18.2191,-18.2191 0,-10.0449 -8.1742,-18.2149 -18.2191,-18.2149 H 1.79297"
         style="fill:#2a3741;fill-opacity:1;fill-rule:nonzero;stroke:none;stroke-width:0.1"
         id="path196"
         inkscape:connector-curvature="0" /><path
         d="m 53.6609,3.595668 c 1.9879,2.4836 5.2211,6.9758 6.1586,11.002 h 31.0993 c 3.9796,0 7.2132,3.2336 7.2132,7.2129 0,3.9801 -3.2336,7.2172 -7.2132,7.2172 H 76.566 c -10.0445,0 -18.2183,8.1707 -18.2183,18.2148 0,10.0449 8.1738,18.2193 18.2183,18.2193 l 40.695,0.074 c -2.16,-2.1905 -5.393,-6.0495 -7.307,-11.0757 H 76.566 c -3.9793,0 -7.2172,-3.2375 -7.2172,-7.2176 0,-3.9793 3.2379,-7.2168 7.2172,-7.2168 l 14.3528,0.0039 c 10.0442,0 18.2152,-8.1742 18.2152,-18.2191 0,-10.0449 -8.171,-18.2149 -18.2152,-18.2149 H 53.6609"
         style="fill:#2a3741;fill-opacity:1;fill-rule:nonzero;stroke:none;stroke-width:0.1"
         id="path198"
         inkscape:connector-curvature="0" /><path
         d="m 145.46799,14.259487 c 8.94689,-0.04409 16.26267,7.200051 16.30678,16.151042 l 0.0397,8.052699 c 0.0441,8.95139 -7.19993,16.26648 -16.14682,16.31057 l -2.74897,0.0135 c -8.94789,0.0441 -16.26267,-7.19925 -16.30678,-16.15064 l -0.0397,-8.052701 c -0.0441,-8.950991 7.19893,-16.266871 16.14682,-16.310964 z m 27.36354,76.346591 -0.29689,-60.24857 C 172.4613,15.473689 160.29479,3.426795 145.41497,3.500118 l -2.74897,0.01355 c -14.87982,0.073319 -26.92701,12.239531 -26.85367,27.12335 l 0.0397,8.0527 c 0.0733,14.87982 12.23984,26.92672 27.11965,26.85339 l 2.74897,-0.0135 c 5.12394,-0.0252 10.12362,-1.52261 14.46485,-4.32833 l 1.73549,-1.12187 0.15069,30.57973 5.40688,5.03509 5.35299,-5.08811"
         style="fill:#2a3741;fill-opacity:1;fill-rule:nonzero;stroke:none;stroke-width:0.1"
         id="path200-7"
         inkscape:connector-curvature="0" /></g></g></svg>
