<?xml version="1.0" encoding="UTF-8" standalone="no"?>
<!-- Created with Inkscape (http://www.inkscape.org/) -->

<svg
   version="1.1"
   id="svg182"
   xml:space="preserve"
   width="230.04666"
   height="230.047"
   viewBox="0 0 230.04666 230.047"
   sodipodi:docname="Hopsan-SSM.svg"
   inkscape:version="1.3.2 (091e20e, 2023-11-25, custom)"
   xmlns:inkscape="http://www.inkscape.org/namespaces/inkscape"
   xmlns:sodipodi="http://sodipodi.sourceforge.net/DTD/sodipodi-0.dtd"
   xmlns="http://www.w3.org/2000/svg"
   xmlns:svg="http://www.w3.org/2000/svg"
   xmlns:rdf="http://www.w3.org/1999/02/22-rdf-syntax-ns#"
   xmlns:cc="http://creativecommons.org/ns#"
   xmlns:dc="http://purl.org/dc/elements/1.1/"><metadata
     id="metadata188"><rdf:RDF><cc:Work
         rdf:about=""><dc:format>image/svg+xml</dc:format><dc:type
           rdf:resource="http://purl.org/dc/dcmitype/StillImage" /></cc:Work></rdf:RDF></metadata><defs
     id="defs186" /><sodipodi:namedview
     pagecolor="#ffffff"
     bordercolor="#666666"
     borderopacity="1"
     objecttolerance="10"
     gridtolerance="10"
     guidetolerance="10"
     inkscape:pageopacity="0"
     inkscape:pageshadow="2"
     inkscape:window-width="2200"
     inkscape:window-height="1369"
     id="namedview184"
     showgrid="false"
     fit-margin-top="2"
     fit-margin-right="2"
     fit-margin-left="2"
     fit-margin-bottom="2"
     inkscape:zoom="0.60860045"
     inkscape:cx="149.52339"
     inkscape:cy="197.99525"
     inkscape:window-x="-8"
     inkscape:window-y="-8"
     inkscape:window-maximized="1"
     inkscape:current-layer="g190"
     inkscape:showpageshadow="2"
     inkscape:pagecheckerboard="0"
     inkscape:deskcolor="#d1d1d1" /><g
     id="g190"
     inkscape:groupmode="layer"
     inkscape:label="ink_ext_XXXXXX"
     transform="matrix(1.3333333,0,0,-1.3333333,0,135.184)"><path
       id="path194"
       style="fill:#cc193a;fill-opacity:1;fill-rule:nonzero;stroke:none;stroke-width:0.1"
       d="M 0.0043945314 -41.481142 L 0.0043945314 -41.536806 L 0 -41.536806 L 0 -50.322939 L 0 -50.378603 L 44.573732 -50.378603 L 58.645021 -50.378603 L 172.53077 -50.378603 L 172.53077 -50.322939 L 172.53516 -50.322939 L 172.53516 -41.536806 L 172.53516 -41.481142 L 127.96143 -41.481142 L 113.89014 -41.481142 L 0.0043945314 -41.481142 z " /><path
       d="m 1.79297,-11.479512 v 11.002 H 32.7 c 3.9801,0 7.2172,3.2336 7.2172,7.2129 0,3.9801 -3.2371,7.2172 -7.2172,7.2172 H 18.348 c -10.04487,0 -18.215187,8.1707 -18.215187,18.2148 0,10.0449 8.170317,18.2193 18.215187,18.2193 l 36.0274,0.074 c -4.4719,-4.4089 -6.557,-9.1968 -7.2524,-11.0757 H 18.348 c -3.98,0 -7.2132,-3.2375 -7.2132,-7.2176 0,-3.9793 3.2332,-7.2168 7.2132,-7.2168 l 14.352,0.0039 c 10.0449,0 18.2191,-8.1742 18.2191,-18.2191 0,-10.0449 -8.1742,-18.2149 -18.2191,-18.2149 H 1.79297"
       style="fill:#2a3741;fill-opacity:1;fill-rule:nonzero;stroke:none;stroke-width:0.1"
       id="path196"
       inkscape:connector-curvature="0" /><path
       d="m 53.6609,-11.479512 c 1.9879,2.4836 5.2211,6.9758 6.1586,11.002 h 31.0993 c 3.9796,0 7.2132,3.2336 7.2132,7.2129 0,3.9801 -3.2336,7.2172 -7.2132,7.2172 H 76.566 c -10.0445,0 -18.2183,8.1707 -18.2183,18.2148 0,10.0449 8.1738,18.2193 18.2183,18.2193 l 40.695,0.074 c -2.16,-2.1905 -5.393,-6.0495 -7.307,-11.0757 H 76.566 c -3.9793,0 -7.2172,-3.2375 -7.2172,-7.2176 0,-3.9793 3.2379,-7.2168 7.2172,-7.2168 l 14.3528,0.0039 c 10.0442,0 18.2152,-8.1742 18.2152,-18.2191 0,-10.0449 -8.171,-18.2149 -18.2152,-18.2149 H 53.6609"
       style="fill:#2a3741;fill-opacity:1;fill-rule:nonzero;stroke:none;stroke-width:0.1"
       id="path198"
       inkscape:connector-curvature="0" /><path
       id="path200-7-0"
       style="fill:#2a3741;fill-opacity:1;fill-rule:nonzero;stroke:none;stroke-width:0.0999997"
       d="M 132.66504 50.468568 C 123.41482 50.413518 115.88261 43.266185 115.83692 34.449036 L 115.82813 32.682434 L 115.81201 32.682434 L 115.81201 -11.561707 L 126.49805 -11.561707 L 126.49805 30.927552 L 126.50244 30.927552 C 126.50055 30.958726 126.5001 30.990198 126.49805 31.021302 L 126.49805 32.682434 L 126.49073 32.682434 L 126.49805 34.123841 C 126.51351 37.259566 129.07643 39.796517 132.21094 39.781067 L 133.17334 39.776673 C 136.30751 39.761228 138.84607 37.198043 138.83057 34.062317 L 138.81592 31.242493 C 138.8154 31.136091 138.80465 31.0325 138.79834 30.927552 L 138.83057 30.927552 L 138.83057 29.642884 L 138.83057 -11.561707 L 149.51661 -11.561707 L 149.51661 29.642884 L 149.51661 30.927552 L 149.521 30.927552 C 149.519 30.958726 149.51868 30.990198 149.51661 31.021302 L 149.51661 31.960266 L 149.50635 31.960266 L 149.51661 34.123841 C 149.53211 37.259566 152.09499 39.796517 155.2295 39.781067 L 156.1919 39.776673 C 159.32607 39.761233 161.86463 37.198043 161.84913 34.062317 L 161.83448 31.242493 C 161.83396 31.136091 161.8232 31.0325 161.8169 30.927552 L 161.84766 30.927552 L 161.84766 -11.561707 L 172.53516 -11.561707 L 172.53516 29.642884 L 172.53516 32.682434 L 172.51905 32.682434 L 172.51026 34.449036 C 172.46456 43.266185 164.93383 50.41352 155.6836 50.468568 C 151.23042 50.442066 147.17878 48.768289 144.16553 46.059388 C 141.1536 48.763385 137.11366 50.442094 132.66504 50.468568 z M 130.54395 13.459289 C 130.67583 13.457089 130.80686 13.451365 130.93946 13.451965 L 132.66504 13.459289 L 130.54395 13.459289 z M 132.66504 13.459289 L 134.38916 13.451965 C 134.52176 13.451368 134.65279 13.456989 134.78467 13.459289 L 132.66504 13.459289 z M 153.5625 13.459289 C 153.69438 13.457089 153.82541 13.451365 153.95801 13.451965 L 155.6836 13.459289 L 153.5625 13.459289 z M 155.6836 13.459289 L 157.40772 13.451965 C 157.54032 13.451368 157.67135 13.456989 157.80323 13.459289 L 155.6836 13.459289 z " /><path
       id="path200-7"
       style="fill:#2a3741;fill-opacity:1;fill-rule:nonzero;stroke:none;stroke-width:0.0999997"
       d="m 161.83594,-9.2135627 0.0117,-2.3481443 5.36406,-5.034668 5.31028,5.087402 -0.0116,2.2954103 z" /><path
       id="path200-7-3-1"
       style="fill:#2a3741;fill-opacity:1;fill-rule:nonzero;stroke:none;stroke-width:0.0999996"
       d="m 115.81201,-9.2662973 0.0115,-2.3481437 5.32809,-5.034668 5.27467,5.087402 -0.0115,2.2954107 z" /></g></svg>
