<?xml version="1.0" encoding="UTF-8" standalone="no"?>
<!-- Created with Inkscape (http://www.inkscape.org/) -->

<svg
   version="1.1"
   id="svg182"
   xml:space="preserve"
   width="230.04666"
   height="230.047"
   viewBox="0 0 230.04666 230.047"
   sodipodi:docname="Hopsan-SSP.svg"
   inkscape:version="1.3.2 (091e20e, 2023-11-25, custom)"
   xmlns:inkscape="http://www.inkscape.org/namespaces/inkscape"
   xmlns:sodipodi="http://sodipodi.sourceforge.net/DTD/sodipodi-0.dtd"
   xmlns="http://www.w3.org/2000/svg"
   xmlns:svg="http://www.w3.org/2000/svg"
   xmlns:rdf="http://www.w3.org/1999/02/22-rdf-syntax-ns#"
   xmlns:cc="http://creativecommons.org/ns#"
   xmlns:dc="http://purl.org/dc/elements/1.1/"><metadata
     id="metadata188"><rdf:RDF><cc:Work
         rdf:about=""><dc:format>image/svg+xml</dc:format><dc:type
           rdf:resource="http://purl.org/dc/dcmitype/StillImage" /></cc:Work></rdf:RDF></metadata><defs
     id="defs186" /><sodipodi:namedview
     pagecolor="#ffffff"
     bordercolor="#666666"
     borderopacity="1"
     objecttolerance="10"
     gridtolerance="10"
     guidetolerance="10"
     inkscape:pageopacity="0"
     inkscape:pageshadow="2"
     inkscape:window-width="2560"
     inkscape:window-height="1369"
     id="namedview184"
     showgrid="false"
     fit-margin-top="2"
     fit-margin-right="2"
     fit-margin-left="2"
     fit-margin-bottom="2"
     inkscape:zoom="1.2172009"
     inkscape:cx="626.84804"
     inkscape:cy="-96.532955"
     inkscape:window-x="-8"
     inkscape:window-y="-8"
     inkscape:window-maximized="1"
     inkscape:current-layer="g190"
     inkscape:showpageshadow="2"
     inkscape:pagecheckerboard="0"
     inkscape:deskcolor="#d1d1d1" /><g
     id="g190"
     inkscape:groupmode="layer"
     inkscape:label="ink_ext_XXXXXX"
     transform="matrix(1.3333333,0,0,-1.3333333,0,135.184)"><g
       id="g1"
       transform="translate(0,-35.844132)"><path
         d="M 0,0.541016 V 9.3832 l 113.89,0.05469 7.034,-6.30664 7.038,6.30664 44.573,-0.05469 -0.004,-8.842184 H 0"
         style="fill:#cc193a;fill-opacity:1;fill-rule:nonzero;stroke:none;stroke-width:0.1"
         id="path194"
         inkscape:connector-curvature="0" /><path
         d="m 1.79297,39.4398 v 11.002 H 32.7 c 3.9801,0 7.2172,3.2336 7.2172,7.2129 0,3.9801 -3.2371,7.2172 -7.2172,7.2172 H 18.348 c -10.04487,0 -18.215187,8.1707 -18.215187,18.2148 0,10.0449 8.170317,18.2193 18.215187,18.2193 l 36.0274,0.074 C 49.9035,96.9711 47.8184,92.1832 47.123,90.3043 H 18.348 c -3.98,0 -7.2132,-3.2375 -7.2132,-7.2176 0,-3.9793 3.2332,-7.2168 7.2132,-7.2168 L 32.7,75.8738 c 10.0449,0 18.2191,-8.1742 18.2191,-18.2191 0,-10.0449 -8.1742,-18.2149 -18.2191,-18.2149 H 1.79297"
         style="fill:#2a3741;fill-opacity:1;fill-rule:nonzero;stroke:none;stroke-width:0.1"
         id="path196"
         inkscape:connector-curvature="0" /><path
         d="m 53.6609,39.4398 c 1.9879,2.4836 5.2211,6.9758 6.1586,11.002 h 31.0993 c 3.9796,0 7.2132,3.2336 7.2132,7.2129 0,3.9801 -3.2336,7.2172 -7.2132,7.2172 H 76.566 c -10.0445,0 -18.2183,8.1707 -18.2183,18.2148 0,10.0449 8.1738,18.2193 18.2183,18.2193 l 40.695,0.074 c -2.16,-2.1905 -5.393,-6.0495 -7.307,-11.0757 H 76.566 c -3.9793,0 -7.2172,-3.2375 -7.2172,-7.2176 0,-3.9793 3.2379,-7.2168 7.2172,-7.2168 l 14.3528,0.0039 c 10.0442,0 18.2152,-8.1742 18.2152,-18.2191 0,-10.0449 -8.171,-18.2149 -18.2152,-18.2149 H 53.6609"
         style="fill:#2a3741;fill-opacity:1;fill-rule:nonzero;stroke:none;stroke-width:0.1"
         id="path198"
         inkscape:connector-curvature="0" /><path
         d="m 142.666,90.6285 c -8.947,0 -16.227,-7.2801 -16.227,-16.2312 v -8.0528 c 0,-8.9515 7.28,-16.2308 16.227,-16.2308 h 2.749 c 8.948,0 16.227,7.2793 16.227,16.2308 v 8.0528 c 0,8.9511 -7.279,16.2312 -16.227,16.2312 z M 115.679,14.148 v 60.2493 c 0,14.884 12.107,26.9907 26.987,26.9907 h 2.749 c 14.88,0 26.987,-12.1067 26.987,-26.9907 v -8.0528 c 0,-14.88 -12.107,-26.9867 -26.987,-26.9867 h -2.749 c -5.124,0 -10.131,1.4727 -14.486,4.257 l -1.741,1.1133 V 14.148 l -5.382,-5.06167 -5.378,5.06167"
         style="fill:#2a3741;fill-opacity:1;fill-rule:nonzero;stroke:none;stroke-width:0.1"
         id="path200"
         inkscape:connector-curvature="0" /></g></g></svg>
