<?xml version="1.0" encoding="UTF-8" standalone="no"?>
<!-- Created with Inkscape (http://www.inkscape.org/) -->

<svg
   xmlns:dc="http://purl.org/dc/elements/1.1/"
   xmlns:cc="http://creativecommons.org/ns#"
   xmlns:rdf="http://www.w3.org/1999/02/22-rdf-syntax-ns#"
   xmlns:svg="http://www.w3.org/2000/svg"
   xmlns="http://www.w3.org/2000/svg"
   xmlns:sodipodi="http://sodipodi.sourceforge.net/DTD/sodipodi-0.dtd"
   xmlns:inkscape="http://www.inkscape.org/namespaces/inkscape"
   width="54"
   height="30"
   id="svg2"
   version="1.1"
   inkscape:version="0.48.0 r9654"
   sodipodi:docname="reflfree.svg">
  <defs
     id="defs4">
    <inkscape:path-effect
       effect="spiro"
       id="path-effect2999"
       is_visible="true" />
    <inkscape:path-effect
       effect="spiro"
       id="path-effect2995"
       is_visible="true" />
  </defs>
  <sodipodi:namedview
     id="base"
     pagecolor="#ffffff"
     bordercolor="#666666"
     borderopacity="1.0"
     inkscape:pageopacity="0.0"
     inkscape:pageshadow="2"
     inkscape:zoom="11.2"
     inkscape:cx="46.80274"
     inkscape:cy="9.4928621"
     inkscape:document-units="px"
     inkscape:current-layer="layer1"
     showgrid="true"
     inkscape:window-width="1920"
     inkscape:window-height="1020"
     inkscape:window-x="-4"
     inkscape:window-y="-4"
     inkscape:window-maximized="1"
     fit-margin-left="2.7755576e-017">
    <inkscape:grid
       type="xygrid"
       id="grid2985"
       empspacing="5"
       visible="true"
       enabled="true"
       snapvisiblegridlinesonly="true"
       spacingx="1px"
       spacingy="1px" />
  </sodipodi:namedview>
  <metadata
     id="metadata7">
    <rdf:RDF>
      <cc:Work
         rdf:about="">
        <dc:format>image/svg+xml</dc:format>
        <dc:type
           rdf:resource="http://purl.org/dc/dcmitype/StillImage" />
        <dc:title />
      </cc:Work>
    </rdf:RDF>
  </metadata>
  <g
     inkscape:label="Layer 1"
     inkscape:groupmode="layer"
     id="layer1"
     transform="translate(0,-1022.3622)">
    <path
       style="fill:#008080;fill-opacity:1;fill-rule:evenodd;stroke:#000000;stroke-width:1.57321322;stroke-linecap:butt;stroke-linejoin:miter;stroke-miterlimit:4;stroke-opacity:1;stroke-dasharray:none"
       d="M 9.6666667,1026.3622 C 5.5950815,1026.7898 1,1032.1768 1,1037.3622 c 0,5.1854 4.5950815,10.5724 8.6666667,11 3.0958103,0.3252 5.6520463,-2.8498 7.5833333,-6.875 2.210536,4.0324 4.724359,6.875 8.666667,6.875 l 27.083333,0 0,-22 -27.083333,0 c -3.942308,0 -6.456131,2.8426 -8.666667,6.875 -1.931287,-4.0252 -4.487523,-7.2002 -7.5833333,-6.875 z m 0,5.5 c 2.3087013,-0.1623 3.6424723,1.8281 5.4166663,5.5 -1.774194,3.6719 -3.107965,5.6623 -5.4166663,5.5 -2.039627,-0.1433 -4.3333334,-2.9074 -4.3333334,-5.5 0,-2.5926 2.2937064,-5.3567 4.3333334,-5.5 z m 16.2500003,0 c 2.032811,0.2555 4.333333,5.5 4.333333,5.5 0,0 -2.300522,5.2445 -4.333333,5.5 -2.591337,0.3257 -4.57606,-1.8141 -6.5,-5.5 1.92394,-3.6859 3.908663,-5.8257 6.5,-5.5 z"
       id="rect2991"
       inkscape:connector-curvature="0"
       sodipodi:nodetypes="aaacsccscaacaaaacaca" />
    <path
       style="fill:#008080;fill-opacity:1;stroke:#000000;stroke-width:1.57321322;stroke-linecap:butt;stroke-linejoin:miter;stroke-miterlimit:4;stroke-opacity:1;stroke-dasharray:none"
       d="m 17.25,1033.2372 -2.166667,4.125"
       id="path3009"
       inkscape:connector-curvature="0" />
    <path
       style="fill:#008080;fill-opacity:1;stroke:#000000;stroke-width:1.57321322;stroke-linecap:butt;stroke-linejoin:miter;stroke-miterlimit:4;stroke-opacity:1;stroke-dasharray:none"
       d="M 19.416667,1037.3622 17.25,1041.4872"
       id="path3011"
       inkscape:connector-curvature="0" />
  </g>
</svg>
