<?xml version="1.0" encoding="UTF-8" standalone="no"?>
<!-- Created with Inkscape (http://www.inkscape.org/) -->

<svg
   xmlns:dc="http://purl.org/dc/elements/1.1/"
   xmlns:cc="http://creativecommons.org/ns#"
   xmlns:rdf="http://www.w3.org/1999/02/22-rdf-syntax-ns#"
   xmlns:svg="http://www.w3.org/2000/svg"
   xmlns="http://www.w3.org/2000/svg"
   xmlns:sodipodi="http://sodipodi.sourceforge.net/DTD/sodipodi-0.dtd"
   xmlns:inkscape="http://www.inkscape.org/namespaces/inkscape"
   width="25.000004"
   height="25.000004"
   id="svg3336"
   sodipodi:version="0.32"
   inkscape:version="0.48.0 r9654"
   sodipodi:docname="max.svg"
   inkscape:output_extension="org.inkscape.output.svg.inkscape"
   version="1.0">
  <defs
     id="defs3338">
    <marker
       inkscape:stockid="Arrow2Mend"
       orient="auto"
       refY="0"
       refX="0"
       id="Arrow2Mend"
       style="overflow:visible">
      <path
         id="path3629"
         style="font-size:12px;fill-rule:evenodd;stroke-width:0.625;stroke-linejoin:round"
         d="M 8.7185878,4.0337352 -2.2072895,0.01601326 8.7185884,-4.0017078 c -1.7454984,2.3720609 -1.7354408,5.6174519 -6e-7,8.035443 l 0,0 z"
         transform="scale(-0.6,-0.6)"
         inkscape:connector-curvature="0" />
    </marker>
    <marker
       inkscape:stockid="DotM"
       orient="auto"
       refY="0"
       refX="0"
       id="DotM"
       style="overflow:visible">
      <path
         id="path3667"
         d="m -2.5,-1 c 0,2.76 -2.24,5 -5,5 -2.76,0 -5,-2.24 -5,-5 0,-2.76 2.24,-5 5,-5 2.76,0 5,2.24 5,5 z"
         style="fill-rule:evenodd;stroke:#000000;stroke-width:1pt;marker-start:none;marker-end:none"
         transform="matrix(0.4,0,0,0.4,2.96,0.4)"
         inkscape:connector-curvature="0" />
    </marker>
    <marker
       inkscape:stockid="DotL"
       orient="auto"
       refY="0"
       refX="0"
       id="DotL"
       style="overflow:visible">
      <path
         id="path3664"
         d="m -2.5,-1 c 0,2.76 -2.24,5 -5,5 -2.76,0 -5,-2.24 -5,-5 0,-2.76 2.24,-5 5,-5 2.76,0 5,2.24 5,5 z"
         style="fill-rule:evenodd;stroke:#000000;stroke-width:1pt;marker-start:none;marker-end:none"
         transform="matrix(0.8,0,0,0.8,5.92,0.8)"
         inkscape:connector-curvature="0" />
    </marker>
    <marker
       style="overflow:visible"
       id="TriangleOutL"
       refX="0"
       refY="0"
       orient="auto"
       inkscape:stockid="TriangleOutL">
      <path
         transform="scale(0.8,0.8)"
         style="fill-rule:evenodd;stroke:#000000;stroke-width:1pt;marker-start:none"
         d="m 5.77,0 -8.65,5 0,-10 8.65,5 z"
         id="path8118"
         inkscape:connector-curvature="0" />
    </marker>
    <inkscape:perspective
       sodipodi:type="inkscape:persp3d"
       inkscape:vp_x="0 : 526.18109 : 1"
       inkscape:vp_y="0 : 1000 : 0"
       inkscape:vp_z="744.09448 : 526.18109 : 1"
       inkscape:persp3d-origin="372.04724 : 350.78739 : 1"
       id="perspective3344" />
  </defs>
  <sodipodi:namedview
     id="base"
     pagecolor="#ffffff"
     bordercolor="#666666"
     borderopacity="1.0"
     gridtolerance="10000"
     guidetolerance="10"
     objecttolerance="10"
     inkscape:pageopacity="0.0"
     inkscape:pageshadow="2"
     inkscape:zoom="3.0585938"
     inkscape:cx="-102.81141"
     inkscape:cy="-9.6867617"
     inkscape:document-units="px"
     inkscape:current-layer="layer1"
     showgrid="false"
     inkscape:window-width="1680"
     inkscape:window-height="982"
     inkscape:window-x="-8"
     inkscape:window-y="-8"
     showguides="true"
     inkscape:snap-global="true"
     inkscape:snap-intersection-line-segments="true"
     inkscape:snap-center="true"
     inkscape:window-maximized="1"
     fit-margin-top="0"
     fit-margin-left="0"
     fit-margin-right="0"
     fit-margin-bottom="0">
    <inkscape:grid
       type="xygrid"
       id="grid2405"
       visible="true"
       enabled="true"
       empspacing="5"
       snapvisiblegridlinesonly="true" />
  </sodipodi:namedview>
  <metadata
     id="metadata3341">
    <rdf:RDF>
      <cc:Work
         rdf:about="">
        <dc:format>image/svg+xml</dc:format>
        <dc:type
           rdf:resource="http://purl.org/dc/dcmitype/StillImage" />
      </cc:Work>
    </rdf:RDF>
  </metadata>
  <g
     inkscape:label="Layer 1"
     inkscape:groupmode="layer"
     id="layer1"
     transform="translate(-247.4661,-352.29314)">
    <path
       sodipodi:type="arc"
       style="fill:#ffffff;fill-opacity:1;stroke:#0000bb;stroke-width:8.11550139999999940;stroke-linecap:square;stroke-miterlimit:3;stroke-opacity:1;stroke-dasharray:none"
       id="path2395"
       sodipodi:cx="155"
       sodipodi:cy="513.07648"
       sodipodi:rx="63.57143"
       sodipodi:ry="63.57143"
       d="m 218.57143,513.07648 a 63.57143,63.57143 0 1 1 -127.14286,0 63.57143,63.57143 0 1 1 127.14286,0 z"
       transform="matrix(-0.18483146,0,0,-0.18483146,288.61497,459.62581)" />
    <g
       style="font-size:13px;font-style:normal;font-variant:normal;font-weight:normal;font-stretch:normal;line-height:125%;letter-spacing:0px;word-spacing:0px;fill:#000000;fill-opacity:1;stroke:none;font-family:Times New Roman;-inkscape-font-specification:Times New Roman;stroke-width:1.5;stroke-miterlimit:3;stroke-dasharray:none"
       id="text3010">
      <path
         d="m 258.28763,367.18866 c -10e-6,0.0358 -0.0107,0.0671 -0.0322,0.094 -0.0215,0.0269 -0.0573,0.0492 -0.10742,0.0671 -0.0501,0.0179 -0.11817,0.0313 -0.2041,0.0403 -0.0859,0.009 -0.19516,0.0134 -0.32764,0.0134 -0.13607,0 -0.24708,-0.004 -0.33301,-0.0134 -0.0859,-0.009 -0.15487,-0.0224 -0.20678,-0.0403 -0.0519,-0.0179 -0.0877,-0.0403 -0.10743,-0.0671 -0.0197,-0.0268 -0.0295,-0.0582 -0.0295,-0.094 l 0,-2.84131 c 0,-0.16113 -0.0152,-0.30794 -0.0457,-0.44043 -0.0304,-0.13248 -0.077,-0.24617 -0.13965,-0.34106 -0.0627,-0.0949 -0.14144,-0.16829 -0.23633,-0.22022 -0.0949,-0.0519 -0.20858,-0.0779 -0.34106,-0.0779 -0.16114,10e-6 -0.32406,0.0627 -0.48877,0.18799 -0.16472,0.12533 -0.34376,0.30795 -0.53711,0.54785 l 0,3.18506 c -1e-5,0.0358 -0.0108,0.0671 -0.0322,0.094 -0.0215,0.0269 -0.0582,0.0492 -0.1101,0.0671 -0.0519,0.0179 -0.12086,0.0313 -0.20679,0.0403 -0.0859,0.009 -0.19337,0.0134 -0.32227,0.0134 -0.13249,0 -0.2417,-0.004 -0.32763,-0.0134 -0.0859,-0.009 -0.15487,-0.0224 -0.20679,-0.0403 -0.0519,-0.0179 -0.0886,-0.0403 -0.11011,-0.0671 -0.0215,-0.0268 -0.0322,-0.0582 -0.0322,-0.094 l 0,-2.84131 c 0,-0.16113 -0.0152,-0.30794 -0.0456,-0.44043 -0.0304,-0.13248 -0.0761,-0.24617 -0.13696,-0.34106 -0.0609,-0.0949 -0.13965,-0.16829 -0.23633,-0.22022 -0.0967,-0.0519 -0.20948,-0.0779 -0.33838,-0.0779 -0.16472,10e-6 -0.32943,0.0627 -0.49414,0.18799 -0.16472,0.12533 -0.34196,0.30795 -0.53174,0.54785 l 0,3.18506 c 0,0.0358 -0.0107,0.0671 -0.0322,0.094 -0.0215,0.0269 -0.0582,0.0492 -0.11011,0.0671 -0.0519,0.0179 -0.12085,0.0313 -0.20679,0.0403 -0.0859,0.009 -0.19515,0.0134 -0.32764,0.0134 -0.13248,0 -0.2417,-0.004 -0.32763,-0.0134 -0.0859,-0.009 -0.15487,-0.0224 -0.20679,-0.0403 -0.0519,-0.0179 -0.0886,-0.0403 -0.11011,-0.0671 -0.0215,-0.0268 -0.0322,-0.0582 -0.0322,-0.094 l 0,-4.79102 c 0,-0.0358 0.009,-0.0671 0.0268,-0.094 0.0179,-0.0269 0.0501,-0.0492 0.0967,-0.0671 0.0465,-0.0179 0.10653,-0.0313 0.17993,-0.0403 0.0734,-0.009 0.16561,-0.0134 0.27661,-0.0134 0.11459,1e-5 0.20948,0.004 0.28467,0.0134 0.0752,0.009 0.13338,0.0224 0.17456,0.0403 0.0412,0.0179 0.0707,0.0403 0.0886,0.0671 0.0179,0.0269 0.0268,0.0582 0.0268,0.094 l 0,0.55323 c 0.26497,-0.28646 0.52905,-0.5013 0.79224,-0.64453 0.26318,-0.14323 0.538,-0.21484 0.82446,-0.21485 0.19694,10e-6 0.37418,0.0206 0.53174,0.0618 0.15755,0.0412 0.29809,0.10026 0.42163,0.17725 0.12353,0.077 0.23006,0.16919 0.31958,0.27661 0.0895,0.10742 0.16471,0.22738 0.22559,0.35986 0.14322,-0.15397 0.28376,-0.28645 0.42163,-0.39746 0.13785,-0.111 0.27392,-0.20141 0.4082,-0.27124 0.13427,-0.0698 0.26855,-0.12174 0.40283,-0.15576 0.13427,-0.034 0.27124,-0.051 0.41089,-0.051 0.31868,10e-6 0.58723,0.0537 0.80566,0.16113 0.21842,0.10743 0.39477,0.25335 0.52906,0.43775 0.13427,0.18441 0.23005,0.40015 0.28735,0.64722 0.0573,0.24707 0.0859,0.50846 0.0859,0.78418 z"
         style="font-size:11px;font-weight:bold;font-family:Calibri;-inkscape-font-specification:Calibri Bold;stroke-width:1.50000000000000000;stroke-miterlimit:3;stroke-dasharray:none;fill:#0000bb;fill-opacity:1"
         id="path3807" />
      <path
         d="m 263.70706,367.20477 c 0,0.0501 -0.0179,0.0895 -0.0537,0.11817 -0.0358,0.0286 -0.0922,0.0492 -0.16919,0.0618 -0.077,0.0125 -0.19068,0.0188 -0.34106,0.0188 -0.16114,0 -0.27841,-0.006 -0.35181,-0.0188 -0.0734,-0.0125 -0.12533,-0.0331 -0.15576,-0.0618 -0.0304,-0.0287 -0.0457,-0.068 -0.0457,-0.11817 l 0,-0.38134 c -0.19694,0.21126 -0.42163,0.37597 -0.67407,0.49414 -0.25244,0.11816 -0.53263,0.17724 -0.84057,0.17724 -0.25424,0 -0.48788,-0.0331 -0.70093,-0.0994 -0.21306,-0.0662 -0.39746,-0.16472 -0.55322,-0.29541 -0.15577,-0.1307 -0.27662,-0.29273 -0.36255,-0.48609 -0.0859,-0.19336 -0.12891,-0.41894 -0.12891,-0.67676 0,-0.27929 0.0546,-0.52188 0.16382,-0.72778 0.10921,-0.20589 0.27213,-0.37597 0.48877,-0.51025 0.21663,-0.13428 0.48608,-0.23364 0.80835,-0.2981 0.32226,-0.0644 0.69645,-0.0967 1.12256,-0.0967 l 0.46728,0 0,-0.29004 c 0,-0.15038 -0.0152,-0.28198 -0.0457,-0.39477 -0.0304,-0.11279 -0.0806,-0.20679 -0.15039,-0.28198 -0.0698,-0.0752 -0.16293,-0.1307 -0.2793,-0.16651 -0.11638,-0.0358 -0.2605,-0.0537 -0.43237,-0.0537 -0.22559,0 -0.42701,0.0251 -0.60425,0.0752 -0.17725,0.0501 -0.33391,0.10563 -0.46997,0.1665 -0.13607,0.0609 -0.24976,0.11638 -0.34107,0.1665 -0.0913,0.0501 -0.16561,0.0752 -0.2229,0.0752 -0.0394,0 -0.0743,-0.0125 -0.10473,-0.0376 -0.0304,-0.0251 -0.0555,-0.0609 -0.0752,-0.10742 -0.0197,-0.0466 -0.0349,-0.10384 -0.0456,-0.17188 -0.0108,-0.068 -0.0161,-0.14322 -0.0161,-0.22558 0,-0.111 0.009,-0.19873 0.0269,-0.26319 0.0179,-0.0644 0.0519,-0.12263 0.10205,-0.17456 0.0501,-0.0519 0.13786,-0.1092 0.26318,-0.17187 0.12533,-0.0627 0.27214,-0.12085 0.44043,-0.17456 0.1683,-0.0537 0.35181,-0.0976 0.55054,-0.13159 0.19873,-0.034 0.40373,-0.051 0.61499,-0.051 0.37597,10e-6 0.69734,0.0367 0.96411,0.11011 0.26676,0.0734 0.48608,0.1862 0.65796,0.33838 0.17187,0.15218 0.2972,0.34823 0.37598,0.58813 0.0788,0.23992 0.11816,0.52458 0.11816,0.85401 z m -1.32666,-2.05175 -0.51562,0 c -0.21843,0 -0.40463,0.0161 -0.5586,0.0483 -0.15397,0.0322 -0.2793,0.0806 -0.37597,0.14502 -0.0967,0.0645 -0.1674,0.14234 -0.21216,0.23365 -0.0448,0.0913 -0.0671,0.19604 -0.0671,0.31421 0,0.20052 0.0636,0.35807 0.19067,0.47265 0.12712,0.11459 0.30347,0.17188 0.52906,0.17188 0.18977,0 0.36433,-0.0483 0.52368,-0.14502 0.15934,-0.0967 0.32136,-0.23812 0.48608,-0.42432 z"
         style="font-size:11px;font-weight:bold;font-family:Calibri;-inkscape-font-specification:Calibri Bold;stroke-width:1.50000000000000000;stroke-miterlimit:3;stroke-dasharray:none;fill:#0000bb;fill-opacity:1"
         id="path3809" />
      <path
         d="m 269.22318,367.09198 c 0.0286,0.0609 0.0421,0.111 0.0403,0.15039 -0.002,0.0394 -0.0278,0.0716 -0.0779,0.0967 -0.0501,0.0251 -0.12712,0.0421 -0.23096,0.051 -0.10385,0.009 -0.2417,0.0134 -0.41357,0.0134 -0.16114,0 -0.29094,-0.003 -0.38941,-0.008 -0.0985,-0.005 -0.17546,-0.0161 -0.23096,-0.0322 -0.0555,-0.0161 -0.0967,-0.0358 -0.12353,-0.0591 -0.0269,-0.0233 -0.0474,-0.0528 -0.0618,-0.0886 l -0.88623,-1.70264 -0.88623,1.70264 c -0.0143,0.0358 -0.034,0.0653 -0.0591,0.0886 -0.0251,0.0233 -0.0636,0.043 -0.11548,0.0591 -0.0519,0.0161 -0.12443,0.0269 -0.21753,0.0322 -0.0931,0.005 -0.21484,0.008 -0.36523,0.008 -0.15756,0 -0.28288,-0.004 -0.37598,-0.0134 -0.0931,-0.009 -0.16113,-0.026 -0.2041,-0.051 -0.043,-0.0251 -0.0653,-0.0573 -0.0671,-0.0967 -0.002,-0.0394 0.0134,-0.0895 0.0457,-0.15039 l 1.32666,-2.35791 -1.2246,-2.21289 c -0.0322,-0.0645 -0.0492,-0.11906 -0.051,-0.16382 -0.002,-0.0448 0.0206,-0.0797 0.0671,-0.10474 0.0466,-0.0251 0.12085,-0.043 0.2229,-0.0537 0.10205,-0.0107 0.2408,-0.0161 0.41626,-0.0161 0.15755,1e-5 0.28377,0.003 0.37866,0.008 0.0949,0.005 0.16919,0.0134 0.2229,0.0242 0.0537,0.0107 0.0931,0.0277 0.11817,0.051 0.0251,0.0233 0.0465,0.0528 0.0644,0.0886 l 0.854,1.60058 0.84864,-1.60058 c 0.0107,-0.0286 0.0268,-0.0537 0.0483,-0.0752 0.0215,-0.0215 0.0555,-0.0394 0.10206,-0.0537 0.0465,-0.0143 0.1101,-0.0251 0.19067,-0.0322 0.0806,-0.007 0.19067,-0.0107 0.33032,-0.0107 0.15755,1e-5 0.28377,0.004 0.37866,0.0107 0.0949,0.007 0.16292,0.0233 0.20411,0.0483 0.0412,0.0251 0.0609,0.06 0.0591,0.10474 -0.002,0.0448 -0.0224,0.10295 -0.0618,0.17456 l -1.19238,2.17529 z"
         style="font-size:11px;font-weight:bold;font-family:Calibri;-inkscape-font-specification:Calibri Bold;stroke-width:1.50000000000000000;stroke-miterlimit:3;stroke-dasharray:none;fill:#0000bb;fill-opacity:1"
         id="path3811" />
    </g>
  </g>
</svg>
