<?xml version="1.0" encoding="UTF-8" standalone="no"?>
<!-- Created with Inkscape (http://www.inkscape.org/) -->

<svg
   xmlns:dc="http://purl.org/dc/elements/1.1/"
   xmlns:cc="http://creativecommons.org/ns#"
   xmlns:rdf="http://www.w3.org/1999/02/22-rdf-syntax-ns#"
   xmlns:svg="http://www.w3.org/2000/svg"
   xmlns="http://www.w3.org/2000/svg"
   xmlns:sodipodi="http://sodipodi.sourceforge.net/DTD/sodipodi-0.dtd"
   xmlns:inkscape="http://www.inkscape.org/namespaces/inkscape"
   width="25.000004"
   height="25.000004"
   id="svg3336"
   sodipodi:version="0.32"
   inkscape:version="0.48.0 r9654"
   sodipodi:docname="tan.svg"
   inkscape:output_extension="org.inkscape.output.svg.inkscape"
   version="1.0">
  <defs
     id="defs3338">
    <marker
       inkscape:stockid="Arrow2Mend"
       orient="auto"
       refY="0"
       refX="0"
       id="Arrow2Mend"
       style="overflow:visible">
      <path
         id="path3629"
         style="font-size:12px;fill-rule:evenodd;stroke-width:0.625;stroke-linejoin:round"
         d="M 8.7185878,4.0337352 -2.2072895,0.01601326 8.7185884,-4.0017078 c -1.7454984,2.3720609 -1.7354408,5.6174519 -6e-7,8.035443 l 0,0 z"
         transform="scale(-0.6,-0.6)"
         inkscape:connector-curvature="0" />
    </marker>
    <marker
       inkscape:stockid="DotM"
       orient="auto"
       refY="0"
       refX="0"
       id="DotM"
       style="overflow:visible">
      <path
         id="path3667"
         d="m -2.5,-1 c 0,2.76 -2.24,5 -5,5 -2.76,0 -5,-2.24 -5,-5 0,-2.76 2.24,-5 5,-5 2.76,0 5,2.24 5,5 z"
         style="fill-rule:evenodd;stroke:#000000;stroke-width:1pt;marker-start:none;marker-end:none"
         transform="matrix(0.4,0,0,0.4,2.96,0.4)"
         inkscape:connector-curvature="0" />
    </marker>
    <marker
       inkscape:stockid="DotL"
       orient="auto"
       refY="0"
       refX="0"
       id="DotL"
       style="overflow:visible">
      <path
         id="path3664"
         d="m -2.5,-1 c 0,2.76 -2.24,5 -5,5 -2.76,0 -5,-2.24 -5,-5 0,-2.76 2.24,-5 5,-5 2.76,0 5,2.24 5,5 z"
         style="fill-rule:evenodd;stroke:#000000;stroke-width:1pt;marker-start:none;marker-end:none"
         transform="matrix(0.8,0,0,0.8,5.92,0.8)"
         inkscape:connector-curvature="0" />
    </marker>
    <marker
       style="overflow:visible"
       id="TriangleOutL"
       refX="0"
       refY="0"
       orient="auto"
       inkscape:stockid="TriangleOutL">
      <path
         transform="scale(0.8,0.8)"
         style="fill-rule:evenodd;stroke:#000000;stroke-width:1pt;marker-start:none"
         d="m 5.77,0 -8.65,5 0,-10 8.65,5 z"
         id="path8118"
         inkscape:connector-curvature="0" />
    </marker>
    <inkscape:perspective
       sodipodi:type="inkscape:persp3d"
       inkscape:vp_x="0 : 526.18109 : 1"
       inkscape:vp_y="0 : 1000 : 0"
       inkscape:vp_z="744.09448 : 526.18109 : 1"
       inkscape:persp3d-origin="372.04724 : 350.78739 : 1"
       id="perspective3344" />
  </defs>
  <sodipodi:namedview
     id="base"
     pagecolor="#ffffff"
     bordercolor="#666666"
     borderopacity="1.0"
     gridtolerance="10000"
     guidetolerance="10"
     objecttolerance="10"
     inkscape:pageopacity="0.0"
     inkscape:pageshadow="2"
     inkscape:zoom="16.501798"
     inkscape:cx="26.424982"
     inkscape:cy="9.3802175"
     inkscape:document-units="px"
     inkscape:current-layer="layer1"
     showgrid="false"
     inkscape:window-width="1680"
     inkscape:window-height="982"
     inkscape:window-x="1592"
     inkscape:window-y="142"
     showguides="true"
     inkscape:snap-global="true"
     inkscape:snap-intersection-line-segments="true"
     inkscape:snap-center="true"
     inkscape:window-maximized="1"
     fit-margin-top="0"
     fit-margin-left="0"
     fit-margin-right="0"
     fit-margin-bottom="0">
    <inkscape:grid
       type="xygrid"
       id="grid2405"
       visible="true"
       enabled="true"
       empspacing="5"
       snapvisiblegridlinesonly="true" />
  </sodipodi:namedview>
  <metadata
     id="metadata3341">
    <rdf:RDF>
      <cc:Work
         rdf:about="">
        <dc:format>image/svg+xml</dc:format>
        <dc:type
           rdf:resource="http://purl.org/dc/dcmitype/StillImage" />
        <dc:title></dc:title>
      </cc:Work>
    </rdf:RDF>
  </metadata>
  <g
     inkscape:label="Layer 1"
     inkscape:groupmode="layer"
     id="layer1"
     transform="translate(-247.4661,-352.29314)">
    <path
       transform="matrix(-0.18483146,0,0,-0.18483146,288.61497,459.62581)"
       style="fill:#ffffff;fill-opacity:1;stroke:#0000bb;stroke-width:8.1155014;stroke-linecap:square;stroke-miterlimit:3;stroke-opacity:1"
       d="m 218.57143,513.07648 c 0,35.10953 -28.4619,63.57143 -63.57143,63.57143 -35.10953,0 -63.57143,-28.4619 -63.57143,-63.57143 0,-35.10953 28.4619,-63.57143 63.57143,-63.57143 35.10953,0 63.57143,28.4619 63.57143,63.57143 z"
       id="path2395" />
    <g
       style="font-size:11px;font-style:normal;font-variant:normal;font-weight:bold;font-stretch:normal;line-height:125%;letter-spacing:0px;word-spacing:0px;fill:#0000bb;fill-opacity:1;stroke:none;font-family:Calibri;-inkscape-font-specification:Calibri Bold"
       id="text2997">
      <path
         d="m 256.16068,367.30142 c -1e-5,0.15755 -0.01,0.2784 -0.0296,0.36255 -0.0197,0.0841 -0.0456,0.14323 -0.0779,0.17725 -0.0322,0.034 -0.0797,0.0644 -0.14233,0.0913 -0.0627,0.0269 -0.13607,0.0501 -0.22022,0.0698 -0.0841,0.0197 -0.17545,0.0349 -0.27392,0.0457 -0.0985,0.0107 -0.19784,0.0161 -0.2981,0.0161 -0.26855,0 -0.5013,-0.034 -0.69824,-0.10205 -0.19694,-0.068 -0.35986,-0.17277 -0.48877,-0.31421 -0.12891,-0.14144 -0.2238,-0.31958 -0.28467,-0.53443 -0.0609,-0.21484 -0.0913,-0.46907 -0.0913,-0.76269 l 0,-2.45459 -0.5747,0 c -0.068,0 -0.11996,-0.0421 -0.15576,-0.12622 -0.0358,-0.0841 -0.0537,-0.22469 -0.0537,-0.42163 0,-0.10384 0.004,-0.19157 0.0134,-0.26319 0.009,-0.0716 0.0224,-0.128 0.0403,-0.16919 0.0179,-0.0412 0.0403,-0.0707 0.0671,-0.0886 0.0269,-0.0179 0.0582,-0.0268 0.094,-0.0268 l 0.56933,0 0,-1.06885 c 0,-0.0358 0.01,-0.068 0.0296,-0.0967 0.0197,-0.0286 0.0555,-0.0528 0.10742,-0.0725 0.0519,-0.0197 0.12174,-0.034 0.20947,-0.043 0.0877,-0.009 0.19604,-0.0134 0.32495,-0.0134 0.13249,10e-6 0.24259,0.004 0.33032,0.0134 0.0877,0.009 0.15666,0.0233 0.20679,0.043 0.0501,0.0197 0.0859,0.0439 0.10742,0.0725 0.0215,0.0286 0.0322,0.0609 0.0322,0.0967 l 0,1.06885 1.04199,0 c 0.0358,0 0.0671,0.009 0.094,0.0268 0.0269,0.0179 0.0492,0.0475 0.0671,0.0886 0.0179,0.0412 0.0313,0.0976 0.0403,0.16919 0.009,0.0716 0.0134,0.15935 0.0134,0.26319 -1e-5,0.19694 -0.0179,0.33749 -0.0537,0.42163 -0.0358,0.0842 -0.0877,0.12622 -0.15576,0.12622 l -1.04736,0 0,2.25049 c 0,0.26139 0.0412,0.45744 0.12353,0.58813 0.0824,0.1307 0.22917,0.19605 0.44043,0.19605 0.0716,0 0.13607,-0.006 0.19336,-0.0188 0.0573,-0.0125 0.10832,-0.0269 0.15308,-0.043 0.0448,-0.0161 0.0823,-0.0304 0.11279,-0.043 0.0304,-0.0125 0.0582,-0.0188 0.0833,-0.0188 0.0215,0 0.0421,0.006 0.0618,0.0188 0.0197,0.0125 0.0349,0.0376 0.0457,0.0752 0.0107,0.0376 0.0206,0.0886 0.0295,0.15307 0.009,0.0645 0.0134,0.14681 0.0134,0.24707 z"
         style=""
         id="path3809" />
      <path
         d="m 261.23099,367.79019 c -1e-5,0.0501 -0.0179,0.0895 -0.0537,0.11817 -0.0358,0.0286 -0.0922,0.0492 -0.16919,0.0618 -0.077,0.0125 -0.19068,0.0188 -0.34107,0.0188 -0.16113,0 -0.2784,-0.006 -0.3518,-0.0188 -0.0734,-0.0125 -0.12533,-0.0331 -0.15577,-0.0618 -0.0304,-0.0287 -0.0456,-0.068 -0.0456,-0.11817 l 0,-0.38135 c -0.19694,0.21127 -0.42163,0.37598 -0.67407,0.49414 -0.25245,0.11817 -0.53264,0.17725 -0.84058,0.17725 -0.25423,0 -0.48787,-0.0331 -0.70093,-0.0994 -0.21305,-0.0662 -0.39746,-0.16472 -0.55322,-0.29541 -0.15576,-0.1307 -0.27661,-0.29273 -0.36255,-0.48609 -0.0859,-0.19336 -0.1289,-0.41894 -0.1289,-0.67676 0,-0.27929 0.0546,-0.52189 0.16381,-0.72778 0.10922,-0.20589 0.27214,-0.37597 0.48877,-0.51025 0.21664,-0.13428 0.48609,-0.23364 0.80835,-0.2981 0.32227,-0.0644 0.69645,-0.0967 1.12256,-0.0967 l 0.46729,0 0,-0.29004 c -1e-5,-0.15039 -0.0152,-0.28198 -0.0457,-0.39477 -0.0304,-0.11279 -0.0806,-0.20679 -0.15039,-0.28199 -0.0698,-0.0752 -0.16292,-0.13069 -0.27929,-0.1665 -0.11638,-0.0358 -0.26051,-0.0537 -0.43238,-0.0537 -0.22559,0 -0.427,0.0251 -0.60425,0.0752 -0.17724,0.0501 -0.3339,0.10564 -0.46997,0.16651 -0.13607,0.0609 -0.24975,0.11638 -0.34106,0.1665 -0.0913,0.0501 -0.16561,0.0752 -0.2229,0.0752 -0.0394,0 -0.0743,-0.0125 -0.10474,-0.0376 -0.0304,-0.0251 -0.0555,-0.0609 -0.0752,-0.10742 -0.0197,-0.0466 -0.0349,-0.10384 -0.0457,-0.17188 -0.0107,-0.068 -0.0161,-0.14322 -0.0161,-0.22558 0,-0.111 0.009,-0.19873 0.0269,-0.26319 0.0179,-0.0644 0.0519,-0.12263 0.10205,-0.17456 0.0501,-0.0519 0.13785,-0.1092 0.26318,-0.17187 0.12532,-0.0627 0.27213,-0.12085 0.44043,-0.17456 0.16829,-0.0537 0.3518,-0.0976 0.55054,-0.13159 0.19872,-0.034 0.40372,-0.051 0.61499,-0.051 0.37597,10e-6 0.69734,0.0367 0.96411,0.11011 0.26676,0.0734 0.48608,0.1862 0.65796,0.33838 0.17187,0.15218 0.29719,0.34823 0.37597,0.58813 0.0788,0.23991 0.11816,0.52458 0.11817,0.85401 z m -1.32666,-2.05176 -0.51563,0 c -0.21842,1e-5 -0.40462,0.0161 -0.55859,0.0483 -0.15397,0.0322 -0.2793,0.0806 -0.37598,0.14502 -0.0967,0.0645 -0.1674,0.14234 -0.21216,0.23365 -0.0448,0.0913 -0.0671,0.19604 -0.0671,0.3142 -1e-5,0.20053 0.0635,0.35808 0.19067,0.47266 0.12711,0.11459 0.30346,0.17188 0.52905,0.17188 0.18978,0 0.36434,-0.0483 0.52368,-0.14502 0.15934,-0.0967 0.32137,-0.23812 0.48609,-0.42432 z"
         style=""
         id="path3811" />
      <path
         d="m 267.16068,367.77408 c -1e-5,0.0358 -0.0108,0.0671 -0.0322,0.094 -0.0215,0.0269 -0.0573,0.0492 -0.10742,0.0671 -0.0501,0.0179 -0.11907,0.0313 -0.20679,0.0403 -0.0877,0.009 -0.19605,0.0134 -0.32495,0.0134 -0.13249,0 -0.2426,-0.004 -0.33032,-0.0134 -0.0877,-0.009 -0.15666,-0.0224 -0.20679,-0.0403 -0.0501,-0.0179 -0.0859,-0.0403 -0.10742,-0.0671 -0.0215,-0.0268 -0.0322,-0.0582 -0.0322,-0.094 l 0,-2.73389 c 0,-0.23274 -0.017,-0.41536 -0.051,-0.54785 -0.034,-0.13248 -0.0833,-0.24617 -0.14771,-0.34106 -0.0645,-0.0949 -0.14771,-0.16829 -0.24976,-0.22022 -0.10205,-0.0519 -0.22111,-0.0779 -0.35717,-0.0779 -0.17188,0 -0.34555,0.0627 -0.521,0.18799 -0.17546,0.12533 -0.35807,0.30794 -0.54785,0.54785 l 0,3.18506 c 0,0.0358 -0.0107,0.0671 -0.0322,0.094 -0.0215,0.0269 -0.0582,0.0492 -0.11011,0.0671 -0.0519,0.0179 -0.12085,0.0313 -0.20678,0.0403 -0.0859,0.009 -0.19515,0.0134 -0.32764,0.0134 -0.13249,0 -0.2417,-0.004 -0.32764,-0.0134 -0.0859,-0.009 -0.15486,-0.0224 -0.20678,-0.0403 -0.0519,-0.0179 -0.0886,-0.0403 -0.11011,-0.0671 -0.0215,-0.0268 -0.0322,-0.0582 -0.0322,-0.094 l 0,-4.79102 c 0,-0.0358 0.009,-0.0671 0.0269,-0.094 0.0179,-0.0269 0.0501,-0.0492 0.0967,-0.0671 0.0466,-0.0179 0.10652,-0.0313 0.17993,-0.0403 0.0734,-0.009 0.16561,-0.0134 0.27661,-0.0134 0.11458,0 0.20947,0.004 0.28467,0.0134 0.0752,0.009 0.13338,0.0224 0.17456,0.0403 0.0412,0.0179 0.0707,0.0403 0.0886,0.0671 0.0179,0.0269 0.0269,0.0582 0.0269,0.094 l 0,0.55323 c 0.26497,-0.28646 0.53442,-0.5013 0.80835,-0.64454 0.27392,-0.14322 0.55948,-0.21483 0.85669,-0.21484 0.32584,10e-6 0.60066,0.0537 0.82446,0.16113 0.22379,0.10743 0.40462,0.25334 0.54248,0.43775 0.13785,0.18441 0.23722,0.40015 0.2981,0.64721 0.0609,0.24708 0.0913,0.54428 0.0913,0.89161 z"
         style=""
         id="path3813" />
    </g>
  </g>
</svg>
