<?xml version="1.0" encoding="UTF-8" standalone="no"?>
<!-- Created with Inkscape (http://www.inkscape.org/) -->

<svg
   xmlns:dc="http://purl.org/dc/elements/1.1/"
   xmlns:cc="http://creativecommons.org/ns#"
   xmlns:rdf="http://www.w3.org/1999/02/22-rdf-syntax-ns#"
   xmlns:svg="http://www.w3.org/2000/svg"
   xmlns="http://www.w3.org/2000/svg"
   xmlns:sodipodi="http://sodipodi.sourceforge.net/DTD/sodipodi-0.dtd"
   xmlns:inkscape="http://www.inkscape.org/namespaces/inkscape"
   width="40.004864"
   height="40.004864"
   id="svg4097"
   version="1.1"
   inkscape:version="0.48.0 r9654"
   sodipodi:docname="forcesensor_iso.svg">
  <defs
     id="defs4099" />
  <sodipodi:namedview
     id="base"
     pagecolor="#ffffff"
     bordercolor="#666666"
     borderopacity="1.0"
     inkscape:pageopacity="0.0"
     inkscape:pageshadow="2"
     inkscape:zoom="13.229962"
     inkscape:cx="18.813325"
     inkscape:cy="12.181791"
     inkscape:document-units="px"
     inkscape:current-layer="layer1"
     showgrid="false"
     inkscape:window-width="1680"
     inkscape:window-height="982"
     inkscape:window-x="-8"
     inkscape:window-y="38"
     inkscape:window-maximized="1"
     fit-margin-top="0"
     fit-margin-left="0"
     fit-margin-right="0"
     fit-margin-bottom="0" />
  <metadata
     id="metadata4102">
    <rdf:RDF>
      <cc:Work
         rdf:about="">
        <dc:format>image/svg+xml</dc:format>
        <dc:type
           rdf:resource="http://purl.org/dc/dcmitype/StillImage" />
        <dc:title />
      </cc:Work>
    </rdf:RDF>
  </metadata>
  <g
     inkscape:label="Layer 1"
     inkscape:groupmode="layer"
     id="layer1"
     transform="translate(-355.06854,-483.01771)">
    <path
       transform="matrix(0.54312924,0,0,0.54312924,255.43583,238.70824)"
       style="fill:none;stroke:#000000;stroke-width:1.84118247;stroke-linecap:square;stroke-miterlimit:4;stroke-dashoffset:0;stroke-opacity:1"
       d="m 256.17317,486.64642 c 0,19.82871 -16.07435,35.90306 -35.90306,35.90306 -19.82871,0 -35.90306,-16.07435 -35.90306,-35.90306 0,-19.82871 16.07435,-35.90305 35.90306,-35.90305 19.82871,0 35.90306,16.07434 35.90306,35.90305 z"
       id="path4105" />
    <g
       style="font-size:30px;font-style:normal;font-variant:normal;font-weight:normal;font-stretch:normal;line-height:125%;letter-spacing:0px;word-spacing:0px;fill:#000000;fill-opacity:1;stroke:none;font-family:Arial;-inkscape-font-specification:Arial"
       id="text5168">
      <path
         d="m 380.05145,494.58264 c -10e-6,0.18557 -0.01,0.3467 -0.0293,0.4834 -0.0195,0.13674 -0.0537,0.2466 -0.10254,0.32959 -0.0488,0.083 -0.105,0.14406 -0.16846,0.18311 -0.0635,0.0391 -0.12941,0.0586 -0.19775,0.0586 l -6.94336,0 0,6.44531 6.5625,0 c 0.0683,10e-6 0.13426,0.0171 0.19775,0.0513 0.0635,0.0342 0.11962,0.0903 0.16846,0.16846 0.0488,0.0781 0.083,0.18311 0.10254,0.31494 0.0195,0.13185 0.0293,0.3003 0.0293,0.50537 -1e-5,0.18556 -0.01,0.34425 -0.0293,0.47607 -0.0195,0.13185 -0.0537,0.23927 -0.10254,0.32227 -0.0488,0.083 -0.105,0.14649 -0.16846,0.19043 -0.0635,0.0439 -0.12941,0.0659 -0.19775,0.0659 l -6.5625,0 0,7.89551 c -10e-6,0.0684 -0.0195,0.13427 -0.0586,0.19775 -0.0391,0.0635 -0.10742,0.1123 -0.20508,0.14648 -0.0977,0.0342 -0.22461,0.0635 -0.38085,0.0879 -0.15626,0.0244 -0.36134,0.0366 -0.61524,0.0366 -0.23438,0 -0.43457,-0.0122 -0.60059,-0.0366 -0.16601,-0.0244 -0.29785,-0.0537 -0.3955,-0.0879 -0.0977,-0.0342 -0.16602,-0.083 -0.20508,-0.14648 -0.0391,-0.0635 -0.0586,-0.12939 -0.0586,-0.19775 l 0,-17.54883 c -1e-5,-0.38084 0.10009,-0.64696 0.30029,-0.79834 0.20019,-0.15135 0.41259,-0.22703 0.63721,-0.22705 l 8.52539,0 c 0.0683,2e-5 0.13426,0.0196 0.19775,0.0586 0.0635,0.0391 0.11962,0.10256 0.16846,0.19043 0.0488,0.0879 0.083,0.20266 0.10254,0.34424 0.0195,0.14162 0.0293,0.30519 0.0293,0.49072 z"
         style="font-family:Calibri;-inkscape-font-specification:Calibri"
         id="path5174" />
    </g>
  </g>
</svg>
