<?xml version="1.0" encoding="UTF-8" standalone="no"?>
<!-- Created with Inkscape (http://www.inkscape.org/) -->

<svg
   xmlns:dc="http://purl.org/dc/elements/1.1/"
   xmlns:cc="http://creativecommons.org/ns#"
   xmlns:rdf="http://www.w3.org/1999/02/22-rdf-syntax-ns#"
   xmlns:svg="http://www.w3.org/2000/svg"
   xmlns="http://www.w3.org/2000/svg"
   xmlns:sodipodi="http://sodipodi.sourceforge.net/DTD/sodipodi-0.dtd"
   xmlns:inkscape="http://www.inkscape.org/namespaces/inkscape"
   width="40.004864"
   height="40.004864"
   id="svg4097"
   version="1.1"
   inkscape:version="0.48.0 r9654"
   sodipodi:docname="positionsensor_iso.svg">
  <defs
     id="defs4099" />
  <sodipodi:namedview
     id="base"
     pagecolor="#ffffff"
     bordercolor="#666666"
     borderopacity="1.0"
     inkscape:pageopacity="0.0"
     inkscape:pageshadow="2"
     inkscape:zoom="6.6149809"
     inkscape:cx="71.085527"
     inkscape:cy="13.641481"
     inkscape:document-units="px"
     inkscape:current-layer="layer1"
     showgrid="false"
     inkscape:window-width="1680"
     inkscape:window-height="982"
     inkscape:window-x="-8"
     inkscape:window-y="38"
     inkscape:window-maximized="1"
     fit-margin-top="0"
     fit-margin-left="0"
     fit-margin-right="0"
     fit-margin-bottom="0" />
  <metadata
     id="metadata4102">
    <rdf:RDF>
      <cc:Work
         rdf:about="">
        <dc:format>image/svg+xml</dc:format>
        <dc:type
           rdf:resource="http://purl.org/dc/dcmitype/StillImage" />
        <dc:title />
      </cc:Work>
    </rdf:RDF>
  </metadata>
  <g
     inkscape:label="Layer 1"
     inkscape:groupmode="layer"
     id="layer1"
     transform="translate(-354.56647,-483.51492)">
    <path
       sodipodi:type="arc"
       style="fill:none;stroke:#000000;stroke-width:1.84118247;stroke-linecap:square;stroke-miterlimit:4;stroke-opacity:1;stroke-dasharray:none;stroke-dashoffset:0"
       id="path4105"
       sodipodi:cx="220.27011"
       sodipodi:cy="486.64642"
       sodipodi:rx="35.903057"
       sodipodi:ry="35.903057"
       d="m 256.17317,486.64642 a 35.903057,35.903057 0 1 1 -71.80612,0 35.903057,35.903057 0 1 1 71.80612,0 z"
       transform="matrix(0.54312924,0,0,0.54312924,254.93376,239.20545)" />
    <g
       style="font-size:30px;font-style:normal;font-variant:normal;font-weight:normal;font-stretch:normal;line-height:125%;letter-spacing:0px;word-spacing:0px;fill:#000000;fill-opacity:1;stroke:none;font-family:Calibri;-inkscape-font-specification:Calibri"
       id="text5192">
      <path
         d="m 380.32574,509.83084 c 0.0781,0.13672 0.11718,0.25147 0.11719,0.34424 -10e-6,0.0928 -0.0464,0.16846 -0.13916,0.22705 -0.0928,0.0586 -0.23439,0.1001 -0.4248,0.12451 -0.19044,0.0244 -0.43703,0.0366 -0.73975,0.0366 -0.29298,0 -0.52491,-0.007 -0.6958,-0.022 -0.17091,-0.0147 -0.30763,-0.0391 -0.41016,-0.0732 -0.10254,-0.0342 -0.18067,-0.0781 -0.23437,-0.13184 -0.0537,-0.0537 -0.10011,-0.11474 -0.13916,-0.1831 l -3.16406,-5.2295 -3.14942,5.2295 c -0.0391,0.0684 -0.0854,0.12939 -0.13916,0.1831 -0.0537,0.0537 -0.13184,0.0977 -0.23437,0.13184 -0.10254,0.0342 -0.23682,0.0586 -0.40283,0.0732 -0.16602,0.0147 -0.38575,0.022 -0.65918,0.022 -0.28321,0 -0.51514,-0.0122 -0.69581,-0.0366 -0.18066,-0.0244 -0.3125,-0.0659 -0.3955,-0.12451 -0.083,-0.0586 -0.12207,-0.13428 -0.11719,-0.22705 0.005,-0.0928 0.0513,-0.20752 0.13916,-0.34424 l 4.10156,-6.43066 -3.88183,-6.19629 c -0.0781,-0.13671 -0.11963,-0.25145 -0.12452,-0.34424 -0.005,-0.0928 0.0391,-0.17088 0.13184,-0.23438 0.0928,-0.0635 0.23437,-0.10496 0.42481,-0.12451 0.19042,-0.0195 0.44189,-0.0293 0.75439,-0.0293 0.2832,10e-6 0.51025,0.007 0.68115,0.022 0.1709,0.0147 0.30517,0.0366 0.40283,0.0659 0.0977,0.0293 0.1709,0.0684 0.21973,0.11718 0.0488,0.0489 0.0928,0.10744 0.13184,0.17579 l 3.00293,4.90722 3.04687,-4.90722 c 0.039,-0.0586 0.083,-0.1123 0.13184,-0.16114 0.0488,-0.0488 0.11473,-0.0903 0.19775,-0.12451 0.083,-0.0342 0.20019,-0.0586 0.35156,-0.0732 0.15136,-0.0146 0.35888,-0.022 0.62256,-0.022 0.28319,10e-6 0.51513,0.01 0.6958,0.0293 0.18066,0.0195 0.31493,0.0562 0.40283,0.10987 0.0879,0.0537 0.12695,0.1294 0.11719,0.22705 -0.01,0.0977 -0.0586,0.21974 -0.14648,0.36621 l -3.85254,6.12304 z"
         style=""
         id="path5197" />
    </g>
  </g>
</svg>
