<?xml version="1.0" encoding="UTF-8" standalone="no"?>
<!-- Created with Inkscape (http://www.inkscape.org/) -->

<svg
   xmlns:dc="http://purl.org/dc/elements/1.1/"
   xmlns:cc="http://creativecommons.org/ns#"
   xmlns:rdf="http://www.w3.org/1999/02/22-rdf-syntax-ns#"
   xmlns:svg="http://www.w3.org/2000/svg"
   xmlns="http://www.w3.org/2000/svg"
   xmlns:xlink="http://www.w3.org/1999/xlink"
   xmlns:sodipodi="http://sodipodi.sourceforge.net/DTD/sodipodi-0.dtd"
   xmlns:inkscape="http://www.inkscape.org/namespaces/inkscape"
   width="40"
   height="40"
   id="svg3336"
   sodipodi:version="0.32"
   inkscape:version="0.48.3.1 r9886"
   sodipodi:docname="cppcomponent.svg"
   inkscape:output_extension="org.inkscape.output.svg.inkscape"
   version="1.0">
  <sodipodi:namedview
     id="base"
     pagecolor="#ffffff"
     bordercolor="#666666"
     borderopacity="1.0"
     gridtolerance="10000"
     guidetolerance="10"
     objecttolerance="10"
     inkscape:pageopacity="0.0"
     inkscape:pageshadow="2"
     inkscape:zoom="3.0585939"
     inkscape:cx="23.669074"
     inkscape:cy="25.273298"
     inkscape:document-units="px"
     inkscape:current-layer="layer1"
     showgrid="false"
     inkscape:window-width="1280"
     inkscape:window-height="776"
     inkscape:window-x="0"
     inkscape:window-y="24"
     showguides="true"
     inkscape:snap-global="true"
     inkscape:snap-intersection-line-segments="true"
     inkscape:snap-center="true"
     inkscape:window-maximized="1"
     fit-margin-top="0"
     fit-margin-left="0"
     fit-margin-right="0"
     fit-margin-bottom="0"
     inkscape:guide-bbox="true">
    <inkscape:grid
       snapvisiblegridlinesonly="true"
       empspacing="5"
       enabled="true"
       visible="true"
       id="grid2405"
       type="xygrid"
       originx="-8.48549px"
       originy="0.67297387px" />
    <sodipodi:guide
       orientation="0.70710678,0.70710678"
       position="-210.69267,-57.44002"
       id="guide9542" />
    <sodipodi:guide
       orientation="0.70710678,0.70710678"
       position="-201.86508,-52.862754"
       id="guide9544" />
  </sodipodi:namedview>
  <defs
     id="defs3338">
    <linearGradient
       inkscape:collect="always"
       id="linearGradient3871">
      <stop
         style="stop-color:#000000;stop-opacity:1;"
         offset="0"
         id="stop3873" />
      <stop
         style="stop-color:#000000;stop-opacity:0;"
         offset="1"
         id="stop3875" />
    </linearGradient>
    <marker
       style="overflow:visible"
       id="Arrow2Mend"
       refX="0"
       refY="0"
       orient="auto"
       inkscape:stockid="Arrow2Mend">
      <path
         transform="scale(-0.6,-0.6)"
         d="M 8.7185878,4.0337352 -2.2072895,0.01601326 8.7185884,-4.0017078 c -1.7454984,2.3720609 -1.7354408,5.6174519 -6e-7,8.035443 l 0,0 z"
         style="font-size:12px;fill-rule:evenodd;stroke-width:0.625;stroke-linejoin:round"
         id="path3629"
         inkscape:connector-curvature="0" />
    </marker>
    <marker
       style="overflow:visible"
       id="DotM"
       refX="0"
       refY="0"
       orient="auto"
       inkscape:stockid="DotM">
      <path
         transform="matrix(0.4,0,0,0.4,2.96,0.4)"
         style="fill-rule:evenodd;stroke:#000000;stroke-width:1pt;marker-start:none;marker-end:none"
         d="m -2.5,-1 c 0,2.76 -2.24,5 -5,5 -2.76,0 -5,-2.24 -5,-5 0,-2.76 2.24,-5 5,-5 2.76,0 5,2.24 5,5 z"
         id="path3667"
         inkscape:connector-curvature="0" />
    </marker>
    <marker
       style="overflow:visible"
       id="DotL"
       refX="0"
       refY="0"
       orient="auto"
       inkscape:stockid="DotL">
      <path
         transform="matrix(0.8,0,0,0.8,5.92,0.8)"
         style="fill-rule:evenodd;stroke:#000000;stroke-width:1pt;marker-start:none;marker-end:none"
         d="m -2.5,-1 c 0,2.76 -2.24,5 -5,5 -2.76,0 -5,-2.24 -5,-5 0,-2.76 2.24,-5 5,-5 2.76,0 5,2.24 5,5 z"
         id="path3664"
         inkscape:connector-curvature="0" />
    </marker>
    <marker
       inkscape:stockid="TriangleOutL"
       orient="auto"
       refY="0"
       refX="0"
       id="TriangleOutL"
       style="overflow:visible">
      <path
         id="path8118"
         d="m 5.77,0 -8.65,5 0,-10 8.65,5 z"
         style="fill-rule:evenodd;stroke:#000000;stroke-width:1pt;marker-start:none"
         transform="scale(0.8,0.8)"
         inkscape:connector-curvature="0" />
    </marker>
    <inkscape:perspective
       id="perspective3344"
       inkscape:persp3d-origin="372.04724 : 350.78739 : 1"
       inkscape:vp_z="744.09448 : 526.18109 : 1"
       inkscape:vp_y="0 : 1000 : 0"
       inkscape:vp_x="0 : 526.18109 : 1"
       sodipodi:type="inkscape:persp3d" />
    <inkscape:perspective
       sodipodi:type="inkscape:persp3d"
       inkscape:vp_x="0 : 0.5 : 1"
       inkscape:vp_y="0 : 1000 : 0"
       inkscape:vp_z="1 : 0.5 : 1"
       inkscape:persp3d-origin="0.5 : 0.33333333 : 1"
       id="perspective3742" />
    <inkscape:perspective
       sodipodi:type="inkscape:persp3d"
       inkscape:vp_x="0 : 0.5 : 1"
       inkscape:vp_y="0 : 1000 : 0"
       inkscape:vp_z="1 : 0.5 : 1"
       inkscape:persp3d-origin="0.5 : 0.33333333 : 1"
       id="perspective3676" />
    <inkscape:perspective
       sodipodi:type="inkscape:persp3d"
       inkscape:vp_x="0 : 0.5 : 1"
       inkscape:vp_y="0 : 1000 : 0"
       inkscape:vp_z="1 : 0.5 : 1"
       inkscape:persp3d-origin="0.5 : 0.33333333 : 1"
       id="perspective3701" />
    <inkscape:perspective
       sodipodi:type="inkscape:persp3d"
       inkscape:vp_x="0 : 0.5 : 1"
       inkscape:vp_y="0 : 1000 : 0"
       inkscape:vp_z="1 : 0.5 : 1"
       inkscape:persp3d-origin="0.5 : 0.33333333 : 1"
       id="perspective3726" />
    <inkscape:perspective
       sodipodi:type="inkscape:persp3d"
       inkscape:vp_x="0 : 0.5 : 1"
       inkscape:vp_y="0 : 1000 : 0"
       inkscape:vp_z="1 : 0.5 : 1"
       inkscape:persp3d-origin="0.5 : 0.33333333 : 1"
       id="perspective3815" />
    <inkscape:perspective
       id="perspective3344-4"
       inkscape:persp3d-origin="372.04724 : 350.78739 : 1"
       inkscape:vp_z="744.09448 : 526.18109 : 1"
       inkscape:vp_y="0 : 1000 : 0"
       inkscape:vp_x="0 : 526.18109 : 1"
       sodipodi:type="inkscape:persp3d" />
    <marker
       inkscape:stockid="TriangleOutL"
       orient="auto"
       refY="0"
       refX="0"
       id="TriangleOutL-4"
       style="overflow:visible">
      <path
         inkscape:connector-curvature="0"
         id="path8118-7"
         d="m 5.77,0 -8.65,5 0,-10 8.65,5 z"
         style="fill-rule:evenodd;stroke:#000000;stroke-width:1pt;marker-start:none"
         transform="scale(0.8,0.8)" />
    </marker>
    <marker
       style="overflow:visible"
       id="DotL-6"
       refX="0"
       refY="0"
       orient="auto"
       inkscape:stockid="DotL">
      <path
         inkscape:connector-curvature="0"
         transform="matrix(0.8,0,0,0.8,5.92,0.8)"
         style="fill-rule:evenodd;stroke:#000000;stroke-width:1pt;marker-start:none;marker-end:none"
         d="m -2.5,-1 c 0,2.76 -2.24,5 -5,5 -2.76,0 -5,-2.24 -5,-5 0,-2.76 2.24,-5 5,-5 2.76,0 5,2.24 5,5 z"
         id="path3664-1" />
    </marker>
    <marker
       style="overflow:visible"
       id="DotM-1"
       refX="0"
       refY="0"
       orient="auto"
       inkscape:stockid="DotM">
      <path
         inkscape:connector-curvature="0"
         transform="matrix(0.4,0,0,0.4,2.96,0.4)"
         style="fill-rule:evenodd;stroke:#000000;stroke-width:1pt;marker-start:none;marker-end:none"
         d="m -2.5,-1 c 0,2.76 -2.24,5 -5,5 -2.76,0 -5,-2.24 -5,-5 0,-2.76 2.24,-5 5,-5 2.76,0 5,2.24 5,5 z"
         id="path3667-2" />
    </marker>
    <marker
       style="overflow:visible"
       id="Arrow2Mend-5"
       refX="0"
       refY="0"
       orient="auto"
       inkscape:stockid="Arrow2Mend">
      <path
         inkscape:connector-curvature="0"
         transform="scale(-0.6,-0.6)"
         d="M 8.7185878,4.0337352 -2.2072895,0.01601326 8.7185884,-4.0017078 c -1.7454984,2.3720609 -1.7354408,5.6174519 -6e-7,8.035443 l 0,0 z"
         style="font-size:12px;fill-rule:evenodd;stroke-width:0.625;stroke-linejoin:round"
         id="path3629-4" />
    </marker>
    <linearGradient
       inkscape:collect="always"
       xlink:href="#linearGradient3871"
       id="linearGradient3877"
       x1="222.92677"
       y1="399.8862"
       x2="246.49709"
       y2="399.8862"
       gradientUnits="userSpaceOnUse" />
  </defs>
  <metadata
     id="metadata3341">
    <rdf:RDF>
      <cc:Work
         rdf:about="">
        <dc:format>image/svg+xml</dc:format>
        <dc:type
           rdf:resource="http://purl.org/dc/dcmitype/StillImage" />
        <dc:title />
      </cc:Work>
    </rdf:RDF>
  </metadata>
  <g
     transform="translate(-214.71875,-379.875)"
     id="layer1"
     inkscape:groupmode="layer"
     inkscape:label="Layer 1">
    <rect
       style="fill:#ffffff;fill-opacity:1;stroke:#000000;stroke-width:2;stroke-linecap:square;stroke-linejoin:miter;stroke-miterlimit:4;stroke-opacity:1;stroke-dasharray:none;stroke-dashoffset:0"
       id="rect3623-1-1"
       width="38"
       height="38"
       x="215.71875"
       y="380.875" />
    <text
       transform="translate(211.66515,381.24194)"
       sodipodi:linespacing="125%"
       id="text3791"
       y="14.906749"
       x="60.546017"
       style="font-size:12px;font-style:normal;font-variant:normal;font-weight:normal;font-stretch:normal;text-align:start;line-height:125%;writing-mode:lr-tb;text-anchor:start;fill:#000000;fill-opacity:1;stroke:none;font-family:SymbolGreek;-inkscape-font-specification:Bitstream Vera Sans"
       xml:space="preserve"><tspan
         y="14.906749"
         x="60.546017"
         id="tspan3793"
         sodipodi:role="line" /></text>
    <g
       style="font-size:40px;font-style:normal;font-weight:normal;fill:#ff0000;fill-opacity:1;stroke:none;font-family:Bitstream Vera Sans"
       id="text8994">
      <path
         d="m 230.40334,403.40964 c -10e-6,0.13021 -0.005,0.24219 -0.0156,0.33593 -0.005,0.0885 -0.0156,0.16667 -0.0312,0.23438 -0.0156,0.0625 -0.0365,0.11719 -0.0625,0.16406 -0.026,0.0469 -0.0677,0.10157 -0.125,0.16406 -0.0573,0.0573 -0.16928,0.13282 -0.33594,0.22657 -0.16146,0.0937 -0.36198,0.18489 -0.60156,0.27343 -0.23438,0.0833 -0.50521,0.15365 -0.8125,0.21094 -0.30209,0.0573 -0.63021,0.0859 -0.98437,0.0859 -0.69272,0 -1.31772,-0.10677 -1.875,-0.32031 -0.5573,-0.21354 -1.03126,-0.53125 -1.42188,-0.95313 -0.39063,-0.42708 -0.6901,-0.95833 -0.89844,-1.59375 -0.20833,-0.63541 -0.3125,-1.37499 -0.3125,-2.21875 0,-0.85937 0.11459,-1.62239 0.34375,-2.28906 0.22917,-0.66666 0.54948,-1.22655 0.96094,-1.67969 0.41146,-0.45311 0.90364,-0.79686 1.47656,-1.03125 0.57812,-0.23436 1.21354,-0.35155 1.90625,-0.35156 0.28125,1e-5 0.55208,0.0235 0.8125,0.0703 0.26041,0.0469 0.5,0.10939 0.71875,0.1875 0.22395,0.0729 0.42447,0.15887 0.60157,0.25781 0.17707,0.099 0.29947,0.18491 0.36718,0.25782 0.0729,0.0677 0.12239,0.12501 0.14844,0.17187 0.026,0.0469 0.0469,0.10678 0.0625,0.17969 0.0156,0.0729 0.026,0.15886 0.0312,0.25781 0.0104,0.099 0.0156,0.22137 0.0156,0.36719 -10e-6,0.15626 -0.005,0.28907 -0.0156,0.39844 -0.0104,0.10938 -0.0286,0.19792 -0.0547,0.26562 -0.026,0.0677 -0.0573,0.1172 -0.0937,0.14844 -0.0365,0.0313 -0.0781,0.0469 -0.125,0.0469 -0.0781,1e-5 -0.17709,-0.0443 -0.29687,-0.13281 -0.1198,-0.0937 -0.27605,-0.1953 -0.46875,-0.30469 -0.18751,-0.11457 -0.41407,-0.21613 -0.67969,-0.30468 -0.26042,-0.0937 -0.57292,-0.14062 -0.9375,-0.14063 -0.40105,1e-5 -0.76042,0.0833 -1.07812,0.25 -0.31251,0.16147 -0.58074,0.39584 -0.80469,0.70313 -0.21876,0.30209 -0.38542,0.66928 -0.5,1.10156 -0.11459,0.4323 -0.17188,0.91928 -0.17188,1.46094 0,0.59375 0.0599,1.10938 0.17969,1.54687 0.125,0.4323 0.29948,0.78907 0.52344,1.07031 0.22916,0.28126 0.5026,0.49219 0.82031,0.63282 0.32291,0.13542 0.68489,0.20312 1.08594,0.20312 0.36458,0 0.67968,-0.0417 0.94531,-0.125 0.26562,-0.0885 0.49218,-0.18489 0.67969,-0.28906 0.1927,-0.10416 0.34895,-0.19791 0.46875,-0.28125 0.12499,-0.0833 0.22134,-0.125 0.28906,-0.125 0.0521,0 0.0937,0.0104 0.125,0.0312 0.0312,0.0208 0.0573,0.0625 0.0781,0.125 0.0208,0.0625 0.0365,0.15104 0.0469,0.26562 0.0104,0.10938 0.0156,0.25782 0.0156,0.44532"
         style="font-size:16px;font-variant:normal;font-weight:bold;font-stretch:normal;fill:#ff0000;font-family:Calibri;-inkscape-font-specification:Calibri Bold"
         id="path3026" />
      <path
         d="m 238.34084,400.4487 c -10e-6,0.14584 -0.008,0.26823 -0.0234,0.36719 -0.0156,0.099 -0.0391,0.17969 -0.0703,0.24218 -0.0313,0.0573 -0.0677,0.099 -0.10938,0.125 -0.0417,0.026 -0.0859,0.0391 -0.13281,0.0391 l -2.42969,0 0,2.64843 c 0,0.0521 -0.013,0.099 -0.0391,0.14063 -0.026,0.0365 -0.0703,0.0703 -0.13281,0.10156 -0.0625,0.026 -0.14584,0.0469 -0.25,0.0625 -0.10418,0.0156 -0.23438,0.0234 -0.39063,0.0234 -0.15625,0 -0.28646,-0.008 -0.39062,-0.0234 -0.10417,-0.0156 -0.18751,-0.0365 -0.25,-0.0625 -0.0625,-0.0312 -0.10938,-0.0651 -0.14063,-0.10156 -0.026,-0.0417 -0.0391,-0.0885 -0.0391,-0.14063 l 0,-2.64843 -2.42188,0 c -0.0469,0 -0.0911,-0.013 -0.13281,-0.0391 -0.0365,-0.026 -0.0703,-0.0677 -0.10156,-0.125 -0.0312,-0.0625 -0.0573,-0.14322 -0.0781,-0.24218 -0.0156,-0.099 -0.0234,-0.22135 -0.0234,-0.36719 0,-0.14062 0.008,-0.26041 0.0234,-0.35938 0.0156,-0.10416 0.0365,-0.18489 0.0625,-0.24218 0.0312,-0.0625 0.0651,-0.10677 0.10157,-0.13282 0.0365,-0.026 0.0781,-0.039 0.125,-0.0391 l 2.44531,0 0,-2.64062 c -1e-5,-0.0521 0.013,-0.099 0.0391,-0.14063 0.0312,-0.0469 0.0781,-0.0833 0.14063,-0.10937 0.0625,-0.0312 0.14583,-0.0547 0.25,-0.0703 0.10416,-0.0156 0.23437,-0.0234 0.39062,-0.0234 0.15625,10e-6 0.28645,0.008 0.39063,0.0234 0.10416,0.0156 0.18749,0.0391 0.25,0.0703 0.0625,0.026 0.10676,0.0625 0.13281,0.10937 0.026,0.0417 0.0391,0.0885 0.0391,0.14063 l 0,2.64062 2.45313,0 c 0.0417,1e-5 0.0807,0.013 0.11718,0.0391 0.0417,0.026 0.0755,0.0703 0.10157,0.13282 0.0312,0.0573 0.0547,0.13802 0.0703,0.24218 0.0156,0.099 0.0234,0.21876 0.0234,0.35938"
         style="font-size:16px;font-variant:normal;font-weight:bold;font-stretch:normal;fill:#ff0000;font-family:Calibri;-inkscape-font-specification:Calibri Bold"
         id="path3028" />
      <path
         d="m 246.49709,400.4487 c -10e-6,0.14584 -0.008,0.26823 -0.0234,0.36719 -0.0156,0.099 -0.0391,0.17969 -0.0703,0.24218 -0.0313,0.0573 -0.0677,0.099 -0.10938,0.125 -0.0417,0.026 -0.0859,0.0391 -0.13281,0.0391 l -2.42969,0 0,2.64843 c 0,0.0521 -0.013,0.099 -0.0391,0.14063 -0.026,0.0365 -0.0703,0.0703 -0.13281,0.10156 -0.0625,0.026 -0.14584,0.0469 -0.25,0.0625 -0.10418,0.0156 -0.23438,0.0234 -0.39063,0.0234 -0.15625,0 -0.28646,-0.008 -0.39062,-0.0234 -0.10417,-0.0156 -0.18751,-0.0365 -0.25,-0.0625 -0.0625,-0.0312 -0.10938,-0.0651 -0.14063,-0.10156 -0.026,-0.0417 -0.0391,-0.0885 -0.0391,-0.14063 l 0,-2.64843 -2.42188,0 c -0.0469,0 -0.0911,-0.013 -0.13281,-0.0391 -0.0365,-0.026 -0.0703,-0.0677 -0.10156,-0.125 -0.0312,-0.0625 -0.0573,-0.14322 -0.0781,-0.24218 -0.0156,-0.099 -0.0234,-0.22135 -0.0234,-0.36719 0,-0.14062 0.008,-0.26041 0.0234,-0.35938 0.0156,-0.10416 0.0365,-0.18489 0.0625,-0.24218 0.0312,-0.0625 0.0651,-0.10677 0.10157,-0.13282 0.0365,-0.026 0.0781,-0.039 0.125,-0.0391 l 2.44531,0 0,-2.64062 c -1e-5,-0.0521 0.013,-0.099 0.0391,-0.14063 0.0312,-0.0469 0.0781,-0.0833 0.14063,-0.10937 0.0625,-0.0312 0.14583,-0.0547 0.25,-0.0703 0.10416,-0.0156 0.23437,-0.0234 0.39062,-0.0234 0.15625,10e-6 0.28645,0.008 0.39063,0.0234 0.10416,0.0156 0.18749,0.0391 0.25,0.0703 0.0625,0.026 0.10676,0.0625 0.13281,0.10937 0.026,0.0417 0.0391,0.0885 0.0391,0.14063 l 0,2.64062 2.45313,0 c 0.0417,1e-5 0.0807,0.013 0.11718,0.0391 0.0417,0.026 0.0755,0.0703 0.10157,0.13282 0.0312,0.0573 0.0547,0.13802 0.0703,0.24218 0.0156,0.099 0.0234,0.21876 0.0234,0.35938"
         style="font-size:16px;font-variant:normal;font-weight:bold;font-stretch:normal;fill:#ff0000;font-family:Calibri;-inkscape-font-specification:Calibri Bold"
         id="path3030" />
    </g>
    <flowRoot
       xml:space="preserve"
       id="flowRoot9534"
       style="font-size:40px;font-style:normal;font-weight:normal;fill:#000000;fill-opacity:1;stroke:none;font-family:Bitstream Vera Sans"><flowRegion
         id="flowRegion9536"><rect
           id="rect9538"
           width="213.4968"
           height="113.45082"
           x="-107.23882"
           y="-62.796928" /></flowRegion><flowPara
         id="flowPara9540" /></flowRoot>    <flowRoot
       xml:space="preserve"
       id="flowRoot9546"
       style="font-size:40px;font-style:normal;font-weight:normal;writing-mode:lr-tb;fill:#000000;fill-opacity:1;stroke:none;font-family:Bitstream Vera Sans"><flowRegion
         id="flowRegion9548"><rect
           id="rect9550"
           width="173.93614"
           height="75.524902"
           x="-33.348656"
           y="-12.120048" /></flowRegion><flowPara
         id="flowPara9552" /></flowRoot>  </g>
</svg>
