<?xml version="1.0" encoding="UTF-8" standalone="no"?>
<!-- Created with Inkscape (http://www.inkscape.org/) -->

<svg
   xmlns:dc="http://purl.org/dc/elements/1.1/"
   xmlns:cc="http://creativecommons.org/ns#"
   xmlns:rdf="http://www.w3.org/1999/02/22-rdf-syntax-ns#"
   xmlns:svg="http://www.w3.org/2000/svg"
   xmlns="http://www.w3.org/2000/svg"
   xmlns:sodipodi="http://sodipodi.sourceforge.net/DTD/sodipodi-0.dtd"
   xmlns:inkscape="http://www.inkscape.org/namespaces/inkscape"
   width="60"
   height="40"
   id="svg2531"
   sodipodi:version="0.32"
   inkscape:version="0.48.1 r9760"
   sodipodi:docname="missingcomponenticon.svg"
   inkscape:output_extension="org.inkscape.output.svg.inkscape"
   version="1.0">
  <defs
     id="defs2533" />
  <sodipodi:namedview
     id="base"
     pagecolor="#ffffff"
     bordercolor="#666666"
     borderopacity="1.0"
     gridtolerance="10000"
     guidetolerance="10"
     objecttolerance="10"
     inkscape:pageopacity="0.0"
     inkscape:pageshadow="2"
     inkscape:zoom="7.5549872"
     inkscape:cx="33.543149"
     inkscape:cy="27.890228"
     inkscape:document-units="px"
     inkscape:current-layer="layer1"
     showgrid="false"
     inkscape:window-width="1680"
     inkscape:window-height="995"
     inkscape:window-x="-2"
     inkscape:window-y="-3"
     inkscape:window-maximized="1"
     showguides="false"
     inkscape:guide-bbox="true"
     fit-margin-top="0"
     fit-margin-left="0"
     fit-margin-right="0"
     fit-margin-bottom="0">
    <sodipodi:guide
       orientation="1,0"
       position="79.178787,84.818336"
       id="guide3946" />
  </sodipodi:namedview>
  <metadata
     id="metadata2536">
    <rdf:RDF>
      <cc:Work
         rdf:about="">
        <dc:format>image/svg+xml</dc:format>
        <dc:type
           rdf:resource="http://purl.org/dc/dcmitype/StillImage" />
        <dc:title />
      </cc:Work>
    </rdf:RDF>
  </metadata>
  <g
     inkscape:label="Layer 1"
     inkscape:groupmode="layer"
     id="layer1"
     transform="translate(-372.82739,-479.5358)">
    <rect
       style="fill:#ffffff;fill-opacity:1;stroke:#000000;stroke-width:2;stroke-miterlimit:4;stroke-dasharray:none"
       id="rect2878"
       width="58"
       height="38"
       x="373.82739"
       y="480.5358"
       ry="0" />
    <g
       style="font-size:16px;font-style:normal;font-variant:normal;font-weight:normal;font-stretch:normal;text-align:center;line-height:100%;letter-spacing:0px;word-spacing:0px;text-anchor:middle;fill:#ff0000;fill-opacity:1;stroke:none;font-family:Arial;-inkscape-font-specification:Arial"
       id="text2986">
      <path
         d="m 376.81958,497.16861 0,-11.45313 2.28125,0 2.71094,8.10938 c 0.24999,0.75521 0.43228,1.32031 0.54687,1.69531 0.1302,-0.41666 0.33333,-1.02864 0.60938,-1.83594 l 2.74219,-7.96875 2.03906,0 0,11.45313 -1.46094,0 0,-9.58594 -3.32812,9.58594 -1.36719,0 -3.3125,-9.75 0,9.75 -1.46094,0"
         style=""
         id="path3761" />
      <path
         d="m 390.03833,487.33267 0,-1.61719 1.40625,0 0,1.61719 -1.40625,0 m 0,9.83594 0,-8.29688 1.40625,0 0,8.29688 -1.40625,0"
         style=""
         id="path3763" />
      <path
         d="m 393.03052,494.69205 1.39062,-0.21875 c 0.0781,0.55729 0.29427,0.98437 0.64844,1.28125 0.35937,0.29687 0.85937,0.44531 1.5,0.44531 0.64583,0 1.12499,-0.13021 1.4375,-0.39063 0.31249,-0.26562 0.46874,-0.57551 0.46875,-0.92968 -10e-6,-0.31771 -0.13803,-0.56771 -0.41406,-0.75 -0.19272,-0.125 -0.67188,-0.28385 -1.4375,-0.47657 -1.03126,-0.26041 -1.7474,-0.48437 -2.14844,-0.67187 -0.39583,-0.1927 -0.69792,-0.45572 -0.90625,-0.78906 -0.20313,-0.33854 -0.30469,-0.71093 -0.30469,-1.11719 0,-0.36979 0.0833,-0.71093 0.25,-1.02344 0.17188,-0.3177 0.40365,-0.58072 0.69532,-0.78906 0.21874,-0.16145 0.51562,-0.29687 0.89062,-0.40625 0.38021,-0.11458 0.78646,-0.17187 1.21875,-0.17188 0.65104,10e-6 1.22135,0.0938 1.71094,0.28125 0.49478,0.18751 0.85937,0.44272 1.09375,0.76563 0.23437,0.31772 0.39582,0.7448 0.48437,1.28125 l -1.375,0.1875 c -0.0625,-0.42708 -0.24479,-0.76041 -0.54687,-1 -0.29688,-0.23958 -0.71876,-0.35937 -1.26563,-0.35938 -0.64583,10e-6 -1.10677,0.10678 -1.38281,0.32032 -0.27604,0.21355 -0.41406,0.46355 -0.41406,0.75 0,0.18229 0.0573,0.34636 0.17187,0.49218 0.11458,0.15105 0.29427,0.27605 0.53907,0.375 0.14062,0.0521 0.55468,0.17188 1.24218,0.35938 0.99479,0.26563 1.6875,0.48438 2.07813,0.65625 0.39582,0.16667 0.70572,0.41146 0.92969,0.73437 0.22395,0.32292 0.33593,0.72397 0.33593,1.20313 0,0.46875 -0.13803,0.91146 -0.41406,1.32812 -0.27084,0.41146 -0.66407,0.73178 -1.17969,0.96094 -0.51563,0.22396 -1.09896,0.33594 -1.75,0.33594 -1.07813,0 -1.90104,-0.22396 -2.46875,-0.67188 -0.5625,-0.44791 -0.92187,-1.11197 -1.07812,-1.99218"
         style=""
         id="path3765" />
      <path
         d="m 401.03052,494.69205 1.39062,-0.21875 c 0.0781,0.55729 0.29427,0.98437 0.64844,1.28125 0.35937,0.29687 0.85937,0.44531 1.5,0.44531 0.64583,0 1.12499,-0.13021 1.4375,-0.39063 0.31249,-0.26562 0.46874,-0.57551 0.46875,-0.92968 -10e-6,-0.31771 -0.13803,-0.56771 -0.41406,-0.75 -0.19272,-0.125 -0.67188,-0.28385 -1.4375,-0.47657 -1.03126,-0.26041 -1.7474,-0.48437 -2.14844,-0.67187 -0.39583,-0.1927 -0.69792,-0.45572 -0.90625,-0.78906 -0.20313,-0.33854 -0.30469,-0.71093 -0.30469,-1.11719 0,-0.36979 0.0833,-0.71093 0.25,-1.02344 0.17188,-0.3177 0.40365,-0.58072 0.69532,-0.78906 0.21874,-0.16145 0.51562,-0.29687 0.89062,-0.40625 0.38021,-0.11458 0.78646,-0.17187 1.21875,-0.17188 0.65104,10e-6 1.22135,0.0938 1.71094,0.28125 0.49478,0.18751 0.85937,0.44272 1.09375,0.76563 0.23437,0.31772 0.39582,0.7448 0.48437,1.28125 l -1.375,0.1875 c -0.0625,-0.42708 -0.24479,-0.76041 -0.54687,-1 -0.29688,-0.23958 -0.71876,-0.35937 -1.26563,-0.35938 -0.64583,10e-6 -1.10677,0.10678 -1.38281,0.32032 -0.27604,0.21355 -0.41406,0.46355 -0.41406,0.75 0,0.18229 0.0573,0.34636 0.17187,0.49218 0.11458,0.15105 0.29427,0.27605 0.53907,0.375 0.14062,0.0521 0.55468,0.17188 1.24218,0.35938 0.99479,0.26563 1.6875,0.48438 2.07813,0.65625 0.39582,0.16667 0.70572,0.41146 0.92969,0.73437 0.22395,0.32292 0.33593,0.72397 0.33593,1.20313 0,0.46875 -0.13803,0.91146 -0.41406,1.32812 -0.27084,0.41146 -0.66407,0.73178 -1.17969,0.96094 -0.51563,0.22396 -1.09896,0.33594 -1.75,0.33594 -1.07813,0 -1.90104,-0.22396 -2.46875,-0.67188 -0.5625,-0.44791 -0.92187,-1.11197 -1.07812,-1.99218"
         style=""
         id="path3767" />
      <path
         d="m 409.60083,487.33267 0,-1.61719 1.40625,0 0,1.61719 -1.40625,0 m 0,9.83594 0,-8.29688 1.40625,0 0,8.29688 -1.40625,0"
         style=""
         id="path3769" />
      <path
         d="m 413.15552,497.16861 0,-8.29688 1.26562,0 0,1.17969 c 0.60937,-0.91145 1.48958,-1.36718 2.64063,-1.36719 0.49999,10e-6 0.95832,0.0912 1.375,0.27344 0.42187,0.17709 0.73697,0.41147 0.94531,0.70313 0.20833,0.29167 0.35416,0.63802 0.4375,1.03906 0.0521,0.26042 0.0781,0.71615 0.0781,1.36719 l 0,5.10156 -1.40625,0 0,-5.04688 c -1e-5,-0.57291 -0.0547,-0.99999 -0.16407,-1.28125 -0.10938,-0.28645 -0.30469,-0.51301 -0.58593,-0.67968 -0.27605,-0.17187 -0.60157,-0.25781 -0.97657,-0.25782 -0.59896,10e-6 -1.11719,0.19012 -1.55468,0.57032 -0.4323,0.38021 -0.64844,1.10157 -0.64844,2.16406 l 0,4.53125 -1.40625,0"
         style=""
         id="path3771" />
      <path
         d="m 421.80396,497.85611 1.36718,0.20312 c 0.0573,0.42188 0.21615,0.72917 0.47657,0.92188 0.34895,0.26041 0.82551,0.39062 1.42968,0.39062 0.65104,0 1.15364,-0.13021 1.50782,-0.39062 0.35416,-0.26042 0.59374,-0.625 0.71875,-1.09375 0.0729,-0.28646 0.10676,-0.88802 0.10156,-1.80469 -0.61459,0.72396 -1.38022,1.08594 -2.29688,1.08594 -1.14063,0 -2.02344,-0.41146 -2.64843,-1.23438 -0.62501,-0.82291 -0.93751,-1.80989 -0.9375,-2.96093 -1e-5,-0.79166 0.14322,-1.52083 0.42968,-2.1875 0.28646,-0.67187 0.70052,-1.1901 1.24219,-1.55469 0.54687,-0.36458 1.1875,-0.54687 1.92188,-0.54688 0.97916,10e-6 1.78645,0.39585 2.42187,1.1875 l 0,-1 1.29688,0 0,7.17188 c -1e-5,1.29167 -0.13283,2.20573 -0.39844,2.74219 -0.26043,0.54166 -0.67709,0.96874 -1.25,1.28125 -0.56772,0.31249 -1.26824,0.46874 -2.10156,0.46875 -0.98959,-10e-6 -1.78907,-0.22396 -2.39844,-0.67188 -0.60938,-0.44271 -0.90365,-1.11198 -0.88281,-2.00781 m 1.16406,-4.98438 c 0,1.08855 0.21614,1.88282 0.64844,2.38282 0.43228,0.5 0.97395,0.75 1.625,0.75 0.64582,0 1.18749,-0.2474 1.625,-0.74219 0.43749,-0.5 0.65624,-1.28125 0.65625,-2.34375 -1e-5,-1.01562 -0.22657,-1.78124 -0.67969,-2.29688 -0.44792,-0.51561 -0.98959,-0.77343 -1.625,-0.77343 -0.62501,0 -1.15626,0.25521 -1.59375,0.76562 -0.4375,0.50522 -0.65625,1.25782 -0.65625,2.25781"
         style=""
         id="path3773" />
      <path
         d="m 389.14771,503.33267 0,-1.61719 1.40625,0 0,1.61719 -1.40625,0 m 0,9.83594 0,-8.29688 1.40625,0 0,8.29688 -1.40625,0"
         style=""
         id="path3775" />
      <path
         d="m 398.11646,510.12955 1.38281,0.17968 c -0.15105,0.95313 -0.53907,1.70053 -1.16406,2.24219 -0.6198,0.53646 -1.38282,0.80469 -2.28907,0.80469 -1.13542,0 -2.04948,-0.36979 -2.74218,-1.10938 -0.68751,-0.74479 -1.03126,-1.80989 -1.03125,-3.19531 -1e-5,-0.89583 0.14843,-1.67968 0.44531,-2.35156 0.29687,-0.67187 0.74739,-1.17447 1.35156,-1.50781 0.60937,-0.33854 1.27083,-0.50781 1.98438,-0.50782 0.90103,10e-6 1.63801,0.22918 2.21093,0.6875 0.57291,0.45314 0.9401,1.09897 1.10157,1.9375 l -1.36719,0.21094 c -0.13022,-0.55728 -0.36199,-0.97655 -0.69531,-1.25781 -0.32814,-0.28124 -0.72657,-0.42187 -1.19532,-0.42188 -0.70833,10e-6 -1.28385,0.25522 -1.72656,0.76563 -0.44271,0.50521 -0.66406,1.3073 -0.66406,2.40625 0,1.11459 0.21354,1.92448 0.64062,2.42969 0.42708,0.50521 0.98437,0.75781 1.67188,0.75781 0.55208,0 1.01301,-0.16927 1.38281,-0.50781 0.36979,-0.33854 0.60416,-0.85938 0.70313,-1.5625"
         style=""
         id="path3777" />
      <path
         d="m 400.17896,509.02017 c -1e-5,-1.53645 0.42708,-2.67447 1.28125,-3.41406 0.71353,-0.61458 1.58333,-0.92187 2.60937,-0.92188 1.14062,10e-6 2.07291,0.37501 2.79688,1.125 0.72395,0.7448 1.08592,1.77605 1.08593,3.09375 -10e-6,1.06772 -0.16146,1.90886 -0.48437,2.52344 -0.31772,0.60938 -0.78386,1.08334 -1.39844,1.42188 -0.60938,0.33854 -1.27605,0.50781 -2,0.50781 -1.16146,0 -2.10156,-0.3724 -2.82031,-1.11719 -0.71354,-0.74479 -1.07032,-1.8177 -1.07031,-3.21875 m 1.44531,0 c 0,1.06251 0.23177,1.85938 0.69531,2.39063 0.46354,0.52604 1.04687,0.78906 1.75,0.78906 0.69791,0 1.27864,-0.26562 1.74219,-0.79688 0.46353,-0.53124 0.6953,-1.34114 0.69531,-2.42968 -10e-6,-1.02604 -0.23438,-1.80208 -0.70312,-2.32813 -0.46355,-0.53124 -1.04168,-0.79687 -1.73438,-0.79687 -0.70313,0 -1.28646,0.26303 -1.75,0.78906 -0.46354,0.52605 -0.69531,1.32032 -0.69531,2.38281"
         style=""
         id="path3779" />
      <path
         d="m 409.60864,513.16861 0,-8.29688 1.26563,0 0,1.17969 c 0.60937,-0.91145 1.48958,-1.36718 2.64062,-1.36719 0.5,10e-6 0.95833,0.0912 1.375,0.27344 0.42187,0.17709 0.73697,0.41147 0.94532,0.70313 0.20832,0.29167 0.35415,0.63802 0.4375,1.03906 0.0521,0.26042 0.0781,0.71615 0.0781,1.36719 l 0,5.10156 -1.40625,0 0,-5.04688 c -10e-6,-0.57291 -0.0547,-0.99999 -0.16406,-1.28125 -0.10938,-0.28645 -0.3047,-0.51301 -0.58594,-0.67968 -0.27605,-0.17187 -0.60157,-0.25781 -0.97656,-0.25782 -0.59896,10e-6 -1.11719,0.19012 -1.55469,0.57032 -0.43229,0.38021 -0.64844,1.10157 -0.64844,2.16406 l 0,4.53125 -1.40625,0"
         style=""
         id="path3781" />
    </g>
  </g>
</svg>
