<?xml version="1.0" encoding="UTF-8" standalone="no"?>
<!-- Created with Inkscape (http://www.inkscape.org/) -->

<svg
   xmlns:dc="http://purl.org/dc/elements/1.1/"
   xmlns:cc="http://creativecommons.org/ns#"
   xmlns:rdf="http://www.w3.org/1999/02/22-rdf-syntax-ns#"
   xmlns:svg="http://www.w3.org/2000/svg"
   xmlns="http://www.w3.org/2000/svg"
   xmlns:xlink="http://www.w3.org/1999/xlink"
   xmlns:sodipodi="http://sodipodi.sourceforge.net/DTD/sodipodi-0.dtd"
   xmlns:inkscape="http://www.inkscape.org/namespaces/inkscape"
   width="40"
   height="40"
   id="svg3336"
   sodipodi:version="0.32"
   inkscape:version="0.48.3.1 r9886"
   sodipodi:docname="modelicacomponent.svg"
   inkscape:output_extension="org.inkscape.output.svg.inkscape"
   version="1.0">
  <sodipodi:namedview
     id="base"
     pagecolor="#ffffff"
     bordercolor="#666666"
     borderopacity="1.0"
     gridtolerance="10000"
     guidetolerance="10"
     objecttolerance="10"
     inkscape:pageopacity="0.0"
     inkscape:pageshadow="2"
     inkscape:zoom="3.0585939"
     inkscape:cx="23.669074"
     inkscape:cy="25.273298"
     inkscape:document-units="px"
     inkscape:current-layer="layer1"
     showgrid="false"
     inkscape:window-width="1280"
     inkscape:window-height="776"
     inkscape:window-x="0"
     inkscape:window-y="24"
     showguides="true"
     inkscape:snap-global="true"
     inkscape:snap-intersection-line-segments="true"
     inkscape:snap-center="true"
     inkscape:window-maximized="1"
     fit-margin-top="0"
     fit-margin-left="0"
     fit-margin-right="0"
     fit-margin-bottom="0"
     inkscape:guide-bbox="true">
    <inkscape:grid
       snapvisiblegridlinesonly="true"
       empspacing="5"
       enabled="true"
       visible="true"
       id="grid2405"
       type="xygrid"
       originx="-8.48549px"
       originy="0.67297387px" />
    <sodipodi:guide
       orientation="0.70710678,0.70710678"
       position="-210.69267,-57.44002"
       id="guide9542" />
    <sodipodi:guide
       orientation="0.70710678,0.70710678"
       position="-201.86508,-52.862754"
       id="guide9544" />
  </sodipodi:namedview>
  <defs
     id="defs3338">
    <linearGradient
       inkscape:collect="always"
       id="linearGradient3871">
      <stop
         style="stop-color:#000000;stop-opacity:1;"
         offset="0"
         id="stop3873" />
      <stop
         style="stop-color:#000000;stop-opacity:0;"
         offset="1"
         id="stop3875" />
    </linearGradient>
    <marker
       style="overflow:visible"
       id="Arrow2Mend"
       refX="0"
       refY="0"
       orient="auto"
       inkscape:stockid="Arrow2Mend">
      <path
         transform="scale(-0.6,-0.6)"
         d="M 8.7185878,4.0337352 -2.2072895,0.01601326 8.7185884,-4.0017078 c -1.7454984,2.3720609 -1.7354408,5.6174519 -6e-7,8.035443 l 0,0 z"
         style="font-size:12px;fill-rule:evenodd;stroke-width:0.625;stroke-linejoin:round"
         id="path3629"
         inkscape:connector-curvature="0" />
    </marker>
    <marker
       style="overflow:visible"
       id="DotM"
       refX="0"
       refY="0"
       orient="auto"
       inkscape:stockid="DotM">
      <path
         transform="matrix(0.4,0,0,0.4,2.96,0.4)"
         style="fill-rule:evenodd;stroke:#000000;stroke-width:1pt;marker-start:none;marker-end:none"
         d="m -2.5,-1 c 0,2.76 -2.24,5 -5,5 -2.76,0 -5,-2.24 -5,-5 0,-2.76 2.24,-5 5,-5 2.76,0 5,2.24 5,5 z"
         id="path3667"
         inkscape:connector-curvature="0" />
    </marker>
    <marker
       style="overflow:visible"
       id="DotL"
       refX="0"
       refY="0"
       orient="auto"
       inkscape:stockid="DotL">
      <path
         transform="matrix(0.8,0,0,0.8,5.92,0.8)"
         style="fill-rule:evenodd;stroke:#000000;stroke-width:1pt;marker-start:none;marker-end:none"
         d="m -2.5,-1 c 0,2.76 -2.24,5 -5,5 -2.76,0 -5,-2.24 -5,-5 0,-2.76 2.24,-5 5,-5 2.76,0 5,2.24 5,5 z"
         id="path3664"
         inkscape:connector-curvature="0" />
    </marker>
    <marker
       inkscape:stockid="TriangleOutL"
       orient="auto"
       refY="0"
       refX="0"
       id="TriangleOutL"
       style="overflow:visible">
      <path
         id="path8118"
         d="m 5.77,0 -8.65,5 0,-10 8.65,5 z"
         style="fill-rule:evenodd;stroke:#000000;stroke-width:1pt;marker-start:none"
         transform="scale(0.8,0.8)"
         inkscape:connector-curvature="0" />
    </marker>
    <inkscape:perspective
       id="perspective3344"
       inkscape:persp3d-origin="372.04724 : 350.78739 : 1"
       inkscape:vp_z="744.09448 : 526.18109 : 1"
       inkscape:vp_y="0 : 1000 : 0"
       inkscape:vp_x="0 : 526.18109 : 1"
       sodipodi:type="inkscape:persp3d" />
    <inkscape:perspective
       sodipodi:type="inkscape:persp3d"
       inkscape:vp_x="0 : 0.5 : 1"
       inkscape:vp_y="0 : 1000 : 0"
       inkscape:vp_z="1 : 0.5 : 1"
       inkscape:persp3d-origin="0.5 : 0.33333333 : 1"
       id="perspective3742" />
    <inkscape:perspective
       sodipodi:type="inkscape:persp3d"
       inkscape:vp_x="0 : 0.5 : 1"
       inkscape:vp_y="0 : 1000 : 0"
       inkscape:vp_z="1 : 0.5 : 1"
       inkscape:persp3d-origin="0.5 : 0.33333333 : 1"
       id="perspective3676" />
    <inkscape:perspective
       sodipodi:type="inkscape:persp3d"
       inkscape:vp_x="0 : 0.5 : 1"
       inkscape:vp_y="0 : 1000 : 0"
       inkscape:vp_z="1 : 0.5 : 1"
       inkscape:persp3d-origin="0.5 : 0.33333333 : 1"
       id="perspective3701" />
    <inkscape:perspective
       sodipodi:type="inkscape:persp3d"
       inkscape:vp_x="0 : 0.5 : 1"
       inkscape:vp_y="0 : 1000 : 0"
       inkscape:vp_z="1 : 0.5 : 1"
       inkscape:persp3d-origin="0.5 : 0.33333333 : 1"
       id="perspective3726" />
    <inkscape:perspective
       sodipodi:type="inkscape:persp3d"
       inkscape:vp_x="0 : 0.5 : 1"
       inkscape:vp_y="0 : 1000 : 0"
       inkscape:vp_z="1 : 0.5 : 1"
       inkscape:persp3d-origin="0.5 : 0.33333333 : 1"
       id="perspective3815" />
    <inkscape:perspective
       id="perspective3344-4"
       inkscape:persp3d-origin="372.04724 : 350.78739 : 1"
       inkscape:vp_z="744.09448 : 526.18109 : 1"
       inkscape:vp_y="0 : 1000 : 0"
       inkscape:vp_x="0 : 526.18109 : 1"
       sodipodi:type="inkscape:persp3d" />
    <marker
       inkscape:stockid="TriangleOutL"
       orient="auto"
       refY="0"
       refX="0"
       id="TriangleOutL-4"
       style="overflow:visible">
      <path
         inkscape:connector-curvature="0"
         id="path8118-7"
         d="m 5.77,0 -8.65,5 0,-10 8.65,5 z"
         style="fill-rule:evenodd;stroke:#000000;stroke-width:1pt;marker-start:none"
         transform="scale(0.8,0.8)" />
    </marker>
    <marker
       style="overflow:visible"
       id="DotL-6"
       refX="0"
       refY="0"
       orient="auto"
       inkscape:stockid="DotL">
      <path
         inkscape:connector-curvature="0"
         transform="matrix(0.8,0,0,0.8,5.92,0.8)"
         style="fill-rule:evenodd;stroke:#000000;stroke-width:1pt;marker-start:none;marker-end:none"
         d="m -2.5,-1 c 0,2.76 -2.24,5 -5,5 -2.76,0 -5,-2.24 -5,-5 0,-2.76 2.24,-5 5,-5 2.76,0 5,2.24 5,5 z"
         id="path3664-1" />
    </marker>
    <marker
       style="overflow:visible"
       id="DotM-1"
       refX="0"
       refY="0"
       orient="auto"
       inkscape:stockid="DotM">
      <path
         inkscape:connector-curvature="0"
         transform="matrix(0.4,0,0,0.4,2.96,0.4)"
         style="fill-rule:evenodd;stroke:#000000;stroke-width:1pt;marker-start:none;marker-end:none"
         d="m -2.5,-1 c 0,2.76 -2.24,5 -5,5 -2.76,0 -5,-2.24 -5,-5 0,-2.76 2.24,-5 5,-5 2.76,0 5,2.24 5,5 z"
         id="path3667-2" />
    </marker>
    <marker
       style="overflow:visible"
       id="Arrow2Mend-5"
       refX="0"
       refY="0"
       orient="auto"
       inkscape:stockid="Arrow2Mend">
      <path
         inkscape:connector-curvature="0"
         transform="scale(-0.6,-0.6)"
         d="M 8.7185878,4.0337352 -2.2072895,0.01601326 8.7185884,-4.0017078 c -1.7454984,2.3720609 -1.7354408,5.6174519 -6e-7,8.035443 l 0,0 z"
         style="font-size:12px;fill-rule:evenodd;stroke-width:0.625;stroke-linejoin:round"
         id="path3629-4" />
    </marker>
    <linearGradient
       inkscape:collect="always"
       xlink:href="#linearGradient3871"
       id="linearGradient3877"
       x1="222.92677"
       y1="399.8862"
       x2="246.49709"
       y2="399.8862"
       gradientUnits="userSpaceOnUse" />
  </defs>
  <metadata
     id="metadata3341">
    <rdf:RDF>
      <cc:Work
         rdf:about="">
        <dc:format>image/svg+xml</dc:format>
        <dc:type
           rdf:resource="http://purl.org/dc/dcmitype/StillImage" />
        <dc:title />
      </cc:Work>
    </rdf:RDF>
  </metadata>
  <g
     transform="translate(-214.71875,-379.875)"
     id="layer1"
     inkscape:groupmode="layer"
     inkscape:label="Layer 1">
    <rect
       style="fill:#ffffff;fill-opacity:1;stroke:#000000;stroke-width:2;stroke-linecap:square;stroke-linejoin:miter;stroke-miterlimit:4;stroke-opacity:1;stroke-dasharray:none;stroke-dashoffset:0"
       id="rect3623-1-1"
       width="38"
       height="38"
       x="215.71875"
       y="380.875" />
    <text
       transform="translate(211.66515,381.24194)"
       sodipodi:linespacing="125%"
       id="text3791"
       y="14.906749"
       x="60.546017"
       style="font-size:12px;font-style:normal;font-variant:normal;font-weight:normal;font-stretch:normal;text-align:start;line-height:125%;writing-mode:lr-tb;text-anchor:start;fill:#000000;fill-opacity:1;stroke:none;font-family:SymbolGreek;-inkscape-font-specification:Bitstream Vera Sans"
       xml:space="preserve"><tspan
         y="14.906749"
         x="60.546017"
         id="tspan3793"
         sodipodi:role="line" /></text>
    <g
       style="font-size:8px;font-style:normal;font-weight:normal;text-align:center;text-anchor:middle;fill:#ff0000;fill-opacity:1;stroke:none;font-family:Bitstream Vera Sans"
       id="text8994">
      <path
         d="m 230.41211,396.16602 c -1e-5,0.0391 -0.0117,0.0742 -0.0352,0.10546 -0.0195,0.0312 -0.0586,0.0566 -0.11718,0.0762 -0.0547,0.0195 -0.12892,0.0351 -0.22266,0.0469 -0.0938,0.0117 -0.2129,0.0176 -0.35742,0.0176 -0.14064,0 -0.25782,-0.006 -0.35157,-0.0176 -0.0937,-0.0117 -0.16797,-0.0273 -0.22265,-0.0469 -0.0547,-0.0195 -0.0938,-0.0449 -0.11719,-0.0762 -0.0234,-0.0312 -0.0352,-0.0664 -0.0352,-0.10546 l 0,-6.16993 -0.0117,0 -2.19727,6.16407 c -0.0156,0.0508 -0.041,0.0937 -0.0762,0.1289 -0.0352,0.0312 -0.084,0.0566 -0.14649,0.0762 -0.0586,0.0195 -0.13477,0.0312 -0.22851,0.0352 -0.0938,0.008 -0.20704,0.0117 -0.33985,0.0117 -0.13281,0 -0.24609,-0.006 -0.33984,-0.0176 -0.0937,-0.008 -0.17188,-0.0215 -0.23437,-0.041 -0.0586,-0.0234 -0.10548,-0.0508 -0.14063,-0.082 -0.0352,-0.0312 -0.0586,-0.0684 -0.0703,-0.11132 l -2.1211,-6.16407 -0.0117,0 0,6.16993 c -1e-5,0.0391 -0.0117,0.0742 -0.0352,0.10546 -0.0195,0.0312 -0.0586,0.0566 -0.11719,0.0762 -0.0586,0.0195 -0.13477,0.0351 -0.22851,0.0469 -0.0899,0.0117 -0.20704,0.0176 -0.35157,0.0176 -0.14062,0 -0.25781,-0.006 -0.35156,-0.0176 -0.0937,-0.0117 -0.16992,-0.0273 -0.22851,-0.0469 -0.0547,-0.0195 -0.0937,-0.0449 -0.11719,-0.0762 -0.0195,-0.0312 -0.0293,-0.0664 -0.0293,-0.10546 l 0,-6.75586 c 0,-0.19922 0.0527,-0.35156 0.1582,-0.45704 0.10547,-0.10546 0.2461,-0.15819 0.42188,-0.1582 l 1.00781,0 c 0.17969,1e-5 0.33398,0.0156 0.46289,0.0469 0.12891,0.0274 0.24023,0.0762 0.33399,0.14648 0.0937,0.0664 0.17187,0.15626 0.23437,0.26953 0.0625,0.10938 0.11719,0.2461 0.16406,0.41016 l 1.64063,4.51758 0.0234,0 1.69922,-4.50586 c 0.0508,-0.16406 0.10546,-0.30273 0.16406,-0.41602 0.0625,-0.11327 0.1328,-0.20507 0.21094,-0.27539 0.082,-0.0703 0.17772,-0.11913 0.28711,-0.14648 0.10936,-0.0312 0.23632,-0.0469 0.38085,-0.0469 l 1.03711,0 c 0.10546,1e-5 0.19531,0.0137 0.26954,0.041 0.0781,0.0274 0.14061,0.0684 0.1875,0.12304 0.0508,0.0508 0.0879,0.11525 0.11132,0.19336 0.0273,0.0742 0.041,0.16017 0.041,0.25782 l 0,6.75586"
         style="font-size:12px;font-variant:normal;font-weight:bold;font-stretch:normal;fill:#ff0000;font-family:Calibri;-inkscape-font-specification:Calibri Bold"
         id="path3029" />
      <path
         d="m 237.27344,393.51172 c -1e-5,0.44531 -0.0586,0.85156 -0.17578,1.21875 -0.1172,0.36719 -0.29493,0.68359 -0.53321,0.94922 -0.23828,0.26562 -0.53711,0.4707 -0.89648,0.61523 -0.35938,0.14453 -0.7793,0.2168 -1.25977,0.2168 -0.46484,0 -0.86914,-0.0645 -1.21289,-0.19336 -0.34375,-0.12891 -0.62891,-0.31641 -0.85547,-0.5625 -0.22656,-0.24609 -0.39453,-0.54883 -0.5039,-0.9082 -0.10938,-0.35938 -0.16407,-0.76953 -0.16407,-1.23047 0,-0.44531 0.0586,-0.85156 0.17579,-1.21875 0.12109,-0.37109 0.30078,-0.6875 0.53906,-0.94922 0.23828,-0.26562 0.53515,-0.4707 0.89062,-0.61524 0.35938,-0.14452 0.7793,-0.21679 1.25977,-0.21679 0.46875,0 0.875,0.0645 1.21875,0.19336 0.34374,0.125 0.62695,0.31055 0.84961,0.55664 0.22656,0.2461 0.39452,0.54883 0.5039,0.9082 0.10937,0.35938 0.16406,0.77149 0.16407,1.23633 m -1.51758,0.0586 c -1e-5,-0.25781 -0.0215,-0.49413 -0.0645,-0.70898 -0.0391,-0.21875 -0.10743,-0.4082 -0.20508,-0.56836 -0.0977,-0.16015 -0.22852,-0.28515 -0.39258,-0.375 -0.16016,-0.0898 -0.36328,-0.13476 -0.60938,-0.13477 -0.21875,10e-6 -0.41015,0.041 -0.57421,0.12305 -0.16407,0.0781 -0.29883,0.19532 -0.4043,0.35156 -0.10547,0.15235 -0.18555,0.3379 -0.24024,0.55664 -0.0508,0.21485 -0.0762,0.46094 -0.0762,0.73828 0,0.25782 0.0215,0.4961 0.0645,0.71485 0.043,0.21484 0.11132,0.40234 0.20507,0.5625 0.0977,0.16016 0.22852,0.28516 0.39258,0.375 0.16406,0.0859 0.36719,0.12891 0.60938,0.1289 0.22265,10e-6 0.41601,-0.0391 0.58008,-0.11718 0.16405,-0.082 0.29882,-0.19922 0.40429,-0.35157 0.10547,-0.15234 0.18359,-0.33593 0.23438,-0.55078 0.0508,-0.21874 0.0762,-0.46679 0.0762,-0.74414"
         style="font-size:12px;font-variant:normal;font-weight:bold;font-stretch:normal;fill:#ff0000;font-family:Calibri;-inkscape-font-specification:Calibri Bold"
         id="path3031" />
      <path
         d="m 243.39062,396.17773 c 0,0.043 -0.01,0.0801 -0.0293,0.11133 -0.0195,0.0274 -0.0527,0.0508 -0.0996,0.0703 -0.0469,0.0195 -0.11133,0.0332 -0.19336,0.041 -0.0781,0.008 -0.17579,0.0117 -0.29297,0.0117 -0.125,0 -0.22657,-0.004 -0.30469,-0.0117 -0.0781,-0.008 -0.14258,-0.0215 -0.19336,-0.041 -0.0469,-0.0195 -0.082,-0.043 -0.10547,-0.0703 -0.0195,-0.0312 -0.0293,-0.0684 -0.0293,-0.11133 l 0,-0.58007 c -0.26954,0.28906 -0.55274,0.51367 -0.84961,0.67382 -0.29297,0.16016 -0.61914,0.24024 -0.97852,0.24024 -0.39844,0 -0.73633,-0.0762 -1.01367,-0.22852 -0.27344,-0.15625 -0.49805,-0.36523 -0.67383,-0.62695 -0.17187,-0.26172 -0.29687,-0.5664 -0.375,-0.91406 -0.0781,-0.35156 -0.11718,-0.7207 -0.11718,-1.10742 0,-0.46484 0.0488,-0.88281 0.14648,-1.25391 0.10156,-0.37109 0.24805,-0.6875 0.43945,-0.94922 0.19141,-0.26171 0.42969,-0.46288 0.71485,-0.60352 0.28515,-0.14061 0.61328,-0.21093 0.98437,-0.21093 0.29297,0 0.55859,0.0605 0.79688,0.18164 0.23827,0.11719 0.4746,0.29102 0.70898,0.52148 l 0,-2.83008 c 0,-0.039 0.01,-0.0742 0.0293,-0.10546 0.0234,-0.0312 0.0625,-0.0566 0.11719,-0.0762 0.0586,-0.0234 0.13476,-0.041 0.22851,-0.0527 0.0937,-0.0117 0.21289,-0.0176 0.35742,-0.0176 0.14453,1e-5 0.26367,0.006 0.35742,0.0176 0.0937,0.0117 0.16797,0.0293 0.22266,0.0527 0.0547,0.0195 0.0937,0.0449 0.11719,0.0762 0.0234,0.0312 0.0352,0.0664 0.0352,0.10546 l 0,7.6875 m -1.46484,-3.49218 c -0.21094,-0.26562 -0.41407,-0.46875 -0.60937,-0.60938 -0.19141,-0.14062 -0.39259,-0.21093 -0.60352,-0.21094 -0.19141,10e-6 -0.35742,0.0488 -0.49805,0.14649 -0.13672,0.0937 -0.24805,0.22071 -0.33398,0.38086 -0.082,0.16016 -0.14453,0.33985 -0.1875,0.53906 -0.0391,0.19532 -0.0586,0.39649 -0.0586,0.60352 -1e-5,0.21875 0.0176,0.43164 0.0527,0.63867 0.0351,0.20703 0.0918,0.39258 0.16992,0.55664 0.082,0.16016 0.18945,0.28906 0.32227,0.38672 0.13281,0.0976 0.30078,0.14648 0.5039,0.14648 0.10156,0 0.19922,-0.0137 0.29297,-0.041 0.0977,-0.0312 0.19531,-0.0801 0.29297,-0.14649 0.10156,-0.0664 0.20508,-0.15234 0.31055,-0.25781 0.10546,-0.10937 0.2207,-0.24219 0.3457,-0.39844 l 0,-1.73437"
         style="font-size:12px;font-variant:normal;font-weight:bold;font-stretch:normal;fill:#ff0000;font-family:Calibri;-inkscape-font-specification:Calibri Bold"
         id="path3033" />
      <path
         d="m 247.46875,393.42969 c 0,0.22656 -0.0215,0.38477 -0.0644,0.47461 -0.043,0.0898 -0.11133,0.13476 -0.20508,0.13476 l -2.4375,0 c -0.0977,0 -0.16797,-0.0449 -0.21094,-0.13476 -0.043,-0.0937 -0.0644,-0.25195 -0.0644,-0.47461 0,-0.21875 0.0215,-0.37305 0.0644,-0.46289 0.043,-0.0898 0.11328,-0.13477 0.21094,-0.13477 l 2.4375,0 c 0.0469,0 0.0859,0.01 0.11719,0.0293 0.0352,0.0195 0.0645,0.0527 0.0879,0.0996 0.0234,0.0469 0.0391,0.10938 0.0469,0.1875 0.0117,0.0781 0.0176,0.17188 0.0176,0.28125"
         style="font-size:12px;font-variant:normal;font-weight:bold;font-stretch:normal;fill:#ff0000;font-family:Calibri;-inkscape-font-specification:Calibri Bold"
         id="path3035" />
      <path
         d="m 228.4375,408.41211 c -1e-5,0.17969 -0.041,0.3125 -0.12305,0.39844 -0.0781,0.0859 -0.1875,0.12891 -0.32812,0.1289 l -3.18164,0 c 0,0.22266 0.0254,0.42579 0.0762,0.60938 0.0547,0.17969 0.13867,0.33398 0.25195,0.46289 0.11719,0.125 0.26562,0.2207 0.44531,0.28711 0.1836,0.0664 0.40235,0.0996 0.65625,0.0996 0.25781,0 0.48438,-0.0176 0.67969,-0.0527 0.19531,-0.0391 0.36328,-0.0801 0.50391,-0.12304 0.14453,-0.0469 0.26367,-0.0879 0.35742,-0.12305 0.0937,-0.0391 0.16992,-0.0586 0.22852,-0.0586 0.0352,0 0.0644,0.008 0.0879,0.0234 0.0234,0.0117 0.043,0.0352 0.0586,0.0703 0.0156,0.0351 0.0254,0.0859 0.0293,0.15234 0.008,0.0625 0.0117,0.14258 0.0117,0.24023 -1e-5,0.0859 -0.002,0.16016 -0.006,0.22266 -0.004,0.0586 -0.01,0.10938 -0.0176,0.15234 -0.008,0.043 -0.0195,0.0801 -0.0352,0.11133 -0.0156,0.0274 -0.0371,0.0547 -0.0644,0.082 -0.0234,0.0273 -0.0918,0.0645 -0.20508,0.11133 -0.11328,0.0469 -0.25782,0.0937 -0.43359,0.14063 -0.17579,0.043 -0.37696,0.0801 -0.60352,0.11132 -0.22656,0.0352 -0.46875,0.0527 -0.72656,0.0527 -0.46485,0 -0.87305,-0.0586 -1.22461,-0.17578 -0.34766,-0.11719 -0.63867,-0.29492 -0.87305,-0.53321 -0.23437,-0.23828 -0.41015,-0.53906 -0.52734,-0.90234 -0.11328,-0.36328 -0.16992,-0.78906 -0.16992,-1.27734 0,-0.46484 0.0605,-0.88281 0.18164,-1.25391 0.12109,-0.37499 0.29687,-0.6914 0.52734,-0.94922 0.23047,-0.26171 0.50977,-0.46093 0.83789,-0.59765 0.33203,-0.13672 0.70508,-0.20508 1.11914,-0.20508 0.4375,0 0.81055,0.0645 1.11914,0.19336 0.3125,0.12891 0.56836,0.3086 0.76758,0.53906 0.19922,0.22657 0.3457,0.4961 0.43945,0.80859 0.0937,0.31251 0.14062,0.65235 0.14063,1.01953 l 0,0.23438 m -1.42969,-0.42188 c 0.0117,-0.41405 -0.0723,-0.73827 -0.25195,-0.97265 -0.17579,-0.23828 -0.44922,-0.35742 -0.82031,-0.35742 -0.18751,0 -0.35157,0.0352 -0.49219,0.10546 -0.13672,0.0703 -0.25196,0.16603 -0.3457,0.28711 -0.0898,0.1172 -0.16016,0.25782 -0.21094,0.42188 -0.0469,0.16016 -0.0742,0.33203 -0.082,0.51562 l 2.20312,0"
         style="font-size:12px;font-variant:normal;font-weight:bold;font-stretch:normal;fill:#ff0000;font-family:Calibri;-inkscape-font-specification:Calibri Bold"
         id="path3037" />
      <path
         d="m 231.13281,411.17773 c 0,0.0391 -0.0117,0.0742 -0.0352,0.10547 -0.0234,0.0273 -0.0645,0.0508 -0.12305,0.0703 -0.0547,0.0195 -0.12891,0.0332 -0.22266,0.041 -0.0937,0.0117 -0.21289,0.0176 -0.35742,0.0176 -0.14453,0 -0.26367,-0.006 -0.35742,-0.0176 -0.0937,-0.008 -0.16992,-0.0215 -0.22852,-0.041 -0.0547,-0.0195 -0.0937,-0.043 -0.11718,-0.0703 -0.0234,-0.0312 -0.0352,-0.0664 -0.0352,-0.10547 l 0,-7.70507 c 0,-0.0391 0.0117,-0.0742 0.0352,-0.10547 0.0234,-0.0312 0.0625,-0.0566 0.11718,-0.0762 0.0586,-0.0234 0.13477,-0.041 0.22852,-0.0527 0.0937,-0.0117 0.21289,-0.0176 0.35742,-0.0176 0.14453,10e-6 0.26367,0.006 0.35742,0.0176 0.0937,0.0117 0.16797,0.0293 0.22266,0.0527 0.0586,0.0195 0.0996,0.0449 0.12305,0.0762 0.0234,0.0313 0.0352,0.0664 0.0352,0.10547 l 0,7.70507"
         style="font-size:12px;font-variant:normal;font-weight:bold;font-stretch:normal;fill:#ff0000;font-family:Calibri;-inkscape-font-specification:Calibri Bold"
         id="path3039" />
      <path
         d="m 234.08594,411.17773 c 0,0.0391 -0.0117,0.0742 -0.0352,0.10547 -0.0234,0.0273 -0.0644,0.0508 -0.12305,0.0703 -0.0547,0.0195 -0.1289,0.0332 -0.22265,0.041 -0.0937,0.0117 -0.21289,0.0176 -0.35742,0.0176 -0.14454,0 -0.26368,-0.006 -0.35743,-0.0176 -0.0937,-0.008 -0.16992,-0.0215 -0.22851,-0.041 -0.0547,-0.0195 -0.0937,-0.043 -0.11719,-0.0703 -0.0234,-0.0312 -0.0352,-0.0664 -0.0352,-0.10547 l 0,-5.21484 c 0,-0.0391 0.0117,-0.0723 0.0352,-0.0996 0.0234,-0.0312 0.0625,-0.0566 0.11719,-0.0762 0.0586,-0.0234 0.13476,-0.041 0.22851,-0.0527 0.0937,-0.0117 0.21289,-0.0176 0.35743,-0.0176 0.14453,0 0.26367,0.006 0.35742,0.0176 0.0937,0.0117 0.16796,0.0293 0.22265,0.0527 0.0586,0.0195 0.0996,0.0449 0.12305,0.0762 0.0234,0.0274 0.0352,0.0606 0.0352,0.0996 l 0,5.21484 m 0.11133,-6.99609 c -1e-5,0.29688 -0.0606,0.50196 -0.18165,0.61523 -0.12109,0.11329 -0.3457,0.16993 -0.67382,0.16993 -0.33204,0 -0.55664,-0.0547 -0.67383,-0.16407 -0.11328,-0.10936 -0.16992,-0.30663 -0.16992,-0.59179 0,-0.29687 0.0586,-0.50195 0.17578,-0.61524 0.12109,-0.11718 0.34765,-0.17577 0.67969,-0.17578 0.32812,1e-5 0.55077,0.0566 0.66796,0.16992 0.11719,0.10939 0.17578,0.30665 0.17579,0.5918"
         style="font-size:12px;font-variant:normal;font-weight:bold;font-stretch:normal;fill:#ff0000;font-family:Calibri;-inkscape-font-specification:Calibri Bold"
         id="path3041" />
      <path
         d="m 239.51758,410.3457 c -1e-5,0.10157 -0.004,0.1875 -0.0117,0.25782 -0.004,0.0664 -0.0117,0.12304 -0.0234,0.16992 -0.008,0.0469 -0.0195,0.0859 -0.0351,0.11718 -0.0117,0.0274 -0.041,0.0645 -0.0879,0.11133 -0.0469,0.043 -0.12695,0.0977 -0.24023,0.16407 -0.11328,0.0625 -0.24219,0.11914 -0.38672,0.16992 -0.14453,0.0508 -0.30274,0.0918 -0.47461,0.12304 -0.16797,0.0312 -0.3418,0.0469 -0.52148,0.0469 -0.40235,0 -0.75977,-0.0625 -1.07227,-0.1875 -0.30859,-0.125 -0.56836,-0.30859 -0.77929,-0.55078 -0.21094,-0.24609 -0.3711,-0.54492 -0.48047,-0.89649 -0.10547,-0.35156 -0.15821,-0.7539 -0.15821,-1.20703 0,-0.52343 0.0645,-0.9746 0.19336,-1.35351 0.13281,-0.38281 0.31641,-0.69922 0.55078,-0.94922 0.23438,-0.25 0.51172,-0.43554 0.83204,-0.55664 0.32031,-0.12109 0.67187,-0.18164 1.05468,-0.18164 0.15625,0 0.30859,0.0137 0.45703,0.041 0.15234,0.0274 0.29297,0.0645 0.42188,0.11133 0.13281,0.0469 0.25,0.0996 0.35156,0.1582 0.10547,0.0586 0.17968,0.10938 0.22266,0.15235 0.043,0.043 0.0723,0.0801 0.0879,0.11133 0.0195,0.0273 0.0332,0.0645 0.041,0.11132 0.0117,0.0469 0.0195,0.10548 0.0234,0.17578 0.008,0.0664 0.0117,0.14845 0.0117,0.2461 0,0.22657 -0.0195,0.38672 -0.0586,0.48047 -0.0391,0.0899 -0.0899,0.13477 -0.15235,0.13476 -0.0664,10e-6 -0.13672,-0.0273 -0.21093,-0.082 -0.0742,-0.0547 -0.16212,-0.11523 -0.26368,-0.18164 -0.10156,-0.0664 -0.22266,-0.12695 -0.36328,-0.18164 -0.14063,-0.0547 -0.30859,-0.082 -0.5039,-0.082 -0.38282,0 -0.67579,0.14844 -0.87891,0.44531 -0.20313,0.29297 -0.30469,0.72461 -0.30469,1.29492 0,0.28126 0.0254,0.5293 0.0762,0.74414 0.0508,0.21485 0.125,0.39454 0.22266,0.53907 0.10156,0.14453 0.22656,0.2539 0.375,0.32812 0.15234,0.0703 0.32812,0.10547 0.52734,0.10547 0.20313,0 0.37695,-0.0293 0.52149,-0.0879 0.14843,-0.0625 0.27734,-0.13086 0.38672,-0.20508 0.10937,-0.0742 0.20117,-0.14062 0.27539,-0.19922 0.0742,-0.0625 0.13671,-0.0937 0.1875,-0.0937 0.0351,0 0.0644,0.01 0.0879,0.0293 0.0234,0.0195 0.041,0.0566 0.0527,0.11133 0.0156,0.0508 0.0273,0.11719 0.0352,0.19922 0.008,0.082 0.0117,0.1875 0.0117,0.3164"
         style="font-size:12px;font-variant:normal;font-weight:bold;font-stretch:normal;fill:#ff0000;font-family:Calibri;-inkscape-font-specification:Calibri Bold"
         id="path3043" />
      <path
         d="m 244.96094,411.19531 c -1e-5,0.0547 -0.0195,0.0977 -0.0586,0.12891 -0.0391,0.0312 -0.10156,0.0527 -0.1875,0.0644 -0.082,0.0156 -0.20508,0.0234 -0.36914,0.0234 -0.17578,0 -0.30469,-0.008 -0.38672,-0.0234 -0.0781,-0.0117 -0.13477,-0.0332 -0.16992,-0.0644 -0.0312,-0.0312 -0.0469,-0.0742 -0.0469,-0.12891 l 0,-0.41601 c -0.21485,0.23047 -0.46094,0.41015 -0.73828,0.53906 -0.27344,0.12891 -0.57813,0.19336 -0.91407,0.19336 -0.27734,0 -0.5332,-0.0371 -0.76757,-0.11133 -0.23047,-0.0703 -0.43165,-0.17578 -0.60352,-0.31641 -0.16797,-0.14453 -0.29883,-0.32226 -0.39258,-0.5332 -0.0937,-0.21094 -0.14062,-0.45703 -0.14062,-0.73828 0,-0.30469 0.0586,-0.56836 0.17578,-0.79102 0.12109,-0.22656 0.29883,-0.4121 0.5332,-0.55664 0.23828,-0.14843 0.5332,-0.25781 0.88477,-0.32812 0.35156,-0.0703 0.75976,-0.10547 1.22461,-0.10547 l 0.50976,0 0,-0.31641 c 0,-0.16405 -0.0176,-0.30663 -0.0527,-0.42773 -0.0313,-0.125 -0.0859,-0.22851 -0.16407,-0.31055 -0.0742,-0.082 -0.17578,-0.14257 -0.30468,-0.18164 -0.12501,-0.0391 -0.28126,-0.0586 -0.46875,-0.0586 -0.2461,0 -0.4668,0.0274 -0.66211,0.082 -0.19141,0.0547 -0.36133,0.11524 -0.50977,0.18164 -0.14844,0.0664 -0.27344,0.12696 -0.375,0.18164 -0.0977,0.0547 -0.17773,0.082 -0.24023,0.082 -0.043,1e-5 -0.082,-0.0137 -0.11719,-0.041 -0.0312,-0.0273 -0.0586,-0.0664 -0.082,-0.11719 -0.0195,-0.0508 -0.0352,-0.11328 -0.0469,-0.1875 -0.0117,-0.0742 -0.0176,-0.15625 -0.0176,-0.2461 0,-0.12108 0.01,-0.21679 0.0293,-0.2871 0.0195,-0.0703 0.0566,-0.13281 0.11133,-0.1875 0.0547,-0.0586 0.15039,-0.12109 0.28711,-0.1875 0.13672,-0.0703 0.29687,-0.13476 0.48047,-0.19336 0.18359,-0.0586 0.38281,-0.10547 0.59766,-0.14063 0.21874,-0.0391 0.44335,-0.0586 0.67382,-0.0586 0.41016,0 0.75977,0.041 1.04883,0.12304 0.29297,0.0781 0.5332,0.20118 0.7207,0.36914 0.1875,0.16407 0.32422,0.37696 0.41016,0.63868 0.0859,0.26172 0.1289,0.57227 0.12891,0.93164 l 0,3.51562 m -1.44727,-2.23828 -0.5625,0 c -0.23828,0 -0.44141,0.0176 -0.60937,0.0527 -0.16797,0.0351 -0.30469,0.0879 -0.41016,0.1582 -0.10547,0.0703 -0.1836,0.15625 -0.23437,0.25781 -0.0469,0.0977 -0.0703,0.21094 -0.0703,0.33984 0,0.21876 0.0684,0.39063 0.20508,0.51563 0.14062,0.125 0.33398,0.1875 0.58008,0.1875 0.20703,0 0.39648,-0.0527 0.56836,-0.1582 0.17578,-0.10547 0.35351,-0.25977 0.5332,-0.46289 l 0,-0.89063"
         style="font-size:12px;font-variant:normal;font-weight:bold;font-stretch:normal;fill:#ff0000;font-family:Calibri;-inkscape-font-specification:Calibri Bold"
         id="path3045" />
    </g>
    <flowRoot
       xml:space="preserve"
       id="flowRoot9534"
       style="font-size:40px;font-style:normal;font-weight:normal;fill:#000000;fill-opacity:1;stroke:none;font-family:Bitstream Vera Sans"><flowRegion
         id="flowRegion9536"><rect
           id="rect9538"
           width="213.4968"
           height="113.45082"
           x="-107.23882"
           y="-62.796928" /></flowRegion><flowPara
         id="flowPara9540" /></flowRoot>    <flowRoot
       xml:space="preserve"
       id="flowRoot9546"
       style="font-size:40px;font-style:normal;font-weight:normal;writing-mode:lr-tb;fill:#000000;fill-opacity:1;stroke:none;font-family:Bitstream Vera Sans"><flowRegion
         id="flowRegion9548"><rect
           id="rect9550"
           width="173.93614"
           height="75.524902"
           x="-33.348656"
           y="-12.120048" /></flowRegion><flowPara
         id="flowPara9552" /></flowRoot>    <text
       xml:space="preserve"
       style="font-size:40px;font-style:normal;font-variant:normal;font-weight:bold;font-stretch:normal;line-height:125%;letter-spacing:0px;word-spacing:0px;fill:#000000;fill-opacity:1;stroke:none;font-family:ScalaSans;-inkscape-font-specification:ScalaSans Bold"
       x="84.679436"
       y="14.171138"
       id="text3841"
       sodipodi:linespacing="125%"
       transform="translate(214.71875,379.875)"><tspan
         sodipodi:role="line"
         id="tspan3843"
         x="84.679436"
         y="14.171138" /></text>
  </g>
</svg>
