<?xml version="1.0" encoding="UTF-8" standalone="no"?>
<!-- Created with Inkscape (http://www.inkscape.org/) -->

<svg
   xmlns:dc="http://purl.org/dc/elements/1.1/"
   xmlns:cc="http://creativecommons.org/ns#"
   xmlns:rdf="http://www.w3.org/1999/02/22-rdf-syntax-ns#"
   xmlns:svg="http://www.w3.org/2000/svg"
   xmlns="http://www.w3.org/2000/svg"
   xmlns:sodipodi="http://sodipodi.sourceforge.net/DTD/sodipodi-0.dtd"
   xmlns:inkscape="http://www.inkscape.org/namespaces/inkscape"
   width="85"
   height="50"
   id="svg3336"
   sodipodi:version="0.32"
   inkscape:version="0.48.0 r9654"
   sodipodi:docname="secondordertf.svg"
   inkscape:output_extension="org.inkscape.output.svg.inkscape"
   version="1.0">
  <sodipodi:namedview
     id="base"
     pagecolor="#ffffff"
     bordercolor="#666666"
     borderopacity="1.0"
     gridtolerance="10000"
     guidetolerance="10"
     objecttolerance="10"
     inkscape:pageopacity="0.0"
     inkscape:pageshadow="2"
     inkscape:zoom="3.3074907"
     inkscape:cx="9.8533583"
     inkscape:cy="64.357503"
     inkscape:document-units="px"
     inkscape:current-layer="layer1"
     showgrid="false"
     inkscape:window-width="1680"
     inkscape:window-height="982"
     inkscape:window-x="-8"
     inkscape:window-y="-8"
     showguides="true"
     inkscape:snap-global="true"
     inkscape:snap-intersection-line-segments="true"
     inkscape:snap-center="true"
     inkscape:window-maximized="1"
     fit-margin-top="0"
     fit-margin-left="0"
     fit-margin-right="0"
     fit-margin-bottom="0">
    <inkscape:grid
       snapvisiblegridlinesonly="true"
       empspacing="5"
       enabled="true"
       visible="true"
       id="grid2405"
       type="xygrid" />
  </sodipodi:namedview>
  <defs
     id="defs3338">
    <marker
       style="overflow:visible"
       id="Arrow2Mend"
       refX="0"
       refY="0"
       orient="auto"
       inkscape:stockid="Arrow2Mend">
      <path
         transform="scale(-0.6,-0.6)"
         d="M 8.7185878,4.0337352 -2.2072895,0.01601326 8.7185884,-4.0017078 c -1.7454984,2.3720609 -1.7354408,5.6174519 -6e-7,8.035443 l 0,0 z"
         style="font-size:12px;fill-rule:evenodd;stroke-width:0.625;stroke-linejoin:round"
         id="path3629"
         inkscape:connector-curvature="0" />
    </marker>
    <marker
       style="overflow:visible"
       id="DotM"
       refX="0"
       refY="0"
       orient="auto"
       inkscape:stockid="DotM">
      <path
         transform="matrix(0.4,0,0,0.4,2.96,0.4)"
         style="fill-rule:evenodd;stroke:#000000;stroke-width:1pt;marker-start:none;marker-end:none"
         d="m -2.5,-1 c 0,2.76 -2.24,5 -5,5 -2.76,0 -5,-2.24 -5,-5 0,-2.76 2.24,-5 5,-5 2.76,0 5,2.24 5,5 z"
         id="path3667"
         inkscape:connector-curvature="0" />
    </marker>
    <marker
       style="overflow:visible"
       id="DotL"
       refX="0"
       refY="0"
       orient="auto"
       inkscape:stockid="DotL">
      <path
         transform="matrix(0.8,0,0,0.8,5.92,0.8)"
         style="fill-rule:evenodd;stroke:#000000;stroke-width:1pt;marker-start:none;marker-end:none"
         d="m -2.5,-1 c 0,2.76 -2.24,5 -5,5 -2.76,0 -5,-2.24 -5,-5 0,-2.76 2.24,-5 5,-5 2.76,0 5,2.24 5,5 z"
         id="path3664"
         inkscape:connector-curvature="0" />
    </marker>
    <marker
       inkscape:stockid="TriangleOutL"
       orient="auto"
       refY="0"
       refX="0"
       id="TriangleOutL"
       style="overflow:visible">
      <path
         id="path8118"
         d="m 5.77,0 -8.65,5 0,-10 8.65,5 z"
         style="fill-rule:evenodd;stroke:#000000;stroke-width:1pt;marker-start:none"
         transform="scale(0.8,0.8)"
         inkscape:connector-curvature="0" />
    </marker>
    <inkscape:perspective
       id="perspective3344"
       inkscape:persp3d-origin="372.04724 : 350.78739 : 1"
       inkscape:vp_z="744.09448 : 526.18109 : 1"
       inkscape:vp_y="0 : 1000 : 0"
       inkscape:vp_x="0 : 526.18109 : 1"
       sodipodi:type="inkscape:persp3d" />
    <inkscape:perspective
       sodipodi:type="inkscape:persp3d"
       inkscape:vp_x="0 : 0.5 : 1"
       inkscape:vp_y="0 : 1000 : 0"
       inkscape:vp_z="1 : 0.5 : 1"
       inkscape:persp3d-origin="0.5 : 0.33333333 : 1"
       id="perspective3742" />
    <inkscape:perspective
       sodipodi:type="inkscape:persp3d"
       inkscape:vp_x="0 : 0.5 : 1"
       inkscape:vp_y="0 : 1000 : 0"
       inkscape:vp_z="1 : 0.5 : 1"
       inkscape:persp3d-origin="0.5 : 0.33333333 : 1"
       id="perspective3676" />
    <inkscape:perspective
       sodipodi:type="inkscape:persp3d"
       inkscape:vp_x="0 : 0.5 : 1"
       inkscape:vp_y="0 : 1000 : 0"
       inkscape:vp_z="1 : 0.5 : 1"
       inkscape:persp3d-origin="0.5 : 0.33333333 : 1"
       id="perspective3701" />
    <inkscape:perspective
       sodipodi:type="inkscape:persp3d"
       inkscape:vp_x="0 : 0.5 : 1"
       inkscape:vp_y="0 : 1000 : 0"
       inkscape:vp_z="1 : 0.5 : 1"
       inkscape:persp3d-origin="0.5 : 0.33333333 : 1"
       id="perspective3726" />
    <inkscape:perspective
       sodipodi:type="inkscape:persp3d"
       inkscape:vp_x="0 : 0.5 : 1"
       inkscape:vp_y="0 : 1000 : 0"
       inkscape:vp_z="1 : 0.5 : 1"
       inkscape:persp3d-origin="0.5 : 0.33333333 : 1"
       id="perspective3815" />
  </defs>
  <metadata
     id="metadata3341">
    <rdf:RDF>
      <cc:Work
         rdf:about="">
        <dc:format>image/svg+xml</dc:format>
        <dc:type
           rdf:resource="http://purl.org/dc/dcmitype/StillImage" />
        <dc:title />
      </cc:Work>
    </rdf:RDF>
  </metadata>
  <g
     transform="translate(-210.65625,-380.875)"
     id="layer1"
     inkscape:groupmode="layer"
     inkscape:label="Layer 1">
    <path
       style="fill:#ffffff;fill-opacity:1;stroke:#0000bb;stroke-width:1.49999988000000010;stroke-linecap:square;stroke-linejoin:miter;stroke-miterlimit:4;stroke-opacity:1;stroke-dasharray:1.49999999000000010, 1.49999999000000010;stroke-dashoffset:0"
       d="m 211.40698,381.63847 83.50001,0 0,48.5 -83.50001,0 z"
       id="rect3623-1-1"
       inkscape:connector-curvature="0" />
    <text
       transform="translate(211.66515,381.24194)"
       sodipodi:linespacing="125%"
       id="text3791"
       y="14.906749"
       x="60.546017"
       style="font-size:12px;font-style:normal;font-variant:normal;font-weight:normal;font-stretch:normal;text-align:start;line-height:125%;writing-mode:lr-tb;text-anchor:start;fill:#000000;fill-opacity:1;stroke:none;font-family:SymbolGreek;-inkscape-font-specification:Bitstream Vera Sans"
       xml:space="preserve"><tspan
         y="14.906749"
         x="60.546017"
         id="tspan3793"
         sodipodi:role="line" /></text>
    <path
       inkscape:connector-curvature="0"
       style="font-style:normal;font-variant:normal;font-weight:normal;font-stretch:normal;letter-spacing:normal;word-spacing:normal;text-anchor:start;fill:#0000bb;fill-opacity:1;fill-rule:nonzero;stroke:#0000bb;stroke-width:0.20000000000000001;stroke-linecap:butt;stroke-linejoin:miter;stroke-miterlimit:4;stroke-opacity:1;stroke-dashoffset:0"
       d="m 215.83461,406.13956 74.64501,0 0,-0.50216 -74.64501,0"
       id="polyline5208" />
    <g
       style="font-size:12px;font-style:normal;font-variant:normal;font-weight:normal;font-stretch:normal;line-height:125%;letter-spacing:0px;word-spacing:0px;fill:#0000bb;fill-opacity:1;stroke:none;font-family:Times New Roman;-inkscape-font-specification:Times New Roman"
       id="text3068"
       transform="translate(0.829005,-1.439645)">
      <path
         inkscape:connector-curvature="0"
         d="m 219.49294,399.3952 -0.0879,-0.0234 c -0.33984,0.34765 -0.65918,0.59375 -0.958,0.73828 -0.29883,0.14453 -0.61622,0.21679 -0.95215,0.21679 -0.29688,0 -0.5586,-0.0576 -0.78516,-0.17285 -0.22656,-0.11523 -0.40039,-0.27734 -0.52148,-0.48633 -0.1211,-0.20898 -0.18164,-0.45019 -0.18164,-0.72363 0,-0.57031 0.28222,-1.01074 0.84668,-1.32129 0.56445,-0.31054 1.41113,-0.49121 2.54004,-0.54199 l 0,-0.38086 c -1e-5,-0.40625 -0.0391,-0.72656 -0.11719,-0.96094 -0.0781,-0.23437 -0.20118,-0.40624 -0.36914,-0.51562 -0.16797,-0.10937 -0.39258,-0.16406 -0.67383,-0.16406 -0.30469,0 -0.54981,0.0801 -0.73535,0.24023 -0.18555,0.16016 -0.3252,0.40039 -0.41895,0.7207 l -0.76758,0 0,-0.76172 c 0.375,-0.1953 0.6875,-0.33886 0.9375,-0.43066 0.25,-0.0918 0.5,-0.16406 0.75,-0.2168 0.25,-0.0527 0.50391,-0.0791 0.76172,-0.0791 0.38672,1e-5 0.69727,0.0615 0.93164,0.18457 0.23437,0.12305 0.41016,0.31153 0.52735,0.56543 0.11718,0.25391 0.17577,0.63672 0.17578,1.14844 l 0,2.03906 c -1e-5,0.28907 0.002,0.49317 0.006,0.61231 0.004,0.11914 0.0156,0.22949 0.0352,0.33105 0.0195,0.10156 0.0488,0.18262 0.0879,0.24316 0.0391,0.0606 0.0967,0.11231 0.17285,0.15528 0.0762,0.043 0.20019,0.0879 0.37207,0.13476 l 0,0.28711 -1.60547,0 z m -0.0996,-1.83398 c -0.79298,0.008 -1.38673,0.11328 -1.78125,0.3164 -0.39454,0.20313 -0.5918,0.50977 -0.5918,0.91993 0,0.22265 0.0449,0.39843 0.13476,0.52734 0.0898,0.12891 0.20313,0.21777 0.33985,0.2666 0.13671,0.0488 0.29882,0.0732 0.48633,0.0732 0.26562,0 0.50683,-0.0645 0.72363,-0.19336 0.21679,-0.1289 0.38574,-0.29296 0.50684,-0.49218 0.12109,-0.19922 0.18163,-0.39649 0.18164,-0.5918 z"
         style="baseline-shift:baseline;fill:#0000bb;fill-opacity:1;font-family:Cambria Math;-inkscape-font-specification:Cambria Math"
         id="path3221" />
      <path
         inkscape:connector-curvature="0"
         d="m 224.04424,401.63904 c 0,0.14726 0.008,0.25835 0.0248,0.33325 0.0165,0.0749 0.0457,0.13585 0.0876,0.18282 0.0419,0.047 0.10219,0.0838 0.18091,0.11045 0.0787,0.0267 0.17773,0.047 0.29707,0.0609 0.11934,0.014 0.27676,0.0235 0.47227,0.0286 l 0,0.27803 -2.81459,0 0,-0.27803 c 0.28184,-0.0127 0.48307,-0.0298 0.60367,-0.0514 0.12061,-0.0216 0.21265,-0.054 0.27613,-0.0971 0.0635,-0.0432 0.10982,-0.1041 0.13902,-0.18281 0.0292,-0.0787 0.0438,-0.20694 0.0438,-0.38467 l 0,-3.08882 c -1e-5,-0.10156 -0.0178,-0.17582 -0.0533,-0.2228 -0.0356,-0.047 -0.0876,-0.0705 -0.15616,-0.0705 -0.0812,0 -0.19678,0.0419 -0.34659,0.12568 -0.1498,0.0838 -0.33516,0.19933 -0.55606,0.34659 l -0.16758,-0.29327 1.78245,-1.06261 0.20947,0 c -0.0152,0.24376 -0.0229,0.58146 -0.0229,1.0131 z"
         style="font-size:65.00091553%;baseline-shift:sub;fill:#0000bb;fill-opacity:1"
         id="path3223" />
      <path
         inkscape:connector-curvature="0"
         d="m 230.218,395.91473 -0.5625,0 c -0.0859,-0.23437 -0.18751,-0.41894 -0.30469,-0.55371 -0.11719,-0.13476 -0.25,-0.22948 -0.39844,-0.28418 -0.14844,-0.0547 -0.33008,-0.082 -0.54492,-0.082 -0.3125,10e-6 -0.56153,0.0733 -0.74707,0.21973 -0.18555,0.14649 -0.27832,0.34668 -0.27832,0.60058 0,0.1797 0.0371,0.32813 0.11133,0.44532 0.0742,0.11719 0.18945,0.22656 0.3457,0.32812 0.15625,0.10157 0.43164,0.23633 0.82617,0.4043 0.39844,0.17188 0.70605,0.33008 0.92285,0.47461 0.2168,0.14453 0.38672,0.3125 0.50977,0.5039 0.12304,0.19141 0.18457,0.41993 0.18457,0.68555 0,0.3086 -0.0527,0.56836 -0.1582,0.7793 -0.10548,0.21094 -0.25391,0.38281 -0.44532,0.51562 -0.19141,0.13282 -0.41894,0.22852 -0.68261,0.28711 -0.26368,0.0586 -0.55176,0.0879 -0.86426,0.0879 -0.32813,0 -0.64649,-0.0244 -0.95508,-0.0732 -0.30859,-0.0488 -0.60937,-0.1123 -0.90234,-0.19043 l 0,-1.22461 0.57422,0 c 0.10546,0.35938 0.26171,0.62012 0.46875,0.78223 0.20703,0.16211 0.49218,0.24316 0.85546,0.24316 0.14063,0 0.27832,-0.0146 0.41309,-0.0439 0.13476,-0.0293 0.25488,-0.0781 0.36035,-0.14649 0.10547,-0.0684 0.18945,-0.16113 0.25196,-0.27832 0.0625,-0.11718 0.0937,-0.26367 0.0937,-0.43945 -1e-5,-0.19922 -0.0391,-0.36133 -0.11719,-0.48633 -0.0781,-0.125 -0.19922,-0.23925 -0.36328,-0.34277 -0.16407,-0.10352 -0.45313,-0.24316 -0.86719,-0.41895 -0.35547,-0.14843 -0.64063,-0.29296 -0.85547,-0.43359 -0.21484,-0.14062 -0.38379,-0.30664 -0.50684,-0.49805 -0.12304,-0.1914 -0.18457,-0.41796 -0.18457,-0.67969 0,-0.3203 0.0869,-0.59862 0.26075,-0.83496 0.17382,-0.23632 0.4248,-0.41698 0.75293,-0.54199 0.32812,-0.12499 0.71288,-0.18749 1.15429,-0.1875 0.25781,1e-5 0.50684,0.0127 0.74707,0.0381 0.24023,0.0254 0.54199,0.0752 0.90528,0.14941 z"
         style="baseline-shift:baseline;fill:#0000bb;fill-opacity:1;font-family:Cambria Math;-inkscape-font-specification:Cambria Math"
         id="path3225" />
      <path
         inkscape:connector-curvature="0"
         d="m 233.55378,394.82371 c 0.12441,0 0.2247,-0.008 0.30088,-0.0229 0.0762,-0.0152 0.13711,-0.0406 0.18281,-0.0762 0.0457,-0.0355 0.0819,-0.0819 0.10855,-0.13901 0.0267,-0.0571 0.0603,-0.14536 0.10093,-0.2647 l 0.32374,0 -0.0648,1.11212 -3.13452,0 0,-0.18281 c 0.10918,-0.26661 0.25645,-0.53956 0.4418,-0.81886 0.18536,-0.2793 0.44815,-0.60811 0.78839,-0.98644 0.29454,-0.325 0.50655,-0.5713 0.63605,-0.73888 0.14219,-0.18281 0.24819,-0.34087 0.31802,-0.47418 0.0698,-0.13329 0.11997,-0.25898 0.15044,-0.37705 0.0305,-0.11807 0.0457,-0.23677 0.0457,-0.35611 -1e-5,-0.19043 -0.0305,-0.35864 -0.0914,-0.50465 -0.0609,-0.14599 -0.15425,-0.26088 -0.27994,-0.34468 -0.12568,-0.0838 -0.28374,-0.12568 -0.47417,-0.12568 -0.47482,0 -0.79474,0.26407 -0.95978,0.7922 l -0.46085,0 0,-0.73127 c 0.30723,-0.14472 0.59478,-0.24946 0.86266,-0.31421 0.26787,-0.0647 0.50845,-0.0971 0.72174,-0.0971 0.47227,1e-5 0.82901,0.10347 1.07023,0.31041 0.24121,0.20694 0.36182,0.50719 0.36182,0.90074 0,0.13458 -0.0133,0.25836 -0.04,0.37134 -0.0267,0.113 -0.0686,0.22472 -0.12569,0.33516 -0.0571,0.11046 -0.13394,0.22916 -0.23042,0.35611 -0.0965,0.12696 -0.20313,0.25582 -0.31993,0.38658 -0.1168,0.13077 -0.31866,0.34849 -0.60557,0.65318 -0.48243,0.51036 -0.83664,0.95598 -1.06261,1.33684 z"
         style="font-size:65.00091553%;baseline-shift:super;fill:#0000bb;fill-opacity:1"
         id="path3227" />
      <path
         inkscape:connector-curvature="0"
         d="m 242.7536,397.19208 0,3.375 -0.83203,0 0,-3.375 -3.19336,0 0,-0.7793 3.19336,0 0,-3.375 0.83203,0 0,3.375 3.19336,0 0,0.7793 z"
         style="baseline-shift:baseline;fill:#0000bb;fill-opacity:1;font-family:Cambria Math;-inkscape-font-specification:Cambria Math"
         id="path3229" />
      <path
         inkscape:connector-curvature="0"
         d="m 253.43525,399.3952 -0.0879,-0.0234 c -0.33984,0.34765 -0.65918,0.59375 -0.958,0.73828 -0.29883,0.14453 -0.61622,0.21679 -0.95215,0.21679 -0.29688,0 -0.5586,-0.0576 -0.78516,-0.17285 -0.22656,-0.11523 -0.40039,-0.27734 -0.52148,-0.48633 -0.1211,-0.20898 -0.18164,-0.45019 -0.18164,-0.72363 0,-0.57031 0.28222,-1.01074 0.84668,-1.32129 0.56445,-0.31054 1.41113,-0.49121 2.54004,-0.54199 l 0,-0.38086 c -1e-5,-0.40625 -0.0391,-0.72656 -0.11719,-0.96094 -0.0781,-0.23437 -0.20118,-0.40624 -0.36914,-0.51562 -0.16797,-0.10937 -0.39258,-0.16406 -0.67383,-0.16406 -0.30469,0 -0.54981,0.0801 -0.73535,0.24023 -0.18555,0.16016 -0.3252,0.40039 -0.41895,0.7207 l -0.76758,0 0,-0.76172 c 0.375,-0.1953 0.6875,-0.33886 0.9375,-0.43066 0.25,-0.0918 0.5,-0.16406 0.75,-0.2168 0.25,-0.0527 0.50391,-0.0791 0.76172,-0.0791 0.38672,1e-5 0.69727,0.0615 0.93164,0.18457 0.23437,0.12305 0.41016,0.31153 0.52735,0.56543 0.11718,0.25391 0.17577,0.63672 0.17578,1.14844 l 0,2.03906 c -1e-5,0.28907 0.002,0.49317 0.006,0.61231 0.004,0.11914 0.0156,0.22949 0.0352,0.33105 0.0195,0.10156 0.0488,0.18262 0.0879,0.24316 0.0391,0.0606 0.0967,0.11231 0.17285,0.15528 0.0762,0.043 0.20019,0.0879 0.37207,0.13476 l 0,0.28711 -1.60547,0 z m -0.0996,-1.83398 c -0.79298,0.008 -1.38673,0.11328 -1.78125,0.3164 -0.39454,0.20313 -0.5918,0.50977 -0.5918,0.91993 0,0.22265 0.0449,0.39843 0.13476,0.52734 0.0898,0.12891 0.20313,0.21777 0.33985,0.2666 0.13672,0.0488 0.29882,0.0732 0.48633,0.0732 0.26562,0 0.50683,-0.0645 0.72363,-0.19336 0.21679,-0.1289 0.38574,-0.29296 0.50684,-0.49218 0.12109,-0.19922 0.18163,-0.39649 0.18164,-0.5918 z"
         style="baseline-shift:baseline;fill:#0000bb;fill-opacity:1;font-family:Cambria Math;-inkscape-font-specification:Cambria Math"
         id="path3231" />
      <path
         inkscape:connector-curvature="0"
         d="m 258.01321,402.02371 c 0.12442,0 0.22471,-0.008 0.30089,-0.0229 0.0762,-0.0152 0.1371,-0.0406 0.18281,-0.0762 0.0457,-0.0355 0.0819,-0.0819 0.10855,-0.13901 0.0267,-0.0571 0.0603,-0.14536 0.10093,-0.2647 l 0.32373,0 -0.0648,1.11212 -3.13451,0 0,-0.18281 c 0.10918,-0.26661 0.25645,-0.53956 0.4418,-0.81886 0.18535,-0.2793 0.44815,-0.60811 0.78839,-0.98644 0.29453,-0.325 0.50655,-0.5713 0.63605,-0.73888 0.14218,-0.18281 0.24819,-0.34087 0.31802,-0.47417 0.0698,-0.1333 0.11997,-0.25899 0.15044,-0.37706 0.0305,-0.11807 0.0457,-0.23677 0.0457,-0.35611 0,-0.19043 -0.0305,-0.35864 -0.0914,-0.50465 -0.0609,-0.14599 -0.15425,-0.26088 -0.27993,-0.34468 -0.12569,-0.0838 -0.28375,-0.12568 -0.47418,-0.12568 -0.47481,0 -0.79474,0.26407 -0.95978,0.7922 l -0.46084,0 0,-0.73126 c 0.30723,-0.14473 0.59478,-0.24947 0.86266,-0.31422 0.26787,-0.0647 0.50845,-0.0971 0.72173,-0.0971 0.47227,1e-5 0.82902,0.10347 1.07023,0.31041 0.24122,0.20694 0.36182,0.50719 0.36183,0.90074 -10e-6,0.13458 -0.0133,0.25836 -0.04,0.37134 -0.0267,0.113 -0.0686,0.22472 -0.12569,0.33517 -0.0571,0.11045 -0.13394,0.22915 -0.23042,0.3561 -0.0965,0.12696 -0.20313,0.25582 -0.31993,0.38658 -0.1168,0.13077 -0.31866,0.34849 -0.60557,0.65318 -0.48244,0.51036 -0.83664,0.95598 -1.06262,1.33684 z"
         style="font-size:65.00091553%;baseline-shift:sub;fill:#0000bb;fill-opacity:1"
         id="path3233" />
      <path
         inkscape:connector-curvature="0"
         d="m 264.16031,395.91473 -0.5625,0 c -0.0859,-0.23437 -0.18751,-0.41894 -0.30469,-0.55371 -0.11719,-0.13476 -0.25001,-0.22948 -0.39844,-0.28418 -0.14844,-0.0547 -0.33008,-0.082 -0.54492,-0.082 -0.3125,10e-6 -0.56153,0.0733 -0.74707,0.21973 -0.18555,0.14649 -0.27832,0.34668 -0.27832,0.60058 0,0.1797 0.0371,0.32813 0.11133,0.44532 0.0742,0.11719 0.18945,0.22656 0.3457,0.32812 0.15625,0.10157 0.43164,0.23633 0.82617,0.4043 0.39843,0.17188 0.70605,0.33008 0.92285,0.47461 0.2168,0.14453 0.38672,0.3125 0.50977,0.5039 0.12304,0.19141 0.18456,0.41993 0.18457,0.68555 -1e-5,0.3086 -0.0527,0.56836 -0.1582,0.7793 -0.10548,0.21094 -0.25392,0.38281 -0.44532,0.51562 -0.19141,0.13282 -0.41895,0.22852 -0.68261,0.28711 -0.26368,0.0586 -0.55177,0.0879 -0.86426,0.0879 -0.32813,0 -0.64649,-0.0244 -0.95508,-0.0732 -0.3086,-0.0488 -0.60938,-0.1123 -0.90234,-0.19043 l 0,-1.22461 0.57421,0 c 0.10547,0.35938 0.26172,0.62012 0.46875,0.78223 0.20703,0.16211 0.49219,0.24316 0.85547,0.24316 0.14063,0 0.27832,-0.0146 0.41309,-0.0439 0.13476,-0.0293 0.25488,-0.0781 0.36035,-0.14649 0.10547,-0.0684 0.18945,-0.16113 0.25195,-0.27832 0.0625,-0.11718 0.0937,-0.26367 0.0937,-0.43945 0,-0.19922 -0.0391,-0.36133 -0.11718,-0.48633 -0.0781,-0.125 -0.19923,-0.23925 -0.36328,-0.34277 -0.16407,-0.10352 -0.45313,-0.24316 -0.86719,-0.41895 -0.35547,-0.14843 -0.64063,-0.29296 -0.85547,-0.43359 -0.21485,-0.14062 -0.38379,-0.30664 -0.50684,-0.49805 -0.12304,-0.1914 -0.18457,-0.41796 -0.18457,-0.67969 0,-0.3203 0.0869,-0.59862 0.26074,-0.83496 0.17383,-0.23632 0.42481,-0.41698 0.75293,-0.54199 0.32813,-0.12499 0.71289,-0.18749 1.1543,-0.1875 0.25781,1e-5 0.50683,0.0127 0.74707,0.0381 0.24023,0.0254 0.54199,0.0752 0.90528,0.14941 z"
         style="baseline-shift:baseline;fill:#0000bb;fill-opacity:1;font-family:Cambria Math;-inkscape-font-specification:Cambria Math"
         id="path3235" />
      <path
         inkscape:connector-curvature="0"
         d="m 272.36929,397.19208 0,3.375 -0.83203,0 0,-3.375 -3.19336,0 0,-0.7793 3.19336,0 0,-3.375 0.83203,0 0,3.375 3.19336,0 0,0.7793 z"
         style="baseline-shift:baseline;fill:#0000bb;fill-opacity:1;font-family:Cambria Math;-inkscape-font-specification:Cambria Math"
         id="path3237" />
      <path
         inkscape:connector-curvature="0"
         d="m 283.05093,399.3952 -0.0879,-0.0234 c -0.33985,0.34765 -0.65918,0.59375 -0.95801,0.73828 -0.29883,0.14453 -0.61621,0.21679 -0.95215,0.21679 -0.29687,0 -0.55859,-0.0576 -0.78515,-0.17285 -0.22657,-0.11523 -0.40039,-0.27734 -0.52149,-0.48633 -0.12109,-0.20898 -0.18164,-0.45019 -0.18164,-0.72363 0,-0.57031 0.28223,-1.01074 0.84668,-1.32129 0.56445,-0.31054 1.41113,-0.49121 2.54004,-0.54199 l 0,-0.38086 c 0,-0.40625 -0.0391,-0.72656 -0.11719,-0.96094 -0.0781,-0.23437 -0.20117,-0.40624 -0.36914,-0.51562 -0.16797,-0.10937 -0.39258,-0.16406 -0.67383,-0.16406 -0.30469,0 -0.5498,0.0801 -0.73535,0.24023 -0.18555,0.16016 -0.32519,0.40039 -0.41894,0.7207 l -0.76758,0 0,-0.76172 c 0.375,-0.1953 0.6875,-0.33886 0.9375,-0.43066 0.25,-0.0918 0.5,-0.16406 0.75,-0.2168 0.25,-0.0527 0.5039,-0.0791 0.76172,-0.0791 0.38671,1e-5 0.69726,0.0615 0.93164,0.18457 0.23437,0.12305 0.41015,0.31153 0.52734,0.56543 0.11719,0.25391 0.17578,0.63672 0.17578,1.14844 l 0,2.03906 c 0,0.28907 0.002,0.49317 0.006,0.61231 0.004,0.11914 0.0156,0.22949 0.0352,0.33105 0.0195,0.10156 0.0488,0.18262 0.0879,0.24316 0.0391,0.0606 0.0967,0.11231 0.17285,0.15528 0.0762,0.043 0.20019,0.0879 0.37207,0.13476 l 0,0.28711 -1.60547,0 z m -0.0996,-1.83398 c -0.79297,0.008 -1.38672,0.11328 -1.78125,0.3164 -0.39453,0.20313 -0.5918,0.50977 -0.5918,0.91993 0,0.22265 0.0449,0.39843 0.13477,0.52734 0.0898,0.12891 0.20312,0.21777 0.33984,0.2666 0.13672,0.0488 0.29883,0.0732 0.48633,0.0732 0.26562,0 0.50683,-0.0645 0.72363,-0.19336 0.2168,-0.1289 0.38574,-0.29296 0.50684,-0.49218 0.12109,-0.19922 0.18164,-0.39649 0.18164,-0.5918 z"
         style="baseline-shift:baseline;fill:#0000bb;fill-opacity:1;font-family:Cambria Math;-inkscape-font-specification:Cambria Math"
         id="path3239" />
      <path
         inkscape:connector-curvature="0"
         d="m 285.56081,398.51214 0,-0.72365 c 0.29453,-0.13964 0.57002,-0.24374 0.82647,-0.31231 0.25645,-0.0686 0.50401,-0.10282 0.74269,-0.10283 0.28691,10e-6 0.53828,0.0444 0.75411,0.1333 0.21582,0.0889 0.38086,0.21647 0.49512,0.38277 0.11426,0.16632 0.17139,0.365 0.17139,0.59606 0,0.21582 -0.0432,0.40562 -0.12949,0.56939 -0.0863,0.16377 -0.20757,0.3066 -0.36373,0.42847 -0.15615,0.12188 -0.35865,0.24122 -0.60748,0.35801 l 0,0.0343 c 0.15489,0.0279 0.30406,0.0755 0.44752,0.14283 0.14346,0.0673 0.27105,0.15425 0.38277,0.26089 0.11172,0.10664 0.20122,0.23423 0.26851,0.38277 0.0673,0.14854 0.10092,0.31802 0.10093,0.50845 -1e-5,0.29454 -0.0641,0.55607 -0.19234,0.78458 -0.12823,0.22852 -0.32437,0.4088 -0.58843,0.54083 -0.26407,0.13204 -0.58527,0.19805 -0.96359,0.19805 -0.21837,0 -0.45387,-0.0247 -0.70651,-0.0743 -0.25264,-0.0495 -0.48433,-0.11489 -0.69507,-0.19614 l 0,-0.80744 0.45703,0 c 0.0889,0.26407 0.2063,0.45577 0.3523,0.57511 0.146,0.11934 0.34468,0.17901 0.59606,0.17901 0.33008,0 0.57954,-0.0901 0.7484,-0.27042 0.16884,-0.18027 0.25327,-0.44688 0.25327,-0.79981 0,-0.37071 -0.11172,-0.65382 -0.33516,-0.84933 -0.22344,-0.19551 -0.55099,-0.29326 -0.98263,-0.29327 l -0.34278,0 0,-0.33516 c 0.34278,-0.0203 0.6316,-0.0863 0.86647,-0.19805 0.23486,-0.11172 0.40943,-0.25517 0.52369,-0.43038 0.11425,-0.17519 0.17138,-0.37197 0.17139,-0.59034 -10e-6,-0.28183 -0.0749,-0.49892 -0.22471,-0.65127 -0.14981,-0.15235 -0.36818,-0.22852 -0.65509,-0.22852 -0.23868,0 -0.43292,0.0648 -0.58272,0.19424 -0.14981,0.1295 -0.26026,0.32755 -0.33136,0.59415 z"
         style="font-size:65.00091553%;baseline-shift:sub;fill:#0000bb;fill-opacity:1"
         id="path3241" />
    </g>
    <g
       style="font-size:12px;font-style:normal;font-variant:normal;font-weight:normal;font-stretch:normal;line-height:125%;letter-spacing:0px;word-spacing:0px;fill:#0000bb;fill-opacity:1;stroke:none;font-family:Times New Roman;-inkscape-font-specification:Times New Roman"
       id="text3068-8"
       transform="translate(0.829005,-1.439645)">
      <path
         inkscape:connector-curvature="0"
         d="m 216.62184,417.34033 0.0234,0.006 c 0.27343,-0.28515 0.50097,-0.49218 0.68262,-0.62109 0.18163,-0.1289 0.36913,-0.22754 0.5625,-0.2959 0.19335,-0.0683 0.40527,-0.10253 0.63574,-0.10254 0.41796,1e-5 0.77636,0.10645 1.07519,0.31934 0.29883,0.21289 0.52929,0.53223 0.69141,0.958 0.1621,0.42579 0.24316,0.94727 0.24316,1.56446 0,0.63672 -0.0967,1.1748 -0.29004,1.61425 -0.19336,0.43946 -0.47852,0.77149 -0.85546,0.9961 -0.37696,0.22461 -0.82325,0.33691 -1.33887,0.33691 -0.28907,0 -0.56153,-0.0264 -0.81738,-0.0791 -0.25587,-0.0527 -0.52442,-0.14551 -0.80567,-0.27832 l -0.41015,0.35742 -0.4043,-0.0937 0,-6.36914 c 0,-0.37499 -0.003,-0.63671 -0.009,-0.78515 -0.006,-0.14843 -0.0215,-0.27441 -0.0469,-0.37793 -0.0254,-0.10351 -0.0605,-0.18457 -0.10546,-0.24317 -0.0449,-0.0586 -0.10547,-0.10546 -0.18164,-0.14062 -0.0762,-0.0351 -0.21387,-0.0703 -0.41309,-0.10547 l 0,-0.30469 1.41797,-0.0586 0.3457,0 z m 0,2.57227 c 0,0.30078 0.0137,0.54004 0.041,0.71777 0.0273,0.17774 0.0732,0.3252 0.13769,0.44238 0.0645,0.11719 0.1582,0.22461 0.28125,0.32227 0.12305,0.0977 0.26074,0.16504 0.41309,0.20215 0.15234,0.0371 0.32226,0.0557 0.50976,0.0557 0.46875,0 0.82422,-0.1914 1.06641,-0.57422 0.24218,-0.38281 0.36328,-0.95703 0.36328,-1.72265 0,-0.77344 -0.11035,-1.35449 -0.33105,-1.74317 -0.22071,-0.38866 -0.55372,-0.583 -0.99903,-0.583 -0.22266,0 -0.41211,0.0342 -0.56836,0.10253 -0.15625,0.0684 -0.31152,0.17481 -0.46582,0.31934 -0.1543,0.14454 -0.26758,0.28711 -0.33984,0.42773 -0.0723,0.14063 -0.1084,0.30079 -0.1084,0.48047 z"
         style="baseline-shift:baseline;fill:#0000bb;fill-opacity:1;font-family:Cambria Math;-inkscape-font-specification:Cambria Math"
         id="path3198" />
      <path
         inkscape:connector-curvature="0"
         d="m 223.78643,423.42792 c 0,0.14726 0.008,0.25835 0.0248,0.33325 0.0165,0.0749 0.0457,0.13584 0.0876,0.18282 0.0419,0.047 0.1022,0.0838 0.18092,0.11045 0.0787,0.0267 0.17773,0.047 0.29707,0.0609 0.11933,0.014 0.27676,0.0235 0.47227,0.0286 l 0,0.27803 -2.81459,0 0,-0.27803 c 0.28184,-0.0127 0.48306,-0.0298 0.60367,-0.0514 0.12061,-0.0216 0.21265,-0.0539 0.27613,-0.0971 0.0635,-0.0432 0.10981,-0.1041 0.13901,-0.18281 0.0292,-0.0787 0.0438,-0.20694 0.0438,-0.38467 l 0,-3.08882 c 0,-0.10156 -0.0178,-0.17583 -0.0533,-0.2228 -0.0356,-0.047 -0.0876,-0.0705 -0.15615,-0.0705 -0.0812,0 -0.19678,0.0419 -0.34659,0.12568 -0.14981,0.0838 -0.33516,0.19933 -0.55606,0.34659 l -0.16758,-0.29327 1.78245,-1.06261 0.20947,0 c -0.0152,0.24376 -0.0229,0.58146 -0.0229,1.0131 z"
         style="font-size:65.00091553%;baseline-shift:sub;fill:#0000bb;fill-opacity:1"
         id="path3200" />
      <path
         inkscape:connector-curvature="0"
         d="m 229.96018,417.70361 -0.5625,0 c -0.0859,-0.23437 -0.1875,-0.41894 -0.30468,-0.55371 -0.11719,-0.13476 -0.25001,-0.22948 -0.39844,-0.28418 -0.14844,-0.0547 -0.33008,-0.082 -0.54492,-0.082 -0.31251,10e-6 -0.56153,0.0733 -0.74707,0.21973 -0.18555,0.14649 -0.27833,0.34668 -0.27832,0.60058 -1e-5,0.1797 0.0371,0.32813 0.11132,0.44532 0.0742,0.11719 0.18946,0.22656 0.34571,0.32812 0.15625,0.10157 0.43164,0.23633 0.82617,0.4043 0.39843,0.17188 0.70605,0.33008 0.92285,0.47461 0.21679,0.14453 0.38672,0.3125 0.50977,0.5039 0.12304,0.19141 0.18456,0.41993 0.18457,0.68555 -1e-5,0.3086 -0.0527,0.56836 -0.15821,0.7793 -0.10547,0.21094 -0.25391,0.38281 -0.44531,0.51562 -0.19141,0.13282 -0.41895,0.22852 -0.68262,0.28711 -0.26367,0.0586 -0.55176,0.0879 -0.86425,0.0879 -0.32813,0 -0.64649,-0.0244 -0.95508,-0.0732 -0.3086,-0.0488 -0.60938,-0.1123 -0.90235,-0.19043 l 0,-1.22461 0.57422,0 c 0.10547,0.35938 0.26172,0.62012 0.46875,0.78223 0.20703,0.16211 0.49219,0.24316 0.85547,0.24316 0.14062,0 0.27832,-0.0147 0.41309,-0.0439 0.13476,-0.0293 0.25488,-0.0781 0.36035,-0.14649 0.10547,-0.0684 0.18945,-0.16113 0.25195,-0.27832 0.0625,-0.11718 0.0937,-0.26367 0.0937,-0.43945 0,-0.19922 -0.0391,-0.36133 -0.11718,-0.48633 -0.0781,-0.125 -0.19923,-0.23926 -0.36329,-0.34277 -0.16406,-0.10352 -0.45312,-0.24316 -0.86718,-0.41895 -0.35547,-0.14843 -0.64063,-0.29296 -0.85547,-0.43359 -0.21485,-0.14062 -0.38379,-0.30664 -0.50684,-0.49805 -0.12305,-0.1914 -0.18457,-0.41796 -0.18457,-0.67969 0,-0.3203 0.0869,-0.59862 0.26074,-0.83496 0.17383,-0.23632 0.42481,-0.41698 0.75293,-0.54199 0.32813,-0.12499 0.71289,-0.18749 1.1543,-0.1875 0.25781,10e-6 0.50683,0.0127 0.74707,0.0381 0.24023,0.0254 0.54199,0.0752 0.90527,0.14941 z"
         style="baseline-shift:baseline;fill:#0000bb;fill-opacity:1;font-family:Cambria Math;-inkscape-font-specification:Cambria Math"
         id="path3202" />
      <path
         inkscape:connector-curvature="0"
         d="m 233.29596,416.61259 c 0.12442,0 0.22471,-0.008 0.30089,-0.0229 0.0762,-0.0152 0.13711,-0.0406 0.18281,-0.0762 0.0457,-0.0355 0.0819,-0.0819 0.10855,-0.13901 0.0267,-0.0571 0.0603,-0.14536 0.10093,-0.2647 l 0.32373,0 -0.0647,1.11212 -3.13452,0 0,-0.18281 c 0.10918,-0.26661 0.25645,-0.53956 0.4418,-0.81886 0.18536,-0.2793 0.44815,-0.60811 0.78839,-0.98644 0.29454,-0.325 0.50655,-0.5713 0.63605,-0.73888 0.14218,-0.18281 0.24819,-0.34087 0.31802,-0.47418 0.0698,-0.13329 0.11997,-0.25898 0.15044,-0.37705 0.0305,-0.11807 0.0457,-0.23677 0.0457,-0.35611 0,-0.19043 -0.0305,-0.35864 -0.0914,-0.50465 -0.061,-0.14599 -0.15426,-0.26088 -0.27994,-0.34468 -0.12569,-0.0838 -0.28375,-0.12568 -0.47418,-0.12568 -0.47481,0 -0.79474,0.26407 -0.95978,0.79219 l -0.46084,0 0,-0.73126 c 0.30723,-0.14472 0.59478,-0.24946 0.86266,-0.31421 0.26787,-0.0647 0.50845,-0.0971 0.72174,-0.0971 0.47227,1e-5 0.82901,0.10347 1.07023,0.31041 0.24121,0.20694 0.36181,0.50718 0.36182,0.90074 -1e-5,0.13458 -0.0133,0.25836 -0.04,0.37134 -0.0267,0.113 -0.0686,0.22472 -0.12569,0.33516 -0.0571,0.11046 -0.13394,0.22916 -0.23042,0.35611 -0.0965,0.12696 -0.20313,0.25582 -0.31993,0.38658 -0.1168,0.13077 -0.31866,0.34849 -0.60557,0.65318 -0.48243,0.51036 -0.83664,0.95598 -1.06262,1.33684 z"
         style="font-size:65.00091553%;baseline-shift:super;fill:#0000bb;fill-opacity:1"
         id="path3204" />
      <path
         inkscape:connector-curvature="0"
         d="m 242.49579,418.98096 0,3.375 -0.83203,0 0,-3.375 -3.19336,0 0,-0.7793 3.19336,0 0,-3.375 0.83203,0 0,3.375 3.19336,0 0,0.7793 z"
         style="baseline-shift:baseline;fill:#0000bb;fill-opacity:1;font-family:Cambria Math;-inkscape-font-specification:Cambria Math"
         id="path3206" />
      <path
         inkscape:connector-curvature="0"
         d="m 251.26728,417.34033 0.0234,0.006 c 0.27344,-0.28515 0.50098,-0.49218 0.68262,-0.62109 0.18164,-0.1289 0.36914,-0.22754 0.5625,-0.2959 0.19336,-0.0683 0.40527,-0.10253 0.63574,-0.10254 0.41797,1e-5 0.77637,0.10645 1.0752,0.31934 0.29882,0.21289 0.52929,0.53223 0.69141,0.958 0.1621,0.42579 0.24315,0.94727 0.24316,1.56446 -1e-5,0.63672 -0.0967,1.1748 -0.29004,1.61425 -0.19336,0.43946 -0.47852,0.77149 -0.85547,0.9961 -0.37696,0.22461 -0.82324,0.33691 -1.33887,0.33691 -0.28906,0 -0.56152,-0.0264 -0.81738,-0.0791 -0.25586,-0.0527 -0.52441,-0.14551 -0.80566,-0.27832 l -0.41016,0.35742 -0.4043,-0.0937 0,-6.36914 c 0,-0.37499 -0.003,-0.63671 -0.009,-0.78515 -0.006,-0.14843 -0.0215,-0.27441 -0.0469,-0.37793 -0.0254,-0.10351 -0.0606,-0.18457 -0.10547,-0.24317 -0.0449,-0.0586 -0.10547,-0.10546 -0.18164,-0.14062 -0.0762,-0.0351 -0.21387,-0.0703 -0.41309,-0.10547 l 0,-0.30469 1.41797,-0.0586 0.34571,0 z m 0,2.57227 c -1e-5,0.30078 0.0137,0.54004 0.041,0.71777 0.0273,0.17774 0.0732,0.3252 0.1377,0.44238 0.0644,0.11719 0.1582,0.22461 0.28125,0.32227 0.12304,0.0977 0.26074,0.16504 0.41308,0.20215 0.15234,0.0371 0.32227,0.0557 0.50977,0.0557 0.46875,0 0.82421,-0.1914 1.06641,-0.57422 0.24218,-0.38281 0.36327,-0.95703 0.36328,-1.72265 -1e-5,-0.77344 -0.11036,-1.35449 -0.33106,-1.74317 -0.22071,-0.38866 -0.55371,-0.583 -0.99902,-0.583 -0.22266,0 -0.41211,0.0342 -0.56836,0.10253 -0.15625,0.0684 -0.31153,0.17481 -0.46582,0.31934 -0.1543,0.14454 -0.26758,0.28711 -0.33984,0.42773 -0.0723,0.14063 -0.10841,0.30079 -0.1084,0.48047 z"
         style="baseline-shift:baseline;fill:#0000bb;fill-opacity:1;font-family:Cambria Math;-inkscape-font-specification:Cambria Math"
         id="path3208" />
      <path
         inkscape:connector-curvature="0"
         d="m 258.45853,423.81259 c 0.12441,0 0.2247,-0.008 0.30088,-0.0229 0.0762,-0.0152 0.13711,-0.0406 0.18281,-0.0762 0.0457,-0.0355 0.0819,-0.0819 0.10855,-0.13901 0.0267,-0.0571 0.0603,-0.14536 0.10093,-0.2647 l 0.32373,0 -0.0647,1.11212 -3.13452,0 0,-0.18281 c 0.10918,-0.26661 0.25645,-0.53956 0.4418,-0.81886 0.18536,-0.2793 0.44815,-0.60811 0.78839,-0.98644 0.29454,-0.325 0.50655,-0.5713 0.63605,-0.73888 0.14218,-0.18281 0.24819,-0.34087 0.31802,-0.47418 0.0698,-0.13329 0.11997,-0.25898 0.15044,-0.37705 0.0305,-0.11807 0.0457,-0.23677 0.0457,-0.35611 -10e-6,-0.19043 -0.0305,-0.35864 -0.0914,-0.50465 -0.0609,-0.14599 -0.15426,-0.26088 -0.27994,-0.34468 -0.12569,-0.0838 -0.28374,-0.12568 -0.47417,-0.12568 -0.47482,0 -0.79474,0.26407 -0.95978,0.79219 l -0.46085,0 0,-0.73126 c 0.30723,-0.14472 0.59478,-0.24946 0.86266,-0.31421 0.26787,-0.0647 0.50845,-0.0971 0.72174,-0.0971 0.47227,1e-5 0.82901,0.10347 1.07023,0.31041 0.24121,0.20694 0.36181,0.50718 0.36182,0.90074 -1e-5,0.13458 -0.0133,0.25836 -0.04,0.37134 -0.0267,0.113 -0.0686,0.22472 -0.12569,0.33516 -0.0571,0.11046 -0.13394,0.22916 -0.23042,0.35611 -0.0965,0.12696 -0.20313,0.25582 -0.31993,0.38658 -0.1168,0.13077 -0.31866,0.34849 -0.60557,0.65318 -0.48243,0.51036 -0.83664,0.95598 -1.06261,1.33684 z"
         style="font-size:65.00091553%;baseline-shift:sub;fill:#0000bb;fill-opacity:1"
         id="path3210" />
      <path
         inkscape:connector-curvature="0"
         d="m 264.60562,417.70361 -0.5625,0 c -0.0859,-0.23437 -0.18751,-0.41894 -0.30469,-0.55371 -0.11719,-0.13476 -0.25,-0.22948 -0.39844,-0.28418 -0.14844,-0.0547 -0.33008,-0.082 -0.54492,-0.082 -0.3125,10e-6 -0.56152,0.0733 -0.74707,0.21973 -0.18555,0.14649 -0.27832,0.34668 -0.27832,0.60058 0,0.1797 0.0371,0.32813 0.11133,0.44532 0.0742,0.11719 0.18945,0.22656 0.3457,0.32812 0.15625,0.10157 0.43164,0.23633 0.82617,0.4043 0.39844,0.17188 0.70605,0.33008 0.92285,0.47461 0.2168,0.14453 0.38672,0.3125 0.50977,0.5039 0.12304,0.19141 0.18457,0.41993 0.18457,0.68555 0,0.3086 -0.0527,0.56836 -0.1582,0.7793 -0.10548,0.21094 -0.25391,0.38281 -0.44531,0.51562 -0.19141,0.13282 -0.41895,0.22852 -0.68262,0.28711 -0.26368,0.0586 -0.55176,0.0879 -0.86426,0.0879 -0.32813,0 -0.64649,-0.0244 -0.95508,-0.0732 -0.30859,-0.0488 -0.60937,-0.1123 -0.90234,-0.19043 l 0,-1.22461 0.57422,0 c 0.10546,0.35938 0.26171,0.62012 0.46875,0.78223 0.20703,0.16211 0.49218,0.24316 0.85547,0.24316 0.14062,0 0.27831,-0.0147 0.41308,-0.0439 0.13476,-0.0293 0.25488,-0.0781 0.36035,-0.14649 0.10547,-0.0684 0.18945,-0.16113 0.25196,-0.27832 0.0625,-0.11718 0.0937,-0.26367 0.0937,-0.43945 -1e-5,-0.19922 -0.0391,-0.36133 -0.11719,-0.48633 -0.0781,-0.125 -0.19922,-0.23926 -0.36328,-0.34277 -0.16407,-0.10352 -0.45313,-0.24316 -0.86719,-0.41895 -0.35547,-0.14843 -0.64063,-0.29296 -0.85547,-0.43359 -0.21484,-0.14062 -0.38379,-0.30664 -0.50683,-0.49805 -0.12305,-0.1914 -0.18458,-0.41796 -0.18457,-0.67969 -10e-6,-0.3203 0.0869,-0.59862 0.26074,-0.83496 0.17382,-0.23632 0.4248,-0.41698 0.75293,-0.54199 0.32812,-0.12499 0.71289,-0.18749 1.15429,-0.1875 0.25781,10e-6 0.50684,0.0127 0.74707,0.0381 0.24023,0.0254 0.54199,0.0752 0.90528,0.14941 z"
         style="baseline-shift:baseline;fill:#0000bb;fill-opacity:1;font-family:Cambria Math;-inkscape-font-specification:Cambria Math"
         id="path3212" />
      <path
         inkscape:connector-curvature="0"
         d="m 272.8146,418.98096 0,3.375 -0.83203,0 0,-3.375 -3.19336,0 0,-0.7793 3.19336,0 0,-3.375 0.83203,0 0,3.375 3.19336,0 0,0.7793 z"
         style="baseline-shift:baseline;fill:#0000bb;fill-opacity:1;font-family:Cambria Math;-inkscape-font-specification:Cambria Math"
         id="path3214" />
      <path
         inkscape:connector-curvature="0"
         d="m 281.58609,417.34033 0.0234,0.006 c 0.27343,-0.28515 0.50097,-0.49218 0.68261,-0.62109 0.18164,-0.1289 0.36914,-0.22754 0.5625,-0.2959 0.19336,-0.0683 0.40527,-0.10253 0.63575,-0.10254 0.41796,1e-5 0.77636,0.10645 1.07519,0.31934 0.29883,0.21289 0.52929,0.53223 0.69141,0.958 0.1621,0.42579 0.24316,0.94727 0.24316,1.56446 0,0.63672 -0.0967,1.1748 -0.29004,1.61425 -0.19336,0.43946 -0.47852,0.77149 -0.85547,0.9961 -0.37695,0.22461 -0.82324,0.33691 -1.33886,0.33691 -0.28907,0 -0.56153,-0.0264 -0.81739,-0.0791 -0.25586,-0.0527 -0.52441,-0.14551 -0.80566,-0.27832 l -0.41016,0.35742 -0.40429,-0.0937 0,-6.36914 c 0,-0.37499 -0.003,-0.63671 -0.009,-0.78515 -0.006,-0.14843 -0.0215,-0.27441 -0.0469,-0.37793 -0.0254,-0.10351 -0.0605,-0.18457 -0.10547,-0.24317 -0.0449,-0.0586 -0.10546,-0.10546 -0.18164,-0.14062 -0.0762,-0.0351 -0.21386,-0.0703 -0.41308,-0.10547 l 0,-0.30469 1.41797,-0.0586 0.3457,0 z m 0,2.57227 c 0,0.30078 0.0137,0.54004 0.041,0.71777 0.0273,0.17774 0.0732,0.3252 0.13769,0.44238 0.0645,0.11719 0.1582,0.22461 0.28125,0.32227 0.12305,0.0977 0.26074,0.16504 0.41309,0.20215 0.15234,0.0371 0.32226,0.0557 0.50976,0.0557 0.46875,0 0.82422,-0.1914 1.06641,-0.57422 0.24218,-0.38281 0.36328,-0.95703 0.36328,-1.72265 0,-0.77344 -0.11036,-1.35449 -0.33105,-1.74317 -0.22071,-0.38866 -0.55372,-0.583 -0.99903,-0.583 -0.22266,0 -0.41211,0.0342 -0.56836,0.10253 -0.15625,0.0684 -0.31152,0.17481 -0.46582,0.31934 -0.1543,0.14454 -0.26758,0.28711 -0.33984,0.42773 -0.0723,0.14063 -0.1084,0.30079 -0.1084,0.48047 z"
         style="baseline-shift:baseline;fill:#0000bb;fill-opacity:1;font-family:Cambria Math;-inkscape-font-specification:Cambria Math"
         id="path3216" />
      <path
         inkscape:connector-curvature="0"
         d="m 286.70924,420.30102 0,-0.72365 c 0.29454,-0.13964 0.57003,-0.24375 0.82648,-0.31231 0.25645,-0.0686 0.50401,-0.10282 0.74269,-0.10283 0.28691,10e-6 0.53828,0.0444 0.75411,0.1333 0.21582,0.0889 0.38086,0.21647 0.49512,0.38277 0.11426,0.16632 0.17139,0.365 0.17139,0.59606 0,0.21582 -0.0432,0.40562 -0.12949,0.56939 -0.0863,0.16377 -0.20758,0.3066 -0.36373,0.42847 -0.15616,0.12188 -0.35865,0.24122 -0.60748,0.35801 l 0,0.0343 c 0.15488,0.0279 0.30406,0.0755 0.44752,0.14283 0.14345,0.0673 0.27104,0.15425 0.38277,0.26089 0.11171,0.10664 0.20122,0.23423 0.26851,0.38277 0.0673,0.14854 0.10092,0.31802 0.10093,0.50845 -1e-5,0.29454 -0.0641,0.55607 -0.19234,0.78458 -0.12823,0.22852 -0.32437,0.4088 -0.58844,0.54083 -0.26407,0.13203 -0.58526,0.19805 -0.96358,0.19805 -0.21837,0 -0.45387,-0.0248 -0.70651,-0.0743 -0.25264,-0.0495 -0.48433,-0.11489 -0.69508,-0.19614 l 0,-0.80744 0.45704,0 c 0.0889,0.26407 0.2063,0.45577 0.3523,0.57511 0.146,0.11934 0.34468,0.17901 0.59605,0.17901 0.33008,0 0.57955,-0.0901 0.7484,-0.27042 0.16885,-0.18027 0.25328,-0.44688 0.25328,-0.79981 0,-0.37071 -0.11172,-0.65382 -0.33516,-0.84933 -0.22345,-0.19551 -0.55099,-0.29327 -0.98263,-0.29327 l -0.34278,0 0,-0.33516 c 0.34277,-0.0203 0.6316,-0.0863 0.86647,-0.19805 0.23486,-0.11172 0.40942,-0.25517 0.52368,-0.43038 0.11426,-0.17519 0.17139,-0.37197 0.17139,-0.59034 0,-0.28183 -0.0749,-0.49892 -0.22471,-0.65127 -0.14981,-0.15235 -0.36817,-0.22852 -0.65508,-0.22852 -0.23868,0 -0.43292,0.0648 -0.58273,0.19424 -0.1498,0.1295 -0.26026,0.32755 -0.33135,0.59415 z"
         style="font-size:65.00091553%;baseline-shift:sub;fill:#0000bb;fill-opacity:1"
         id="path3218" />
    </g>
  </g>
</svg>
