<?xml version="1.0" encoding="UTF-8" standalone="no"?>
<!-- Created with Inkscape (http://www.inkscape.org/) -->

<svg
   xmlns:dc="http://purl.org/dc/elements/1.1/"
   xmlns:cc="http://creativecommons.org/ns#"
   xmlns:rdf="http://www.w3.org/1999/02/22-rdf-syntax-ns#"
   xmlns:svg="http://www.w3.org/2000/svg"
   xmlns="http://www.w3.org/2000/svg"
   xmlns:sodipodi="http://sodipodi.sourceforge.net/DTD/sodipodi-0.dtd"
   xmlns:inkscape="http://www.inkscape.org/namespaces/inkscape"
   width="36.000698"
   height="36.000698"
   id="svg4097"
   version="1.1"
   inkscape:version="0.48.2 r9819"
   sodipodi:docname="pressuresensor_user.svg">
  <defs
     id="defs4099" />
  <sodipodi:namedview
     id="base"
     pagecolor="#ffffff"
     bordercolor="#666666"
     borderopacity="1.0"
     inkscape:pageopacity="0.0"
     inkscape:pageshadow="2"
     inkscape:zoom="8.5970555"
     inkscape:cx="29.346989"
     inkscape:cy="13.48707"
     inkscape:document-units="px"
     inkscape:current-layer="layer1"
     showgrid="false"
     inkscape:window-width="1366"
     inkscape:window-height="706"
     inkscape:window-x="-8"
     inkscape:window-y="-8"
     inkscape:window-maximized="1"
     fit-margin-top="0"
     fit-margin-left="0"
     fit-margin-right="0"
     fit-margin-bottom="0" />
  <metadata
     id="metadata4102">
    <rdf:RDF>
      <cc:Work
         rdf:about="">
        <dc:format>image/svg+xml</dc:format>
        <dc:type
           rdf:resource="http://purl.org/dc/dcmitype/StillImage" />
        <dc:title></dc:title>
      </cc:Work>
    </rdf:RDF>
  </metadata>
  <g
     inkscape:label="Layer 1"
     inkscape:groupmode="layer"
     id="layer1"
     transform="translate(-354.57099,-487.52014)">
    <path
       sodipodi:type="arc"
       style="fill:#ffffff;fill-opacity:1;stroke:#000000;stroke-width:3.12200499;stroke-linecap:square;stroke-miterlimit:4;stroke-opacity:1;stroke-dasharray:none;stroke-dashoffset:0"
       id="path4105"
       sodipodi:cx="220.27011"
       sodipodi:cy="486.64642"
       sodipodi:rx="35.903057"
       sodipodi:ry="35.903057"
       d="m 256.17317,486.64642 c 0,19.82871 -16.07435,35.90306 -35.90306,35.90306 -19.82871,0 -35.90306,-16.07435 -35.90306,-35.90306 0,-19.82871 16.07435,-35.90305 35.90306,-35.90305 19.82871,0 35.90306,16.07434 35.90306,35.90305 z"
       transform="matrix(0.48046048,0,0,0.48046048,266.73991,271.70647)" />
    <path
       style="fill:none;stroke:#000000;stroke-width:1.5;stroke-linecap:butt;stroke-linejoin:miter;stroke-miterlimit:4;stroke-opacity:1;stroke-dasharray:none"
       d="m 372.57346,487.69261 0,7.21227"
       id="path4615"
       inkscape:connector-curvature="0" />
    <path
       sodipodi:type="arc"
       style="fill:#008000;fill-opacity:1;fill-rule:nonzero;stroke:#000000;stroke-width:0.61012751;stroke-linecap:square;stroke-miterlimit:4;stroke-opacity:1;stroke-dasharray:none;stroke-dashoffset:0"
       id="path4818"
       sodipodi:cx="368.6015"
       sodipodi:cy="503.1391"
       sodipodi:rx="0.50823301"
       sodipodi:ry="0.50823301"
       d="m 369.10973,503.1391 c 0,0.28069 -0.22754,0.50823 -0.50823,0.50823 -0.28069,0 -0.50823,-0.22754 -0.50823,-0.50823 0,-0.28069 0.22754,-0.50823 0.50823,-0.50823 0.28069,0 0.50823,0.22754 0.50823,0.50823 z"
       transform="matrix(1.6390017,0,0,1.6390017,-231.56505,-319.12263)" />
    <path
       sodipodi:nodetypes="cc"
       style="fill:none;stroke:#000000;stroke-width:1.5;stroke-linecap:square;stroke-linejoin:miter;stroke-miterlimit:4;stroke-opacity:1;stroke-dasharray:none"
       d="m 374.72646,497.60228 -2.04071,7.56986"
       id="path4790"
       inkscape:connector-curvature="0" />
    <path
       sodipodi:type="star"
       style="fill:#000000;fill-opacity:1;fill-rule:nonzero;stroke:none;stroke-width:0.67995254;stroke-miterlimit:4;stroke-dasharray:none"
       id="path2422"
       sodipodi:sides="3"
       sodipodi:cx="3.9285715"
       sodipodi:cy="4.1964326"
       sodipodi:r1="2.1961381"
       sodipodi:r2="1.0980691"
       sodipodi:arg1="0.52359878"
       sodipodi:arg2="1.5707963"
       inkscape:flatsided="true"
       inkscape:rounded="0"
       inkscape:randomized="0"
       d="m 5.8304829,5.2945017 -3.8038229,0 1.9019115,-3.2942073 z"
       transform="matrix(1.6624767,0.43398964,-0.71478797,2.7407215,371.35603,484.02628)" />
    <path
       style="fill:none;stroke:#000000;stroke-width:1.5;stroke-linecap:butt;stroke-linejoin:miter;stroke-miterlimit:4;stroke-opacity:1;stroke-dasharray:none"
       d="m 381.57223,490.00154 -3.60613,6.24601"
       id="path4615-7-9-4"
       inkscape:connector-curvature="0" />
    <path
       style="fill:none;stroke:#000000;stroke-width:1.5;stroke-linecap:butt;stroke-linejoin:miter;stroke-miterlimit:4;stroke-opacity:1;stroke-dasharray:none"
       d="m 381.88939,500.21865 6.24603,-3.60614"
       id="path4615-5-4-0"
       inkscape:connector-curvature="0"
       inkscape:transform-center-x="7" />
    <path
       style="fill:none;stroke:#000000;stroke-width:1.5;stroke-linecap:butt;stroke-linejoin:miter;stroke-miterlimit:4;stroke-opacity:1;stroke-dasharray:none"
       d="m 363.57525,490.00216 3.60613,6.24601"
       id="path4615-7-9-4-2"
       inkscape:connector-curvature="0" />
    <path
       style="fill:none;stroke:#000000;stroke-width:1.5;stroke-linecap:butt;stroke-linejoin:miter;stroke-miterlimit:4;stroke-opacity:1;stroke-dasharray:none"
       d="m 363.25809,500.21927 -6.24603,-3.60614"
       id="path4615-5-4-0-3"
       inkscape:connector-curvature="0"
       inkscape:transform-center-x="7" />
    <g
       style="font-size:14px;font-style:normal;font-variant:normal;font-weight:normal;font-stretch:normal;line-height:125%;letter-spacing:0px;word-spacing:0px;fill:#000000;fill-opacity:1;stroke:none;font-family:Arial;-inkscape-font-specification:Arial"
       id="text3995">
      <path
         d="m 376.21002,512.37756 c -10e-6,0.69141 -0.0747,1.31251 -0.22412,1.86328 -0.14942,0.55079 -0.36915,1.01807 -0.65918,1.40186 -0.29005,0.38379 -0.64893,0.67969 -1.07666,0.8877 -0.42774,0.208 -0.917,0.31201 -1.46777,0.31201 -0.23438,0 -0.45118,-0.0234 -0.65039,-0.0703 -0.19923,-0.0469 -0.39405,-0.12011 -0.58448,-0.21972 -0.19043,-0.0996 -0.37939,-0.22559 -0.56689,-0.37793 -0.1875,-0.15234 -0.38672,-0.33106 -0.59766,-0.53613 l 0,3.95507 c 0,0.0469 -0.0117,0.0879 -0.0352,0.12305 -0.0234,0.0352 -0.0615,0.0645 -0.11426,0.0879 -0.0527,0.0234 -0.12598,0.041 -0.21973,0.0527 -0.0937,0.0117 -0.21387,0.0176 -0.36035,0.0176 -0.14063,0 -0.25781,-0.006 -0.35156,-0.0176 -0.0937,-0.0117 -0.16846,-0.0293 -0.22412,-0.0527 -0.0557,-0.0234 -0.0937,-0.0527 -0.11426,-0.0879 -0.0205,-0.0352 -0.0308,-0.0762 -0.0308,-0.12305 l 0,-11.04785 c 0,-0.0527 0.009,-0.0952 0.0264,-0.12744 0.0176,-0.0322 0.0527,-0.06 0.10546,-0.0835 0.0527,-0.0234 0.12012,-0.0395 0.20215,-0.0483 0.082,-0.009 0.18164,-0.0132 0.29883,-0.0132 0.12305,10e-6 0.22412,0.004 0.30322,0.0132 0.0791,0.009 0.14502,0.0249 0.19776,0.0483 0.0527,0.0235 0.0894,0.0513 0.10986,0.0835 0.0205,0.0322 0.0308,0.0747 0.0308,0.12744 l 0,1.06348 c 0.24023,-0.24609 0.47168,-0.45995 0.69434,-0.6416 0.22265,-0.18164 0.44677,-0.33251 0.67236,-0.45264 0.22558,-0.12011 0.45703,-0.21093 0.69434,-0.27246 0.2373,-0.0615 0.48779,-0.0923 0.75146,-0.0923 0.57422,1e-5 1.06347,0.11134 1.46778,0.33399 0.40429,0.22266 0.73387,0.52735 0.98877,0.91406 0.25487,0.38673 0.4409,0.83643 0.5581,1.34912 0.11718,0.5127 0.17577,1.05616 0.17578,1.63037 z m -1.52929,0.167 c -10e-6,-0.4043 -0.0308,-0.79541 -0.0923,-1.17334 -0.0615,-0.37793 -0.167,-0.71338 -0.31641,-1.00635 -0.14942,-0.29296 -0.3501,-0.52734 -0.60205,-0.70313 -0.25196,-0.17577 -0.56543,-0.26366 -0.94043,-0.26367 -0.1875,10e-6 -0.37207,0.0278 -0.55371,0.0835 -0.18164,0.0557 -0.36621,0.14356 -0.55371,0.26367 -0.1875,0.12012 -0.38379,0.27833 -0.58887,0.47461 -0.20508,0.19629 -0.42187,0.43799 -0.65039,0.7251 l 0,3.14648 c 0.39844,0.48633 0.77637,0.8584 1.13379,1.11621 0.35742,0.25782 0.73242,0.38672 1.125,0.38672 0.36328,0 0.67529,-0.0879 0.93604,-0.26367 0.26073,-0.17578 0.47167,-0.41016 0.63281,-0.70313 0.16113,-0.29296 0.27978,-0.62109 0.35596,-0.98437 0.0762,-0.36328 0.11425,-0.72949 0.11426,-1.09863 z"
         style="font-size:18px;fill:#008000;font-family:Calibri;-inkscape-font-specification:Calibri"
         id="path4000" />
    </g>
  </g>
</svg>
