<?xml version="1.0" encoding="UTF-8" standalone="no"?>
<!-- Created with Inkscape (http://www.inkscape.org/) -->

<svg
   xmlns:dc="http://purl.org/dc/elements/1.1/"
   xmlns:cc="http://creativecommons.org/ns#"
   xmlns:rdf="http://www.w3.org/1999/02/22-rdf-syntax-ns#"
   xmlns:svg="http://www.w3.org/2000/svg"
   xmlns="http://www.w3.org/2000/svg"
   xmlns:sodipodi="http://sodipodi.sourceforge.net/DTD/sodipodi-0.dtd"
   xmlns:inkscape="http://www.inkscape.org/namespaces/inkscape"
   width="83.84375"
   height="47.625"
   id="svg3336"
   sodipodi:version="0.32"
   inkscape:version="0.48.0 r9654"
   sodipodi:docname="lp2filter.svg"
   inkscape:output_extension="org.inkscape.output.svg.inkscape"
   version="1.0">
  <sodipodi:namedview
     id="base"
     pagecolor="#ffffff"
     bordercolor="#666666"
     borderopacity="1.0"
     gridtolerance="10000"
     guidetolerance="10"
     objecttolerance="10"
     inkscape:pageopacity="0.0"
     inkscape:pageshadow="2"
     inkscape:zoom="6.1171875"
     inkscape:cx="-16.785521"
     inkscape:cy="18.17735"
     inkscape:document-units="px"
     inkscape:current-layer="layer1"
     showgrid="false"
     inkscape:window-width="1680"
     inkscape:window-height="982"
     inkscape:window-x="-8"
     inkscape:window-y="38"
     showguides="true"
     inkscape:snap-global="true"
     inkscape:snap-intersection-line-segments="true"
     inkscape:snap-center="true"
     inkscape:window-maximized="1"
     fit-margin-top="0"
     fit-margin-left="0"
     fit-margin-right="0"
     fit-margin-bottom="0">
    <inkscape:grid
       snapvisiblegridlinesonly="true"
       empspacing="5"
       enabled="true"
       visible="true"
       id="grid2405"
       type="xygrid" />
  </sodipodi:namedview>
  <defs
     id="defs3338">
    <marker
       style="overflow:visible"
       id="Arrow2Mend"
       refX="0"
       refY="0"
       orient="auto"
       inkscape:stockid="Arrow2Mend">
      <path
         transform="scale(-0.6,-0.6)"
         d="M 8.7185878,4.0337352 -2.2072895,0.01601326 8.7185884,-4.0017078 c -1.7454984,2.3720609 -1.7354408,5.6174519 -6e-7,8.035443 l 0,0 z"
         style="font-size:12px;fill-rule:evenodd;stroke-width:0.625;stroke-linejoin:round"
         id="path3629"
         inkscape:connector-curvature="0" />
    </marker>
    <marker
       style="overflow:visible"
       id="DotM"
       refX="0"
       refY="0"
       orient="auto"
       inkscape:stockid="DotM">
      <path
         transform="matrix(0.4,0,0,0.4,2.96,0.4)"
         style="fill-rule:evenodd;stroke:#000000;stroke-width:1pt;marker-start:none;marker-end:none"
         d="m -2.5,-1 c 0,2.76 -2.24,5 -5,5 -2.76,0 -5,-2.24 -5,-5 0,-2.76 2.24,-5 5,-5 2.76,0 5,2.24 5,5 z"
         id="path3667"
         inkscape:connector-curvature="0" />
    </marker>
    <marker
       style="overflow:visible"
       id="DotL"
       refX="0"
       refY="0"
       orient="auto"
       inkscape:stockid="DotL">
      <path
         transform="matrix(0.8,0,0,0.8,5.92,0.8)"
         style="fill-rule:evenodd;stroke:#000000;stroke-width:1pt;marker-start:none;marker-end:none"
         d="m -2.5,-1 c 0,2.76 -2.24,5 -5,5 -2.76,0 -5,-2.24 -5,-5 0,-2.76 2.24,-5 5,-5 2.76,0 5,2.24 5,5 z"
         id="path3664"
         inkscape:connector-curvature="0" />
    </marker>
    <marker
       inkscape:stockid="TriangleOutL"
       orient="auto"
       refY="0"
       refX="0"
       id="TriangleOutL"
       style="overflow:visible">
      <path
         id="path8118"
         d="m 5.77,0 -8.65,5 0,-10 8.65,5 z"
         style="fill-rule:evenodd;stroke:#000000;stroke-width:1pt;marker-start:none"
         transform="scale(0.8,0.8)"
         inkscape:connector-curvature="0" />
    </marker>
    <inkscape:perspective
       id="perspective3344"
       inkscape:persp3d-origin="372.04724 : 350.78739 : 1"
       inkscape:vp_z="744.09448 : 526.18109 : 1"
       inkscape:vp_y="0 : 1000 : 0"
       inkscape:vp_x="0 : 526.18109 : 1"
       sodipodi:type="inkscape:persp3d" />
    <inkscape:perspective
       sodipodi:type="inkscape:persp3d"
       inkscape:vp_x="0 : 0.5 : 1"
       inkscape:vp_y="0 : 1000 : 0"
       inkscape:vp_z="1 : 0.5 : 1"
       inkscape:persp3d-origin="0.5 : 0.33333333 : 1"
       id="perspective3742" />
    <inkscape:perspective
       sodipodi:type="inkscape:persp3d"
       inkscape:vp_x="0 : 0.5 : 1"
       inkscape:vp_y="0 : 1000 : 0"
       inkscape:vp_z="1 : 0.5 : 1"
       inkscape:persp3d-origin="0.5 : 0.33333333 : 1"
       id="perspective3676" />
    <inkscape:perspective
       sodipodi:type="inkscape:persp3d"
       inkscape:vp_x="0 : 0.5 : 1"
       inkscape:vp_y="0 : 1000 : 0"
       inkscape:vp_z="1 : 0.5 : 1"
       inkscape:persp3d-origin="0.5 : 0.33333333 : 1"
       id="perspective3701" />
    <inkscape:perspective
       sodipodi:type="inkscape:persp3d"
       inkscape:vp_x="0 : 0.5 : 1"
       inkscape:vp_y="0 : 1000 : 0"
       inkscape:vp_z="1 : 0.5 : 1"
       inkscape:persp3d-origin="0.5 : 0.33333333 : 1"
       id="perspective3726" />
    <inkscape:perspective
       sodipodi:type="inkscape:persp3d"
       inkscape:vp_x="0 : 0.5 : 1"
       inkscape:vp_y="0 : 1000 : 0"
       inkscape:vp_z="1 : 0.5 : 1"
       inkscape:persp3d-origin="0.5 : 0.33333333 : 1"
       id="perspective3815" />
  </defs>
  <metadata
     id="metadata3341">
    <rdf:RDF>
      <cc:Work
         rdf:about="">
        <dc:format>image/svg+xml</dc:format>
        <dc:type
           rdf:resource="http://purl.org/dc/dcmitype/StillImage" />
        <dc:title />
      </cc:Work>
    </rdf:RDF>
  </metadata>
  <g
     transform="translate(-211.21875,-382.21875)"
     id="layer1"
     inkscape:groupmode="layer"
     inkscape:label="Layer 1">
    <rect
       style="fill:#ffffff;fill-opacity:1;stroke:#000000;stroke-width:2;stroke-linecap:square;stroke-linejoin:miter;stroke-miterlimit:4;stroke-opacity:1;stroke-dasharray:none;stroke-dashoffset:0"
       id="rect3623-1-1"
       width="81.84227"
       height="45.620689"
       x="212.21948"
       y="383.22092" />
    <text
       transform="translate(211.66515,381.24194)"
       sodipodi:linespacing="125%"
       id="text3791"
       y="14.906749"
       x="60.546017"
       style="font-size:12px;font-style:normal;font-variant:normal;font-weight:normal;font-stretch:normal;text-align:start;line-height:125%;writing-mode:lr-tb;text-anchor:start;fill:#000000;fill-opacity:1;stroke:none;font-family:SymbolGreek;-inkscape-font-specification:Bitstream Vera Sans"
       xml:space="preserve"><tspan
         y="14.906749"
         x="60.546017"
         id="tspan3793"
         sodipodi:role="line" /></text>
    <g
       id="g4152"
       transform="matrix(3.7353501,0,0,3.7353501,139.11713,284.8665)"
       style="stroke-width:0.0535425;stroke-miterlimit:4;stroke-dasharray:none">
      <g
         word-spacing="normal"
         letter-spacing="normal"
         font-size-adjust="none"
         font-stretch="normal"
         font-weight="normal"
         font-variant="normal"
         font-style="normal"
         stroke-miterlimit="10.433"
         xml:space="preserve"
         transform="matrix(0.07117164,0,0,-0.07117164,-12.455036,60.544069)"
         id="content"
         style="font-style:normal;font-variant:normal;font-weight:normal;font-stretch:normal;letter-spacing:normal;word-spacing:normal;text-anchor:start;fill:none;stroke:#000000;stroke-width:0.7523011;stroke-linecap:butt;stroke-linejoin:miter;stroke-miterlimit:4;stroke-opacity:1;stroke-dasharray:none;stroke-dashoffset:0"><path
           id="path4155"
           d="m 605.65,455.88 0,0.05 -0.01,0.06 0,0.05 0,0.05 0,0.05 0,0.05 0,0.04 0,0.05 0,0.04 0,0.04 0,0.04 0,0.04 0,0.04 -0.01,0.04 0,0.03 0,0.04 -0.01,0.03 0,0.03 -0.01,0.06 -0.01,0.05 -0.02,0.05 -0.01,0.05 -0.02,0.04 -0.02,0.04 -0.03,0.04 -0.03,0.03 -0.03,0.02 -0.03,0.03 -0.04,0.02 -0.05,0.02 -0.02,0.01 -0.03,0.01 -0.02,0 -0.03,0.01 -0.03,0.01 -0.03,0 -0.03,0.01 -0.03,0 -0.03,0.01 -0.04,0 -0.04,0 -0.03,0 -0.04,0.01 -0.04,0 -0.04,0 -0.05,0 -0.04,0 -0.05,0 -0.05,0.01 -0.05,0 -0.05,0 -0.05,0 c -3.09,-3.19 -7.47,-3.19 -9.07,-3.19 v -1.55 c 1,0 3.94,0 6.53,1.3 v -25.81 c 0,-1.79 -0.15,-2.39 -4.63,-2.39 h -1.6 V 424 h 16.14 v 1.54 h -1.59 c -4.49,0 -4.63,0.55 -4.63,2.39 z"
           inkscape:connector-curvature="0"
           style="fill:#000000;stroke-width:0.7523011;stroke-miterlimit:4;stroke-dasharray:none" /><polyline
           id="polyline4157"
           points="462,402 745.8,402 745.8,404.04 462,404.04 "
           style="fill:#000000;fill-rule:nonzero;stroke-width:0.7523011;stroke-miterlimit:4;stroke-dasharray:none" /><path
           id="path4159"
           d="m 488.03,383.11 -0.09,-0.02 -0.08,-0.03 -0.08,-0.02 -0.08,-0.03 -0.07,-0.03 -0.07,-0.04 -0.08,-0.04 -0.06,-0.04 -0.07,-0.04 -0.06,-0.04 -0.07,-0.05 -0.05,-0.05 -0.06,-0.05 -0.06,-0.05 -0.05,-0.05 -0.05,-0.06 -0.04,-0.05 -0.04,-0.06 -0.05,-0.06 -0.03,-0.06 -0.04,-0.06 -0.03,-0.06 -0.03,-0.06 -0.03,-0.07 -0.02,-0.06 -0.02,-0.07 -0.02,-0.06 -0.01,-0.07 -0.01,-0.06 -0.01,-0.07 -0.01,-0.06 0,-0.07 c 0,-0.8 0.7,-1.11 1.15,-1.11 0.35,0 1.68,0.21 1.68,1.98 0,2.27 -2.51,3.04 -4.64,3.04 -5.44,0 -6.41,-4.01 -6.41,-5.09 0,-1.29 0.73,-2.13 1.21,-2.55 0.91,-0.7 1.54,-0.84 3.95,-1.26 0.73,-0.13 2.96,-0.55 2.96,-2.3 0,-0.59 -0.39,-1.91 -1.85,-2.79 -1.36,-0.76 -3.07,-0.76 -3.49,-0.76 -1.39,0 -3.38,0.31 -4.18,1.46 1.15,0.14 1.92,1.01 1.92,1.99 0,0.87 -0.63,1.29 -1.36,1.29 -1.01,0 -2.02,-0.8 -2.02,-2.33 0,-2.1 2.23,-3.39 5.61,-3.39 6.41,0 7.6,4.39 7.6,5.76 0,3.2 -3.52,3.83 -4.81,4.07 -0.31,0.07 -1.18,0.22 -1.4,0.28 -1.28,0.25 -1.91,0.98 -1.91,1.75 0,0.8 0.63,1.74 1.39,2.23 0.94,0.59 2.16,0.66 2.75,0.66 0.74,0 2.55,-0.1 3.32,-1.29 z"
           inkscape:connector-curvature="0"
           style="fill:#000000;stroke-width:0.7523011;stroke-miterlimit:4;stroke-dasharray:none" /><path
           id="path4161"
           d="m 506.67,384.81 h -1.05 c -0.07,-0.48 -0.32,-2.02 -0.72,-2.27 -0.2,-0.15 -2.29,-0.15 -2.66,-0.15 h -4.88 c 1.64,1.22 3.48,2.62 4.98,3.61 2.24,1.55 4.33,2.99 4.33,5.63 0,3.19 -3.01,4.96 -6.58,4.96 -3.36,0 -5.82,-1.95 -5.82,-4.39 0,-1.29 1.09,-1.52 1.44,-1.52 0.67,0 1.47,0.45 1.47,1.48 0,0.89 -0.65,1.39 -1.42,1.46 0.7,1.13 2.14,1.87 3.81,1.87 2.42,0 4.43,-1.44 4.43,-3.88 0,-2.09 -1.44,-3.69 -3.36,-5.31 l -6.07,-5.16 c -0.25,-0.22 -0.28,-0.22 -0.3,-0.39 V 380 h 11.58 z"
           inkscape:connector-curvature="0"
           style="fill:#000000;stroke-width:0.7523011;stroke-miterlimit:4;stroke-dasharray:none" /><polyline
           id="polyline4163"
           points="468,361 517.2,361 517.2,363.04 468,363.04 "
           style="fill:#000000;fill-rule:nonzero;stroke-width:0.7523011;stroke-miterlimit:4;stroke-dasharray:none" /><path
           id="path4165"
           d="m 486.34,344.12 0.02,0.1 0.03,0.09 0.02,0.1 0.03,0.1 0.03,0.1 0.02,0.11 0.06,0.21 0.05,0.22 0.06,0.22 0.05,0.22 0.03,0.11 0.02,0.11 0.03,0.1 0.02,0.1 0.03,0.1 0.02,0.09 0.02,0.09 0.02,0.09 0.02,0.08 0.01,0.08 0.02,0.07 0.01,0.06 0.02,0.06 0.01,0.05 0,0.05 0.01,0.03 0,0.02 0,0.01 0,0.01 0,0.01 c 0,0.7 -0.55,1.12 -1.15,1.12 -0.66,0 -1.29,-0.42 -1.49,-1.01 -0.11,-0.28 -0.46,-1.75 -0.7,-2.62 -0.49,-1.99 -0.49,-2.06 -1.02,-4.01 -0.45,-1.92 -0.52,-2.19 -0.55,-3.21 0.14,-0.69 -0.14,-1.36 -0.98,-2.4 -0.45,-0.56 -1.15,-1.15 -2.34,-1.15 -1.36,0 -3.13,0.49 -3.13,3.21 0,1.77 0.97,4.36 1.67,6.13 0.59,1.54 0.73,1.85 0.73,2.44 0,1.68 -1.43,2.97 -3.31,2.97 -3.52,0 -5.09,-4.74 -5.09,-5.34 0,-0.45 0.49,-0.45 0.59,-0.45 0.49,0 0.52,0.17 0.63,0.56 0.87,2.89 2.37,4.25 3.76,4.25 0.6,0 0.88,-0.38 0.88,-1.22 0,-0.8 -0.32,-1.57 -0.49,-2.02 -1.99,-5.09 -1.99,-5.79 -1.99,-6.87 0,-4.11 3.73,-4.64 5.62,-4.64 0.66,0 2.37,0 3.93,2.34 0.81,-1.57 2.73,-2.34 4.85,-2.34 3.11,0 4.64,2.69 5.34,4.12 1.5,2.93 2.44,7.28 2.44,8.89 0,2.61 -1.5,2.75 -1.75,2.75 -0.9,0 -1.88,-0.94 -1.88,-1.85 0,-0.59 0.35,-0.87 0.59,-1.08 0.84,-0.69 1.29,-1.67 1.29,-2.78 0,-0.46 -1.46,-9.07 -5.89,-9.07 -2.82,0 -2.82,2.51 -2.82,3.1 0,0.94 0.14,1.5 0.62,3.49 z"
           inkscape:connector-curvature="0"
           style="fill:#000000;stroke-width:0.7523011;stroke-miterlimit:4;stroke-dasharray:none" /><path
           id="path4167"
           d="m 511.67,347.81 h -1.05 c -0.07,-0.48 -0.32,-2.02 -0.72,-2.27 -0.2,-0.15 -2.29,-0.15 -2.66,-0.15 h -4.88 c 1.64,1.22 3.48,2.62 4.98,3.61 2.24,1.55 4.33,2.99 4.33,5.63 0,3.19 -3.01,4.96 -6.58,4.96 -3.36,0 -5.82,-1.95 -5.82,-4.39 0,-1.29 1.09,-1.52 1.44,-1.52 0.67,0 1.47,0.45 1.47,1.48 0,0.89 -0.65,1.39 -1.42,1.46 0.7,1.13 2.14,1.87 3.81,1.87 2.42,0 4.43,-1.44 4.43,-3.88 0,-2.09 -1.44,-3.69 -3.36,-5.31 l -6.07,-5.16 c -0.25,-0.22 -0.28,-0.22 -0.3,-0.39 V 343 h 11.58 z"
           inkscape:connector-curvature="0"
           style="fill:#000000;stroke-width:0.7523011;stroke-miterlimit:4;stroke-dasharray:none" /><path
           id="path4169"
           d="m 554.38,361.46 h 13.89 c 0.7,0 1.64,0 1.64,0.99 0,1 -0.94,1 -1.64,1 h -13.89 v 13.95 c 0,0.69 0,1.64 -1,1.64 -1,0 -1,-0.95 -1,-1.64 v -13.95 h -13.95 c -0.7,0 -1.64,0 -1.64,-1 0,-0.99 0.94,-0.99 1.64,-0.99 h 13.95 v -13.95 c 0,-0.7 0,-1.64 1,-1.64 1,0 1,0.94 1,1.64 z"
           inkscape:connector-curvature="0"
           style="fill:#000000;stroke-width:0.7523011;stroke-miterlimit:4;stroke-dasharray:none" /><path
           id="path4171"
           d="m 607.61,376.35 h -1.19 c -0.1,-0.77 -0.45,-2.83 -0.9,-3.18 -0.28,-0.21 -2.97,-0.21 -3.45,-0.21 h -6.42 c 3.66,3.25 4.88,4.22 6.97,5.86 2.58,2.06 4.99,4.22 4.99,7.54 0,4.21 -3.7,6.79 -8.16,6.79 -4.33,0 -7.25,-3.03 -7.25,-6.24 0,-1.78 1.5,-1.95 1.84,-1.95 0.84,0 1.86,0.59 1.86,1.85 0,0.62 -0.25,1.85 -2.06,1.85 1.08,2.47 3.45,3.24 5.09,3.24 3.48,0 5.3,-2.72 5.3,-5.54 0,-3.04 -2.16,-5.45 -3.28,-6.7 l -8.4,-8.3 c -0.35,-0.31 -0.35,-0.38 -0.35,-1.36 h 14.36 z"
           inkscape:connector-curvature="0"
           style="fill:#000000;stroke-width:0.7523011;stroke-miterlimit:4;stroke-dasharray:none" /><path
           id="path4173"
           d="m 628.91,393.15 0,0.01 0,0 0.01,0 0,0.01 0,0.01 0,0 0,0.01 0.01,0 0,0.02 0.01,0.02 0,0.02 0.01,0.01 0,0.02 0.01,0.03 0,0.02 0.01,0.02 0.01,0.02 0,0.03 0.01,0.04 0.01,0.05 0.01,0.03 0.01,0.02 0,0.02 0.01,0.02 0,0.02 0,0.02 0.01,0.02 0,0.01 0,0.01 0,0.01 0.01,0 0,0.01 0,0.01 0,0 0,0.01 0,0 0,0 0,0.01 0,0 0,0 c 0,0.18 -0.14,0.49 -0.56,0.49 -0.7,0 -3.59,-0.28 -4.46,-0.35 -0.28,-0.03 -0.77,-0.07 -0.77,-0.8 0,-0.49 0.49,-0.49 0.91,-0.49 1.67,0 1.67,-0.24 1.67,-0.52 0,-0.25 -0.07,-0.46 -0.14,-0.77 l -1.98,-7.95 c -0.74,1.15 -1.92,2.06 -3.6,2.06 v -0.98 c 2.44,0 3.11,-2.65 3.11,-3.03 0,-0.14 -0.07,-0.39 -0.11,-0.49 l -1.64,-6.52 c -0.24,-0.98 -1.01,-1.68 -1.78,-2.34 -0.31,-0.28 -1.7,-1.39 -3.2,-1.39 -1.29,0 -2.55,0.91 -2.55,3.38 0,1.85 1.01,5.69 1.82,7.08 1.6,2.79 3.38,3.31 4.35,3.31 v 0.98 c -4.46,0 -8.99,-4.92 -8.99,-9.94 0,-3.38 2.27,-5.79 5.26,-5.79 1.88,0 3.56,1.08 4.95,2.44 0.67,-2.09 2.69,-2.44 3.59,-2.44 1.26,0 2.13,0.77 2.76,1.85 0.77,1.36 1.22,3.35 1.22,3.48 0,0.46 -0.45,0.46 -0.56,0.46 -0.49,0 -0.52,-0.14 -0.76,-1.08 -0.42,-1.68 -1.09,-3.73 -2.55,-3.73 -0.91,0 -1.15,0.76 -1.15,1.71 0,0.66 0.07,0.97 0.17,1.43 z"
           inkscape:connector-curvature="0"
           style="fill:#000000;stroke-width:0.7523011;stroke-miterlimit:4;stroke-dasharray:none" /><polyline
           id="polyline4175"
           points="590,361 630.68,361 630.68,363.04 590,363.04 "
           style="fill:#000000;fill-rule:nonzero;stroke-width:0.7523011;stroke-miterlimit:4;stroke-dasharray:none" /><path
           id="path4177"
           d="m 613.34,344.12 0.02,0.1 0.03,0.09 0.02,0.1 0.03,0.1 0.03,0.1 0.02,0.11 0.06,0.21 0.05,0.22 0.06,0.22 0.05,0.22 0.03,0.11 0.02,0.11 0.03,0.1 0.02,0.1 0.03,0.1 0.02,0.09 0.02,0.09 0.02,0.09 0.02,0.08 0.01,0.08 0.02,0.07 0.01,0.06 0.02,0.06 0.01,0.05 0,0.05 0.01,0.03 0,0.02 0,0.01 0,0.01 0,0.01 c 0,0.7 -0.55,1.12 -1.15,1.12 -0.66,0 -1.29,-0.42 -1.5,-1.01 -0.1,-0.28 -0.45,-1.75 -0.69,-2.62 -0.49,-1.99 -0.49,-2.06 -1.01,-4.01 -0.46,-1.92 -0.53,-2.19 -0.56,-3.21 0.14,-0.69 -0.14,-1.36 -0.98,-2.4 -0.45,-0.56 -1.15,-1.15 -2.34,-1.15 -1.36,0 -3.13,0.49 -3.13,3.21 0,1.77 0.97,4.36 1.67,6.13 0.59,1.54 0.73,1.85 0.73,2.44 0,1.68 -1.43,2.97 -3.31,2.97 -3.52,0 -5.09,-4.74 -5.09,-5.34 0,-0.45 0.49,-0.45 0.59,-0.45 0.49,0 0.52,0.17 0.63,0.56 0.87,2.89 2.37,4.25 3.76,4.25 0.6,0 0.88,-0.38 0.88,-1.22 0,-0.8 -0.32,-1.57 -0.49,-2.02 -1.99,-5.09 -1.99,-5.79 -1.99,-6.87 0,-4.11 3.73,-4.64 5.62,-4.64 0.66,0 2.37,0 3.93,2.34 0.81,-1.57 2.73,-2.34 4.85,-2.34 3.11,0 4.64,2.69 5.34,4.12 1.5,2.93 2.44,7.28 2.44,8.89 0,2.61 -1.5,2.75 -1.75,2.75 -0.9,0 -1.88,-0.94 -1.88,-1.85 0,-0.59 0.35,-0.87 0.59,-1.08 0.84,-0.69 1.29,-1.67 1.29,-2.78 0,-0.46 -1.46,-9.07 -5.89,-9.07 -2.82,0 -2.82,2.51 -2.82,3.1 0,0.94 0.14,1.5 0.62,3.49 z"
           inkscape:connector-curvature="0"
           style="fill:#000000;stroke-width:0.7523011;stroke-miterlimit:4;stroke-dasharray:none" /><path
           id="path4179"
           d="m 655.48,368.63 -0.13,-0.01 -0.13,-0.01 -0.12,-0.02 -0.13,-0.03 -0.12,-0.03 -0.11,-0.03 -0.11,-0.04 -0.12,-0.05 -0.1,-0.05 -0.11,-0.05 -0.1,-0.06 -0.09,-0.06 -0.1,-0.07 -0.08,-0.07 -0.09,-0.07 -0.08,-0.08 -0.08,-0.08 -0.07,-0.08 -0.07,-0.09 -0.07,-0.08 -0.06,-0.09 -0.05,-0.1 -0.05,-0.09 -0.05,-0.1 -0.04,-0.09 -0.03,-0.1 -0.03,-0.1 -0.03,-0.1 -0.02,-0.11 -0.01,-0.1 -0.01,-0.1 0,-0.1 c 0,-0.7 0.44,-1.44 1.54,-1.44 1.1,0 2.29,0.84 2.29,2.78 0,2.25 -2.14,4.29 -5.93,4.29 -6.57,0 -8.42,-5.08 -8.42,-7.27 0,-3.89 3.69,-4.64 5.14,-4.94 2.59,-0.49 5.18,-1.04 5.18,-3.78 0,-1.3 -1.15,-5.48 -7.13,-5.48 -0.69,0 -4.53,0 -5.67,2.64 1.89,-0.25 3.13,1.24 3.13,2.64 0,1.14 -0.79,1.74 -1.84,1.74 -1.29,0 -2.79,-1.04 -2.79,-3.28 0,-2.84 2.84,-4.84 7.13,-4.84 8.06,0 10.01,6.03 10.01,8.27 0,1.8 -0.95,3.04 -1.55,3.64 -1.34,1.39 -2.79,1.64 -4.98,2.09 -1.79,0.4 -3.79,0.75 -3.79,2.99 0,1.44 1.2,4.48 5.58,4.48 1.25,0 3.74,-0.35 4.49,-2.29 z"
           inkscape:connector-curvature="0"
           style="fill:#000000;stroke-width:0.7523011;stroke-miterlimit:4;stroke-dasharray:none" /><path
           id="path4181"
           d="m 691.38,361.46 h 13.89 c 0.7,0 1.64,0 1.64,0.99 0,1 -0.94,1 -1.64,1 h -13.89 v 13.95 c 0,0.69 0,1.64 -1,1.64 -1,0 -1,-0.95 -1,-1.64 v -13.95 h -13.95 c -0.7,0 -1.64,0 -1.64,-1 0,-0.99 0.94,-0.99 1.64,-0.99 h 13.95 v -13.95 c 0,-0.7 0,-1.64 1,-1.64 1,0 1,0.94 1,1.64 z"
           inkscape:connector-curvature="0"
           style="fill:#000000;stroke-width:0.7523011;stroke-miterlimit:4;stroke-dasharray:none" /><path
           id="path4183"
           d="m 734.65,381.88 0,0.05 -0.01,0.06 0,0.05 0,0.05 0,0.05 0,0.05 0,0.04 0,0.05 0,0.04 0,0.04 0,0.04 0,0.04 0,0.04 -0.01,0.04 0,0.03 0,0.04 -0.01,0.03 0,0.03 -0.01,0.06 -0.01,0.05 -0.02,0.05 -0.01,0.05 -0.02,0.04 -0.02,0.04 -0.03,0.04 -0.03,0.03 -0.03,0.02 -0.03,0.03 -0.04,0.02 -0.05,0.02 -0.02,0.01 -0.03,0.01 -0.02,0 -0.03,0.01 -0.03,0.01 -0.03,0 -0.03,0.01 -0.03,0 -0.03,0.01 -0.04,0 -0.04,0 -0.03,0 -0.04,0.01 -0.04,0 -0.04,0 -0.05,0 -0.04,0 -0.05,0 -0.05,0.01 -0.05,0 -0.05,0 -0.05,0 c -3.09,-3.19 -7.47,-3.19 -9.07,-3.19 v -1.55 c 1,0 3.94,0 6.53,1.3 v -25.81 c 0,-1.79 -0.15,-2.39 -4.63,-2.39 h -1.6 V 350 h 16.14 v 1.54 h -1.59 c -4.49,0 -4.63,0.55 -4.63,2.39 z"
           inkscape:connector-curvature="0"
           style="fill:#000000;stroke-width:0.7523011;stroke-miterlimit:4;stroke-dasharray:none" /></g>    </g>
  </g>
</svg>
