<?xml version="1.0" encoding="UTF-8" standalone="no"?>
<!-- Created with Inkscape (http://www.inkscape.org/) -->

<svg
   xmlns:dc="http://purl.org/dc/elements/1.1/"
   xmlns:cc="http://creativecommons.org/ns#"
   xmlns:rdf="http://www.w3.org/1999/02/22-rdf-syntax-ns#"
   xmlns:svg="http://www.w3.org/2000/svg"
   xmlns="http://www.w3.org/2000/svg"
   xmlns:sodipodi="http://sodipodi.sourceforge.net/DTD/sodipodi-0.dtd"
   xmlns:inkscape="http://www.inkscape.org/namespaces/inkscape"
   width="25"
   height="25"
   id="svg3464"
   sodipodi:version="0.32"
   inkscape:version="0.48.0 r9654"
   version="1.0"
   sodipodi:docname="power.svg"
   inkscape:output_extension="org.inkscape.output.svg.inkscape">
  <sodipodi:namedview
     id="base"
     pagecolor="#ffffff"
     bordercolor="#666666"
     borderopacity="1.0"
     gridtolerance="10000"
     guidetolerance="10"
     objecttolerance="10"
     inkscape:pageopacity="0.0"
     inkscape:pageshadow="2"
     inkscape:zoom="18.867875"
     inkscape:cx="18.968121"
     inkscape:cy="17.226486"
     inkscape:document-units="px"
     inkscape:current-layer="text2989"
     showgrid="false"
     inkscape:window-width="1276"
     inkscape:window-height="774"
     inkscape:window-x="0"
     inkscape:window-y="68"
     inkscape:window-maximized="0" />
  <defs
     id="defs3466">
    <inkscape:perspective
       sodipodi:type="inkscape:persp3d"
       inkscape:vp_x="0 : 526.18109 : 1"
       inkscape:vp_y="0 : 1000 : 0"
       inkscape:vp_z="744.09448 : 526.18109 : 1"
       inkscape:persp3d-origin="372.04724 : 350.78739 : 1"
       id="perspective3472" />
    <inkscape:perspective
       id="perspective3638"
       inkscape:persp3d-origin="0.5 : 0.33333333 : 1"
       inkscape:vp_z="1 : 0.5 : 1"
       inkscape:vp_y="0 : 1000 : 0"
       inkscape:vp_x="0 : 0.5 : 1"
       sodipodi:type="inkscape:persp3d" />
  </defs>
  <metadata
     id="metadata3469">
    <rdf:RDF>
      <cc:Work
         rdf:about="">
        <dc:format>image/svg+xml</dc:format>
        <dc:type
           rdf:resource="http://purl.org/dc/dcmitype/StillImage" />
      </cc:Work>
    </rdf:RDF>
  </metadata>
  <g
     inkscape:label="Layer 1"
     inkscape:groupmode="layer"
     id="layer1"
     transform="translate(-221.51094,-603.1616)">
    <path
       sodipodi:type="arc"
       style="fill:#ffffff;fill-opacity:1;stroke:#000000;stroke-width:11.05590153;stroke-linecap:square;stroke-miterlimit:3;stroke-opacity:1;stroke-dasharray:none"
       id="path2395"
       sodipodi:cx="155"
       sodipodi:cy="513.07648"
       sodipodi:rx="63.57143"
       sodipodi:ry="63.57143"
       d="m 218.57143,513.07648 c 0,35.10953 -28.4619,63.57143 -63.57143,63.57143 -35.10953,0 -63.57143,-28.4619 -63.57143,-63.57143 0,-35.10953 28.4619,-63.57143 63.57143,-63.57143 35.10953,0 63.57143,28.4619 63.57143,63.57143 z"
       transform="matrix(-0.1808989,0,0,-0.1808989,262.05027,708.47657)" />
    <g
       style="font-size:14px;font-style:normal;font-variant:normal;font-weight:normal;font-stretch:normal;line-height:125%;letter-spacing:0px;word-spacing:0px;fill:#000000;fill-opacity:1;stroke:none;font-family:Calibri;-inkscape-font-specification:Calibri"
       id="text2989">
      <g
         style="line-height:125%;fill:#000000;font-family:Times New Roman;-inkscape-font-specification:Times New Roman"
         id="text2988">
        <path
           d="m 234.4626,620.29675 c -1e-5,0.0456 -0.0114,0.0855 -0.0342,0.11963 -0.0228,0.0342 -0.0627,0.0627 -0.11963,0.0855 -0.057,0.0228 -0.13217,0.0399 -0.22558,0.0513 -0.0934,0.0114 -0.21078,0.0171 -0.35205,0.0171 -0.1504,0 -0.27231,-0.006 -0.36573,-0.0171 -0.0934,-0.0114 -0.16748,-0.0285 -0.22217,-0.0513 -0.0547,-0.0228 -0.0934,-0.0513 -0.11621,-0.0855 -0.0228,-0.0342 -0.0342,-0.0741 -0.0342,-0.11963 l 0,-0.7041 c -0.33724,0.36459 -0.68018,0.63802 -1.0288,0.82031 -0.34864,0.1823 -0.70981,0.27344 -1.0835,0.27344 -0.41927,0 -0.77132,-0.0684 -1.05615,-0.20508 -0.28484,-0.13672 -0.51498,-0.32356 -0.69043,-0.56054 -0.17546,-0.23698 -0.30078,-0.51156 -0.37598,-0.82373 -0.0752,-0.31218 -0.11279,-0.70069 -0.11279,-1.16553 l 0,-3.73242 c 0,-0.0456 0.0125,-0.0855 0.0376,-0.11963 0.0251,-0.0342 0.0706,-0.0627 0.13671,-0.0855 0.0661,-0.0228 0.15495,-0.0399 0.26661,-0.0513 0.11165,-0.0114 0.24951,-0.0171 0.41357,-0.0171 0.16862,10e-6 0.30762,0.006 0.41699,0.0171 0.10938,0.0114 0.1971,0.0285 0.26319,0.0513 0.0661,0.0228 0.11279,0.0513 0.14013,0.0855 0.0273,0.0342 0.041,0.0741 0.041,0.11963 l 0,3.44531 c 0,0.31901 0.0205,0.56283 0.0615,0.73144 0.041,0.16863 0.10368,0.31332 0.18799,0.43409 0.0843,0.12077 0.1914,0.21419 0.32129,0.28027 0.12988,0.0661 0.28141,0.0991 0.45459,0.0991 0.21875,0 0.43863,-0.0797 0.65967,-0.23926 0.22102,-0.1595 0.45686,-0.39192 0.70752,-0.69726 l 0,-4.05371 c -1e-5,-0.0456 0.0125,-0.0855 0.0376,-0.11963 0.0251,-0.0342 0.0706,-0.0627 0.13672,-0.0855 0.0661,-0.0228 0.15381,-0.0399 0.26319,-0.0513 0.10937,-0.0114 0.24836,-0.0171 0.41699,-0.0171 0.16861,10e-6 0.30761,0.006 0.41699,0.0171 0.10937,0.0114 0.19596,0.0285 0.25977,0.0513 0.0638,0.0228 0.10936,0.0513 0.13672,0.0855 0.0273,0.0342 0.041,0.0741 0.041,0.11963 z"
           style="font-weight:bold;font-family:Calibri;-inkscape-font-specification:Calibri Bold"
           id="path2995" />
        <path
           d="m 239.34112,614.69812 c 0.0237,0.0504 0.0348,0.0918 0.0333,0.12441 -0.001,0.0326 -0.023,0.0593 -0.0644,0.08 -0.0415,0.0207 -0.10516,0.0348 -0.19107,0.0422 -0.0859,0.007 -0.19995,0.0111 -0.34214,0.0111 -0.13331,0 -0.24069,-0.002 -0.32215,-0.007 -0.0815,-0.004 -0.14515,-0.0133 -0.19107,-0.0267 -0.0459,-0.0133 -0.08,-0.0296 -0.10219,-0.0489 -0.0222,-0.0193 -0.0393,-0.0437 -0.0511,-0.0733 l -0.73317,-1.40857 -0.73316,1.40857 c -0.0119,0.0296 -0.0281,0.0541 -0.0489,0.0733 -0.0207,0.0193 -0.0526,0.0355 -0.0955,0.0489 -0.043,0.0133 -0.10294,0.0222 -0.17996,0.0267 -0.077,0.004 -0.17774,0.007 -0.30216,0.007 -0.13034,0 -0.23402,-0.004 -0.31104,-0.0111 -0.077,-0.007 -0.1333,-0.0215 -0.16885,-0.0422 -0.0355,-0.0207 -0.0541,-0.0474 -0.0555,-0.08 -0.001,-0.0326 0.0111,-0.0741 0.0378,-0.12441 l 1.09753,-1.95067 -1.0131,-1.83069 c -0.0267,-0.0533 -0.0407,-0.0985 -0.0422,-0.13552 -0.001,-0.037 0.017,-0.0659 0.0555,-0.0867 0.0385,-0.0207 0.1,-0.0355 0.1844,-0.0444 0.0844,-0.009 0.19921,-0.0133 0.34436,-0.0133 0.13034,0 0.23476,0.002 0.31326,0.007 0.0785,0.004 0.13997,0.0111 0.18441,0.02 0.0444,0.009 0.077,0.023 0.0977,0.0422 0.0207,0.0193 0.0385,0.0437 0.0533,0.0733 l 0.70651,1.32414 0.70206,-1.32414 c 0.009,-0.0237 0.0222,-0.0444 0.04,-0.0622 0.0178,-0.0178 0.0459,-0.0326 0.0844,-0.0444 0.0385,-0.0118 0.0911,-0.0207 0.15775,-0.0267 0.0666,-0.006 0.15773,-0.009 0.27327,-0.009 0.13033,0 0.23475,0.003 0.31326,0.009 0.0785,0.006 0.13478,0.0193 0.16885,0.04 0.0341,0.0207 0.0504,0.0496 0.0489,0.0866 -0.001,0.037 -0.0185,0.0852 -0.0511,0.14441 l -0.98644,1.79959 z"
           style="font-size:65.00091553%;baseline-shift:super"
           id="path2997" />
      </g>
    </g>
  </g>
</svg>
