<?xml version="1.0" encoding="UTF-8" standalone="no"?>
<!-- Created with Inkscape (http://www.inkscape.org/) -->

<svg
   xmlns:dc="http://purl.org/dc/elements/1.1/"
   xmlns:cc="http://creativecommons.org/ns#"
   xmlns:rdf="http://www.w3.org/1999/02/22-rdf-syntax-ns#"
   xmlns:svg="http://www.w3.org/2000/svg"
   xmlns="http://www.w3.org/2000/svg"
   xmlns:sodipodi="http://sodipodi.sourceforge.net/DTD/sodipodi-0.dtd"
   xmlns:inkscape="http://www.inkscape.org/namespaces/inkscape"
   width="25.000004"
   height="25.000004"
   id="svg3207"
   sodipodi:version="0.32"
   inkscape:version="0.48.1 r9760"
   version="1.0"
   sodipodi:docname="sum.svg"
   inkscape:output_extension="org.inkscape.output.svg.inkscape">
  <sodipodi:namedview
     id="base"
     pagecolor="#ffffff"
     bordercolor="#666666"
     borderopacity="1.0"
     gridtolerance="10000"
     guidetolerance="10"
     objecttolerance="10"
     inkscape:pageopacity="0.0"
     inkscape:pageshadow="2"
     inkscape:zoom="11.2"
     inkscape:cx="-4.2146109"
     inkscape:cy="19.772213"
     inkscape:document-units="px"
     inkscape:current-layer="layer1"
     showgrid="false"
     inkscape:window-width="1600"
     inkscape:window-height="1126"
     inkscape:window-x="0"
     inkscape:window-y="25"
     inkscape:window-maximized="1" />
  <defs
     id="defs3209" />
  <metadata
     id="metadata3212">
    <rdf:RDF>
      <cc:Work
         rdf:about="">
        <dc:format>image/svg+xml</dc:format>
        <dc:type
           rdf:resource="http://purl.org/dc/dcmitype/StillImage" />
      </cc:Work>
    </rdf:RDF>
  </metadata>
  <g
     transform="translate(-513.99099,-160.46754)"
     id="layer1"
     inkscape:groupmode="layer"
     inkscape:label="Layer 1">
    <path
       transform="matrix(-0.1808989,0,0,-0.1808989,554.53032,265.78251)"
       d="m 218.57143,513.07648 c 0,35.10953 -28.4619,63.57143 -63.57143,63.57143 -35.10953,0 -63.57143,-28.4619 -63.57143,-63.57143 0,-35.10953 28.4619,-63.57143 63.57143,-63.57143 35.10953,0 63.57143,28.4619 63.57143,63.57143 z"
       sodipodi:ry="63.57143"
       sodipodi:rx="63.57143"
       sodipodi:cy="513.07648"
       sodipodi:cx="155"
       id="path2395"
       style="fill:#ffffff;fill-opacity:1;stroke:#000000;stroke-width:11.05590153000000000;stroke-linecap:square;stroke-miterlimit:3;stroke-dasharray:none;stroke-opacity:1"
       sodipodi:type="arc" />
    <g
       id="g2997"
       transform="matrix(4.8725388,0,0,4.8725388,471.33733,154.02206)">
      <g
         word-spacing="normal"
         letter-spacing="normal"
         font-size-adjust="none"
         font-stretch="normal"
         font-weight="normal"
         font-variant="normal"
         font-style="normal"
         stroke-miterlimit="10.433"
         xml:space="preserve"
         transform="matrix(0.03571429,0,0,-0.03571429,-6.250001,18.750003)"
         id="content"
         style="font-style:normal;font-variant:normal;font-weight:normal;font-stretch:normal;letter-spacing:normal;word-spacing:normal;text-anchor:start;fill:none;stroke:#000000;stroke-linecap:butt;stroke-linejoin:miter;stroke-miterlimit:10.43299961;stroke-opacity:1;stroke-dasharray:none;stroke-dashoffset:0"><path
           id="path3000"
           d="m 519.06,381.26 6.03,15.94 h -1.25 c -1.94,-5.18 -7.22,-8.57 -12.95,-10.06 -1.04,-0.25 -5.93,-1.55 -15.49,-1.55 h -30.04 l 25.36,29.74 c 0.35,0.4 0.45,0.55 0.45,0.8 0,0.1 0,0.25 -0.35,0.75 l -23.21,31.73 h 27.29 c 6.68,0 11.21,-0.7 11.66,-0.8 2.69,-0.4 7.03,-1.24 10.96,-3.74 1.25,-0.79 4.63,-3.03 6.32,-7.07 h 1.25 l -6.03,14 h -58.88 c -1.14,0 -1.19,-0.05 -1.34,-0.35 -0.05,-0.15 -0.05,-1.1 -0.05,-1.64 l 26.35,-36.07 -25.8,-30.23 c -0.5,-0.6 -0.5,-0.85 -0.5,-0.9 0,-0.55 0.45,-0.55 1.34,-0.55 z"
           inkscape:connector-curvature="0"
           style="fill:#000000;stroke-width:0" /></g>    </g>
  </g>
</svg>
