<?xml version="1.0" encoding="UTF-8" standalone="no"?>
<!-- Created with Inkscape (http://www.inkscape.org/) -->

<svg
   xmlns:dc="http://purl.org/dc/elements/1.1/"
   xmlns:cc="http://creativecommons.org/ns#"
   xmlns:rdf="http://www.w3.org/1999/02/22-rdf-syntax-ns#"
   xmlns:svg="http://www.w3.org/2000/svg"
   xmlns="http://www.w3.org/2000/svg"
   xmlns:sodipodi="http://sodipodi.sourceforge.net/DTD/sodipodi-0.dtd"
   xmlns:inkscape="http://www.inkscape.org/namespaces/inkscape"
   width="25.000004"
   height="25.000004"
   id="svg3207"
   sodipodi:version="0.32"
   inkscape:version="0.48.0 r9654"
   version="1.0"
   sodipodi:docname="sum.svg"
   inkscape:output_extension="org.inkscape.output.svg.inkscape">
  <sodipodi:namedview
     id="base"
     pagecolor="#ffffff"
     bordercolor="#666666"
     borderopacity="1.0"
     gridtolerance="10000"
     guidetolerance="10"
     objecttolerance="10"
     inkscape:pageopacity="0.0"
     inkscape:pageshadow="2"
     inkscape:zoom="4.2614232"
     inkscape:cx="-46.094649"
     inkscape:cy="3.0779424"
     inkscape:document-units="px"
     inkscape:current-layer="layer1"
     showgrid="false"
     inkscape:window-width="1280"
     inkscape:window-height="732"
     inkscape:window-x="-8"
     inkscape:window-y="38"
     inkscape:window-maximized="1" />
  <defs
     id="defs3209" />
  <metadata
     id="metadata3212">
    <rdf:RDF>
      <cc:Work
         rdf:about="">
        <dc:format>image/svg+xml</dc:format>
        <dc:type
           rdf:resource="http://purl.org/dc/dcmitype/StillImage" />
      </cc:Work>
    </rdf:RDF>
  </metadata>
  <g
     transform="translate(-513.99099,-160.46754)"
     id="layer1"
     inkscape:groupmode="layer"
     inkscape:label="Layer 1">
    <path
       transform="matrix(-0.1808989,0,0,-0.1808989,554.53032,265.78251)"
       d="m 218.57143,513.07648 c 0,35.10953 -28.4619,63.57143 -63.57143,63.57143 -35.10953,0 -63.57143,-28.4619 -63.57143,-63.57143 0,-35.10953 28.4619,-63.57143 63.57143,-63.57143 35.10953,0 63.57143,28.4619 63.57143,63.57143 z"
       sodipodi:ry="63.57143"
       sodipodi:rx="63.57143"
       sodipodi:cy="513.07648"
       sodipodi:cx="155"
       id="path2395"
       style="fill:#ffffff;fill-opacity:1;stroke:#000000;stroke-width:11.05590153000000000;stroke-linecap:square;stroke-miterlimit:3;stroke-dasharray:none;stroke-opacity:1"
       sodipodi:type="arc" />
    <text
       xml:space="preserve"
       style="font-size:30px;font-style:normal;font-variant:normal;font-weight:normal;font-stretch:normal;line-height:125%;letter-spacing:0px;word-spacing:0px;fill:#000000;fill-opacity:1;stroke:none;font-family:Calibri;-inkscape-font-specification:Calibri"
       x="-18.335493"
       y="13.467725"
       id="text2986"
       sodipodi:linespacing="125%"
       transform="translate(513.99099,160.46754)"><tspan
         sodipodi:role="line"
         id="tspan2988"
         x="-18.335493"
         y="13.467725" /></text>
    <g
       style="font-size:22px;font-style:normal;font-variant:normal;font-weight:normal;font-stretch:normal;line-height:125%;letter-spacing:0px;word-spacing:0px;fill:#000000;fill-opacity:1;stroke:none;font-family:Cambria Math;-inkscape-font-specification:Cambria Math"
       id="text2990">
      <path
         d="m 524.17065,166.62428 3.68457,5.56446 0,0.63379 -4.13574,5.7041 4.86621,0 c 0.62304,0 1.07421,-0.13965 1.35352,-0.41895 0.27929,-0.27929 0.50845,-0.91308 0.6875,-1.90137 l 1.07422,0 -0.23633,4.09278 -10.18359,0 0,-0.52637 4.8125,-6.61719 -4.51172,-6.99316 0,-0.52637 9.92578,0 0,3.74903 -1.00977,0 c -0.29363,-1.15299 -0.5962,-1.90136 -0.90771,-2.24512 -0.31153,-0.34374 -0.76092,-0.51561 -1.34815,-0.51563 z"
         style="font-family:Cambria Math;-inkscape-font-specification:Cambria Math"
         id="path2995" />
    </g>
  </g>
</svg>
