<?xml version="1.0" encoding="UTF-8" standalone="no"?>
<!-- Created with Inkscape (http://www.inkscape.org/) -->
<svg
   xmlns:dc="http://purl.org/dc/elements/1.1/"
   xmlns:cc="http://creativecommons.org/ns#"
   xmlns:rdf="http://www.w3.org/1999/02/22-rdf-syntax-ns#"
   xmlns:svg="http://www.w3.org/2000/svg"
   xmlns="http://www.w3.org/2000/svg"
   xmlns:xlink="http://www.w3.org/1999/xlink"
   xmlns:sodipodi="http://sodipodi.sourceforge.net/DTD/sodipodi-0.dtd"
   xmlns:inkscape="http://www.inkscape.org/namespaces/inkscape"
   id="svg2816"
   version="1.1"
   inkscape:version="0.46"
   width="640"
   height="340"
   sodipodi:docname="splash2.svg"
   enable-background="new"
   inkscape:export-filename="C:\Users\Robert\Documents\Jobbsaker\Subversion\Hopsan\trunk\HOPSAN++\Hopsangui\splash.png"
   inkscape:export-xdpi="90"
   inkscape:export-ydpi="90"
   sodipodi:version="0.32"
   inkscape:output_extension="org.inkscape.output.svg.inkscape">
  <metadata
     id="metadata2822">
    <rdf:RDF>
      <cc:Work
         rdf:about="">
        <dc:format>image/svg+xml</dc:format>
        <dc:type
           rdf:resource="http://purl.org/dc/dcmitype/StillImage" />
        <dc:title />
      </cc:Work>
    </rdf:RDF>
  </metadata>
  <defs
     id="defs2820">
    <linearGradient
       id="linearGradient3602">
      <stop
         style="stop-color:#6397ba;stop-opacity:0.82352942;"
         offset="0"
         id="stop3604" />
      <stop
         style="stop-color:#d6fff5;stop-opacity:0.74509805;"
         offset="1"
         id="stop3606" />
    </linearGradient>
    <inkscape:perspective
       sodipodi:type="inkscape:persp3d"
       inkscape:vp_x="0 : 0.5 : 1"
       inkscape:vp_y="0 : 1000 : 0"
       inkscape:vp_z="1 : 0.5 : 1"
       inkscape:persp3d-origin="0.5 : 0.33333333 : 1"
       id="perspective2824" />
    <linearGradient
       inkscape:collect="always"
       xlink:href="#linearGradient3602"
       id="linearGradient3608"
       x1="284.41525"
       y1="446.73306"
       x2="637.77972"
       y2="165.19067"
       gradientUnits="userSpaceOnUse"
       gradientTransform="matrix(1,0,0,0.97808339,0,8.4297305)" />
    <inkscape:perspective
       id="perspective3630"
       inkscape:persp3d-origin="0.5 : 0.33333333 : 1"
       inkscape:vp_z="1 : 0.5 : 1"
       inkscape:vp_y="0 : 1000 : 0"
       inkscape:vp_x="0 : 0.5 : 1"
       sodipodi:type="inkscape:persp3d" />
    <inkscape:perspective
       id="perspective3644"
       inkscape:persp3d-origin="0.5 : 0.33333333 : 1"
       inkscape:vp_z="1 : 0.5 : 1"
       inkscape:vp_y="0 : 1000 : 0"
       inkscape:vp_x="0 : 0.5 : 1"
       sodipodi:type="inkscape:persp3d" />
    <inkscape:perspective
       id="perspective3658"
       inkscape:persp3d-origin="0.5 : 0.33333333 : 1"
       inkscape:vp_z="1 : 0.5 : 1"
       inkscape:vp_y="0 : 1000 : 0"
       inkscape:vp_x="0 : 0.5 : 1"
       sodipodi:type="inkscape:persp3d" />
    <filter
       id="filter3870"
       inkscape:label="Cross-smooth"
       inkscape:menu="Blurs"
       inkscape:menu-tooltip="Blur inner borders and intersections"
       color-interpolation-filters="sRGB">
      <feGaussianBlur
         id="feGaussianBlur3872"
         stdDeviation="3" />
      <feColorMatrix
         id="feColorMatrix3874"
         result="fbSourceGraphic"
         values="1 0 0 0 0 0 1 0 0 0 0 0 1 0 0 0 0 0 6 -2.5 " />
    </filter>
    <inkscape:perspective
       id="perspective3894"
       inkscape:persp3d-origin="0.5 : 0.33333333 : 1"
       inkscape:vp_z="1 : 0.5 : 1"
       inkscape:vp_y="0 : 1000 : 0"
       inkscape:vp_x="0 : 0.5 : 1"
       sodipodi:type="inkscape:persp3d" />
    <filter
       id="filter3870-3"
       inkscape:label="Cross-smooth"
       inkscape:menu="Blurs"
       inkscape:menu-tooltip="Blur inner borders and intersections"
       color-interpolation-filters="sRGB">
      <feGaussianBlur
         id="feGaussianBlur3872-1"
         stdDeviation="3" />
      <feColorMatrix
         id="feColorMatrix3874-6"
         result="fbSourceGraphic"
         values="1 0 0 0 0 0 1 0 0 0 0 0 1 0 0 0 0 0 6 -2.5 " />
    </filter>
    <inkscape:perspective
       id="perspective3925"
       inkscape:persp3d-origin="0.5 : 0.33333333 : 1"
       inkscape:vp_z="1 : 0.5 : 1"
       inkscape:vp_y="0 : 1000 : 0"
       inkscape:vp_x="0 : 0.5 : 1"
       sodipodi:type="inkscape:persp3d" />
    <filter
       id="filter3870-3-8"
       inkscape:label="Cross-smooth"
       inkscape:menu="Blurs"
       inkscape:menu-tooltip="Blur inner borders and intersections"
       color-interpolation-filters="sRGB">
      <feGaussianBlur
         id="feGaussianBlur3872-1-8"
         stdDeviation="3" />
      <feColorMatrix
         id="feColorMatrix3874-6-2"
         result="fbSourceGraphic"
         values="1 0 0 0 0 0 1 0 0 0 0 0 1 0 0 0 0 0 6 -2.5 " />
    </filter>
    <inkscape:perspective
       id="perspective3956"
       inkscape:persp3d-origin="0.5 : 0.33333333 : 1"
       inkscape:vp_z="1 : 0.5 : 1"
       inkscape:vp_y="0 : 1000 : 0"
       inkscape:vp_x="0 : 0.5 : 1"
       sodipodi:type="inkscape:persp3d" />
    <linearGradient
       inkscape:collect="always"
       xlink:href="#linearGradient3602-7"
       id="linearGradient3608-7"
       x1="284.41525"
       y1="446.73306"
       x2="637.77972"
       y2="165.19067"
       gradientUnits="userSpaceOnUse"
       gradientTransform="matrix(1,0,0,0.97808339,0,8.4297305)" />
    <linearGradient
       id="linearGradient3602-7">
      <stop
         style="stop-color:#6397ba;stop-opacity:0.82352942;"
         offset="0"
         id="stop3604-1" />
      <stop
         style="stop-color:#d6fff5;stop-opacity:0.74509805;"
         offset="1"
         id="stop3606-2" />
    </linearGradient>
    <linearGradient
       y2="165.19067"
       x2="637.77972"
       y1="446.73306"
       x1="284.41525"
       gradientTransform="matrix(1.0034813,0,0,0.97808339,-1.3429401e-5,8.4297473)"
       gradientUnits="userSpaceOnUse"
       id="linearGradient3971"
       xlink:href="#linearGradient3602-7"
       inkscape:collect="always" />
    <inkscape:perspective
       id="perspective4028"
       inkscape:persp3d-origin="0.5 : 0.33333333 : 1"
       inkscape:vp_z="1 : 0.5 : 1"
       inkscape:vp_y="0 : 1000 : 0"
       inkscape:vp_x="0 : 0.5 : 1"
       sodipodi:type="inkscape:persp3d" />
    <inkscape:perspective
       id="perspective4042"
       inkscape:persp3d-origin="0.5 : 0.33333333 : 1"
       inkscape:vp_z="1 : 0.5 : 1"
       inkscape:vp_y="0 : 1000 : 0"
       inkscape:vp_x="0 : 0.5 : 1"
       sodipodi:type="inkscape:persp3d" />
    <inkscape:perspective
       id="perspective4056"
       inkscape:persp3d-origin="0.5 : 0.33333333 : 1"
       inkscape:vp_z="1 : 0.5 : 1"
       inkscape:vp_y="0 : 1000 : 0"
       inkscape:vp_x="0 : 0.5 : 1"
       sodipodi:type="inkscape:persp3d" />
    <inkscape:perspective
       id="perspective4070"
       inkscape:persp3d-origin="0.5 : 0.33333333 : 1"
       inkscape:vp_z="1 : 0.5 : 1"
       inkscape:vp_y="0 : 1000 : 0"
       inkscape:vp_x="0 : 0.5 : 1"
       sodipodi:type="inkscape:persp3d" />
    <filter
       id="filter4076"
       inkscape:label="Cross-smooth"
       inkscape:menu="Blurs"
       inkscape:menu-tooltip="Blur inner borders and intersections"
       color-interpolation-filters="sRGB">
      <feGaussianBlur
         id="feGaussianBlur4078"
         stdDeviation="3" />
      <feColorMatrix
         id="feColorMatrix4080"
         result="fbSourceGraphic"
         values="1 0 0 0 0 0 1 0 0 0 0 0 1 0 0 0 0 0 6 -2.5 " />
    </filter>
    <inkscape:perspective
       id="perspective2916"
       inkscape:persp3d-origin="0.5 : 0.33333333 : 1"
       inkscape:vp_z="1 : 0.5 : 1"
       inkscape:vp_y="0 : 1000 : 0"
       inkscape:vp_x="0 : 0.5 : 1"
       sodipodi:type="inkscape:persp3d" />
    <inkscape:perspective
       id="perspective2945"
       inkscape:persp3d-origin="0.5 : 0.33333333 : 1"
       inkscape:vp_z="1 : 0.5 : 1"
       inkscape:vp_y="0 : 1000 : 0"
       inkscape:vp_x="0 : 0.5 : 1"
       sodipodi:type="inkscape:persp3d" />
    <inkscape:perspective
       id="perspective2544"
       inkscape:persp3d-origin="372.04724 : 350.78739 : 1"
       inkscape:vp_z="744.09448 : 526.18109 : 1"
       inkscape:vp_y="0 : 1000 : 0"
       inkscape:vp_x="0 : 526.18109 : 1"
       sodipodi:type="inkscape:persp3d" />
  </defs>
  <sodipodi:namedview
     pagecolor="#ffffff"
     bordercolor="#666666"
     borderopacity="1"
     objecttolerance="10"
     gridtolerance="10"
     guidetolerance="10"
     inkscape:pageopacity="0"
     inkscape:pageshadow="2"
     inkscape:window-width="1680"
     inkscape:window-height="948"
     id="namedview2818"
     showgrid="false"
     inkscape:zoom="0.98452625"
     inkscape:cx="579.4169"
     inkscape:cy="137.59307"
     inkscape:window-x="-4"
     inkscape:window-y="-4"
     inkscape:window-maximized="1"
     inkscape:current-layer="layer2"
     inkscape:snap-page="true" />
  <g
     inkscape:groupmode="layer"
     id="layer1"
     inkscape:label="Layer"
     style="opacity:0.66228069;display:inline">
    <image
       y="-82.886467"
       x="-14.364407"
       id="image4072"
       height="341.78137"
       width="748.82208"
       xlink:href="file:///C:/Users/Robert/Documents/Jobbsaker/Subversion/Hopsan/trunk/HOPSAN++/HopsanGUI/componentData/hydraulic/volumes/inkscape_pasted_image_20100328_115041.png"
       style="filter:url(#filter4076)" />
  </g>
  <g
     inkscape:groupmode="layer"
     id="layer2"
     inkscape:label="Layer#1"
     style="display:inline">
    <rect
       style="fill:url(#linearGradient3971);fill-opacity:1;stroke:none"
       id="rect2828"
       width="640"
       height="170"
       x="0"
       y="170" />
    <text
       xml:space="preserve"
       style="font-size:80px;font-style:normal;font-weight:normal;fill:#000000;fill-opacity:1;stroke:none;font-family:Bitstream Vera Sans"
       x="27.29237"
       y="169.02345"
       id="text3610"><tspan
         sodipodi:role="line"
         id="tspan3612"
         x="27.29237"
         y="169.02345">HOPSAN </tspan></text>
    <text
       xml:space="preserve"
       style="font-size:40px;font-style:normal;font-weight:normal;fill:#000000;fill-opacity:1;stroke:none;font-family:Bitstream Vera Sans"
       x="537.22876"
       y="169.51173"
       id="text3618"><tspan
         sodipodi:role="line"
         id="tspan3620"
         x="537.22876"
         y="169.51173">0.1.2</tspan></text>
    <g
       id="g3391"
       transform="matrix(0.343057,0,0,0.343057,121.72305,215.65484)">
      <path
         id="path2576"
         style="fill:#2171be;fill-opacity:1;fill-rule:nonzero;stroke:none"
         d="M -294.76121,203.99636 L -294.76121,241.44761 L -276.51746,241.44761 C -272.32996,241.44761 -269.25121,240.56136 -267.30871,238.81136 C -265.36496,237.06136 -264.07871,233.58386 -263.42246,228.38136 L -260.69746,228.38136 L -260.69746,260.60636 L -263.42246,260.60636 C -263.47246,256.91261 -263.97746,254.20261 -264.93621,252.47761 C -265.89496,250.72636 -267.23246,249.43261 -268.94871,248.56886 C -270.63871,247.70511 -273.16246,247.27386 -276.51746,247.27386 L -294.76121,247.27386 L -294.76121,277.19636 C -294.76121,282.01511 -294.45746,285.20511 -293.80121,286.74011 C -293.32246,287.91386 -292.28746,288.92136 -290.69871,289.76136 C -288.52871,290.88761 -286.28246,291.46261 -283.90996,291.46261 L -280.27746,291.46261 L -280.27746,294.05261 L -323.29746,294.05261 L -323.29746,291.46261 L -319.76496,291.46261 C -315.62621,291.46261 -312.59871,290.31261 -310.73246,288.01011 C -309.54621,286.52386 -308.96621,282.90261 -308.96621,277.19636 L -308.96621,215.65011 C -308.96621,210.83011 -309.29371,207.64136 -309.92496,206.10636 C -310.42871,204.93136 -311.43871,203.92511 -312.95246,203.08511 C -315.07121,201.95886 -317.34246,201.40761 -319.76496,201.40761 L -323.29746,201.40761 L -323.29746,198.79386 L -248.71246,198.79386 L -247.75371,219.72511 L -250.35246,219.72511 C -251.61371,215.29011 -253.12746,212.02886 -254.81871,209.94261 C -256.50871,207.85761 -258.60371,206.34636 -261.10121,205.41136 C -263.59871,204.47636 -267.43371,203.99636 -272.65746,203.99636 L -294.76121,203.99636 z M -213.53871,194.16636 L -213.53871,279.52261 C -213.53871,283.55011 -213.21121,286.21261 -212.60496,287.53136 C -211.99996,288.82636 -211.03996,289.83136 -209.75371,290.50386 C -208.46746,291.17511 -206.09496,291.53511 -202.58871,291.53511 L -202.58871,294.05261 L -235.76871,294.05261 L -235.76871,291.53511 C -232.66496,291.53511 -230.54496,291.22386 -229.43496,290.60011 C -228.29996,290.00011 -227.39121,288.99261 -226.76121,287.57886 C -226.12996,286.18761 -225.80121,283.50386 -225.80121,279.52261 L -225.80121,221.06761 C -225.80121,213.80386 -225.97871,209.34261 -226.30621,207.69011 C -226.65996,206.03511 -227.21371,204.88386 -227.97121,204.28511 C -228.75371,203.66136 -229.71246,203.37261 -230.89871,203.37261 C -232.18496,203.37261 -233.79996,203.73261 -235.76871,204.50011 L -237.02996,202.03136 L -216.84496,194.16636 L -213.53871,194.16636 z M -135.39621,229.69886 L -135.39621,268.68511 C -135.39621,276.14136 -135.21996,280.69761 -134.84121,282.35261 C -134.46246,284.03011 -133.88246,285.18136 -133.07496,285.82886 C -132.24246,286.50011 -131.30871,286.81136 -130.22371,286.81136 C -128.68496,286.81136 -126.96871,286.42761 -125.05121,285.61261 L -124.01746,288.08261 L -144.27746,296.01886 L -147.58371,296.01886 L -147.58371,282.40011 C -153.41121,288.39386 -157.85246,292.15886 -160.90496,293.69261 C -163.95871,295.25136 -167.18871,296.01886 -170.56996,296.01886 C -174.37871,296.01886 -177.65996,294.98761 -180.46121,292.90136 C -183.23621,290.81636 -185.17871,288.13011 -186.26371,284.84511 C -187.34871,281.56011 -187.87871,276.93261 -187.87871,270.93886 L -187.87871,242.21511 C -187.87871,239.17011 -188.23121,237.06136 -188.91246,235.88511 C -189.59496,234.71136 -190.62871,233.82386 -191.99121,233.17636 C -193.32871,232.55261 -195.80121,232.26511 -199.33371,232.31261 L -199.33371,229.69886 L -175.61621,229.69886 L -175.61621,272.76136 C -175.61621,278.75511 -174.50496,282.68761 -172.31121,284.55886 C -170.11496,286.45136 -167.46621,287.38636 -164.36246,287.38636 C -162.24246,287.38636 -159.84621,286.74011 -157.17121,285.49386 C -154.47121,284.22261 -151.29246,281.80136 -147.58371,278.25136 L -147.58371,241.78386 C -147.58371,238.13886 -148.28996,235.67011 -149.70246,234.37511 C -151.11621,233.10386 -154.01746,232.40886 -158.45871,232.31261 L -158.45871,229.69886 L -135.39621,229.69886 z M -61.846207,294.05261 L -100.57621,213.89886 L -100.57621,277.55636 C -100.57621,283.40761 -99.919957,287.05136 -98.582457,288.51386 C -96.766207,290.48011 -93.864957,291.46261 -89.928707,291.46261 L -86.396207,291.46261 L -86.396207,294.05261 L -121.26621,294.05261 L -121.26621,291.46261 L -117.73371,291.46261 C -113.49496,291.46261 -110.49246,290.24011 -108.70121,287.79511 C -107.61621,286.30761 -107.08621,282.88011 -107.08621,277.55636 L -107.08621,215.31386 C -107.08621,211.09386 -107.56621,208.04886 -108.54871,206.17886 C -109.25621,204.81261 -110.51746,203.68511 -112.35996,202.77386 C -114.22621,201.86261 -117.17871,201.40761 -121.26621,201.40761 L -121.26621,198.79386 L -92.879957,198.79386 L -56.521207,273.33636 L -20.743707,198.79386 L 7.6425429,198.79386 L 7.6425429,201.40761 L 4.1612929,201.40761 C -0.12745706,201.40761 -3.1562071,202.63011 -4.9212071,205.05261 C -6.0087071,206.56261 -6.5624571,209.96636 -6.5624571,215.31386 L -6.5624571,277.55636 C -6.5624571,283.40761 -5.8562071,287.05136 -4.4687071,288.51386 C -2.6512071,290.48011 0.22504294,291.46261 4.1612929,291.46261 L 7.6425429,291.46261 L 7.6425429,294.05261 L -34.948707,294.05261 L -34.948707,291.46261 L -31.389957,291.46261 C -27.102457,291.46261 -24.098707,290.24011 -22.358707,287.79511 C -21.272457,286.30761 -20.743707,282.88011 -20.743707,277.55636 L -20.743707,213.89886 L -59.397457,294.05261 L -61.846207,294.05261 z M 26.946293,253.93886 C 26.896293,263.50636 29.317543,270.98761 34.262543,276.43011 C 39.183793,281.84886 44.986293,284.55886 51.622543,284.55886 C 56.063793,284.55886 59.923793,283.40761 63.203793,281.08011 C 66.483793,278.78011 69.208793,274.79886 71.430043,269.18886 L 73.725043,270.58011 C 72.691293,277.00511 69.687543,282.85511 64.716293,288.10636 C 59.722543,293.38136 53.488793,296.01886 46.020043,296.01886 C 37.871293,296.01886 30.907543,293.02136 25.130043,287.00386 C 19.325043,280.98511 16.448793,272.88136 16.448793,262.71511 C 16.448793,251.70886 19.402543,243.12761 25.356293,236.98886 C 31.285043,230.82636 38.727543,227.73386 47.711293,227.73386 C 55.306293,227.73386 61.538793,230.10761 66.408793,234.87761 C 71.278793,239.62636 73.725043,245.97886 73.725043,253.93886 L 26.946293,253.93886 z M 26.946293,249.86386 L 58.283793,249.86386 C 58.031293,245.74011 57.526293,242.83886 56.718793,241.16011 C 55.507543,238.54761 53.666293,236.48511 51.218793,234.97511 C 48.771293,233.48886 46.222543,232.72011 43.572543,232.72011 C 39.485043,232.72011 35.827543,234.23136 32.597543,237.25136 C 29.367543,240.27261 27.476293,244.49261 26.946293,249.86386 z M 147.42629,196.63636 L 147.42629,229.58011 L 144.70254,229.58011 C 143.79379,223.25011 142.20504,218.21511 139.93379,214.47386 C 137.63629,210.71136 134.35629,207.73761 130.11879,205.55511 C 125.87879,203.34886 121.51379,202.24636 116.97254,202.24636 C 111.85129,202.24636 107.61129,203.73261 104.25504,206.70636 C 100.90004,209.67886 99.235043,213.06011 99.235043,216.84886 C 99.235043,219.74886 100.29379,222.41136 102.41379,224.78386 C 105.46629,228.30886 112.73379,232.98386 124.21379,238.83511 C 133.57504,243.60636 139.98379,247.27386 143.39004,249.84011 C 146.82129,252.38136 149.47129,255.40136 151.31254,258.85511 C 153.15379,262.33136 154.08879,265.95136 154.08879,269.74011 C 154.08879,276.95761 151.13629,283.16636 145.25754,288.39386 C 139.35379,293.62136 131.78379,296.23386 122.52379,296.23386 C 119.59754,296.23386 116.87129,296.01886 114.29754,295.58761 C 112.78379,295.37136 109.60504,294.50886 104.81129,293.04636 C 100.01754,291.55886 96.963793,290.81636 95.676293,290.81636 C 94.441293,290.81636 93.481293,291.17511 92.748793,291.87011 C 92.043793,292.56636 91.513793,294.02886 91.161293,296.23386 L 88.435043,296.23386 L 88.435043,263.57761 L 91.161293,263.57761 C 92.446293,270.41136 94.188793,275.51886 96.357543,278.92386 C 98.527543,282.30386 101.83379,285.13386 106.29879,287.38636 C 110.74004,289.61761 115.63504,290.74386 120.96004,290.74386 C 127.11504,290.74386 131.98504,289.20886 135.56754,286.11636 C 139.12629,283.02261 140.91754,279.37886 140.91754,275.15886 C 140.91754,272.80886 140.23629,270.45886 138.89879,268.06136 C 137.53629,265.66386 135.41754,263.45886 132.56629,261.39511 C 130.64879,259.98261 125.39879,257.00886 116.82129,252.43011 C 108.24254,247.87386 102.16129,244.22886 98.527543,241.52011 C 94.893793,238.78636 92.168793,235.79011 90.277543,232.52886 C 88.411293,229.24386 87.477543,225.62386 87.477543,221.69136 C 87.477543,214.85761 90.227543,208.98386 95.752543,204.04511 C 101.27879,199.10511 108.29254,196.63636 116.82129,196.63636 C 122.14504,196.63636 127.79629,197.85886 133.75129,200.35261 C 136.50129,201.52636 138.47004,202.10261 139.58004,202.10261 C 140.86629,202.10261 141.92629,201.74261 142.73504,201.02386 C 143.54129,200.28011 144.19879,198.81761 144.70254,196.63636 L 147.42629,196.63636" />
      <path
         id="path2578"
         style="fill:#2171be;fill-opacity:1;fill-rule:nonzero;stroke:none"
         d="M -325.82746,155.68386 L 154.17129,155.68386 L 154.17129,187.01886 L -325.82746,187.01886 L -325.82746,155.68386 z" />
      <path
         id="path2582"
         style="fill:#2171be;fill-opacity:1;fill-rule:nonzero;stroke:none"
         d="M -325.82746,302.02636 L 154.17129,302.02636 L 154.17129,333.36136 L -325.82746,333.36136 L -325.82746,302.02636 z" />
      <text
         transform="scale(0.9634372,1.0379504)"
         sodipodi:linespacing="100%"
         id="text2586"
         y="313.97226"
         x="-261.22473"
         style="font-size:26.48209572px;font-style:normal;font-variant:normal;font-weight:normal;font-stretch:normal;text-align:start;line-height:100%;writing-mode:lr-tb;text-anchor:start;fill:#ffffff;fill-opacity:1;stroke:none;stroke-width:1px;stroke-linecap:butt;stroke-linejoin:miter;stroke-opacity:1;font-family:Arial;-inkscape-font-specification:Arial"
         xml:space="preserve"><tspan
           style="font-size:26.48209572px;font-style:normal;font-variant:normal;font-weight:normal;font-stretch:normal;text-align:start;line-height:100%;writing-mode:lr-tb;text-anchor:start;fill:#ffffff;fill-opacity:1;font-family:Arial;-inkscape-font-specification:Arial"
           y="313.97226"
           x="-261.22473"
           id="tspan2588"
           sodipodi:role="line">Fluid &amp; Mechatronic Systems</tspan></text>
      <text
         transform="scale(0.9634339,1.0379539)"
         sodipodi:linespacing="100%"
         id="text3360"
         y="173.16785"
         x="-268.2363"
         style="font-size:26.48155403px;font-style:normal;font-variant:normal;font-weight:normal;font-stretch:normal;text-align:start;line-height:100%;writing-mode:lr-tb;text-anchor:start;fill:#ffffff;fill-opacity:1;stroke:none;stroke-width:1px;stroke-linecap:butt;stroke-linejoin:miter;stroke-opacity:1;font-family:Arial;-inkscape-font-specification:Arial"
         xml:space="preserve"><tspan
           style="font-size:26.48155403px;font-style:normal;font-variant:normal;font-weight:normal;font-stretch:normal;text-align:start;line-height:100%;writing-mode:lr-tb;text-anchor:start;fill:#ffffff;fill-opacity:1;font-family:Arial;-inkscape-font-specification:Arial"
           y="173.16785"
           x="-268.2363"
           id="tspan3362"
           sodipodi:role="line">Fluida &amp; Mekatroniska System</tspan></text>
    </g>
    <g
       transform="matrix(0.42591037,0,0,-0.42591037,445.22347,475.62557)"
       inkscape:label="ink_ext_XXXXXX"
       id="g2947">
      <g
         transform="scale(0.1,0.1)"
         id="g2949">
        <path
           id="path2951"
           style="fill:#1064a7;fill-opacity:1;fill-rule:nonzero;stroke:none"
           d="m 1824.35,4835.02 53.33,30.21 0.21,0 52.68,-31.07 -53.15,-30.33 -0.21,0 -52.86,31.19 0,0 z m 52.97,-18.54 0.12,0 31.25,17.83 -30.98,18.28 -0.12,0 -31.36,-17.79 31.09,-18.32 0,0" />
        <path
           id="path2953"
           style="fill:#1064a7;fill-opacity:1;fill-rule:nonzero;stroke:none"
           d="m 3484.8,4803.83 -0.19,0 -53.18,30.33 52.71,31.07 0.2,0 53.32,-30.21 -52.86,-31.19 0,0 z m 30.96,30.97 -31.33,17.79 -0.11,0 -31.02,-18.28 31.29,-17.83 0.12,0 31.05,18.32 0,0" />
        <path
           id="path2955"
           style="fill:#1064a7;fill-opacity:1;fill-rule:nonzero;stroke:none"
           d="m 1860.27,4682.27 c -9.34,-1.84 -14.86,-2.32 -12.72,-13.15 7.38,-37.33 26.68,-31.31 27.81,-37.04 0.12,-0.6 -0.13,-1.75 -2.98,-2.31 -11.74,-2.32 -25.84,4.12 -28.28,16.46 -4.53,22.87 -5.71,32.03 -7.2,39.56 -0.92,4.67 -2.77,10.86 -4.41,19.14 -0.4,1.96 0.19,3 1.08,3.18 6.93,1.38 1.06,-11.66 19.43,-8.04 l 71.19,14.08 c 12.79,2.54 5.36,18.74 10.63,19.79 1.35,0.27 2.89,-1.17 3.51,-4.31 1.2,-6.02 2.31,-14.87 3.46,-20.6 2.52,-12.78 3.48,-14.47 3.96,-16.89 0.62,-3.16 0.61,-3.93 -1.18,-4.3 -5.73,-1.12 -2.27,10.66 -13.71,8.4 l -70.59,-13.97" />
        <path
           id="path2957"
           style="fill:#1064a7;fill-opacity:1;fill-rule:nonzero;stroke:none"
           d="m 1882.45,4578.59 c -18.03,-5.55 -6.22,-19.9 -10.91,-21.33 -1.62,-0.52 -2.6,0.62 -3.65,3.99 -1.68,5.44 -2.76,11.04 -6.29,22.47 -1.95,6.31 -4.48,12.42 -5.66,16.24 -0.4,1.31 0.53,1.93 1.27,2.17 5.13,1.58 4.57,-10.16 18.5,-5.87 l 70.36,21.74 c 13.35,4.11 4.13,19.4 9.26,21 2.49,0.76 3.18,-3.04 3.59,-4.36 1.76,-5.72 2.94,-11.61 4.53,-16.74 1.62,-5.28 3.85,-10.39 6.43,-18.74 1.35,-4.39 1.29,-5.21 -0.48,-5.77 -4.97,-1.53 -3.09,11.09 -17.02,6.79 l -69.93,-21.59" />
        <path
           id="path2959"
           style="fill:#1064a7;fill-opacity:1;fill-rule:nonzero;stroke:none"
           d="m 1952.69,4556.18 c 26.83,12.16 10.65,23.71 17.36,26.74 1.26,0.58 2.69,0.38 3.46,-1.31 1.2,-2.63 1.77,-5.41 2.98,-8.06 1.65,-3.65 3.85,-7.03 7.21,-14.42 2.03,-4.48 0.28,-3.23 -1.23,-6.96 l -36.16,-84.12 c -1.13,-2.7 -2.04,-5.14 -1.66,-5.98 0.38,-0.82 2.18,-0.35 5.67,1.23 l 46.54,21.09 c 12.71,5.75 2.47,21.68 7.08,23.77 0.98,0.45 2.56,0.67 3.39,-1.17 1.01,-2.24 2.3,-6.54 6.66,-16.17 3.99,-8.79 6.76,-13.46 7.33,-14.71 1.22,-2.65 -0.18,-3.28 -0.6,-3.47 -4.2,-1.92 -6.22,11.5 -20.91,4.84 l -78.38,-35.53 c -3.08,-1.4 -4.2,-1.91 -4.95,-0.23 -0.89,1.97 -0.37,3.05 0.31,4.51 l 42.19,100.18 c 0.67,1.46 1,2.61 0.67,3.32 -0.37,0.86 -1.48,0.68 -2.73,0.11 l -47.53,-21.54 c -26.82,-12.17 -9.21,-25.74 -15.77,-28.71 -1.96,-0.9 -3.41,2.68 -4.23,4.47 -3.1,6.86 -4.7,11.88 -6.92,16.76 -2.02,4.47 -4.29,7.97 -6,11.76 -0.7,1.52 -2.66,4.02 -0.29,5.1 5.59,2.53 9.15,-12.02 23.41,-5.57 l 53.1,24.07" />
        <path
           id="path2961"
           style="fill:#1064a7;fill-opacity:1;fill-rule:nonzero;stroke:none"
           d="m 2025.27,4395.37 c -1.14,0.35 -4.41,1.13 -5.56,0.37 -1.16,-0.76 -1.93,-2.95 -3.23,-6.54 l -16.75,-46.19 c -6.98,-18.95 0.32,-22.21 -2.88,-24.34 -0.89,-0.58 -1.74,-0.96 -2.76,0.59 -1.87,2.81 -3.54,6.46 -5.82,9.94 -1.61,2.42 -3.82,4.65 -6.18,8.22 -1.61,2.44 -2.2,3.91 -0.44,8.75 l 18.13,48.56 c 1.08,3.08 1.98,4.8 1.47,5.56 -0.66,1.02 -4.28,1.76 -9.35,2.46 -3.44,0.49 -4.43,-0.52 -7.37,-2.48 l -16.77,-11.07 c -11.78,-7.77 0.61,-17.62 -4.01,-20.66 -1.15,-0.77 -1.87,-0.49 -3.89,2.57 -2.3,3.46 -4.07,7.25 -8.89,14.55 -4.05,6.14 -8.96,12.45 -11.58,16.45 -1.6,2.42 -2.49,4.02 -1.6,4.65 6.41,4.2 4.85,-11.55 24.18,1.23 l 55.7,36.78 c 15.48,10.23 0.08,19.35 5.71,23.08 1.42,0.94 2.6,0.24 3.62,-1.29 1.59,-2.44 3.88,-6.99 9.63,-15.72 4.73,-7.15 10.57,-14.88 12.26,-17.44 0.76,-1.15 1.77,-2.7 0.24,-3.69 -5.11,-3.38 -4.29,10.39 -18.38,1.09 l -29.32,-19.35 c -1.27,-0.84 -3.16,-1.9 -2.52,-2.6 0.38,-0.84 1.53,-1.21 4.29,-1.78 l 27.68,-5.98 c 5.96,-1.21 24.51,-6.79 30.29,-2.98 3.96,2.61 -2.86,9.33 0.08,11.28 2.31,1.53 3.28,0.32 4.38,-1.34 0.84,-1.27 6.17,-10.47 8.7,-14.3 2.11,-3.2 4.83,-6.19 8.47,-11.7 0.67,-1.01 2.32,-3.24 0.02,-4.76 -3.46,-2.29 -2.32,4.35 -21.79,9.31 l -35.76,8.77" />
        <path
           id="path2963"
           style="fill:#1064a7;fill-opacity:1;fill-rule:nonzero;stroke:none"
           d="m 2063.79,4328.26 c 16.5,14.92 37.35,23.44 55.09,4.53 13.5,-14.47 12.85,-40.31 -12.29,-63.04 -18.89,-17.09 -39.9,-24.52 -57.94,-5.24 -18.77,20.04 -1.47,48.73 15.14,63.75 z m 73.57,35.31 c -1.13,1.25 -9.62,1.02 -11.56,-0.72 -1.92,-1.74 -3,-10.17 -1.86,-11.42 1.13,-1.25 9.61,-1.02 11.54,0.74 1.94,1.74 3.02,10.13 1.88,11.4 z m 18.63,-20.6 c -1.13,1.25 -9.62,1.03 -11.55,-0.7 -1.94,-1.76 -3.01,-10.18 -1.88,-11.43 1.14,-1.25 9.62,-1.04 11.55,0.72 1.94,1.74 3.01,10.18 1.88,11.41 z m -111.35,-6.56 c -23.1,-20.9 -24.56,-50.18 -3.88,-73.03 32.84,-36.31 67,-18.03 82.93,-3.61 24.12,21.81 23.46,52.05 3.16,74.02 -24.82,27.01 -57.28,25.14 -82.21,2.62" />
        <path
           id="path2965"
           style="fill:#1064a7;fill-opacity:1;fill-rule:nonzero;stroke:none"
           d="m 2136.61,4200.39 c -12.27,-14.73 3.36,-20.18 -0.08,-24.3 -1.67,-1.99 -2.64,-0.78 -4.3,0.59 -8.24,6.87 -13.03,11.68 -15.63,13.83 -4.71,3.92 -14.17,11.03 -14.89,11.62 -0.36,0.29 -2.68,1.82 -1,3.83 2.85,3.42 10.11,-7.05 22.4,7.69 l 43.23,51.84 c 10.41,12.5 -5.87,17.89 -2.24,22.24 0.59,0.73 2.34,1.84 5.17,-0.5 0.83,-0.69 6.91,-6.57 15.86,-14.05 1.66,-1.36 10.32,-7.98 18.79,-14.84 15.28,-12.34 24.97,-30.41 10.63,-47.62 -12.28,-14.72 -30.71,-14.55 -44.73,-2.85 -11.55,9.63 -9.68,13.07 -9.29,13.54 0.69,0.82 2.11,2.03 3.52,0.86 0.94,-0.79 2.35,-3.17 4.95,-5.34 14.26,-11.89 26.42,0.57 29.09,3.52 2.67,2.95 15.96,21.05 -2.31,36.29 -5.31,4.43 -9.15,3.63 -13.57,-1.66 l -45.6,-54.69" />
        <path
           id="path2967"
           style="fill:#1064a7;fill-opacity:1;fill-rule:nonzero;stroke:none"
           d="m 2220.65,4134.77 c -10.53,-15.65 7.67,-19.4 4.93,-23.48 -0.94,-1.39 -2.43,-1.13 -5.36,0.86 -4.72,3.14 -9.07,6.81 -19.01,13.51 -5.47,3.68 -11.29,6.84 -14.6,9.07 -1.15,0.78 -0.8,1.83 -0.38,2.48 3.01,4.43 9.94,-5.02 18.08,7.07 l 41.11,61.11 c 7.78,11.56 -9,17.68 -6,22.15 1.46,2.17 4.38,-0.35 5.53,-1.13 4.96,-3.34 9.58,-7.19 14.03,-10.18 4.59,-3.09 9.52,-5.66 16.78,-10.55 3.81,-2.55 4.28,-3.26 3.26,-4.78 -2.92,-4.32 -9.38,6.68 -17.52,-5.41 l -40.85,-60.72" />
        <path
           id="path2969"
           style="fill:#1064a7;fill-opacity:1;fill-rule:nonzero;stroke:none"
           d="m 2289.39,4161.45 c 13.25,26.28 -6.58,25.13 -3.27,31.71 0.62,1.22 1.86,1.98 3.5,1.14 2.61,-1.29 4.79,-3.09 7.4,-4.4 3.56,-1.79 7.41,-3.04 14.66,-6.7 4.38,-2.22 2.26,-2.34 3.41,-6.19 l 24.64,-88.18 c 0.81,-2.81 1.63,-5.29 2.46,-5.7 0.82,-0.42 1.92,1.09 3.65,4.51 l 22.99,45.62 c 6.28,12.48 -11.68,18.44 -9.4,22.95 0.48,0.98 1.58,2.13 3.36,1.23 2.19,-1.11 5.89,-3.65 15.35,-8.42 8.62,-4.33 13.7,-6.21 14.94,-6.83 2.6,-1.31 1.9,-2.68 1.69,-3.11 -2.06,-4.08 -12.06,5.06 -19.3,-9.33 l -38.73,-76.86 c -1.52,-3.03 -2.08,-4.12 -3.72,-3.28 -1.91,0.96 -2.18,2.13 -2.59,3.71 l -30.01,104.45 c -0.4,1.59 -0.88,2.68 -1.57,3.03 -0.82,0.41 -1.58,-0.41 -2.2,-1.64 l -23.47,-46.6 c -13.25,-26.29 8.98,-25.8 5.73,-32.25 -0.96,-1.91 -4.32,-0.06 -6.1,0.82 -6.72,3.4 -11.1,6.29 -15.9,8.71 -4.37,2.21 -8.36,3.52 -12.05,5.39 -1.52,0.75 -4.59,1.45 -3.42,3.79 2.76,5.49 14.67,-3.63 21.71,10.36 l 26.24,52.07" />
        <path
           id="path2971"
           style="fill:#1064a7;fill-opacity:1;fill-rule:nonzero;stroke:none"
           d="m 2489.08,4073.83 c -0.6,-1.9 -1.71,-2.37 -4.49,-1.49 -3.23,1 6.74,32.93 -31.79,44.95 -13.61,4.23 -35.75,1.34 -47.3,-35.71 -6.25,-20.08 -4.32,-49.92 19.4,-57.32 26.38,-8.24 30.65,3.94 33.3,12.42 7.13,22.85 -13.41,18.34 -11.67,23.91 1.32,4.23 5.64,1.6 8.13,0.84 6.88,-2.15 13.44,-4.85 20.32,-7 5.43,-1.68 10.73,-2.69 16,-4.35 0.74,-0.24 1.44,-1.08 0.97,-2.56 -1.95,-6.29 -9.59,4.77 -15.45,-13.97 -1.86,-6.01 -2.71,-10.25 -3.34,-12.3 -0.73,-2.32 -1.11,-3.03 -2.67,-3.36 -16.28,-3.26 -34.64,-4.92 -50.6,0.04 -42.92,13.4 -37.81,52.95 -34.2,64.53 7.69,24.59 32.86,52.27 69.76,40.76 20.37,-6.36 29.71,-19.72 33.66,-20.95 3.21,-1.02 4.8,3 7.13,2.28 2.2,-0.68 1.2,-3.92 0.46,-6.27 l -7.62,-24.45" />
        <path
           id="path2973"
           style="fill:#1064a7;fill-opacity:1;fill-rule:nonzero;stroke:none"
           d="m 2508.32,4027.52 c -0.1,2.21 -0.89,6.86 2.9,6.21 2.42,-0.39 2.49,-1.82 2.77,-3.87 2.42,-15.35 9.51,-30.68 26.3,-33.49 11.81,-1.98 22.1,3.77 24.12,15.9 2.15,12.85 -7.05,16.4 -29.62,31.23 -12.06,7.93 -20,15.31 -17.35,31.21 2.9,17.38 17.13,28.06 34.83,25.13 12.42,-2.07 17.79,-9.04 22.32,-9.8 1.97,-0.33 6.15,1.46 8.12,1.13 2.27,-0.39 1.45,-2.58 1.17,-6.11 l -1.72,-20.55 c -0.26,-3.38 -1.01,-5.13 -4.35,-4.55 -3.47,0.57 -1.04,29.1 -27.07,33.44 -10,1.68 -17.76,-2.95 -19.45,-13.09 -1.7,-10.13 6.31,-13.49 25.1,-25.8 15,-9.82 23.89,-18.01 20.68,-37.21 -3.3,-19.84 -19.47,-30.97 -39.3,-27.65 -9.23,1.52 -16.34,6.44 -24.8,9.88 -3.63,1.54 -3.26,2.72 -3.42,6.49 l -1.23,21.5" />
        <path
           id="path2975"
           style="fill:#1064a7;fill-opacity:1;fill-rule:nonzero;stroke:none"
           d="m 2754.38,4037.17 c 1.03,-31.13 -6.86,-57.35 -49.17,-58.75 -28.69,-0.94 -44.47,11.87 -45.44,41.64 l -1.66,49.98 c -0.44,13.18 -16.22,7.73 -16.41,13.57 -0.08,2 1.89,2.52 3.12,2.56 2,0.06 13.52,-0.17 21.2,0.1 7.81,0.27 18.67,1.23 21.59,1.31 1.37,0.06 1.73,-1.15 1.77,-2.07 0.16,-5.22 -12.99,2.5 -12.15,-22.66 l 1.1,-33.28 c 0.77,-23.46 7.57,-42.73 35.01,-41.84 30.51,1.02 33.69,25.38 32.83,51.31 l -0.99,30.35 c -0.6,17.64 -19.3,12.27 -19.49,17.78 -0.08,2.46 2.55,1.78 4.56,1.85 4.44,-0.15 8.6,-0.35 12.89,-0.19 5.05,0.17 9.8,0.64 17.47,1.19 1.83,0.06 2.77,-0.22 2.81,-1.89 0.13,-4.17 -10.76,1.03 -10.2,-16.31 l 1.16,-34.65" />
        <path
           id="path2977"
           style="fill:#1064a7;fill-opacity:1;fill-rule:nonzero;stroke:none"
           d="m 2790.33,4064.82 c -5.88,28.85 -20.72,15.65 -22.19,22.86 -0.27,1.36 0.22,2.71 2.04,3.08 2.85,0.59 5.68,0.53 8.53,1.12 3.91,0.8 7.7,2.2 15.67,3.8 4.8,1 3.22,-0.43 6.5,-2.73 l 73.96,-53.97 c 2.39,-1.69 4.55,-3.12 5.45,-2.94 0.92,0.17 0.84,2.05 0.08,5.82 l -10.21,50.03 c -2.8,13.68 -20.59,7.23 -21.61,12.19 -0.21,1.06 -0.05,2.66 1.9,3.05 2.4,0.49 6.87,0.78 17.26,2.89 9.46,1.95 14.61,3.61 15.96,3.91 2.85,0.56 3.17,-0.94 3.26,-1.39 0.92,-4.51 -12.59,-3.5 -9.37,-19.3 l 17.21,-84.31 c 0.66,-3.32 0.91,-4.52 -0.9,-4.89 -2.09,-0.45 -3.03,0.34 -4.34,1.29 l -88.24,63.44 c -1.31,0.98 -2.36,1.56 -3.13,1.39 -0.87,-0.18 -0.97,-1.31 -0.7,-2.64 l 10.43,-51.11 c 5.9,-28.87 23.05,-14.71 24.49,-21.78 0.43,-2.11 -3.36,-2.74 -5.31,-3.13 -7.38,-1.5 -12.6,-1.93 -17.87,-3 -4.81,-1 -8.75,-2.43 -12.79,-3.27 -1.66,-0.33 -4.52,-1.69 -5.04,0.86 -1.23,6.04 13.75,6.27 10.62,21.61 l -11.66,57.12" />
        <path
           id="path2979"
           style="fill:#1064a7;fill-opacity:1;fill-rule:nonzero;stroke:none"
           d="m 2957.05,4045.37 c 6.08,-17.89 20.06,-5.68 21.62,-10.33 0.55,-1.58 -0.54,-2.62 -3.87,-3.75 -5.39,-1.84 -10.96,-3.07 -22.29,-6.93 -6.24,-2.09 -12.3,-4.83 -16.06,-6.1 -1.33,-0.45 -1.96,0.49 -2.21,1.21 -1.72,5.08 10.02,4.85 5.33,18.66 l -23.67,69.74 c -4.47,13.22 -19.51,3.58 -21.25,8.65 -0.84,2.48 2.95,3.28 4.26,3.71 5.66,1.92 11.52,3.29 16.6,5.02 5.23,1.74 10.27,4.11 18.55,6.92 4.36,1.48 5.2,1.44 5.78,-0.31 1.66,-4.93 -10.99,-3.4 -6.3,-17.19 l 23.51,-69.3" />
        <path
           id="path2981"
           style="fill:#1064a7;fill-opacity:1;fill-rule:nonzero;stroke:none"
           d="m 3052.38,4067.34 c 0.22,-4.33 -0.08,-5.5 -1.6,-6.23 -1.39,-0.66 -3.46,0.06 -8.71,4.67 l -73.11,63.95 c -4.94,4.25 -7.6,4.84 -13.94,3.51 -0.49,-0.08 -2.68,-0.1 -3.14,0.88 -1.6,3.3 3.22,4.26 5.3,5.26 4.56,2.18 9.54,3.88 14.23,6.15 8.86,4.27 12.59,6.76 14.8,7.79 4.42,2.15 5.06,2.62 6.19,0.25 1.8,-3.71 -7.5,-5.64 -4.72,-11.46 2.01,-4.14 6.93,-9.77 14.43,-16.52 l 39.35,-35.92 c 0.88,-0.76 2.52,-2.37 3.34,-1.97 0.84,0.39 0.47,2.61 0.41,3.76 l -1.25,51.16 c -0.31,11.25 -2.36,16.23 -3.41,18.43 -6.25,13.01 -17.76,1.18 -20.08,6.02 -1.25,2.62 2.95,4.12 4.59,4.94 4.02,1.94 8.16,3.22 12.19,5.16 3.86,1.87 7.46,4.28 11.32,6.11 2.89,1.41 4.65,2.76 5.79,0.41 1.52,-3.18 -4.48,-5.21 -4.3,-15.17 l 2.32,-101.18" />
        <path
           id="path2983"
           style="fill:#1064a7;fill-opacity:1;fill-rule:nonzero;stroke:none"
           d="m 3106.82,4174.59 c 3.67,-5.47 4.27,-6.39 9.74,-2.71 l 8.05,5.39 c 10.96,7.32 3.5,19.31 6.05,21.03 0.88,0.59 2.11,1.78 4.55,-1.58 l 16.08,-22.11 c 1.23,-1.56 5.06,-5.65 1.99,-7.68 -4.08,-2.73 -9.55,13.17 -22.79,4.28 l -9.44,-6.31 c -5.89,-3.9 -4.35,-5.11 0.61,-12.5 l 10.92,-16.33 c 5.29,-7.91 7.85,-12.81 17.03,-6.69 31.62,21.15 18.67,36.66 23.52,39.92 0.5,0.33 1.64,0.54 3.28,-1.88 6.64,-9.94 6.11,-25.43 -4.34,-32.42 -19.39,-12.97 -27.38,-17.58 -33.75,-21.84 -3.94,-2.67 -8.96,-6.73 -16,-11.44 -1.64,-1.11 -2.85,-0.98 -3.37,-0.22 -3.91,5.88 10.41,5.45 -0.02,21.02 l -39.91,59.69 c -7.67,11.48 -19.37,-2.25 -22.79,2.87 -0.76,1.15 -0.41,2.83 1.39,4.02 5.21,3.52 14.74,9.16 34.26,22.19 9.06,6.05 17.48,12.46 28.73,19.96 1.64,1.11 3.37,0.43 4.14,-0.72 l 8.96,-12.29 c 1.27,-1.56 4.69,-5.33 1.78,-7.3 -6,-4.01 -6.04,17.58 -30.67,1.09 -15.41,-10.31 -15.84,-10.78 -9.98,-19.59 l 11.98,-17.85" />
        <path
           id="path2985"
           style="fill:#1064a7;fill-opacity:1;fill-rule:nonzero;stroke:none"
           d="m 3170.51,4251 c -6.1,6.91 -2.56,10.04 1.7,13.82 11.62,10.26 25.58,7.47 35.54,-3.78 6,-6.78 11,-13.81 -6.44,-29.28 -3.44,-3.05 -7.7,-6.82 -10.24,-3.95 l -20.56,23.19 z m 32.97,-65.69 c 12.81,-14.47 0.17,-18.9 3.43,-22.58 2.04,-2.3 4.13,0.18 5.39,1.29 5.77,5.1 11.08,10.63 17.29,16.14 4.82,4.25 8.32,6.56 10.29,8.3 2.62,2.32 2.93,3.83 2.03,4.86 -3.67,4.12 -10.87,-10.64 -21.75,1.64 l -17.62,19.88 c -3.56,4.01 -4.96,4.2 1.13,9.59 5.74,5.08 8.75,5.88 15.86,3.17 l 25.7,-9.59 c 9.46,-3.52 19.56,-7.48 28.64,0.54 4.59,4.09 9.92,13.33 6.79,16.88 -0.84,0.92 -2.12,1 -3.16,0.08 -1.15,-1 -1.68,-2.74 -2.85,-3.75 -0.9,-0.8 -3.09,-2.74 -5.74,-1.82 -21.1,7.17 -45.61,15.16 -46.21,15.84 -1.04,1.15 1.38,5.14 2.38,10.74 0.88,5.69 0.47,12.89 -6.06,20.24 -4.68,5.29 -21.32,19.43 -46.48,-2.83 -7.7,-6.82 -15.08,-14.2 -22.77,-21.02 -7.25,-6.41 -8.58,-6.76 -13.85,-11.45 -1.39,-1.21 -2.03,-2.81 -1,-3.96 3.63,-4.12 12.4,11.21 23.79,-1.66 l 44.77,-50.53" />
        <path
           id="path2987"
           style="fill:#1064a7;fill-opacity:1;fill-rule:nonzero;stroke:none"
           d="m 3278.32,4267.87 c -1.91,1.06 -6.29,2.81 -3.77,5.72 1.62,1.84 2.87,1.18 4.75,0.32 14.33,-5.96 31.13,-7.93 42.3,4.9 7.87,9.04 8.36,20.8 -0.92,28.87 -9.82,8.55 -17.67,2.55 -42.11,-8.91 -13.06,-6.13 -23.53,-9.02 -35.66,1.54 -13.32,11.58 -14.98,29.3 -3.18,42.85 8.24,9.5 17.01,10.43 20,13.89 1.32,1.5 1.99,6.04 3.3,7.52 1.5,1.74 2.95,-0.12 5.82,-2.21 l 16.62,-12.22 c 2.73,-1.98 3.81,-3.54 1.6,-6.08 -2.32,-2.65 -25.35,14.34 -42.68,-5.58 -6.66,-7.64 -6.79,-16.66 0.96,-23.42 7.78,-6.74 14.81,-1.7 35.14,7.87 16.21,7.66 27.83,10.96 42.52,-1.84 15.17,-13.18 16.23,-32.81 3.03,-47.96 -6.16,-7.06 -14.07,-10.53 -21.41,-15.96 -3.22,-2.27 -4.04,-1.35 -7.33,0.49 l -18.98,10.21" />
        <path
           id="path2989"
           style="fill:#1064a7;fill-opacity:1;fill-rule:nonzero;stroke:none"
           d="m 3366.46,4357.7 c 15.4,-10.94 19.59,7.14 23.62,4.31 1.37,-0.99 1.05,-2.48 -0.98,-5.35 -3.3,-4.63 -7.09,-8.91 -14.02,-18.65 -3.85,-5.35 -7.15,-11.08 -9.47,-14.36 -0.81,-1.11 -1.86,-0.74 -2.47,-0.29 -4.39,3.1 5.28,9.8 -6.62,18.26 l -59.98,42.72 c -11.34,8.1 -17.93,-8.52 -22.3,-5.41 -2.13,1.52 0.47,4.35 1.29,5.48 3.45,4.89 7.44,9.4 10.54,13.77 3.19,4.5 5.9,9.36 10.98,16.49 2.7,3.75 3.38,4.2 4.86,3.12 4.26,-3.02 -6.91,-9.2 4.97,-17.63 l 59.58,-42.46" />
        <path
           id="path2991"
           style="fill:#1064a7;fill-opacity:1;fill-rule:nonzero;stroke:none"
           d="m 3344.14,4457.66 c -6.46,3.55 -7.87,2.59 -10.9,-2.93 l -6.23,-11.29 c -8.4,-15.18 11.43,-20.86 8.09,-26.9 -1.56,-2.83 -4.06,-0.39 -5.65,0.84 l -16.56,11.96 c -1.25,0.86 -3.12,1.89 -2.03,3.9 6.89,12.5 12.4,21.19 23.24,40.8 10.82,19.63 15.24,28.91 22.15,41.41 1.09,2.01 2.99,1 4.41,0.37 l 13.17,-5.35 c 1.76,-0.61 7.83,-2.03 5.88,-5.53 -2.97,-5.37 -15.49,7.17 -23.48,-8.57 l -6.31,-11.43 c -3.04,-5.49 -3.12,-7.21 3.34,-10.76 l 60.7,-33.54 c 16.51,-9.12 22.13,10.22 25.88,8.15 3.23,-1.78 1.33,-4.26 -0.82,-8.15 -2.95,-5.37 -5.93,-9.49 -10.91,-18.49 -4.97,-9.01 -6.86,-13.73 -9.85,-19.1 -1.33,-2.42 -2.46,-4.79 -5.41,-3.15 -5.23,2.89 9.59,14.51 -6.39,23.34 l -62.32,34.42" />
        <path
           id="path2993"
           style="fill:#1064a7;fill-opacity:1;fill-rule:nonzero;stroke:none"
           d="m 3409.3,4542.03 c 6.15,-2.36 7.16,-2.75 9.53,3.4 l 3.47,9.02 c 4.75,12.32 -8.26,17.82 -7.16,20.69 0.39,0.99 0.72,2.67 4.63,1.34 l 25.89,-8.84 c 1.9,-0.56 7.39,-1.68 6.06,-5.13 -1.78,-4.57 -15.39,5.28 -21.13,-9.62 l -4.07,-10.59 c -2.54,-6.58 -0.6,-6.67 7.68,-9.88 l 18.34,-7.05 c 8.87,-3.42 13.81,-5.98 17.77,4.34 13.69,35.5 -5.84,40.73 -3.75,46.16 0.24,0.58 1.06,1.4 3.75,0.36 11.19,-4.3 19.67,-17.27 15.14,-29.02 -8.38,-21.76 -12.27,-30.12 -15.02,-37.29 -1.72,-4.43 -3.46,-10.68 -6.5,-18.55 -0.73,-1.86 -1.76,-2.42 -2.62,-2.09 -6.58,2.54 5.35,10.41 -12.13,17.15 l -66.97,25.84 c -12.91,4.94 -14.55,-13.01 -20.3,-10.79 -1.28,0.51 -1.99,2.07 -1.21,4.09 2.27,5.88 6.8,15.95 15.24,37.87 3.92,10.15 7.17,20.26 12.01,32.85 0.72,1.86 2.52,2.32 3.83,1.82 l 14.39,-4.88 c 1.92,-0.59 6.92,-1.69 5.67,-4.98 -2.6,-6.72 -15.04,10.91 -25.73,-16.73 -6.66,-17.32 -6.73,-17.97 3.15,-21.77 l 20.04,-7.72" />
        <path
           id="path2995"
           style="fill:#1064a7;fill-opacity:1;fill-rule:nonzero;stroke:none"
           d="m 3421.02,4650.08 c -7.19,1.7 -8.29,0.37 -9.71,-5.76 l -2.97,-12.55 c -3.95,-16.87 16.64,-16.98 15.1,-23.7 -0.74,-3.15 -3.83,-1.49 -5.71,-0.71 l -19.14,7 c -1.44,0.52 -3.55,1.01 -3.04,3.24 3.28,13.88 6.23,23.76 11.36,45.56 5.12,21.81 6.86,31.96 10.1,45.84 0.55,2.25 2.62,1.77 4.18,1.57 l 14.1,-1.59 c 1.88,-0.13 8.09,0.15 7.17,-3.73 -1.39,-5.98 -16.87,2.68 -20.29,-14.61 l -2.99,-12.72 c -1.45,-6.11 -1.04,-7.78 6.13,-9.47 l 67.5,-15.84 c 18.38,-4.33 18.56,15.81 22.74,14.83 3.57,-0.84 2.42,-3.72 1.4,-8.05 -1.4,-5.98 -3.14,-10.76 -5.5,-20.78 -2.35,-10 -2.9,-15.06 -4.32,-21.05 -0.63,-2.68 -1.08,-5.26 -4.38,-4.49 -5.82,1.36 5.32,16.57 -12.46,20.73 l -69.27,16.28" />
        <path
           id="path2997"
           style="fill:#1064a7;fill-opacity:1;fill-rule:nonzero;stroke:none"
           d="m 2373.05,5428.98 0,-384.29 296.54,-170.71 0,210.85 -93.17,54.41 0,289.74 -203.37,0" />
        <path
           id="path2999"
           style="fill:#1064a7;fill-opacity:1;fill-rule:nonzero;stroke:none"
           d="m 2787.42,5429 0,-289.76 -93.2,-54.41 0,-210.85 294.53,171.4 0,383.62 -201.33,0" />
        <path
           id="path3001"
           style="fill:#1064a7;fill-opacity:1;fill-rule:nonzero;stroke:none"
           d="m 2706.52,4852.55 296.59,172.75 329.84,-191.13 -101.33,-175.48 -247.56,143.52 -93.18,-55.11 -184.36,105.45" />
        <path
           id="path3003"
           style="fill:#1064a7;fill-opacity:1;fill-rule:nonzero;stroke:none"
           d="m 2694.22,4831.41 0,-344.63 330.57,-191.82 101.64,176.95 -249.91,145.26 0,110.86 -182.3,103.38" />
        <path
           id="path3005"
           style="fill:#1064a7;fill-opacity:1;fill-rule:nonzero;stroke:none"
           d="m 2669.53,4831.41 0,-344.93 -327.54,-191.42 -102.32,178.49 248.94,144.88 0,108.13 180.92,104.85" />
        <path
           id="path3007"
           style="fill:#1064a7;fill-opacity:1;fill-rule:nonzero;stroke:none"
           d="m 2361.19,5024.38 295.86,-172.08 -180.92,-106.1 -96.58,55.77 -248.25,-144.86 -102.01,174.79 331.9,192.48" />
        <path
           id="path3009"
           style="fill:#1064a7;fill-opacity:1;fill-rule:nonzero;stroke:none"
           d="m 1911.64,5015.04 c 9.24,-2.24 14.47,-4.15 17.09,6.59 9,36.96 -11.03,39.63 -9.66,45.3 0.14,0.59 0.85,1.53 3.68,0.84 11.64,-2.83 21.71,-14.61 18.73,-26.83 -5.51,-22.65 -8.29,-31.46 -10.1,-38.91 -1.13,-4.62 -2.06,-11.03 -4.05,-19.23 -0.47,-1.94 -1.44,-2.66 -2.33,-2.43 -6.86,1.67 3.95,11.04 -14.23,15.47 l -70.51,17.17 c -12.68,3.08 -12.76,-14.74 -17.97,-13.47 -1.34,0.32 -2.15,2.26 -1.37,5.38 1.45,5.96 4.14,14.47 5.53,20.13 3.08,12.68 2.92,14.61 3.5,16.99 0.77,3.14 1.1,3.84 2.89,3.41 5.66,-1.39 -2.43,-10.63 8.89,-13.38 l 69.91,-17.03" />
        <path
           id="path3011"
           style="fill:#1064a7;fill-opacity:1;fill-rule:nonzero;stroke:none"
           d="m 1943.74,5109.34 c 17.79,-6.31 16.88,12.24 21.51,10.6 1.6,-0.56 1.71,-2.07 0.53,-5.39 -1.9,-5.35 -4.37,-10.5 -8.38,-21.78 -2.21,-6.21 -3.85,-12.64 -5.18,-16.39 -0.45,-1.31 -1.57,-1.24 -2.29,-0.99 -5.07,1.81 2.39,10.88 -11.34,15.76 l -69.4,24.65 c -13.16,4.67 -14.91,-13.11 -19.98,-11.32 -2.46,0.88 -0.74,4.34 -0.27,5.64 2,5.64 4.58,11.07 6.38,16.13 1.85,5.21 3.12,10.62 6.04,18.86 1.55,4.34 2.09,4.96 3.83,4.35 4.91,-1.75 -4.15,-10.75 9.59,-15.63 l 68.96,-24.49" />
        <path
           id="path3013"
           style="fill:#1064a7;fill-opacity:1;fill-rule:nonzero;stroke:none"
           d="m 1904.18,5175.29 c -26.34,13.23 -25.13,-6.61 -31.72,-3.3 -1.23,0.61 -1.98,1.86 -1.15,3.49 1.3,2.61 3.09,4.81 4.4,7.41 1.79,3.57 3.04,7.41 6.68,14.67 2.2,4.4 2.34,2.26 6.18,3.42 l 88.13,24.77 c 2.82,0.82 5.29,1.64 5.71,2.46 0.41,0.83 -1.1,1.92 -4.53,3.65 l -45.65,22.91 c -12.48,6.27 -18.41,-11.69 -22.94,-9.43 -0.95,0.48 -2.13,1.59 -1.22,3.37 1.09,2.19 3.64,5.89 8.38,15.36 4.35,8.64 6.21,13.72 6.83,14.94 1.3,2.6 2.68,1.92 3.08,1.71 4.12,-2.06 -5.03,-12.07 9.37,-19.29 l 76.93,-38.62 c 3.02,-1.52 4.11,-2.07 3.29,-3.71 -0.96,-1.92 -2.13,-2.19 -3.72,-2.6 l -104.4,-30.17 c -1.58,-0.4 -2.69,-0.88 -3.03,-1.56 -0.41,-0.83 0.41,-1.58 1.65,-2.21 l 46.62,-23.39 c 26.32,-13.23 25.81,9.01 32.27,5.77 1.91,-0.96 0.05,-4.32 -0.85,-6.1 -3.36,-6.72 -6.26,-11.11 -8.67,-15.91 -2.2,-4.39 -3.51,-8.36 -5.37,-12.07 -0.76,-1.5 -1.45,-4.59 -3.78,-3.42 -5.48,2.76 3.59,14.67 -10.39,21.7 l -52.1,26.15" />
        <path
           id="path3015"
           style="fill:#1064a7;fill-opacity:1;fill-rule:nonzero;stroke:none"
           d="m 2005.49,5327.41 c 0.09,-1.2 0.53,-4.53 1.66,-5.34 1.12,-0.8 3.42,-0.74 7.25,-0.65 l 49.13,0.92 c 20.18,0.27 20.61,8.27 23.74,6.04 0.87,-0.63 1.53,-1.29 0.46,-2.78 -1.97,-2.75 -4.78,-5.64 -7.19,-9.02 -1.7,-2.36 -2.98,-5.21 -5.48,-8.71 -1.7,-2.37 -2.83,-3.45 -7.99,-3.53 l -51.83,-0.49 c -3.29,-0.1 -5.19,0.12 -5.72,-0.63 -0.72,-0.99 -0.11,-4.63 1.04,-9.61 0.79,-3.38 2.1,-3.94 4.96,-5.99 l 16.36,-11.69 c 11.48,-8.2 16.23,6.89 20.72,3.68 1.13,-0.81 1.15,-1.57 -1,-4.57 -2.4,-3.38 -5.31,-6.39 -10.39,-13.5 -4.28,-5.99 -8.43,-12.85 -11.2,-16.72 -1.69,-2.36 -2.88,-3.77 -3.76,-3.14 -6.23,4.45 9.01,8.64 -9.84,22.11 l -54.3,38.8 c -15.1,10.79 -18.11,-6.86 -23.6,-2.94 -1.37,0.99 -1.15,2.34 -0.09,3.83 1.7,2.38 5.14,6.15 11.21,14.63 4.99,6.98 10.11,15.21 11.9,17.71 0.8,1.12 1.86,2.62 3.37,1.55 4.99,-3.57 -8.17,-7.74 5.55,-17.55 l 28.6,-20.43 c 1.25,-0.89 2.9,-2.27 3.31,-1.43 0.66,0.67 0.58,1.86 0.11,4.64 l -4.33,27.99 c -1,5.99 -2.45,25.32 -8.08,29.34 -3.86,2.76 -7.68,-6.01 -10.56,-3.96 -2.24,1.6 -1.47,2.95 -0.32,4.57 0.89,1.24 7.55,9.5 10.23,13.24 2.23,3.13 4.05,6.73 7.88,12.1 0.72,1 2.19,3.33 4.44,1.73 3.38,-2.41 -3.23,-3.73 -0.89,-23.69 l 4.65,-36.51" />
        <path
           id="path3017"
           style="fill:#1064a7;fill-opacity:1;fill-rule:nonzero;stroke:none"
           d="m 2061.56,5384.98 c -15.98,15.49 -25.84,35.74 -8.12,54.67 13.54,14.43 39.35,15.49 63.7,-8.1 18.29,-17.73 27.08,-38.21 9.05,-57.49 -18.78,-20.02 -48.54,-4.65 -64.63,10.92 z m -40.08,71.1 c -1.16,-1.21 -0.38,-9.66 1.5,-11.48 1.88,-1.81 10.34,-2.33 11.52,-1.12 1.17,1.21 0.38,9.67 -1.49,11.48 -1.88,1.82 -10.35,2.34 -11.53,1.12 z m 19.33,19.94 c -1.17,-1.21 -0.38,-9.66 1.49,-11.47 1.88,-1.82 10.34,-2.33 11.52,-1.13 1.18,1.22 0.38,9.67 -1.48,11.48 -1.88,1.82 -10.35,2.33 -11.53,1.12 z m 13.9,-110.66 c 22.36,-21.68 51.65,-21.22 73.12,0.93 34.06,35.15 13.57,68.03 -1.85,82.97 -23.37,22.63 -53.48,19.99 -74.09,-1.7 -25.28,-26.55 -21.32,-58.83 2.82,-82.2" />
        <path
           id="path3019"
           style="fill:#1064a7;fill-opacity:1;fill-rule:nonzero;stroke:none"
           d="m 2187.52,5450.98 c 11.81,-15.12 20.43,-0.98 23.75,-5.22 1.59,-2.05 0.2,-2.75 -1.5,-4.08 -8.47,-6.61 -14.16,-10.29 -16.82,-12.36 -4.84,-3.77 -13.78,-11.53 -14.5,-12.09 -0.36,-0.28 -2.35,-2.23 -3.96,-0.17 -2.74,3.51 9.02,8.4 -2.79,23.52 l -41.53,53.21 c -10.01,12.82 -18.72,-1.95 -22.21,2.52 -0.57,0.73 -1.3,2.67 1.6,4.94 0.84,0.66 7.87,5.37 17.07,12.55 1.69,1.32 9.98,8.38 18.48,15.2 15.3,12.33 35.01,17.99 48.79,0.33 11.8,-15.12 7.74,-33.09 -6.66,-44.32 -11.86,-9.26 -14.81,-6.71 -15.2,-6.22 -0.65,0.85 -1.55,2.5 -0.1,3.63 0.97,0.74 3.59,1.63 6.25,3.71 14.63,11.41 5.06,25.94 2.73,29.17 -2.34,3.25 -17.21,20.04 -35.96,5.41 -5.44,-4.25 -5.49,-8.17 -1.24,-13.62 l 43.8,-56.11" />
        <path
           id="path3021"
           style="fill:#1064a7;fill-opacity:1;fill-rule:nonzero;stroke:none"
           d="m 2270.5,5506.89 c 10.05,-15.97 20.84,-0.84 23.46,-5 0.9,-1.43 0.05,-2.68 -2.94,-4.57 -4.8,-3.01 -9.93,-5.52 -20.07,-11.89 -5.58,-3.52 -10.84,-7.55 -14.21,-9.67 -1.17,-0.73 -2,0.01 -2.42,0.67 -2.85,4.54 8.63,7.04 0.87,19.38 l -39.21,62.33 c -7.44,11.82 -19.83,-1.04 -22.69,3.5 -1.38,2.22 2.1,3.87 3.28,4.61 5.07,3.18 10.45,5.84 15,8.7 4.68,2.94 9.02,6.41 16.43,11.07 3.89,2.44 4.7,2.59 5.68,1.03 2.78,-4.42 -9.91,-5.86 -2.14,-18.2 l 38.96,-61.96" />
        <path
           id="path3023"
           style="fill:#1064a7;fill-opacity:1;fill-rule:nonzero;stroke:none"
           d="m 2280.25,5583.18 c -12.5,26.67 -23.83,10.34 -26.95,17.02 -0.59,1.25 -0.42,2.69 1.25,3.47 2.64,1.23 5.41,1.85 8.04,3.08 3.62,1.69 6.98,3.94 14.34,7.39 4.44,2.08 3.23,0.33 6.96,-1.15 l 84.55,-35.11 c 2.73,-1.1 5.17,-1.98 6,-1.59 0.83,0.38 0.33,2.18 -1.3,5.66 l -21.66,46.27 c -5.92,12.64 -21.71,2.21 -23.84,6.78 -0.47,0.98 -0.7,2.57 1.11,3.4 2.22,1.05 6.51,2.38 16.11,6.87 8.74,4.1 13.35,6.94 14.6,7.52 2.63,1.23 3.29,-0.15 3.48,-0.57 1.95,-4.17 -11.42,-6.37 -4.59,-20.95 l 36.51,-77.95 c 1.43,-3.06 1.95,-4.17 0.28,-4.96 -1.94,-0.91 -3.03,-0.4 -4.51,0.27 l -100.68,40.94 c -1.49,0.66 -2.65,0.97 -3.34,0.64 -0.84,-0.39 -0.66,-1.5 -0.07,-2.75 l 22.11,-47.23 c 12.49,-26.68 25.86,-8.91 28.92,-15.43 0.9,-1.95 -2.62,-3.44 -4.44,-4.28 -6.81,-3.19 -11.79,-4.84 -16.65,-7.13 -4.45,-2.08 -7.95,-4.39 -11.69,-6.15 -1.53,-0.72 -3.98,-2.71 -5.1,-0.35 -2.6,5.56 11.91,9.31 5.27,23.48 l -24.71,52.81" />
        <path
           id="path3025"
           style="fill:#1064a7;fill-opacity:1;fill-rule:nonzero;stroke:none"
           d="m 2493.91,5656.24 c 0.52,-1.92 -0.14,-2.9 -2.95,-3.7 -3.24,-0.92 -12.37,31.25 -51.19,20.25 -13.73,-3.9 -30.66,-18.43 -20.06,-55.77 5.73,-20.23 23.67,-44.16 47.59,-37.38 26.57,7.54 23.49,20.06 21.07,28.62 -6.53,23.03 -21.25,8.01 -22.84,13.63 -1.21,4.27 3.85,4.42 6.36,5.14 6.93,1.97 13.88,3.3 20.82,5.27 5.47,1.55 10.45,3.61 15.79,5.11 0.72,0.21 1.77,-0.13 2.2,-1.61 1.8,-6.34 -10.64,-1.26 -5.29,-20.15 1.73,-6.05 3.33,-10.06 3.93,-12.13 0.66,-2.36 0.72,-3.13 -0.39,-4.26 -11.86,-11.64 -26.32,-23.09 -42.4,-27.65 -43.25,-12.25 -60.61,23.64 -63.91,35.3 -7.03,24.8 -1.09,61.74 36.11,72.28 20.52,5.83 35.64,-0.25 39.62,0.88 3.25,0.91 2.37,5.13 4.74,5.79 2.22,0.64 3.12,-2.61 3.79,-4.97 l 7.01,-24.65" />
        <path
           id="path3027"
           style="fill:#1064a7;fill-opacity:1;fill-rule:nonzero;stroke:none"
           d="m 2531.41,5621.19 c -0.77,2.06 -2.91,6.25 0.88,6.79 2.42,0.35 2.92,-0.98 3.82,-2.87 6.94,-13.88 18.32,-26.36 35.2,-23.95 11.83,1.7 19.91,10.29 18.18,22.45 -1.85,12.9 -11.7,13.5 -37.69,20.8 -13.89,3.9 -23.69,8.54 -25.98,24.5 -2.5,17.46 7.83,31.95 25.61,34.49 12.44,1.78 19.66,-3.23 24.23,-2.58 1.98,0.29 5.43,3.25 7.41,3.54 2.27,0.33 2.14,-2.02 2.95,-5.47 l 4.57,-20.11 c 0.78,-3.3 0.58,-5.19 -2.76,-5.66 -3.49,-0.51 -9.8,27.42 -35.93,23.69 -10.02,-1.44 -16.04,-8.18 -14.58,-18.37 1.45,-10.17 10.09,-10.95 31.72,-17 17.27,-4.82 28.23,-9.92 30.99,-29.21 2.84,-19.89 -9.2,-35.41 -29.09,-38.25 -9.27,-1.32 -17.54,1.22 -26.64,1.93 -3.92,0.38 -3.95,1.61 -5.22,5.14 l -7.67,20.14" />
        <path
           id="path3029"
           style="fill:#1064a7;fill-opacity:1;fill-rule:nonzero;stroke:none"
           d="m 2772.4,5654.82 c -1.7,-31.09 -11.81,-56.52 -54.1,-54.22 -28.65,1.55 -43.26,15.71 -41.64,45.44 l 2.72,49.94 c 0.7,13.18 -15.49,9.13 -15.18,14.96 0.12,1.99 2.13,2.35 3.36,2.27 1.99,-0.1 13.44,-1.34 21.09,-1.75 7.83,-0.43 18.73,-0.41 21.64,-0.56 1.38,-0.08 1.62,-1.32 1.57,-2.24 -0.28,-5.21 -12.71,3.61 -14.07,-21.52 l -1.81,-33.24 c -1.27,-23.44 3.81,-43.24 31.23,-44.72 30.49,-1.66 35.78,22.34 37.18,48.23 l 1.65,30.32 c 0.95,17.63 -18.14,13.91 -17.85,19.42 0.13,2.44 2.71,1.54 4.69,1.44 4.42,-0.55 8.55,-1.09 12.84,-1.32 5.06,-0.27 9.83,-0.23 17.48,-0.33 1.86,-0.1 2.76,-0.46 2.66,-2.15 -0.22,-4.13 -10.65,1.97 -11.58,-15.35 l -1.88,-34.62" />
        <path
           id="path3031"
           style="fill:#1064a7;fill-opacity:1;fill-rule:nonzero;stroke:none"
           d="m 2819.32,5671.48 c 6.42,28.75 -12.52,22.76 -10.9,29.95 0.29,1.35 1.31,2.38 3.12,1.98 2.84,-0.64 5.39,-1.85 8.25,-2.48 3.88,-0.87 7.91,-1.14 15.84,-2.91 4.8,-1.08 2.77,-1.72 4.82,-5.17 l 45.43,-79.49 c 1.46,-2.54 2.87,-4.73 3.77,-4.94 0.9,-0.2 1.6,1.53 2.44,5.27 l 11.15,49.86 c 3.03,13.63 -15.84,15.02 -14.72,19.97 0.23,1.03 1.01,2.44 2.96,2 2.39,-0.53 6.61,-2.11 16.94,-4.41 9.43,-2.11 14.8,-2.69 16.15,-2.99 2.85,-0.64 2.52,-2.14 2.4,-2.59 -0.99,-4.49 -12.91,1.95 -16.44,-13.76 l -18.79,-84 c -0.72,-3.29 -1,-4.49 -2.79,-4.09 -2.11,0.46 -2.66,1.53 -3.42,2.96 l -54.61,93.98 c -0.78,1.43 -1.51,2.37 -2.27,2.54 -0.88,0.2 -1.42,-0.78 -1.72,-2.12 l -11.4,-50.91 c -6.41,-28.75 15.02,-22.86 13.43,-29.89 -0.44,-2.1 -4.16,-1.11 -6.11,-0.67 -7.34,1.63 -12.28,3.37 -17.54,4.55 -4.78,1.07 -8.96,1.37 -13.01,2.28 -1.64,0.36 -4.8,0.28 -4.23,2.83 1.32,5.99 15.11,0.08 18.53,15.36 l 12.72,56.89" />
        <path
           id="path3033"
           style="fill:#1064a7;fill-opacity:1;fill-rule:nonzero;stroke:none"
           d="m 2952.23,5572.83 c -6.37,-17.77 12.2,-16.93 10.54,-21.55 -0.57,-1.59 -2.08,-1.7 -5.41,-0.51 -5.34,1.92 -10.48,4.41 -21.73,8.45 -6.22,2.22 -12.64,3.86 -16.41,5.21 -1.29,0.46 -1.21,1.58 -0.96,2.3 1.82,5.05 10.86,-2.42 15.78,11.3 l 24.85,69.34 c 4.7,13.14 -13.07,14.93 -11.25,19.99 0.86,2.46 4.32,0.73 5.62,0.26 5.65,-2.01 11.06,-4.6 16.12,-6.42 5.19,-1.86 10.6,-3.14 18.82,-6.1 4.36,-1.55 4.94,-2.1 4.36,-3.83 -1.78,-4.91 -10.74,4.17 -15.67,-9.55 l -24.66,-68.89" />
        <path
           id="path3035"
           style="fill:#1064a7;fill-opacity:1;fill-rule:nonzero;stroke:none"
           d="m 3025.16,5522.81 c -3.3,-2.82 -4.4,-3.3 -5.92,-2.55 -1.35,0.69 -2.07,2.75 -1.66,9.74 l 5.68,96.96 c 0.33,6.52 -0.86,8.99 -5.8,13.17 -0.33,0.34 -1.7,2.05 -1.23,3.02 1.66,3.29 5.35,0.07 7.42,-0.96 4.53,-2.25 8.93,-5.13 13.6,-7.46 8.79,-4.38 13.04,-5.81 15.23,-6.91 4.38,-2.19 5.16,-2.39 3.97,-4.73 -1.84,-3.7 -9.03,2.46 -11.92,-3.31 -2.07,-4.12 -3.48,-11.46 -4.24,-21.55 l -4.2,-53.11 c -0.05,-1.17 -0.33,-3.43 0.49,-3.84 0.82,-0.42 2.33,1.24 3.22,1.99 l 39.63,32.36 c 8.71,7.14 11.37,11.81 12.48,14.01 6.43,12.91 -9.96,14.75 -7.57,19.56 1.29,2.6 5.07,0.2 6.73,-0.62 3.95,-1.99 7.54,-4.45 11.53,-6.44 3.85,-1.91 7.97,-3.28 11.79,-5.2 2.9,-1.44 5,-1.99 3.87,-4.32 -1.58,-3.16 -6.87,0.34 -14.61,-5.92 l -78.49,-63.89" />
        <path
           id="path3037"
           style="fill:#1064a7;fill-opacity:1;fill-rule:nonzero;stroke:none"
           d="m 3141.76,5531.88 c -3.73,-5.44 -4.34,-6.33 1.09,-10.06 l 7.97,-5.47 c 10.88,-7.47 19.24,3.9 21.76,2.17 0.9,-0.61 2.46,-1.32 0.23,-4.82 l -14.57,-23.12 c -0.99,-1.73 -3.34,-6.8 -6.4,-4.72 -4.03,2.78 8.71,13.75 -4.44,22.78 l -9.35,6.43 c -5.84,4 -6.37,2.13 -11.41,-5.19 l -11.11,-16.2 c -5.39,-7.84 -9.03,-12.04 0.1,-18.3 31.34,-21.54 40.95,-3.75 45.76,-7.06 0.5,-0.34 1.13,-1.33 -0.53,-3.73 -6.78,-9.87 -21.37,-15.12 -31.74,-8 -19.2,13.21 -26.44,18.93 -32.75,23.27 -3.95,2.69 -9.59,5.83 -16.55,10.61 -1.66,1.13 -1.97,2.28 -1.46,3.04 4,5.83 8.93,-7.61 19.51,7.82 l 40.65,59.19 c 7.83,11.39 -9.24,17.15 -5.77,22.21 0.77,1.14 2.5,1.45 4.26,0.24 5.18,-3.56 13.95,-10.33 33.28,-23.61 8.99,-6.17 18.09,-11.65 29.2,-19.3 1.66,-1.13 1.66,-3 0.88,-4.14 l -8.1,-12.87 c -1,-1.73 -3.25,-6.34 -6.14,-4.34 -5.95,4.08 14.08,12.11 -10.33,28.87 -15.31,10.51 -15.9,10.73 -21.89,2.01 l -12.15,-17.71" />
        <path
           id="path3039"
           style="fill:#1064a7;fill-opacity:1;fill-rule:nonzero;stroke:none"
           d="m 3239.88,5486.91 c 6.17,6.84 9.71,3.65 13.93,-0.16 11.5,-10.39 10.25,-24.58 0.17,-35.73 -6.09,-6.72 -12.52,-12.47 -29.82,3.17 -3.44,3.08 -7.64,6.89 -5.06,9.74 l 20.78,22.98 z m -61.64,-40.03 c -12.97,-14.34 -18.77,-2.25 -22.07,-5.89 -2.05,-2.28 0.65,-4.1 1.88,-5.23 5.7,-5.14 11.79,-9.83 17.95,-15.39 4.78,-4.32 7.46,-7.56 9.37,-9.3 2.62,-2.37 4.14,-2.51 5.08,-1.49 3.69,4.1 -11.78,9.62 -0.78,21.8 l 17.79,19.68 c 3.61,3.99 3.63,5.4 9.67,-0.05 5.72,-5.14 6.83,-8.02 4.94,-15.39 l -6.72,-26.62 c -2.42,-9.8 -5.27,-20.27 3.71,-28.39 4.55,-4.12 14.32,-8.4 17.5,-4.88 0.86,0.91 0.78,2.22 -0.25,3.14 -1.13,1.03 -2.89,1.38 -4.02,2.4 -0.92,0.82 -3.07,2.78 -2.47,5.53 4.79,21.75 10.04,46.99 10.63,47.68 1.05,1.14 5.25,-0.82 10.96,-1.19 5.74,-0.25 12.85,0.97 19.45,8.26 4.73,5.23 16.95,23.34 -7.97,45.88 -7.64,6.89 -15.76,13.43 -23.4,20.32 -7.15,6.48 -7.65,7.77 -12.91,12.49 -1.35,1.24 -3.01,1.7 -4.02,0.56 -3.73,-4.09 12.5,-11.1 0.96,-23.84 l -45.28,-50.08" />
        <path
           id="path3041"
           style="fill:#1064a7;fill-opacity:1;fill-rule:nonzero;stroke:none"
           d="m 3261.54,5381.76 c 1.31,1.75 3.71,5.81 6.19,2.9 1.59,-1.87 0.75,-3 -0.37,-4.76 -7.98,-13.31 -12.42,-29.62 -1.32,-42.56 7.77,-9.09 19.37,-11.29 28.67,-3.3 9.92,8.48 5.15,17.11 -2.64,42.96 -4.16,13.82 -5.51,24.59 6.72,35.07 13.42,11.47 31.19,10.52 42.87,-3.11 8.18,-9.55 7.81,-18.35 10.8,-21.84 1.33,-1.52 5.68,-2.84 6.97,-4.35 1.49,-1.75 -0.56,-2.89 -3.04,-5.42 l -14.53,-14.65 c -2.35,-2.43 -4.05,-3.29 -6.25,-0.72 -2.29,2.68 17.91,22.98 0.74,43.04 -6.6,7.69 -15.51,9.14 -23.32,2.46 -7.8,-6.69 -3.85,-14.4 2.65,-35.9 5.2,-17.16 6.78,-29.15 -8.02,-41.81 -15.28,-13.07 -34.83,-11.23 -47.91,4.03 -6.08,7.11 -8.34,15.45 -12.62,23.51 -1.82,3.51 -0.76,4.19 1.52,7.17 l 12.89,17.28" />
        <path
           id="path3043"
           style="fill:#1064a7;fill-opacity:1;fill-rule:nonzero;stroke:none"
           d="m 3326.21,5280.15 c -15.45,-10.84 0.2,-20.85 -3.81,-23.67 -1.38,-0.97 -2.67,-0.19 -4.72,2.7 -3.25,4.64 -6.02,9.64 -12.88,19.44 -3.8,5.39 -8.1,10.44 -10.39,13.7 -0.8,1.13 -0.07,2 0.55,2.44 4.38,3.09 7.46,-8.24 19.42,0.13 l 60.25,42.31 c 11.42,8.03 -2.03,19.75 2.34,22.84 2.13,1.5 3.95,-1.9 4.75,-3.04 3.46,-4.9 6.39,-10.15 9.45,-14.54 3.19,-4.52 6.86,-8.69 11.9,-15.84 2.63,-3.77 2.83,-4.58 1.32,-5.64 -4.27,-3 -6.36,9.6 -18.3,1.22 l -59.88,-42.05" />
        <path
           id="path3045"
           style="fill:#1064a7;fill-opacity:1;fill-rule:nonzero;stroke:none"
           d="m 3426.23,5255.89 c 6.45,3.54 6.39,5.25 3.36,10.77 l -6.15,11.31 c -8.32,15.21 -23.75,1.55 -27.07,7.61 -1.53,2.82 1.87,3.63 3.75,4.32 l 18.98,7.55 c 1.41,0.6 3.28,1.62 4.4,-0.39 6.81,-12.53 11.21,-21.85 21.97,-41.51 10.7,-19.66 16.17,-28.39 23.01,-40.91 1.13,-2.02 -0.78,-3.05 -2.05,-3.92 l -11.59,-8.24 c -1.48,-1.16 -5.91,-5.5 -7.81,-2 -2.97,5.38 14.36,9.23 5.37,24.43 l -6.27,11.45 c -3,5.53 -4.41,6.49 -10.88,2.97 l -60.86,-33.23 c -16.58,-9.04 -3.28,-24.15 -7.03,-26.21 -3.24,-1.76 -4.27,1.16 -6.42,5.06 -2.93,5.39 -4.83,10.12 -9.75,19.14 -4.94,9.03 -7.91,13.18 -10.84,18.57 -1.31,2.41 -2.71,4.64 0.26,6.25 5.25,2.87 7.09,-15.88 23.1,-7.13 l 62.52,34.11" />
        <path
           id="path3047"
           style="fill:#1064a7;fill-opacity:1;fill-rule:nonzero;stroke:none"
           d="m 3454.2,5145.88 c -6.15,-2.36 -7.17,-2.73 -4.81,-8.89 l 3.46,-9.02 c 4.71,-12.33 18.05,-7.72 19.16,-10.59 0.39,-1 1.25,-2.47 -2.56,-4.09 l -25.13,-10.76 c -1.78,-0.86 -6.62,-3.68 -7.93,-0.26 -1.76,4.59 14.96,6.39 9.29,21.3 l -4.08,10.6 c -2.54,6.59 -4.02,5.36 -12.34,2.18 l -18.34,-7.01 c -8.87,-3.4 -14.26,-4.8 -10.31,-15.12 13.59,-35.54 31.6,-26.35 33.67,-31.8 0.21,-0.56 0.17,-1.74 -2.54,-2.78 -11.19,-4.27 -26.17,-0.32 -30.65,11.44 -8.34,21.79 -11.05,30.6 -13.79,37.76 -1.71,4.45 -4.57,10.24 -7.59,18.13 -0.73,1.85 -0.33,2.99 0.54,3.32 6.57,2.52 3.01,-11.33 20.49,-4.65 l 67.07,25.66 c 12.89,4.93 2.13,19.38 7.85,21.57 1.29,0.49 2.88,-0.23 3.66,-2.23 2.22,-5.87 5.6,-16.41 13.98,-38.34 3.89,-10.17 8.26,-19.84 13.09,-32.45 0.68,-1.86 -0.34,-3.41 -1.64,-3.91 l -13.97,-6 c -1.8,-0.85 -6.25,-3.38 -7.54,-0.08 -2.56,6.73 18.5,1.96 7.91,29.62 -6.62,17.35 -6.99,17.86 -16.89,14.08 l -20.06,-7.68" />
        <path
           id="path3049"
           style="fill:#1064a7;fill-opacity:1;fill-rule:nonzero;stroke:none"
           d="m 3510.12,5043.48 c 7.17,1.69 7.56,3.35 6.13,9.48 l -2.93,12.55 c -3.98,16.87 -22.5,7.81 -24.06,14.53 -0.76,3.13 2.75,3.01 4.76,3.16 l 20.28,2.25 c 1.52,0.19 3.61,0.68 4.16,-1.56 3.22,-13.89 5.02,-24.03 10.11,-45.85 5.12,-21.8 8.05,-31.67 11.33,-45.56 0.53,-2.25 -1.58,-2.72 -3.04,-3.24 l -13.32,-4.86 c -1.76,-0.72 -7.21,-3.73 -8.09,0.15 -1.41,5.97 16.29,5.1 11.66,22.13 l -2.99,12.69 c -1.44,6.12 -2.54,7.44 -9.71,5.76 l -67.5,-15.84 c -18.37,-4.32 -9.55,-22.41 -13.73,-23.4 -3.61,-0.84 -3.86,2.24 -4.86,6.59 -1.41,5.97 -1.95,11.05 -4.3,21.05 -2.34,10.01 -4.12,14.79 -5.5,20.77 -0.65,2.69 -1.39,5.19 1.91,5.97 5.82,1.36 2.6,-17.19 20.39,-13.02 l 69.3,16.25" />
        <path
           id="path3051"
           style="fill:#1064a7;fill-opacity:1;fill-rule:nonzero;stroke:none"
           d="m 1566.13,3523.19 20.87,0 0,-87.63 40.39,0 0,-16.4 -61.26,0 0,104.03" />
        <path
           id="path3053"
           style="fill:#1064a7;fill-opacity:1;fill-rule:nonzero;stroke:none"
           d="m 1668.68,3419.16 20.8633,0 0,104.031 -20.8633,0 0,-104.031 z" />
        <path
           id="path3055"
           style="fill:#1064a7;fill-opacity:1;fill-rule:nonzero;stroke:none"
           d="m 1740.67,3523.19 25.64,0 39.64,-77.8 0.3,0 0,77.8 19.98,0 0,-104.03 -25.49,0 -39.8,77.8 -0.3,0 0,-77.8 -19.97,0 0,104.03" />
        <path
           id="path3057"
           style="fill:#1064a7;fill-opacity:1;fill-rule:nonzero;stroke:none"
           d="m 1879.14,3523.19 20.86,0 0,-44.71 37.56,44.71 25.64,0 -42.78,-49.03 44.56,-55 -27.27,0 -37.41,48.29 -0.3,0 0,-48.29 -20.86,0 0,104.03" />
        <path
           id="path3059"
           style="fill:#1064a7;fill-opacity:1;fill-rule:nonzero;stroke:none"
           d="m 2025.05,3471.48 c 0,18.32 8.5,37.11 29.21,37.11 20.72,0 29.22,-18.79 29.22,-37.11 0,-18.78 -7.91,-37.71 -29.22,-37.71 -21.31,0 -29.21,18.93 -29.21,37.71 z m 35.92,79.29 0,-17.29 17.29,0 0,17.29 -17.29,0 z m -13.41,-17.29 0,17.29 -17.29,0 0,-17.29 17.29,0 z m -44.27,-62 c 0,-31.9 17.59,-54.1 50.97,-54.1 32.94,0 50.98,22.65 50.98,54.1 0,31.45 -18.34,53.5 -50.98,53.5 -33.08,0 -50.97,-21.61 -50.97,-53.5" />
        <path
           id="path3061"
           style="fill:#1064a7;fill-opacity:1;fill-rule:nonzero;stroke:none"
           d="m 2173.2,3506.8 7.31,0 c 10.73,0 19.82,-4.17 19.82,-16.24 0,-12.08 -9.39,-15.51 -19.82,-15.51 l -7.31,0 0,31.75 z m -20.86,-87.64 20.86,0 0,39.5 8.8,0 c 22.36,0 40.09,8.79 40.09,33.09 0,24.89 -20.72,31.44 -43.37,31.44 l -26.38,0 0,-104.03" />
        <path
           id="path3063"
           style="fill:#1064a7;fill-opacity:1;fill-rule:nonzero;stroke:none"
           d="m 2265.02,3419.16 20.8633,0 0,104.031 -20.8633,0 0,-104.031 z" />
        <path
           id="path3065"
           style="fill:#1064a7;fill-opacity:1;fill-rule:nonzero;stroke:none"
           d="m 2337.01,3523.19 25.63,0 39.65,-77.8 0.3,0 0,77.8 19.97,0 0,-104.03 -25.49,0 -39.79,77.8 -0.3,0 0,-77.8 -19.97,0 0,104.03" />
        <path
           id="path3067"
           style="fill:#1064a7;fill-opacity:1;fill-rule:nonzero;stroke:none"
           d="m 2556.7,3503.07 c -8.05,3.73 -18.48,5.52 -26.82,5.52 -24.3,0 -37.72,-16.39 -37.72,-37.71 0,-21.16 13.12,-37.11 35.33,-37.11 5.66,0 10.13,0.59 13.71,1.48 l 0,27.13 -22.06,0 0,16.4 42.03,0 0,-56.05 c -11.03,-2.97 -22.5,-5.35 -33.68,-5.35 -33.69,0 -57.08,16.84 -57.08,52.01 0,35.62 21.75,55.59 57.08,55.59 12.07,0 21.61,-1.64 30.55,-4.32 l -1.34,-17.59" />
        <path
           id="path3069"
           style="fill:#1064a7;fill-opacity:1;fill-rule:nonzero;stroke:none"
           d="m 2683.39,3523.19 20.87,0 0,-60.06 c 0,-17.74 5.66,-29.36 21.61,-29.36 15.95,0 21.61,11.62 21.61,29.36 l 0,60.06 20.87,0 0,-66.47 c 0,-27.87 -15.8,-39.34 -42.48,-39.34 -26.68,0 -42.48,11.47 -42.48,39.34 l 0,66.47" />
        <path
           id="path3071"
           style="fill:#1064a7;fill-opacity:1;fill-rule:nonzero;stroke:none"
           d="m 2820.51,3523.19 25.64,0 39.65,-77.8 0.29,0 0,77.8 19.97,0 0,-104.03 -25.48,0 -39.8,77.8 -0.3,0 0,-77.8 -19.97,0 0,104.03" />
        <path
           id="path3073"
           style="fill:#1064a7;fill-opacity:1;fill-rule:nonzero;stroke:none"
           d="m 2957.19,3419.16 20.8711,0 0,104.031 -20.8711,0 0,-104.031 z" />
        <path
           id="path3075"
           style="fill:#1064a7;fill-opacity:1;fill-rule:nonzero;stroke:none"
           d="m 3019.64,3523.19 22.36,0 26.67,-81.67 0.31,0 26.37,81.67 20.72,0 -35.02,-104.03 -25.64,0 -35.77,104.03" />
        <path
           id="path3077"
           style="fill:#1064a7;fill-opacity:1;fill-rule:nonzero;stroke:none"
           d="m 3159.44,3523.19 61.41,0 0,-16.39 -40.54,0 0,-25.64 37.11,0 0,-16.39 -37.11,0 0,-29.21 40.84,0 0,-16.4 -61.71,0 0,104.03" />
        <path
           id="path3079"
           style="fill:#1064a7;fill-opacity:1;fill-rule:nonzero;stroke:none"
           d="m 3291.2,3506.8 6.86,0 c 10.44,0 22.06,-1.05 22.06,-13.57 0,-12.96 -11.78,-14.45 -22.06,-14.45 l -6.86,0 0,28.02 z m -20.87,-87.64 20.87,0 0,43.22 6.71,0 c 8.79,0 11.48,-2.98 14.45,-10.73 l 12.52,-32.49 23.26,0 -16.69,40.7 c -2.09,4.61 -5.36,10.28 -11.03,10.73 l 0,0.29 c 13.26,1.79 21.46,11.92 21.46,24.15 0,28.92 -26.68,28.16 -49.04,28.16 l -22.51,0 0,-104.03" />
        <path
           id="path3081"
           style="fill:#1064a7;fill-opacity:1;fill-rule:nonzero;stroke:none"
           d="m 3448.89,3504.12 c -6.55,2.83 -13.86,4.47 -21.16,4.47 -7.16,0 -16.39,-3.13 -16.39,-14.46 0,-18.04 45.6,-10.43 45.6,-45.31 0,-22.8 -18.03,-31.44 -39.05,-31.44 -11.33,0 -16.39,1.48 -26.68,4.01 l 1.94,18.79 c 7.15,-3.88 15.36,-6.41 23.55,-6.41 7.9,0 18.49,4.02 18.49,13.41 0,19.82 -45.62,11.63 -45.62,46.05 0,23.25 18.04,31.75 36.37,31.75 8.94,0 17.29,-1.19 24.89,-3.72 l -1.94,-17.14" />
        <path
           id="path3083"
           style="fill:#1064a7;fill-opacity:1;fill-rule:nonzero;stroke:none"
           d="m 3503.89,3419.16 20.8633,0 0,104.031 -20.8633,0 0,-104.031 z" />
        <path
           id="path3085"
           style="fill:#1064a7;fill-opacity:1;fill-rule:nonzero;stroke:none"
           d="m 3595.86,3506.8 -29.81,0 0,16.39 80.48,0 0,-16.39 -29.81,0 0,-87.64 -20.86,0 0,87.64" />
        <path
           id="path3087"
           style="fill:#1064a7;fill-opacity:1;fill-rule:nonzero;stroke:none"
           d="m 3717.18,3460.29 -38.01,62.9 24.44,0 24.6,-43.67 25.04,43.67 22.06,0 -37.26,-62.9 0,-41.13 -20.87,0 0,41.13" />
        <path
           id="path3089"
           style="fill:#1064a7;fill-opacity:1;fill-rule:nonzero;stroke:none"
           d="m 1017.52,3637.19 44.5508,0 0,167.176 -44.5508,0 0,-167.176 z" />
        <path
           id="path3091"
           style="fill:#1064a7;fill-opacity:1;fill-rule:nonzero;stroke:none"
           d="m 1096.09,3804.36 56.76,0 56.53,-113.52 0.48,0 -0.72,113.52 40.72,0 0,-167.17 -55.33,0 -58.44,114.25 -0.48,0 1.43,-114.25 -40.95,0 0,167.17" />
        <path
           id="path3093"
           style="fill:#1064a7;fill-opacity:1;fill-rule:nonzero;stroke:none"
           d="m 1282.19,3678.39 c 11.5,-6.23 27.54,-11.03 45.99,-11.03 14.12,0 27.54,2.89 27.54,16.29 0,31.15 -79.04,11.49 -79.04,72.33 0,40.25 39.28,51.27 72.81,51.27 16.05,0 31.86,-2.41 43.11,-6.23 l -2.87,-34.5 c -11.5,5.28 -24.43,7.67 -37.12,7.67 -11.26,0 -29.94,-0.96 -29.94,-15.56 0,-27.08 79.03,-8.87 79.03,-69.23 0,-43.35 -36.4,-55.08 -73.52,-55.08 -15.57,0 -34.98,2.39 -49.82,7.18 l 3.83,36.89" />
        <path
           id="path3095"
           style="fill:#1064a7;fill-opacity:1;fill-rule:nonzero;stroke:none"
           d="m 1456.79,3771.32 -41.19,0 0,33.04 126.94,0 0,-33.04 -41.2,0 0,-134.13 -44.55,0 0,134.13" />
        <path
           id="path3097"
           style="fill:#1064a7;fill-opacity:1;fill-rule:nonzero;stroke:none"
           d="m 1563.38,3637.19 44.5469,0 0,167.176 -44.5469,0 0,-167.176 z" />
        <path
           id="path3099"
           style="fill:#1064a7;fill-opacity:1;fill-rule:nonzero;stroke:none"
           d="m 1669.96,3771.32 -41.19,0 0,33.04 126.94,0 0,-33.04 -41.2,0 0,-134.13 -44.55,0 0,134.13" />
        <path
           id="path3101"
           style="fill:#1064a7;fill-opacity:1;fill-rule:nonzero;stroke:none"
           d="m 1918.58,3700.66 c 0,-45.75 -29.7,-66.34 -73.3,-66.34 -43.58,0 -73.29,20.59 -73.29,66.34 l 0,103.7 44.55,0 0,-96.27 c 0,-22.04 5.99,-40.73 28.74,-40.73 22.76,0 28.75,18.69 28.75,40.73 l 0,96.27 44.55,0 0,-103.7" />
        <path
           id="path3103"
           style="fill:#1064a7;fill-opacity:1;fill-rule:nonzero;stroke:none"
           d="m 1976.05,3771.32 -41.19,0 0,33.04 126.94,0 0,-33.04 -41.19,0 0,-134.13 -44.56,0 0,134.13" />
        <path
           id="path3105"
           style="fill:#1064a7;fill-opacity:1;fill-rule:nonzero;stroke:none"
           d="m 2079.29,3804.36 117.84,0 0,-31.61 -73.29,0 0,-34.49 69.22,0 0,-31.61 -69.22,0 0,-37.85 75.93,0 0,-31.61 -120.48,0 0,167.17" />
        <path
           id="path3107"
           style="fill:#1064a7;fill-opacity:1;fill-rule:nonzero;stroke:none"
           d="m 2339.88,3720.78 c 0,28.98 10.77,53.41 37.84,53.41 27.07,0 37.85,-24.43 37.85,-53.41 0,-27.55 -10.78,-53.42 -37.85,-53.42 -27.07,0 -37.84,25.87 -37.84,53.42 z m -45.99,0 c 0,-53.17 29.22,-86.46 83.83,-86.46 54.61,0 83.83,33.29 83.83,86.46 0,53.65 -28.74,86.47 -83.83,86.47 -55.09,0 -83.83,-32.82 -83.83,-86.47" />
        <path
           id="path3109"
           style="fill:#1064a7;fill-opacity:1;fill-rule:nonzero;stroke:none"
           d="m 2485.27,3804.36 111.85,0 0,-31.61 -67.31,0 0,-36.64 64.43,0 0,-31.62 -64.43,0 0,-67.3 -44.54,0 0,167.17" />
        <path
           id="path3111"
           style="fill:#1064a7;fill-opacity:1;fill-rule:nonzero;stroke:none"
           d="m 2721.66,3771.32 -41.19,0 0,33.04 126.94,0 0,-33.04 -41.2,0 0,-134.13 -44.55,0 0,134.13" />
        <path
           id="path3113"
           style="fill:#1064a7;fill-opacity:1;fill-rule:nonzero;stroke:none"
           d="m 2824.9,3804.36 117.84,0 0,-31.61 -73.29,0 0,-34.49 69.22,0 0,-31.61 -69.22,0 0,-37.85 75.92,0 0,-31.61 -120.47,0 0,167.17" />
        <path
           id="path3115"
           style="fill:#1064a7;fill-opacity:1;fill-rule:nonzero;stroke:none"
           d="m 3111.84,3641.02 c -12.7,-3.11 -26.83,-6.7 -49.58,-6.7 -44.55,0 -96.05,22.5 -96.05,85.74 0,58.2 40.72,87.19 95.8,87.19 17.01,0 33.54,-3.84 49.58,-8.62 l -3.59,-36.18 c -14.37,7.91 -28.27,11.74 -43.59,11.74 -31.62,0 -52.21,-22.99 -52.21,-54.13 0,-32.81 23.23,-52.7 55.8,-52.7 14.62,0 29.46,3.84 41.68,8.62 l 2.16,-34.96" />
        <path
           id="path3117"
           style="fill:#1064a7;fill-opacity:1;fill-rule:nonzero;stroke:none"
           d="m 3132.19,3804.36 44.55,0 0,-63.94 52.69,0 0,63.94 44.55,0 0,-167.17 -44.55,0 0,71.61 -52.69,0 0,-71.61 -44.55,0 0,167.17" />
        <path
           id="path3119"
           style="fill:#1064a7;fill-opacity:1;fill-rule:nonzero;stroke:none"
           d="m 3305.83,3804.36 56.77,0 56.52,-113.52 0.49,0 -0.72,113.52 40.71,0 0,-167.17 -55.32,0 -58.45,114.25 -0.48,0 1.45,-114.25 -40.97,0 0,167.17" />
        <path
           id="path3121"
           style="fill:#1064a7;fill-opacity:1;fill-rule:nonzero;stroke:none"
           d="m 3531.22,3720.78 c 0,28.98 10.77,53.41 37.84,53.41 27.07,0 37.84,-24.43 37.84,-53.41 0,-27.55 -10.77,-53.42 -37.84,-53.42 -27.07,0 -37.84,25.87 -37.84,53.42 z m -45.99,0 c 0,-53.17 29.22,-86.46 83.83,-86.46 54.61,0 83.83,33.29 83.83,86.46 0,53.65 -28.74,86.47 -83.83,86.47 -55.08,0 -83.83,-32.82 -83.83,-86.47" />
        <path
           id="path3123"
           style="fill:#1064a7;fill-opacity:1;fill-rule:nonzero;stroke:none"
           d="m 3677.8,3804.36 44.56,0 0,-134.11 68.97,0 0,-33.06 -113.53,0 0,167.17" />
        <path
           id="path3125"
           style="fill:#1064a7;fill-opacity:1;fill-rule:nonzero;stroke:none"
           d="m 3850.73,3720.78 c 0,28.98 10.79,53.41 37.84,53.41 27.07,0 37.85,-24.43 37.85,-53.41 0,-27.55 -10.78,-53.42 -37.85,-53.42 -27.05,0 -37.84,25.87 -37.84,53.42 z m -45.98,0 c 0,-53.17 29.21,-86.46 83.82,-86.46 54.61,0 83.83,33.29 83.83,86.46 0,53.65 -28.74,86.47 -83.83,86.47 -55.09,0 -83.82,-32.82 -83.82,-86.47" />
        <path
           id="path3127"
           style="fill:#1064a7;fill-opacity:1;fill-rule:nonzero;stroke:none"
           d="m 4151.81,3641.98 c -28.27,-7.18 -49.35,-7.66 -64.68,-7.66 -44.55,0 -96.04,22.5 -96.04,85.74 0,63 44.31,87.19 105.62,87.19 11.02,0 34.26,-1.2 50.55,-7.44 l -3.6,-36.4 c -13.89,8.14 -30.18,10.78 -40.72,10.78 -36.16,0 -65.87,-15.09 -65.87,-54.13 0,-32.81 23.23,-52.7 55.81,-52.7 5.99,0 11.74,0.96 15.81,2.89 l 0,33.04 -26.11,0 0,31.62 69.23,0 0,-92.93" />
        <path
           id="path3129"
           style="fill:#1064a7;fill-opacity:1;fill-rule:nonzero;stroke:none"
           d="m 4232.52,3700.18 -61.8,104.18 51.26,0 32.82,-67.06 32.33,67.06 51.26,0 -61.32,-104.18 0,-62.99 -44.55,0 0,62.99" />
      </g>
    </g>
  </g>
</svg>
