<?xml version="1.0" encoding="UTF-8" standalone="no"?>
<!-- Created with Inkscape (http://www.inkscape.org/) -->

<svg
   xmlns:dc="http://purl.org/dc/elements/1.1/"
   xmlns:cc="http://creativecommons.org/ns#"
   xmlns:rdf="http://www.w3.org/1999/02/22-rdf-syntax-ns#"
   xmlns:svg="http://www.w3.org/2000/svg"
   xmlns="http://www.w3.org/2000/svg"
   xmlns:xlink="http://www.w3.org/1999/xlink"
   xmlns:sodipodi="http://sodipodi.sourceforge.net/DTD/sodipodi-0.dtd"
   xmlns:inkscape="http://www.inkscape.org/namespaces/inkscape"
   id="svg2816"
   version="1.1"
   inkscape:version="0.47 r22583"
   width="640"
   height="340"
   sodipodi:docname="splash2.svg"
   enable-background="new"
   inkscape:export-filename="C:\Users\Robert\Documents\Jobbsaker\Subversion\Hopsan\trunk\HOPSAN++\Hopsangui\splash.png"
   inkscape:export-xdpi="90"
   inkscape:export-ydpi="90">
  <metadata
     id="metadata2822">
    <rdf:RDF>
      <cc:Work
         rdf:about="">
        <dc:format>image/svg+xml</dc:format>
        <dc:type
           rdf:resource="http://purl.org/dc/dcmitype/StillImage" />
        <dc:title></dc:title>
      </cc:Work>
    </rdf:RDF>
  </metadata>
  <defs
     id="defs2820">
    <linearGradient
       id="linearGradient3602">
      <stop
         style="stop-color:#6397ba;stop-opacity:0.82352942;"
         offset="0"
         id="stop3604" />
      <stop
         style="stop-color:#d6fff5;stop-opacity:0.74509805;"
         offset="1"
         id="stop3606" />
    </linearGradient>
    <inkscape:perspective
       sodipodi:type="inkscape:persp3d"
       inkscape:vp_x="0 : 0.5 : 1"
       inkscape:vp_y="0 : 1000 : 0"
       inkscape:vp_z="1 : 0.5 : 1"
       inkscape:persp3d-origin="0.5 : 0.33333333 : 1"
       id="perspective2824" />
    <linearGradient
       inkscape:collect="always"
       xlink:href="#linearGradient3602"
       id="linearGradient3608"
       x1="284.41525"
       y1="446.73306"
       x2="637.77972"
       y2="165.19067"
       gradientUnits="userSpaceOnUse"
       gradientTransform="matrix(1,0,0,0.97808339,0,8.4297305)" />
    <inkscape:perspective
       id="perspective3630"
       inkscape:persp3d-origin="0.5 : 0.33333333 : 1"
       inkscape:vp_z="1 : 0.5 : 1"
       inkscape:vp_y="0 : 1000 : 0"
       inkscape:vp_x="0 : 0.5 : 1"
       sodipodi:type="inkscape:persp3d" />
    <inkscape:perspective
       id="perspective3644"
       inkscape:persp3d-origin="0.5 : 0.33333333 : 1"
       inkscape:vp_z="1 : 0.5 : 1"
       inkscape:vp_y="0 : 1000 : 0"
       inkscape:vp_x="0 : 0.5 : 1"
       sodipodi:type="inkscape:persp3d" />
    <inkscape:perspective
       id="perspective3658"
       inkscape:persp3d-origin="0.5 : 0.33333333 : 1"
       inkscape:vp_z="1 : 0.5 : 1"
       inkscape:vp_y="0 : 1000 : 0"
       inkscape:vp_x="0 : 0.5 : 1"
       sodipodi:type="inkscape:persp3d" />
    <filter
       id="filter3870"
       inkscape:label="Cross-smooth"
       inkscape:menu="Blurs"
       inkscape:menu-tooltip="Blur inner borders and intersections"
       color-interpolation-filters="sRGB">
      <feGaussianBlur
         id="feGaussianBlur3872"
         stdDeviation="3" />
      <feColorMatrix
         id="feColorMatrix3874"
         result="fbSourceGraphic"
         values="1 0 0 0 0 0 1 0 0 0 0 0 1 0 0 0 0 0 6 -2.5 " />
    </filter>
    <inkscape:perspective
       id="perspective3894"
       inkscape:persp3d-origin="0.5 : 0.33333333 : 1"
       inkscape:vp_z="1 : 0.5 : 1"
       inkscape:vp_y="0 : 1000 : 0"
       inkscape:vp_x="0 : 0.5 : 1"
       sodipodi:type="inkscape:persp3d" />
    <filter
       id="filter3870-3"
       inkscape:label="Cross-smooth"
       inkscape:menu="Blurs"
       inkscape:menu-tooltip="Blur inner borders and intersections"
       color-interpolation-filters="sRGB">
      <feGaussianBlur
         id="feGaussianBlur3872-1"
         stdDeviation="3" />
      <feColorMatrix
         id="feColorMatrix3874-6"
         result="fbSourceGraphic"
         values="1 0 0 0 0 0 1 0 0 0 0 0 1 0 0 0 0 0 6 -2.5 " />
    </filter>
    <inkscape:perspective
       id="perspective3925"
       inkscape:persp3d-origin="0.5 : 0.33333333 : 1"
       inkscape:vp_z="1 : 0.5 : 1"
       inkscape:vp_y="0 : 1000 : 0"
       inkscape:vp_x="0 : 0.5 : 1"
       sodipodi:type="inkscape:persp3d" />
    <filter
       id="filter3870-3-8"
       inkscape:label="Cross-smooth"
       inkscape:menu="Blurs"
       inkscape:menu-tooltip="Blur inner borders and intersections"
       color-interpolation-filters="sRGB">
      <feGaussianBlur
         id="feGaussianBlur3872-1-8"
         stdDeviation="3" />
      <feColorMatrix
         id="feColorMatrix3874-6-2"
         result="fbSourceGraphic"
         values="1 0 0 0 0 0 1 0 0 0 0 0 1 0 0 0 0 0 6 -2.5 " />
    </filter>
    <inkscape:perspective
       id="perspective3956"
       inkscape:persp3d-origin="0.5 : 0.33333333 : 1"
       inkscape:vp_z="1 : 0.5 : 1"
       inkscape:vp_y="0 : 1000 : 0"
       inkscape:vp_x="0 : 0.5 : 1"
       sodipodi:type="inkscape:persp3d" />
    <linearGradient
       inkscape:collect="always"
       xlink:href="#linearGradient3602-7"
       id="linearGradient3608-7"
       x1="284.41525"
       y1="446.73306"
       x2="637.77972"
       y2="165.19067"
       gradientUnits="userSpaceOnUse"
       gradientTransform="matrix(1,0,0,0.97808339,0,8.4297305)" />
    <linearGradient
       id="linearGradient3602-7">
      <stop
         style="stop-color:#6397ba;stop-opacity:0.82352942;"
         offset="0"
         id="stop3604-1" />
      <stop
         style="stop-color:#d6fff5;stop-opacity:0.74509805;"
         offset="1"
         id="stop3606-2" />
    </linearGradient>
    <linearGradient
       y2="165.19067"
       x2="637.77972"
       y1="446.73306"
       x1="284.41525"
       gradientTransform="matrix(1.0034813,0,0,0.97808339,-1.3429401e-5,8.4297473)"
       gradientUnits="userSpaceOnUse"
       id="linearGradient3971"
       xlink:href="#linearGradient3602-7"
       inkscape:collect="always" />
    <inkscape:perspective
       id="perspective4028"
       inkscape:persp3d-origin="0.5 : 0.33333333 : 1"
       inkscape:vp_z="1 : 0.5 : 1"
       inkscape:vp_y="0 : 1000 : 0"
       inkscape:vp_x="0 : 0.5 : 1"
       sodipodi:type="inkscape:persp3d" />
    <inkscape:perspective
       id="perspective4042"
       inkscape:persp3d-origin="0.5 : 0.33333333 : 1"
       inkscape:vp_z="1 : 0.5 : 1"
       inkscape:vp_y="0 : 1000 : 0"
       inkscape:vp_x="0 : 0.5 : 1"
       sodipodi:type="inkscape:persp3d" />
    <inkscape:perspective
       id="perspective4056"
       inkscape:persp3d-origin="0.5 : 0.33333333 : 1"
       inkscape:vp_z="1 : 0.5 : 1"
       inkscape:vp_y="0 : 1000 : 0"
       inkscape:vp_x="0 : 0.5 : 1"
       sodipodi:type="inkscape:persp3d" />
    <inkscape:perspective
       id="perspective4070"
       inkscape:persp3d-origin="0.5 : 0.33333333 : 1"
       inkscape:vp_z="1 : 0.5 : 1"
       inkscape:vp_y="0 : 1000 : 0"
       inkscape:vp_x="0 : 0.5 : 1"
       sodipodi:type="inkscape:persp3d" />
    <filter
       id="filter4076"
       inkscape:label="Cross-smooth"
       inkscape:menu="Blurs"
       inkscape:menu-tooltip="Blur inner borders and intersections"
       color-interpolation-filters="sRGB">
      <feGaussianBlur
         id="feGaussianBlur4078"
         stdDeviation="3" />
      <feColorMatrix
         id="feColorMatrix4080"
         result="fbSourceGraphic"
         values="1 0 0 0 0 0 1 0 0 0 0 0 1 0 0 0 0 0 6 -2.5 " />
    </filter>
    <inkscape:perspective
       id="perspective2916"
       inkscape:persp3d-origin="0.5 : 0.33333333 : 1"
       inkscape:vp_z="1 : 0.5 : 1"
       inkscape:vp_y="0 : 1000 : 0"
       inkscape:vp_x="0 : 0.5 : 1"
       sodipodi:type="inkscape:persp3d" />
    <inkscape:perspective
       id="perspective2945"
       inkscape:persp3d-origin="0.5 : 0.33333333 : 1"
       inkscape:vp_z="1 : 0.5 : 1"
       inkscape:vp_y="0 : 1000 : 0"
       inkscape:vp_x="0 : 0.5 : 1"
       sodipodi:type="inkscape:persp3d" />
  </defs>
  <sodipodi:namedview
     pagecolor="#ffffff"
     bordercolor="#666666"
     borderopacity="1"
     objecttolerance="10"
     gridtolerance="10"
     guidetolerance="10"
     inkscape:pageopacity="0"
     inkscape:pageshadow="2"
     inkscape:window-width="1680"
     inkscape:window-height="954"
     id="namedview2818"
     showgrid="false"
     inkscape:zoom="0.69616519"
     inkscape:cx="787.94711"
     inkscape:cy="214.132"
     inkscape:window-x="-8"
     inkscape:window-y="-8"
     inkscape:window-maximized="1"
     inkscape:current-layer="layer2"
     inkscape:snap-page="true" />
  <g
     inkscape:groupmode="layer"
     id="layer1"
     inkscape:label="Layer"
     style="opacity:0.66228069;display:inline">
    <image
       y="-82.886467"
       x="-14.364407"
       id="image4072"
       height="341.78137"
       width="748.82208"
       xlink:href="file:///C:/Users/Robert/Documents/Jobbsaker/Subversion/Hopsan/trunk/HOPSAN++/HopsanGUI/componentData/hydraulic/volumes/inkscape_pasted_image_20100328_115041.png"
       style="filter:url(#filter4076)" />
  </g>
  <g
     inkscape:groupmode="layer"
     id="layer2"
     inkscape:label="Layer#1"
     style="display:inline">
    <rect
       style="fill:url(#linearGradient3971);fill-opacity:1;stroke:none"
       id="rect2828"
       width="640"
       height="170"
       x="0"
       y="170" />
    <text
       xml:space="preserve"
       style="font-size:80px;font-style:normal;font-weight:normal;fill:#000000;fill-opacity:1;stroke:none;font-family:Bitstream Vera Sans"
       x="27.29237"
       y="169.02345"
       id="text3610"><tspan
         sodipodi:role="line"
         id="tspan3612"
         x="27.29237"
         y="169.02345">HOPSAN </tspan></text>
    <text
       xml:space="preserve"
       style="font-size:40px;font-style:normal;font-weight:normal;fill:#000000;fill-opacity:1;stroke:none;font-family:Bitstream Vera Sans"
       x="537.22876"
       y="169.51173"
       id="text3618"><tspan
         sodipodi:role="line"
         id="tspan3620"
         x="537.22876"
         y="169.51173">0.1.2</tspan></text>
    <g
       transform="matrix(0.42890742,0,0,-0.42890742,10,330.368)"
       inkscape:label="FluMeS"
       id="g2918">
      <path
         id="path2920"
         style="fill:#2271be;fill-opacity:1;fill-rule:nonzero;stroke:none"
         d="m 24.853,104.35 0,-29.961 14.595,0 c 3.35,0 5.813,0.709 7.367,2.109 1.555,1.4 2.584,4.182 3.109,8.344 l 2.18,0 0,-25.78 -2.18,0 c -0.04,2.955 -0.444,5.123 -1.211,6.503 -0.767,1.401 -1.837,2.436 -3.21,3.127 -1.352,0.691 -3.371,1.036 -6.055,1.036 l -14.595,0 0,-23.938 c 0,-3.855 0.243,-6.407 0.768,-7.635 0.383,-0.939 1.211,-1.745 2.482,-2.417 1.736,-0.901 3.533,-1.361 5.431,-1.361 l 2.906,0 0,-2.072 -34.416,0 0,2.072 2.826,0 c 3.311,0 5.733,0.92 7.226,2.762 0.949,1.189 1.413,4.086 1.413,8.651 l 0,49.237 c 0,3.856 -0.262,6.407 -0.767,7.635 -0.403,0.94 -1.211,1.745 -2.422,2.417 -1.695,0.901 -3.512,1.342 -5.45,1.342 l -2.826,0 0,2.091 59.668,0 0.767,-16.745 -2.079,0 c -1.009,3.548 -2.22,6.157 -3.573,7.826 -1.352,1.668 -3.028,2.877 -5.026,3.625 -1.998,0.748 -5.066,1.132 -9.245,1.132 l -17.683,0 z m 64.978,7.864 0,-68.285 c 0,-3.222 0.262,-5.352 0.747,-6.407 0.484,-1.036 1.252,-1.84 2.281,-2.378 1.029,-0.537 2.927,-0.825 5.732,-0.825 l 0,-2.014 -26.544,0 0,2.014 c 2.483,0 4.179,0.249 5.067,0.748 0.908,0.48 1.635,1.286 2.139,2.417 0.505,1.113 0.768,3.26 0.768,6.445 l 0,46.764 c 0,5.811 -0.142,9.38 -0.404,10.702 -0.283,1.324 -0.726,2.245 -1.332,2.724 -0.626,0.499 -1.393,0.73 -2.342,0.73 -1.029,0 -2.321,-0.288 -3.896,-0.902 l -1.009,1.975 16.148,6.292 2.645,0 z m 62.514,-28.426 0,-31.189 c 0,-5.965 0.141,-9.61 0.444,-10.934 0.303,-1.342 0.767,-2.263 1.413,-2.781 0.666,-0.537 1.413,-0.786 2.281,-0.786 1.231,0 2.604,0.307 4.138,0.959 l 0.827,-1.976 -16.208,-6.349 -2.645,0 0,10.895 c -4.662,-4.795 -8.215,-7.807 -10.657,-9.034 -2.443,-1.247 -5.027,-1.861 -7.732,-1.861 -3.047,0 -5.672,0.825 -7.913,2.494 -2.22,1.668 -3.774,3.817 -4.642,6.445 -0.868,2.628 -1.292,6.33 -1.292,11.125 l 0,22.979 c 0,2.436 -0.282,4.123 -0.827,5.064 -0.546,0.939 -1.373,1.649 -2.463,2.167 -1.07,0.499 -3.048,0.729 -5.874,0.691 l 0,2.091 18.974,0 0,-34.45 c 0,-4.795 0.889,-7.941 2.644,-9.438 1.757,-1.514 3.876,-2.262 6.359,-2.262 1.696,0 3.613,0.517 5.753,1.514 2.16,1.017 4.703,2.954 7.67,5.794 l 0,29.174 c 0,2.916 -0.565,4.891 -1.695,5.927 -1.131,1.017 -3.452,1.573 -7.005,1.65 l 0,2.091 18.45,0 z m 58.84,-51.483 -30.984,64.123 0,-50.926 c 0,-4.681 0.525,-7.596 1.595,-8.766 1.453,-1.573 3.774,-2.359 6.923,-2.359 l 2.826,0 0,-2.072 -27.896,0 0,2.072 2.826,0 c 3.391,0 5.793,0.978 7.226,2.934 0.868,1.19 1.292,3.932 1.292,8.191 l 0,49.794 c 0,3.376 -0.384,5.812 -1.17,7.308 -0.566,1.093 -1.575,1.995 -3.049,2.724 -1.493,0.729 -3.855,1.093 -7.125,1.093 l 0,2.091 22.709,0 29.087,-59.634 28.622,59.634 22.709,0 0,-2.091 -2.785,0 c -3.431,0 -5.854,-0.978 -7.266,-2.916 -0.87,-1.208 -1.313,-3.931 -1.313,-8.209 l 0,-49.794 c 0,-4.681 0.565,-7.596 1.675,-8.766 1.454,-1.573 3.755,-2.359 6.904,-2.359 l 2.785,0 0,-2.072 -34.073,0 0,2.072 2.847,0 c 3.43,0 5.833,0.978 7.225,2.934 0.869,1.19 1.292,3.932 1.292,8.191 l 0,50.926 -30.923,-64.123 -1.959,0 z m 71.034,32.091 c -0.04,-7.654 1.897,-13.639 5.853,-17.993 3.937,-4.335 8.579,-6.503 13.888,-6.503 3.553,0 6.641,0.921 9.265,2.783 2.624,1.84 4.804,5.025 6.581,9.513 l 1.836,-1.113 c -0.827,-5.14 -3.23,-9.82 -7.207,-14.021 -3.995,-4.22 -8.982,-6.33 -14.957,-6.33 -6.519,0 -12.09,2.398 -16.712,7.212 -4.644,4.815 -6.945,11.298 -6.945,19.431 0,8.805 2.363,15.67 7.126,20.581 4.743,4.93 10.697,7.404 17.884,7.404 6.076,0 11.062,-1.899 14.958,-5.715 3.896,-3.799 5.853,-8.881 5.853,-15.249 l -37.423,0 z m 0,3.26 25.07,0 c -0.202,3.299 -0.606,5.62 -1.252,6.963 -0.969,2.09 -2.442,3.74 -4.4,4.948 -1.958,1.189 -3.997,1.804 -6.117,1.804 -3.27,0 -6.196,-1.209 -8.78,-3.625 -2.584,-2.417 -4.097,-5.793 -4.521,-10.09 z m 96.384,42.582 0,-26.355 -2.179,0 c -0.727,5.064 -1.998,9.092 -3.815,12.085 -1.838,3.01 -4.462,5.389 -7.852,7.135 -3.392,1.765 -6.884,2.647 -10.517,2.647 -4.097,0 -7.489,-1.189 -10.174,-3.568 -2.684,-2.378 -4.016,-5.083 -4.016,-8.114 0,-2.32 0.847,-4.45 2.543,-6.348 2.442,-2.82 8.256,-6.56 17.44,-11.241 7.489,-3.817 12.616,-6.751 15.341,-8.804 2.745,-2.033 4.865,-4.449 6.338,-7.212 1.473,-2.781 2.221,-5.677 2.221,-8.708 0,-5.774 -2.362,-10.741 -7.065,-14.923 -4.723,-4.182 -10.779,-6.272 -18.187,-6.272 -2.341,0 -4.522,0.172 -6.581,0.517 -1.211,0.173 -3.754,0.863 -7.589,2.033 -3.835,1.19 -6.278,1.784 -7.308,1.784 -0.988,0 -1.756,-0.287 -2.342,-0.843 -0.564,-0.557 -0.988,-1.727 -1.27,-3.491 l -2.181,0 0,26.125 2.181,0 c 1.028,-5.467 2.422,-9.553 4.157,-12.277 1.736,-2.704 4.381,-4.968 7.953,-6.77 3.553,-1.785 7.469,-2.686 11.729,-2.686 4.924,0 8.82,1.228 11.686,3.702 2.847,2.475 4.28,5.39 4.28,8.766 0,1.88 -0.545,3.76 -1.615,5.678 -1.09,1.918 -2.785,3.682 -5.066,5.333 -1.534,1.13 -5.734,3.509 -12.596,7.172 -6.863,3.645 -11.728,6.561 -14.635,8.728 -2.907,2.187 -5.087,4.584 -6.6,7.193 -1.493,2.628 -2.24,5.524 -2.24,8.67 0,5.467 2.2,10.166 6.62,14.117 4.421,3.952 10.032,5.927 16.855,5.927 4.259,0 8.78,-0.978 13.544,-2.973 2.2,-0.939 3.775,-1.4 4.663,-1.4 1.029,0 1.877,0.288 2.524,0.863 0.645,0.595 1.171,1.765 1.574,3.51 l 2.179,0" />
      <path
         id="path2922"
         style="fill:#2271be;fill-opacity:1;fill-rule:nonzero;stroke:none"
         d="m 0,143 383.999,0 0,-25.068 L 0,117.932 0,143 z" />
      <path
         id="path2924"
         style="fill:#ffffff;fill-opacity:1;fill-rule:nonzero;stroke:none"
         d="m 52.419,123.796 0,15.685 9.863,0 0,-1.851 -7.927,0 0,-4.858 6.858,0 0,-1.851 -6.858,0 0,-7.125 -1.936,0 z m 12.106,15.685 1.793,0 0,-15.685 -1.793,0 0,15.685 z m 11.518,-15.685 0,1.669 c -0.827,-1.285 -1.947,-1.925 -3.363,-1.925 -0.622,0 -1.208,0.128 -1.749,0.384 -0.541,0.256 -0.943,0.581 -1.205,0.968 -0.266,0.391 -0.449,0.865 -0.555,1.428 -0.071,0.38 -0.109,0.978 -0.109,1.801 l 0,7.037 1.794,0 0,-6.3 c 0,-1.008 0.037,-1.684 0.109,-2.034 0.116,-0.508 0.353,-0.902 0.718,-1.195 0.368,-0.288 0.82,-0.43 1.358,-0.43 0.538,0 1.041,0.146 1.515,0.442 0.473,0.295 0.806,0.701 1,1.208 0.197,0.512 0.296,1.253 0.296,2.221 l 0,6.088 1.794,0 0,-11.362 -1.603,0 z m 4.425,15.685 1.797,0 0,-2.217 -1.797,0 0,2.217 z m 0,-4.323 1.797,0 0,-11.361 -1.797,0 0,11.361 z m 11.398,-11.362 0,1.435 c -0.67,-1.128 -1.658,-1.691 -2.961,-1.691 -0.845,0 -1.62,0.249 -2.328,0.749 -0.708,0.497 -1.256,1.195 -1.647,2.093 -0.389,0.895 -0.582,1.921 -0.582,3.086 0,1.132 0.177,2.162 0.527,3.086 0.354,0.924 0.881,1.632 1.586,2.121 0.704,0.493 1.494,0.741 2.365,0.741 0.637,0 1.206,-0.145 1.702,-0.434 0.501,-0.288 0.906,-0.665 1.219,-1.129 l 0,5.628 1.783,0 0,-15.685 -1.664,0 z m -5.674,5.672 c 0,-1.457 0.286,-2.545 0.858,-3.265 0.572,-0.719 1.245,-1.081 2.025,-1.081 0.782,0 1.45,0.347 1.998,1.034 0.548,0.686 0.823,1.738 0.823,3.151 0,1.556 -0.279,2.695 -0.837,3.422 -0.558,0.73 -1.246,1.092 -2.066,1.092 -0.796,0 -1.463,-0.351 -1.997,-1.049 -0.535,-0.697 -0.804,-1.799 -0.804,-3.304 z m 24.193,-3.82 c -0.593,-0.709 -1.24,-1.238 -1.937,-1.588 -0.698,-0.355 -1.453,-0.53 -2.263,-0.53 -1.494,0 -2.682,0.54 -3.56,1.625 -0.712,0.884 -1.065,1.873 -1.065,2.966 0,0.967 0.289,1.843 0.87,2.625 0.583,0.781 1.451,1.468 2.608,2.06 -0.657,0.81 -1.096,1.471 -1.314,1.979 -0.221,0.504 -0.33,0.993 -0.33,1.464 0,0.942 0.343,1.761 1.031,2.458 0.687,0.694 1.555,1.041 2.596,1.041 0.998,0 1.815,-0.329 2.451,-0.982 0.634,-0.658 0.95,-1.447 0.95,-2.367 0,-1.49 -0.919,-2.764 -2.76,-3.82 l 2.62,-3.582 c 0.299,0.628 0.535,1.355 0.698,2.18 l 1.865,-0.428 c -0.32,-1.369 -0.749,-2.494 -1.296,-3.377 0.674,-0.957 1.432,-1.76 2.283,-2.411 l -1.205,-1.529 c -0.725,0.5 -1.474,1.237 -2.242,2.216 z m -3.653,8.173 c 0.78,0.493 1.284,0.924 1.512,1.296 0.231,0.369 0.343,0.778 0.343,1.231 0,0.533 -0.156,0.971 -0.473,1.307 -0.316,0.34 -0.708,0.512 -1.181,0.512 -0.486,0 -0.888,-0.169 -1.211,-0.504 -0.324,-0.336 -0.484,-0.746 -0.484,-1.231 0,-0.241 0.058,-0.497 0.174,-0.767 0.116,-0.267 0.293,-0.548 0.524,-0.847 l 0.796,-0.997 z m 2.526,-6.654 -3.291,4.376 c -0.97,-0.622 -1.627,-1.199 -1.964,-1.729 -0.34,-0.532 -0.511,-1.058 -0.511,-1.577 0,-0.635 0.238,-1.296 0.709,-1.979 0.472,-0.687 1.139,-1.027 2.004,-1.027 0.538,0 1.096,0.179 1.671,0.541 0.576,0.358 1.035,0.826 1.382,1.395 z m 12.232,-3.371 0,15.685 2.914,0 3.457,-11.105 c 0.32,-1.034 0.555,-1.808 0.698,-2.322 0.167,0.57 0.425,1.409 0.779,2.516 l 3.499,10.911 2.604,0 0,-15.685 -1.865,0 0,13.129 -4.248,-13.129 -1.746,0 -4.227,13.352 0,-13.352 -1.865,0 z m 24.091,3.66 1.854,-0.245 c -0.292,-1.165 -0.834,-2.067 -1.624,-2.71 -0.792,-0.639 -1.803,-0.961 -3.032,-0.961 -1.549,0 -2.777,0.512 -3.682,1.534 -0.91,1.023 -1.362,2.458 -1.362,4.306 0,1.914 0.459,3.396 1.375,4.452 0.919,1.055 2.107,1.584 3.57,1.584 1.416,0 2.573,-0.518 3.468,-1.551 0.899,-1.033 1.349,-2.491 1.349,-4.365 0,-0.116 -0.004,-0.288 -0.011,-0.514 l -7.896,0 c 0.065,-1.249 0.395,-2.206 0.987,-2.867 0.592,-0.664 1.327,-0.997 2.213,-0.997 0.656,0 1.218,0.187 1.684,0.559 0.466,0.369 0.834,0.96 1.107,1.775 z m -5.893,3.115 5.913,0 c -0.079,0.953 -0.307,1.672 -0.678,2.147 -0.571,0.741 -1.314,1.114 -2.222,1.114 -0.824,0 -1.518,-0.296 -2.08,-0.888 -0.561,-0.591 -0.871,-1.384 -0.933,-2.373 z m 10.011,-6.775 0,15.685 1.797,0 0,-8.943 4.247,4.62 2.321,0 -4.046,-4.215 4.458,-7.147 -2.215,0 -3.499,5.81 -1.266,-1.307 0,-4.503 -1.797,0 z m 17.112,1.403 c -0.667,-0.606 -1.307,-1.034 -1.919,-1.286 -0.616,-0.248 -1.276,-0.373 -1.981,-0.373 -1.163,0 -2.056,0.304 -2.682,0.914 -0.623,0.61 -0.936,1.391 -0.936,2.337 0,0.559 0.116,1.066 0.354,1.526 0.235,0.461 0.544,0.829 0.926,1.107 0.384,0.278 0.813,0.489 1.293,0.632 0.35,0.098 0.882,0.197 1.593,0.288 1.45,0.187 2.518,0.405 3.203,0.665 0.006,0.263 0.01,0.43 0.01,0.5 0,0.785 -0.171,1.34 -0.51,1.658 -0.457,0.438 -1.141,0.654 -2.042,0.654 -0.845,0 -1.468,-0.157 -1.872,-0.475 -0.402,-0.318 -0.698,-0.88 -0.892,-1.687 l -1.753,0.259 c 0.16,0.804 0.422,1.457 0.786,1.951 0.364,0.496 0.895,0.879 1.586,1.146 0.691,0.266 1.491,0.401 2.403,0.401 0.905,0 1.637,-0.116 2.202,-0.343 0.565,-0.229 0.98,-0.514 1.249,-0.861 0.265,-0.347 0.449,-0.781 0.558,-1.312 0.058,-0.328 0.089,-0.92 0.089,-1.775 l 0,-2.566 c 0,-1.793 0.037,-2.926 0.116,-3.397 0.075,-0.475 0.227,-0.931 0.452,-1.366 l -1.875,0 c -0.184,0.399 -0.306,0.866 -0.358,1.403 z m -0.149,4.301 c -0.654,-0.288 -1.63,-0.529 -2.931,-0.73 -0.738,-0.113 -1.262,-0.241 -1.566,-0.383 -0.306,-0.142 -0.544,-0.35 -0.708,-0.628 -0.166,-0.274 -0.251,-0.577 -0.251,-0.913 0,-0.515 0.184,-0.942 0.544,-1.286 0.361,-0.339 0.892,-0.511 1.59,-0.511 0.691,0 1.307,0.16 1.845,0.486 0.537,0.325 0.936,0.77 1.188,1.333 0.193,0.434 0.289,1.077 0.289,1.924 l 0,0.708 z m 4.598,-5.704 0,11.362 1.614,0 0,-1.615 c 0.778,1.249 1.902,1.873 3.369,1.873 0.639,0 1.225,-0.123 1.759,-0.368 0.538,-0.248 0.936,-0.57 1.202,-0.971 0.269,-0.399 0.453,-0.873 0.561,-1.421 0.065,-0.358 0.099,-0.983 0.099,-1.873 l 0,-6.987 -1.797,0 0,6.913 c 0,0.782 -0.068,1.37 -0.208,1.761 -0.139,0.387 -0.387,0.697 -0.741,0.927 -0.358,0.234 -0.773,0.351 -1.253,0.351 -0.765,0 -1.423,-0.263 -1.981,-0.782 -0.555,-0.522 -0.83,-1.508 -0.83,-2.965 l 0,-6.205 -1.794,0 z m 11.364,15.685 1.797,0 0,-2.217 -1.797,0 0,2.217 z m 0,-4.323 1.797,0 0,-11.361 -1.797,0 0,11.361 z m 3.812,-7.969 1.774,0.299 c 0.099,-0.762 0.378,-1.347 0.833,-1.756 0.453,-0.405 1.09,-0.61 1.91,-0.61 0.824,0 1.437,0.183 1.834,0.541 0.398,0.361 0.6,0.785 0.6,1.267 0,0.438 -0.178,0.778 -0.532,1.03 -0.245,0.171 -0.857,0.387 -1.834,0.649 -1.314,0.358 -2.23,0.665 -2.736,0.928 -0.507,0.26 -0.896,0.621 -1.158,1.081 -0.262,0.461 -0.395,0.968 -0.395,1.523 0,0.507 0.11,0.975 0.328,1.406 0.214,0.434 0.509,0.792 0.88,1.078 0.28,0.219 0.661,0.408 1.141,0.562 0.483,0.153 1,0.229 1.552,0.229 0.83,0 1.559,-0.13 2.188,-0.386 0.63,-0.256 1.093,-0.603 1.392,-1.041 0.3,-0.442 0.504,-1.026 0.616,-1.761 l -1.753,-0.258 c -0.081,0.584 -0.312,1.04 -0.693,1.369 -0.382,0.328 -0.923,0.493 -1.621,0.493 -0.823,0 -1.412,-0.147 -1.763,-0.438 -0.353,-0.292 -0.531,-0.636 -0.531,-1.027 0,-0.252 0.075,-0.474 0.222,-0.675 0.146,-0.209 0.373,-0.376 0.687,-0.515 0.181,-0.069 0.708,-0.234 1.586,-0.49 1.269,-0.364 2.154,-0.66 2.655,-0.894 0.504,-0.23 0.899,-0.57 1.184,-1.012 0.286,-0.442 0.429,-0.99 0.429,-1.647 0,-0.642 -0.177,-1.245 -0.524,-1.815 -0.351,-0.566 -0.855,-1.004 -1.512,-1.315 -0.656,-0.31 -1.402,-0.464 -2.232,-0.464 -1.378,0 -2.426,0.307 -3.148,0.921 -0.722,0.613 -1.181,1.523 -1.379,2.728 z m 10.936,-3.393 0,15.685 1.797,0 0,-8.943 4.248,4.62 2.32,0 -4.047,-4.215 4.459,-7.147 -2.215,0 -3.499,5.81 -1.266,-1.307 0,-4.503 -1.797,0 z m 15.448,5.04 1.825,0.171 c 0.085,-0.784 0.286,-1.427 0.602,-1.931 0.317,-0.504 0.807,-0.909 1.471,-1.22 0.663,-0.311 1.412,-0.464 2.243,-0.464 0.738,0 1.389,0.117 1.953,0.351 0.565,0.237 0.986,0.558 1.263,0.967 0.275,0.413 0.415,0.859 0.415,1.344 0,0.494 -0.133,0.921 -0.402,1.289 -0.265,0.369 -0.705,0.676 -1.314,0.925 -0.395,0.164 -1.259,0.419 -2.604,0.766 -1.34,0.347 -2.283,0.673 -2.821,0.98 -0.697,0.39 -1.219,0.879 -1.562,1.46 -0.34,0.581 -0.51,1.23 -0.51,1.954 0,0.788 0.208,1.529 0.626,2.217 0.419,0.689 1.031,1.212 1.835,1.569 0.805,0.355 1.697,0.534 2.681,0.534 1.086,0 2.039,-0.186 2.87,-0.563 0.827,-0.372 1.463,-0.923 1.909,-1.65 0.442,-0.727 0.684,-1.552 0.718,-2.472 l -1.855,-0.15 c -0.103,0.989 -0.438,1.742 -1.015,2.246 -0.575,0.507 -1.422,0.759 -2.545,0.759 -1.17,0 -2.022,-0.23 -2.559,-0.69 -0.535,-0.46 -0.804,-1.015 -0.804,-1.662 0,-0.566 0.191,-1.029 0.569,-1.391 0.375,-0.365 1.344,-0.738 2.917,-1.117 1.572,-0.384 2.651,-0.716 3.236,-1.001 0.851,-0.424 1.48,-0.956 1.886,-1.6 0.405,-0.646 0.605,-1.391 0.605,-2.231 0,-0.836 -0.221,-1.621 -0.667,-2.359 -0.445,-0.738 -1.085,-1.311 -1.919,-1.723 -0.834,-0.41 -1.773,-0.614 -2.815,-0.614 -1.324,0 -2.433,0.204 -3.325,0.621 -0.895,0.412 -1.596,1.034 -2.107,1.866 -0.507,0.829 -0.775,1.771 -0.8,2.819 z m 13.968,-9.415 -0.201,1.808 c 0.395,-0.113 0.735,-0.171 1.028,-0.171 0.399,0 0.718,0.073 0.956,0.215 0.242,0.142 0.437,0.34 0.589,0.599 0.116,0.19 0.297,0.668 0.548,1.431 0.034,0.11 0.089,0.267 0.16,0.471 l -4.015,11.384 1.932,0 2.206,-6.577 c 0.282,-0.837 0.541,-1.713 0.766,-2.633 0.207,0.884 0.452,1.745 0.738,2.589 l 2.264,6.621 1.794,0 -4.027,-11.555 c -0.432,-1.249 -0.769,-2.107 -1.007,-2.579 -0.321,-0.634 -0.685,-1.098 -1.096,-1.395 -0.415,-0.295 -0.905,-0.445 -1.478,-0.445 -0.346,0 -0.731,0.08 -1.157,0.237 z m 9.574,7.768 1.774,0.299 c 0.098,-0.762 0.378,-1.347 0.834,-1.756 0.452,-0.405 1.089,-0.61 1.909,-0.61 0.823,0 1.436,0.183 1.834,0.541 0.398,0.361 0.599,0.785 0.599,1.267 0,0.438 -0.177,0.778 -0.531,1.03 -0.245,0.171 -0.857,0.387 -1.834,0.649 -1.314,0.358 -2.229,0.665 -2.736,0.928 -0.508,0.26 -0.896,0.621 -1.157,1.081 -0.263,0.461 -0.396,0.968 -0.396,1.523 0,0.507 0.11,0.975 0.327,1.406 0.214,0.434 0.511,0.792 0.881,1.078 0.28,0.219 0.661,0.408 1.141,0.562 0.483,0.153 1,0.229 1.552,0.229 0.83,0 1.558,-0.13 2.188,-0.386 0.63,-0.256 1.093,-0.603 1.392,-1.041 0.3,-0.442 0.504,-1.026 0.616,-1.761 l -1.753,-0.258 c -0.081,0.584 -0.312,1.04 -0.693,1.369 -0.382,0.328 -0.923,0.493 -1.62,0.493 -0.825,0 -1.414,-0.147 -1.763,-0.438 -0.355,-0.292 -0.531,-0.636 -0.531,-1.027 0,-0.252 0.074,-0.474 0.22,-0.675 0.147,-0.209 0.375,-0.376 0.688,-0.515 0.18,-0.069 0.708,-0.234 1.586,-0.49 1.269,-0.364 2.154,-0.66 2.655,-0.894 0.504,-0.23 0.898,-0.57 1.184,-1.012 0.286,-0.442 0.429,-0.99 0.429,-1.647 0,-0.642 -0.178,-1.245 -0.524,-1.815 -0.351,-0.566 -0.855,-1.004 -1.512,-1.315 -0.656,-0.31 -1.402,-0.464 -2.232,-0.464 -1.378,0 -2.427,0.307 -3.149,0.921 -0.721,0.613 -1.18,1.523 -1.378,2.728 z m 14.847,-1.668 0.259,-1.703 c -0.504,-0.113 -0.957,-0.172 -1.356,-0.172 -0.653,0 -1.157,0.11 -1.517,0.333 -0.358,0.219 -0.61,0.511 -0.756,0.873 -0.147,0.357 -0.222,1.117 -0.222,2.271 l 0,6.537 -1.316,0 0,1.498 1.316,0 0,2.815 1.787,1.154 0,-3.969 1.805,0 0,-1.498 -1.805,0 0,-6.642 c 0,-0.552 0.031,-0.903 0.092,-1.06 0.065,-0.157 0.167,-0.281 0.31,-0.376 0.143,-0.091 0.347,-0.139 0.613,-0.139 0.201,0 0.463,0.026 0.79,0.078 z m 9.002,1.935 1.854,-0.245 c -0.292,-1.165 -0.834,-2.067 -1.624,-2.71 -0.793,-0.639 -1.802,-0.961 -3.032,-0.961 -1.548,0 -2.776,0.512 -3.682,1.534 -0.909,1.023 -1.362,2.458 -1.362,4.306 0,1.914 0.46,3.396 1.375,4.452 0.919,1.055 2.108,1.584 3.57,1.584 1.417,0 2.574,-0.518 3.469,-1.551 0.899,-1.033 1.348,-2.491 1.348,-4.365 0,-0.116 -0.003,-0.288 -0.01,-0.514 l -7.896,0 c 0.064,-1.249 0.394,-2.206 0.987,-2.867 0.592,-0.664 1.327,-0.997 2.212,-0.997 0.656,0 1.219,0.187 1.684,0.559 0.466,0.369 0.834,0.96 1.107,1.775 z m -5.892,3.115 5.912,0 c -0.078,0.953 -0.306,1.672 -0.677,2.147 -0.572,0.741 -1.314,1.114 -2.223,1.114 -0.823,0 -1.518,-0.296 -2.079,-0.888 -0.562,-0.591 -0.871,-1.384 -0.933,-2.373 z m 10.003,-6.775 0,11.362 1.603,0 0,-1.593 c 0.334,0.555 0.776,1.004 1.328,1.341 0.551,0.339 1.181,0.51 1.886,0.51 0.782,0 1.426,-0.174 1.926,-0.525 0.503,-0.351 0.858,-0.836 1.062,-1.465 0.84,1.326 1.93,1.99 3.27,1.99 1.052,0 1.859,-0.314 2.423,-0.938 0.566,-0.625 0.848,-1.585 0.848,-2.881 l 0,-7.801 -1.783,0 0,7.158 c 0,0.771 -0.059,1.326 -0.174,1.666 -0.119,0.336 -0.33,0.609 -0.633,0.817 -0.306,0.205 -0.667,0.311 -1.079,0.311 -0.745,0 -1.361,-0.267 -1.854,-0.8 -0.491,-0.529 -0.74,-1.381 -0.74,-2.549 l 0,-6.603 -1.793,0 0,7.381 c 0,0.858 -0.146,1.501 -0.439,1.928 -0.293,0.428 -0.769,0.643 -1.437,0.643 -0.503,0 -0.969,-0.143 -1.398,-0.431 -0.429,-0.285 -0.742,-0.702 -0.933,-1.249 -0.194,-0.551 -0.289,-1.344 -0.289,-2.377 l 0,-5.895 -1.794,0 z m 20.929,1.725 0.259,-1.703 c -0.504,-0.113 -0.957,-0.172 -1.356,-0.172 -0.653,0 -1.157,0.11 -1.517,0.333 -0.358,0.219 -0.61,0.511 -0.756,0.873 -0.147,0.357 -0.221,1.117 -0.221,2.271 l 0,6.537 -1.317,0 0,1.498 1.317,0 0,2.815 1.786,1.154 0,-3.969 1.805,0 0,-1.498 -1.805,0 0,-6.642 c 0,-0.552 0.032,-0.903 0.093,-1.06 0.064,-0.157 0.166,-0.281 0.309,-0.376 0.143,-0.091 0.347,-0.139 0.613,-0.139 0.201,0 0.463,0.026 0.79,0.078 z m 9.002,1.935 1.854,-0.245 c -0.292,-1.165 -0.834,-2.067 -1.623,-2.71 -0.793,-0.639 -1.803,-0.961 -3.032,-0.961 -1.549,0 -2.777,0.512 -3.682,1.534 -0.91,1.023 -1.362,2.458 -1.362,4.306 0,1.914 0.459,3.396 1.375,4.452 0.919,1.055 2.107,1.584 3.57,1.584 1.416,0 2.573,-0.518 3.468,-1.551 0.899,-1.033 1.348,-2.491 1.348,-4.365 0,-0.116 -0.003,-0.288 -0.01,-0.514 l -7.896,0 c 0.065,-1.249 0.394,-2.206 0.987,-2.867 0.592,-0.664 1.327,-0.997 2.212,-0.997 0.657,0 1.219,0.187 1.684,0.559 0.467,0.369 0.834,0.96 1.107,1.775 z m -5.892,3.115 5.912,0 c -0.078,0.953 -0.306,1.672 -0.677,2.147 -0.572,0.741 -1.314,1.114 -2.223,1.114 -0.823,0 -1.518,-0.296 -2.079,-0.888 -0.562,-0.591 -0.871,-1.384 -0.933,-2.373 z m 10.01,-6.775 0,15.685 1.797,0 0,-8.943 4.248,4.62 2.321,0 -4.047,-4.215 4.458,-7.147 -2.214,0 -3.499,5.81 -1.267,-1.307 0,-4.503 -1.797,0 z m 10.204,0 0,11.362 1.613,0 0,-1.615 c 0.78,1.249 1.903,1.873 3.37,1.873 0.639,0 1.225,-0.123 1.759,-0.368 0.538,-0.248 0.937,-0.57 1.202,-0.971 0.268,-0.399 0.453,-0.873 0.561,-1.421 0.064,-0.358 0.099,-0.983 0.099,-1.873 l 0,-6.987 -1.797,0 0,6.913 c 0,0.782 -0.069,1.37 -0.208,1.761 -0.139,0.387 -0.388,0.697 -0.741,0.927 -0.358,0.234 -0.773,0.351 -1.253,0.351 -0.766,0 -1.422,-0.263 -1.981,-0.782 -0.554,-0.522 -0.83,-1.508 -0.83,-2.965 l 0,-6.205 -1.794,0 z m 11.365,15.685 1.797,0 0,-2.217 -1.797,0 0,2.217 z m 0,-4.323 1.797,0 0,-11.361 -1.797,0 0,11.361 z m 4.537,-11.362 0,15.685 1.796,0 0,-8.943 4.248,4.62 2.321,0 -4.047,-4.215 4.459,-7.147 -2.216,0 -3.499,5.81 -1.266,-1.307 0,-4.503 -1.796,0" />
      <path
         id="path2926"
         style="fill:#2271be;fill-opacity:1;fill-rule:nonzero;stroke:none"
         d="m 0,25.926 383.999,0 0,-25.068 L 0,0.858 0,25.926 z" />
      <path
         id="path2928"
         style="fill:#ffffff;fill-opacity:1;fill-rule:nonzero;stroke:none"
         d="m 8.484,6.987 0,15.685 9.864,0 0,-1.852 -7.927,0 0,-4.857 6.858,0 0,-1.851 -6.858,0 0,-7.125 -1.937,0 z m 12.106,15.685 1.794,0 0,-15.685 -1.794,0 0,15.685 z m 11.518,-15.685 0,1.669 C 31.281,7.37 30.161,6.731 28.745,6.731 c -0.622,0 -1.208,0.128 -1.749,0.384 -0.541,0.255 -0.943,0.58 -1.205,0.968 -0.266,0.391 -0.449,0.865 -0.555,1.428 -0.071,0.38 -0.109,0.978 -0.109,1.799 l 0,7.038 1.794,0 0,-6.299 c 0,-1.008 0.037,-1.684 0.109,-2.034 0.116,-0.508 0.354,-0.903 0.718,-1.195 0.368,-0.288 0.82,-0.43 1.358,-0.43 0.538,0 1.041,0.145 1.515,0.441 0.473,0.296 0.806,0.701 1,1.209 0.197,0.512 0.296,1.253 0.296,2.221 l 0,6.087 1.794,0 0,-11.361 -1.603,0 z m 4.425,15.685 1.797,0 0,-2.217 -1.797,0 0,2.217 z m 0,-4.324 1.797,0 0,-11.36 -1.797,0 0,11.36 z m 11.398,-11.361 0,1.435 C 47.261,7.294 46.273,6.731 44.97,6.731 c -0.844,0 -1.62,0.248 -2.328,0.749 -0.708,0.497 -1.256,1.195 -1.647,2.093 -0.389,0.894 -0.582,1.92 -0.582,3.085 0,1.132 0.177,2.162 0.527,3.086 0.354,0.924 0.882,1.633 1.586,2.122 0.705,0.492 1.494,0.741 2.366,0.741 0.636,0 1.205,-0.145 1.701,-0.434 0.501,-0.289 0.906,-0.665 1.219,-1.129 l 0,5.628 1.783,0 0,-15.685 -1.664,0 z m -5.674,5.671 c 0,-1.457 0.286,-2.545 0.858,-3.264 0.572,-0.719 1.246,-1.082 2.025,-1.082 0.783,0 1.45,0.348 1.998,1.035 0.548,0.685 0.823,1.738 0.823,3.151 0,1.556 -0.279,2.694 -0.837,3.422 -0.558,0.73 -1.245,1.091 -2.066,1.091 -0.796,0 -1.463,-0.35 -1.998,-1.048 -0.534,-0.697 -0.803,-1.8 -0.803,-3.305 z M 66.45,8.839 C 65.857,8.13 65.21,7.601 64.513,7.25 63.815,6.895 63.06,6.721 62.249,6.721 c -1.493,0 -2.681,0.54 -3.559,1.625 -0.712,0.883 -1.066,1.873 -1.066,2.964 0,0.968 0.29,1.845 0.872,2.626 0.582,0.782 1.45,1.469 2.607,2.06 -0.657,0.811 -1.096,1.472 -1.314,1.98 -0.221,0.503 -0.331,0.993 -0.331,1.464 0,0.942 0.344,1.76 1.032,2.457 0.688,0.695 1.556,1.041 2.597,1.041 0.997,0 1.814,-0.328 2.451,-0.982 0.633,-0.657 0.949,-1.446 0.949,-2.366 0,-1.49 -0.919,-2.765 -2.76,-3.821 l 2.62,-3.581 c 0.3,0.627 0.535,1.354 0.698,2.179 L 68.911,13.94 C 68.59,12.57 68.162,11.446 67.614,10.562 68.288,9.605 69.047,8.803 69.897,8.151 L 68.692,6.622 c -0.724,0.5 -1.473,1.237 -2.242,2.217 z m -3.652,8.172 c 0.779,0.494 1.283,0.924 1.511,1.297 0.231,0.369 0.343,0.778 0.343,1.231 0,0.533 -0.156,0.971 -0.473,1.307 -0.316,0.339 -0.708,0.511 -1.181,0.511 -0.486,0 -0.888,-0.169 -1.211,-0.505 -0.324,-0.334 -0.483,-0.744 -0.483,-1.229 0,-0.241 0.057,-0.497 0.173,-0.768 0.116,-0.266 0.292,-0.547 0.524,-0.846 l 0.797,-0.998 z m 2.525,-6.654 -3.291,4.376 c -0.97,-0.621 -1.627,-1.198 -1.964,-1.728 -0.34,-0.532 -0.51,-1.059 -0.51,-1.577 0,-0.635 0.237,-1.297 0.708,-1.98 0.473,-0.686 1.139,-1.026 2.004,-1.026 0.538,0 1.096,0.18 1.671,0.541 0.576,0.357 1.035,0.825 1.382,1.394 z m 12.232,-3.37 0,15.685 2.914,0 3.457,-11.106 c 0.321,-1.033 0.555,-1.807 0.698,-2.322 0.167,0.569 0.425,1.409 0.779,2.517 l 3.499,10.911 2.604,0 0,-15.685 -1.865,0 0,13.128 -4.247,-13.128 -1.747,0 -4.227,13.351 0,-13.351 -1.865,0 z m 24.09,3.658 1.855,-0.244 c -0.293,-1.164 -0.834,-2.066 -1.624,-2.709 -0.793,-0.639 -1.803,-0.961 -3.032,-0.961 -1.548,0 -2.777,0.512 -3.682,1.535 -0.909,1.022 -1.362,2.457 -1.362,4.304 0,1.914 0.46,3.397 1.375,4.452 0.919,1.056 2.107,1.585 3.57,1.585 1.416,0 2.573,-0.518 3.468,-1.551 0.899,-1.034 1.348,-2.491 1.348,-4.365 0,-0.117 -0.003,-0.288 -0.009,-0.514 l -7.897,0 c 0.065,-1.249 0.395,-2.206 0.988,-2.867 0.591,-0.664 1.326,-0.998 2.212,-0.998 0.656,0 1.218,0.187 1.684,0.559 0.466,0.369 0.834,0.961 1.106,1.774 z m -5.891,3.117 5.912,0 c -0.079,0.952 -0.307,1.672 -0.678,2.147 -0.572,0.741 -1.313,1.113 -2.222,1.113 -0.824,0 -1.518,-0.295 -2.08,-0.887 -0.561,-0.592 -0.871,-1.384 -0.932,-2.373 z m 16.912,-2.612 1.763,-0.249 c -0.19,-1.303 -0.684,-2.326 -1.481,-3.063 -0.793,-0.737 -1.769,-1.107 -2.927,-1.107 -1.446,0 -2.614,0.508 -3.492,1.524 -0.881,1.014 -1.323,2.472 -1.323,4.37 0,1.228 0.19,2.302 0.567,3.222 0.382,0.92 0.957,1.61 1.733,2.07 0.773,0.46 1.617,0.69 2.526,0.69 1.151,0 2.092,-0.314 2.821,-0.938 0.732,-0.625 1.202,-1.509 1.409,-2.658 l -1.746,-0.289 c -0.166,0.763 -0.459,1.337 -0.881,1.723 -0.422,0.384 -0.933,0.577 -1.532,0.577 -0.905,0 -1.641,-0.347 -2.206,-1.045 -0.565,-0.693 -0.847,-1.792 -0.847,-3.296 0,-1.527 0.273,-2.637 0.821,-3.331 0.544,-0.69 1.255,-1.038 2.133,-1.038 0.705,0 1.29,0.235 1.764,0.699 0.473,0.464 0.772,1.175 0.898,2.139 z m 3.302,-4.163 0,15.685 1.793,0 0,-5.628 c 0.838,1.041 1.896,1.563 3.172,1.563 0.783,0 1.464,-0.167 2.043,-0.5 0.578,-0.329 0.993,-0.789 1.241,-1.374 0.249,-0.584 0.375,-1.434 0.375,-2.544 l 0,-7.202 -1.797,0 0,7.202 c 0,0.96 -0.194,1.662 -0.582,2.099 -0.388,0.439 -0.939,0.662 -1.651,0.662 -0.531,0 -1.031,-0.15 -1.501,-0.446 -0.469,-0.296 -0.803,-0.697 -1.001,-1.205 -0.2,-0.504 -0.299,-1.205 -0.299,-2.097 l 0,-6.215 -1.793,0 z m 18.266,1.403 c -0.667,-0.607 -1.307,-1.034 -1.92,-1.287 -0.616,-0.248 -1.275,-0.372 -1.98,-0.372 -1.164,0 -2.056,0.304 -2.682,0.913 -0.623,0.611 -0.936,1.392 -0.936,2.337 0,0.56 0.116,1.067 0.354,1.527 0.235,0.461 0.544,0.83 0.926,1.107 0.384,0.277 0.813,0.488 1.293,0.631 0.35,0.099 0.881,0.197 1.593,0.289 1.45,0.187 2.518,0.405 3.202,0.664 0.007,0.264 0.011,0.432 0.011,0.501 0,0.785 -0.171,1.34 -0.511,1.658 -0.456,0.438 -1.14,0.653 -2.042,0.653 -0.844,0 -1.467,-0.157 -1.872,-0.474 -0.402,-0.318 -0.698,-0.881 -0.892,-1.687 l -1.752,0.258 c 0.159,0.804 0.422,1.458 0.786,1.952 0.364,0.496 0.895,0.88 1.586,1.146 0.691,0.267 1.491,0.401 2.403,0.401 0.905,0 1.637,-0.117 2.202,-0.343 0.565,-0.23 0.98,-0.515 1.249,-0.862 0.265,-0.346 0.449,-0.781 0.558,-1.311 0.058,-0.328 0.088,-0.92 0.088,-1.775 l 0,-2.567 c 0,-1.793 0.038,-2.925 0.117,-3.396 0.074,-0.475 0.227,-0.931 0.452,-1.366 l -1.875,0 c -0.184,0.399 -0.307,0.866 -0.358,1.403 z m -0.15,4.301 c -0.653,-0.288 -1.63,-0.529 -2.93,-0.73 -0.739,-0.113 -1.263,-0.241 -1.566,-0.384 -0.306,-0.142 -0.544,-0.349 -0.708,-0.628 -0.166,-0.274 -0.252,-0.577 -0.252,-0.913 0,-0.514 0.184,-0.941 0.545,-1.285 0.361,-0.34 0.892,-0.512 1.589,-0.512 0.692,0 1.307,0.161 1.845,0.487 0.538,0.324 0.936,0.77 1.188,1.333 0.194,0.434 0.289,1.077 0.289,1.923 l 0,0.709 z m 4.599,-5.704 0,11.361 1.613,0 0,-1.615 c 0.779,1.25 1.902,1.874 3.369,1.874 0.64,0 1.226,-0.124 1.76,-0.368 0.538,-0.249 0.936,-0.57 1.202,-0.972 0.268,-0.398 0.452,-0.873 0.561,-1.42 0.065,-0.359 0.099,-0.983 0.099,-1.874 l 0,-6.986 -1.797,0 0,6.913 c 0,0.782 -0.069,1.369 -0.208,1.76 -0.139,0.388 -0.388,0.698 -0.742,0.928 -0.357,0.234 -0.772,0.35 -1.252,0.35 -0.766,0 -1.423,-0.263 -1.981,-0.781 -0.555,-0.522 -0.83,-1.509 -0.83,-2.966 l 0,-6.204 -1.794,0 z m 11.364,15.685 1.796,0 0,-2.217 -1.796,0 0,2.217 z m 0,-4.324 1.796,0 0,-11.36 -1.796,0 0,11.36 z m 11.439,-7.198 1.764,-0.249 c -0.191,-1.303 -0.685,-2.326 -1.481,-3.063 -0.793,-0.737 -1.77,-1.107 -2.927,-1.107 -1.447,0 -2.615,0.508 -3.492,1.524 -0.882,1.014 -1.324,2.472 -1.324,4.37 0,1.228 0.191,2.302 0.568,3.222 0.382,0.92 0.956,1.61 1.733,2.07 0.773,0.46 1.616,0.69 2.525,0.69 1.15,0 2.093,-0.314 2.822,-0.938 0.731,-0.625 1.201,-1.509 1.408,-2.658 l -1.746,-0.289 c -0.167,0.763 -0.459,1.337 -0.88,1.723 -0.423,0.384 -0.934,0.577 -1.533,0.577 -0.904,0 -1.64,-0.347 -2.205,-1.045 -0.565,-0.693 -0.847,-1.792 -0.847,-3.296 0,-1.527 0.272,-2.637 0.82,-3.331 0.544,-0.69 1.256,-1.038 2.134,-1.038 0.704,0 1.29,0.235 1.763,0.699 0.473,0.464 0.772,1.175 0.898,2.139 z m 10.211,-2.76 c -0.667,-0.607 -1.307,-1.034 -1.92,-1.287 -0.616,-0.248 -1.276,-0.372 -1.98,-0.372 -1.164,0 -2.056,0.304 -2.682,0.913 -0.623,0.611 -0.936,1.392 -0.936,2.337 0,0.56 0.115,1.067 0.353,1.527 0.236,0.461 0.545,0.83 0.926,1.107 0.385,0.277 0.814,0.488 1.294,0.631 0.35,0.099 0.881,0.197 1.592,0.289 1.45,0.187 2.519,0.405 3.203,0.664 0.007,0.264 0.011,0.432 0.011,0.501 0,0.785 -0.171,1.34 -0.511,1.658 -0.456,0.438 -1.14,0.653 -2.042,0.653 -0.844,0 -1.467,-0.157 -1.872,-0.474 -0.402,-0.318 -0.698,-0.881 -0.892,-1.687 l -1.753,0.258 c 0.16,0.804 0.422,1.458 0.786,1.952 0.365,0.496 0.896,0.88 1.586,1.146 0.692,0.267 1.491,0.401 2.404,0.401 0.905,0 1.636,-0.117 2.201,-0.343 0.565,-0.23 0.981,-0.515 1.25,-0.862 0.265,-0.346 0.449,-0.781 0.558,-1.311 0.058,-0.328 0.088,-0.92 0.088,-1.775 l 0,-2.567 c 0,-1.793 0.037,-2.925 0.116,-3.396 0.075,-0.475 0.228,-0.931 0.453,-1.366 l -1.876,0 c -0.183,0.399 -0.306,0.866 -0.357,1.403 z m -0.15,4.301 c -0.653,-0.288 -1.63,-0.529 -2.93,-0.73 -0.739,-0.113 -1.263,-0.241 -1.566,-0.384 -0.306,-0.142 -0.544,-0.349 -0.708,-0.628 -0.167,-0.274 -0.252,-0.577 -0.252,-0.913 0,-0.514 0.184,-0.941 0.545,-1.285 0.361,-0.34 0.891,-0.512 1.59,-0.512 0.69,0 1.306,0.161 1.844,0.487 0.538,0.324 0.936,0.77 1.188,1.333 0.194,0.434 0.289,1.077 0.289,1.923 l 0,0.709 z m 4.558,9.981 1.793,0 0,-15.685 -1.793,0 0,15.685 z m 10.52,-15.685 0,15.685 10.567,0 0,-1.852 -8.634,0 0,-4.801 8.086,0 0,-1.841 -8.086,0 0,-5.339 8.975,0 0,-1.852 -10.908,0 z m 13.352,0 0,11.361 1.613,0 0,-1.615 c 0.779,1.25 1.902,1.874 3.37,1.874 0.64,0 1.225,-0.124 1.759,-0.368 0.538,-0.249 0.936,-0.57 1.202,-0.972 0.269,-0.398 0.452,-0.873 0.56,-1.42 0.066,-0.359 0.1,-0.983 0.1,-1.874 l 0,-6.986 -1.797,0 0,6.913 c 0,0.782 -0.068,1.369 -0.208,1.76 -0.14,0.388 -0.387,0.698 -0.742,0.928 -0.357,0.234 -0.773,0.35 -1.252,0.35 -0.766,0 -1.423,-0.263 -1.981,-0.781 -0.555,-0.522 -0.83,-1.509 -0.83,-2.966 l 0,-6.204 -1.794,0 z m 11.027,-0.942 1.746,-0.277 c 0.071,-0.578 0.276,-0.997 0.606,-1.264 0.446,-0.355 1.055,-0.533 1.825,-0.533 0.833,0 1.473,0.178 1.925,0.533 0.454,0.357 0.756,0.858 0.916,1.497 0.095,0.395 0.136,1.216 0.129,2.473 -0.782,-0.99 -1.759,-1.487 -2.929,-1.487 -1.457,0 -2.584,0.563 -3.38,1.691 -0.797,1.125 -1.198,2.479 -1.198,4.053 0,1.085 0.183,2.085 0.547,3.002 0.369,0.917 0.899,1.625 1.593,2.125 0.694,0.497 1.512,0.749 2.447,0.749 1.249,0 2.281,-0.544 3.091,-1.629 l 0,1.37 1.657,0 0,-9.82 c 0,-1.767 -0.169,-3.023 -0.503,-3.761 -0.337,-0.738 -0.869,-1.322 -1.597,-1.749 -0.729,-0.428 -1.623,-0.643 -2.689,-0.643 -1.262,0 -2.283,0.307 -3.059,0.917 -0.779,0.609 -1.154,1.526 -1.127,2.753 z m 1.484,6.825 c 0,-1.49 0.276,-2.578 0.831,-3.261 0.551,-0.686 1.241,-1.026 2.073,-1.026 0.823,0 1.514,0.34 2.072,1.019 0.558,0.683 0.838,1.749 0.838,3.207 0,1.39 -0.286,2.439 -0.862,3.143 -0.575,0.705 -1.269,1.059 -2.08,1.059 -0.795,0 -1.473,-0.346 -2.034,-1.044 -0.558,-0.694 -0.838,-1.728 -0.838,-3.097 z m 10.211,9.802 1.797,0 0,-2.217 -1.797,0 0,2.217 z m 0,-4.324 1.797,0 0,-11.36 -1.797,0 0,11.36 z m 4.53,-11.361 0,11.361 1.614,0 0,-1.615 c 0.778,1.25 1.901,1.874 3.369,1.874 0.64,0 1.224,-0.124 1.76,-0.368 0.537,-0.249 0.935,-0.57 1.201,-0.972 0.268,-0.398 0.453,-0.873 0.561,-1.42 0.065,-0.359 0.099,-0.983 0.099,-1.874 l 0,-6.986 -1.797,0 0,6.913 c 0,0.782 -0.068,1.369 -0.208,1.76 -0.14,0.388 -0.388,0.698 -0.741,0.928 -0.358,0.234 -0.773,0.35 -1.253,0.35 -0.766,0 -1.423,-0.263 -1.981,-0.781 -0.555,-0.522 -0.831,-1.509 -0.831,-2.966 l 0,-6.204 -1.793,0 z m 18.604,3.658 1.855,-0.244 c -0.292,-1.164 -0.835,-2.066 -1.625,-2.709 -0.791,-0.639 -1.803,-0.961 -3.032,-0.961 -1.548,0 -2.777,0.512 -3.681,1.535 -0.91,1.022 -1.363,2.457 -1.363,4.304 0,1.914 0.46,3.397 1.376,4.452 0.918,1.056 2.107,1.585 3.57,1.585 1.416,0 2.573,-0.518 3.468,-1.551 0.899,-1.034 1.348,-2.491 1.348,-4.365 0,-0.117 -0.003,-0.288 -0.01,-0.514 l -7.896,0 c 0.064,-1.249 0.394,-2.206 0.987,-2.867 0.592,-0.664 1.326,-0.998 2.212,-0.998 0.656,0 1.218,0.187 1.685,0.559 0.465,0.369 0.833,0.961 1.106,1.774 z m -5.892,3.117 5.912,0 c -0.079,0.952 -0.306,1.672 -0.677,2.147 -0.572,0.741 -1.314,1.113 -2.223,1.113 -0.823,0 -1.518,-0.295 -2.079,-0.887 -0.562,-0.592 -0.871,-1.384 -0.933,-2.373 z m 17.249,-3.117 1.855,-0.244 c -0.292,-1.164 -0.834,-2.066 -1.623,-2.709 -0.793,-0.639 -1.804,-0.961 -3.032,-0.961 -1.549,0 -2.778,0.512 -3.683,1.535 -0.909,1.022 -1.361,2.457 -1.361,4.304 0,1.914 0.459,3.397 1.375,4.452 0.918,1.056 2.106,1.585 3.57,1.585 1.415,0 2.572,-0.518 3.468,-1.551 0.898,-1.034 1.347,-2.491 1.347,-4.365 0,-0.117 -0.003,-0.288 -0.009,-0.514 l -7.897,0 c 0.065,-1.249 0.395,-2.206 0.988,-2.867 0.591,-0.664 1.327,-0.998 2.211,-0.998 0.658,0 1.219,0.187 1.685,0.559 0.467,0.369 0.834,0.961 1.106,1.774 z m -5.891,3.117 5.912,0 c -0.078,0.952 -0.307,1.672 -0.678,2.147 -0.571,0.741 -1.313,1.113 -2.223,1.113 -0.823,0 -1.517,-0.295 -2.079,-0.887 -0.561,-0.592 -0.871,-1.384 -0.932,-2.373 z m 9.982,-6.775 0,11.361 1.613,0 0,-1.72 c 0.413,0.804 0.794,1.337 1.144,1.592 0.348,0.256 0.731,0.387 1.15,0.387 0.607,0 1.219,-0.208 1.845,-0.621 l -0.619,-1.789 c -0.436,0.281 -0.875,0.42 -1.313,0.42 -0.396,0 -0.747,-0.128 -1.06,-0.38 -0.313,-0.256 -0.533,-0.606 -0.666,-1.055 -0.201,-0.683 -0.3,-1.431 -0.3,-2.246 l 0,-5.949 -1.794,0 z m 6.828,15.685 1.797,0 0,-2.217 -1.797,0 0,2.217 z m 0,-4.324 1.797,0 0,-11.36 -1.797,0 0,11.36 z m 4.531,-11.361 0,11.361 1.613,0 0,-1.615 c 0.778,1.25 1.902,1.874 3.369,1.874 0.64,0 1.225,-0.124 1.76,-0.368 0.538,-0.249 0.935,-0.57 1.201,-0.972 0.269,-0.398 0.453,-0.873 0.561,-1.42 0.065,-0.359 0.099,-0.983 0.099,-1.874 l 0,-6.986 -1.797,0 0,6.913 c 0,0.782 -0.068,1.369 -0.208,1.76 -0.139,0.388 -0.387,0.698 -0.741,0.928 -0.357,0.234 -0.773,0.35 -1.253,0.35 -0.766,0 -1.423,-0.263 -1.98,-0.781 -0.556,-0.522 -0.831,-1.509 -0.831,-2.966 l 0,-6.204 -1.793,0 z m 11.027,-0.942 1.746,-0.277 c 0.071,-0.578 0.276,-0.997 0.606,-1.264 0.446,-0.355 1.054,-0.533 1.824,-0.533 0.834,0 1.473,0.178 1.926,0.533 0.453,0.357 0.756,0.858 0.916,1.497 0.095,0.395 0.136,1.216 0.13,2.473 -0.784,-0.99 -1.76,-1.487 -2.931,-1.487 -1.457,0 -2.583,0.563 -3.38,1.691 -0.797,1.125 -1.198,2.479 -1.198,4.053 0,1.085 0.184,2.085 0.547,3.002 0.369,0.917 0.9,1.625 1.594,2.125 0.695,0.497 1.511,0.749 2.447,0.749 1.25,0 2.281,-0.544 3.09,-1.629 l 0,1.37 1.658,0 0,-9.82 c 0,-1.767 -0.17,-3.023 -0.504,-3.761 -0.337,-0.738 -0.867,-1.322 -1.596,-1.749 -0.728,-0.428 -1.624,-0.643 -2.69,-0.643 -1.262,0 -2.283,0.307 -3.059,0.917 -0.779,0.609 -1.153,1.526 -1.126,2.753 z m 1.483,6.825 c 0,-1.49 0.277,-2.578 0.831,-3.261 0.551,-0.686 1.243,-1.026 2.073,-1.026 0.824,0 1.514,0.34 2.073,1.019 0.558,0.683 0.837,1.749 0.837,3.207 0,1.39 -0.286,2.439 -0.862,3.143 -0.575,0.705 -1.269,1.059 -2.079,1.059 -0.796,0 -1.473,-0.346 -2.035,-1.044 -0.558,-0.694 -0.838,-1.728 -0.838,-3.097 z m 15.449,-0.844 1.825,0.172 c 0.085,-0.785 0.285,-1.427 0.602,-1.931 0.317,-0.504 0.806,-0.91 1.47,-1.22 0.664,-0.311 1.413,-0.464 2.243,-0.464 0.739,0 1.389,0.117 1.954,0.351 0.565,0.237 0.987,0.558 1.263,0.967 0.275,0.413 0.415,0.859 0.415,1.344 0,0.493 -0.133,0.92 -0.401,1.289 -0.266,0.369 -0.705,0.676 -1.315,0.924 -0.394,0.165 -1.259,0.42 -2.603,0.767 -1.341,0.347 -2.284,0.672 -2.822,0.979 -0.698,0.391 -1.218,0.88 -1.562,1.461 -0.341,0.58 -0.511,1.231 -0.511,1.953 0,0.789 0.208,1.53 0.627,2.217 0.419,0.69 1.031,1.213 1.834,1.57 0.807,0.355 1.698,0.533 2.682,0.533 1.086,0 2.039,-0.185 2.869,-0.562 0.827,-0.372 1.464,-0.924 1.91,-1.65 0.442,-0.727 0.684,-1.552 0.718,-2.473 l -1.855,-0.15 c -0.102,0.99 -0.439,1.743 -1.014,2.247 -0.576,0.507 -1.423,0.758 -2.546,0.758 -1.171,0 -2.022,-0.229 -2.56,-0.689 -0.534,-0.46 -0.803,-1.016 -0.803,-1.662 0,-0.566 0.191,-1.03 0.569,-1.391 0.374,-0.365 1.344,-0.738 2.916,-1.118 1.573,-0.384 2.651,-0.716 3.237,-1 0.852,-0.425 1.481,-0.957 1.885,-1.601 0.405,-0.645 0.606,-1.39 0.606,-2.231 0,-0.835 -0.221,-1.621 -0.667,-2.358 -0.446,-0.738 -1.086,-1.311 -1.919,-1.724 -0.834,-0.409 -1.774,-0.613 -2.815,-0.613 -1.324,0 -2.434,0.204 -3.325,0.621 -0.896,0.412 -1.596,1.033 -2.107,1.865 -0.507,0.829 -0.776,1.771 -0.8,2.819 z m 13.968,-9.414 -0.201,1.808 c 0.396,-0.113 0.736,-0.172 1.028,-0.172 0.399,0 0.718,0.073 0.957,0.216 0.241,0.142 0.435,0.34 0.589,0.599 0.115,0.19 0.295,0.668 0.547,1.431 0.034,0.109 0.088,0.267 0.16,0.471 l -4.016,11.383 1.934,0 2.205,-6.576 c 0.283,-0.837 0.54,-1.713 0.765,-2.633 0.208,0.882 0.453,1.745 0.739,2.588 l 2.263,6.621 1.794,0 -4.026,-11.554 c -0.432,-1.249 -0.77,-2.108 -1.007,-2.578 -0.32,-0.636 -0.685,-1.1 -1.097,-1.396 -0.415,-0.296 -0.905,-0.445 -1.476,-0.445 -0.347,0 -0.732,0.08 -1.158,0.237 z m 9.575,7.768 1.772,0.299 c 0.1,-0.763 0.378,-1.347 0.834,-1.756 0.453,-0.405 1.09,-0.611 1.91,-0.611 0.823,0 1.436,0.184 1.834,0.541 0.399,0.362 0.599,0.786 0.599,1.267 0,0.439 -0.177,0.778 -0.531,1.03 -0.245,0.171 -0.857,0.387 -1.834,0.65 -1.314,0.358 -2.23,0.665 -2.737,0.928 -0.507,0.259 -0.895,0.621 -1.157,1.081 -0.262,0.46 -0.394,0.967 -0.394,1.523 0,0.507 0.109,0.975 0.326,1.405 0.214,0.435 0.51,0.793 0.882,1.077 0.279,0.22 0.66,0.41 1.14,0.563 0.483,0.153 1,0.23 1.552,0.23 0.83,0 1.558,-0.131 2.188,-0.387 0.63,-0.255 1.092,-0.603 1.392,-1.04 0.3,-0.443 0.504,-1.027 0.616,-1.761 l -1.753,-0.259 c -0.082,0.584 -0.312,1.041 -0.694,1.369 -0.381,0.329 -0.922,0.493 -1.62,0.493 -0.823,0 -1.412,-0.146 -1.763,-0.438 -0.354,-0.292 -0.531,-0.635 -0.531,-1.026 0,-0.252 0.075,-0.475 0.222,-0.675 0.146,-0.209 0.374,-0.377 0.687,-0.516 0.181,-0.069 0.708,-0.233 1.586,-0.489 1.27,-0.364 2.154,-0.66 2.654,-0.895 0.504,-0.23 0.9,-0.569 1.185,-1.011 0.286,-0.442 0.429,-0.991 0.429,-1.647 0,-0.642 -0.177,-1.245 -0.524,-1.815 -0.351,-0.567 -0.854,-1.004 -1.512,-1.315 -0.657,-0.31 -1.402,-0.464 -2.232,-0.464 -1.379,0 -2.427,0.307 -3.149,0.92 -0.721,0.615 -1.181,1.524 -1.377,2.729 z m 14.845,-1.669 0.259,-1.702 c -0.504,-0.114 -0.956,-0.172 -1.354,-0.172 -0.655,0 -1.158,0.11 -1.519,0.333 -0.357,0.219 -0.609,0.511 -0.755,0.872 -0.146,0.358 -0.222,1.118 -0.222,2.272 l 0,6.537 -1.316,0 0,1.497 1.316,0 0,2.816 1.788,1.153 0,-3.969 1.803,0 0,-1.497 -1.803,0 0,-6.643 c 0,-0.552 0.03,-0.902 0.091,-1.06 0.065,-0.156 0.167,-0.28 0.31,-0.375 0.143,-0.091 0.348,-0.139 0.613,-0.139 0.2,0 0.462,0.026 0.789,0.077 z m 9.003,1.934 1.855,-0.244 c -0.293,-1.164 -0.834,-2.066 -1.624,-2.709 -0.793,-0.639 -1.804,-0.961 -3.032,-0.961 -1.549,0 -2.778,0.512 -3.683,1.535 -0.908,1.022 -1.362,2.457 -1.362,4.304 0,1.914 0.46,3.397 1.375,4.452 0.919,1.056 2.107,1.585 3.571,1.585 1.416,0 2.573,-0.518 3.468,-1.551 0.898,-1.034 1.348,-2.491 1.348,-4.365 0,-0.117 -0.004,-0.288 -0.011,-0.514 l -7.896,0 c 0.066,-1.249 0.395,-2.206 0.987,-2.867 0.593,-0.664 1.327,-0.998 2.213,-0.998 0.656,0 1.218,0.187 1.685,0.559 0.466,0.369 0.834,0.961 1.106,1.774 z m -5.891,3.117 5.911,0 c -0.078,0.952 -0.306,1.672 -0.677,2.147 -0.572,0.741 -1.314,1.113 -2.223,1.113 -0.824,0 -1.517,-0.295 -2.08,-0.887 -0.56,-0.592 -0.871,-1.384 -0.931,-2.373 z m 10.003,-6.775 0,11.361 1.602,0 0,-1.592 c 0.333,0.554 0.776,1.004 1.327,1.341 0.552,0.338 1.182,0.51 1.886,0.51 0.783,0 1.427,-0.174 1.927,-0.526 0.504,-0.351 0.857,-0.836 1.061,-1.464 0.841,1.325 1.93,1.99 3.271,1.99 1.051,0 1.858,-0.314 2.424,-0.938 0.564,-0.625 0.847,-1.585 0.847,-2.882 l 0,-7.8 -1.784,0 0,7.157 c 0,0.771 -0.058,1.327 -0.173,1.666 -0.119,0.337 -0.33,0.61 -0.634,0.818 -0.305,0.204 -0.666,0.31 -1.078,0.31 -0.746,0 -1.362,-0.266 -1.855,-0.799 -0.49,-0.53 -0.738,-1.381 -0.738,-2.549 l 0,-6.603 -1.794,0 0,7.38 c 0,0.859 -0.146,1.501 -0.439,1.929 -0.293,0.428 -0.769,0.642 -1.436,0.642 -0.504,0 -0.971,-0.142 -1.399,-0.43 -0.429,-0.285 -0.742,-0.701 -0.933,-1.25 -0.194,-0.551 -0.29,-1.343 -0.29,-2.376 l 0,-5.895 -1.792,0 z m 16.292,3.393 1.773,0.299 c 0.1,-0.763 0.378,-1.347 0.834,-1.756 0.452,-0.405 1.089,-0.611 1.909,-0.611 0.824,0 1.437,0.184 1.835,0.541 0.399,0.362 0.599,0.786 0.599,1.267 0,0.439 -0.177,0.778 -0.531,1.03 -0.246,0.171 -0.858,0.387 -1.835,0.65 -1.314,0.358 -2.229,0.665 -2.736,0.928 -0.507,0.259 -0.895,0.621 -1.157,1.081 -0.263,0.46 -0.396,0.967 -0.396,1.523 0,0.507 0.11,0.975 0.328,1.405 0.214,0.435 0.51,0.793 0.881,1.077 0.279,0.22 0.661,0.41 1.141,0.563 0.482,0.153 1,0.23 1.551,0.23 0.831,0 1.559,-0.131 2.189,-0.387 0.63,-0.255 1.092,-0.603 1.392,-1.04 0.3,-0.443 0.504,-1.027 0.616,-1.761 l -1.753,-0.259 c -0.082,0.584 -0.313,1.041 -0.694,1.369 -0.381,0.329 -0.923,0.493 -1.62,0.493 -0.824,0 -1.413,-0.146 -1.763,-0.438 -0.355,-0.292 -0.531,-0.635 -0.531,-1.026 0,-0.252 0.075,-0.475 0.221,-0.675 0.146,-0.209 0.374,-0.377 0.687,-0.516 0.181,-0.069 0.708,-0.233 1.587,-0.489 1.269,-0.364 2.154,-0.66 2.654,-0.895 0.504,-0.23 0.899,-0.569 1.185,-1.011 0.286,-0.442 0.428,-0.991 0.428,-1.647 0,-0.642 -0.176,-1.245 -0.524,-1.815 -0.35,-0.567 -0.854,-1.004 -1.511,-1.315 -0.657,-0.31 -1.402,-0.464 -2.232,-0.464 -1.379,0 -2.427,0.307 -3.149,0.92 -0.721,0.615 -1.181,1.524 -1.378,2.729" />
    </g>
    <g
       transform="matrix(0.42591037,0,0,-0.42591037,445.22347,475.62557)"
       inkscape:label="ink_ext_XXXXXX"
       id="g2947">
      <g
         transform="scale(0.1,0.1)"
         id="g2949">
        <path
           id="path2951"
           style="fill:#1064a7;fill-opacity:1;fill-rule:nonzero;stroke:none"
           d="m 1824.35,4835.02 53.33,30.21 0.21,0 52.68,-31.07 -53.15,-30.33 -0.21,0 -52.86,31.19 0,0 z m 52.97,-18.54 0.12,0 31.25,17.83 -30.98,18.28 -0.12,0 -31.36,-17.79 31.09,-18.32 0,0" />
        <path
           id="path2953"
           style="fill:#1064a7;fill-opacity:1;fill-rule:nonzero;stroke:none"
           d="m 3484.8,4803.83 -0.19,0 -53.18,30.33 52.71,31.07 0.2,0 53.32,-30.21 -52.86,-31.19 0,0 z m 30.96,30.97 -31.33,17.79 -0.11,0 -31.02,-18.28 31.29,-17.83 0.12,0 31.05,18.32 0,0" />
        <path
           id="path2955"
           style="fill:#1064a7;fill-opacity:1;fill-rule:nonzero;stroke:none"
           d="m 1860.27,4682.27 c -9.34,-1.84 -14.86,-2.32 -12.72,-13.15 7.38,-37.33 26.68,-31.31 27.81,-37.04 0.12,-0.6 -0.13,-1.75 -2.98,-2.31 -11.74,-2.32 -25.84,4.12 -28.28,16.46 -4.53,22.87 -5.71,32.03 -7.2,39.56 -0.92,4.67 -2.77,10.86 -4.41,19.14 -0.4,1.96 0.19,3 1.08,3.18 6.93,1.38 1.06,-11.66 19.43,-8.04 l 71.19,14.08 c 12.79,2.54 5.36,18.74 10.63,19.79 1.35,0.27 2.89,-1.17 3.51,-4.31 1.2,-6.02 2.31,-14.87 3.46,-20.6 2.52,-12.78 3.48,-14.47 3.96,-16.89 0.62,-3.16 0.61,-3.93 -1.18,-4.3 -5.73,-1.12 -2.27,10.66 -13.71,8.4 l -70.59,-13.97" />
        <path
           id="path2957"
           style="fill:#1064a7;fill-opacity:1;fill-rule:nonzero;stroke:none"
           d="m 1882.45,4578.59 c -18.03,-5.55 -6.22,-19.9 -10.91,-21.33 -1.62,-0.52 -2.6,0.62 -3.65,3.99 -1.68,5.44 -2.76,11.04 -6.29,22.47 -1.95,6.31 -4.48,12.42 -5.66,16.24 -0.4,1.31 0.53,1.93 1.27,2.17 5.13,1.58 4.57,-10.16 18.5,-5.87 l 70.36,21.74 c 13.35,4.11 4.13,19.4 9.26,21 2.49,0.76 3.18,-3.04 3.59,-4.36 1.76,-5.72 2.94,-11.61 4.53,-16.74 1.62,-5.28 3.85,-10.39 6.43,-18.74 1.35,-4.39 1.29,-5.21 -0.48,-5.77 -4.97,-1.53 -3.09,11.09 -17.02,6.79 l -69.93,-21.59" />
        <path
           id="path2959"
           style="fill:#1064a7;fill-opacity:1;fill-rule:nonzero;stroke:none"
           d="m 1952.69,4556.18 c 26.83,12.16 10.65,23.71 17.36,26.74 1.26,0.58 2.69,0.38 3.46,-1.31 1.2,-2.63 1.77,-5.41 2.98,-8.06 1.65,-3.65 3.85,-7.03 7.21,-14.42 2.03,-4.48 0.28,-3.23 -1.23,-6.96 l -36.16,-84.12 c -1.13,-2.7 -2.04,-5.14 -1.66,-5.98 0.38,-0.82 2.18,-0.35 5.67,1.23 l 46.54,21.09 c 12.71,5.75 2.47,21.68 7.08,23.77 0.98,0.45 2.56,0.67 3.39,-1.17 1.01,-2.24 2.3,-6.54 6.66,-16.17 3.99,-8.79 6.76,-13.46 7.33,-14.71 1.22,-2.65 -0.18,-3.28 -0.6,-3.47 -4.2,-1.92 -6.22,11.5 -20.91,4.84 l -78.38,-35.53 c -3.08,-1.4 -4.2,-1.91 -4.95,-0.23 -0.89,1.97 -0.37,3.05 0.31,4.51 l 42.19,100.18 c 0.67,1.46 1,2.61 0.67,3.32 -0.37,0.86 -1.48,0.68 -2.73,0.11 l -47.53,-21.54 c -26.82,-12.17 -9.21,-25.74 -15.77,-28.71 -1.96,-0.9 -3.41,2.68 -4.23,4.47 -3.1,6.86 -4.7,11.88 -6.92,16.76 -2.02,4.47 -4.29,7.97 -6,11.76 -0.7,1.52 -2.66,4.02 -0.29,5.1 5.59,2.53 9.15,-12.02 23.41,-5.57 l 53.1,24.07" />
        <path
           id="path2961"
           style="fill:#1064a7;fill-opacity:1;fill-rule:nonzero;stroke:none"
           d="m 2025.27,4395.37 c -1.14,0.35 -4.41,1.13 -5.56,0.37 -1.16,-0.76 -1.93,-2.95 -3.23,-6.54 l -16.75,-46.19 c -6.98,-18.95 0.32,-22.21 -2.88,-24.34 -0.89,-0.58 -1.74,-0.96 -2.76,0.59 -1.87,2.81 -3.54,6.46 -5.82,9.94 -1.61,2.42 -3.82,4.65 -6.18,8.22 -1.61,2.44 -2.2,3.91 -0.44,8.75 l 18.13,48.56 c 1.08,3.08 1.98,4.8 1.47,5.56 -0.66,1.02 -4.28,1.76 -9.35,2.46 -3.44,0.49 -4.43,-0.52 -7.37,-2.48 l -16.77,-11.07 c -11.78,-7.77 0.61,-17.62 -4.01,-20.66 -1.15,-0.77 -1.87,-0.49 -3.89,2.57 -2.3,3.46 -4.07,7.25 -8.89,14.55 -4.05,6.14 -8.96,12.45 -11.58,16.45 -1.6,2.42 -2.49,4.02 -1.6,4.65 6.41,4.2 4.85,-11.55 24.18,1.23 l 55.7,36.78 c 15.48,10.23 0.08,19.35 5.71,23.08 1.42,0.94 2.6,0.24 3.62,-1.29 1.59,-2.44 3.88,-6.99 9.63,-15.72 4.73,-7.15 10.57,-14.88 12.26,-17.44 0.76,-1.15 1.77,-2.7 0.24,-3.69 -5.11,-3.38 -4.29,10.39 -18.38,1.09 l -29.32,-19.35 c -1.27,-0.84 -3.16,-1.9 -2.52,-2.6 0.38,-0.84 1.53,-1.21 4.29,-1.78 l 27.68,-5.98 c 5.96,-1.21 24.51,-6.79 30.29,-2.98 3.96,2.61 -2.86,9.33 0.08,11.28 2.31,1.53 3.28,0.32 4.38,-1.34 0.84,-1.27 6.17,-10.47 8.7,-14.3 2.11,-3.2 4.83,-6.19 8.47,-11.7 0.67,-1.01 2.32,-3.24 0.02,-4.76 -3.46,-2.29 -2.32,4.35 -21.79,9.31 l -35.76,8.77" />
        <path
           id="path2963"
           style="fill:#1064a7;fill-opacity:1;fill-rule:nonzero;stroke:none"
           d="m 2063.79,4328.26 c 16.5,14.92 37.35,23.44 55.09,4.53 13.5,-14.47 12.85,-40.31 -12.29,-63.04 -18.89,-17.09 -39.9,-24.52 -57.94,-5.24 -18.77,20.04 -1.47,48.73 15.14,63.75 z m 73.57,35.31 c -1.13,1.25 -9.62,1.02 -11.56,-0.72 -1.92,-1.74 -3,-10.17 -1.86,-11.42 1.13,-1.25 9.61,-1.02 11.54,0.74 1.94,1.74 3.02,10.13 1.88,11.4 z m 18.63,-20.6 c -1.13,1.25 -9.62,1.03 -11.55,-0.7 -1.94,-1.76 -3.01,-10.18 -1.88,-11.43 1.14,-1.25 9.62,-1.04 11.55,0.72 1.94,1.74 3.01,10.18 1.88,11.41 z m -111.35,-6.56 c -23.1,-20.9 -24.56,-50.18 -3.88,-73.03 32.84,-36.31 67,-18.03 82.93,-3.61 24.12,21.81 23.46,52.05 3.16,74.02 -24.82,27.01 -57.28,25.14 -82.21,2.62" />
        <path
           id="path2965"
           style="fill:#1064a7;fill-opacity:1;fill-rule:nonzero;stroke:none"
           d="m 2136.61,4200.39 c -12.27,-14.73 3.36,-20.18 -0.08,-24.3 -1.67,-1.99 -2.64,-0.78 -4.3,0.59 -8.24,6.87 -13.03,11.68 -15.63,13.83 -4.71,3.92 -14.17,11.03 -14.89,11.62 -0.36,0.29 -2.68,1.82 -1,3.83 2.85,3.42 10.11,-7.05 22.4,7.69 l 43.23,51.84 c 10.41,12.5 -5.87,17.89 -2.24,22.24 0.59,0.73 2.34,1.84 5.17,-0.5 0.83,-0.69 6.91,-6.57 15.86,-14.05 1.66,-1.36 10.32,-7.98 18.79,-14.84 15.28,-12.34 24.97,-30.41 10.63,-47.62 -12.28,-14.72 -30.71,-14.55 -44.73,-2.85 -11.55,9.63 -9.68,13.07 -9.29,13.54 0.69,0.82 2.11,2.03 3.52,0.86 0.94,-0.79 2.35,-3.17 4.95,-5.34 14.26,-11.89 26.42,0.57 29.09,3.52 2.67,2.95 15.96,21.05 -2.31,36.29 -5.31,4.43 -9.15,3.63 -13.57,-1.66 l -45.6,-54.69" />
        <path
           id="path2967"
           style="fill:#1064a7;fill-opacity:1;fill-rule:nonzero;stroke:none"
           d="m 2220.65,4134.77 c -10.53,-15.65 7.67,-19.4 4.93,-23.48 -0.94,-1.39 -2.43,-1.13 -5.36,0.86 -4.72,3.14 -9.07,6.81 -19.01,13.51 -5.47,3.68 -11.29,6.84 -14.6,9.07 -1.15,0.78 -0.8,1.83 -0.38,2.48 3.01,4.43 9.94,-5.02 18.08,7.07 l 41.11,61.11 c 7.78,11.56 -9,17.68 -6,22.15 1.46,2.17 4.38,-0.35 5.53,-1.13 4.96,-3.34 9.58,-7.19 14.03,-10.18 4.59,-3.09 9.52,-5.66 16.78,-10.55 3.81,-2.55 4.28,-3.26 3.26,-4.78 -2.92,-4.32 -9.38,6.68 -17.52,-5.41 l -40.85,-60.72" />
        <path
           id="path2969"
           style="fill:#1064a7;fill-opacity:1;fill-rule:nonzero;stroke:none"
           d="m 2289.39,4161.45 c 13.25,26.28 -6.58,25.13 -3.27,31.71 0.62,1.22 1.86,1.98 3.5,1.14 2.61,-1.29 4.79,-3.09 7.4,-4.4 3.56,-1.79 7.41,-3.04 14.66,-6.7 4.38,-2.22 2.26,-2.34 3.41,-6.19 l 24.64,-88.18 c 0.81,-2.81 1.63,-5.29 2.46,-5.7 0.82,-0.42 1.92,1.09 3.65,4.51 l 22.99,45.62 c 6.28,12.48 -11.68,18.44 -9.4,22.95 0.48,0.98 1.58,2.13 3.36,1.23 2.19,-1.11 5.89,-3.65 15.35,-8.42 8.62,-4.33 13.7,-6.21 14.94,-6.83 2.6,-1.31 1.9,-2.68 1.69,-3.11 -2.06,-4.08 -12.06,5.06 -19.3,-9.33 l -38.73,-76.86 c -1.52,-3.03 -2.08,-4.12 -3.72,-3.28 -1.91,0.96 -2.18,2.13 -2.59,3.71 l -30.01,104.45 c -0.4,1.59 -0.88,2.68 -1.57,3.03 -0.82,0.41 -1.58,-0.41 -2.2,-1.64 l -23.47,-46.6 c -13.25,-26.29 8.98,-25.8 5.73,-32.25 -0.96,-1.91 -4.32,-0.06 -6.1,0.82 -6.72,3.4 -11.1,6.29 -15.9,8.71 -4.37,2.21 -8.36,3.52 -12.05,5.39 -1.52,0.75 -4.59,1.45 -3.42,3.79 2.76,5.49 14.67,-3.63 21.71,10.36 l 26.24,52.07" />
        <path
           id="path2971"
           style="fill:#1064a7;fill-opacity:1;fill-rule:nonzero;stroke:none"
           d="m 2489.08,4073.83 c -0.6,-1.9 -1.71,-2.37 -4.49,-1.49 -3.23,1 6.74,32.93 -31.79,44.95 -13.61,4.23 -35.75,1.34 -47.3,-35.71 -6.25,-20.08 -4.32,-49.92 19.4,-57.32 26.38,-8.24 30.65,3.94 33.3,12.42 7.13,22.85 -13.41,18.34 -11.67,23.91 1.32,4.23 5.64,1.6 8.13,0.84 6.88,-2.15 13.44,-4.85 20.32,-7 5.43,-1.68 10.73,-2.69 16,-4.35 0.74,-0.24 1.44,-1.08 0.97,-2.56 -1.95,-6.29 -9.59,4.77 -15.45,-13.97 -1.86,-6.01 -2.71,-10.25 -3.34,-12.3 -0.73,-2.32 -1.11,-3.03 -2.67,-3.36 -16.28,-3.26 -34.64,-4.92 -50.6,0.04 -42.92,13.4 -37.81,52.95 -34.2,64.53 7.69,24.59 32.86,52.27 69.76,40.76 20.37,-6.36 29.71,-19.72 33.66,-20.95 3.21,-1.02 4.8,3 7.13,2.28 2.2,-0.68 1.2,-3.92 0.46,-6.27 l -7.62,-24.45" />
        <path
           id="path2973"
           style="fill:#1064a7;fill-opacity:1;fill-rule:nonzero;stroke:none"
           d="m 2508.32,4027.52 c -0.1,2.21 -0.89,6.86 2.9,6.21 2.42,-0.39 2.49,-1.82 2.77,-3.87 2.42,-15.35 9.51,-30.68 26.3,-33.49 11.81,-1.98 22.1,3.77 24.12,15.9 2.15,12.85 -7.05,16.4 -29.62,31.23 -12.06,7.93 -20,15.31 -17.35,31.21 2.9,17.38 17.13,28.06 34.83,25.13 12.42,-2.07 17.79,-9.04 22.32,-9.8 1.97,-0.33 6.15,1.46 8.12,1.13 2.27,-0.39 1.45,-2.58 1.17,-6.11 l -1.72,-20.55 c -0.26,-3.38 -1.01,-5.13 -4.35,-4.55 -3.47,0.57 -1.04,29.1 -27.07,33.44 -10,1.68 -17.76,-2.95 -19.45,-13.09 -1.7,-10.13 6.31,-13.49 25.1,-25.8 15,-9.82 23.89,-18.01 20.68,-37.21 -3.3,-19.84 -19.47,-30.97 -39.3,-27.65 -9.23,1.52 -16.34,6.44 -24.8,9.88 -3.63,1.54 -3.26,2.72 -3.42,6.49 l -1.23,21.5" />
        <path
           id="path2975"
           style="fill:#1064a7;fill-opacity:1;fill-rule:nonzero;stroke:none"
           d="m 2754.38,4037.17 c 1.03,-31.13 -6.86,-57.35 -49.17,-58.75 -28.69,-0.94 -44.47,11.87 -45.44,41.64 l -1.66,49.98 c -0.44,13.18 -16.22,7.73 -16.41,13.57 -0.08,2 1.89,2.52 3.12,2.56 2,0.06 13.52,-0.17 21.2,0.1 7.81,0.27 18.67,1.23 21.59,1.31 1.37,0.06 1.73,-1.15 1.77,-2.07 0.16,-5.22 -12.99,2.5 -12.15,-22.66 l 1.1,-33.28 c 0.77,-23.46 7.57,-42.73 35.01,-41.84 30.51,1.02 33.69,25.38 32.83,51.31 l -0.99,30.35 c -0.6,17.64 -19.3,12.27 -19.49,17.78 -0.08,2.46 2.55,1.78 4.56,1.85 4.44,-0.15 8.6,-0.35 12.89,-0.19 5.05,0.17 9.8,0.64 17.47,1.19 1.83,0.06 2.77,-0.22 2.81,-1.89 0.13,-4.17 -10.76,1.03 -10.2,-16.31 l 1.16,-34.65" />
        <path
           id="path2977"
           style="fill:#1064a7;fill-opacity:1;fill-rule:nonzero;stroke:none"
           d="m 2790.33,4064.82 c -5.88,28.85 -20.72,15.65 -22.19,22.86 -0.27,1.36 0.22,2.71 2.04,3.08 2.85,0.59 5.68,0.53 8.53,1.12 3.91,0.8 7.7,2.2 15.67,3.8 4.8,1 3.22,-0.43 6.5,-2.73 l 73.96,-53.97 c 2.39,-1.69 4.55,-3.12 5.45,-2.94 0.92,0.17 0.84,2.05 0.08,5.82 l -10.21,50.03 c -2.8,13.68 -20.59,7.23 -21.61,12.19 -0.21,1.06 -0.05,2.66 1.9,3.05 2.4,0.49 6.87,0.78 17.26,2.89 9.46,1.95 14.61,3.61 15.96,3.91 2.85,0.56 3.17,-0.94 3.26,-1.39 0.92,-4.51 -12.59,-3.5 -9.37,-19.3 l 17.21,-84.31 c 0.66,-3.32 0.91,-4.52 -0.9,-4.89 -2.09,-0.45 -3.03,0.34 -4.34,1.29 l -88.24,63.44 c -1.31,0.98 -2.36,1.56 -3.13,1.39 -0.87,-0.18 -0.97,-1.31 -0.7,-2.64 l 10.43,-51.11 c 5.9,-28.87 23.05,-14.71 24.49,-21.78 0.43,-2.11 -3.36,-2.74 -5.31,-3.13 -7.38,-1.5 -12.6,-1.93 -17.87,-3 -4.81,-1 -8.75,-2.43 -12.79,-3.27 -1.66,-0.33 -4.52,-1.69 -5.04,0.86 -1.23,6.04 13.75,6.27 10.62,21.61 l -11.66,57.12" />
        <path
           id="path2979"
           style="fill:#1064a7;fill-opacity:1;fill-rule:nonzero;stroke:none"
           d="m 2957.05,4045.37 c 6.08,-17.89 20.06,-5.68 21.62,-10.33 0.55,-1.58 -0.54,-2.62 -3.87,-3.75 -5.39,-1.84 -10.96,-3.07 -22.29,-6.93 -6.24,-2.09 -12.3,-4.83 -16.06,-6.1 -1.33,-0.45 -1.96,0.49 -2.21,1.21 -1.72,5.08 10.02,4.85 5.33,18.66 l -23.67,69.74 c -4.47,13.22 -19.51,3.58 -21.25,8.65 -0.84,2.48 2.95,3.28 4.26,3.71 5.66,1.92 11.52,3.29 16.6,5.02 5.23,1.74 10.27,4.11 18.55,6.92 4.36,1.48 5.2,1.44 5.78,-0.31 1.66,-4.93 -10.99,-3.4 -6.3,-17.19 l 23.51,-69.3" />
        <path
           id="path2981"
           style="fill:#1064a7;fill-opacity:1;fill-rule:nonzero;stroke:none"
           d="m 3052.38,4067.34 c 0.22,-4.33 -0.08,-5.5 -1.6,-6.23 -1.39,-0.66 -3.46,0.06 -8.71,4.67 l -73.11,63.95 c -4.94,4.25 -7.6,4.84 -13.94,3.51 -0.49,-0.08 -2.68,-0.1 -3.14,0.88 -1.6,3.3 3.22,4.26 5.3,5.26 4.56,2.18 9.54,3.88 14.23,6.15 8.86,4.27 12.59,6.76 14.8,7.79 4.42,2.15 5.06,2.62 6.19,0.25 1.8,-3.71 -7.5,-5.64 -4.72,-11.46 2.01,-4.14 6.93,-9.77 14.43,-16.52 l 39.35,-35.92 c 0.88,-0.76 2.52,-2.37 3.34,-1.97 0.84,0.39 0.47,2.61 0.41,3.76 l -1.25,51.16 c -0.31,11.25 -2.36,16.23 -3.41,18.43 -6.25,13.01 -17.76,1.18 -20.08,6.02 -1.25,2.62 2.95,4.12 4.59,4.94 4.02,1.94 8.16,3.22 12.19,5.16 3.86,1.87 7.46,4.28 11.32,6.11 2.89,1.41 4.65,2.76 5.79,0.41 1.52,-3.18 -4.48,-5.21 -4.3,-15.17 l 2.32,-101.18" />
        <path
           id="path2983"
           style="fill:#1064a7;fill-opacity:1;fill-rule:nonzero;stroke:none"
           d="m 3106.82,4174.59 c 3.67,-5.47 4.27,-6.39 9.74,-2.71 l 8.05,5.39 c 10.96,7.32 3.5,19.31 6.05,21.03 0.88,0.59 2.11,1.78 4.55,-1.58 l 16.08,-22.11 c 1.23,-1.56 5.06,-5.65 1.99,-7.68 -4.08,-2.73 -9.55,13.17 -22.79,4.28 l -9.44,-6.31 c -5.89,-3.9 -4.35,-5.11 0.61,-12.5 l 10.92,-16.33 c 5.29,-7.91 7.85,-12.81 17.03,-6.69 31.62,21.15 18.67,36.66 23.52,39.92 0.5,0.33 1.64,0.54 3.28,-1.88 6.64,-9.94 6.11,-25.43 -4.34,-32.42 -19.39,-12.97 -27.38,-17.58 -33.75,-21.84 -3.94,-2.67 -8.96,-6.73 -16,-11.44 -1.64,-1.11 -2.85,-0.98 -3.37,-0.22 -3.91,5.88 10.41,5.45 -0.02,21.02 l -39.91,59.69 c -7.67,11.48 -19.37,-2.25 -22.79,2.87 -0.76,1.15 -0.41,2.83 1.39,4.02 5.21,3.52 14.74,9.16 34.26,22.19 9.06,6.05 17.48,12.46 28.73,19.96 1.64,1.11 3.37,0.43 4.14,-0.72 l 8.96,-12.29 c 1.27,-1.56 4.69,-5.33 1.78,-7.3 -6,-4.01 -6.04,17.58 -30.67,1.09 -15.41,-10.31 -15.84,-10.78 -9.98,-19.59 l 11.98,-17.85" />
        <path
           id="path2985"
           style="fill:#1064a7;fill-opacity:1;fill-rule:nonzero;stroke:none"
           d="m 3170.51,4251 c -6.1,6.91 -2.56,10.04 1.7,13.82 11.62,10.26 25.58,7.47 35.54,-3.78 6,-6.78 11,-13.81 -6.44,-29.28 -3.44,-3.05 -7.7,-6.82 -10.24,-3.95 l -20.56,23.19 z m 32.97,-65.69 c 12.81,-14.47 0.17,-18.9 3.43,-22.58 2.04,-2.3 4.13,0.18 5.39,1.29 5.77,5.1 11.08,10.63 17.29,16.14 4.82,4.25 8.32,6.56 10.29,8.3 2.62,2.32 2.93,3.83 2.03,4.86 -3.67,4.12 -10.87,-10.64 -21.75,1.64 l -17.62,19.88 c -3.56,4.01 -4.96,4.2 1.13,9.59 5.74,5.08 8.75,5.88 15.86,3.17 l 25.7,-9.59 c 9.46,-3.52 19.56,-7.48 28.64,0.54 4.59,4.09 9.92,13.33 6.79,16.88 -0.84,0.92 -2.12,1 -3.16,0.08 -1.15,-1 -1.68,-2.74 -2.85,-3.75 -0.9,-0.8 -3.09,-2.74 -5.74,-1.82 -21.1,7.17 -45.61,15.16 -46.21,15.84 -1.04,1.15 1.38,5.14 2.38,10.74 0.88,5.69 0.47,12.89 -6.06,20.24 -4.68,5.29 -21.32,19.43 -46.48,-2.83 -7.7,-6.82 -15.08,-14.2 -22.77,-21.02 -7.25,-6.41 -8.58,-6.76 -13.85,-11.45 -1.39,-1.21 -2.03,-2.81 -1,-3.96 3.63,-4.12 12.4,11.21 23.79,-1.66 l 44.77,-50.53" />
        <path
           id="path2987"
           style="fill:#1064a7;fill-opacity:1;fill-rule:nonzero;stroke:none"
           d="m 3278.32,4267.87 c -1.91,1.06 -6.29,2.81 -3.77,5.72 1.62,1.84 2.87,1.18 4.75,0.32 14.33,-5.96 31.13,-7.93 42.3,4.9 7.87,9.04 8.36,20.8 -0.92,28.87 -9.82,8.55 -17.67,2.55 -42.11,-8.91 -13.06,-6.13 -23.53,-9.02 -35.66,1.54 -13.32,11.58 -14.98,29.3 -3.18,42.85 8.24,9.5 17.01,10.43 20,13.89 1.32,1.5 1.99,6.04 3.3,7.52 1.5,1.74 2.95,-0.12 5.82,-2.21 l 16.62,-12.22 c 2.73,-1.98 3.81,-3.54 1.6,-6.08 -2.32,-2.65 -25.35,14.34 -42.68,-5.58 -6.66,-7.64 -6.79,-16.66 0.96,-23.42 7.78,-6.74 14.81,-1.7 35.14,7.87 16.21,7.66 27.83,10.96 42.52,-1.84 15.17,-13.18 16.23,-32.81 3.03,-47.96 -6.16,-7.06 -14.07,-10.53 -21.41,-15.96 -3.22,-2.27 -4.04,-1.35 -7.33,0.49 l -18.98,10.21" />
        <path
           id="path2989"
           style="fill:#1064a7;fill-opacity:1;fill-rule:nonzero;stroke:none"
           d="m 3366.46,4357.7 c 15.4,-10.94 19.59,7.14 23.62,4.31 1.37,-0.99 1.05,-2.48 -0.98,-5.35 -3.3,-4.63 -7.09,-8.91 -14.02,-18.65 -3.85,-5.35 -7.15,-11.08 -9.47,-14.36 -0.81,-1.11 -1.86,-0.74 -2.47,-0.29 -4.39,3.1 5.28,9.8 -6.62,18.26 l -59.98,42.72 c -11.34,8.1 -17.93,-8.52 -22.3,-5.41 -2.13,1.52 0.47,4.35 1.29,5.48 3.45,4.89 7.44,9.4 10.54,13.77 3.19,4.5 5.9,9.36 10.98,16.49 2.7,3.75 3.38,4.2 4.86,3.12 4.26,-3.02 -6.91,-9.2 4.97,-17.63 l 59.58,-42.46" />
        <path
           id="path2991"
           style="fill:#1064a7;fill-opacity:1;fill-rule:nonzero;stroke:none"
           d="m 3344.14,4457.66 c -6.46,3.55 -7.87,2.59 -10.9,-2.93 l -6.23,-11.29 c -8.4,-15.18 11.43,-20.86 8.09,-26.9 -1.56,-2.83 -4.06,-0.39 -5.65,0.84 l -16.56,11.96 c -1.25,0.86 -3.12,1.89 -2.03,3.9 6.89,12.5 12.4,21.19 23.24,40.8 10.82,19.63 15.24,28.91 22.15,41.41 1.09,2.01 2.99,1 4.41,0.37 l 13.17,-5.35 c 1.76,-0.61 7.83,-2.03 5.88,-5.53 -2.97,-5.37 -15.49,7.17 -23.48,-8.57 l -6.31,-11.43 c -3.04,-5.49 -3.12,-7.21 3.34,-10.76 l 60.7,-33.54 c 16.51,-9.12 22.13,10.22 25.88,8.15 3.23,-1.78 1.33,-4.26 -0.82,-8.15 -2.95,-5.37 -5.93,-9.49 -10.91,-18.49 -4.97,-9.01 -6.86,-13.73 -9.85,-19.1 -1.33,-2.42 -2.46,-4.79 -5.41,-3.15 -5.23,2.89 9.59,14.51 -6.39,23.34 l -62.32,34.42" />
        <path
           id="path2993"
           style="fill:#1064a7;fill-opacity:1;fill-rule:nonzero;stroke:none"
           d="m 3409.3,4542.03 c 6.15,-2.36 7.16,-2.75 9.53,3.4 l 3.47,9.02 c 4.75,12.32 -8.26,17.82 -7.16,20.69 0.39,0.99 0.72,2.67 4.63,1.34 l 25.89,-8.84 c 1.9,-0.56 7.39,-1.68 6.06,-5.13 -1.78,-4.57 -15.39,5.28 -21.13,-9.62 l -4.07,-10.59 c -2.54,-6.58 -0.6,-6.67 7.68,-9.88 l 18.34,-7.05 c 8.87,-3.42 13.81,-5.98 17.77,4.34 13.69,35.5 -5.84,40.73 -3.75,46.16 0.24,0.58 1.06,1.4 3.75,0.36 11.19,-4.3 19.67,-17.27 15.14,-29.02 -8.38,-21.76 -12.27,-30.12 -15.02,-37.29 -1.72,-4.43 -3.46,-10.68 -6.5,-18.55 -0.73,-1.86 -1.76,-2.42 -2.62,-2.09 -6.58,2.54 5.35,10.41 -12.13,17.15 l -66.97,25.84 c -12.91,4.94 -14.55,-13.01 -20.3,-10.79 -1.28,0.51 -1.99,2.07 -1.21,4.09 2.27,5.88 6.8,15.95 15.24,37.87 3.92,10.15 7.17,20.26 12.01,32.85 0.72,1.86 2.52,2.32 3.83,1.82 l 14.39,-4.88 c 1.92,-0.59 6.92,-1.69 5.67,-4.98 -2.6,-6.72 -15.04,10.91 -25.73,-16.73 -6.66,-17.32 -6.73,-17.97 3.15,-21.77 l 20.04,-7.72" />
        <path
           id="path2995"
           style="fill:#1064a7;fill-opacity:1;fill-rule:nonzero;stroke:none"
           d="m 3421.02,4650.08 c -7.19,1.7 -8.29,0.37 -9.71,-5.76 l -2.97,-12.55 c -3.95,-16.87 16.64,-16.98 15.1,-23.7 -0.74,-3.15 -3.83,-1.49 -5.71,-0.71 l -19.14,7 c -1.44,0.52 -3.55,1.01 -3.04,3.24 3.28,13.88 6.23,23.76 11.36,45.56 5.12,21.81 6.86,31.96 10.1,45.84 0.55,2.25 2.62,1.77 4.18,1.57 l 14.1,-1.59 c 1.88,-0.13 8.09,0.15 7.17,-3.73 -1.39,-5.98 -16.87,2.68 -20.29,-14.61 l -2.99,-12.72 c -1.45,-6.11 -1.04,-7.78 6.13,-9.47 l 67.5,-15.84 c 18.38,-4.33 18.56,15.81 22.74,14.83 3.57,-0.84 2.42,-3.72 1.4,-8.05 -1.4,-5.98 -3.14,-10.76 -5.5,-20.78 -2.35,-10 -2.9,-15.06 -4.32,-21.05 -0.63,-2.68 -1.08,-5.26 -4.38,-4.49 -5.82,1.36 5.32,16.57 -12.46,20.73 l -69.27,16.28" />
        <path
           id="path2997"
           style="fill:#1064a7;fill-opacity:1;fill-rule:nonzero;stroke:none"
           d="m 2373.05,5428.98 0,-384.29 296.54,-170.71 0,210.85 -93.17,54.41 0,289.74 -203.37,0" />
        <path
           id="path2999"
           style="fill:#1064a7;fill-opacity:1;fill-rule:nonzero;stroke:none"
           d="m 2787.42,5429 0,-289.76 -93.2,-54.41 0,-210.85 294.53,171.4 0,383.62 -201.33,0" />
        <path
           id="path3001"
           style="fill:#1064a7;fill-opacity:1;fill-rule:nonzero;stroke:none"
           d="m 2706.52,4852.55 296.59,172.75 329.84,-191.13 -101.33,-175.48 -247.56,143.52 -93.18,-55.11 -184.36,105.45" />
        <path
           id="path3003"
           style="fill:#1064a7;fill-opacity:1;fill-rule:nonzero;stroke:none"
           d="m 2694.22,4831.41 0,-344.63 330.57,-191.82 101.64,176.95 -249.91,145.26 0,110.86 -182.3,103.38" />
        <path
           id="path3005"
           style="fill:#1064a7;fill-opacity:1;fill-rule:nonzero;stroke:none"
           d="m 2669.53,4831.41 0,-344.93 -327.54,-191.42 -102.32,178.49 248.94,144.88 0,108.13 180.92,104.85" />
        <path
           id="path3007"
           style="fill:#1064a7;fill-opacity:1;fill-rule:nonzero;stroke:none"
           d="m 2361.19,5024.38 295.86,-172.08 -180.92,-106.1 -96.58,55.77 -248.25,-144.86 -102.01,174.79 331.9,192.48" />
        <path
           id="path3009"
           style="fill:#1064a7;fill-opacity:1;fill-rule:nonzero;stroke:none"
           d="m 1911.64,5015.04 c 9.24,-2.24 14.47,-4.15 17.09,6.59 9,36.96 -11.03,39.63 -9.66,45.3 0.14,0.59 0.85,1.53 3.68,0.84 11.64,-2.83 21.71,-14.61 18.73,-26.83 -5.51,-22.65 -8.29,-31.46 -10.1,-38.91 -1.13,-4.62 -2.06,-11.03 -4.05,-19.23 -0.47,-1.94 -1.44,-2.66 -2.33,-2.43 -6.86,1.67 3.95,11.04 -14.23,15.47 l -70.51,17.17 c -12.68,3.08 -12.76,-14.74 -17.97,-13.47 -1.34,0.32 -2.15,2.26 -1.37,5.38 1.45,5.96 4.14,14.47 5.53,20.13 3.08,12.68 2.92,14.61 3.5,16.99 0.77,3.14 1.1,3.84 2.89,3.41 5.66,-1.39 -2.43,-10.63 8.89,-13.38 l 69.91,-17.03" />
        <path
           id="path3011"
           style="fill:#1064a7;fill-opacity:1;fill-rule:nonzero;stroke:none"
           d="m 1943.74,5109.34 c 17.79,-6.31 16.88,12.24 21.51,10.6 1.6,-0.56 1.71,-2.07 0.53,-5.39 -1.9,-5.35 -4.37,-10.5 -8.38,-21.78 -2.21,-6.21 -3.85,-12.64 -5.18,-16.39 -0.45,-1.31 -1.57,-1.24 -2.29,-0.99 -5.07,1.81 2.39,10.88 -11.34,15.76 l -69.4,24.65 c -13.16,4.67 -14.91,-13.11 -19.98,-11.32 -2.46,0.88 -0.74,4.34 -0.27,5.64 2,5.64 4.58,11.07 6.38,16.13 1.85,5.21 3.12,10.62 6.04,18.86 1.55,4.34 2.09,4.96 3.83,4.35 4.91,-1.75 -4.15,-10.75 9.59,-15.63 l 68.96,-24.49" />
        <path
           id="path3013"
           style="fill:#1064a7;fill-opacity:1;fill-rule:nonzero;stroke:none"
           d="m 1904.18,5175.29 c -26.34,13.23 -25.13,-6.61 -31.72,-3.3 -1.23,0.61 -1.98,1.86 -1.15,3.49 1.3,2.61 3.09,4.81 4.4,7.41 1.79,3.57 3.04,7.41 6.68,14.67 2.2,4.4 2.34,2.26 6.18,3.42 l 88.13,24.77 c 2.82,0.82 5.29,1.64 5.71,2.46 0.41,0.83 -1.1,1.92 -4.53,3.65 l -45.65,22.91 c -12.48,6.27 -18.41,-11.69 -22.94,-9.43 -0.95,0.48 -2.13,1.59 -1.22,3.37 1.09,2.19 3.64,5.89 8.38,15.36 4.35,8.64 6.21,13.72 6.83,14.94 1.3,2.6 2.68,1.92 3.08,1.71 4.12,-2.06 -5.03,-12.07 9.37,-19.29 l 76.93,-38.62 c 3.02,-1.52 4.11,-2.07 3.29,-3.71 -0.96,-1.92 -2.13,-2.19 -3.72,-2.6 l -104.4,-30.17 c -1.58,-0.4 -2.69,-0.88 -3.03,-1.56 -0.41,-0.83 0.41,-1.58 1.65,-2.21 l 46.62,-23.39 c 26.32,-13.23 25.81,9.01 32.27,5.77 1.91,-0.96 0.05,-4.32 -0.85,-6.1 -3.36,-6.72 -6.26,-11.11 -8.67,-15.91 -2.2,-4.39 -3.51,-8.36 -5.37,-12.07 -0.76,-1.5 -1.45,-4.59 -3.78,-3.42 -5.48,2.76 3.59,14.67 -10.39,21.7 l -52.1,26.15" />
        <path
           id="path3015"
           style="fill:#1064a7;fill-opacity:1;fill-rule:nonzero;stroke:none"
           d="m 2005.49,5327.41 c 0.09,-1.2 0.53,-4.53 1.66,-5.34 1.12,-0.8 3.42,-0.74 7.25,-0.65 l 49.13,0.92 c 20.18,0.27 20.61,8.27 23.74,6.04 0.87,-0.63 1.53,-1.29 0.46,-2.78 -1.97,-2.75 -4.78,-5.64 -7.19,-9.02 -1.7,-2.36 -2.98,-5.21 -5.48,-8.71 -1.7,-2.37 -2.83,-3.45 -7.99,-3.53 l -51.83,-0.49 c -3.29,-0.1 -5.19,0.12 -5.72,-0.63 -0.72,-0.99 -0.11,-4.63 1.04,-9.61 0.79,-3.38 2.1,-3.94 4.96,-5.99 l 16.36,-11.69 c 11.48,-8.2 16.23,6.89 20.72,3.68 1.13,-0.81 1.15,-1.57 -1,-4.57 -2.4,-3.38 -5.31,-6.39 -10.39,-13.5 -4.28,-5.99 -8.43,-12.85 -11.2,-16.72 -1.69,-2.36 -2.88,-3.77 -3.76,-3.14 -6.23,4.45 9.01,8.64 -9.84,22.11 l -54.3,38.8 c -15.1,10.79 -18.11,-6.86 -23.6,-2.94 -1.37,0.99 -1.15,2.34 -0.09,3.83 1.7,2.38 5.14,6.15 11.21,14.63 4.99,6.98 10.11,15.21 11.9,17.71 0.8,1.12 1.86,2.62 3.37,1.55 4.99,-3.57 -8.17,-7.74 5.55,-17.55 l 28.6,-20.43 c 1.25,-0.89 2.9,-2.27 3.31,-1.43 0.66,0.67 0.58,1.86 0.11,4.64 l -4.33,27.99 c -1,5.99 -2.45,25.32 -8.08,29.34 -3.86,2.76 -7.68,-6.01 -10.56,-3.96 -2.24,1.6 -1.47,2.95 -0.32,4.57 0.89,1.24 7.55,9.5 10.23,13.24 2.23,3.13 4.05,6.73 7.88,12.1 0.72,1 2.19,3.33 4.44,1.73 3.38,-2.41 -3.23,-3.73 -0.89,-23.69 l 4.65,-36.51" />
        <path
           id="path3017"
           style="fill:#1064a7;fill-opacity:1;fill-rule:nonzero;stroke:none"
           d="m 2061.56,5384.98 c -15.98,15.49 -25.84,35.74 -8.12,54.67 13.54,14.43 39.35,15.49 63.7,-8.1 18.29,-17.73 27.08,-38.21 9.05,-57.49 -18.78,-20.02 -48.54,-4.65 -64.63,10.92 z m -40.08,71.1 c -1.16,-1.21 -0.38,-9.66 1.5,-11.48 1.88,-1.81 10.34,-2.33 11.52,-1.12 1.17,1.21 0.38,9.67 -1.49,11.48 -1.88,1.82 -10.35,2.34 -11.53,1.12 z m 19.33,19.94 c -1.17,-1.21 -0.38,-9.66 1.49,-11.47 1.88,-1.82 10.34,-2.33 11.52,-1.13 1.18,1.22 0.38,9.67 -1.48,11.48 -1.88,1.82 -10.35,2.33 -11.53,1.12 z m 13.9,-110.66 c 22.36,-21.68 51.65,-21.22 73.12,0.93 34.06,35.15 13.57,68.03 -1.85,82.97 -23.37,22.63 -53.48,19.99 -74.09,-1.7 -25.28,-26.55 -21.32,-58.83 2.82,-82.2" />
        <path
           id="path3019"
           style="fill:#1064a7;fill-opacity:1;fill-rule:nonzero;stroke:none"
           d="m 2187.52,5450.98 c 11.81,-15.12 20.43,-0.98 23.75,-5.22 1.59,-2.05 0.2,-2.75 -1.5,-4.08 -8.47,-6.61 -14.16,-10.29 -16.82,-12.36 -4.84,-3.77 -13.78,-11.53 -14.5,-12.09 -0.36,-0.28 -2.35,-2.23 -3.96,-0.17 -2.74,3.51 9.02,8.4 -2.79,23.52 l -41.53,53.21 c -10.01,12.82 -18.72,-1.95 -22.21,2.52 -0.57,0.73 -1.3,2.67 1.6,4.94 0.84,0.66 7.87,5.37 17.07,12.55 1.69,1.32 9.98,8.38 18.48,15.2 15.3,12.33 35.01,17.99 48.79,0.33 11.8,-15.12 7.74,-33.09 -6.66,-44.32 -11.86,-9.26 -14.81,-6.71 -15.2,-6.22 -0.65,0.85 -1.55,2.5 -0.1,3.63 0.97,0.74 3.59,1.63 6.25,3.71 14.63,11.41 5.06,25.94 2.73,29.17 -2.34,3.25 -17.21,20.04 -35.96,5.41 -5.44,-4.25 -5.49,-8.17 -1.24,-13.62 l 43.8,-56.11" />
        <path
           id="path3021"
           style="fill:#1064a7;fill-opacity:1;fill-rule:nonzero;stroke:none"
           d="m 2270.5,5506.89 c 10.05,-15.97 20.84,-0.84 23.46,-5 0.9,-1.43 0.05,-2.68 -2.94,-4.57 -4.8,-3.01 -9.93,-5.52 -20.07,-11.89 -5.58,-3.52 -10.84,-7.55 -14.21,-9.67 -1.17,-0.73 -2,0.01 -2.42,0.67 -2.85,4.54 8.63,7.04 0.87,19.38 l -39.21,62.33 c -7.44,11.82 -19.83,-1.04 -22.69,3.5 -1.38,2.22 2.1,3.87 3.28,4.61 5.07,3.18 10.45,5.84 15,8.7 4.68,2.94 9.02,6.41 16.43,11.07 3.89,2.44 4.7,2.59 5.68,1.03 2.78,-4.42 -9.91,-5.86 -2.14,-18.2 l 38.96,-61.96" />
        <path
           id="path3023"
           style="fill:#1064a7;fill-opacity:1;fill-rule:nonzero;stroke:none"
           d="m 2280.25,5583.18 c -12.5,26.67 -23.83,10.34 -26.95,17.02 -0.59,1.25 -0.42,2.69 1.25,3.47 2.64,1.23 5.41,1.85 8.04,3.08 3.62,1.69 6.98,3.94 14.34,7.39 4.44,2.08 3.23,0.33 6.96,-1.15 l 84.55,-35.11 c 2.73,-1.1 5.17,-1.98 6,-1.59 0.83,0.38 0.33,2.18 -1.3,5.66 l -21.66,46.27 c -5.92,12.64 -21.71,2.21 -23.84,6.78 -0.47,0.98 -0.7,2.57 1.11,3.4 2.22,1.05 6.51,2.38 16.11,6.87 8.74,4.1 13.35,6.94 14.6,7.52 2.63,1.23 3.29,-0.15 3.48,-0.57 1.95,-4.17 -11.42,-6.37 -4.59,-20.95 l 36.51,-77.95 c 1.43,-3.06 1.95,-4.17 0.28,-4.96 -1.94,-0.91 -3.03,-0.4 -4.51,0.27 l -100.68,40.94 c -1.49,0.66 -2.65,0.97 -3.34,0.64 -0.84,-0.39 -0.66,-1.5 -0.07,-2.75 l 22.11,-47.23 c 12.49,-26.68 25.86,-8.91 28.92,-15.43 0.9,-1.95 -2.62,-3.44 -4.44,-4.28 -6.81,-3.19 -11.79,-4.84 -16.65,-7.13 -4.45,-2.08 -7.95,-4.39 -11.69,-6.15 -1.53,-0.72 -3.98,-2.71 -5.1,-0.35 -2.6,5.56 11.91,9.31 5.27,23.48 l -24.71,52.81" />
        <path
           id="path3025"
           style="fill:#1064a7;fill-opacity:1;fill-rule:nonzero;stroke:none"
           d="m 2493.91,5656.24 c 0.52,-1.92 -0.14,-2.9 -2.95,-3.7 -3.24,-0.92 -12.37,31.25 -51.19,20.25 -13.73,-3.9 -30.66,-18.43 -20.06,-55.77 5.73,-20.23 23.67,-44.16 47.59,-37.38 26.57,7.54 23.49,20.06 21.07,28.62 -6.53,23.03 -21.25,8.01 -22.84,13.63 -1.21,4.27 3.85,4.42 6.36,5.14 6.93,1.97 13.88,3.3 20.82,5.27 5.47,1.55 10.45,3.61 15.79,5.11 0.72,0.21 1.77,-0.13 2.2,-1.61 1.8,-6.34 -10.64,-1.26 -5.29,-20.15 1.73,-6.05 3.33,-10.06 3.93,-12.13 0.66,-2.36 0.72,-3.13 -0.39,-4.26 -11.86,-11.64 -26.32,-23.09 -42.4,-27.65 -43.25,-12.25 -60.61,23.64 -63.91,35.3 -7.03,24.8 -1.09,61.74 36.11,72.28 20.52,5.83 35.64,-0.25 39.62,0.88 3.25,0.91 2.37,5.13 4.74,5.79 2.22,0.64 3.12,-2.61 3.79,-4.97 l 7.01,-24.65" />
        <path
           id="path3027"
           style="fill:#1064a7;fill-opacity:1;fill-rule:nonzero;stroke:none"
           d="m 2531.41,5621.19 c -0.77,2.06 -2.91,6.25 0.88,6.79 2.42,0.35 2.92,-0.98 3.82,-2.87 6.94,-13.88 18.32,-26.36 35.2,-23.95 11.83,1.7 19.91,10.29 18.18,22.45 -1.85,12.9 -11.7,13.5 -37.69,20.8 -13.89,3.9 -23.69,8.54 -25.98,24.5 -2.5,17.46 7.83,31.95 25.61,34.49 12.44,1.78 19.66,-3.23 24.23,-2.58 1.98,0.29 5.43,3.25 7.41,3.54 2.27,0.33 2.14,-2.02 2.95,-5.47 l 4.57,-20.11 c 0.78,-3.3 0.58,-5.19 -2.76,-5.66 -3.49,-0.51 -9.8,27.42 -35.93,23.69 -10.02,-1.44 -16.04,-8.18 -14.58,-18.37 1.45,-10.17 10.09,-10.95 31.72,-17 17.27,-4.82 28.23,-9.92 30.99,-29.21 2.84,-19.89 -9.2,-35.41 -29.09,-38.25 -9.27,-1.32 -17.54,1.22 -26.64,1.93 -3.92,0.38 -3.95,1.61 -5.22,5.14 l -7.67,20.14" />
        <path
           id="path3029"
           style="fill:#1064a7;fill-opacity:1;fill-rule:nonzero;stroke:none"
           d="m 2772.4,5654.82 c -1.7,-31.09 -11.81,-56.52 -54.1,-54.22 -28.65,1.55 -43.26,15.71 -41.64,45.44 l 2.72,49.94 c 0.7,13.18 -15.49,9.13 -15.18,14.96 0.12,1.99 2.13,2.35 3.36,2.27 1.99,-0.1 13.44,-1.34 21.09,-1.75 7.83,-0.43 18.73,-0.41 21.64,-0.56 1.38,-0.08 1.62,-1.32 1.57,-2.24 -0.28,-5.21 -12.71,3.61 -14.07,-21.52 l -1.81,-33.24 c -1.27,-23.44 3.81,-43.24 31.23,-44.72 30.49,-1.66 35.78,22.34 37.18,48.23 l 1.65,30.32 c 0.95,17.63 -18.14,13.91 -17.85,19.42 0.13,2.44 2.71,1.54 4.69,1.44 4.42,-0.55 8.55,-1.09 12.84,-1.32 5.06,-0.27 9.83,-0.23 17.48,-0.33 1.86,-0.1 2.76,-0.46 2.66,-2.15 -0.22,-4.13 -10.65,1.97 -11.58,-15.35 l -1.88,-34.62" />
        <path
           id="path3031"
           style="fill:#1064a7;fill-opacity:1;fill-rule:nonzero;stroke:none"
           d="m 2819.32,5671.48 c 6.42,28.75 -12.52,22.76 -10.9,29.95 0.29,1.35 1.31,2.38 3.12,1.98 2.84,-0.64 5.39,-1.85 8.25,-2.48 3.88,-0.87 7.91,-1.14 15.84,-2.91 4.8,-1.08 2.77,-1.72 4.82,-5.17 l 45.43,-79.49 c 1.46,-2.54 2.87,-4.73 3.77,-4.94 0.9,-0.2 1.6,1.53 2.44,5.27 l 11.15,49.86 c 3.03,13.63 -15.84,15.02 -14.72,19.97 0.23,1.03 1.01,2.44 2.96,2 2.39,-0.53 6.61,-2.11 16.94,-4.41 9.43,-2.11 14.8,-2.69 16.15,-2.99 2.85,-0.64 2.52,-2.14 2.4,-2.59 -0.99,-4.49 -12.91,1.95 -16.44,-13.76 l -18.79,-84 c -0.72,-3.29 -1,-4.49 -2.79,-4.09 -2.11,0.46 -2.66,1.53 -3.42,2.96 l -54.61,93.98 c -0.78,1.43 -1.51,2.37 -2.27,2.54 -0.88,0.2 -1.42,-0.78 -1.72,-2.12 l -11.4,-50.91 c -6.41,-28.75 15.02,-22.86 13.43,-29.89 -0.44,-2.1 -4.16,-1.11 -6.11,-0.67 -7.34,1.63 -12.28,3.37 -17.54,4.55 -4.78,1.07 -8.96,1.37 -13.01,2.28 -1.64,0.36 -4.8,0.28 -4.23,2.83 1.32,5.99 15.11,0.08 18.53,15.36 l 12.72,56.89" />
        <path
           id="path3033"
           style="fill:#1064a7;fill-opacity:1;fill-rule:nonzero;stroke:none"
           d="m 2952.23,5572.83 c -6.37,-17.77 12.2,-16.93 10.54,-21.55 -0.57,-1.59 -2.08,-1.7 -5.41,-0.51 -5.34,1.92 -10.48,4.41 -21.73,8.45 -6.22,2.22 -12.64,3.86 -16.41,5.21 -1.29,0.46 -1.21,1.58 -0.96,2.3 1.82,5.05 10.86,-2.42 15.78,11.3 l 24.85,69.34 c 4.7,13.14 -13.07,14.93 -11.25,19.99 0.86,2.46 4.32,0.73 5.62,0.26 5.65,-2.01 11.06,-4.6 16.12,-6.42 5.19,-1.86 10.6,-3.14 18.82,-6.1 4.36,-1.55 4.94,-2.1 4.36,-3.83 -1.78,-4.91 -10.74,4.17 -15.67,-9.55 l -24.66,-68.89" />
        <path
           id="path3035"
           style="fill:#1064a7;fill-opacity:1;fill-rule:nonzero;stroke:none"
           d="m 3025.16,5522.81 c -3.3,-2.82 -4.4,-3.3 -5.92,-2.55 -1.35,0.69 -2.07,2.75 -1.66,9.74 l 5.68,96.96 c 0.33,6.52 -0.86,8.99 -5.8,13.17 -0.33,0.34 -1.7,2.05 -1.23,3.02 1.66,3.29 5.35,0.07 7.42,-0.96 4.53,-2.25 8.93,-5.13 13.6,-7.46 8.79,-4.38 13.04,-5.81 15.23,-6.91 4.38,-2.19 5.16,-2.39 3.97,-4.73 -1.84,-3.7 -9.03,2.46 -11.92,-3.31 -2.07,-4.12 -3.48,-11.46 -4.24,-21.55 l -4.2,-53.11 c -0.05,-1.17 -0.33,-3.43 0.49,-3.84 0.82,-0.42 2.33,1.24 3.22,1.99 l 39.63,32.36 c 8.71,7.14 11.37,11.81 12.48,14.01 6.43,12.91 -9.96,14.75 -7.57,19.56 1.29,2.6 5.07,0.2 6.73,-0.62 3.95,-1.99 7.54,-4.45 11.53,-6.44 3.85,-1.91 7.97,-3.28 11.79,-5.2 2.9,-1.44 5,-1.99 3.87,-4.32 -1.58,-3.16 -6.87,0.34 -14.61,-5.92 l -78.49,-63.89" />
        <path
           id="path3037"
           style="fill:#1064a7;fill-opacity:1;fill-rule:nonzero;stroke:none"
           d="m 3141.76,5531.88 c -3.73,-5.44 -4.34,-6.33 1.09,-10.06 l 7.97,-5.47 c 10.88,-7.47 19.24,3.9 21.76,2.17 0.9,-0.61 2.46,-1.32 0.23,-4.82 l -14.57,-23.12 c -0.99,-1.73 -3.34,-6.8 -6.4,-4.72 -4.03,2.78 8.71,13.75 -4.44,22.78 l -9.35,6.43 c -5.84,4 -6.37,2.13 -11.41,-5.19 l -11.11,-16.2 c -5.39,-7.84 -9.03,-12.04 0.1,-18.3 31.34,-21.54 40.95,-3.75 45.76,-7.06 0.5,-0.34 1.13,-1.33 -0.53,-3.73 -6.78,-9.87 -21.37,-15.12 -31.74,-8 -19.2,13.21 -26.44,18.93 -32.75,23.27 -3.95,2.69 -9.59,5.83 -16.55,10.61 -1.66,1.13 -1.97,2.28 -1.46,3.04 4,5.83 8.93,-7.61 19.51,7.82 l 40.65,59.19 c 7.83,11.39 -9.24,17.15 -5.77,22.21 0.77,1.14 2.5,1.45 4.26,0.24 5.18,-3.56 13.95,-10.33 33.28,-23.61 8.99,-6.17 18.09,-11.65 29.2,-19.3 1.66,-1.13 1.66,-3 0.88,-4.14 l -8.1,-12.87 c -1,-1.73 -3.25,-6.34 -6.14,-4.34 -5.95,4.08 14.08,12.11 -10.33,28.87 -15.31,10.51 -15.9,10.73 -21.89,2.01 l -12.15,-17.71" />
        <path
           id="path3039"
           style="fill:#1064a7;fill-opacity:1;fill-rule:nonzero;stroke:none"
           d="m 3239.88,5486.91 c 6.17,6.84 9.71,3.65 13.93,-0.16 11.5,-10.39 10.25,-24.58 0.17,-35.73 -6.09,-6.72 -12.52,-12.47 -29.82,3.17 -3.44,3.08 -7.64,6.89 -5.06,9.74 l 20.78,22.98 z m -61.64,-40.03 c -12.97,-14.34 -18.77,-2.25 -22.07,-5.89 -2.05,-2.28 0.65,-4.1 1.88,-5.23 5.7,-5.14 11.79,-9.83 17.95,-15.39 4.78,-4.32 7.46,-7.56 9.37,-9.3 2.62,-2.37 4.14,-2.51 5.08,-1.49 3.69,4.1 -11.78,9.62 -0.78,21.8 l 17.79,19.68 c 3.61,3.99 3.63,5.4 9.67,-0.05 5.72,-5.14 6.83,-8.02 4.94,-15.39 l -6.72,-26.62 c -2.42,-9.8 -5.27,-20.27 3.71,-28.39 4.55,-4.12 14.32,-8.4 17.5,-4.88 0.86,0.91 0.78,2.22 -0.25,3.14 -1.13,1.03 -2.89,1.38 -4.02,2.4 -0.92,0.82 -3.07,2.78 -2.47,5.53 4.79,21.75 10.04,46.99 10.63,47.68 1.05,1.14 5.25,-0.82 10.96,-1.19 5.74,-0.25 12.85,0.97 19.45,8.26 4.73,5.23 16.95,23.34 -7.97,45.88 -7.64,6.89 -15.76,13.43 -23.4,20.32 -7.15,6.48 -7.65,7.77 -12.91,12.49 -1.35,1.24 -3.01,1.7 -4.02,0.56 -3.73,-4.09 12.5,-11.1 0.96,-23.84 l -45.28,-50.08" />
        <path
           id="path3041"
           style="fill:#1064a7;fill-opacity:1;fill-rule:nonzero;stroke:none"
           d="m 3261.54,5381.76 c 1.31,1.75 3.71,5.81 6.19,2.9 1.59,-1.87 0.75,-3 -0.37,-4.76 -7.98,-13.31 -12.42,-29.62 -1.32,-42.56 7.77,-9.09 19.37,-11.29 28.67,-3.3 9.92,8.48 5.15,17.11 -2.64,42.96 -4.16,13.82 -5.51,24.59 6.72,35.07 13.42,11.47 31.19,10.52 42.87,-3.11 8.18,-9.55 7.81,-18.35 10.8,-21.84 1.33,-1.52 5.68,-2.84 6.97,-4.35 1.49,-1.75 -0.56,-2.89 -3.04,-5.42 l -14.53,-14.65 c -2.35,-2.43 -4.05,-3.29 -6.25,-0.72 -2.29,2.68 17.91,22.98 0.74,43.04 -6.6,7.69 -15.51,9.14 -23.32,2.46 -7.8,-6.69 -3.85,-14.4 2.65,-35.9 5.2,-17.16 6.78,-29.15 -8.02,-41.81 -15.28,-13.07 -34.83,-11.23 -47.91,4.03 -6.08,7.11 -8.34,15.45 -12.62,23.51 -1.82,3.51 -0.76,4.19 1.52,7.17 l 12.89,17.28" />
        <path
           id="path3043"
           style="fill:#1064a7;fill-opacity:1;fill-rule:nonzero;stroke:none"
           d="m 3326.21,5280.15 c -15.45,-10.84 0.2,-20.85 -3.81,-23.67 -1.38,-0.97 -2.67,-0.19 -4.72,2.7 -3.25,4.64 -6.02,9.64 -12.88,19.44 -3.8,5.39 -8.1,10.44 -10.39,13.7 -0.8,1.13 -0.07,2 0.55,2.44 4.38,3.09 7.46,-8.24 19.42,0.13 l 60.25,42.31 c 11.42,8.03 -2.03,19.75 2.34,22.84 2.13,1.5 3.95,-1.9 4.75,-3.04 3.46,-4.9 6.39,-10.15 9.45,-14.54 3.19,-4.52 6.86,-8.69 11.9,-15.84 2.63,-3.77 2.83,-4.58 1.32,-5.64 -4.27,-3 -6.36,9.6 -18.3,1.22 l -59.88,-42.05" />
        <path
           id="path3045"
           style="fill:#1064a7;fill-opacity:1;fill-rule:nonzero;stroke:none"
           d="m 3426.23,5255.89 c 6.45,3.54 6.39,5.25 3.36,10.77 l -6.15,11.31 c -8.32,15.21 -23.75,1.55 -27.07,7.61 -1.53,2.82 1.87,3.63 3.75,4.32 l 18.98,7.55 c 1.41,0.6 3.28,1.62 4.4,-0.39 6.81,-12.53 11.21,-21.85 21.97,-41.51 10.7,-19.66 16.17,-28.39 23.01,-40.91 1.13,-2.02 -0.78,-3.05 -2.05,-3.92 l -11.59,-8.24 c -1.48,-1.16 -5.91,-5.5 -7.81,-2 -2.97,5.38 14.36,9.23 5.37,24.43 l -6.27,11.45 c -3,5.53 -4.41,6.49 -10.88,2.97 l -60.86,-33.23 c -16.58,-9.04 -3.28,-24.15 -7.03,-26.21 -3.24,-1.76 -4.27,1.16 -6.42,5.06 -2.93,5.39 -4.83,10.12 -9.75,19.14 -4.94,9.03 -7.91,13.18 -10.84,18.57 -1.31,2.41 -2.71,4.64 0.26,6.25 5.25,2.87 7.09,-15.88 23.1,-7.13 l 62.52,34.11" />
        <path
           id="path3047"
           style="fill:#1064a7;fill-opacity:1;fill-rule:nonzero;stroke:none"
           d="m 3454.2,5145.88 c -6.15,-2.36 -7.17,-2.73 -4.81,-8.89 l 3.46,-9.02 c 4.71,-12.33 18.05,-7.72 19.16,-10.59 0.39,-1 1.25,-2.47 -2.56,-4.09 l -25.13,-10.76 c -1.78,-0.86 -6.62,-3.68 -7.93,-0.26 -1.76,4.59 14.96,6.39 9.29,21.3 l -4.08,10.6 c -2.54,6.59 -4.02,5.36 -12.34,2.18 l -18.34,-7.01 c -8.87,-3.4 -14.26,-4.8 -10.31,-15.12 13.59,-35.54 31.6,-26.35 33.67,-31.8 0.21,-0.56 0.17,-1.74 -2.54,-2.78 -11.19,-4.27 -26.17,-0.32 -30.65,11.44 -8.34,21.79 -11.05,30.6 -13.79,37.76 -1.71,4.45 -4.57,10.24 -7.59,18.13 -0.73,1.85 -0.33,2.99 0.54,3.32 6.57,2.52 3.01,-11.33 20.49,-4.65 l 67.07,25.66 c 12.89,4.93 2.13,19.38 7.85,21.57 1.29,0.49 2.88,-0.23 3.66,-2.23 2.22,-5.87 5.6,-16.41 13.98,-38.34 3.89,-10.17 8.26,-19.84 13.09,-32.45 0.68,-1.86 -0.34,-3.41 -1.64,-3.91 l -13.97,-6 c -1.8,-0.85 -6.25,-3.38 -7.54,-0.08 -2.56,6.73 18.5,1.96 7.91,29.62 -6.62,17.35 -6.99,17.86 -16.89,14.08 l -20.06,-7.68" />
        <path
           id="path3049"
           style="fill:#1064a7;fill-opacity:1;fill-rule:nonzero;stroke:none"
           d="m 3510.12,5043.48 c 7.17,1.69 7.56,3.35 6.13,9.48 l -2.93,12.55 c -3.98,16.87 -22.5,7.81 -24.06,14.53 -0.76,3.13 2.75,3.01 4.76,3.16 l 20.28,2.25 c 1.52,0.19 3.61,0.68 4.16,-1.56 3.22,-13.89 5.02,-24.03 10.11,-45.85 5.12,-21.8 8.05,-31.67 11.33,-45.56 0.53,-2.25 -1.58,-2.72 -3.04,-3.24 l -13.32,-4.86 c -1.76,-0.72 -7.21,-3.73 -8.09,0.15 -1.41,5.97 16.29,5.1 11.66,22.13 l -2.99,12.69 c -1.44,6.12 -2.54,7.44 -9.71,5.76 l -67.5,-15.84 c -18.37,-4.32 -9.55,-22.41 -13.73,-23.4 -3.61,-0.84 -3.86,2.24 -4.86,6.59 -1.41,5.97 -1.95,11.05 -4.3,21.05 -2.34,10.01 -4.12,14.79 -5.5,20.77 -0.65,2.69 -1.39,5.19 1.91,5.97 5.82,1.36 2.6,-17.19 20.39,-13.02 l 69.3,16.25" />
        <path
           id="path3051"
           style="fill:#1064a7;fill-opacity:1;fill-rule:nonzero;stroke:none"
           d="m 1566.13,3523.19 20.87,0 0,-87.63 40.39,0 0,-16.4 -61.26,0 0,104.03" />
        <path
           id="path3053"
           style="fill:#1064a7;fill-opacity:1;fill-rule:nonzero;stroke:none"
           d="m 1668.68,3419.16 20.8633,0 0,104.031 -20.8633,0 0,-104.031 z" />
        <path
           id="path3055"
           style="fill:#1064a7;fill-opacity:1;fill-rule:nonzero;stroke:none"
           d="m 1740.67,3523.19 25.64,0 39.64,-77.8 0.3,0 0,77.8 19.98,0 0,-104.03 -25.49,0 -39.8,77.8 -0.3,0 0,-77.8 -19.97,0 0,104.03" />
        <path
           id="path3057"
           style="fill:#1064a7;fill-opacity:1;fill-rule:nonzero;stroke:none"
           d="m 1879.14,3523.19 20.86,0 0,-44.71 37.56,44.71 25.64,0 -42.78,-49.03 44.56,-55 -27.27,0 -37.41,48.29 -0.3,0 0,-48.29 -20.86,0 0,104.03" />
        <path
           id="path3059"
           style="fill:#1064a7;fill-opacity:1;fill-rule:nonzero;stroke:none"
           d="m 2025.05,3471.48 c 0,18.32 8.5,37.11 29.21,37.11 20.72,0 29.22,-18.79 29.22,-37.11 0,-18.78 -7.91,-37.71 -29.22,-37.71 -21.31,0 -29.21,18.93 -29.21,37.71 z m 35.92,79.29 0,-17.29 17.29,0 0,17.29 -17.29,0 z m -13.41,-17.29 0,17.29 -17.29,0 0,-17.29 17.29,0 z m -44.27,-62 c 0,-31.9 17.59,-54.1 50.97,-54.1 32.94,0 50.98,22.65 50.98,54.1 0,31.45 -18.34,53.5 -50.98,53.5 -33.08,0 -50.97,-21.61 -50.97,-53.5" />
        <path
           id="path3061"
           style="fill:#1064a7;fill-opacity:1;fill-rule:nonzero;stroke:none"
           d="m 2173.2,3506.8 7.31,0 c 10.73,0 19.82,-4.17 19.82,-16.24 0,-12.08 -9.39,-15.51 -19.82,-15.51 l -7.31,0 0,31.75 z m -20.86,-87.64 20.86,0 0,39.5 8.8,0 c 22.36,0 40.09,8.79 40.09,33.09 0,24.89 -20.72,31.44 -43.37,31.44 l -26.38,0 0,-104.03" />
        <path
           id="path3063"
           style="fill:#1064a7;fill-opacity:1;fill-rule:nonzero;stroke:none"
           d="m 2265.02,3419.16 20.8633,0 0,104.031 -20.8633,0 0,-104.031 z" />
        <path
           id="path3065"
           style="fill:#1064a7;fill-opacity:1;fill-rule:nonzero;stroke:none"
           d="m 2337.01,3523.19 25.63,0 39.65,-77.8 0.3,0 0,77.8 19.97,0 0,-104.03 -25.49,0 -39.79,77.8 -0.3,0 0,-77.8 -19.97,0 0,104.03" />
        <path
           id="path3067"
           style="fill:#1064a7;fill-opacity:1;fill-rule:nonzero;stroke:none"
           d="m 2556.7,3503.07 c -8.05,3.73 -18.48,5.52 -26.82,5.52 -24.3,0 -37.72,-16.39 -37.72,-37.71 0,-21.16 13.12,-37.11 35.33,-37.11 5.66,0 10.13,0.59 13.71,1.48 l 0,27.13 -22.06,0 0,16.4 42.03,0 0,-56.05 c -11.03,-2.97 -22.5,-5.35 -33.68,-5.35 -33.69,0 -57.08,16.84 -57.08,52.01 0,35.62 21.75,55.59 57.08,55.59 12.07,0 21.61,-1.64 30.55,-4.32 l -1.34,-17.59" />
        <path
           id="path3069"
           style="fill:#1064a7;fill-opacity:1;fill-rule:nonzero;stroke:none"
           d="m 2683.39,3523.19 20.87,0 0,-60.06 c 0,-17.74 5.66,-29.36 21.61,-29.36 15.95,0 21.61,11.62 21.61,29.36 l 0,60.06 20.87,0 0,-66.47 c 0,-27.87 -15.8,-39.34 -42.48,-39.34 -26.68,0 -42.48,11.47 -42.48,39.34 l 0,66.47" />
        <path
           id="path3071"
           style="fill:#1064a7;fill-opacity:1;fill-rule:nonzero;stroke:none"
           d="m 2820.51,3523.19 25.64,0 39.65,-77.8 0.29,0 0,77.8 19.97,0 0,-104.03 -25.48,0 -39.8,77.8 -0.3,0 0,-77.8 -19.97,0 0,104.03" />
        <path
           id="path3073"
           style="fill:#1064a7;fill-opacity:1;fill-rule:nonzero;stroke:none"
           d="m 2957.19,3419.16 20.8711,0 0,104.031 -20.8711,0 0,-104.031 z" />
        <path
           id="path3075"
           style="fill:#1064a7;fill-opacity:1;fill-rule:nonzero;stroke:none"
           d="m 3019.64,3523.19 22.36,0 26.67,-81.67 0.31,0 26.37,81.67 20.72,0 -35.02,-104.03 -25.64,0 -35.77,104.03" />
        <path
           id="path3077"
           style="fill:#1064a7;fill-opacity:1;fill-rule:nonzero;stroke:none"
           d="m 3159.44,3523.19 61.41,0 0,-16.39 -40.54,0 0,-25.64 37.11,0 0,-16.39 -37.11,0 0,-29.21 40.84,0 0,-16.4 -61.71,0 0,104.03" />
        <path
           id="path3079"
           style="fill:#1064a7;fill-opacity:1;fill-rule:nonzero;stroke:none"
           d="m 3291.2,3506.8 6.86,0 c 10.44,0 22.06,-1.05 22.06,-13.57 0,-12.96 -11.78,-14.45 -22.06,-14.45 l -6.86,0 0,28.02 z m -20.87,-87.64 20.87,0 0,43.22 6.71,0 c 8.79,0 11.48,-2.98 14.45,-10.73 l 12.52,-32.49 23.26,0 -16.69,40.7 c -2.09,4.61 -5.36,10.28 -11.03,10.73 l 0,0.29 c 13.26,1.79 21.46,11.92 21.46,24.15 0,28.92 -26.68,28.16 -49.04,28.16 l -22.51,0 0,-104.03" />
        <path
           id="path3081"
           style="fill:#1064a7;fill-opacity:1;fill-rule:nonzero;stroke:none"
           d="m 3448.89,3504.12 c -6.55,2.83 -13.86,4.47 -21.16,4.47 -7.16,0 -16.39,-3.13 -16.39,-14.46 0,-18.04 45.6,-10.43 45.6,-45.31 0,-22.8 -18.03,-31.44 -39.05,-31.44 -11.33,0 -16.39,1.48 -26.68,4.01 l 1.94,18.79 c 7.15,-3.88 15.36,-6.41 23.55,-6.41 7.9,0 18.49,4.02 18.49,13.41 0,19.82 -45.62,11.63 -45.62,46.05 0,23.25 18.04,31.75 36.37,31.75 8.94,0 17.29,-1.19 24.89,-3.72 l -1.94,-17.14" />
        <path
           id="path3083"
           style="fill:#1064a7;fill-opacity:1;fill-rule:nonzero;stroke:none"
           d="m 3503.89,3419.16 20.8633,0 0,104.031 -20.8633,0 0,-104.031 z" />
        <path
           id="path3085"
           style="fill:#1064a7;fill-opacity:1;fill-rule:nonzero;stroke:none"
           d="m 3595.86,3506.8 -29.81,0 0,16.39 80.48,0 0,-16.39 -29.81,0 0,-87.64 -20.86,0 0,87.64" />
        <path
           id="path3087"
           style="fill:#1064a7;fill-opacity:1;fill-rule:nonzero;stroke:none"
           d="m 3717.18,3460.29 -38.01,62.9 24.44,0 24.6,-43.67 25.04,43.67 22.06,0 -37.26,-62.9 0,-41.13 -20.87,0 0,41.13" />
        <path
           id="path3089"
           style="fill:#1064a7;fill-opacity:1;fill-rule:nonzero;stroke:none"
           d="m 1017.52,3637.19 44.5508,0 0,167.176 -44.5508,0 0,-167.176 z" />
        <path
           id="path3091"
           style="fill:#1064a7;fill-opacity:1;fill-rule:nonzero;stroke:none"
           d="m 1096.09,3804.36 56.76,0 56.53,-113.52 0.48,0 -0.72,113.52 40.72,0 0,-167.17 -55.33,0 -58.44,114.25 -0.48,0 1.43,-114.25 -40.95,0 0,167.17" />
        <path
           id="path3093"
           style="fill:#1064a7;fill-opacity:1;fill-rule:nonzero;stroke:none"
           d="m 1282.19,3678.39 c 11.5,-6.23 27.54,-11.03 45.99,-11.03 14.12,0 27.54,2.89 27.54,16.29 0,31.15 -79.04,11.49 -79.04,72.33 0,40.25 39.28,51.27 72.81,51.27 16.05,0 31.86,-2.41 43.11,-6.23 l -2.87,-34.5 c -11.5,5.28 -24.43,7.67 -37.12,7.67 -11.26,0 -29.94,-0.96 -29.94,-15.56 0,-27.08 79.03,-8.87 79.03,-69.23 0,-43.35 -36.4,-55.08 -73.52,-55.08 -15.57,0 -34.98,2.39 -49.82,7.18 l 3.83,36.89" />
        <path
           id="path3095"
           style="fill:#1064a7;fill-opacity:1;fill-rule:nonzero;stroke:none"
           d="m 1456.79,3771.32 -41.19,0 0,33.04 126.94,0 0,-33.04 -41.2,0 0,-134.13 -44.55,0 0,134.13" />
        <path
           id="path3097"
           style="fill:#1064a7;fill-opacity:1;fill-rule:nonzero;stroke:none"
           d="m 1563.38,3637.19 44.5469,0 0,167.176 -44.5469,0 0,-167.176 z" />
        <path
           id="path3099"
           style="fill:#1064a7;fill-opacity:1;fill-rule:nonzero;stroke:none"
           d="m 1669.96,3771.32 -41.19,0 0,33.04 126.94,0 0,-33.04 -41.2,0 0,-134.13 -44.55,0 0,134.13" />
        <path
           id="path3101"
           style="fill:#1064a7;fill-opacity:1;fill-rule:nonzero;stroke:none"
           d="m 1918.58,3700.66 c 0,-45.75 -29.7,-66.34 -73.3,-66.34 -43.58,0 -73.29,20.59 -73.29,66.34 l 0,103.7 44.55,0 0,-96.27 c 0,-22.04 5.99,-40.73 28.74,-40.73 22.76,0 28.75,18.69 28.75,40.73 l 0,96.27 44.55,0 0,-103.7" />
        <path
           id="path3103"
           style="fill:#1064a7;fill-opacity:1;fill-rule:nonzero;stroke:none"
           d="m 1976.05,3771.32 -41.19,0 0,33.04 126.94,0 0,-33.04 -41.19,0 0,-134.13 -44.56,0 0,134.13" />
        <path
           id="path3105"
           style="fill:#1064a7;fill-opacity:1;fill-rule:nonzero;stroke:none"
           d="m 2079.29,3804.36 117.84,0 0,-31.61 -73.29,0 0,-34.49 69.22,0 0,-31.61 -69.22,0 0,-37.85 75.93,0 0,-31.61 -120.48,0 0,167.17" />
        <path
           id="path3107"
           style="fill:#1064a7;fill-opacity:1;fill-rule:nonzero;stroke:none"
           d="m 2339.88,3720.78 c 0,28.98 10.77,53.41 37.84,53.41 27.07,0 37.85,-24.43 37.85,-53.41 0,-27.55 -10.78,-53.42 -37.85,-53.42 -27.07,0 -37.84,25.87 -37.84,53.42 z m -45.99,0 c 0,-53.17 29.22,-86.46 83.83,-86.46 54.61,0 83.83,33.29 83.83,86.46 0,53.65 -28.74,86.47 -83.83,86.47 -55.09,0 -83.83,-32.82 -83.83,-86.47" />
        <path
           id="path3109"
           style="fill:#1064a7;fill-opacity:1;fill-rule:nonzero;stroke:none"
           d="m 2485.27,3804.36 111.85,0 0,-31.61 -67.31,0 0,-36.64 64.43,0 0,-31.62 -64.43,0 0,-67.3 -44.54,0 0,167.17" />
        <path
           id="path3111"
           style="fill:#1064a7;fill-opacity:1;fill-rule:nonzero;stroke:none"
           d="m 2721.66,3771.32 -41.19,0 0,33.04 126.94,0 0,-33.04 -41.2,0 0,-134.13 -44.55,0 0,134.13" />
        <path
           id="path3113"
           style="fill:#1064a7;fill-opacity:1;fill-rule:nonzero;stroke:none"
           d="m 2824.9,3804.36 117.84,0 0,-31.61 -73.29,0 0,-34.49 69.22,0 0,-31.61 -69.22,0 0,-37.85 75.92,0 0,-31.61 -120.47,0 0,167.17" />
        <path
           id="path3115"
           style="fill:#1064a7;fill-opacity:1;fill-rule:nonzero;stroke:none"
           d="m 3111.84,3641.02 c -12.7,-3.11 -26.83,-6.7 -49.58,-6.7 -44.55,0 -96.05,22.5 -96.05,85.74 0,58.2 40.72,87.19 95.8,87.19 17.01,0 33.54,-3.84 49.58,-8.62 l -3.59,-36.18 c -14.37,7.91 -28.27,11.74 -43.59,11.74 -31.62,0 -52.21,-22.99 -52.21,-54.13 0,-32.81 23.23,-52.7 55.8,-52.7 14.62,0 29.46,3.84 41.68,8.62 l 2.16,-34.96" />
        <path
           id="path3117"
           style="fill:#1064a7;fill-opacity:1;fill-rule:nonzero;stroke:none"
           d="m 3132.19,3804.36 44.55,0 0,-63.94 52.69,0 0,63.94 44.55,0 0,-167.17 -44.55,0 0,71.61 -52.69,0 0,-71.61 -44.55,0 0,167.17" />
        <path
           id="path3119"
           style="fill:#1064a7;fill-opacity:1;fill-rule:nonzero;stroke:none"
           d="m 3305.83,3804.36 56.77,0 56.52,-113.52 0.49,0 -0.72,113.52 40.71,0 0,-167.17 -55.32,0 -58.45,114.25 -0.48,0 1.45,-114.25 -40.97,0 0,167.17" />
        <path
           id="path3121"
           style="fill:#1064a7;fill-opacity:1;fill-rule:nonzero;stroke:none"
           d="m 3531.22,3720.78 c 0,28.98 10.77,53.41 37.84,53.41 27.07,0 37.84,-24.43 37.84,-53.41 0,-27.55 -10.77,-53.42 -37.84,-53.42 -27.07,0 -37.84,25.87 -37.84,53.42 z m -45.99,0 c 0,-53.17 29.22,-86.46 83.83,-86.46 54.61,0 83.83,33.29 83.83,86.46 0,53.65 -28.74,86.47 -83.83,86.47 -55.08,0 -83.83,-32.82 -83.83,-86.47" />
        <path
           id="path3123"
           style="fill:#1064a7;fill-opacity:1;fill-rule:nonzero;stroke:none"
           d="m 3677.8,3804.36 44.56,0 0,-134.11 68.97,0 0,-33.06 -113.53,0 0,167.17" />
        <path
           id="path3125"
           style="fill:#1064a7;fill-opacity:1;fill-rule:nonzero;stroke:none"
           d="m 3850.73,3720.78 c 0,28.98 10.79,53.41 37.84,53.41 27.07,0 37.85,-24.43 37.85,-53.41 0,-27.55 -10.78,-53.42 -37.85,-53.42 -27.05,0 -37.84,25.87 -37.84,53.42 z m -45.98,0 c 0,-53.17 29.21,-86.46 83.82,-86.46 54.61,0 83.83,33.29 83.83,86.46 0,53.65 -28.74,86.47 -83.83,86.47 -55.09,0 -83.82,-32.82 -83.82,-86.47" />
        <path
           id="path3127"
           style="fill:#1064a7;fill-opacity:1;fill-rule:nonzero;stroke:none"
           d="m 4151.81,3641.98 c -28.27,-7.18 -49.35,-7.66 -64.68,-7.66 -44.55,0 -96.04,22.5 -96.04,85.74 0,63 44.31,87.19 105.62,87.19 11.02,0 34.26,-1.2 50.55,-7.44 l -3.6,-36.4 c -13.89,8.14 -30.18,10.78 -40.72,10.78 -36.16,0 -65.87,-15.09 -65.87,-54.13 0,-32.81 23.23,-52.7 55.81,-52.7 5.99,0 11.74,0.96 15.81,2.89 l 0,33.04 -26.11,0 0,31.62 69.23,0 0,-92.93" />
        <path
           id="path3129"
           style="fill:#1064a7;fill-opacity:1;fill-rule:nonzero;stroke:none"
           d="m 4232.52,3700.18 -61.8,104.18 51.26,0 32.82,-67.06 32.33,67.06 51.26,0 -61.32,-104.18 0,-62.99 -44.55,0 0,62.99" />
      </g>
    </g>
  </g>
</svg>
