<?xml version="1.0" encoding="UTF-8" standalone="no"?>
<!-- Created with Inkscape (http://www.inkscape.org/) -->

<svg
   xmlns:dc="http://purl.org/dc/elements/1.1/"
   xmlns:cc="http://creativecommons.org/ns#"
   xmlns:rdf="http://www.w3.org/1999/02/22-rdf-syntax-ns#"
   xmlns:svg="http://www.w3.org/2000/svg"
   xmlns="http://www.w3.org/2000/svg"
   xmlns:sodipodi="http://sodipodi.sourceforge.net/DTD/sodipodi-0.dtd"
   xmlns:inkscape="http://www.inkscape.org/namespaces/inkscape"
   width="25"
   height="25"
   id="svg3464"
   sodipodi:version="0.32"
   inkscape:version="0.48.4 r9939"
   version="1.0"
   sodipodi:docname="SignalPower.svg"
   inkscape:output_extension="org.inkscape.output.svg.inkscape">
  <sodipodi:namedview
     id="base"
     pagecolor="#ffffff"
     bordercolor="#666666"
     borderopacity="1.0"
     gridtolerance="10000"
     guidetolerance="10"
     objecttolerance="10"
     inkscape:pageopacity="0.0"
     inkscape:pageshadow="2"
     inkscape:zoom="1.9622213"
     inkscape:cx="-78.04886"
     inkscape:cy="3.4083524"
     inkscape:document-units="px"
     inkscape:current-layer="layer1"
     showgrid="false"
     inkscape:window-width="1276"
     inkscape:window-height="748"
     inkscape:window-x="0"
     inkscape:window-y="24"
     inkscape:window-maximized="0" />
  <defs
     id="defs3466">
    <inkscape:perspective
       sodipodi:type="inkscape:persp3d"
       inkscape:vp_x="0 : 526.18109 : 1"
       inkscape:vp_y="0 : 1000 : 0"
       inkscape:vp_z="744.09448 : 526.18109 : 1"
       inkscape:persp3d-origin="372.04724 : 350.78739 : 1"
       id="perspective3472" />
    <inkscape:perspective
       id="perspective3638"
       inkscape:persp3d-origin="0.5 : 0.33333333 : 1"
       inkscape:vp_z="1 : 0.5 : 1"
       inkscape:vp_y="0 : 1000 : 0"
       inkscape:vp_x="0 : 0.5 : 1"
       sodipodi:type="inkscape:persp3d" />
  </defs>
  <metadata
     id="metadata3469">
    <rdf:RDF>
      <cc:Work
         rdf:about="">
        <dc:format>image/svg+xml</dc:format>
        <dc:type
           rdf:resource="http://purl.org/dc/dcmitype/StillImage" />
      </cc:Work>
    </rdf:RDF>
  </metadata>
  <g
     inkscape:label="Layer 1"
     inkscape:groupmode="layer"
     id="layer1"
     transform="translate(-221.51094,-603.1616)">
    <path
       sodipodi:type="arc"
       style="fill:#ffffff;fill-opacity:1;stroke:#0000bb;stroke-width:8.20323849000000040;stroke-linecap:square;stroke-miterlimit:3;stroke-opacity:1;stroke-dasharray:none"
       id="path2395"
       sodipodi:cx="155"
       sodipodi:cy="513.07648"
       sodipodi:rx="63.57143"
       sodipodi:ry="63.57143"
       d="m 218.57143,513.07648 c 0,35.10953 -28.4619,63.57143 -63.57143,63.57143 -35.10953,0 -63.57143,-28.4619 -63.57143,-63.57143 0,-35.10953 28.4619,-63.57143 63.57143,-63.57143 35.10953,0 63.57143,28.4619 63.57143,63.57143 z"
       transform="matrix(-0.18483146,0,0,-0.1808989,262.65981,708.72657)" />
    <g
       id="g3861"
       transform="matrix(0.95161148,0,0,0.95161148,11.32344,30.108145)">
      <path
         inkscape:connector-curvature="0"
         id="path2997"
         style="font-size:9.10012817px;font-style:normal;font-variant:normal;font-weight:normal;font-stretch:normal;line-height:125%;letter-spacing:0px;word-spacing:0px;baseline-shift:super;fill:#0000bb;fill-opacity:1;stroke:none;font-family:Times New Roman;-inkscape-font-specification:Times New Roman"
         d="m 242.24919,613.49545 c 0.0227,0.0483 0.0333,0.0879 0.0319,0.11913 -9.6e-4,0.0312 -0.022,0.0568 -0.0617,0.0766 -0.0397,0.0198 -0.1007,0.0333 -0.18297,0.0404 -0.0822,0.007 -0.19146,0.0106 -0.32762,0.0106 -0.12765,0 -0.23048,-0.002 -0.30848,-0.007 -0.078,-0.004 -0.13899,-0.0127 -0.18297,-0.0256 -0.0439,-0.0127 -0.0766,-0.0283 -0.0978,-0.0468 -0.0213,-0.0185 -0.0376,-0.0419 -0.0489,-0.0702 l -0.70207,-1.34881 -0.70205,1.34881 c -0.0114,0.0283 -0.0269,0.0518 -0.0468,0.0702 -0.0198,0.0185 -0.0504,0.034 -0.0914,0.0468 -0.0412,0.0127 -0.0986,0.0213 -0.17232,0.0256 -0.0737,0.004 -0.1702,0.007 -0.28934,0.007 -0.12481,0 -0.22409,-0.004 -0.29785,-0.0106 -0.0737,-0.007 -0.12764,-0.0206 -0.16168,-0.0404 -0.034,-0.0198 -0.0518,-0.0454 -0.0531,-0.0766 -9.6e-4,-0.0312 0.0106,-0.071 0.0362,-0.11913 l 1.05096,-1.86791 -0.97011,-1.75303 c -0.0256,-0.051 -0.039,-0.0943 -0.0404,-0.12977 -9.6e-4,-0.0354 0.0163,-0.0631 0.0531,-0.083 0.0369,-0.0198 0.0958,-0.034 0.17658,-0.0425 0.0808,-0.009 0.19076,-0.0127 0.32975,-0.0127 0.12481,0 0.2248,0.002 0.29997,0.007 0.0752,0.004 0.13403,0.0106 0.17658,0.0192 0.0425,0.009 0.0737,0.022 0.0936,0.0404 0.0198,0.0185 0.0369,0.0418 0.051,0.0702 l 0.67653,1.26797 0.67228,-1.26797 c 0.009,-0.0227 0.0213,-0.0425 0.0383,-0.0596 0.017,-0.017 0.0439,-0.0312 0.0808,-0.0425 0.0369,-0.0113 0.0872,-0.0198 0.15106,-0.0256 0.0638,-0.006 0.15104,-0.009 0.26167,-0.009 0.12481,0 0.2248,0.003 0.29997,0.009 0.0752,0.006 0.12907,0.0185 0.16169,0.0383 0.0326,0.0198 0.0483,0.0475 0.0468,0.0829 -9.6e-4,0.0354 -0.0177,0.0816 -0.0489,0.13828 l -0.94459,1.72324 z" />
      <path
         inkscape:connector-curvature="0"
         id="path2995"
         style="font-size:14px;font-style:normal;font-variant:normal;font-weight:bold;font-stretch:normal;line-height:125%;letter-spacing:0px;word-spacing:0px;fill:#0000bb;fill-opacity:1;stroke:none;font-family:Calibri;-inkscape-font-specification:Calibri Bold"
         d="m 234.50035,618.85655 c -1e-5,0.0437 -0.0109,0.0819 -0.0327,0.11456 -0.0218,0.0328 -0.06,0.06 -0.11456,0.0819 -0.0546,0.0218 -0.12656,0.0382 -0.216,0.0491 -0.0894,0.0109 -0.20184,0.0164 -0.33712,0.0164 -0.14402,0 -0.26076,-0.006 -0.35021,-0.0164 -0.0894,-0.0109 -0.16038,-0.0273 -0.21275,-0.0491 -0.0524,-0.0218 -0.0894,-0.0491 -0.11128,-0.0819 -0.0218,-0.0327 -0.0327,-0.071 -0.0327,-0.11456 l 0,-0.67423 c -0.32293,0.34913 -0.65132,0.61096 -0.98515,0.78551 -0.33385,0.17457 -0.67969,0.26184 -1.03753,0.26184 -0.40148,0 -0.7386,-0.0655 -1.01134,-0.19638 -0.27276,-0.13092 -0.49313,-0.30983 -0.66114,-0.53676 -0.16802,-0.22692 -0.28802,-0.48985 -0.36003,-0.78878 -0.072,-0.29894 -0.108,-0.67096 -0.108,-1.11608 l 0,-3.57407 c 0,-0.0437 0.012,-0.0819 0.036,-0.11456 0.024,-0.0328 0.0676,-0.06 0.13091,-0.0819 0.0633,-0.0218 0.14838,-0.0382 0.2553,-0.0491 0.10691,-0.0109 0.23892,-0.0164 0.39602,-0.0164 0.16147,10e-6 0.29457,0.006 0.3993,0.0164 0.10474,0.0109 0.18874,0.0273 0.25203,0.0491 0.0633,0.0218 0.108,0.0491 0.13418,0.0819 0.0261,0.0327 0.0393,0.071 0.0393,0.11456 l 0,3.29914 c 0,0.30547 0.0196,0.53895 0.0589,0.70041 0.0393,0.16147 0.0993,0.30002 0.18002,0.41567 0.0807,0.11565 0.18328,0.2051 0.30766,0.26838 0.12437,0.0633 0.26947,0.0949 0.4353,0.0949 0.20947,0 0.42002,-0.0763 0.63168,-0.22911 0.21165,-0.15274 0.43748,-0.3753 0.67751,-0.66768 l 0,-3.88173 c -10e-6,-0.0437 0.012,-0.0819 0.036,-0.11456 0.024,-0.0327 0.0676,-0.06 0.13092,-0.0819 0.0633,-0.0218 0.14729,-0.0382 0.25202,-0.0491 0.10473,-0.0109 0.23783,-0.0164 0.3993,-0.0164 0.16146,10e-6 0.29456,0.006 0.3993,0.0164 0.10473,0.0109 0.18765,0.0273 0.24875,0.0491 0.0611,0.0218 0.10472,0.0491 0.13092,0.0819 0.0261,0.0328 0.0393,0.071 0.0393,0.11456 z" />
      <path
         style="font-size:14px;font-style:normal;font-variant:normal;font-weight:normal;font-stretch:normal;line-height:125%;letter-spacing:0px;word-spacing:0px;fill:none;stroke:#0000bc;stroke-width:1.62295663;stroke-linecap:butt;stroke-linejoin:miter;stroke-miterlimit:4;stroke-opacity:1;stroke-dasharray:none;font-family:Calibri;-inkscape-font-specification:Calibri"
         d="m 226.55214,610.58006 0,10.82519"
         id="path2998"
         inkscape:connector-curvature="0" />
      <path
         style="font-size:14px;font-style:normal;font-variant:normal;font-weight:normal;font-stretch:normal;line-height:125%;letter-spacing:0px;word-spacing:0px;fill:none;stroke:#0000bc;stroke-width:1.62295663;stroke-linecap:butt;stroke-linejoin:miter;stroke-miterlimit:4;stroke-opacity:1;stroke-dasharray:none;font-family:Calibri;-inkscape-font-specification:Calibri"
         d="m 236.87804,610.58006 0,10.82519"
         id="path2998-0"
         inkscape:connector-curvature="0" />
    </g>
  </g>
</svg>
