<?xml version="1.0" encoding="UTF-8" standalone="no"?>
<!-- Created with Inkscape (http://www.inkscape.org/) -->

<svg
   xmlns:dc="http://purl.org/dc/elements/1.1/"
   xmlns:cc="http://creativecommons.org/ns#"
   xmlns:rdf="http://www.w3.org/1999/02/22-rdf-syntax-ns#"
   xmlns:svg="http://www.w3.org/2000/svg"
   xmlns="http://www.w3.org/2000/svg"
   xmlns:sodipodi="http://sodipodi.sourceforge.net/DTD/sodipodi-0.dtd"
   xmlns:inkscape="http://www.inkscape.org/namespaces/inkscape"
   width="25.000004"
   height="25.000004"
   id="svg3336"
   sodipodi:version="0.32"
   inkscape:version="0.92.2 (5c3e80d, 2017-08-06)"
   sodipodi:docname="SignalCosh.svg"
   inkscape:output_extension="org.inkscape.output.svg.inkscape"
   version="1.0">
  <defs
     id="defs3338">
    <marker
       inkscape:stockid="Arrow2Mend"
       orient="auto"
       refY="0"
       refX="0"
       id="Arrow2Mend"
       style="overflow:visible">
      <path
         id="path3629"
         style="font-size:12px;fill-rule:evenodd;stroke-width:0.625;stroke-linejoin:round"
         d="M 8.7185878,4.0337352 -2.2072895,0.01601326 8.7185884,-4.0017078 c -1.7454984,2.3720609 -1.7354408,5.6174519 -6e-7,8.035443 l 0,0 z"
         transform="scale(-0.6,-0.6)"
         inkscape:connector-curvature="0" />
    </marker>
    <marker
       inkscape:stockid="DotM"
       orient="auto"
       refY="0"
       refX="0"
       id="DotM"
       style="overflow:visible">
      <path
         id="path3667"
         d="m -2.5,-1 c 0,2.76 -2.24,5 -5,5 -2.76,0 -5,-2.24 -5,-5 0,-2.76 2.24,-5 5,-5 2.76,0 5,2.24 5,5 z"
         style="fill-rule:evenodd;stroke:#000000;stroke-width:1pt;marker-start:none;marker-end:none"
         transform="matrix(0.4,0,0,0.4,2.96,0.4)"
         inkscape:connector-curvature="0" />
    </marker>
    <marker
       inkscape:stockid="DotL"
       orient="auto"
       refY="0"
       refX="0"
       id="DotL"
       style="overflow:visible">
      <path
         id="path3664"
         d="m -2.5,-1 c 0,2.76 -2.24,5 -5,5 -2.76,0 -5,-2.24 -5,-5 0,-2.76 2.24,-5 5,-5 2.76,0 5,2.24 5,5 z"
         style="fill-rule:evenodd;stroke:#000000;stroke-width:1pt;marker-start:none;marker-end:none"
         transform="matrix(0.8,0,0,0.8,5.92,0.8)"
         inkscape:connector-curvature="0" />
    </marker>
    <marker
       style="overflow:visible"
       id="TriangleOutL"
       refX="0"
       refY="0"
       orient="auto"
       inkscape:stockid="TriangleOutL">
      <path
         transform="scale(0.8,0.8)"
         style="fill-rule:evenodd;stroke:#000000;stroke-width:1pt;marker-start:none"
         d="m 5.77,0 -8.65,5 0,-10 8.65,5 z"
         id="path8118"
         inkscape:connector-curvature="0" />
    </marker>
    <inkscape:perspective
       sodipodi:type="inkscape:persp3d"
       inkscape:vp_x="0 : 526.18109 : 1"
       inkscape:vp_y="0 : 1000 : 0"
       inkscape:vp_z="744.09448 : 526.18109 : 1"
       inkscape:persp3d-origin="372.04724 : 350.78739 : 1"
       id="perspective3344" />
  </defs>
  <sodipodi:namedview
     id="base"
     pagecolor="#ffffff"
     bordercolor="#666666"
     borderopacity="1.0"
     gridtolerance="10000"
     guidetolerance="10"
     objecttolerance="10"
     inkscape:pageopacity="0.0"
     inkscape:pageshadow="2"
     inkscape:zoom="16.501798"
     inkscape:cx="17.668361"
     inkscape:cy="9.3802175"
     inkscape:document-units="px"
     inkscape:current-layer="layer1"
     showgrid="false"
     inkscape:window-width="1680"
     inkscape:window-height="987"
     inkscape:window-x="1672"
     inkscape:window-y="-8"
     showguides="true"
     inkscape:snap-global="true"
     inkscape:snap-intersection-line-segments="true"
     inkscape:snap-center="true"
     inkscape:window-maximized="1"
     fit-margin-top="0"
     fit-margin-left="0"
     fit-margin-right="0"
     fit-margin-bottom="0">
    <inkscape:grid
       type="xygrid"
       id="grid2405"
       visible="true"
       enabled="true"
       empspacing="5"
       snapvisiblegridlinesonly="true" />
  </sodipodi:namedview>
  <metadata
     id="metadata3341">
    <rdf:RDF>
      <cc:Work
         rdf:about="">
        <dc:format>image/svg+xml</dc:format>
        <dc:type
           rdf:resource="http://purl.org/dc/dcmitype/StillImage" />
        <dc:title />
      </cc:Work>
    </rdf:RDF>
  </metadata>
  <g
     inkscape:label="Layer 1"
     inkscape:groupmode="layer"
     id="layer1"
     transform="translate(-247.4661,-352.29314)">
    <path
       sodipodi:type="arc"
       style="fill:#ffffff;fill-opacity:1;stroke:#0000bb;stroke-width:8.11550139999999940;stroke-linecap:square;stroke-miterlimit:3;stroke-opacity:1;stroke-dasharray:none"
       id="path2395"
       sodipodi:cx="155"
       sodipodi:cy="513.07648"
       sodipodi:rx="63.57143"
       sodipodi:ry="63.57143"
       d="M 218.57143,513.07648 A 63.57143,63.57143 0 0 1 155,576.64791 63.57143,63.57143 0 0 1 91.42857,513.07648 63.57143,63.57143 0 0 1 155,449.50505 a 63.57143,63.57143 0 0 1 63.57143,63.57143 z"
       transform="matrix(-0.18483146,0,0,-0.18483146,288.61497,459.62581)" />
    <g
       aria-label="cosh"
       style="font-style:normal;font-weight:normal;font-size:9.33333302px;line-height:0%;font-family:sans-serif;letter-spacing:0px;word-spacing:0px;fill:#0000bb;fill-opacity:1;stroke:none"
       id="text2997">
      <path
         d="m 253.84337,363.36441 v 0.78385 q -0.35547,-0.19596 -0.7155,-0.29166 -0.35547,-0.10026 -0.72005,-0.10026 -0.81575,0 -1.26693,0.51953 -0.45117,0.51497 -0.45117,1.44922 0,0.93424 0.45117,1.45377 0.45118,0.51498 1.26693,0.51498 0.36458,0 0.72005,-0.0957 0.36003,-0.10026 0.7155,-0.29622 v 0.77474 q -0.35091,0.16406 -0.72917,0.24609 -0.3737,0.082 -0.79752,0.082 -1.153,0 -1.83204,-0.7246 -0.67903,-0.72461 -0.67903,-1.95508 0,-1.2487 0.68359,-1.9642 0.68815,-0.71549 1.88216,-0.71549 0.38737,0 0.75651,0.082 0.36914,0.0775 0.7155,0.23698 z"
         style="font-size:9.33333302px;line-height:1.25;font-family:sans-serif;fill:#0000bb;fill-opacity:1"
         id="path7337" />
      <path
         d="m 257.28868,363.75634 q -0.67448,0 -1.06641,0.52864 -0.39192,0.52409 -0.39192,1.44011 0,0.91601 0.38737,1.44466 0.39192,0.52409 1.07096,0.52409 0.66992,0 1.06185,-0.52865 0.39193,-0.52864 0.39193,-1.4401 0,-0.9069 -0.39193,-1.43555 -0.39193,-0.5332 -1.06185,-0.5332 z m 0,-0.71094 q 1.09375,0 1.7181,0.71094 0.62435,0.71094 0.62435,1.96875 0,1.25325 -0.62435,1.96875 -0.62435,0.71093 -1.7181,0.71093 -1.09831,0 -1.72266,-0.71093 -0.61979,-0.7155 -0.61979,-1.96875 0,-1.25781 0.61979,-1.96875 0.62435,-0.71094 1.72266,-0.71094 z"
         style="font-size:9.33333302px;line-height:1.25;font-family:sans-serif;fill:#0000bb;fill-opacity:1"
         id="path7339" />
      <path
         d="m 264.27045,363.31884 v 0.79297 q -0.35547,-0.1823 -0.73828,-0.27344 -0.38281,-0.0911 -0.79297,-0.0911 -0.62435,0 -0.9388,0.19141 -0.3099,0.19141 -0.3099,0.57422 0,0.29166 0.22331,0.46028 0.22331,0.16407 0.89779,0.31446 l 0.28711,0.0638 q 0.89323,0.19141 1.26692,0.54232 0.37826,0.34635 0.37826,0.9707 0,0.71094 -0.56511,1.12565 -0.56054,0.41471 -1.54492,0.41471 -0.41015,0 -0.85677,-0.082 -0.44206,-0.0775 -0.93424,-0.23698 v -0.86588 q 0.46484,0.24154 0.91601,0.36458 0.45117,0.11849 0.89323,0.11849 0.59245,0 0.91146,-0.20052 0.31901,-0.20508 0.31901,-0.57422 0,-0.34179 -0.23242,-0.52409 -0.22787,-0.18229 -1.00716,-0.35091 l -0.29167,-0.0684 q -0.7793,-0.16406 -1.12565,-0.5013 -0.34635,-0.3418 -0.34635,-0.93424 0,-0.72006 0.51041,-1.11198 0.51042,-0.39193 1.44922,-0.39193 0.46484,0 0.875,0.0684 0.41016,0.0684 0.75651,0.20508 z"
         style="font-size:9.33333302px;line-height:1.25;font-family:sans-serif;fill:#0000bb;fill-opacity:1"
         id="path7341" />
      <path
         d="m 270.12657,365.19188 v 3.08073 h -0.83854 v -3.05338 q 0,-0.72461 -0.28255,-1.08464 -0.28255,-0.36002 -0.84766,-0.36002 -0.67904,0 -1.07096,0.43294 -0.39193,0.43294 -0.39193,1.18034 v 2.88476 h -0.8431 v -7.09114 h 0.8431 v 2.77995 q 0.30078,-0.46029 0.70638,-0.68816 0.41016,-0.22786 0.94336,-0.22786 0.87956,0 1.33073,0.54688 0.45117,0.54231 0.45117,1.5996 z"
         style="font-size:9.33333302px;line-height:1.25;font-family:sans-serif;fill:#0000bb;fill-opacity:1"
         id="path7343" />
    </g>
  </g>
</svg>
