<?xml version="1.0" encoding="UTF-8" standalone="no"?>
<!-- Created with Inkscape (http://www.inkscape.org/) -->

<svg
   xmlns:dc="http://purl.org/dc/elements/1.1/"
   xmlns:cc="http://creativecommons.org/ns#"
   xmlns:rdf="http://www.w3.org/1999/02/22-rdf-syntax-ns#"
   xmlns:svg="http://www.w3.org/2000/svg"
   xmlns="http://www.w3.org/2000/svg"
   xmlns:sodipodi="http://sodipodi.sourceforge.net/DTD/sodipodi-0.dtd"
   xmlns:inkscape="http://www.inkscape.org/namespaces/inkscape"
   width="25.000004"
   height="25.000004"
   id="svg3336"
   sodipodi:version="0.32"
   inkscape:version="0.92.2 (5c3e80d, 2017-08-06)"
   sodipodi:docname="SignalLog10.svg"
   inkscape:output_extension="org.inkscape.output.svg.inkscape"
   version="1.0">
  <defs
     id="defs3338">
    <marker
       inkscape:stockid="Arrow2Mend"
       orient="auto"
       refY="0"
       refX="0"
       id="Arrow2Mend"
       style="overflow:visible">
      <path
         id="path3629"
         style="font-size:12px;fill-rule:evenodd;stroke-width:0.625;stroke-linejoin:round"
         d="M 8.7185878,4.0337352 -2.2072895,0.01601326 8.7185884,-4.0017078 c -1.7454984,2.3720609 -1.7354408,5.6174519 -6e-7,8.035443 l 0,0 z"
         transform="scale(-0.6,-0.6)"
         inkscape:connector-curvature="0" />
    </marker>
    <marker
       inkscape:stockid="DotM"
       orient="auto"
       refY="0"
       refX="0"
       id="DotM"
       style="overflow:visible">
      <path
         id="path3667"
         d="m -2.5,-1 c 0,2.76 -2.24,5 -5,5 -2.76,0 -5,-2.24 -5,-5 0,-2.76 2.24,-5 5,-5 2.76,0 5,2.24 5,5 z"
         style="fill-rule:evenodd;stroke:#000000;stroke-width:1pt;marker-start:none;marker-end:none"
         transform="matrix(0.4,0,0,0.4,2.96,0.4)"
         inkscape:connector-curvature="0" />
    </marker>
    <marker
       inkscape:stockid="DotL"
       orient="auto"
       refY="0"
       refX="0"
       id="DotL"
       style="overflow:visible">
      <path
         id="path3664"
         d="m -2.5,-1 c 0,2.76 -2.24,5 -5,5 -2.76,0 -5,-2.24 -5,-5 0,-2.76 2.24,-5 5,-5 2.76,0 5,2.24 5,5 z"
         style="fill-rule:evenodd;stroke:#000000;stroke-width:1pt;marker-start:none;marker-end:none"
         transform="matrix(0.8,0,0,0.8,5.92,0.8)"
         inkscape:connector-curvature="0" />
    </marker>
    <marker
       style="overflow:visible"
       id="TriangleOutL"
       refX="0"
       refY="0"
       orient="auto"
       inkscape:stockid="TriangleOutL">
      <path
         transform="scale(0.8,0.8)"
         style="fill-rule:evenodd;stroke:#000000;stroke-width:1pt;marker-start:none"
         d="m 5.77,0 -8.65,5 0,-10 8.65,5 z"
         id="path8118"
         inkscape:connector-curvature="0" />
    </marker>
    <inkscape:perspective
       sodipodi:type="inkscape:persp3d"
       inkscape:vp_x="0 : 526.18109 : 1"
       inkscape:vp_y="0 : 1000 : 0"
       inkscape:vp_z="744.09448 : 526.18109 : 1"
       inkscape:persp3d-origin="372.04724 : 350.78739 : 1"
       id="perspective3344" />
  </defs>
  <sodipodi:namedview
     id="base"
     pagecolor="#ffffff"
     bordercolor="#666666"
     borderopacity="1.0"
     gridtolerance="10000"
     guidetolerance="10"
     objecttolerance="10"
     inkscape:pageopacity="0.0"
     inkscape:pageshadow="2"
     inkscape:zoom="16.501798"
     inkscape:cx="18.940949"
     inkscape:cy="9.3802175"
     inkscape:document-units="px"
     inkscape:current-layer="layer1"
     showgrid="false"
     inkscape:window-width="1680"
     inkscape:window-height="987"
     inkscape:window-x="1672"
     inkscape:window-y="-8"
     showguides="true"
     inkscape:snap-global="true"
     inkscape:snap-intersection-line-segments="true"
     inkscape:snap-center="true"
     inkscape:window-maximized="1"
     fit-margin-top="0"
     fit-margin-left="0"
     fit-margin-right="0"
     fit-margin-bottom="0">
    <inkscape:grid
       type="xygrid"
       id="grid2405"
       visible="true"
       enabled="true"
       empspacing="5"
       snapvisiblegridlinesonly="true" />
  </sodipodi:namedview>
  <metadata
     id="metadata3341">
    <rdf:RDF>
      <cc:Work
         rdf:about="">
        <dc:format>image/svg+xml</dc:format>
        <dc:type
           rdf:resource="http://purl.org/dc/dcmitype/StillImage" />
        <dc:title />
      </cc:Work>
    </rdf:RDF>
  </metadata>
  <g
     inkscape:label="Layer 1"
     inkscape:groupmode="layer"
     id="layer1"
     transform="translate(-247.4661,-352.29314)">
    <path
       sodipodi:type="arc"
       style="fill:#ffffff;fill-opacity:1;stroke:#0000bb;stroke-width:8.11550139999999940;stroke-linecap:square;stroke-miterlimit:3;stroke-opacity:1;stroke-dasharray:none"
       id="path2395"
       sodipodi:cx="155"
       sodipodi:cy="513.07648"
       sodipodi:rx="63.57143"
       sodipodi:ry="63.57143"
       d="M 218.57143,513.07648 A 63.57143,63.57143 0 0 1 155,576.64791 63.57143,63.57143 0 0 1 91.42857,513.07648 63.57143,63.57143 0 0 1 155,449.50505 a 63.57143,63.57143 0 0 1 63.57143,63.57143 z"
       transform="matrix(-0.18483146,0,0,-0.18483146,288.61497,459.62581)" />
    <g
       id="g100"
       transform="translate(0.90412002,-1.5687419)"
       style="fill:#0000bb;fill-opacity:1">
      <g
         aria-label="log"
         style="font-style:normal;font-weight:normal;font-size:9.33333302px;line-height:25px;font-family:sans-serif;letter-spacing:0px;word-spacing:0px;fill:#0000bb;fill-opacity:1;stroke:none"
         id="text90">
        <path
           d="m 249.86065,361.23326 h 0.83854 v 7.09114 h -0.83854 z"
           style=""
           id="path3791" />
        <path
           d="m 254.42706,363.80813 q -0.67448,0 -1.06641,0.52864 -0.39193,0.52409 -0.39193,1.44011 0,0.91601 0.38737,1.44466 0.39193,0.52409 1.07097,0.52409 0.66992,0 1.06185,-0.52865 0.39192,-0.52865 0.39192,-1.4401 0,-0.90691 -0.39192,-1.43555 -0.39193,-0.5332 -1.06185,-0.5332 z m 0,-0.71094 q 1.09375,0 1.7181,0.71094 0.62435,0.71093 0.62435,1.96875 0,1.25325 -0.62435,1.96875 -0.62435,0.71093 -1.7181,0.71093 -1.09831,0 -1.72266,-0.71093 -0.61979,-0.7155 -0.61979,-1.96875 0,-1.25782 0.61979,-1.96875 0.62435,-0.71094 1.72266,-0.71094 z"
           style=""
           id="path3793" />
        <path
           d="m 261.51365,365.71307 q 0,-0.91145 -0.37826,-1.41276 -0.3737,-0.5013 -1.05273,-0.5013 -0.67448,0 -1.05274,0.5013 -0.3737,0.50131 -0.3737,1.41276 0,0.9069 0.3737,1.40821 0.37826,0.5013 1.05274,0.5013 0.67903,0 1.05273,-0.5013 0.37826,-0.50131 0.37826,-1.40821 z m 0.83854,1.97787 q 0,1.30338 -0.57878,1.93685 -0.57877,0.63802 -1.77278,0.63802 -0.44206,0 -0.83399,-0.0684 -0.39193,-0.0638 -0.76107,-0.20052 v -0.81576 q 0.36914,0.20052 0.72917,0.29623 0.36003,0.0957 0.73372,0.0957 0.82487,0 1.23503,-0.43294 0.41016,-0.42839 0.41016,-1.29883 v -0.41471 q -0.25977,0.45117 -0.66537,0.67447 -0.4056,0.22331 -0.9707,0.22331 -0.9388,0 -1.51302,-0.71549 -0.57422,-0.7155 -0.57422,-1.89584 0,-1.18489 0.57422,-1.90039 0.57422,-0.71549 1.51302,-0.71549 0.5651,0 0.9707,0.22331 0.4056,0.2233 0.66537,0.67447 v -0.77473 h 0.83854 z"
           style=""
           id="path3795" />
      </g>
      <g
         aria-label="10"
         style="font-style:normal;font-weight:normal;font-size:5.33333349px;line-height:25px;font-family:sans-serif;letter-spacing:0px;word-spacing:0px;fill:#0000bb;fill-opacity:1;stroke:none"
         id="text94">
        <path
           d="m 262.48986,370.97227 h 0.85937 v -2.96615 l -0.93489,0.1875 v -0.47916 l 0.92968,-0.1875 h 0.52605 v 3.44531 h 0.85937 v 0.44271 h -2.23958 z"
           style=""
           id="path3798" />
        <path
           d="m 266.91955,367.87331 q -0.40625,0 -0.61198,0.40104 -0.20313,0.39844 -0.20313,1.20052 0,0.79948 0.20313,1.20052 0.20573,0.39844 0.61198,0.39844 0.40885,0 0.61197,-0.39844 0.20573,-0.40104 0.20573,-1.20052 0,-0.80208 -0.20573,-1.20052 -0.20312,-0.40104 -0.61197,-0.40104 z m 0,-0.41667 q 0.65364,0 0.99739,0.51823 0.34636,0.51563 0.34636,1.5 0,0.98177 -0.34636,1.5 -0.34375,0.51563 -0.99739,0.51563 -0.65365,0 -1,-0.51563 -0.34375,-0.51823 -0.34375,-1.5 0,-0.98437 0.34375,-1.5 0.34635,-0.51823 1,-0.51823 z"
           style=""
           id="path3800" />
      </g>
    </g>
  </g>
</svg>
