<?xml version="1.0" encoding="UTF-8" standalone="no"?>
<!-- Created with Inkscape (http://www.inkscape.org/) -->

<svg
   xmlns:dc="http://purl.org/dc/elements/1.1/"
   xmlns:cc="http://creativecommons.org/ns#"
   xmlns:rdf="http://www.w3.org/1999/02/22-rdf-syntax-ns#"
   xmlns:svg="http://www.w3.org/2000/svg"
   xmlns="http://www.w3.org/2000/svg"
   xmlns:sodipodi="http://sodipodi.sourceforge.net/DTD/sodipodi-0.dtd"
   xmlns:inkscape="http://www.inkscape.org/namespaces/inkscape"
   width="25.000004"
   height="25.000004"
   id="svg3336"
   sodipodi:version="0.32"
   inkscape:version="0.92.2 (5c3e80d, 2017-08-06)"
   sodipodi:docname="SignalAtan.svg"
   inkscape:output_extension="org.inkscape.output.svg.inkscape"
   version="1.0">
  <defs
     id="defs3338">
    <marker
       inkscape:stockid="Arrow2Mend"
       orient="auto"
       refY="0"
       refX="0"
       id="Arrow2Mend"
       style="overflow:visible">
      <path
         id="path3629"
         style="font-size:12px;fill-rule:evenodd;stroke-width:0.625;stroke-linejoin:round"
         d="M 8.7185878,4.0337352 -2.2072895,0.01601326 8.7185884,-4.0017078 c -1.7454984,2.3720609 -1.7354408,5.6174519 -6e-7,8.035443 l 0,0 z"
         transform="scale(-0.6,-0.6)"
         inkscape:connector-curvature="0" />
    </marker>
    <marker
       inkscape:stockid="DotM"
       orient="auto"
       refY="0"
       refX="0"
       id="DotM"
       style="overflow:visible">
      <path
         id="path3667"
         d="m -2.5,-1 c 0,2.76 -2.24,5 -5,5 -2.76,0 -5,-2.24 -5,-5 0,-2.76 2.24,-5 5,-5 2.76,0 5,2.24 5,5 z"
         style="fill-rule:evenodd;stroke:#000000;stroke-width:1pt;marker-start:none;marker-end:none"
         transform="matrix(0.4,0,0,0.4,2.96,0.4)"
         inkscape:connector-curvature="0" />
    </marker>
    <marker
       inkscape:stockid="DotL"
       orient="auto"
       refY="0"
       refX="0"
       id="DotL"
       style="overflow:visible">
      <path
         id="path3664"
         d="m -2.5,-1 c 0,2.76 -2.24,5 -5,5 -2.76,0 -5,-2.24 -5,-5 0,-2.76 2.24,-5 5,-5 2.76,0 5,2.24 5,5 z"
         style="fill-rule:evenodd;stroke:#000000;stroke-width:1pt;marker-start:none;marker-end:none"
         transform="matrix(0.8,0,0,0.8,5.92,0.8)"
         inkscape:connector-curvature="0" />
    </marker>
    <marker
       style="overflow:visible"
       id="TriangleOutL"
       refX="0"
       refY="0"
       orient="auto"
       inkscape:stockid="TriangleOutL">
      <path
         transform="scale(0.8,0.8)"
         style="fill-rule:evenodd;stroke:#000000;stroke-width:1pt;marker-start:none"
         d="m 5.77,0 -8.65,5 0,-10 8.65,5 z"
         id="path8118"
         inkscape:connector-curvature="0" />
    </marker>
    <inkscape:perspective
       sodipodi:type="inkscape:persp3d"
       inkscape:vp_x="0 : 526.18109 : 1"
       inkscape:vp_y="0 : 1000 : 0"
       inkscape:vp_z="744.09448 : 526.18109 : 1"
       inkscape:persp3d-origin="372.04724 : 350.78739 : 1"
       id="perspective3344" />
  </defs>
  <sodipodi:namedview
     id="base"
     pagecolor="#ffffff"
     bordercolor="#666666"
     borderopacity="1.0"
     gridtolerance="10000"
     guidetolerance="10"
     objecttolerance="10"
     inkscape:pageopacity="0.0"
     inkscape:pageshadow="2"
     inkscape:zoom="16.501798"
     inkscape:cx="16.759369"
     inkscape:cy="9.3802175"
     inkscape:document-units="px"
     inkscape:current-layer="layer1"
     showgrid="false"
     inkscape:window-width="1680"
     inkscape:window-height="987"
     inkscape:window-x="1672"
     inkscape:window-y="-8"
     showguides="true"
     inkscape:snap-global="true"
     inkscape:snap-intersection-line-segments="true"
     inkscape:snap-center="true"
     inkscape:window-maximized="1"
     fit-margin-top="0"
     fit-margin-left="0"
     fit-margin-right="0"
     fit-margin-bottom="0">
    <inkscape:grid
       type="xygrid"
       id="grid2405"
       visible="true"
       enabled="true"
       empspacing="5"
       snapvisiblegridlinesonly="true" />
  </sodipodi:namedview>
  <metadata
     id="metadata3341">
    <rdf:RDF>
      <cc:Work
         rdf:about="">
        <dc:format>image/svg+xml</dc:format>
        <dc:type
           rdf:resource="http://purl.org/dc/dcmitype/StillImage" />
        <dc:title />
      </cc:Work>
    </rdf:RDF>
  </metadata>
  <g
     inkscape:label="Layer 1"
     inkscape:groupmode="layer"
     id="layer1"
     transform="translate(-247.4661,-352.29314)">
    <path
       sodipodi:type="arc"
       style="fill:#ffffff;fill-opacity:1;stroke:#0000bb;stroke-width:8.11550139999999940;stroke-linecap:square;stroke-miterlimit:3;stroke-opacity:1;stroke-dasharray:none"
       id="path2395"
       sodipodi:cx="155"
       sodipodi:cy="513.07648"
       sodipodi:rx="63.57143"
       sodipodi:ry="63.57143"
       d="M 218.57143,513.07648 A 63.57143,63.57143 0 0 1 155,576.64791 63.57143,63.57143 0 0 1 91.42857,513.07648 63.57143,63.57143 0 0 1 155,449.50505 a 63.57143,63.57143 0 0 1 63.57143,63.57143 z"
       transform="matrix(-0.18483146,0,0,-0.18483146,288.61497,459.62581)" />
    <g
       aria-label="atan"
       style="font-style:normal;font-weight:normal;font-size:9.33333302px;line-height:0%;font-family:sans-serif;letter-spacing:0px;word-spacing:0px;fill:#0000bb;fill-opacity:1;stroke:none"
       id="text2997">
      <path
         d="m 252.76785,365.438 q -1.01627,0 -1.4082,0.23242 -0.39193,0.23242 -0.39193,0.79297 0,0.44661 0.29167,0.71094 0.29622,0.25976 0.80208,0.25976 0.69727,0 1.11654,-0.49219 0.42383,-0.49674 0.42383,-1.31705 V 365.438 Z m 1.67253,-0.34636 v 2.91211 h -0.83854 v -0.77474 q -0.28711,0.46485 -0.7155,0.68816 -0.42838,0.21875 -1.04817,0.21875 -0.78386,0 -1.2487,-0.4375 -0.46029,-0.44206 -0.46029,-1.18034 0,-0.86133 0.57422,-1.29883 0.57878,-0.4375 1.72266,-0.4375 h 1.17578 v -0.082 q 0,-0.57878 -0.38282,-0.89323 -0.37825,-0.31901 -1.0664,-0.31901 -0.4375,0 -0.85222,0.10482 -0.41471,0.10481 -0.79752,0.31445 v -0.77474 q 0.46029,-0.17774 0.89323,-0.26432 0.43294,-0.0911 0.8431,-0.0911 1.10742,0 1.65429,0.57422 0.54688,0.57422 0.54688,1.74088 z"
         style="font-size:9.33333302px;line-height:1.25;font-family:sans-serif;fill:#0000bb;fill-opacity:1"
         id="path7097" />
      <path
         d="m 257.00158,361.45037 v 1.44922 h 1.72721 v 0.65169 h -1.72721 v 2.77083 q 0,0.62435 0.16862,0.80209 0.17317,0.17773 0.69726,0.17773 h 0.86133 v 0.70182 h -0.86133 q -0.9707,0 -1.33984,-0.36002 -0.36914,-0.36459 -0.36914,-1.32162 v -2.77083 h -0.61524 v -0.65169 h 0.61524 v -1.44922 z"
         style="font-size:9.33333302px;line-height:1.25;font-family:sans-serif;fill:#0000bb;fill-opacity:1"
         id="path7099" />
      <path
         d="m 262.15587,365.438 q -1.01627,0 -1.4082,0.23242 -0.39193,0.23242 -0.39193,0.79297 0,0.44661 0.29167,0.71094 0.29622,0.25976 0.80208,0.25976 0.69727,0 1.11654,-0.49219 0.42383,-0.49674 0.42383,-1.31705 V 365.438 Z m 1.67253,-0.34636 v 2.91211 h -0.83854 v -0.77474 q -0.28711,0.46485 -0.7155,0.68816 -0.42838,0.21875 -1.04817,0.21875 -0.78386,0 -1.2487,-0.4375 -0.46029,-0.44206 -0.46029,-1.18034 0,-0.86133 0.57422,-1.29883 0.57878,-0.4375 1.72266,-0.4375 h 1.17578 v -0.082 q 0,-0.57878 -0.38281,-0.89323 -0.37826,-0.31901 -1.06641,-0.31901 -0.4375,0 -0.85221,0.10482 -0.41472,0.10481 -0.79753,0.31445 v -0.77474 q 0.46029,-0.17774 0.89323,-0.26432 0.43294,-0.0911 0.8431,-0.0911 1.10742,0 1.65429,0.57422 0.54688,0.57422 0.54688,1.74088 z"
         style="font-size:9.33333302px;line-height:1.25;font-family:sans-serif;fill:#0000bb;fill-opacity:1"
         id="path7101" />
      <path
         d="m 269.80301,364.92302 v 3.08073 h -0.83854 v -3.05338 q 0,-0.72461 -0.28256,-1.08464 -0.28255,-0.36002 -0.84765,-0.36002 -0.67904,0 -1.07097,0.43294 -0.39192,0.43294 -0.39192,1.18034 v 2.88476 h -0.8431 v -5.10416 h 0.8431 v 0.79297 q 0.30078,-0.46029 0.70638,-0.68816 0.41015,-0.22786 0.94336,-0.22786 0.87955,0 1.33073,0.54688 0.45117,0.54231 0.45117,1.5996 z"
         style="font-size:9.33333302px;line-height:1.25;font-family:sans-serif;fill:#0000bb;fill-opacity:1"
         id="path7103" />
    </g>
  </g>
</svg>
