<?xml version="1.0" encoding="UTF-8" standalone="no"?>
<!-- Created with Inkscape (http://www.inkscape.org/) -->

<svg
   xmlns:dc="http://purl.org/dc/elements/1.1/"
   xmlns:cc="http://creativecommons.org/ns#"
   xmlns:rdf="http://www.w3.org/1999/02/22-rdf-syntax-ns#"
   xmlns:svg="http://www.w3.org/2000/svg"
   xmlns="http://www.w3.org/2000/svg"
   xmlns:sodipodi="http://sodipodi.sourceforge.net/DTD/sodipodi-0.dtd"
   xmlns:inkscape="http://www.inkscape.org/namespaces/inkscape"
   width="25.000004"
   height="25.000004"
   id="svg3336"
   sodipodi:version="0.32"
   inkscape:version="0.92.2 (5c3e80d, 2017-08-06)"
   sodipodi:docname="SignalAtan2.svg"
   inkscape:output_extension="org.inkscape.output.svg.inkscape"
   version="1.0">
  <defs
     id="defs3338">
    <marker
       inkscape:stockid="Arrow2Mend"
       orient="auto"
       refY="0"
       refX="0"
       id="Arrow2Mend"
       style="overflow:visible">
      <path
         id="path3629"
         style="font-size:12px;fill-rule:evenodd;stroke-width:0.625;stroke-linejoin:round"
         d="M 8.7185878,4.0337352 -2.2072895,0.01601326 8.7185884,-4.0017078 c -1.7454984,2.3720609 -1.7354408,5.6174519 -6e-7,8.035443 l 0,0 z"
         transform="scale(-0.6,-0.6)"
         inkscape:connector-curvature="0" />
    </marker>
    <marker
       inkscape:stockid="DotM"
       orient="auto"
       refY="0"
       refX="0"
       id="DotM"
       style="overflow:visible">
      <path
         id="path3667"
         d="m -2.5,-1 c 0,2.76 -2.24,5 -5,5 -2.76,0 -5,-2.24 -5,-5 0,-2.76 2.24,-5 5,-5 2.76,0 5,2.24 5,5 z"
         style="fill-rule:evenodd;stroke:#000000;stroke-width:1pt;marker-start:none;marker-end:none"
         transform="matrix(0.4,0,0,0.4,2.96,0.4)"
         inkscape:connector-curvature="0" />
    </marker>
    <marker
       inkscape:stockid="DotL"
       orient="auto"
       refY="0"
       refX="0"
       id="DotL"
       style="overflow:visible">
      <path
         id="path3664"
         d="m -2.5,-1 c 0,2.76 -2.24,5 -5,5 -2.76,0 -5,-2.24 -5,-5 0,-2.76 2.24,-5 5,-5 2.76,0 5,2.24 5,5 z"
         style="fill-rule:evenodd;stroke:#000000;stroke-width:1pt;marker-start:none;marker-end:none"
         transform="matrix(0.8,0,0,0.8,5.92,0.8)"
         inkscape:connector-curvature="0" />
    </marker>
    <marker
       style="overflow:visible"
       id="TriangleOutL"
       refX="0"
       refY="0"
       orient="auto"
       inkscape:stockid="TriangleOutL">
      <path
         transform="scale(0.8,0.8)"
         style="fill-rule:evenodd;stroke:#000000;stroke-width:1pt;marker-start:none"
         d="m 5.77,0 -8.65,5 0,-10 8.65,5 z"
         id="path8118"
         inkscape:connector-curvature="0" />
    </marker>
    <inkscape:perspective
       sodipodi:type="inkscape:persp3d"
       inkscape:vp_x="0 : 526.18109 : 1"
       inkscape:vp_y="0 : 1000 : 0"
       inkscape:vp_z="744.09448 : 526.18109 : 1"
       inkscape:persp3d-origin="372.04724 : 350.78739 : 1"
       id="perspective3344" />
  </defs>
  <sodipodi:namedview
     id="base"
     pagecolor="#ffffff"
     bordercolor="#666666"
     borderopacity="1.0"
     gridtolerance="10000"
     guidetolerance="10"
     objecttolerance="10"
     inkscape:pageopacity="0.0"
     inkscape:pageshadow="2"
     inkscape:zoom="16.501798"
     inkscape:cx="16.759369"
     inkscape:cy="9.3802175"
     inkscape:document-units="px"
     inkscape:current-layer="layer1"
     showgrid="false"
     inkscape:window-width="1680"
     inkscape:window-height="987"
     inkscape:window-x="1672"
     inkscape:window-y="-8"
     showguides="true"
     inkscape:snap-global="true"
     inkscape:snap-intersection-line-segments="true"
     inkscape:snap-center="true"
     inkscape:window-maximized="1"
     fit-margin-top="0"
     fit-margin-left="0"
     fit-margin-right="0"
     fit-margin-bottom="0">
    <inkscape:grid
       type="xygrid"
       id="grid2405"
       visible="true"
       enabled="true"
       empspacing="5"
       snapvisiblegridlinesonly="true" />
  </sodipodi:namedview>
  <metadata
     id="metadata3341">
    <rdf:RDF>
      <cc:Work
         rdf:about="">
        <dc:format>image/svg+xml</dc:format>
        <dc:type
           rdf:resource="http://purl.org/dc/dcmitype/StillImage" />
        <dc:title />
      </cc:Work>
    </rdf:RDF>
  </metadata>
  <g
     inkscape:label="Layer 1"
     inkscape:groupmode="layer"
     id="layer1"
     transform="translate(-247.4661,-352.29314)">
    <path
       sodipodi:type="arc"
       style="fill:#ffffff;fill-opacity:1;stroke:#0000bb;stroke-width:8.11550139999999940;stroke-linecap:square;stroke-miterlimit:3;stroke-opacity:1;stroke-dasharray:none"
       id="path2395"
       sodipodi:cx="155"
       sodipodi:cy="513.07648"
       sodipodi:rx="63.57143"
       sodipodi:ry="63.57143"
       d="M 218.57143,513.07648 A 63.57143,63.57143 0 0 1 155,576.64791 63.57143,63.57143 0 0 1 91.42857,513.07648 63.57143,63.57143 0 0 1 155,449.50505 a 63.57143,63.57143 0 0 1 63.57143,63.57143 z"
       transform="matrix(-0.18483146,0,0,-0.18483146,288.61497,459.62581)" />
    <g
       aria-label="atan2"
       style="font-style:normal;font-weight:normal;font-size:7.33333349px;line-height:0%;font-family:sans-serif;letter-spacing:0px;word-spacing:0px;fill:#0000bb;fill-opacity:1;stroke:none"
       id="text2997">
      <path
         d="m 252.0294,365.4466 q -0.7985,0 -1.10644,0.18262 -0.30794,0.18262 -0.30794,0.62305 0,0.35091 0.22916,0.55859 0.23275,0.2041 0.63021,0.2041 0.54785,0 0.87728,-0.38671 0.33301,-0.3903 0.33301,-1.03484 v -0.14681 z m 1.31413,-0.27213 v 2.28808 h -0.65885 v -0.60872 q -0.22559,0.36524 -0.56218,0.54069 -0.33659,0.17188 -0.82357,0.17188 -0.61588,0 -0.98111,-0.34375 -0.36166,-0.34733 -0.36166,-0.92741 0,-0.67676 0.45117,-1.02051 0.45476,-0.34375 1.35352,-0.34375 h 0.92383 v -0.0644 q 0,-0.45476 -0.30078,-0.70183 -0.2972,-0.25065 -0.83789,-0.25065 -0.34375,0 -0.6696,0.0824 -0.32585,0.0824 -0.62663,0.24707 v -0.60872 q 0.36165,-0.13965 0.70182,-0.20769 0.34017,-0.0716 0.66244,-0.0716 0.87012,0 1.2998,0.45117 0.42969,0.45117 0.42969,1.36784 z"
         style="font-size:7.33333349px;line-height:1.25;font-family:sans-serif;fill:#0000bb;fill-opacity:1"
         id="path7142" />
      <path
         d="m 255.3559,362.31347 v 1.13867 h 1.3571 v 0.51204 h -1.3571 v 2.17709 q 0,0.49056 0.13249,0.6302 0.13607,0.13965 0.54785,0.13965 h 0.67676 v 0.55143 h -0.67676 q -0.7627,0 -1.05273,-0.28287 -0.29004,-0.28646 -0.29004,-1.03841 v -2.17709 h -0.4834 v -0.51204 h 0.4834 v -1.13867 z"
         style="font-size:7.33333349px;line-height:1.25;font-family:sans-serif;fill:#0000bb;fill-opacity:1"
         id="path7144" />
      <path
         d="m 259.40571,365.4466 q -0.79851,0 -1.10645,0.18262 -0.30794,0.18262 -0.30794,0.62305 0,0.35091 0.22916,0.55859 0.23275,0.2041 0.63021,0.2041 0.54785,0 0.87728,-0.38671 0.33301,-0.3903 0.33301,-1.03484 v -0.14681 z m 1.31412,-0.27213 v 2.28808 h -0.65885 v -0.60872 q -0.22559,0.36524 -0.56218,0.54069 -0.33658,0.17188 -0.82356,0.17188 -0.61589,0 -0.98112,-0.34375 -0.36166,-0.34733 -0.36166,-0.92741 0,-0.67676 0.45118,-1.02051 0.45475,-0.34375 1.35351,-0.34375 h 0.92383 v -0.0644 q 0,-0.45476 -0.30078,-0.70183 -0.2972,-0.25065 -0.83789,-0.25065 -0.34375,0 -0.6696,0.0824 -0.32585,0.0824 -0.62663,0.24707 v -0.60872 q 0.36166,-0.13965 0.70183,-0.20769 0.34017,-0.0716 0.66243,-0.0716 0.87012,0 1.29981,0.45117 0.42968,0.45117 0.42968,1.36784 z"
         style="font-size:7.33333349px;line-height:1.25;font-family:sans-serif;fill:#0000bb;fill-opacity:1"
         id="path7146" />
      <path
         d="m 265.41417,365.04198 v 2.42057 h -0.65885 v -2.39908 q 0,-0.56934 -0.22201,-0.85222 -0.222,-0.28287 -0.66602,-0.28287 -0.53352,0 -0.84147,0.34016 -0.30794,0.34017 -0.30794,0.92741 v 2.2666 h -0.66243 v -4.01041 h 0.66243 v 0.62305 q 0.23633,-0.36166 0.55501,-0.5407 0.32227,-0.17903 0.74121,-0.17903 0.69109,0 1.04558,0.42969 0.35449,0.4261 0.35449,1.25683 z"
         style="font-size:7.33333349px;line-height:1.25;font-family:sans-serif;fill:#0000bb;fill-opacity:1"
         id="path7148" />
      <path
         d="m 267.4516,366.85383 h 2.52442 v 0.60872 h -3.39453 v -0.60872 q 0.41178,-0.42611 1.12077,-1.14225 0.71256,-0.71973 0.89518,-0.92741 0.34733,-0.3903 0.4834,-0.65885 0.13965,-0.27214 0.13965,-0.53353 0,-0.42611 -0.30079,-0.69466 -0.2972,-0.26856 -0.77701,-0.26856 -0.34017,0 -0.71973,0.11816 -0.37598,0.11817 -0.80567,0.35808 v -0.73047 q 0.43685,-0.17546 0.81641,-0.26498 0.37956,-0.0895 0.69466,-0.0895 0.83073,0 1.32487,0.41536 0.49414,0.41537 0.49414,1.11003 0,0.32942 -0.12532,0.62662 -0.12175,0.29362 -0.44759,0.69467 -0.0895,0.10384 -0.56934,0.60156 -0.47982,0.49414 -1.35352,1.38574 z"
         style="font-size:7.33333349px;line-height:1.25;font-family:sans-serif;fill:#0000bb;fill-opacity:1"
         id="path7150" />
    </g>
  </g>
</svg>
