<?xml version="1.0" encoding="UTF-8" standalone="no"?>
<!-- Created with Inkscape (http://www.inkscape.org/) -->

<svg
   xmlns:dc="http://purl.org/dc/elements/1.1/"
   xmlns:cc="http://creativecommons.org/ns#"
   xmlns:rdf="http://www.w3.org/1999/02/22-rdf-syntax-ns#"
   xmlns:svg="http://www.w3.org/2000/svg"
   xmlns="http://www.w3.org/2000/svg"
   xmlns:xlink="http://www.w3.org/1999/xlink"
   xmlns:sodipodi="http://sodipodi.sourceforge.net/DTD/sodipodi-0.dtd"
   xmlns:inkscape="http://www.inkscape.org/namespaces/inkscape"
   width="100"
   height="100"
   id="svg4568"
   sodipodi:version="0.32"
   inkscape:version="0.48.3.1 r9886"
   version="1.0"
   sodipodi:docname="valveplate.svg"
   inkscape:output_extension="org.inkscape.output.svg.inkscape">
  <defs
     id="defs4570">
    <linearGradient
       id="linearGradient3901">
      <stop
         id="stop3903"
         offset="0"
         style="stop-color:#1a1a1a;stop-opacity:1;" />
      <stop
         id="stop3905"
         offset="1"
         style="stop-color:#c4c4c4;stop-opacity:1;" />
    </linearGradient>
    <linearGradient
       id="linearGradient3885">
      <stop
         style="stop-color:#272727;stop-opacity:1;"
         offset="0"
         id="stop3887" />
      <stop
         style="stop-color:#ffffff;stop-opacity:1;"
         offset="1"
         id="stop3889" />
    </linearGradient>
    <inkscape:perspective
       sodipodi:type="inkscape:persp3d"
       inkscape:vp_x="0 : 526.18109 : 1"
       inkscape:vp_y="0 : 1000 : 0"
       inkscape:vp_z="744.09448 : 526.18109 : 1"
       inkscape:persp3d-origin="372.04724 : 350.78739 : 1"
       id="perspective4576" />
    <inkscape:perspective
       id="perspective3635"
       inkscape:persp3d-origin="0.5 : 0.33333333 : 1"
       inkscape:vp_z="1 : 0.5 : 1"
       inkscape:vp_y="0 : 1000 : 0"
       inkscape:vp_x="0 : 0.5 : 1"
       sodipodi:type="inkscape:persp3d" />
    <inkscape:perspective
       id="perspective3931"
       inkscape:persp3d-origin="0.5 : 0.33333333 : 1"
       inkscape:vp_z="1 : 0.5 : 1"
       inkscape:vp_y="0 : 1000 : 0"
       inkscape:vp_x="0 : 0.5 : 1"
       sodipodi:type="inkscape:persp3d" />
    <inkscape:perspective
       id="perspective3614"
       inkscape:persp3d-origin="0.5 : 0.33333333 : 1"
       inkscape:vp_z="1 : 0.5 : 1"
       inkscape:vp_y="0 : 1000 : 0"
       inkscape:vp_x="0 : 0.5 : 1"
       sodipodi:type="inkscape:persp3d" />
    <linearGradient
       inkscape:collect="always"
       xlink:href="#linearGradient3885"
       id="linearGradient3891"
       x1="-13.022322"
       y1="103.73661"
       x2="95.227676"
       y2="-5.3705359"
       gradientUnits="userSpaceOnUse"
       gradientTransform="matrix(0.91627908,0,0,0.91627908,407.14346,264.54767)" />
    <linearGradient
       inkscape:collect="always"
       xlink:href="#linearGradient3901"
       id="linearGradient3899"
       x1="-13.022322"
       y1="103.73661"
       x2="95.227676"
       y2="-5.3705359"
       gradientUnits="userSpaceOnUse"
       gradientTransform="matrix(0.91627908,0,0,0.91627908,407.14346,264.54767)" />
    <linearGradient
       inkscape:collect="always"
       xlink:href="#linearGradient3885"
       id="linearGradient3121"
       gradientUnits="userSpaceOnUse"
       gradientTransform="matrix(0.91627908,0,0,0.91627908,12.51846,5.01642)"
       x1="-13.022322"
       y1="103.73661"
       x2="95.227676"
       y2="-5.3705359" />
    <linearGradient
       inkscape:collect="always"
       xlink:href="#linearGradient3901"
       id="linearGradient3123"
       gradientUnits="userSpaceOnUse"
       gradientTransform="matrix(0.91627908,0,0,0.91627908,12.51846,5.01642)"
       x1="-13.022322"
       y1="103.73661"
       x2="95.227676"
       y2="-5.3705359" />
    <linearGradient
       inkscape:collect="always"
       xlink:href="#linearGradient3885"
       id="linearGradient3126"
       gradientUnits="userSpaceOnUse"
       gradientTransform="matrix(0.91627908,0,0,0.91627908,12.51846,5.01642)"
       x1="-13.022322"
       y1="103.73661"
       x2="95.227676"
       y2="-5.3705359" />
    <linearGradient
       inkscape:collect="always"
       xlink:href="#linearGradient3901"
       id="linearGradient3128"
       gradientUnits="userSpaceOnUse"
       gradientTransform="matrix(0.91627908,0,0,0.91627908,12.51846,5.01642)"
       x1="-13.022322"
       y1="103.73661"
       x2="95.227676"
       y2="-5.3705359" />
  </defs>
  <sodipodi:namedview
     id="base"
     pagecolor="#ffffff"
     bordercolor="#666666"
     borderopacity="1.0"
     gridtolerance="10000"
     guidetolerance="10"
     objecttolerance="10"
     inkscape:pageopacity="0.0"
     inkscape:pageshadow="2"
     inkscape:zoom="3.959798"
     inkscape:cx="55.337321"
     inkscape:cy="46.315124"
     inkscape:document-units="px"
     inkscape:current-layer="layer1"
     showgrid="false"
     inkscape:window-width="1280"
     inkscape:window-height="776"
     inkscape:window-x="0"
     inkscape:window-y="24"
     inkscape:window-maximized="1"
     fit-margin-top="0"
     fit-margin-left="0"
     fit-margin-right="0"
     fit-margin-bottom="0"
     showguides="true"
     inkscape:guide-bbox="true">
    <sodipodi:guide
       orientation="1,0"
       position="77.529207,76.392786"
       id="guide3078" />
    <sodipodi:guide
       orientation="1,0"
       position="49.876282,21.592011"
       id="guide3080" />
  </sodipodi:namedview>
  <metadata
     id="metadata4573">
    <rdf:RDF>
      <cc:Work
         rdf:about="">
        <dc:format>image/svg+xml</dc:format>
        <dc:type
           rdf:resource="http://purl.org/dc/dcmitype/StillImage" />
        <dc:title />
      </cc:Work>
    </rdf:RDF>
  </metadata>
  <g
     inkscape:label="Layer 1"
     inkscape:groupmode="layer"
     id="layer1"
     transform="translate(-394.625,-259.53125)">
    <path
       style="fill:url(#linearGradient3126);fill-opacity:1;stroke:url(#linearGradient3128);stroke-width:1.50000000000000000;stroke-linecap:round;stroke-linejoin:round;stroke-miterlimit:4;stroke-opacity:1;stroke-dasharray:none;stroke-dashoffset:0"
       d="M 50 0.75 C 22.79998 0.75 0.75 22.79998 0.75 50 C 0.75 77.20002 22.79998 99.25 50 99.25 C 77.20003 99.25 99.25 77.20002 99.25 50 C 99.25 22.79998 77.20003 0.75 50 0.75 z M 60.28125 12.125 C 61.189183 12.151707 62.111422 12.335503 63 12.59375 C 77.70684 17.42078 89.84375 31.72075 89.84375 49.96875 C 89.84375 69.48944 77.52921 83.08431 63 87.40625 C 61.03313 87.60113 56.97229 89.12915 55 84.59375 C 53.78697 81.80431 56.69481 79.23058 61 77.1875 C 72.73098 71.02846 79.3125 63.63184 79.3125 49.96875 C 79.3125 36.30565 72.91003 27.07136 61 22.71875 C 57.55099 21.323931 54.730648 19.314691 54.9375 16.53125 L 49.65625 14.65625 L 55.84375 14.125 C 56.708985 12.868912 57.980725 12.287532 59.375 12.15625 C 59.670258 12.128449 59.978606 12.116098 60.28125 12.125 z M 39.65625 12.1875 C 42.140743 12.121759 44.0706 13.149772 45 16.03125 C 45.55471 19.37892 42.58891 21.24621 39 22.8125 C 28.14895 27.07582 20.6875 37.59095 20.6875 49.96875 C 20.6875 63.63184 28.158 72.54369 39 77.1875 C 42.128557 78.554732 45.088649 80.834765 45.03125 84 L 50.375 85.9375 L 44.46875 86.40625 C 43.089798 89.194309 39.629888 88.197038 37 87.40625 C 22.09709 80.81146 10.15625 69.48944 10.15625 49.96875 C 10.15625 32.28307 22.04035 17.42078 37 12.59375 C 37.93321 12.364198 38.828086 12.209414 39.65625 12.1875 z M 50 34.96875 C 58.31363 34.96875 65.03125 41.68637 65.03125 50 C 65.03125 58.31362 58.31363 65.0625 50 65.0625 C 41.68637 65.0625 34.9375 58.31362 34.9375 50 C 34.9375 41.68637 41.68637 34.96875 50 34.96875 z "
       transform="translate(394.625,259.53125)"
       id="path3072" />
  </g>
</svg>
