<?xml version="1.0" encoding="UTF-8" standalone="no"?>
<!-- Created with Inkscape (http://www.inkscape.org/) -->

<svg
   xmlns:dc="http://purl.org/dc/elements/1.1/"
   xmlns:cc="http://creativecommons.org/ns#"
   xmlns:rdf="http://www.w3.org/1999/02/22-rdf-syntax-ns#"
   xmlns:svg="http://www.w3.org/2000/svg"
   xmlns="http://www.w3.org/2000/svg"
   xmlns:sodipodi="http://sodipodi.sourceforge.net/DTD/sodipodi-0.dtd"
   xmlns:inkscape="http://www.inkscape.org/namespaces/inkscape"
   width="25.000004"
   height="25.000004"
   id="svg3207"
   sodipodi:version="0.32"
   inkscape:version="0.48.0 r9654"
   version="1.0"
   sodipodi:docname="divide.svg"
   inkscape:output_extension="org.inkscape.output.svg.inkscape">
  <defs
     id="defs3209">
    <inkscape:perspective
       sodipodi:type="inkscape:persp3d"
       inkscape:vp_x="0 : 526.18109 : 1"
       inkscape:vp_y="0 : 1000 : 0"
       inkscape:vp_z="744.09448 : 526.18109 : 1"
       inkscape:persp3d-origin="372.04724 : 350.78739 : 1"
       id="perspective3215" />
  </defs>
  <sodipodi:namedview
     id="base"
     pagecolor="#ffffff"
     bordercolor="#666666"
     borderopacity="1.0"
     gridtolerance="10000"
     guidetolerance="10"
     objecttolerance="10"
     inkscape:pageopacity="0.0"
     inkscape:pageshadow="2"
     inkscape:zoom="5.6"
     inkscape:cx="-42.927213"
     inkscape:cy="-25.307397"
     inkscape:document-units="px"
     inkscape:current-layer="layer1"
     showgrid="false"
     inkscape:window-width="1680"
     inkscape:window-height="982"
     inkscape:window-x="-8"
     inkscape:window-y="-8"
     inkscape:window-maximized="1" />
  <metadata
     id="metadata3212">
    <rdf:RDF>
      <cc:Work
         rdf:about="">
        <dc:format>image/svg+xml</dc:format>
        <dc:type
           rdf:resource="http://purl.org/dc/dcmitype/StillImage" />
      </cc:Work>
    </rdf:RDF>
  </metadata>
  <g
     inkscape:label="Layer 1"
     inkscape:groupmode="layer"
     id="layer1"
     transform="translate(-513.99099,-160.46754)">
    <path
       style="fill:#ffffff;fill-opacity:1;stroke:#0000bb;stroke-width:1.5;stroke-linecap:square;stroke-miterlimit:3;stroke-opacity:1;stroke-dasharray:none"
       d="m 514.74097,172.96754 c 0,-6.48935 5.26066,-11.74999 11.75,-11.74999 6.48935,0 11.75,5.26064 11.75,11.74999 0,6.48935 -5.26065,11.75 -11.75,11.75 -6.48934,0 -11.75,-5.26065 -11.75,-11.75 z"
       id="path2395"
       inkscape:connector-curvature="0" />
    <path
       style="fill:none;stroke:#0000bb;stroke-width:1.5;stroke-linecap:square;stroke-linejoin:miter;stroke-miterlimit:4;stroke-opacity:1;stroke-dasharray:none"
       d="m 519.67482,172.96754 13.63235,0"
       id="path2384"
       inkscape:connector-curvature="0" />
    <g
       id="g3758"
       transform="translate(0.25000191,-0.25000809)">
      <path
         inkscape:connector-curvature="0"
         id="path3156"
         d="m 527.49099,168.71755 c 0,0.69035 -0.55964,1.25 -1.25,1.25 -0.69035,0 -1.25,-0.55965 -1.25,-1.25 0,-0.69036 0.55965,-1.25 1.25,-1.25 0.69036,0 1.25,0.55964 1.25,1.25 z"
         style="fill:#0000bb;fill-opacity:1;stroke:none" />
      <path
         inkscape:connector-curvature="0"
         id="path3158"
         d="m 527.49099,177.71755 c 0,0.69035 -0.55964,1.25 -1.25,1.25 -0.69035,0 -1.25,-0.55965 -1.25,-1.25 0,-0.69036 0.55965,-1.25 1.25,-1.25 0.69036,0 1.25,0.55964 1.25,1.25 z"
         style="fill:#0000bb;fill-opacity:1;stroke:none" />
    </g>
  </g>
</svg>
