<?xml version="1.0" encoding="UTF-8" standalone="no"?>
<!-- Created with Inkscape (http://www.inkscape.org/) -->

<svg
   xmlns:dc="http://purl.org/dc/elements/1.1/"
   xmlns:cc="http://creativecommons.org/ns#"
   xmlns:rdf="http://www.w3.org/1999/02/22-rdf-syntax-ns#"
   xmlns:svg="http://www.w3.org/2000/svg"
   xmlns="http://www.w3.org/2000/svg"
   xmlns:sodipodi="http://sodipodi.sourceforge.net/DTD/sodipodi-0.dtd"
   xmlns:inkscape="http://www.inkscape.org/namespaces/inkscape"
   width="356.8186"
   height="178.81204"
   id="svg2531"
   sodipodi:version="0.32"
   inkscape:version="0.48.1 r9760"
   sodipodi:docname="cylinderchelp.svg"
   inkscape:output_extension="org.inkscape.output.svg.inkscape"
   version="1.0">
  <defs
     id="defs2533">
    <linearGradient
       id="linearGradient3995">
      <stop
         style="stop-color:#c7c7c7;stop-opacity:1;"
         offset="0"
         id="stop3997" />
      <stop
         style="stop-color:#c7c7c7;stop-opacity:0;"
         offset="1"
         id="stop3999" />
    </linearGradient>
    <linearGradient
       id="linearGradient3173">
      <stop
         style="stop-color:#ffffff;stop-opacity:1;"
         offset="0"
         id="stop3175" />
      <stop
         style="stop-color:#454545;stop-opacity:1;"
         offset="1"
         id="stop3177" />
    </linearGradient>
    <linearGradient
       id="linearGradient3157">
      <stop
         style="stop-color:#ffffff;stop-opacity:1;"
         offset="0"
         id="stop3159" />
      <stop
         style="stop-color:#454545;stop-opacity:1;"
         offset="1"
         id="stop3161" />
    </linearGradient>
    <inkscape:perspective
       sodipodi:type="inkscape:persp3d"
       inkscape:vp_x="0 : 526.18109 : 1"
       inkscape:vp_y="0 : 1000 : 0"
       inkscape:vp_z="744.09448 : 526.18109 : 1"
       inkscape:persp3d-origin="372.04724 : 350.78739 : 1"
       id="perspective2539" />
  </defs>
  <sodipodi:namedview
     id="base"
     pagecolor="#ffffff"
     bordercolor="#666666"
     borderopacity="1.0"
     gridtolerance="10000"
     guidetolerance="10"
     objecttolerance="10"
     inkscape:pageopacity="0.0"
     inkscape:pageshadow="2"
     inkscape:zoom="3.0585939"
     inkscape:cx="218.50861"
     inkscape:cy="93.550697"
     inkscape:document-units="px"
     inkscape:current-layer="text3828"
     showgrid="false"
     inkscape:window-width="1920"
     inkscape:window-height="952"
     inkscape:window-x="0"
     inkscape:window-y="24"
     inkscape:window-maximized="1"
     showguides="true"
     inkscape:guide-bbox="true"
     fit-margin-top="5"
     fit-margin-left="5"
     fit-margin-right="5"
     fit-margin-bottom="5">
    <sodipodi:guide
       orientation="1,0"
       position="-14.728132,-141.55128"
       id="guide3946" />
  </sodipodi:namedview>
  <metadata
     id="metadata2536">
    <rdf:RDF>
      <cc:Work
         rdf:about="">
        <dc:format>image/svg+xml</dc:format>
        <dc:type
           rdf:resource="http://purl.org/dc/dcmitype/StillImage" />
        <dc:title />
      </cc:Work>
    </rdf:RDF>
  </metadata>
  <g
     inkscape:label="Layer 1"
     inkscape:groupmode="layer"
     id="layer1"
     transform="translate(-213.35551,-380.02155)">
    <rect
       ry="0"
       y="-410.83191"
       x="425.82825"
       height="151.71227"
       width="65.502991"
       id="rect2473"
       style="fill:#ffffff;fill-opacity:1;stroke:#000000;stroke-width:2;stroke-linecap:square;stroke-miterlimit:10.43299961;stroke-opacity:1;stroke-dasharray:none;stroke-dashoffset:0"
       transform="matrix(0,1,-1,0,0,0)" />
    <rect
       transform="matrix(0,1,-1,0,0,0)"
       style="fill:#cacaca;fill-opacity:1;stroke:#000000;stroke-width:2;stroke-linecap:butt;stroke-miterlimit:10.43299961;stroke-opacity:1;stroke-dasharray:none;stroke-dashoffset:0"
       id="rect2597"
       width="18.961397"
       height="161.26811"
       x="449.099"
       y="-502.67172"
       ry="0" />
    <rect
       transform="matrix(0,1,-1,0,0,0)"
       style="fill:#cacaca;fill-opacity:1;stroke:#000000;stroke-width:2;stroke-linecap:butt;stroke-miterlimit:10.43299961;stroke-opacity:1;stroke-dasharray:none;stroke-dashoffset:0"
       id="rect2599"
       width="65.503006"
       height="18.961393"
       x="425.82825"
       y="-343.46515"
       ry="0" />
    <path
       style="fill:none;stroke:#000000;stroke-width:1.99999988;stroke-linecap:butt;stroke-linejoin:miter;stroke-miterlimit:10.43299961;stroke-opacity:1;stroke-dasharray:none"
       d="m 259.1038,438.6174 27.56397,0"
       id="path4935"
       inkscape:connector-curvature="0"
       sodipodi:nodetypes="cc" />
    <path
       style="fill:none;stroke:#000000;stroke-width:2;stroke-linecap:butt;stroke-linejoin:miter;stroke-miterlimit:10.43299961;stroke-opacity:1;stroke-dasharray:none"
       d="m 297.63263,438.6174 26.42371,0"
       id="path4941"
       inkscape:connector-curvature="0"
       sodipodi:nodetypes="cc" />
    <g
       transform="matrix(0,-1,1,0,-254.97759,882.72283)"
       id="g4094-3-7"
       style="fill:#008000;stroke:#008000;stroke-linecap:square">
      <path
         inkscape:connector-curvature="0"
         id="path4078-2-9"
         d="m 330.38924,520.97488 44.64846,0"
         style="fill:#008000;stroke:#008000;stroke-width:3;stroke-linecap:square;stroke-linejoin:miter;stroke-miterlimit:4;stroke-opacity:1;stroke-dasharray:none" />
      <path
         inkscape:transform-center-x="-2.2808783"
         transform="matrix(0.62252686,0,0,0.63031211,428.06824,462.32948)"
         d="m -63.734831,93.45649 -21.983405,12.69212 0,-25.384245 z"
         inkscape:randomized="0"
         inkscape:rounded="0"
         inkscape:flatsided="true"
         sodipodi:arg2="1.0471976"
         sodipodi:arg1="0"
         sodipodi:r2="7.3278017"
         sodipodi:r1="14.655603"
         sodipodi:cy="93.45649"
         sodipodi:cx="-78.390434"
         sodipodi:sides="3"
         id="path4080-6-4"
         style="fill:#008000;fill-opacity:1;stroke:#008000;stroke-width:6.38562059;stroke-linecap:square;stroke-linejoin:round;stroke-miterlimit:4;stroke-opacity:1;stroke-dasharray:none;stroke-dashoffset:0"
         sodipodi:type="star" />
    </g>
    <g
       transform="matrix(0,-1,1,0,-117.10871,882.72283)"
       id="g4094-3-7-1"
       style="fill:#008000;stroke:#008000;stroke-linecap:square">
      <path
         inkscape:connector-curvature="0"
         id="path4078-2-9-4"
         d="m 330.38924,520.97488 44.64846,0"
         style="fill:#008000;stroke:#008000;stroke-width:3;stroke-linecap:square;stroke-linejoin:miter;stroke-miterlimit:4;stroke-opacity:1;stroke-dasharray:none" />
      <path
         inkscape:transform-center-x="-2.2808783"
         transform="matrix(0.62252686,0,0,0.63031211,428.06824,462.32948)"
         d="m -63.734831,93.45649 -21.983405,12.69212 0,-25.384245 z"
         inkscape:randomized="0"
         inkscape:rounded="0"
         inkscape:flatsided="true"
         sodipodi:arg2="1.0471976"
         sodipodi:arg1="0"
         sodipodi:r2="7.3278017"
         sodipodi:r1="14.655603"
         sodipodi:cy="93.45649"
         sodipodi:cx="-78.390434"
         sodipodi:sides="3"
         id="path4080-6-4-5"
         style="fill:#008000;fill-opacity:1;stroke:#008000;stroke-width:6.38562059;stroke-linecap:square;stroke-linejoin:round;stroke-miterlimit:4;stroke-opacity:1;stroke-dasharray:none;stroke-dashoffset:0"
         sodipodi:type="star" />
    </g>
    <g
       style="font-size:40px;font-style:normal;font-weight:normal;line-height:125%;letter-spacing:0px;word-spacing:0px;fill:#008000;fill-opacity:1;stroke:none;font-family:Sans"
       id="text3281">
      <path
         d="m 293.39679,531.49377 c -1e-5,0.0977 -0.0293,0.18555 -0.0879,0.26368 -0.0586,0.0781 -0.15627,0.14403 -0.29297,0.19775 -0.13673,0.0537 -0.32228,0.0952 -0.55664,0.12451 -0.23439,0.0293 -0.53224,0.0439 -0.89356,0.0439 -0.36134,-10e-6 -0.65919,-0.0147 -0.89355,-0.0439 -0.23439,-0.0293 -0.42237,-0.0708 -0.56396,-0.12451 -0.14162,-0.0537 -0.23927,-0.11963 -0.29297,-0.19775 -0.0537,-0.0781 -0.0806,-0.16602 -0.0806,-0.26368 l 0,-6.21093 c -0.35157,0.32226 -0.69337,0.60303 -1.02539,0.84228 -0.33204,0.23926 -0.66407,0.43457 -0.99609,0.58594 -0.33204,0.15137 -0.67384,0.26123 -1.02539,0.32959 -0.35157,0.0684 -0.72267,0.10254 -1.11329,0.10254 -0.95703,0 -1.77246,-0.19287 -2.44629,-0.57861 -0.67383,-0.38575 -1.22314,-0.90577 -1.64794,-1.56006 -0.42481,-0.6543 -0.73487,-1.41846 -0.93018,-2.29248 -0.19531,-0.87402 -0.29297,-1.79443 -0.29297,-2.76123 0,-1.16211 0.12695,-2.20703 0.38086,-3.13477 0.25391,-0.92772 0.625,-1.71874 1.11328,-2.37305 0.48828,-0.65428 1.08887,-1.15721 1.80176,-1.50879 0.71289,-0.35154 1.53808,-0.52733 2.47559,-0.52734 0.36132,10e-6 0.708,0.0366 1.04003,0.10986 0.33203,0.0733 0.66406,0.20021 0.9961,0.38086 0.33202,0.18068 0.67626,0.41506 1.03271,0.70313 0.35644,0.2881 0.7495,0.6421 1.1792,1.06201 l 0,-1.4209 c -1e-5,-0.0976 0.0268,-0.18309 0.0806,-0.25635 0.0537,-0.0732 0.14159,-0.13426 0.26367,-0.1831 0.12206,-0.0488 0.28075,-0.0854 0.47607,-0.10987 0.19531,-0.0244 0.44921,-0.0366 0.76172,-0.0366 0.29296,2e-5 0.53954,0.0122 0.73975,0.0366 0.20018,0.0244 0.35887,0.0611 0.47607,0.10987 0.11718,0.0488 0.20019,0.10988 0.24903,0.1831 0.0488,0.0733 0.0732,0.15871 0.0732,0.25635 z m -3.66211,-13.91601 c -0.52735,-0.66405 -1.03272,-1.17187 -1.51611,-1.52344 -0.48341,-0.35155 -0.98878,-0.52733 -1.51612,-0.52734 -0.47852,10e-6 -0.89112,0.11964 -1.23779,0.35888 -0.34669,0.23927 -0.62501,0.5591 -0.83496,0.95948 -0.20997,0.4004 -0.36622,0.84717 -0.46875,1.34033 -0.10254,0.49317 -0.15381,0.99854 -0.15381,1.51611 0,0.54688 0.0439,1.08155 0.13184,1.60401 0.0879,0.52246 0.23193,0.98389 0.43213,1.38427 0.20019,0.4004 0.4663,0.72266 0.79834,0.9668 0.33202,0.24414 0.75194,0.36621 1.25976,0.36621 0.2539,0 0.50048,-0.0366 0.73975,-0.10986 0.23925,-0.0732 0.48339,-0.19287 0.73242,-0.35889 0.24901,-0.16601 0.50536,-0.3833 0.76904,-0.65185 0.26366,-0.26855 0.55175,-0.59814 0.86426,-0.98877 z"
         style="font-size:30px;font-variant:normal;font-weight:bold;font-stretch:normal;fill:#008000;font-family:Calibri;-inkscape-font-specification:Calibri Bold"
         id="path3890"
         inkscape:connector-curvature="0" />
      <path
         d="m 304.2602,531.85411 c -10e-6,0.17774 -0.01,0.3285 -0.0286,0.45228 -0.019,0.12378 -0.046,0.22217 -0.0809,0.29517 -0.0349,0.073 -0.0746,0.12537 -0.11902,0.15711 -0.0444,0.0317 -0.0952,0.0476 -0.15235,0.0476 l -6.79843,0 c -0.0508,0 -0.0984,-0.0159 -0.14283,-0.0476 -0.0444,-0.0317 -0.0841,-0.0841 -0.11902,-0.15711 -0.0349,-0.073 -0.0619,-0.17139 -0.0809,-0.29517 -0.019,-0.12378 -0.0286,-0.27454 -0.0286,-0.45228 0,-0.18408 0.008,-0.33801 0.0238,-0.4618 0.0159,-0.12378 0.0413,-0.22375 0.0762,-0.29993 0.0349,-0.0762 0.0746,-0.13171 0.11902,-0.16663 0.0444,-0.0349 0.0952,-0.0524 0.15235,-0.0524 l 2.29471,0 0,-8.01721 -1.9805,1.09499 c -0.146,0.0698 -0.26502,0.11268 -0.35706,0.12854 -0.092,0.0159 -0.16504,-0.003 -0.219,-0.0571 -0.0539,-0.0539 -0.0905,-0.14757 -0.1095,-0.28089 -0.019,-0.13329 -0.0286,-0.32055 -0.0286,-0.56177 0,-0.15234 0.003,-0.27771 0.01,-0.37611 0.006,-0.0984 0.0222,-0.18248 0.0476,-0.25232 0.0254,-0.0698 0.0603,-0.12694 0.10474,-0.17139 0.0444,-0.0444 0.10473,-0.092 0.18091,-0.14282 l 2.64701,-1.71389 c 0.0317,-0.0254 0.0714,-0.046 0.11902,-0.0619 0.0476,-0.0159 0.10949,-0.0286 0.18567,-0.0381 0.0762,-0.01 0.17614,-0.0159 0.29993,-0.019 0.12378,-0.003 0.28406,-0.005 0.48084,-0.005 0.24121,1e-5 0.4364,0.005 0.58558,0.0143 0.14917,0.01 0.26184,0.0254 0.33802,0.0476 0.0762,0.0222 0.12695,0.0524 0.15234,0.0905 0.0254,0.0381 0.0381,0.0857 0.0381,0.14283 l 0,10.17861 2.00906,0 c 0.0571,0 0.10949,0.0175 0.15711,0.0524 0.0476,0.0349 0.0889,0.0905 0.12378,0.16663 0.0349,0.0762 0.0603,0.17615 0.0762,0.29993 0.0159,0.12379 0.0238,0.27772 0.0238,0.4618 z"
         style="font-size:65.00091553%;baseline-shift:sub;fill:#008000"
         id="path3892"
         inkscape:connector-curvature="0" />
    </g>
    <g
       style="font-size:40px;font-style:normal;font-weight:normal;line-height:125%;letter-spacing:0px;word-spacing:0px;fill:#008000;fill-opacity:1;stroke:none;font-family:Sans"
       id="text3281-1">
      <path
         d="m 431.20853,532.09845 c -2e-5,0.0977 -0.0293,0.18554 -0.0879,0.26367 -0.0586,0.0781 -0.15627,0.14404 -0.29297,0.19776 -0.13674,0.0537 -0.32228,0.0952 -0.55664,0.12451 -0.23439,0.0293 -0.53224,0.0439 -0.89356,0.0439 -0.36134,0 -0.65919,-0.0147 -0.89355,-0.0439 -0.23439,-0.0293 -0.42238,-0.0708 -0.56397,-0.12451 -0.14161,-0.0537 -0.23927,-0.11964 -0.29297,-0.19776 -0.0537,-0.0781 -0.0806,-0.16602 -0.0806,-0.26367 l 0,-6.21094 c -0.35158,0.32227 -0.69337,0.60303 -1.02539,0.84229 -0.33204,0.23926 -0.66407,0.43457 -0.9961,0.58593 -0.33204,0.15137 -0.67383,0.26124 -1.02539,0.32959 -0.35157,0.0684 -0.72266,0.10254 -1.11328,0.10254 -0.95704,0 -1.77246,-0.19287 -2.44629,-0.57861 -0.67383,-0.38574 -1.22315,-0.90576 -1.64795,-1.56006 -0.4248,-0.65429 -0.73486,-1.41845 -0.93017,-2.29248 -0.19532,-0.87402 -0.29297,-1.79443 -0.29297,-2.76123 0,-1.1621 0.12695,-2.20702 0.38086,-3.13476 0.2539,-0.92773 0.625,-1.71874 1.11328,-2.37305 0.48828,-0.65429 1.08886,-1.15721 1.80176,-1.50879 0.71288,-0.35155 1.53808,-0.52733 2.47558,-0.52734 0.36132,1e-5 0.708,0.0366 1.04004,0.10986 0.33202,0.0733 0.66406,0.20021 0.9961,0.38086 0.33202,0.18068 0.67626,0.41505 1.03271,0.70312 0.35644,0.2881 0.7495,0.64211 1.1792,1.06202 l 0,-1.4209 c -1e-5,-0.0977 0.0268,-0.1831 0.0806,-0.25635 0.0537,-0.0732 0.14159,-0.13426 0.26367,-0.18311 0.12206,-0.0488 0.28075,-0.0854 0.47607,-0.10986 0.1953,-0.0244 0.44921,-0.0366 0.76172,-0.0366 0.29296,10e-6 0.53954,0.0122 0.73975,0.0366 0.20018,0.0244 0.35887,0.0611 0.47607,0.10986 0.11717,0.0488 0.20018,0.10988 0.24902,0.18311 0.0488,0.0733 0.0732,0.1587 0.0732,0.25635 z m -3.66211,-13.91602 c -0.52736,-0.66405 -1.03273,-1.17186 -1.51612,-1.52343 -0.4834,-0.35155 -0.98877,-0.52734 -1.51611,-0.52735 -0.47852,10e-6 -0.89112,0.11964 -1.23779,0.35889 -0.34669,0.23927 -0.62501,0.55909 -0.83496,0.95947 -0.20997,0.4004 -0.36622,0.84718 -0.46875,1.34033 -0.10255,0.49318 -0.15382,0.99855 -0.15381,1.51612 -10e-6,0.54688 0.0439,1.08155 0.13183,1.604 0.0879,0.52247 0.23193,0.98389 0.43213,1.38428 0.20019,0.40039 0.46631,0.72266 0.79834,0.9668 0.33203,0.24414 0.75195,0.36621 1.25977,0.36621 0.2539,0 0.50048,-0.0366 0.73974,-0.10987 0.23925,-0.0732 0.48339,-0.19286 0.73243,-0.35888 0.24901,-0.16602 0.50536,-0.3833 0.76904,-0.65186 0.26366,-0.26855 0.55175,-0.59814 0.86426,-0.98877 z"
         style="font-size:30px;font-variant:normal;font-weight:bold;font-stretch:normal;fill:#008000;font-family:Calibri;-inkscape-font-specification:Calibri Bold"
         id="path3895"
         inkscape:connector-curvature="0" />
      <path
         d="m 442.18619,532.39214 c -1e-5,0.18408 -0.008,0.34119 -0.0238,0.47132 -0.0159,0.13013 -0.0397,0.23645 -0.0714,0.31897 -0.0317,0.0825 -0.073,0.14124 -0.12378,0.17615 -0.0508,0.0349 -0.10792,0.0524 -0.17139,0.0524 l -7.08409,0 c -0.13965,0 -0.26026,-0.0127 -0.36182,-0.0381 -0.10156,-0.0254 -0.18408,-0.0746 -0.24756,-0.14758 -0.0635,-0.073 -0.1095,-0.17933 -0.13806,-0.31898 -0.0286,-0.13965 -0.0428,-0.32056 -0.0428,-0.54273 0,-0.20947 0.01,-0.3888 0.0286,-0.53797 0.019,-0.14917 0.054,-0.28247 0.10474,-0.39991 0.0508,-0.11743 0.11585,-0.23169 0.19519,-0.34278 0.0794,-0.11108 0.1825,-0.23327 0.30946,-0.36658 l 2.13284,-2.28519 c 0.42529,-0.44433 0.76807,-0.849 1.02833,-1.214 0.26026,-0.36499 0.46339,-0.69825 0.60939,-0.99977 0.14599,-0.30151 0.24597,-0.57923 0.29993,-0.83314 0.054,-0.25391 0.0809,-0.49512 0.0809,-0.72365 0,-0.20946 -0.0333,-0.40783 -0.1,-0.5951 -0.0667,-0.18725 -0.16505,-0.3507 -0.29517,-0.49036 -0.13014,-0.13964 -0.29359,-0.24914 -0.49037,-0.3285 -0.19678,-0.0793 -0.42847,-0.11901 -0.69508,-0.11902 -0.37452,10e-6 -0.70619,0.0476 -0.995,0.14283 -0.28883,0.0952 -0.54274,0.20155 -0.76173,0.31897 -0.219,0.11744 -0.4015,0.22535 -0.5475,0.32374 -0.146,0.0984 -0.26026,0.14759 -0.34278,0.14758 -0.0571,10e-6 -0.10632,-0.019 -0.14758,-0.0571 -0.0413,-0.0381 -0.0746,-0.10155 -0.1,-0.19043 -0.0254,-0.0889 -0.046,-0.20788 -0.0619,-0.35706 -0.0159,-0.14916 -0.0238,-0.33166 -0.0238,-0.5475 0,-0.14598 0.005,-0.26818 0.0143,-0.36658 0.01,-0.0984 0.0238,-0.18407 0.0429,-0.25708 0.019,-0.073 0.0444,-0.13647 0.0762,-0.19043 0.0317,-0.0539 0.0873,-0.11901 0.16663,-0.1952 0.0793,-0.0762 0.22534,-0.17296 0.43799,-0.29041 0.21265,-0.11742 0.4745,-0.23168 0.78554,-0.34277 0.31103,-0.11108 0.65381,-0.20471 1.02833,-0.28089 0.37451,-0.0762 0.7649,-0.11425 1.17116,-0.11426 0.64112,10e-6 1.20131,0.0809 1.68057,0.2428 0.47924,0.16188 0.87756,0.38722 1.19496,0.67603 0.31738,0.28884 0.55383,0.63162 0.70936,1.02834 0.15551,0.39674 0.23327,0.82363 0.23328,1.28066 -10e-6,0.39991 -0.0381,0.79347 -0.11426,1.18068 -0.0762,0.38722 -0.23487,0.80458 -0.47608,1.25209 -0.24122,0.44752 -0.58083,0.94265 -1.01881,1.48537 -0.438,0.54274 -1.01882,1.17275 -1.74246,1.89004 l -1.43776,1.47585 4.85602,0 c 0.0635,10e-6 0.12219,0.019 0.17615,0.0571 0.0539,0.0381 0.1,0.0968 0.13806,0.17615 0.0381,0.0793 0.0666,0.18409 0.0857,0.31422 0.019,0.13013 0.0285,0.28406 0.0286,0.4618 z"
         style="font-size:65.00091553%;baseline-shift:sub;fill:#008000"
         id="path3897"
         inkscape:connector-curvature="0" />
    </g>
    <g
       transform="translate(174.78251,-80.730078)"
       id="g4094-5-7"
       style="stroke-linecap:square">
      <path
         inkscape:connector-curvature="0"
         id="path4078-6-8"
         d="m 330.38924,520.97488 44.64846,0"
         style="fill:#800000;stroke:#800000;stroke-width:3;stroke-linecap:square;stroke-linejoin:miter;stroke-miterlimit:4;stroke-opacity:1;stroke-dasharray:none" />
      <path
         inkscape:transform-center-x="-2.2808783"
         transform="matrix(0.62252686,0,0,0.63031211,428.06824,462.32948)"
         d="m -63.734831,93.45649 -21.983405,12.69212 0,-25.384245 z"
         inkscape:randomized="0"
         inkscape:rounded="0"
         inkscape:flatsided="true"
         sodipodi:arg2="1.0471976"
         sodipodi:arg1="0"
         sodipodi:r2="7.3278017"
         sodipodi:r1="14.655603"
         sodipodi:cy="93.45649"
         sodipodi:cx="-78.390434"
         sodipodi:sides="3"
         id="path4080-2-6"
         style="fill:#800000;fill-opacity:1;stroke:#800000;stroke-width:6.38562059;stroke-linecap:square;stroke-linejoin:round;stroke-miterlimit:4;stroke-opacity:1;stroke-dasharray:none;stroke-dashoffset:0"
         sodipodi:type="star" />
    </g>
    <g
       transform="matrix(-1,0,0,1,894.06332,-45.088508)"
       id="g4094-5-0-12"
       style="fill:#008000;stroke:#008000;stroke-linecap:square">
      <path
         inkscape:connector-curvature="0"
         id="path4078-6-6-3"
         d="m 330.38924,520.97488 44.64846,0"
         style="fill:#008000;stroke:#008000;stroke-width:3;stroke-linecap:square;stroke-linejoin:miter;stroke-miterlimit:4;stroke-opacity:1;stroke-dasharray:none" />
      <path
         inkscape:transform-center-x="-2.2808783"
         transform="matrix(0.62252686,0,0,0.63031211,428.06824,462.32948)"
         d="m -63.734831,93.45649 -21.983405,12.69212 0,-25.384245 z"
         inkscape:randomized="0"
         inkscape:rounded="0"
         inkscape:flatsided="true"
         sodipodi:arg2="1.0471976"
         sodipodi:arg1="0"
         sodipodi:r2="7.3278017"
         sodipodi:r1="14.655603"
         sodipodi:cy="93.45649"
         sodipodi:cx="-78.390434"
         sodipodi:sides="3"
         id="path4080-2-3-4"
         style="fill:#008000;fill-opacity:1;stroke:#008000;stroke-width:6.38562059;stroke-linecap:square;stroke-linejoin:round;stroke-miterlimit:4;stroke-opacity:1;stroke-dasharray:none;stroke-dashoffset:0"
         sodipodi:type="star" />
    </g>
    <g
       transform="translate(-51.145412,-70.261146)"
       style="font-size:40px;font-style:normal;font-weight:normal;line-height:125%;letter-spacing:0px;word-spacing:0px;fill:#800000;fill-opacity:1;stroke:none;font-family:Sans"
       id="text4171-88-2">
      <path
         inkscape:connector-curvature="0"
         d="m 585.79968,473.87173 c -10e-6,0.29299 -0.0122,0.53957 -0.0366,0.73975 -0.0244,0.20021 -0.0635,0.3589 -0.11719,0.47607 -0.0537,0.11721 -0.11475,0.2051 -0.1831,0.26368 -0.0684,0.0586 -0.1465,0.0879 -0.23438,0.0879 l -6.19629,0 0,5.09765 5.81543,0 c 0.0879,10e-6 0.16601,0.0244 0.23438,0.0733 0.0684,0.0488 0.12938,0.13184 0.1831,0.24902 0.0537,0.1172 0.0928,0.27345 0.11719,0.46875 0.0244,0.19532 0.0366,0.43946 0.0366,0.73242 -10e-6,0.29298 -0.0122,0.53712 -0.0366,0.73242 -0.0244,0.19532 -0.0635,0.35646 -0.11719,0.4834 -0.0537,0.12696 -0.11475,0.21729 -0.1831,0.271 -0.0684,0.0537 -0.1465,0.0806 -0.23438,0.0806 l -5.81543,0 0,7.06055 c 0,0.10742 -0.0293,0.2002 -0.0879,0.27832 -0.0586,0.0781 -0.16358,0.14404 -0.31494,0.19776 -0.15137,0.0537 -0.34912,0.0952 -0.59326,0.12451 -0.24414,0.0293 -0.55664,0.0439 -0.9375,0.0439 -0.3711,0 -0.68115,-0.0147 -0.93018,-0.0439 -0.24902,-0.0293 -0.44678,-0.0708 -0.59326,-0.12451 -0.14648,-0.0537 -0.25146,-0.11963 -0.31494,-0.19776 -0.0635,-0.0781 -0.0952,-0.1709 -0.0952,-0.27832 l 0,-17.18262 c -10e-6,-0.42967 0.10986,-0.73972 0.32959,-0.93017 0.21972,-0.19041 0.49072,-0.28563 0.81299,-0.28565 l 8.92089,0 c 0.0879,2e-5 0.16601,0.0269 0.23438,0.0806 0.0684,0.0537 0.12938,0.14162 0.1831,0.26367 0.0537,0.12209 0.0928,0.28566 0.11719,0.49072 0.0244,0.2051 0.0366,0.45412 0.0366,0.74707 z"
         style="font-size:30px;font-weight:bold;font-family:calibri;-inkscape-font-specification:calibri"
         id="path4323-7" />
      <path
         inkscape:connector-curvature="0"
         d="m 595.97169,496.22597 c -10e-6,0.18408 -0.008,0.34119 -0.0238,0.47132 -0.0159,0.13013 -0.0397,0.23645 -0.0714,0.31897 -0.0317,0.0825 -0.073,0.14124 -0.12378,0.17615 -0.0508,0.0349 -0.10792,0.0524 -0.17139,0.0524 l -7.08408,0 c -0.13966,0 -0.26026,-0.0127 -0.36183,-0.0381 -0.10156,-0.0254 -0.18408,-0.0746 -0.24756,-0.14759 -0.0635,-0.073 -0.1095,-0.17932 -0.13806,-0.31897 -0.0286,-0.13965 -0.0429,-0.32056 -0.0429,-0.54274 0,-0.20947 0.01,-0.38879 0.0286,-0.53797 0.019,-0.14917 0.0539,-0.28247 0.10473,-0.39991 0.0508,-0.11743 0.11585,-0.23169 0.1952,-0.34277 0.0793,-0.11109 0.18249,-0.23328 0.30945,-0.36659 l 2.13284,-2.28518 c 0.4253,-0.44434 0.76807,-0.84901 1.02834,-1.21401 0.26025,-0.36499 0.46338,-0.69825 0.60938,-0.99977 0.14599,-0.30151 0.24597,-0.57923 0.29993,-0.83314 0.0539,-0.2539 0.0809,-0.49512 0.0809,-0.72365 -10e-6,-0.20946 -0.0333,-0.40783 -0.1,-0.5951 -0.0667,-0.18725 -0.16505,-0.3507 -0.29517,-0.49036 -0.13014,-0.13964 -0.29359,-0.24914 -0.49037,-0.3285 -0.19678,-0.0793 -0.42847,-0.11901 -0.69507,-0.11902 -0.37452,1e-5 -0.70619,0.0476 -0.99501,0.14283 -0.28883,0.0952 -0.54274,0.20155 -0.76173,0.31897 -0.219,0.11745 -0.4015,0.22536 -0.5475,0.32374 -0.146,0.0984 -0.26025,0.14759 -0.34277,0.14758 -0.0571,10e-6 -0.10633,-0.019 -0.14759,-0.0571 -0.0413,-0.0381 -0.0746,-0.10155 -0.1,-0.19043 -0.0254,-0.0889 -0.046,-0.20788 -0.0619,-0.35706 -0.0159,-0.14916 -0.0238,-0.33166 -0.0238,-0.54749 0,-0.14599 0.005,-0.26819 0.0143,-0.36659 0.01,-0.0984 0.0238,-0.18407 0.0429,-0.25708 0.019,-0.073 0.0444,-0.13646 0.0762,-0.19043 0.0317,-0.0539 0.0873,-0.11901 0.16663,-0.1952 0.0793,-0.0762 0.22534,-0.17296 0.438,-0.2904 0.21264,-0.11743 0.47449,-0.23169 0.78553,-0.34278 0.31104,-0.11108 0.65381,-0.20471 1.02833,-0.28089 0.37452,-0.0762 0.7649,-0.11425 1.17116,-0.11426 0.64112,10e-6 1.20131,0.0809 1.68057,0.2428 0.47925,0.16188 0.87757,0.38723 1.19496,0.67604 0.31738,0.28883 0.55383,0.63161 0.70936,1.02833 0.15551,0.39675 0.23327,0.82363 0.23328,1.28066 -1e-5,0.39992 -0.0381,0.79348 -0.11426,1.18068 -0.0762,0.38722 -0.23487,0.80458 -0.47608,1.25209 -0.24122,0.44752 -0.58082,0.94265 -1.01881,1.48537 -0.438,0.54274 -1.01882,1.17275 -1.74246,1.89005 l -1.43776,1.47585 4.85602,0 c 0.0635,0 0.12219,0.019 0.17615,0.0571 0.0539,0.0381 0.1,0.0968 0.13807,0.17615 0.0381,0.0793 0.0666,0.18408 0.0857,0.31421 0.019,0.13013 0.0286,0.28406 0.0286,0.4618 z"
         style="font-size:65.00091553%;baseline-shift:sub;font-family:calibri;-inkscape-font-specification:calibri"
         id="path4325-1" />
    </g>
    <g
       transform="translate(-42.351013,-66.027226)"
       style="font-size:40px;font-style:normal;font-weight:normal;line-height:125%;letter-spacing:0px;word-spacing:0px;fill:#008000;fill-opacity:1;stroke:none;font-family:calibri;-inkscape-font-specification:calibri"
       id="text4171-7-2-01">
      <path
         inkscape:connector-curvature="0"
         d="m 578.84332,558.67102 c -10e-6,0.0488 -0.002,0.10744 -0.007,0.17578 -0.005,0.0684 -0.0147,0.14406 -0.0293,0.22705 -0.0147,0.083 -0.0342,0.17824 -0.0586,0.28565 -0.0244,0.10743 -0.0562,0.2295 -0.0952,0.36621 l -3.92578,11.82129 c -0.0488,0.16601 -0.11475,0.30029 -0.19775,0.40283 -0.083,0.10254 -0.21974,0.1831 -0.41016,0.2417 -0.19044,0.0586 -0.44923,0.0977 -0.77637,0.11719 -0.32715,0.0195 -0.7544,0.0293 -1.28173,0.0293 -0.51759,0 -0.93995,-0.0122 -1.26709,-0.0366 -0.32716,-0.0244 -0.5835,-0.0659 -0.76905,-0.12451 -0.18555,-0.0586 -0.31983,-0.13916 -0.40283,-0.2417 -0.083,-0.10254 -0.14893,-0.23193 -0.19775,-0.38818 l -3.92578,-11.82129 c -0.0586,-0.1953 -0.10498,-0.37108 -0.13916,-0.52735 -0.0342,-0.15623 -0.0537,-0.26854 -0.0586,-0.33691 -0.005,-0.0684 -0.007,-0.13182 -0.007,-0.19043 0,-0.0976 0.0269,-0.18309 0.0806,-0.25635 0.0537,-0.0732 0.14893,-0.13426 0.28565,-0.1831 0.13672,-0.0488 0.32471,-0.083 0.56396,-0.10254 0.23926,-0.0195 0.53955,-0.0293 0.90088,-0.0293 0.40039,2e-5 0.72266,0.0122 0.9668,0.0366 0.24414,0.0244 0.43701,0.0586 0.57861,0.10254 0.1416,0.044 0.2417,0.10744 0.3003,0.19043 0.0586,0.083 0.10741,0.18312 0.14648,0.30029 l 2.97363,9.59473 0.0879,0.36621 0.0879,-0.36621 2.92969,-9.59473 c 0.0293,-0.11717 0.0757,-0.21727 0.13916,-0.30029 0.0635,-0.083 0.16357,-0.14647 0.30029,-0.19043 0.13671,-0.0439 0.31982,-0.0781 0.54932,-0.10254 0.22948,-0.0244 0.52977,-0.0366 0.90088,-0.0366 0.36132,2e-5 0.65673,0.01 0.88623,0.0293 0.22948,0.0195 0.4077,0.0537 0.53467,0.10254 0.12694,0.0488 0.21483,0.10987 0.26367,0.1831 0.0488,0.0733 0.0732,0.15871 0.0732,0.25635 z"
         style="font-size:30px;font-weight:bold;fill:#008000;font-family:calibri;-inkscape-font-specification:calibri"
         id="path4328-7" />
      <path
         inkscape:connector-curvature="0"
         d="m 588.25361,577.23131 c -10e-6,0.18408 -0.008,0.34119 -0.0238,0.47132 -0.0159,0.13013 -0.0397,0.23645 -0.0714,0.31897 -0.0318,0.0825 -0.073,0.14124 -0.12378,0.17615 -0.0508,0.0349 -0.10792,0.0524 -0.17139,0.0524 l -7.08408,0 c -0.13966,0 -0.26026,-0.0127 -0.36182,-0.0381 -0.10157,-0.0254 -0.18409,-0.0746 -0.24757,-0.14759 -0.0635,-0.073 -0.1095,-0.17932 -0.13806,-0.31897 -0.0286,-0.13965 -0.0429,-0.32056 -0.0429,-0.54274 0,-0.20947 0.01,-0.38879 0.0286,-0.53797 0.019,-0.14917 0.0539,-0.28247 0.10474,-0.39991 0.0508,-0.11743 0.11584,-0.23169 0.19519,-0.34277 0.0793,-0.11109 0.18249,-0.23328 0.30945,-0.36659 l 2.13284,-2.28518 c 0.4253,-0.44434 0.76808,-0.84901 1.02834,-1.21401 0.26025,-0.36499 0.46338,-0.69825 0.60938,-0.99977 0.14599,-0.30151 0.24597,-0.57922 0.29993,-0.83314 0.0539,-0.2539 0.0809,-0.49512 0.0809,-0.72365 -10e-6,-0.20946 -0.0333,-0.40783 -0.1,-0.5951 -0.0667,-0.18725 -0.16505,-0.3507 -0.29517,-0.49036 -0.13013,-0.13964 -0.29359,-0.24914 -0.49036,-0.3285 -0.19679,-0.0793 -0.42848,-0.11901 -0.69508,-0.11902 -0.37452,10e-6 -0.70619,0.0476 -0.99501,0.14283 -0.28883,0.0952 -0.54274,0.20155 -0.76173,0.31897 -0.219,0.11745 -0.4015,0.22536 -0.54749,0.32374 -0.146,0.0984 -0.26026,0.14759 -0.34278,0.14758 -0.0571,10e-6 -0.10633,-0.019 -0.14759,-0.0571 -0.0413,-0.0381 -0.0746,-0.10155 -0.1,-0.19043 -0.0254,-0.0889 -0.046,-0.20788 -0.0619,-0.35706 -0.0159,-0.14916 -0.0238,-0.33166 -0.0238,-0.54749 0,-0.14599 0.005,-0.26818 0.0143,-0.36659 0.01,-0.0984 0.0238,-0.18407 0.0429,-0.25708 0.019,-0.073 0.0444,-0.13646 0.0762,-0.19043 0.0317,-0.0539 0.0873,-0.11901 0.16663,-0.19519 0.0793,-0.0762 0.22535,-0.17297 0.438,-0.29041 0.21264,-0.11743 0.47449,-0.23168 0.78553,-0.34278 0.31104,-0.11108 0.65381,-0.2047 1.02833,-0.28089 0.37452,-0.0762 0.7649,-0.11425 1.17116,-0.11426 0.64112,10e-6 1.20131,0.081 1.68057,0.2428 0.47925,0.16188 0.87757,0.38723 1.19496,0.67604 0.31738,0.28883 0.55384,0.63161 0.70936,1.02833 0.15551,0.39675 0.23327,0.82363 0.23328,1.28066 -1e-5,0.39992 -0.0381,0.79348 -0.11426,1.18068 -0.0762,0.38722 -0.23487,0.80458 -0.47608,1.25209 -0.24122,0.44753 -0.58082,0.94265 -1.01881,1.48538 -0.438,0.54273 -1.01882,1.17275 -1.74246,1.89004 l -1.43776,1.47585 4.85602,0 c 0.0635,0 0.12219,0.019 0.17615,0.0571 0.054,0.0381 0.1,0.0968 0.13807,0.17615 0.0381,0.0794 0.0666,0.18408 0.0857,0.31421 0.019,0.13013 0.0286,0.28406 0.0286,0.4618 z"
         style="font-size:65.00091553%;baseline-shift:sub;fill:#008000;font-family:calibri;-inkscape-font-specification:calibri"
         id="path4330-2" />
    </g>
    <text
       id="text3529-8"
       y="468.5752"
       x="285.98181"
       xml:space="preserve"
       style="font-size:40px;font-style:normal;font-weight:normal;line-height:125%;letter-spacing:0px;word-spacing:0px;fill:#000000;fill-opacity:1;stroke:none;font-family:Sans"
       sodipodi:linespacing="125%"><tspan
         style="font-size:25px;font-style:normal;font-variant:normal;font-weight:bold;font-stretch:normal;font-family:Calibri;-inkscape-font-specification:Calibri Bold"
         y="468.5752"
         x="285.98181"
         id="tspan3531-8"
         sodipodi:role="line">B<tspan
   id="tspan3570"
   style="font-size:65.00091553%;baseline-shift:sub">p</tspan></tspan></text>
    <g
       style="font-size:40px;font-style:normal;font-weight:normal;line-height:125%;letter-spacing:0px;word-spacing:0px;fill:#000000;fill-opacity:1;stroke:none;font-family:Sans"
       id="text3529-0">
      <path
         d="m 312.4599,398.25229 c -1e-5,0.83008 -0.15463,1.55843 -0.46387,2.18506 -0.30925,0.62663 -0.72836,1.14949 -1.25732,1.5686 -0.52898,0.41911 -1.14747,0.73446 -1.85547,0.94605 -0.70801,0.21158 -1.46485,0.31738 -2.27051,0.31738 -0.54525,0 -1.05184,-0.0448 -1.51977,-0.13428 -0.46794,-0.0895 -0.88095,-0.19735 -1.23902,-0.32349 -0.35807,-0.12613 -0.65714,-0.25838 -0.89721,-0.39672 -0.24008,-0.13835 -0.41301,-0.26042 -0.5188,-0.36621 -0.1058,-0.1058 -0.18107,-0.25839 -0.22583,-0.45777 -0.0448,-0.19938 -0.0671,-0.48624 -0.0671,-0.86059 0,-0.25228 0.008,-0.46387 0.0244,-0.63477 0.0163,-0.17089 0.0427,-0.30924 0.0793,-0.41504 0.0366,-0.10579 0.0854,-0.18107 0.14648,-0.22583 0.061,-0.0448 0.13224,-0.0671 0.21363,-0.0671 0.11393,10e-6 0.27465,0.0671 0.48217,0.20142 0.20752,0.13428 0.47404,0.2828 0.79956,0.44556 0.32552,0.16276 0.71411,0.31128 1.16578,0.44555 0.45165,0.13428 0.97452,0.20142 1.5686,0.20142 0.39062,0 0.74055,-0.0468 1.0498,-0.14038 0.30924,-0.0936 0.57169,-0.22583 0.78736,-0.39673 0.21565,-0.1709 0.38044,-0.38249 0.49438,-0.63477 0.11393,-0.25227 0.17089,-0.53303 0.1709,-0.84228 -1e-5,-0.35807 -0.0977,-0.66528 -0.29297,-0.92163 -0.19532,-0.25635 -0.44963,-0.48421 -0.76294,-0.6836 -0.31332,-0.19937 -0.66936,-0.38655 -1.06811,-0.56152 -0.39877,-0.17496 -0.80974,-0.3601 -1.23291,-0.55542 -0.42318,-0.19531 -0.83415,-0.41707 -1.23291,-0.66528 -0.39877,-0.2482 -0.75481,-0.54524 -1.06812,-0.89112 -0.31331,-0.34585 -0.56763,-0.75479 -0.76294,-1.2268 -0.19531,-0.472 -0.29297,-1.03759 -0.29297,-1.69678 0,-0.75682 0.14038,-1.42211 0.42115,-1.99585 0.28076,-0.57372 0.65917,-1.04979 1.13525,-1.42822 0.47607,-0.37841 1.03759,-0.6612 1.68457,-0.84839 0.64697,-0.18716 1.3326,-0.28075 2.05688,-0.28076 0.37435,1e-5 0.7487,0.0285 1.12305,0.0854 0.37434,0.057 0.72428,0.13429 1.04981,0.23193 0.32551,0.0977 0.61441,0.20753 0.8667,0.32959 0.25226,0.12209 0.41909,0.22381 0.50048,0.30518 0.0814,0.0814 0.13631,0.15056 0.1648,0.20751 0.0285,0.057 0.0529,0.13226 0.0732,0.22583 0.0203,0.0936 0.0346,0.21161 0.0427,0.35401 0.008,0.14243 0.0122,0.31943 0.0122,0.531 -1e-5,0.23602 -0.006,0.4354 -0.0183,0.59815 -0.0122,0.16277 -0.0326,0.29705 -0.061,0.40283 -0.0285,0.10581 -0.0692,0.18312 -0.12207,0.23193 -0.0529,0.0489 -0.12412,0.0733 -0.21363,0.0733 -0.0895,1e-5 -0.23194,-0.057 -0.42724,-0.1709 -0.19532,-0.11392 -0.4354,-0.23803 -0.72022,-0.37232 -0.28484,-0.13426 -0.61443,-0.25633 -0.98877,-0.36621 -0.37435,-0.10985 -0.78532,-0.16478 -1.23291,-0.16479 -0.34994,10e-6 -0.65511,0.0427 -0.91552,0.12817 -0.26043,0.0855 -0.47812,0.20347 -0.65308,0.35401 -0.17497,0.15056 -0.30518,0.33163 -0.39063,0.54321 -0.0854,0.2116 -0.12817,0.4354 -0.12817,0.67139 0,0.34994 0.0956,0.65308 0.28687,0.90942 0.19123,0.25636 0.44758,0.48422 0.76904,0.68359 0.32144,0.19939 0.68562,0.38657 1.09253,0.56153 0.40689,0.17497 0.82193,0.36011 1.24512,0.55542 0.42316,0.19532 0.8382,0.41708 1.24511,0.66528 0.40689,0.24822 0.76904,0.54526 1.08643,0.89111 0.31737,0.34588 0.57372,0.75278 0.76904,1.22071 0.1953,0.46794 0.29296,1.01929 0.29297,1.65405 z"
         style="font-size:25px;font-variant:normal;font-weight:bold;font-stretch:normal;font-family:Calibri;-inkscape-font-specification:Calibri Bold"
         id="path3877"
         inkscape:connector-curvature="0" />
      <path
         d="m 321.17572,401.49936 c -1e-5,0.35807 -0.0224,0.63273 -0.0671,0.82397 -0.0448,0.19125 -0.10377,0.32552 -0.177,0.40284 -0.0732,0.0773 -0.18108,0.14648 -0.32349,0.20752 -0.14242,0.061 -0.30925,0.11393 -0.50049,0.15869 -0.19125,0.0448 -0.39876,0.0793 -0.62255,0.10376 -0.22381,0.0244 -0.44964,0.0366 -0.67749,0.0366 -0.61036,0 -1.13933,-0.0773 -1.58692,-0.23194 -0.44759,-0.15462 -0.81787,-0.39266 -1.11084,-0.71411 -0.29297,-0.32145 -0.50863,-0.72631 -0.64697,-1.2146 -0.13835,-0.48828 -0.20752,-1.06607 -0.20752,-1.7334 l 0,-5.57861 -1.30615,0 c -0.15463,10e-6 -0.27263,-0.0956 -0.35401,-0.28686 -0.0814,-0.19124 -0.12207,-0.51065 -0.12207,-0.95826 0,-0.23599 0.0102,-0.43537 0.0305,-0.59814 0.0204,-0.16275 0.0509,-0.29092 0.0915,-0.38452 0.0407,-0.0936 0.0916,-0.16072 0.15259,-0.20142 0.061,-0.0407 0.13224,-0.061 0.21362,-0.061 l 1.29395,0 0,-2.4292 c 0,-0.0814 0.0224,-0.15461 0.0671,-0.21973 0.0448,-0.0651 0.12614,-0.12002 0.24414,-0.16479 0.118,-0.0447 0.27669,-0.0773 0.47607,-0.0977 0.19938,-0.0203 0.44556,-0.0305 0.73853,-0.0305 0.3011,2e-5 0.55135,0.0102 0.75073,0.0305 0.19938,0.0204 0.35604,0.0529 0.46997,0.0977 0.11393,0.0448 0.19531,0.0997 0.24414,0.16479 0.0488,0.0651 0.0732,0.13836 0.0732,0.21973 l 0,2.4292 2.36817,0 c 0.0814,10e-6 0.15258,0.0203 0.21362,0.061 0.061,0.0407 0.11189,0.10784 0.15259,0.20142 0.0407,0.0936 0.0712,0.22177 0.0915,0.38452 0.0203,0.16277 0.0305,0.36215 0.0305,0.59814 -1e-5,0.44761 -0.0407,0.76702 -0.12207,0.95826 -0.0814,0.19125 -0.19939,0.28687 -0.354,0.28686 l -2.38038,0 0,5.11475 c 0,0.59408 0.0936,1.03963 0.28077,1.33667 0.18717,0.29704 0.52082,0.44556 1.00097,0.44555 0.16276,10e-6 0.30924,-0.0142 0.43946,-0.0427 0.1302,-0.0285 0.24616,-0.061 0.3479,-0.0977 0.10171,-0.0366 0.18716,-0.0692 0.25634,-0.0976 0.0692,-0.0285 0.13224,-0.0427 0.18921,-0.0427 0.0488,0 0.0956,0.0143 0.14038,0.0427 0.0448,0.0285 0.0793,0.0854 0.10376,0.1709 0.0244,0.0854 0.0468,0.20141 0.0671,0.3479 0.0203,0.14648 0.0305,0.33366 0.0305,0.56152 z"
         style="font-size:25px;font-variant:normal;font-weight:bold;font-stretch:normal;font-family:Calibri;-inkscape-font-specification:Calibri Bold"
         id="path3879"
         inkscape:connector-curvature="0" />
      <path
         d="m 330.41644,392.69809 c -1e-5,0.29298 -0.008,0.53305 -0.0244,0.72021 -0.0163,0.18719 -0.0407,0.33367 -0.0732,0.43946 -0.0326,0.1058 -0.0753,0.17904 -0.12818,0.21972 -0.0529,0.0407 -0.12004,0.0611 -0.20141,0.061 -0.0651,10e-6 -0.13836,-0.0142 -0.21973,-0.0427 -0.0814,-0.0285 -0.17294,-0.059 -0.27466,-0.0916 -0.10173,-0.0325 -0.21363,-0.0631 -0.33569,-0.0915 -0.12208,-0.0285 -0.25636,-0.0427 -0.40283,-0.0427 -0.17091,10e-6 -0.34181,0.0346 -0.5127,0.10376 -0.1709,0.0692 -0.34791,0.17702 -0.531,0.32349 -0.18312,0.14649 -0.37436,0.34181 -0.57374,0.58594 -0.19938,0.24415 -0.413,0.54525 -0.64086,0.90332 l 0,6.78711 c -10e-6,0.0814 -0.0244,0.15259 -0.0733,0.21362 -0.0488,0.061 -0.13224,0.1119 -0.25024,0.15259 -0.11801,0.0407 -0.27466,0.0712 -0.46997,0.0915 -0.19532,0.0204 -0.44353,0.0305 -0.74463,0.0305 -0.30111,0 -0.54932,-0.0102 -0.74463,-0.0305 -0.19531,-0.0203 -0.35197,-0.0509 -0.46997,-0.0915 -0.118,-0.0407 -0.20142,-0.0916 -0.25024,-0.15259 -0.0488,-0.061 -0.0733,-0.13224 -0.0733,-0.21362 l 0,-10.88867 c 0,-0.0814 0.0204,-0.15258 0.061,-0.21363 0.0407,-0.061 0.11393,-0.11188 0.21973,-0.15258 0.10579,-0.0407 0.2421,-0.0712 0.40893,-0.0916 0.16683,-0.0203 0.37638,-0.0305 0.62866,-0.0305 0.26042,2e-5 0.47607,0.0102 0.64698,0.0305 0.17089,0.0204 0.30313,0.0509 0.39672,0.0916 0.0936,0.0407 0.16073,0.0916 0.20142,0.15258 0.0407,0.0611 0.061,0.13226 0.061,0.21363 l 0,1.35498 c 0.28482,-0.40689 0.55338,-0.74259 0.80566,-1.00708 0.25227,-0.26448 0.49234,-0.47403 0.72021,-0.62867 0.22786,-0.15461 0.45573,-0.26244 0.6836,-0.32348 0.22786,-0.061 0.45572,-0.0915 0.68359,-0.0916 0.10579,10e-6 0.21972,0.006 0.3418,0.0183 0.12206,0.0122 0.2482,0.0326 0.37842,0.061 0.1302,0.0285 0.24413,0.0611 0.34179,0.0977 0.0976,0.0366 0.16886,0.0753 0.21363,0.11596 0.0447,0.0407 0.0773,0.0855 0.0976,0.13428 0.0203,0.0488 0.0387,0.11598 0.0549,0.20142 0.0163,0.0855 0.0285,0.21363 0.0366,0.38452 0.008,0.17091 0.0122,0.40284 0.0122,0.6958 z"
         style="font-size:25px;font-variant:normal;font-weight:bold;font-stretch:normal;font-family:Calibri;-inkscape-font-specification:Calibri Bold"
         id="path3881"
         inkscape:connector-curvature="0" />
      <path
         d="m 343.31927,397.01938 c -1e-5,0.92774 -0.12208,1.77409 -0.36621,2.53906 -0.24415,0.76498 -0.61443,1.42416 -1.11084,1.97754 -0.49643,0.55339 -1.11898,0.98063 -1.86767,1.28174 -0.74871,0.30111 -1.62354,0.45166 -2.62451,0.45166 -0.96843,0 -1.81072,-0.13428 -2.52686,-0.40283 -0.71615,-0.26856 -1.31022,-0.65918 -1.78223,-1.17188 -0.472,-0.51269 -0.82194,-1.14339 -1.0498,-1.89209 -0.22787,-0.74869 -0.3418,-1.60318 -0.3418,-2.56347 0,-0.92773 0.12411,-1.77612 0.37232,-2.54517 0.24821,-0.76903 0.62052,-1.42821 1.11694,-1.97754 0.49642,-0.54931 1.11694,-0.97452 1.86157,-1.27563 0.74463,-0.3011 1.61743,-0.45165 2.61841,-0.45166 0.97656,1e-5 1.82291,0.13225 2.53906,0.39672 0.71614,0.2645 1.30818,0.65309 1.77613,1.16578 0.46792,0.5127 0.81582,1.1434 1.0437,1.89209 0.22785,0.7487 0.34178,1.60726 0.34179,2.57568 z m -3.16162,0.12207 c -10e-6,-0.5371 -0.0427,-1.03149 -0.12817,-1.48316 -0.0855,-0.45165 -0.22991,-0.84431 -0.43335,-1.17797 -0.20346,-0.33365 -0.47405,-0.59407 -0.81177,-0.78125 -0.33773,-0.18717 -0.76294,-0.28076 -1.27563,-0.28077 -0.45574,1e-5 -0.8545,0.0834 -1.19629,0.25025 -0.3418,0.16684 -0.62256,0.41098 -0.84229,0.73242 -0.21973,0.32146 -0.38452,0.70802 -0.49438,1.15967 -0.10987,0.45167 -0.1648,0.96639 -0.1648,1.54419 0,0.53711 0.0448,1.0315 0.13428,1.48315 0.0895,0.45167 0.23397,0.84433 0.43335,1.17798 0.19938,0.33366 0.46997,0.59204 0.81177,0.77515 0.34179,0.1831 0.76497,0.27466 1.26953,0.27466 0.46386,0 0.86669,-0.0834 1.2085,-0.25025 0.34178,-0.16683 0.62255,-0.40893 0.84228,-0.72632 0.21972,-0.31738 0.38248,-0.7019 0.48828,-1.15356 0.10579,-0.45166 0.15868,-0.96639 0.15869,-1.54419 z"
         style="font-size:25px;font-variant:normal;font-weight:bold;font-stretch:normal;font-family:Calibri;-inkscape-font-specification:Calibri Bold"
         id="path3883"
         inkscape:connector-curvature="0" />
      <path
         d="m 355.8559,402.58578 c -2e-5,0.0814 -0.0224,0.15259 -0.0671,0.21363 -0.0448,0.061 -0.12615,0.10986 -0.24414,0.14648 -0.11802,0.0366 -0.27874,0.0651 -0.48218,0.0854 -0.20346,0.0204 -0.46795,0.0305 -0.79346,0.0305 -0.33367,0 -0.60426,-0.008 -0.81177,-0.0244 -0.20752,-0.0163 -0.37842,-0.0427 -0.51269,-0.0793 -0.13429,-0.0366 -0.23805,-0.0875 -0.31128,-0.15259 -0.0732,-0.0651 -0.13835,-0.15055 -0.19531,-0.25635 l -3.62549,-5.7373 0,5.76172 c -10e-6,0.0814 -0.0244,0.15259 -0.0732,0.21362 -0.0488,0.061 -0.13225,0.1119 -0.25025,0.15259 -0.118,0.0407 -0.27466,0.0712 -0.46997,0.0915 -0.19531,0.0204 -0.44352,0.0305 -0.74463,0.0305 -0.30111,0 -0.54932,-0.0102 -0.74463,-0.0305 -0.19531,-0.0203 -0.35197,-0.0509 -0.46997,-0.0915 -0.118,-0.0407 -0.20141,-0.0916 -0.25024,-0.15259 -0.0488,-0.061 -0.0732,-0.13224 -0.0732,-0.21362 l 0,-16.05225 c 0,-0.0814 0.0244,-0.1546 0.0732,-0.21972 0.0488,-0.0651 0.13224,-0.12002 0.25024,-0.1648 0.118,-0.0447 0.27466,-0.0793 0.46997,-0.10376 0.19531,-0.0244 0.44352,-0.0366 0.74463,-0.0366 0.30111,2e-5 0.54932,0.0122 0.74463,0.0366 0.19531,0.0244 0.35197,0.059 0.46997,0.10376 0.118,0.0448 0.20141,0.0997 0.25025,0.1648 0.0488,0.0651 0.0732,0.13836 0.0732,0.21972 l 0,9.55811 3.22266,-4.3335 c 0.0651,-0.0976 0.13833,-0.18309 0.21972,-0.25635 0.0814,-0.0732 0.1892,-0.13019 0.32349,-0.17089 0.13427,-0.0407 0.3011,-0.0712 0.50049,-0.0916 0.19937,-0.0203 0.45368,-0.0305 0.76294,-0.0305 0.30109,2e-5 0.55541,0.0102 0.76294,0.0305 0.2075,0.0204 0.37433,0.0509 0.50048,0.0916 0.12613,0.0407 0.21362,0.0916 0.26245,0.15258 0.0488,0.0611 0.0732,0.13633 0.0732,0.22583 -1e-5,0.12208 -0.0305,0.25229 -0.0916,0.39063 -0.061,0.13836 -0.15259,0.28484 -0.27465,0.43945 l -3.18604,3.61328 3.68652,5.70069 c 0.0976,0.16276 0.16886,0.30314 0.21363,0.42114 0.0447,0.118 0.0671,0.22583 0.0671,0.32348 z"
         style="font-size:25px;font-variant:normal;font-weight:bold;font-stretch:normal;font-family:Calibri;-inkscape-font-specification:Calibri Bold"
         id="path3885"
         inkscape:connector-curvature="0" />
      <path
         d="m 367.80658,396.81186 c -10e-6,0.37435 -0.0834,0.65105 -0.25024,0.83008 -0.16685,0.17904 -0.39674,0.26856 -0.6897,0.26855 l -6.62842,0 c 0,0.46387 0.0549,0.88502 0.1648,1.26343 0.10985,0.37842 0.28482,0.69987 0.5249,0.96436 0.24006,0.26448 0.54931,0.4659 0.92773,0.60424 0.37841,0.13835 0.83211,0.20752 1.36109,0.20752 0.5371,0 1.0091,-0.0387 1.41601,-0.11596 0.40689,-0.0773 0.75886,-0.16276 1.05591,-0.25635 0.29703,-0.0936 0.5432,-0.17904 0.73853,-0.25635 0.1953,-0.0773 0.35399,-0.11596 0.47607,-0.11597 0.0732,1e-5 0.13427,0.0143 0.1831,0.0427 0.0488,0.0285 0.0895,0.0794 0.12208,0.15259 0.0325,0.0732 0.0549,0.177 0.0671,0.31128 0.0122,0.13428 0.0183,0.30314 0.0183,0.50659 -10e-6,0.17904 -0.004,0.33162 -0.0122,0.45776 -0.008,0.12614 -0.0204,0.23397 -0.0366,0.32349 -0.0163,0.0895 -0.0407,0.16479 -0.0733,0.22583 -0.0326,0.061 -0.0753,0.12003 -0.12817,0.177 -0.0529,0.057 -0.19736,0.13428 -0.43335,0.23193 -0.23601,0.0977 -0.53712,0.19328 -0.90332,0.28687 -0.36622,0.0936 -0.78533,0.17497 -1.25732,0.24414 -0.47202,0.0692 -0.97657,0.10376 -1.51368,0.10376 -0.96843,0 -1.81681,-0.12207 -2.54516,-0.36621 -0.72836,-0.24414 -1.33667,-0.61442 -1.82495,-1.11084 -0.48829,-0.49642 -0.85246,-1.12305 -1.09253,-1.87988 -0.24008,-0.75684 -0.36011,-1.64388 -0.36011,-2.66114 0,-0.96842 0.12614,-1.84122 0.37842,-2.61841 0.25228,-0.77717 0.61849,-1.43635 1.09863,-1.97754 0.48014,-0.54116 1.06404,-0.95417 1.75171,-1.23901 0.68766,-0.28482 1.4628,-0.42723 2.32544,-0.42724 0.91145,10e-6 1.69067,0.13428 2.33765,0.40283 0.64696,0.26856 1.17796,0.64088 1.59301,1.11694 0.41503,0.47608 0.72021,1.03964 0.91553,1.69067 0.1953,0.65105 0.29296,1.35906 0.29297,2.12403 z m -2.97852,-0.87891 c 0.0244,-0.86262 -0.14852,-1.54011 -0.51879,-2.03247 -0.37029,-0.49234 -0.94199,-0.73851 -1.71509,-0.73852 -0.39063,10e-6 -0.7304,0.0732 -1.01929,0.21972 -0.2889,0.1465 -0.52898,0.34384 -0.72021,0.59204 -0.19125,0.24822 -0.33774,0.54119 -0.43946,0.87891 -0.10173,0.33774 -0.16073,0.69784 -0.177,1.08032 z"
         style="font-size:25px;font-variant:normal;font-weight:bold;font-stretch:normal;font-family:Calibri;-inkscape-font-specification:Calibri Bold"
         id="path3887"
         inkscape:connector-curvature="0" />
      <path
         style="font-size:40px;font-style:normal;font-weight:normal;line-height:125%;letter-spacing:0px;word-spacing:0px;fill:none;stroke:#000000;stroke-width:2;stroke-linecap:square;stroke-linejoin:round;stroke-miterlimit:4;stroke-opacity:1;stroke-dasharray:none;font-family:Sans"
         d="m 397.43131,589.06731 0,18 -7.66667,-18 0,18 -7.66666,-18 0,18 -7.66667,-18 0,18"
         id="path4044"
         inkscape:connector-curvature="0"
         sodipodi:nodetypes="cccccccc" />
      <path
         style="font-size:40px;font-style:normal;font-weight:normal;line-height:125%;letter-spacing:0px;word-spacing:0px;fill:none;stroke:#000000;stroke-width:2;stroke-linecap:square;stroke-linejoin:round;stroke-miterlimit:4;stroke-opacity:1;stroke-dasharray:none;font-family:Sans"
         d="m 239.29375,580.56667 0,18 -7.66667,-18 0,18 -7.66666,-18 0,18 -7.66667,-18 0,18"
         id="path4044-9"
         inkscape:connector-curvature="0"
         sodipodi:nodetypes="cccccccc" />
    </g>
    <path
       style="fill:#000000;stroke:#000000;stroke-width:2;stroke-linecap:square;stroke-linejoin:miter;stroke-miterlimit:4;stroke-opacity:1;stroke-dasharray:none"
       d="m 404.09904,414.63289 -134.36825,0"
       id="path4078-2-9-0"
       inkscape:connector-curvature="0" />
    <path
       sodipodi:type="star"
       style="fill:#000000;fill-opacity:1;stroke:#000000;stroke-width:6.38562059;stroke-linecap:square;stroke-linejoin:round;stroke-miterlimit:4;stroke-opacity:1;stroke-dasharray:none;stroke-dashoffset:0"
       id="path4080-6-4-52"
       sodipodi:sides="3"
       sodipodi:cx="-78.390434"
       sodipodi:cy="93.45649"
       sodipodi:r1="14.655603"
       sodipodi:r2="7.3278017"
       sodipodi:arg1="0"
       sodipodi:arg2="1.0471976"
       inkscape:flatsided="true"
       inkscape:rounded="0"
       inkscape:randomized="0"
       d="m -63.734831,93.45649 -21.983405,12.69212 0,-25.384245 z"
       transform="matrix(-0.37351612,0,0,0.37818727,235.51366,379.28885)"
       inkscape:transform-center-x="-1.3685296" />
    <g
       id="g4691"
       transform="translate(14,-4.849651)">
      <g
         transform="translate(-199.94174,11.245921)"
         id="g4030-5-4">
        <path
           style="fill:none;stroke:#000000;stroke-width:1.99999988;stroke-linecap:butt;stroke-linejoin:miter;stroke-miterlimit:4;stroke-opacity:1;stroke-dasharray:none"
           d="m 495.35355,423.22113 -23,0 0,18 23,0"
           id="path4026-1-4"
           inkscape:connector-curvature="0"
           sodipodi:nodetypes="cccc" />
        <path
           style="fill:none;stroke:#000000;stroke-width:2;stroke-linecap:butt;stroke-linejoin:miter;stroke-miterlimit:4;stroke-opacity:1;stroke-dasharray:none"
           d="m 483.85355,424.00932 0,16.53015"
           id="path4028-6-6"
           inkscape:connector-curvature="0"
           sodipodi:nodetypes="cc" />
      </g>
    </g>
    <path
       sodipodi:type="star"
       style="fill:#000000;fill-opacity:1;stroke:#000000;stroke-width:6.38562059;stroke-linecap:square;stroke-linejoin:round;stroke-miterlimit:4;stroke-opacity:1;stroke-dasharray:none;stroke-dashoffset:0"
       id="path4080-6-4-52-9"
       sodipodi:sides="3"
       sodipodi:cx="-78.390434"
       sodipodi:cy="93.45649"
       sodipodi:r1="14.655603"
       sodipodi:r2="7.3278017"
       sodipodi:arg1="0"
       sodipodi:arg2="1.0471976"
       inkscape:flatsided="true"
       inkscape:rounded="0"
       inkscape:randomized="0"
       d="m -63.734831,93.45649 -21.983405,12.69212 0,-25.384245 z"
       transform="matrix(0.37351612,0,0,0.37818727,434.4379,379.28885)"
       inkscape:transform-center-x="1.3685292" />
    <path
       style="fill:none;stroke:#000000;stroke-width:1.99999988;stroke-linecap:butt;stroke-linejoin:miter;stroke-miterlimit:4;stroke-opacity:1;stroke-dasharray:none"
       d="m 502.67172,429.57992 0,57.99955"
       id="path3080"
       inkscape:connector-curvature="0" />
    <g
       id="g3068"
       transform="matrix(0.72745299,0,0,0.72745299,93.410295,131.19625)">
      <path
         inkscape:connector-curvature="0"
         id="path4078-2-9-1"
         d="m 311.17058,479.52285 41.43259,0"
         style="fill:#008000;stroke:#008000;stroke-width:4.12397814;stroke-linecap:square;stroke-linejoin:miter;stroke-miterlimit:4;stroke-opacity:1;stroke-dasharray:none" />
      <path
         inkscape:transform-center-x="-2.2808783"
         transform="matrix(0.45700867,0,0,0.45677186,391.53387,437.02395)"
         d="m -63.734831,93.45649 -21.983405,12.69212 0,-25.384245 z"
         inkscape:randomized="0"
         inkscape:rounded="0"
         inkscape:flatsided="true"
         sodipodi:arg2="1.0471976"
         sodipodi:arg1="0"
         sodipodi:r2="7.3278017"
         sodipodi:r1="14.655603"
         sodipodi:cy="93.45649"
         sodipodi:cx="-78.390434"
         sodipodi:sides="3"
         id="path4080-6-4-4"
         style="fill:#008000;fill-opacity:1;stroke:#008000;stroke-width:12.03491879;stroke-linecap:square;stroke-linejoin:round;stroke-miterlimit:4;stroke-opacity:1;stroke-dasharray:none;stroke-dashoffset:0"
         sodipodi:type="star" />
    </g>
    <g
       transform="translate(-61.494738,-47.422372)"
       style="font-size:40px;font-style:normal;font-weight:normal;line-height:125%;letter-spacing:0px;word-spacing:0px;fill:#008000;fill-opacity:1;stroke:none;font-family:Sans"
       id="text3281-1-0">
      <g
         style="font-size:30px;font-variant:normal;font-weight:bold;font-stretch:normal;line-height:125%;fill:#008000;font-family:Calibri;-inkscape-font-specification:Calibri Bold"
         id="text3096">
        <path
           d="m 433.73471,533.52911 c -1e-5,0.0651 -0.0195,0.1237 -0.0586,0.17579 -0.0391,0.0521 -0.10418,0.096 -0.19532,0.13183 -0.0911,0.0358 -0.21485,0.0635 -0.37109,0.083 -0.15626,0.0195 -0.35483,0.0293 -0.5957,0.0293 -0.2409,-10e-6 -0.43946,-0.01 -0.59571,-0.0293 -0.15625,-0.0195 -0.28158,-0.0472 -0.37597,-0.083 -0.0944,-0.0358 -0.15951,-0.0798 -0.19531,-0.13183 -0.0358,-0.0521 -0.0537,-0.11069 -0.0537,-0.17579 l 0,-4.14062 c -0.23438,0.21484 -0.46224,0.40202 -0.68359,0.56152 -0.22136,0.15951 -0.44271,0.28972 -0.66406,0.39063 -0.22136,0.10091 -0.44923,0.17415 -0.6836,0.21972 -0.23438,0.0456 -0.48177,0.0684 -0.74218,0.0684 -0.63803,0 -1.18165,-0.12858 -1.63086,-0.38574 -0.44922,-0.25716 -0.81543,-0.60384 -1.09864,-1.04004 -0.2832,-0.43619 -0.48991,-0.94563 -0.62011,-1.52832 -0.13021,-0.58268 -0.19532,-1.19628 -0.19531,-1.84082 -1e-5,-0.77473 0.0846,-1.47135 0.2539,-2.08984 0.16927,-0.61848 0.41667,-1.14583 0.74219,-1.58203 0.32552,-0.43619 0.72591,-0.77148 1.20117,-1.00586 0.47526,-0.23437 1.02539,-0.35156 1.65039,-0.35157 0.24088,10e-6 0.472,0.0244 0.69336,0.0733 0.22135,0.0488 0.4427,0.13347 0.66406,0.2539 0.22135,0.12045 0.45084,0.2767 0.68848,0.46875 0.23762,0.19207 0.49967,0.42807 0.78613,0.70801 l 0,-0.94726 c 0,-0.0651 0.0179,-0.12207 0.0537,-0.1709 0.0358,-0.0488 0.0944,-0.0895 0.17578,-0.12207 0.0814,-0.0326 0.18717,-0.057 0.31739,-0.0733 0.1302,-0.0163 0.29947,-0.0244 0.50781,-0.0244 0.1953,1e-5 0.35969,0.008 0.49316,0.0244 0.13346,0.0163 0.23925,0.0407 0.31739,0.0733 0.0781,0.0326 0.13345,0.0733 0.16601,0.12207 0.0326,0.0488 0.0488,0.1058 0.0488,0.1709 z m -2.44141,-9.27734 c -0.35156,-0.4427 -0.68848,-0.78124 -1.01074,-1.01562 -0.32227,-0.23437 -0.65918,-0.35156 -1.01074,-0.35157 -0.31902,10e-6 -0.59408,0.0798 -0.8252,0.23926 -0.23112,0.15951 -0.41667,0.37273 -0.55664,0.63965 -0.13997,0.26693 -0.24414,0.56478 -0.3125,0.89355 -0.0684,0.32878 -0.10254,0.6657 -0.10253,1.01075 -10e-6,0.36458 0.0293,0.72103 0.0879,1.06933 0.0586,0.34831 0.15461,0.65593 0.28808,0.92285 0.13346,0.26693 0.31087,0.48178 0.53223,0.64453 0.22135,0.16277 0.5013,0.24415 0.83984,0.24415 0.16927,0 0.33366,-0.0244 0.49317,-0.0732 0.1595,-0.0488 0.32226,-0.12858 0.48828,-0.23925 0.16601,-0.11068 0.33691,-0.25554 0.51269,-0.43458 0.17578,-0.17903 0.36783,-0.39876 0.57617,-0.65917 z"
           style="font-size:20px;fill:#008000;font-family:Calibri;-inkscape-font-specification:Calibri Bold"
           id="path3103"
           inkscape:connector-curvature="0" />
        <path
           d="m 437.38416,534.18829 c 0,0.0423 -0.0127,0.0793 -0.0381,0.11109 -0.0254,0.0317 -0.0688,0.0582 -0.13013,0.0793 -0.0614,0.0212 -0.14282,0.037 -0.24438,0.0476 -0.10157,0.0106 -0.23064,0.0159 -0.38722,0.0159 -0.15658,0 -0.28565,-0.005 -0.38721,-0.0159 -0.10156,-0.0106 -0.18303,-0.0264 -0.24439,-0.0476 -0.0614,-0.0212 -0.10474,-0.0476 -0.13013,-0.0793 -0.0254,-0.0317 -0.0381,-0.0688 -0.0381,-0.11109 l 0,-8.34729 c 0,-0.0423 0.0127,-0.0804 0.0381,-0.11425 0.0254,-0.0339 0.0688,-0.0624 0.13013,-0.0857 0.0614,-0.0233 0.14283,-0.0412 0.24439,-0.0539 0.10156,-0.0127 0.23063,-0.019 0.38721,-0.019 0.15658,1e-5 0.28565,0.006 0.38722,0.019 0.10156,0.0127 0.18302,0.0307 0.24438,0.0539 0.0614,0.0233 0.10474,0.0519 0.13013,0.0857 0.0254,0.0339 0.0381,0.072 0.0381,0.11425 z"
           style="font-size:65.00091553%;baseline-shift:sub;fill:#008000"
           id="path3105"
           inkscape:connector-curvature="0" />
        <path
           d="m 444.21433,531.19215 c 0,0.19467 -0.0434,0.33855 -0.13013,0.43165 -0.0867,0.0931 -0.2063,0.13965 -0.35864,0.13965 l -3.44683,0 c 0,0.24122 0.0286,0.46022 0.0857,0.65699 0.0571,0.19679 0.14812,0.36394 0.27296,0.50148 0.12483,0.13753 0.28564,0.24227 0.48243,0.31421 0.19677,0.0719 0.4327,0.10791 0.70777,0.10791 0.2793,0 0.52474,-0.0201 0.73634,-0.0603 0.21159,-0.0402 0.39461,-0.0846 0.54908,-0.13331 0.15446,-0.0487 0.28247,-0.0931 0.38404,-0.1333 0.10156,-0.0402 0.18408,-0.0603 0.24756,-0.0603 0.0381,0 0.0698,0.007 0.0952,0.0222 0.0254,0.0148 0.0465,0.0413 0.0635,0.0793 0.0169,0.0381 0.0286,0.092 0.0349,0.16187 0.006,0.0698 0.01,0.15764 0.01,0.26343 -1e-5,0.0931 -0.002,0.17245 -0.006,0.23804 -0.004,0.0656 -0.0106,0.12167 -0.019,0.16822 -0.008,0.0466 -0.0212,0.0857 -0.0381,0.11743 -0.0169,0.0317 -0.0392,0.0624 -0.0666,0.092 -0.0275,0.0296 -0.10263,0.0698 -0.22535,0.12061 -0.12272,0.0508 -0.2793,0.10051 -0.46973,0.14917 -0.19044,0.0487 -0.40838,0.091 -0.65382,0.12696 -0.24545,0.036 -0.50782,0.0539 -0.78712,0.0539 -0.50359,0 -0.94476,-0.0635 -1.3235,-0.19043 -0.37875,-0.12696 -0.69508,-0.3195 -0.94899,-0.57765 -0.25391,-0.25814 -0.44329,-0.58399 -0.56812,-0.97755 -0.12484,-0.39356 -0.18726,-0.85483 -0.18726,-1.38381 0,-0.50358 0.0656,-0.95744 0.19678,-1.36159 0.13118,-0.40413 0.32162,-0.74691 0.57129,-1.02833 0.24968,-0.28141 0.55331,-0.49618 0.91091,-0.6443 0.35758,-0.14811 0.76066,-0.22216 1.20924,-0.22217 0.47396,10e-6 0.87916,0.0698 1.2156,0.20948 0.33642,0.13965 0.61255,0.33326 0.82838,0.58081 0.21581,0.24757 0.37451,0.54063 0.47608,0.87917 0.10155,0.33855 0.15234,0.70672 0.15234,1.1045 z m -1.54885,-0.45703 c 0.0127,-0.44857 -0.0772,-0.80087 -0.26978,-1.0569 -0.19255,-0.25602 -0.48983,-0.38404 -0.89185,-0.38404 -0.20314,0 -0.37981,0.0381 -0.53004,0.11426 -0.15023,0.0762 -0.27507,0.1788 -0.37452,0.30786 -0.0994,0.12908 -0.17562,0.28142 -0.22852,0.45704 -0.0529,0.17563 -0.0836,0.36288 -0.092,0.56178 z"
           style="font-size:65.00091553%;baseline-shift:sub;fill:#008000"
           id="path3107"
           inkscape:connector-curvature="0" />
        <path
           d="m 450.35895,534.20733 c 0,0.0593 -0.0212,0.1058 -0.0635,0.13965 -0.0423,0.0339 -0.10897,0.0582 -0.19995,0.073 -0.091,0.0148 -0.22535,0.0222 -0.40308,0.0222 -0.19044,0 -0.32903,-0.007 -0.41578,-0.0222 -0.0868,-0.0148 -0.14812,-0.0391 -0.18408,-0.073 -0.036,-0.0339 -0.054,-0.0804 -0.054,-0.13965 l 0,-0.45069 c -0.23276,0.24968 -0.4983,0.44435 -0.79664,0.584 -0.29835,0.13965 -0.62949,0.20947 -0.99342,0.20947 -0.30047,0 -0.57659,-0.0391 -0.82839,-0.11743 -0.25179,-0.0783 -0.46973,-0.19467 -0.65381,-0.34913 -0.18409,-0.15446 -0.32691,-0.34595 -0.42848,-0.57447 -0.10156,-0.22852 -0.15234,-0.49512 -0.15234,-0.79981 0,-0.33009 0.0645,-0.61679 0.1936,-0.86012 0.12907,-0.24333 0.32162,-0.44434 0.57765,-0.60304 0.25602,-0.15869 0.57447,-0.27612 0.95533,-0.3523 0.38087,-0.0762 0.82309,-0.11426 1.32668,-0.11426 l 0.55226,0 0,-0.34278 c -10e-6,-0.17773 -0.018,-0.33325 -0.054,-0.46656 -0.036,-0.13329 -0.0952,-0.24438 -0.17774,-0.33325 -0.0825,-0.0889 -0.19255,-0.15446 -0.33008,-0.19678 -0.13754,-0.0423 -0.30787,-0.0635 -0.51099,-0.0635 -0.26661,0 -0.50465,0.0296 -0.71412,0.0889 -0.20948,0.0593 -0.39462,0.12484 -0.55543,0.19678 -0.16081,0.0719 -0.29517,0.13754 -0.40308,0.19678 -0.10792,0.0592 -0.19573,0.0889 -0.26343,0.0889 -0.0466,0 -0.0878,-0.0148 -0.12378,-0.0444 -0.036,-0.0296 -0.0656,-0.0719 -0.0889,-0.12695 -0.0233,-0.055 -0.0413,-0.12272 -0.054,-0.20313 -0.0127,-0.0804 -0.019,-0.16927 -0.019,-0.26661 0,-0.13118 0.0106,-0.23486 0.0317,-0.31104 0.0211,-0.0762 0.0614,-0.14493 0.1206,-0.2063 0.0593,-0.0614 0.16293,-0.12906 0.31104,-0.20313 0.14812,-0.0741 0.32162,-0.14281 0.52052,-0.2063 0.19889,-0.0635 0.41577,-0.11531 0.65064,-0.15552 0.23487,-0.0402 0.47714,-0.0603 0.72682,-0.0603 0.44434,10e-6 0.82414,0.0434 1.13942,0.13013 0.31527,0.0868 0.57447,0.22006 0.7776,0.39991 0.20312,0.17985 0.35123,0.41155 0.44434,0.69507 0.0931,0.28354 0.13965,0.61997 0.13965,1.0093 z m -1.56789,-2.42484 -0.60939,0 c -0.25814,10e-6 -0.4782,0.019 -0.66016,0.0571 -0.18197,0.0381 -0.33009,0.0952 -0.44434,0.17139 -0.11427,0.0762 -0.19784,0.16822 -0.25074,0.27613 -0.0529,0.10791 -0.0794,0.2317 -0.0794,0.37134 0,0.23699 0.0751,0.42319 0.22535,0.55861 0.15023,0.13541 0.35864,0.20312 0.62525,0.20312 0.22429,0 0.43059,-0.0571 0.61891,-0.17139 0.18831,-0.11425 0.3798,-0.28141 0.57447,-0.50147 z"
           style="font-size:65.00091553%;baseline-shift:sub;fill:#008000"
           id="path3109"
           inkscape:connector-curvature="0" />
        <path
           d="m 457.22086,534.19464 c 0,0.0423 -0.0116,0.0793 -0.0349,0.11108 -0.0233,0.0317 -0.0656,0.0571 -0.12695,0.0762 -0.0614,0.019 -0.14495,0.0339 -0.25074,0.0444 -0.1058,0.0106 -0.24333,0.0159 -0.4126,0.0159 -0.17351,0 -0.31422,-0.004 -0.42213,-0.0127 -0.10791,-0.008 -0.19678,-0.0222 -0.2666,-0.0413 -0.0698,-0.019 -0.12379,-0.0455 -0.16187,-0.0793 -0.0381,-0.0339 -0.0719,-0.0783 -0.10156,-0.13331 l -1.88528,-2.98344 0,2.99614 c -10e-6,0.0423 -0.0127,0.0793 -0.0381,0.11109 -0.0254,0.0317 -0.0688,0.0582 -0.13013,0.0793 -0.0614,0.0212 -0.14283,0.037 -0.24439,0.0476 -0.10156,0.0106 -0.23063,0.0159 -0.38721,0.0159 -0.15658,0 -0.28565,-0.005 -0.38721,-0.0159 -0.10157,-0.0106 -0.18303,-0.0264 -0.24439,-0.0476 -0.0614,-0.0212 -0.10474,-0.0476 -0.13013,-0.0793 -0.0254,-0.0317 -0.0381,-0.0688 -0.0381,-0.11109 l 0,-8.34729 c 0,-0.0423 0.0127,-0.0804 0.0381,-0.11425 0.0254,-0.0339 0.0688,-0.0624 0.13013,-0.0857 0.0614,-0.0233 0.14282,-0.0412 0.24439,-0.0539 0.10156,-0.0127 0.23063,-0.019 0.38721,-0.019 0.15658,10e-6 0.28565,0.006 0.38721,0.019 0.10156,0.0127 0.18303,0.0307 0.24439,0.0539 0.0614,0.0233 0.10474,0.0519 0.13013,0.0857 0.0254,0.0339 0.0381,0.072 0.0381,0.11425 l 0,4.97029 1.6758,-2.25345 c 0.0339,-0.0508 0.0719,-0.0952 0.11426,-0.1333 0.0423,-0.0381 0.0984,-0.0677 0.16822,-0.0889 0.0698,-0.0212 0.15657,-0.037 0.26025,-0.0476 0.10368,-0.0106 0.23592,-0.0159 0.39674,-0.0159 0.15657,10e-6 0.28881,0.005 0.39673,0.0159 0.10791,0.0106 0.19466,0.0265 0.26026,0.0476 0.0656,0.0212 0.11108,0.0476 0.13647,0.0793 0.0254,0.0317 0.0381,0.0709 0.0381,0.11743 0,0.0635 -0.0159,0.13119 -0.0476,0.20313 -0.0317,0.0719 -0.0793,0.14812 -0.14282,0.22852 l -1.65676,1.87893 1.91702,2.9644 c 0.0508,0.0846 0.0878,0.15763 0.11108,0.21899 0.0233,0.0614 0.0349,0.11744 0.0349,0.16822 z"
           style="font-size:65.00091553%;baseline-shift:sub;fill:#008000"
           id="path3111"
           inkscape:connector-curvature="0" />
      </g>
    </g>
    <path
       inkscape:connector-curvature="0"
       id="path3052"
       d="m 258.61964,422.1708 0,-34.49552"
       style="fill:#000000;stroke:#000000;stroke-width:1;stroke-linecap:square;stroke-linejoin:miter;stroke-miterlimit:4;stroke-opacity:1;stroke-dasharray:none"
       sodipodi:nodetypes="cc" />
    <path
       inkscape:connector-curvature="0"
       id="path3822"
       d="m 258.6825,398.63289 -31.08622,0"
       style="fill:#000000;stroke:#000000;stroke-width:2;stroke-linecap:butt;stroke-linejoin:miter;stroke-miterlimit:4;stroke-opacity:1;stroke-dasharray:none"
       sodipodi:nodetypes="cc" />
    <path
       inkscape:transform-center-x="-1.3685296"
       transform="matrix(-0.37351612,0,0,0.37818727,195.74952,363.28885)"
       d="m -63.734831,93.45649 -21.983405,12.69212 0,-25.384245 z"
       inkscape:randomized="0"
       inkscape:rounded="0"
       inkscape:flatsided="true"
       sodipodi:arg2="1.0471976"
       sodipodi:arg1="0"
       sodipodi:r2="7.3278017"
       sodipodi:r1="14.655603"
       sodipodi:cy="93.45649"
       sodipodi:cx="-78.390434"
       sodipodi:sides="3"
       id="path3824"
       style="fill:#000000;fill-opacity:1;stroke:#000000;stroke-width:6.38562059;stroke-linecap:square;stroke-linejoin:round;stroke-miterlimit:4;stroke-opacity:1;stroke-dasharray:none;stroke-dashoffset:0"
       sodipodi:type="star" />
    <path
       sodipodi:type="arc"
       style="fill:none;stroke:#000000;stroke-width:1;stroke-miterlimit:4;stroke-dasharray:none;stroke-dashoffset:0"
       id="path3826"
       sodipodi:cx="20.80682"
       sodipodi:cy="11.613777"
       sodipodi:rx="3.2366164"
       sodipodi:ry="3.2366164"
       d="m 24.043436,11.613777 c 0,1.787534 -1.449082,3.236617 -3.236616,3.236617 -1.787534,0 -3.236616,-1.449083 -3.236616,-3.236617 0,-1.7875337 1.449082,-3.2366162 3.236616,-3.2366162 1.787534,0 3.236616,1.4490825 3.236616,3.2366162 z"
       transform="translate(237.81282,387.01911)" />
    <g
       style="font-size:40px;font-style:normal;font-weight:normal;line-height:125%;letter-spacing:0px;word-spacing:0px;fill:#000000;fill-opacity:1;stroke:none;font-family:Sans"
       id="text3828">
      <path
         d="m 248.82637,385.02155 -3.95508,5.32226 4.16016,5.61524 -2.11914,0 -3.1836,-4.29688 -3.18359,4.29688 -2.11914,0 4.24805,-5.72266 -3.88672,-5.21484 2.11914,0 2.90039,3.89648 2.90039,-3.89648 2.11914,0"
         style="font-size:20px;font-variant:normal;font-stretch:normal;font-family:Dingbats;-inkscape-font-specification:Dingbats"
         id="path3059" />
    </g>
  </g>
</svg>
