<?xml version="1.0" encoding="UTF-8" standalone="no"?>
<svg
   xmlns:dc="http://purl.org/dc/elements/1.1/"
   xmlns:cc="http://creativecommons.org/ns#"
   xmlns:rdf="http://www.w3.org/1999/02/22-rdf-syntax-ns#"
   xmlns:svg="http://www.w3.org/2000/svg"
   xmlns="http://www.w3.org/2000/svg"
   xmlns:sodipodi="http://sodipodi.sourceforge.net/DTD/sodipodi-0.dtd"
   xmlns:inkscape="http://www.inkscape.org/namespaces/inkscape"
   height="70.001701"
   width="89.602821"
   version="1.1"
   id="svg40"
   sodipodi:docname="FMIWrapper.svg"
   style="fill:none;stroke:#000000"
   inkscape:version="0.92.5 (2060ec1f9f, 2020-04-08)">
  <metadata
     id="metadata46">
    <rdf:RDF>
      <cc:Work
         rdf:about="">
        <dc:format>image/svg+xml</dc:format>
        <dc:type
           rdf:resource="http://purl.org/dc/dcmitype/StillImage" />
        <dc:title></dc:title>
      </cc:Work>
    </rdf:RDF>
  </metadata>
  <defs
     id="defs44" />
  <sodipodi:namedview
     pagecolor="#ffffff"
     bordercolor="#666666"
     borderopacity="1"
     objecttolerance="10"
     gridtolerance="10"
     guidetolerance="10"
     inkscape:pageopacity="0"
     inkscape:pageshadow="2"
     inkscape:window-width="1680"
     inkscape:window-height="986"
     id="namedview42"
     showgrid="false"
     fit-margin-top="0"
     fit-margin-left="0"
     fit-margin-right="0"
     fit-margin-bottom="0"
     inkscape:zoom="1.5177693"
     inkscape:cx="-144.32671"
     inkscape:cy="34.888987"
     inkscape:window-x="0"
     inkscape:window-y="27"
     inkscape:window-maximized="1"
     inkscape:current-layer="svg40" />
  <rect
     style="fill:#d8d8d8;fill-opacity:1;stroke:#000000;stroke-width:1.5;stroke-linecap:round;stroke-linejoin:round;stroke-miterlimit:4;stroke-dasharray:none;stroke-opacity:1"
     id="rect3224"
     width="88.102821"
     height="68.501701"
     x="0.75"
     y="0.75" />
  <g
     id="g3302"
     transform="matrix(0.79884473,0,0,0.79884473,9.0120417,-16.923378)"
     style="stroke-width:1.25180769">
    <g
       transform="matrix(0.99278741,0,0,0.98205954,4.7374812,92.185406)"
       id="g1005"
       style="clip-rule:evenodd;fill-rule:evenodd;stroke:none;stroke-width:10.5643301;stroke-miterlimit:4;stroke-dasharray:none">
      <path
         d="M 0,4.184 V 0 l 9.048,0.002 3.299,2.857 3.452,-2.857 h 64.909 v 4.182 z"
         style="fill:#cb1f3c;fill-rule:nonzero;stroke:none;stroke-width:10.5643301;stroke-miterlimit:4;stroke-dasharray:none"
         id="path1003"
         inkscape:connector-curvature="0" />
    </g>
    <g
       transform="matrix(0.99278741,0,0,0.98205954,66.836335,48.99492)"
       id="g1009"
       style="clip-rule:evenodd;fill-rule:evenodd;stroke:none;stroke-width:10.5643301;stroke-miterlimit:4;stroke-dasharray:none">
      <path
         d="M 0,29.71 V 12.196 C 0,9.097 -1.572,6.858 -4.673,5.544 -5.617,5.323 -6.284,5.231 -6.802,5.231 c -2.748,0 -4.864,1.408 -6.291,4.187 -0.367,0.94 -0.541,2.064 -0.541,3.392 l 0.039,16.9 h -5.159 l -0.04,-17.862 c 0,-3.199 -1.713,-6.617 -6.524,-6.617 -5.738,0 -7.028,4.943 -7.028,6.673 V 29.71 h -5.159 l 0.027,-17.384 c 0,-7.786 4.35,-12.252 11.936,-12.252 3.443,0 6.464,1.371 8.982,4.074 l 0.393,0.421 0.386,-0.427 C -13.289,1.394 -10.198,0 -6.594,0 5.026,0 5.16,11.163 5.16,11.638 V 29.71 Z"
         style="fill:#2c3d46;fill-rule:nonzero;stroke:none;stroke-width:10.5643301;stroke-miterlimit:4;stroke-dasharray:none"
         id="path1007"
         inkscape:connector-curvature="0" />
    </g>
    <g
       transform="matrix(0.99278741,0,0,0.98205954,-179.43551,-130.23536)"
       id="g1013"
       style="clip-rule:evenodd;fill-rule:evenodd;stroke:none;stroke-width:10.5643301;stroke-miterlimit:4;stroke-dasharray:none">
      <rect
         x="260.98499"
         y="194.80299"
         width="5.2270002"
         height="17.410999"
         style="fill:#2c3d46;stroke:none;stroke-width:10.5643301;stroke-miterlimit:4;stroke-dasharray:none"
         id="rect1011" />
    </g>
    <g
       transform="matrix(0.99278741,0,0,0.98205954,-179.43551,-163.00472)"
       id="g1017"
       style="clip-rule:evenodd;fill-rule:evenodd;stroke:none;stroke-width:10.5643301;stroke-miterlimit:4;stroke-dasharray:none">
      <rect
         x="260.99399"
         y="216.85899"
         width="5.2270002"
         height="6.6669998"
         style="fill:#2c3d46;stroke:none;stroke-width:10.5643301;stroke-miterlimit:4;stroke-dasharray:none"
         id="rect1015" />
    </g>
    <g
       transform="matrix(0.99278741,0,0,0.98205954,14.549199,35.808511)"
       id="g1021"
       style="clip-rule:evenodd;fill-rule:evenodd;stroke:none;stroke-width:10.5643301;stroke-miterlimit:4;stroke-dasharray:none">
      <path
         d="M 0,55.378 V 18.659 h -9.683 l 0.1,-5.157 H 0 V 10.115 C 0,6.297 1.418,3.023 4.213,0.381 c 1.027,-0.778 2.175,-1.417 3.37,-1.864 1.374,-0.424 2.975,-0.648 4.731,-0.66 V 3.019 C 8.958,3.05 6.79,4.286 5.864,6.694 5.396,7.924 5.161,9.074 5.161,10.115 v 3.387 h 10.028 c -1.946,1.801 -3.025,4.24 -3.381,5.157 H 5.161 v 36.708 l -2.682,2.154 z"
         style="fill:#2c3d46;fill-rule:nonzero;stroke:none;stroke-width:10.5643301;stroke-miterlimit:4;stroke-dasharray:none"
         id="path1019"
         inkscape:connector-curvature="0" />
    </g>
  </g>
</svg>
