<?xml version="1.0" encoding="UTF-8" standalone="no"?>
<!-- Created with Inkscape (http://www.inkscape.org/) -->

<svg
   version="1.0"
   width="24.999998"
   height="24.999998"
   id="svg3336"
   inkscape:version="1.3.2 (091e20e, 2023-11-25, custom)"
   sodipodi:docname="MechanicRotationalInterfaceTLM.svg"
   xmlns:inkscape="http://www.inkscape.org/namespaces/inkscape"
   xmlns:sodipodi="http://sodipodi.sourceforge.net/DTD/sodipodi-0.dtd"
   xmlns:xlink="http://www.w3.org/1999/xlink"
   xmlns="http://www.w3.org/2000/svg"
   xmlns:svg="http://www.w3.org/2000/svg"
   xmlns:rdf="http://www.w3.org/1999/02/22-rdf-syntax-ns#"
   xmlns:cc="http://creativecommons.org/ns#"
   xmlns:dc="http://purl.org/dc/elements/1.1/">
  <metadata
     id="metadata13">
    <rdf:RDF>
      <cc:Work
         rdf:about="">
        <dc:format>image/svg+xml</dc:format>
        <dc:type
           rdf:resource="http://purl.org/dc/dcmitype/StillImage" />
      </cc:Work>
    </rdf:RDF>
  </metadata>
  <sodipodi:namedview
     pagecolor="#ffffff"
     bordercolor="#666666"
     borderopacity="1"
     objecttolerance="10"
     gridtolerance="10"
     guidetolerance="10"
     inkscape:pageopacity="0"
     inkscape:pageshadow="2"
     inkscape:window-width="1197"
     inkscape:window-height="791"
     id="namedview11"
     showgrid="false"
     inkscape:zoom="2.8284271"
     inkscape:cx="-26.693281"
     inkscape:cy="10.076272"
     inkscape:window-x="336"
     inkscape:window-y="76"
     inkscape:window-maximized="0"
     inkscape:current-layer="svg3336"
     inkscape:showpageshadow="2"
     inkscape:pagecheckerboard="0"
     inkscape:deskcolor="#d1d1d1" />
  <defs
     id="defs3338">
    <linearGradient
       id="linearGradient3760">
      <stop
         style="stop-color:#636363;stop-opacity:1;"
         offset="0"
         id="stop3762" />
      <stop
         style="stop-color:#ffffff;stop-opacity:1;"
         offset="1"
         id="stop3764" />
    </linearGradient>
    <marker
       refX="0"
       refY="0"
       orient="auto"
       id="TriangleOutL"
       style="overflow:visible">
      <path
         d="m 5.77,0 -8.65,5 0,-10 8.65,5 z"
         transform="scale(0.8,0.8)"
         id="path8118"
         style="fill-rule:evenodd;stroke:#000000;stroke-width:1pt;marker-start:none" />
    </marker>
    <linearGradient
       inkscape:collect="always"
       xlink:href="#linearGradient2"
       id="linearGradient3"
       x1="5.7778848e-09"
       y1="12.499999"
       x2="15.095572"
       y2="12.499999"
       gradientUnits="userSpaceOnUse" />
    <linearGradient
       id="linearGradient2"
       inkscape:collect="always">
      <stop
         style="stop-color:#5a5a5a;stop-opacity:1;"
         offset="0"
         id="stop2" />
      <stop
         style="stop-color:#dcdcdc;stop-opacity:1;"
         offset="1"
         id="stop3" />
    </linearGradient>
  </defs>
  <path
     id="rect1-3-8-9-9-4"
     style="fill:url(#linearGradient3);stroke:#000000;stroke-width:1.5;stroke-miterlimit:8;stroke-dasharray:none;stroke-opacity:1"
     d="M 10.955164,0.74999907 10.679507,2.5374725 A 10.204108,10.191181 0 0 0 8.3361354,3.2790926 l -1.260862,-1.2700069 -2.72276,1.9756971 0.826798,1.6035947 A 10.204108,10.191181 0 0 0 3.7437474,7.5721761 L 1.9524754,7.2810358 0.91242344,10.477776 2.5216994,11.288092 a 10.204108,10.191181 0 0 0 -0.0884,1.226913 10.204108,10.191181 0 0 0 0.0884,1.226913 l -1.60927596,0.810252 1.04005196,3.196797 1.791272,-0.291152 a 10.204108,10.191181 0 0 0 1.383306,1.931608 l -0.775136,1.503494 2.72276,1.975754 1.162982,-1.171492 a 10.204108,10.191181 0 0 0 2.4466536,0.796285 l 0.270888,1.756535 h 3.365503 l 0.270889,-1.756535 a 10.204108,10.191181 0 0 0 0.0011,-2.94e-4 v -6.766871 a 3.8273538,3.8225053 0 0 1 -3.194291,0.38678 3.8273538,3.8225053 0 0 1 -2.4573456,-4.816596 3.8273538,3.8225053 0 0 1 4.8227656,-2.4542402 3.8273538,3.8225053 0 0 1 0.828825,0.3840787 V 2.5134017 L 14.320668,0.74999907 Z" />
  <path
     style="fill:#0000ff;fill-opacity:1;stroke:#0000ff;stroke-width:1.49999988;stroke-linecap:butt;stroke-linejoin:miter;stroke-miterlimit:4;stroke-opacity:1;stroke-dasharray:none"
     d="m 5.6874981,17.285381 8.9812029,0 0,-3.166667 8.738467,4.75 -8.738467,4.75 0,-3.166667 -8.9812029,0 z"
     id="path2984"
     inkscape:connector-curvature="0"
     sodipodi:nodetypes="cccccccc" />
  <path
     style="fill:#0000ff;fill-opacity:1;stroke:#0000ff;stroke-width:1.49999988;stroke-linecap:butt;stroke-linejoin:miter;stroke-miterlimit:4;stroke-opacity:1;stroke-dasharray:none"
     d="m 23.407168,4.5899471 -8.981202,0 0,-3.1666669 -8.7384681,4.7499999 8.7384681,4.7500009 0,-3.1666679 8.981202,0 z"
     id="path2984-7"
     inkscape:connector-curvature="0"
     sodipodi:nodetypes="cccccccc" />
</svg>
