<?xml version="1.0" encoding="UTF-8" standalone="no"?>
<!-- Created with Inkscape (http://www.inkscape.org/) -->

<svg
   xmlns:dc="http://purl.org/dc/elements/1.1/"
   xmlns:cc="http://creativecommons.org/ns#"
   xmlns:rdf="http://www.w3.org/1999/02/22-rdf-syntax-ns#"
   xmlns:svg="http://www.w3.org/2000/svg"
   xmlns="http://www.w3.org/2000/svg"
   xmlns:sodipodi="http://sodipodi.sourceforge.net/DTD/sodipodi-0.dtd"
   xmlns:inkscape="http://www.inkscape.org/namespaces/inkscape"
   width="223.73087"
   height="124.51101"
   id="svg2826"
   version="1.1"
   inkscape:version="0.47 r22583"
   sodipodi:docname="MechanicVehicle1D.svg">
  <defs
     id="defs2828">
    <inkscape:perspective
       sodipodi:type="inkscape:persp3d"
       inkscape:vp_x="0 : 526.18109 : 1"
       inkscape:vp_y="0 : 1000 : 0"
       inkscape:vp_z="744.09448 : 526.18109 : 1"
       inkscape:persp3d-origin="372.04724 : 350.78739 : 1"
       id="perspective2834" />
  </defs>
  <sodipodi:namedview
     id="base"
     pagecolor="#ffffff"
     bordercolor="#666666"
     borderopacity="1.0"
     inkscape:pageopacity="0.0"
     inkscape:pageshadow="2"
     inkscape:zoom="1"
     inkscape:cx="194.88612"
     inkscape:cy="74.865521"
     inkscape:document-units="px"
     inkscape:current-layer="layer1"
     showgrid="false"
     inkscape:window-width="1155"
     inkscape:window-height="746"
     inkscape:window-x="1568"
     inkscape:window-y="144"
     inkscape:window-maximized="0" />
  <metadata
     id="metadata2831">
    <rdf:RDF>
      <cc:Work
         rdf:about="">
        <dc:format>image/svg+xml</dc:format>
        <dc:type
           rdf:resource="http://purl.org/dc/dcmitype/StillImage" />
        <dc:title></dc:title>
      </cc:Work>
    </rdf:RDF>
  </metadata>
  <g
     inkscape:label="Layer 1"
     inkscape:groupmode="layer"
     id="layer1"
     transform="translate(-144.1449,-441.35117)">
    <rect
       style="fill:#ffffff;fill-opacity:1;stroke:#000000;stroke-width:1.70469892;stroke-miterlimit:4;stroke-opacity:1;stroke-dasharray:none"
       id="rect3644"
       width="127.02489"
       height="66.63353"
       x="173.56874"
       y="442.20352"
       ry="16.247248" />
    <rect
       style="fill:#ffffff;fill-rule:evenodd;stroke:#000000;stroke-width:1.70469892;stroke-linecap:butt;stroke-linejoin:miter;stroke-miterlimit:4;stroke-opacity:1;stroke-dasharray:none"
       id="rect2836"
       width="222.02617"
       height="61.042553"
       x="144.99725"
       y="484.19977"
       ry="13.270117" />
    <path
       sodipodi:type="arc"
       style="fill:#666666;stroke:#000000;stroke-width:3;stroke-miterlimit:4;stroke-opacity:1;stroke-dasharray:none"
       id="path2864"
       sodipodi:cx="477.14285"
       sodipodi:cy="542.36218"
       sodipodi:rx="51.42857"
       sodipodi:ry="50"
       d="m 528.57142,542.36218 c 0,27.61424 -23.02535,50 -51.42857,50 -28.40321,0 -51.42857,-22.38576 -51.42857,-50 0,-27.61423 23.02536,-50 51.42857,-50 28.2101,0 51.15468,22.09355 51.42619,49.51877"
       sodipodi:start="0"
       sodipodi:end="6.2735605"
       transform="matrix(0.56823299,0,0,0.56823299,53.145284,228.4101)"
       sodipodi:open="true" />
    <path
       sodipodi:open="true"
       transform="matrix(0.56823299,0,0,0.56823299,-80.957701,228.4101)"
       sodipodi:end="6.2735605"
       sodipodi:start="0"
       d="m 528.57142,542.36218 c 0,27.61424 -23.02535,50 -51.42857,50 -28.40321,0 -51.42857,-22.38576 -51.42857,-50 0,-27.61423 23.02536,-50 51.42857,-50 28.2101,0 51.15468,22.09355 51.42619,49.51877"
       sodipodi:ry="50"
       sodipodi:rx="51.42857"
       sodipodi:cy="542.36218"
       sodipodi:cx="477.14285"
       id="path3670"
       style="fill:#666666;stroke:#000000;stroke-width:3;stroke-miterlimit:4;stroke-opacity:1;stroke-dasharray:none"
       sodipodi:type="arc" />
    <path
       sodipodi:type="arc"
       style="fill:#ffffff;stroke:#000000;stroke-width:4.97360754;stroke-miterlimit:4;stroke-opacity:1;stroke-dasharray:none"
       id="path3672"
       sodipodi:cx="477.14285"
       sodipodi:cy="542.36218"
       sodipodi:rx="51.42857"
       sodipodi:ry="50"
       d="m 528.57142,542.36218 c 0,27.61424 -23.02535,50 -51.42857,50 -28.40321,0 -51.42857,-22.38576 -51.42857,-50 0,-27.61423 23.02536,-50 51.42857,-50 28.2101,0 51.15468,22.09355 51.42619,49.51877"
       sodipodi:start="0"
       sodipodi:end="6.2735605"
       transform="matrix(0.3516379,0,0,0.33408481,22.389102,355.40322)"
       sodipodi:open="true" />
    <path
       sodipodi:open="true"
       transform="matrix(0.3516379,0,0,0.33408481,157.06032,355.40322)"
       sodipodi:end="6.2735605"
       sodipodi:start="0"
       d="m 528.57142,542.36218 c 0,27.61424 -23.02535,50 -51.42857,50 -28.40321,0 -51.42857,-22.38576 -51.42857,-50 0,-27.61423 23.02536,-50 51.42857,-50 28.2101,0 51.15468,22.09355 51.42619,49.51877"
       sodipodi:ry="50"
       sodipodi:rx="51.42857"
       sodipodi:cy="542.36218"
       sodipodi:cx="477.14285"
       id="path3674"
       style="fill:#ffffff;stroke:#000000;stroke-width:4.97360754;stroke-miterlimit:4;stroke-opacity:1;stroke-dasharray:none"
       sodipodi:type="arc" />
  </g>
</svg>
