<?xml version="1.0" encoding="UTF-8" standalone="no"?>
<!-- Created with Inkscape (http://www.inkscape.org/) -->

<svg
   xmlns:dc="http://purl.org/dc/elements/1.1/"
   xmlns:cc="http://creativecommons.org/ns#"
   xmlns:rdf="http://www.w3.org/1999/02/22-rdf-syntax-ns#"
   xmlns:svg="http://www.w3.org/2000/svg"
   xmlns="http://www.w3.org/2000/svg"
   xmlns:sodipodi="http://sodipodi.sourceforge.net/DTD/sodipodi-0.dtd"
   xmlns:inkscape="http://www.inkscape.org/namespaces/inkscape"
   width="203.25"
   height="209.25"
   id="svg3037"
   version="1.1"
   inkscape:version="0.48.2 r9819"
   sodipodi:docname="lookuptablehelp.svg">
  <defs
     id="defs3039" />
  <sodipodi:namedview
     id="base"
     pagecolor="#ffffff"
     bordercolor="#666666"
     borderopacity="1.0"
     inkscape:pageopacity="0.0"
     inkscape:pageshadow="2"
     inkscape:zoom="0.86387925"
     inkscape:cx="-116.58341"
     inkscape:cy="-46.839953"
     inkscape:document-units="px"
     inkscape:current-layer="text4022-7-5"
     showgrid="false"
     inkscape:window-width="1440"
     inkscape:window-height="838"
     inkscape:window-x="-8"
     inkscape:window-y="-8"
     inkscape:window-maximized="1"
     fit-margin-top="1"
     fit-margin-left="1"
     fit-margin-right="1"
     fit-margin-bottom="1" />
  <metadata
     id="metadata3042">
    <rdf:RDF>
      <cc:Work
         rdf:about="">
        <dc:format>image/svg+xml</dc:format>
        <dc:type
           rdf:resource="http://purl.org/dc/dcmitype/StillImage" />
        <dc:title />
      </cc:Work>
    </rdf:RDF>
  </metadata>
  <g
     inkscape:label="Layer 1"
     inkscape:groupmode="layer"
     id="layer1"
     transform="translate(-51.3125,-280.4375)">
    <g
       style="font-size:40px;font-style:normal;font-weight:bold;line-height:125%;letter-spacing:0px;word-spacing:0px;fill:#000000;fill-opacity:1;stroke:none;font-family:Sans;-inkscape-font-specification:Sans Bold"
       id="text4022-7-5">
      <path
         inkscape:connector-curvature="0"
         id="path3862"
         style="font-size:8px;font-weight:normal;line-height:125%;fill:#000000;font-family:Sans"
         d="m 65.338256,288.82845 c -1.040537,1.78597 -1.81317,3.55256 -2.317897,5.29971 -0.504744,1.74714 -0.757109,3.51762 -0.757106,5.31137 -3e-6,1.79375 0.252352,3.57197 0.757106,5.33463 0.512493,1.75498 1.285126,3.5215 2.317897,5.29974 l -1.863638,0 c -1.164776,-1.82481 -2.038358,-3.61854 -2.620739,-5.38126 -0.574624,-1.76266 -0.861936,-3.5137 -0.861933,-5.25311 -3e-6,-1.73162 0.287299,-3.4749 0.861933,-5.22984 0.574615,-1.75492 1.448197,-3.54865 2.620739,-5.38124 l 1.863638,0" />
      <path
         inkscape:connector-curvature="0"
         id="path3864"
         style="font-size:8px;font-weight:normal;line-height:125%;fill:#000000;font-family:Sans"
         d="m 80.666677,299.87048 0,1.0483 -9.853983,0 c 0.09317,1.47539 0.535791,2.60133 1.32784,3.37786 0.799806,0.76873 1.910222,1.15313 3.331254,1.15313 0.823096,0 1.619025,-0.10109 2.387787,-0.30286 0.776504,-0.20184 1.545252,-0.50475 2.306251,-0.90851 l 0,2.02668 c -0.768763,0.32614 -1.556928,0.57463 -2.364491,0.74546 -0.807587,0.17082 -1.626811,0.25615 -2.457672,0.25615 -2.08107,0 -3.731166,-0.60568 -4.950287,-1.81705 -1.211368,-1.21136 -1.817051,-2.8498 -1.817047,-4.91536 -4e-6,-2.13539 0.574617,-3.8282 1.723865,-5.07841 1.157002,-1.25796 2.713913,-1.88691 4.670741,-1.88694 1.754914,3e-5 3.140995,0.56687 4.158241,1.70058 1.02499,1.12597 1.53749,2.65958 1.537501,4.60084 m -2.143182,-0.62896 c -0.01541,-1.17253 -0.345561,-2.10821 -0.990059,-2.80711 -0.636752,-0.69885 -1.483153,-1.04828 -2.539203,-1.04828 -1.195842,0 -2.15484,0.33778 -2.876995,1.01334 -0.714397,0.67558 -1.125952,1.62683 -1.234659,2.85368 l 7.640916,-0.0132" />
      <path
         inkscape:connector-curvature="0"
         id="path3866"
         style="font-size:8px;font-weight:normal;line-height:125%;fill:#000000;font-family:Sans"
         d="m 94.609019,293.88354 -4.717337,6.34803 4.961938,6.69744 -2.527557,0 -3.797164,-5.125 -3.79716,5.125 -2.527562,0 5.066766,-6.82555 -4.635798,-6.21992 2.527559,0 3.459377,4.64745 3.459378,-4.64745 2.52756,0" />
      <path
         inkscape:connector-curvature="0"
         id="path3868"
         style="font-size:8px;font-weight:normal;line-height:125%;fill:#000000;font-family:Sans"
         d="m 103.81073,300.37134 c -1.73163,0 -2.93135,0.19806 -3.59915,0.59403 -0.667809,0.39603 -1.00171,1.07161 -1.001708,2.02672 -2e-6,0.76098 0.248466,1.36666 0.745457,1.81704 0.504731,0.44262 1.188061,0.66393 2.050001,0.66393 1.18806,0 2.13929,-0.41936 2.8537,-1.25798 0.72215,-0.84638 1.08322,-1.96844 1.08324,-3.36618 l 0,-0.47756 -2.13154,0 m 4.27472,-0.88521 0,7.44288 -2.14318,0 0,-1.98011 c -0.48922,0.79205 -1.09878,1.37832 -1.8287,1.75881 -0.72993,0.37272 -1.62293,0.55908 -2.67898,0.55908 -1.33561,0 -2.399436,-0.37272 -3.191476,-1.11817 -0.784285,-0.75322 -1.176425,-1.75881 -1.176425,-3.01679 0,-1.46756 0.489204,-2.57413 1.467617,-3.31958 0.98617,-0.74547 2.453784,-1.11819 4.402844,-1.11819 l 3.00512,0 0,-0.20967 c -2e-5,-0.98619 -0.32615,-1.74717 -0.97841,-2.28299 -0.64452,-0.5435 -1.55304,-0.8153 -2.72558,-0.8153 -0.74546,0 -1.4715,0.0895 -2.17812,0.26776 -0.706636,0.17864 -1.386084,0.4465 -2.038354,0.8037 l 0,-1.98012 c 0.784277,-0.30283 1.545263,-0.52802 2.282954,-0.67556 0.73769,-0.15546 1.45596,-0.23287 2.15483,-0.23287 1.88693,2e-5 3.2963,0.48924 4.22813,1.46764 0.93181,0.97841 1.39772,2.46154 1.39773,4.44943" />
      <path
         inkscape:connector-curvature="0"
         id="path3870"
         style="font-size:8px;font-weight:normal;line-height:125%;fill:#000000;font-family:Sans"
         d="m 122.66841,296.38781 c 0.53579,-0.96285 1.17641,-1.67338 1.92188,-2.13153 0.74544,-0.45813 1.6229,-0.6872 2.63239,-0.68722 1.35888,2e-5 2.40718,0.47758 3.14489,1.43269 0.73767,0.94733 1.10651,2.29849 1.10654,4.0534 l 0,7.87386 -2.15484,0 0,-7.80398 c -2e-5,-1.2502 -0.22134,-2.1781 -0.66392,-2.78379 -0.44263,-0.60568 -1.1182,-0.90851 -2.0267,-0.90854 -1.11044,3e-5 -1.9879,0.36884 -2.63239,1.10653 -0.64453,0.73768 -0.96678,1.74327 -0.96676,3.01676 l 0,7.37302 -2.15484,0 0,-7.80398 c -1e-5,-1.25794 -0.22132,-2.1859 -0.66392,-2.78379 -0.44262,-0.60568 -1.12596,-0.90851 -2.05,-0.90854 -1.09489,3e-5 -1.96459,0.37275 -2.60909,1.11817 -0.64451,0.73769 -0.96677,1.73944 -0.96677,3.00512 l 0,7.37302 -2.15482,0 0,-13.04547 2.15482,0 0,2.02671 c 0.48921,-0.79979 1.07548,-1.38994 1.75881,-1.77044 0.68333,-0.38049 1.49479,-0.57073 2.43438,-0.57075 0.94734,2e-5 1.75103,0.24069 2.41108,0.72215 0.66779,0.48145 1.16088,1.18035 1.47926,2.0966" />
      <path
         inkscape:connector-curvature="0"
         id="path3872"
         style="font-size:8px;font-weight:normal;line-height:125%;fill:#000000;font-family:Sans"
         d="m 137.83377,304.9722 0,6.91875 -2.15483,0 0,-18.00741 2.15483,0 0,1.98011 c 0.45037,-0.77647 1.01722,-1.35111 1.70058,-1.72384 0.69107,-0.38049 1.51418,-0.57073 2.46931,-0.57075 1.58409,2e-5 2.86921,0.62898 3.85539,1.88692 0.99394,1.25798 1.4909,2.91195 1.49092,4.96196 -2e-5,2.05 -0.49698,3.70395 -1.49092,4.96191 -0.98618,1.25796 -2.2713,1.88694 -3.85539,1.88694 -0.95513,0 -1.77824,-0.18646 -2.46931,-0.55908 -0.68336,-0.38049 -1.25021,-0.95899 -1.70058,-1.73551 m 7.29148,-4.55426 c -2e-5,-1.57633 -0.32615,-2.81099 -0.97841,-3.70398 -0.64452,-0.90077 -1.53363,-1.35111 -2.66732,-1.35115 -1.13373,4e-5 -2.02673,0.45038 -2.67899,1.35115 -0.64451,0.89299 -0.96676,2.12765 -0.96676,3.70398 0,1.5763 0.32225,2.81487 0.96676,3.7156 0.65226,0.89302 1.54526,1.33952 2.67899,1.33952 1.13369,0 2.0228,-0.4465 2.66732,-1.33952 0.65226,-0.90073 0.97839,-2.1393 0.97841,-3.7156" />
      <path
         inkscape:connector-curvature="0"
         id="path3874"
         style="font-size:8px;font-weight:normal;line-height:125%;fill:#000000;font-family:Sans"
         d="m 150.90253,288.80515 2.14318,0 0,18.12386 -2.14318,0 0,-18.12386" />
      <path
         inkscape:connector-curvature="0"
         id="path3876"
         style="font-size:8px;font-weight:normal;line-height:125%;fill:#000000;font-family:Sans"
         d="m 168.67697,299.87048 0,1.0483 -9.85398,0 c 0.0931,1.47539 0.53579,2.60133 1.32784,3.37786 0.79981,0.76873 1.91023,1.15313 3.33126,1.15313 0.82309,0 1.61902,-0.10109 2.38779,-0.30286 0.77649,-0.20184 1.54524,-0.50475 2.30624,-0.90851 l 0,2.02668 c -0.76875,0.32614 -1.55693,0.57463 -2.36449,0.74546 -0.80759,0.17082 -1.62682,0.25615 -2.45767,0.25615 -2.08106,0 -3.73116,-0.60568 -4.95029,-1.81705 -1.21137,-1.21136 -1.81705,-2.8498 -1.81705,-4.91536 0,-2.13539 0.57462,-3.8282 1.72386,-5.07841 1.15702,-1.25796 2.71393,-1.88691 4.67075,-1.88694 1.75492,3e-5 3.141,0.56687 4.15824,1.70058 1.025,1.12597 1.53749,2.65958 1.5375,4.60084 m -2.14318,-0.62896 c -0.0149,-1.17253 -0.34555,-2.10821 -0.99006,-2.80711 -0.63675,-0.69885 -1.48315,-1.04828 -2.5392,-1.04828 -1.19584,0 -2.15485,0.33778 -2.877,1.01334 -0.71439,0.67558 -1.12595,1.62683 -1.23465,2.85368 l 7.64091,-0.0132" />
      <path
         inkscape:connector-curvature="0"
         id="path3878"
         style="font-size:8px;font-weight:normal;line-height:125%;fill:#000000;font-family:Sans"
         d="m 172.49743,303.97049 2.45768,0 0,2.95852 -2.45768,0 0,-2.95852" />
      <path
         inkscape:connector-curvature="0"
         id="path3880"
         style="font-size:8px;font-weight:normal;line-height:125%;fill:#000000;font-family:Sans"
         d="m 189.17699,294.38442 0,2.00339 c -0.60569,-0.33387 -1.21525,-0.58236 -1.8287,-0.74547 -0.60569,-0.17081 -1.21914,-0.25614 -1.84033,-0.25614 -1.38996,0 -2.46933,0.44263 -3.23807,1.32786 -0.76875,0.87745 -1.15313,2.11212 -1.15313,3.70396 0,1.59187 0.38438,2.8304 1.15313,3.71562 0.76874,0.87746 1.84811,1.31621 3.23807,1.31621 0.62119,0 1.23464,-0.0815 1.84033,-0.24447 0.61345,-0.17082 1.22301,-0.42322 1.8287,-0.75712 l 0,1.9801 c -0.59792,0.2794 -1.21914,0.48919 -1.86364,0.62898 -0.63676,0.13971 -1.31621,0.20968 -2.03835,0.20968 -1.9646,0 -3.5254,-0.61733 -4.6824,-1.85197 -1.157,-1.23465 -1.73551,-2.90031 -1.7355,-4.99688 -1e-5,-2.12765 0.5824,-3.80105 1.74717,-5.02019 1.17252,-1.21913 2.77602,-1.82867 4.8105,-1.8287 0.66003,3e-5 1.30454,0.0696 1.93352,0.20968 0.62896,0.13224 1.23855,0.33393 1.8287,0.60569" />
      <path
         inkscape:connector-curvature="0"
         id="path3882"
         style="font-size:8px;font-weight:normal;line-height:125%;fill:#000000;font-family:Sans"
         d="m 201.24406,294.26793 0,2.02671 c -0.60572,-0.31062 -1.23469,-0.54353 -1.88694,-0.69888 -0.65226,-0.15545 -1.32786,-0.23287 -2.02673,-0.23287 -1.06382,2e-5 -1.86361,0.16291 -2.39942,0.48923 -0.52804,0.32615 -0.79205,0.81533 -0.79205,1.46758 0,0.49698 0.19023,0.88914 0.57074,1.17645 0.3805,0.2794 1.14536,0.54745 2.2946,0.80371 l 0.73382,0.16291 c 1.52196,0.32614 2.60131,0.78815 3.23808,1.38608 0.64449,0.59014 0.96673,1.41713 0.96676,2.48096 -3e-5,1.21137 -0.48147,2.17034 -1.44435,2.87698 -0.95512,0.70664 -2.2713,1.05993 -3.94856,1.05993 -0.69888,0 -1.42881,-0.0696 -2.18977,-0.20966 -0.75324,-0.13225 -1.54915,-0.33392 -2.38779,-0.60569 l 0,-2.21305 c 0.79204,0.41154 1.57244,0.72213 2.34119,0.93182 0.76874,0.20184 1.52971,0.30283 2.28297,0.30283 1.00947,0 1.78594,-0.17079 2.32956,-0.51252 0.54354,-0.3494 0.8153,-0.83864 0.8153,-1.46758 0,-0.58238 -0.19806,-1.02888 -0.59401,-1.33952 -0.3883,-0.3106 -1.24634,-0.60955 -2.57417,-0.89684 l -0.74545,-0.17484 c -1.32786,-0.27939 -2.28685,-0.70662 -2.87698,-1.28124 -0.59015,-0.58237 -0.88524,-1.37831 -0.88524,-2.38781 0,-1.22686 0.43487,-2.17422 1.30454,-2.84204 0.86972,-0.66776 2.10437,-1.00168 3.70401,-1.0017 0.79203,2e-5 1.5375,0.058 2.23635,0.17484 0.69885,0.11651 1.34337,0.2913 1.93354,0.52413" />
      <path
         inkscape:connector-curvature="0"
         id="path3884"
         style="font-size:8px;font-weight:normal;line-height:125%;fill:#000000;font-family:Sans"
         d="m 203.82984,293.88354 2.27132,0 4.07669,10.9489 4.07671,-10.9489 2.27131,0 -4.89202,13.04547 -2.91195,0 -4.89206,-13.04547" />
      <path
         inkscape:connector-curvature="0"
         id="path3886"
         style="font-size:8px;font-weight:normal;line-height:125%;fill:#000000;font-family:Sans"
         d="m 219.14664,288.82845 1.86363,0 c 1.16474,1.83259 2.03445,3.62632 2.60909,5.38124 0.58237,1.75494 0.87355,3.49822 0.87359,5.22984 -4e-5,1.73941 -0.29133,3.49045 -0.87359,5.25311 -0.57464,1.76272 -1.44435,3.55645 -2.60909,5.38126 l -1.86363,0 c 1.03273,-1.77824 1.80149,-3.54476 2.30622,-5.29974 0.51252,-1.76266 0.76873,-3.54088 0.76878,-5.33463 -5e-5,-1.79375 -0.25616,-3.56423 -0.76878,-5.31137 -0.50473,-1.74715 -1.27349,-3.51374 -2.30622,-5.29971" />
      <text
         sodipodi:linespacing="125%"
         id="text3014"
         y="453.04404"
         x="25.19725"
         style="font-size:10px;font-style:normal;font-weight:normal;line-height:125%;letter-spacing:0px;word-spacing:0px;fill:#000000;fill-opacity:1;stroke:none;font-family:Sans"
         xml:space="preserve"><tspan
           y="453.04404"
           x="25.19725"
           id="tspan3016"
           sodipodi:role="line" /></text>
      <text
         sodipodi:linespacing="125%"
         id="text3018"
         y="445.50339"
         x="25.327261"
         style="font-size:10px;font-style:normal;font-weight:normal;line-height:125%;letter-spacing:0px;word-spacing:0px;fill:#000000;fill-opacity:1;stroke:none;font-family:Sans"
         xml:space="preserve"><tspan
           y="445.50339"
           x="25.327261"
           id="tspan3020"
           sodipodi:role="line" /></text>
      <g
         style="font-size:7.54209995px;font-weight:normal;line-height:125%;fill:#000000;font-family:Sans"
         id="text3022"
         transform="matrix(2.9818206,0,0,2.9818206,-103.66231,-973.92997)">
        <path
           d="m 53.646748,445.63306 c -1e-6,-0.63833 0.06567,-1.15206 0.197022,-1.5412 0.131348,-0.38913 0.326529,-0.68927 0.585544,-0.90041 0.259013,-0.21114 0.584929,-0.31671 0.977748,-0.31671 0.289701,0 0.543805,0.0583 0.762312,0.17493 0.218502,0.11662 0.398952,0.28479 0.541352,0.50452 0.142393,0.21974 0.2541,0.48735 0.335122,0.80282 0.08102,0.31549 0.121525,0.74084 0.121528,1.27605 -3e-6,0.63342 -0.06506,1.14469 -0.195181,1.53383 -0.130124,0.38913 -0.324692,0.68988 -0.583702,0.90225 -0.259017,0.21237 -0.586161,0.31855 -0.981431,0.31855 -0.520485,0 -0.92926,-0.18659 -1.226328,-0.55976 -0.355991,-0.44929 -0.533987,-1.18091 -0.533986,-2.19487 z m 0.681293,0 c -10e-7,0.88629 0.103727,1.47613 0.311185,1.76952 0.207456,0.29338 0.463401,0.44008 0.767836,0.44008 0.304431,0 0.560376,-0.14731 0.767836,-0.44192 0.207454,-0.29462 0.311182,-0.88384 0.311185,-1.76768 -3e-6,-0.88875 -0.103731,-1.4792 -0.311185,-1.77137 -0.20746,-0.29215 -0.46586,-0.43823 -0.775201,-0.43823 -0.304436,0 -0.547491,0.12889 -0.729168,0.38668 -0.228326,0.32899 -0.342489,0.93662 -0.342488,1.82292 z"
           id="path3015"
           inkscape:connector-curvature="0" />
        <path
           d="m 58.216936,448.29562 0,-0.75494 0.754947,0 0,0.75494 z"
           id="path3017"
           inkscape:connector-curvature="0" />
        <path
           d="m 59.936741,445.63306 c 0,-0.63833 0.06567,-1.15206 0.197023,-1.5412 0.131347,-0.38913 0.326529,-0.68927 0.585544,-0.90041 0.259012,-0.21114 0.584928,-0.31671 0.977747,-0.31671 0.289701,0 0.543805,0.0583 0.762312,0.17493 0.218502,0.11662 0.398953,0.28479 0.541352,0.50452 0.142393,0.21974 0.2541,0.48735 0.335123,0.80282 0.08102,0.31549 0.121524,0.74084 0.121528,1.27605 -4e-6,0.63342 -0.06506,1.14469 -0.195182,1.53383 -0.130124,0.38913 -0.324691,0.68988 -0.583702,0.90225 -0.259017,0.21237 -0.58616,0.31855 -0.981431,0.31855 -0.520485,0 -0.92926,-0.18659 -1.226327,-0.55976 -0.355992,-0.44929 -0.533987,-1.18091 -0.533987,-2.19487 z m 0.681293,0 c -1e-6,0.88629 0.103728,1.47613 0.311186,1.76952 0.207455,0.29338 0.4634,0.44008 0.767835,0.44008 0.304432,0 0.560377,-0.14731 0.767836,-0.44192 0.207454,-0.29462 0.311182,-0.88384 0.311186,-1.76768 -4e-6,-0.88875 -0.103732,-1.4792 -0.311186,-1.77137 -0.207459,-0.29215 -0.465859,-0.43823 -0.775201,-0.43823 -0.304435,0 -0.547491,0.12889 -0.729168,0.38668 -0.228326,0.32899 -0.342489,0.93662 -0.342488,1.82292 z"
           id="path3019"
           inkscape:connector-curvature="0" />
        <path
           d="m 64.492199,448.29562 0,-0.75494 0.754947,0 0,0.75494 c -2e-6,0.27743 -0.0491,0.50146 -0.147307,0.67209 -0.09821,0.17063 -0.254105,0.30259 -0.467699,0.39589 l -0.184133,-0.28357 c 0.139941,-0.0614 0.243055,-0.1516 0.309344,-0.27067 0.06629,-0.11908 0.103114,-0.29032 0.11048,-0.51374 z"
           id="path3021"
           inkscape:connector-curvature="0" />
        <path
           d="m 66.226734,445.63306 c 0,-0.63833 0.06567,-1.15206 0.197023,-1.5412 0.131348,-0.38913 0.326529,-0.68927 0.585544,-0.90041 0.259013,-0.21114 0.584928,-0.31671 0.977748,-0.31671 0.2897,0 0.543804,0.0583 0.762312,0.17493 0.218501,0.11662 0.398952,0.28479 0.541351,0.50452 0.142393,0.21974 0.254101,0.48735 0.335123,0.80282 0.08102,0.31549 0.121524,0.74084 0.121528,1.27605 -4e-6,0.63342 -0.06506,1.14469 -0.195181,1.53383 -0.130125,0.38913 -0.324692,0.68988 -0.583703,0.90225 -0.259017,0.21237 -0.58616,0.31855 -0.98143,0.31855 -0.520485,0 -0.929261,-0.18659 -1.226328,-0.55976 -0.355992,-0.44929 -0.533987,-1.18091 -0.533987,-2.19487 z m 0.681294,0 c -10e-7,0.88629 0.103727,1.47613 0.311185,1.76952 0.207455,0.29338 0.4634,0.44008 0.767836,0.44008 0.304431,0 0.560376,-0.14731 0.767836,-0.44192 0.207453,-0.29462 0.311182,-0.88384 0.311185,-1.76768 -3e-6,-0.88875 -0.103732,-1.4792 -0.311185,-1.77137 -0.20746,-0.29215 -0.46586,-0.43823 -0.775202,-0.43823 -0.304435,0 -0.547491,0.12889 -0.729168,0.38668 -0.228326,0.32899 -0.342488,0.93662 -0.342487,1.82292 z"
           id="path3023"
           inkscape:connector-curvature="0" />
        <path
           d="m 70.796924,448.29562 0,-0.75494 0.754946,0 0,0.75494 z"
           id="path3025"
           inkscape:connector-curvature="0" />
        <path
           d="m 72.516728,445.63306 c -10e-7,-0.63833 0.06567,-1.15206 0.197022,-1.5412 0.131348,-0.38913 0.326529,-0.68927 0.585544,-0.90041 0.259013,-0.21114 0.584929,-0.31671 0.977748,-0.31671 0.289701,0 0.543804,0.0583 0.762312,0.17493 0.218502,0.11662 0.398952,0.28479 0.541352,0.50452 0.142393,0.21974 0.2541,0.48735 0.335122,0.80282 0.08101,0.31549 0.121524,0.74084 0.121528,1.27605 -4e-6,0.63342 -0.06506,1.14469 -0.195181,1.53383 -0.130124,0.38913 -0.324692,0.68988 -0.583703,0.90225 -0.259017,0.21237 -0.58616,0.31855 -0.98143,0.31855 -0.520485,0 -0.929261,-0.18659 -1.226328,-0.55976 -0.355991,-0.44929 -0.533987,-1.18091 -0.533986,-2.19487 z m 0.681293,0 c -10e-7,0.88629 0.103727,1.47613 0.311185,1.76952 0.207455,0.29338 0.4634,0.44008 0.767836,0.44008 0.304431,0 0.560376,-0.14731 0.767836,-0.44192 0.207454,-0.29462 0.311182,-0.88384 0.311185,-1.76768 -3e-6,-0.88875 -0.103731,-1.4792 -0.311185,-1.77137 -0.20746,-0.29215 -0.46586,-0.43823 -0.775201,-0.43823 -0.304436,0 -0.547492,0.12889 -0.729168,0.38668 -0.228327,0.32899 -0.342489,0.93662 -0.342488,1.82292 z"
           id="path3027"
           inkscape:connector-curvature="0" />
        <path
           d="m 53.646748,455.06068 c -1e-6,-0.63832 0.06567,-1.15206 0.197022,-1.54119 0.131348,-0.38913 0.326529,-0.68927 0.585544,-0.90042 0.259013,-0.21113 0.584929,-0.3167 0.977748,-0.31671 0.289701,10e-6 0.543805,0.0583 0.762312,0.17493 0.218502,0.11662 0.398952,0.2848 0.541352,0.50453 0.142393,0.21973 0.2541,0.48734 0.335122,0.80282 0.08102,0.31548 0.121525,0.74083 0.121528,1.27604 -3e-6,0.63342 -0.06506,1.1447 -0.195181,1.53383 -0.130124,0.38914 -0.324692,0.68989 -0.583702,0.90225 -0.259017,0.21237 -0.586161,0.31856 -0.981431,0.31856 -0.520485,0 -0.92926,-0.18659 -1.226328,-0.55977 -0.355991,-0.44928 -0.533987,-1.18091 -0.533986,-2.19487 z m 0.681293,0 c -10e-7,0.8863 0.103727,1.47614 0.311185,1.76952 0.207456,0.29339 0.463401,0.44008 0.767836,0.44008 0.304431,0 0.560376,-0.14731 0.767836,-0.44192 0.207454,-0.29461 0.311182,-0.88384 0.311185,-1.76768 -3e-6,-0.88875 -0.103731,-1.4792 -0.311185,-1.77136 -0.20746,-0.29215 -0.46586,-0.43823 -0.775201,-0.43824 -0.304436,10e-6 -0.547491,0.1289 -0.729168,0.38668 -0.228326,0.32899 -0.342489,0.93663 -0.342488,1.82292 z"
           id="path3029"
           inkscape:connector-curvature="0" />
        <path
           d="m 58.216936,457.72325 0,-0.75495 0.754947,0 0,0.75495 z"
           id="path3031"
           inkscape:connector-curvature="0" />
        <path
           d="m 59.936741,456.3091 0.696024,-0.0589 c 0.05156,0.33881 0.171243,0.59353 0.35906,0.76416 0.187814,0.17063 0.414298,0.25594 0.679452,0.25594 0.319162,0 0.589224,-0.1203 0.810186,-0.3609 0.220957,-0.2406 0.331437,-0.55976 0.33144,-0.95749 -3e-6,-0.37809 -0.106186,-0.67638 -0.31855,-0.89489 -0.21237,-0.2185 -0.490411,-0.32776 -0.834124,-0.32776 -0.213597,0 -0.406323,0.0485 -0.578179,0.14547 -0.171859,0.097 -0.30689,0.2228 -0.405093,0.37747 l -0.622371,-0.081 0.522939,-2.77305 2.684663,0 0,0.63342 -2.154359,0 -0.290931,1.45097 c 0.324073,-0.22586 0.664106,-0.3388 1.020099,-0.3388 0.471378,0 0.869106,0.16327 1.193183,0.48979 0.324071,0.32653 0.486109,0.74636 0.486112,1.25947 -3e-6,0.48857 -0.1424,0.91085 -0.427189,1.26684 -0.346174,0.43701 -0.818782,0.65552 -1.417826,0.65552 -0.491024,0 -0.89182,-0.13749 -1.202391,-0.41246 -0.310572,-0.27498 -0.487953,-0.63956 -0.532145,-1.09376 z"
           id="path3033"
           inkscape:connector-curvature="0" />
        <path
           d="m 64.492199,457.72325 0,-0.75495 0.754947,0 0,0.75495 c -2e-6,0.27743 -0.0491,0.50145 -0.147307,0.67209 -0.09821,0.17062 -0.254105,0.30259 -0.467699,0.39588 l -0.184133,-0.28356 c 0.139941,-0.0614 0.243055,-0.15161 0.309344,-0.27068 0.06629,-0.11907 0.103114,-0.29032 0.11048,-0.51373 z"
           id="path3035"
           inkscape:connector-curvature="0" />
        <path
           d="m 68.723582,457.72325 -0.66288,0 0,-4.22402 c -0.159584,0.15222 -0.368882,0.30444 -0.627895,0.45665 -0.259015,0.15222 -0.491636,0.26638 -0.697865,0.34249 l 0,-0.64078 c 0.370721,-0.17431 0.694795,-0.38545 0.972224,-0.63342 0.277426,-0.24796 0.473834,-0.48856 0.589227,-0.72181 l 0.427189,0 z"
           id="path3037"
           inkscape:connector-curvature="0" />
        <path
           d="m 70.796924,457.72325 0,-0.75495 0.754946,0 0,0.75495 z"
           id="path3039"
           inkscape:connector-curvature="0" />
        <path
           d="m 72.516728,455.06068 c -10e-7,-0.63832 0.06567,-1.15206 0.197022,-1.54119 0.131348,-0.38913 0.326529,-0.68927 0.585544,-0.90042 0.259013,-0.21113 0.584929,-0.3167 0.977748,-0.31671 0.289701,10e-6 0.543804,0.0583 0.762312,0.17493 0.218502,0.11662 0.398952,0.2848 0.541352,0.50453 0.142393,0.21973 0.2541,0.48734 0.335122,0.80282 0.08101,0.31548 0.121524,0.74083 0.121528,1.27604 -4e-6,0.63342 -0.06506,1.1447 -0.195181,1.53383 -0.130124,0.38914 -0.324692,0.68989 -0.583703,0.90225 -0.259017,0.21237 -0.58616,0.31856 -0.98143,0.31856 -0.520485,0 -0.929261,-0.18659 -1.226328,-0.55977 -0.355991,-0.44928 -0.533987,-1.18091 -0.533986,-2.19487 z m 0.681293,0 c -10e-7,0.8863 0.103727,1.47614 0.311185,1.76952 0.207455,0.29339 0.4634,0.44008 0.767836,0.44008 0.304431,0 0.560376,-0.14731 0.767836,-0.44192 0.207454,-0.29461 0.311182,-0.88384 0.311185,-1.76768 -3e-6,-0.88875 -0.103731,-1.4792 -0.311185,-1.77136 -0.20746,-0.29215 -0.46586,-0.43823 -0.775201,-0.43824 -0.304436,10e-6 -0.547492,0.1289 -0.729168,0.38668 -0.228327,0.32899 -0.342489,0.93663 -0.342488,1.82292 z"
           id="path3041"
           inkscape:connector-curvature="0" />
        <path
           d="m 53.646748,464.48831 c -1e-6,-0.63833 0.06567,-1.15206 0.197022,-1.5412 0.131348,-0.38913 0.326529,-0.68927 0.585544,-0.90041 0.259013,-0.21114 0.584929,-0.31671 0.977748,-0.31671 0.289701,0 0.543805,0.0583 0.762312,0.17493 0.218502,0.11662 0.398952,0.28479 0.541352,0.50452 0.142393,0.21974 0.2541,0.48734 0.335122,0.80282 0.08102,0.31549 0.121525,0.74084 0.121528,1.27605 -3e-6,0.63342 -0.06506,1.14469 -0.195181,1.53383 -0.130124,0.38913 -0.324692,0.68988 -0.583702,0.90225 -0.259017,0.21237 -0.586161,0.31855 -0.981431,0.31855 -0.520485,0 -0.92926,-0.18659 -1.226328,-0.55976 -0.355991,-0.44929 -0.533987,-1.18091 -0.533986,-2.19487 z m 0.681293,0 c -10e-7,0.88629 0.103727,1.47613 0.311185,1.76952 0.207456,0.29338 0.463401,0.44008 0.767836,0.44008 0.304431,0 0.560376,-0.14731 0.767836,-0.44192 0.207454,-0.29462 0.311182,-0.88384 0.311185,-1.76768 -3e-6,-0.88875 -0.103731,-1.4792 -0.311185,-1.77137 -0.20746,-0.29215 -0.46586,-0.43823 -0.775201,-0.43823 -0.304436,0 -0.547491,0.12889 -0.729168,0.38668 -0.228326,0.32899 -0.342489,0.93662 -0.342488,1.82292 z"
           id="path3043"
           inkscape:connector-curvature="0" />
        <path
           d="m 58.216936,467.15087 0,-0.75494 0.754947,0 0,0.75494 z"
           id="path3045"
           inkscape:connector-curvature="0" />
        <path
           d="m 60.036173,465.90245 0.637101,-0.0589 c 0.05401,0.29952 0.157126,0.5168 0.309344,0.65183 0.152216,0.13503 0.347397,0.20255 0.585544,0.20255 0.203772,0 0.382381,-0.0466 0.535828,-0.13995 0.153442,-0.0933 0.279266,-0.21789 0.377473,-0.37379 0.0982,-0.15589 0.180448,-0.36642 0.246739,-0.63157 0.06628,-0.26515 0.09943,-0.53522 0.09943,-0.81019 -3e-6,-0.0295 -0.0012,-0.0736 -0.0037,-0.13258 -0.132579,0.21115 -0.313643,0.38239 -0.543193,0.51374 -0.229555,0.13135 -0.478135,0.19702 -0.74574,0.19702 -0.446832,0 -0.824918,-0.16204 -1.134261,-0.48611 -0.309344,-0.32408 -0.464016,-0.75126 -0.464016,-1.28157 0,-0.54749 0.161423,-0.98818 0.484271,-1.32208 0.322846,-0.33389 0.727325,-0.50084 1.213438,-0.50084 0.351079,0 0.672084,0.0945 0.963017,0.28356 0.290928,0.18905 0.511887,0.4585 0.66288,0.80835 0.150986,0.34986 0.22648,0.85622 0.226484,1.5191 -4e-6,0.68989 -0.07489,1.23922 -0.224643,1.64799 -0.149765,0.40878 -0.372566,0.71996 -0.668403,0.93356 -0.295844,0.21359 -0.642628,0.32039 -1.040354,0.32039 -0.42228,0 -0.767223,-0.11723 -1.034829,-0.35169 -0.267607,-0.23447 -0.428417,-0.56407 -0.482429,-0.9888 z m 2.714125,-2.38269 c -3e-6,-0.38053 -0.101276,-0.68251 -0.30382,-0.90593 -0.202549,-0.22341 -0.446219,-0.33512 -0.731009,-0.33512 -0.294615,0 -0.551174,0.1203 -0.769677,0.3609 -0.218506,0.2406 -0.327759,0.5524 -0.327758,0.93539 -1e-6,0.34372 0.103728,0.62299 0.311186,0.83781 0.207455,0.21483 0.4634,0.32224 0.767835,0.32223 0.306887,10e-6 0.559149,-0.1074 0.756788,-0.32223 0.197634,-0.21482 0.296452,-0.5125 0.296455,-0.89305 z"
           id="path3047"
           inkscape:connector-curvature="0" />
        <path
           d="m 64.492199,467.15087 0,-0.75494 0.754947,0 0,0.75494 c -2e-6,0.27743 -0.0491,0.50146 -0.147307,0.67209 -0.09821,0.17063 -0.254105,0.30259 -0.467699,0.39589 l -0.184133,-0.28357 c 0.139941,-0.0614 0.243055,-0.1516 0.309344,-0.27067 0.06629,-0.11908 0.103114,-0.29032 0.11048,-0.51374 z"
           id="path3049"
           inkscape:connector-curvature="0" />
        <path
           d="m 68.723582,467.15087 -0.66288,0 0,-4.22401 c -0.159584,0.15222 -0.368882,0.30443 -0.627895,0.45665 -0.259015,0.15222 -0.491636,0.26638 -0.697865,0.34248 l 0,-0.64078 c 0.370721,-0.17431 0.694795,-0.38545 0.972224,-0.63342 0.277426,-0.24796 0.473834,-0.48856 0.589227,-0.7218 l 0.427189,0 z"
           id="path3051"
           inkscape:connector-curvature="0" />
        <path
           d="m 70.796924,467.15087 0,-0.75494 0.754946,0 0,0.75494 z"
           id="path3053"
           inkscape:connector-curvature="0" />
        <path
           d="m 76.00053,466.51377 0,0.6371 -3.568504,0 c -0.0049,-0.15958 0.02087,-0.31302 0.07734,-0.46033 0.09084,-0.24305 0.236304,-0.48243 0.436396,-0.71812 0.200091,-0.23569 0.48918,-0.50821 0.867268,-0.81755 0.586769,-0.4812 0.983269,-0.86236 1.189501,-1.14347 0.206226,-0.28111 0.309341,-0.54687 0.309344,-0.7973 -3e-6,-0.26269 -0.09391,-0.48426 -0.281724,-0.66472 -0.187818,-0.18044 -0.432715,-0.27067 -0.734692,-0.27067 -0.319166,0 -0.574497,0.0958 -0.765994,0.28724 -0.1915,0.19151 -0.288477,0.45666 -0.290931,0.79546 l -0.681293,-0.07 c 0.04665,-0.5082 0.222187,-0.8955 0.526621,-1.16188 0.304433,-0.26638 0.713208,-0.39957 1.226328,-0.39957 0.518026,0 0.928029,0.14363 1.23001,0.43087 0.301975,0.28725 0.452965,0.64324 0.452968,1.06797 -3e-6,0.21606 -0.04419,0.42842 -0.132576,0.63711 -0.08839,0.20868 -0.23508,0.42842 -0.440078,0.65919 -0.205005,0.23079 -0.545651,0.54749 -1.02194,0.95013 -0.39773,0.3339 -0.653061,0.56038 -0.765995,0.67945 -0.112936,0.11908 -0.20623,0.23876 -0.279882,0.35906 z"
           id="path3055"
           inkscape:connector-curvature="0" />
        <path
           d="m 80.19877,466.51377 0,0.6371 -3.568503,0 c -0.0049,-0.15958 0.02087,-0.31302 0.07734,-0.46033 0.09084,-0.24305 0.236303,-0.48243 0.436395,-0.71812 0.200091,-0.23569 0.48918,-0.50821 0.867268,-0.81755 0.58677,-0.4812 0.98327,-0.86236 1.189501,-1.14347 0.206227,-0.28111 0.309341,-0.54687 0.309344,-0.7973 -3e-6,-0.26269 -0.09391,-0.48426 -0.281724,-0.66472 -0.187818,-0.18044 -0.432715,-0.27067 -0.734691,-0.27067 -0.319167,0 -0.574498,0.0958 -0.765995,0.28724 -0.1915,0.19151 -0.288476,0.45666 -0.290931,0.79546 l -0.681293,-0.07 c 0.04665,-0.5082 0.222187,-0.8955 0.526621,-1.16188 0.304433,-0.26638 0.713209,-0.39957 1.226328,-0.39957 0.518026,0 0.928029,0.14363 1.230011,0.43087 0.301975,0.28725 0.452964,0.64324 0.452968,1.06797 -4e-6,0.21606 -0.0442,0.42842 -0.132576,0.63711 -0.08839,0.20868 -0.235081,0.42842 -0.440079,0.65919 -0.205005,0.23079 -0.545651,0.54749 -1.02194,0.95013 -0.397729,0.3339 -0.653061,0.56038 -0.765994,0.67945 -0.112937,0.11908 -0.206231,0.23876 -0.279883,0.35906 z"
           id="path3057"
           inkscape:connector-curvature="0" />
        <path
           d="m 56.143595,476.5785 -0.66288,0 0,-4.22402 c -0.159584,0.15222 -0.368882,0.30444 -0.627894,0.45665 -0.259016,0.15222 -0.491637,0.26638 -0.697865,0.34249 l 0,-0.64078 c 0.37072,-0.17431 0.694794,-0.38545 0.972223,-0.63342 0.277426,-0.24796 0.473835,-0.48857 0.589227,-0.72181 l 0.427189,0 z"
           id="path3059"
           inkscape:connector-curvature="0" />
        <path
           d="m 58.216936,476.5785 0,-0.75495 0.754947,0 0,0.75495 z"
           id="path3061"
           inkscape:connector-curvature="0" />
        <path
           d="m 59.936741,473.91593 c 0,-0.63832 0.06567,-1.15206 0.197023,-1.54119 0.131347,-0.38914 0.326529,-0.68927 0.585544,-0.90042 0.259012,-0.21113 0.584928,-0.3167 0.977747,-0.31671 0.289701,1e-5 0.543805,0.0583 0.762312,0.17493 0.218502,0.11662 0.398953,0.2848 0.541352,0.50453 0.142393,0.21973 0.2541,0.48734 0.335123,0.80282 0.08102,0.31548 0.121524,0.74083 0.121528,1.27604 -4e-6,0.63342 -0.06506,1.1447 -0.195182,1.53383 -0.130124,0.38914 -0.324691,0.68989 -0.583702,0.90225 -0.259017,0.21237 -0.58616,0.31856 -0.981431,0.31856 -0.520485,0 -0.92926,-0.18659 -1.226327,-0.55977 -0.355992,-0.44928 -0.533987,-1.18091 -0.533987,-2.19487 z m 0.681293,0 c -1e-6,0.8863 0.103728,1.47614 0.311186,1.76952 0.207455,0.29339 0.4634,0.44008 0.767835,0.44008 0.304432,0 0.560377,-0.14731 0.767836,-0.44192 0.207454,-0.29461 0.311182,-0.88384 0.311186,-1.76768 -4e-6,-0.88875 -0.103732,-1.4792 -0.311186,-1.77136 -0.207459,-0.29215 -0.465859,-0.43823 -0.775201,-0.43824 -0.304435,1e-5 -0.547491,0.1289 -0.729168,0.38668 -0.228326,0.32899 -0.342489,0.93663 -0.342488,1.82292 z"
           id="path3063"
           inkscape:connector-curvature="0" />
        <path
           d="m 64.492199,476.5785 0,-0.75495 0.754947,0 0,0.75495 c -2e-6,0.27743 -0.0491,0.50145 -0.147307,0.67209 -0.09821,0.17062 -0.254105,0.30259 -0.467699,0.39588 l -0.184133,-0.28356 c 0.139941,-0.0614 0.243055,-0.15161 0.309344,-0.27068 0.06629,-0.11907 0.103114,-0.29032 0.11048,-0.51373 z"
           id="path3065"
           inkscape:connector-curvature="0" />
        <path
           d="m 69.710536,475.9414 0,0.6371 -3.568503,0 c -0.0049,-0.15958 0.02087,-0.31303 0.07734,-0.46033 0.09084,-0.24306 0.236304,-0.48243 0.436396,-0.71812 0.200091,-0.23569 0.489179,-0.50821 0.867268,-0.81756 0.586769,-0.4812 0.983269,-0.86235 1.189501,-1.14346 0.206226,-0.28111 0.309341,-0.54688 0.309344,-0.7973 -3e-6,-0.26269 -0.09391,-0.48427 -0.281724,-0.66472 -0.187819,-0.18045 -0.432716,-0.27067 -0.734692,-0.27068 -0.319166,1e-5 -0.574497,0.0958 -0.765995,0.28725 -0.191499,0.1915 -0.288476,0.45665 -0.29093,0.79546 l -0.681293,-0.07 c 0.04665,-0.5082 0.222187,-0.89549 0.526621,-1.16188 0.304432,-0.26637 0.713208,-0.39956 1.226328,-0.39957 0.518025,10e-6 0.928028,0.14363 1.23001,0.43088 0.301975,0.28725 0.452964,0.64324 0.452968,1.06797 -4e-6,0.21605 -0.0442,0.42842 -0.132576,0.6371 -0.08839,0.20869 -0.23508,0.42842 -0.440079,0.6592 -0.205004,0.23078 -0.545651,0.54749 -1.021939,0.95013 -0.39773,0.33389 -0.653061,0.56038 -0.765995,0.67945 -0.112936,0.11907 -0.20623,0.23876 -0.279882,0.35906 z"
           id="path3067"
           inkscape:connector-curvature="0" />
        <path
           d="m 70.796924,476.5785 0,-0.75495 0.754946,0 0,0.75495 z"
           id="path3070"
           inkscape:connector-curvature="0" />
        <path
           d="m 72.52041,475.15331 0.66288,-0.0884 c 0.07611,0.37564 0.205615,0.64631 0.388521,0.81203 0.182905,0.16572 0.405706,0.24858 0.668404,0.24858 0.311797,0 0.575107,-0.10802 0.789932,-0.32407 0.214819,-0.21605 0.32223,-0.48366 0.322233,-0.80283 -3e-6,-0.30443 -0.09943,-0.55546 -0.298296,-0.7531 -0.198866,-0.19763 -0.451742,-0.29645 -0.758629,-0.29645 -0.125212,0 -0.281112,0.0246 -0.467698,0.0737 l 0.07365,-0.58186 c 0.04419,0.005 0.07979,0.007 0.106797,0.007 0.282336,1e-5 0.53644,-0.0737 0.762312,-0.22096 0.225868,-0.1473 0.338803,-0.3744 0.338805,-0.68129 -2e-6,-0.24305 -0.08225,-0.44437 -0.246738,-0.60396 -0.164495,-0.15958 -0.376862,-0.23937 -0.637101,-0.23937 -0.257789,0 -0.472611,0.081 -0.644467,0.24305 -0.171859,0.16205 -0.282339,0.4051 -0.33144,0.72917 l -0.66288,-0.11784 c 0.08102,-0.44437 0.265152,-0.7887 0.5524,-1.03299 0.287247,-0.24428 0.644465,-0.36642 1.071656,-0.36643 0.294611,1e-5 0.5659,0.0632 0.813869,0.18966 0.247963,0.12644 0.43762,0.29892 0.568972,0.51742 0.131345,0.21851 0.197019,0.45051 0.197023,0.69602 -4e-6,0.23324 -0.06261,0.44561 -0.187816,0.6371 -0.125214,0.1915 -0.310575,0.34372 -0.556083,0.45665 0.319161,0.0737 0.567127,0.22649 0.743899,0.45849 0.176764,0.23201 0.265148,0.52233 0.265152,0.87095 -4e-6,0.47139 -0.171862,0.87096 -0.515574,1.19871 -0.343718,0.32776 -0.778272,0.49164 -1.303663,0.49164 -0.473838,0 -0.867269,-0.14117 -1.180295,-0.42351 -0.313027,-0.28234 -0.491636,-0.64815 -0.535828,-1.09743 z"
           id="path3072"
           inkscape:connector-curvature="0" />
        <path
           d="m 76.718651,475.15331 0.662879,-0.0884 c 0.07611,0.37564 0.205615,0.64631 0.388522,0.81203 0.182904,0.16572 0.405705,0.24858 0.668404,0.24858 0.311796,0 0.575107,-0.10802 0.789931,-0.32407 0.21482,-0.21605 0.322231,-0.48366 0.322234,-0.80283 -3e-6,-0.30443 -0.09943,-0.55546 -0.298296,-0.7531 -0.198867,-0.19763 -0.451743,-0.29645 -0.758629,-0.29645 -0.125213,0 -0.281112,0.0246 -0.467699,0.0737 l 0.07365,-0.58186 c 0.04419,0.005 0.07979,0.007 0.106798,0.007 0.282335,1e-5 0.536439,-0.0737 0.762311,-0.22096 0.225868,-0.1473 0.338803,-0.3744 0.338806,-0.68129 -3e-6,-0.24305 -0.08225,-0.44437 -0.246739,-0.60396 -0.164495,-0.15958 -0.376862,-0.23937 -0.637101,-0.23937 -0.257788,0 -0.47261,0.081 -0.644467,0.24305 -0.171859,0.16205 -0.282338,0.4051 -0.33144,0.72917 l -0.662879,-0.11784 c 0.08102,-0.44437 0.265151,-0.7887 0.552399,-1.03299 0.287247,-0.24428 0.644465,-0.36642 1.071656,-0.36643 0.294611,1e-5 0.565901,0.0632 0.813869,0.18966 0.247964,0.12644 0.437621,0.29892 0.568972,0.51742 0.131345,0.21851 0.197019,0.45051 0.197023,0.69602 -4e-6,0.23324 -0.06261,0.44561 -0.187816,0.6371 -0.125214,0.1915 -0.310575,0.34372 -0.556083,0.45665 0.319162,0.0737 0.567128,0.22649 0.743899,0.45849 0.176764,0.23201 0.265148,0.52233 0.265152,0.87095 -4e-6,0.47139 -0.171861,0.87096 -0.515573,1.19871 -0.343719,0.32776 -0.778273,0.49164 -1.303664,0.49164 -0.473838,0 -0.867269,-0.14117 -1.180295,-0.42351 -0.313027,-0.28234 -0.491636,-0.64815 -0.535827,-1.09743 z"
           id="path3074"
           inkscape:connector-curvature="0" />
        <path
           d="m 56.143595,486.00612 -0.66288,0 0,-4.22401 c -0.159584,0.15222 -0.368882,0.30443 -0.627894,0.45665 -0.259016,0.15222 -0.491637,0.26638 -0.697865,0.34248 l 0,-0.64078 c 0.37072,-0.17431 0.694794,-0.38545 0.972223,-0.63342 0.277426,-0.24796 0.473835,-0.48856 0.589227,-0.7218 l 0.427189,0 z"
           id="path3076"
           inkscape:connector-curvature="0" />
        <path
           d="m 58.216936,486.00612 0,-0.75494 0.754947,0 0,0.75494 z"
           id="path3078"
           inkscape:connector-curvature="0" />
        <path
           d="m 59.936741,484.59198 0.696024,-0.0589 c 0.05156,0.3388 0.171243,0.59352 0.35906,0.76415 0.187814,0.17063 0.414298,0.25595 0.679452,0.25595 0.319162,0 0.589224,-0.1203 0.810186,-0.36091 0.220957,-0.2406 0.331437,-0.55976 0.33144,-0.95749 -3e-6,-0.37808 -0.106186,-0.67638 -0.31855,-0.89489 -0.21237,-0.2185 -0.490411,-0.32775 -0.834124,-0.32775 -0.213597,0 -0.406323,0.0485 -0.578179,0.14546 -0.171859,0.097 -0.30689,0.22281 -0.405093,0.37747 l -0.622371,-0.081 0.522939,-2.77305 2.684663,0 0,0.63342 -2.154359,0 -0.290931,1.45097 c 0.324073,-0.22587 0.664106,-0.3388 1.020099,-0.33881 0.471378,10e-6 0.869106,0.16327 1.193183,0.4898 0.324071,0.32653 0.486109,0.74635 0.486112,1.25947 -3e-6,0.48857 -0.1424,0.91085 -0.427189,1.26684 -0.346174,0.43701 -0.818782,0.65551 -1.417826,0.65551 -0.491024,0 -0.89182,-0.13749 -1.202391,-0.41246 -0.310572,-0.27497 -0.487953,-0.63955 -0.532145,-1.09375 z"
           id="path3080"
           inkscape:connector-curvature="0" />
        <path
           d="m 64.492199,486.00612 0,-0.75494 0.754947,0 0,0.75494 c -2e-6,0.27743 -0.0491,0.50146 -0.147307,0.67209 -0.09821,0.17063 -0.254105,0.30259 -0.467699,0.39589 l -0.184133,-0.28357 c 0.139941,-0.0614 0.243055,-0.1516 0.309344,-0.27067 0.06629,-0.11908 0.103114,-0.29032 0.11048,-0.51374 z"
           id="path3082"
           inkscape:connector-curvature="0" />
        <path
           d="m 66.230417,484.58093 0.66288,-0.0884 c 0.07611,0.37563 0.205614,0.64631 0.388521,0.81203 0.182904,0.16572 0.405705,0.24858 0.668404,0.24858 0.311797,0 0.575107,-0.10803 0.789932,-0.32408 0.214819,-0.21605 0.32223,-0.48365 0.322233,-0.80282 -3e-6,-0.30443 -0.09943,-0.55547 -0.298296,-0.75311 -0.198866,-0.19763 -0.451743,-0.29645 -0.758629,-0.29645 -0.125213,0 -0.281112,0.0245 -0.467699,0.0736 l 0.07365,-0.58186 c 0.04419,0.005 0.07979,0.007 0.106797,0.007 0.282336,0 0.536439,-0.0736 0.762312,-0.22096 0.225867,-0.14731 0.338802,-0.3744 0.338805,-0.6813 -3e-6,-0.24305 -0.08225,-0.44437 -0.246738,-0.60395 -0.164495,-0.15958 -0.376862,-0.23937 -0.637102,-0.23938 -0.257788,10e-6 -0.47261,0.081 -0.644466,0.24306 -0.171859,0.16204 -0.282339,0.4051 -0.33144,0.72917 l -0.66288,-0.11785 c 0.08102,-0.44437 0.265151,-0.7887 0.5524,-1.03299 0.287247,-0.24427 0.644465,-0.36642 1.071656,-0.36642 0.294611,0 0.5659,0.0632 0.813869,0.18966 0.247963,0.12644 0.43762,0.29891 0.568972,0.51741 0.131345,0.21851 0.197019,0.45052 0.197022,0.69602 -3e-6,0.23324 -0.06261,0.44561 -0.187816,0.63711 -0.125213,0.1915 -0.310574,0.34371 -0.556082,0.45665 0.319161,0.0736 0.567127,0.22648 0.743898,0.45849 0.176765,0.23201 0.265149,0.52233 0.265152,0.87095 -3e-6,0.47138 -0.171861,0.87095 -0.515573,1.19871 -0.343718,0.32775 -0.778273,0.49163 -1.303664,0.49163 -0.473838,0 -0.867269,-0.14117 -1.180294,-0.4235 -0.313027,-0.28234 -0.491636,-0.64815 -0.535828,-1.09744 z"
           id="path3084"
           inkscape:connector-curvature="0" />
        <path
           d="m 70.796924,486.00612 0,-0.75494 0.754946,0 0,0.75494 z"
           id="path3086"
           inkscape:connector-curvature="0" />
        <path
           d="m 72.516728,483.34356 c -10e-7,-0.63833 0.06567,-1.15206 0.197022,-1.5412 0.131348,-0.38913 0.326529,-0.68927 0.585544,-0.90041 0.259013,-0.21114 0.584929,-0.31671 0.977748,-0.31671 0.289701,0 0.543804,0.0583 0.762312,0.17493 0.218502,0.11662 0.398952,0.28479 0.541352,0.50452 0.142393,0.21974 0.2541,0.48734 0.335122,0.80282 0.08101,0.31549 0.121524,0.74084 0.121528,1.27605 -4e-6,0.63342 -0.06506,1.14469 -0.195181,1.53383 -0.130124,0.38913 -0.324692,0.68988 -0.583703,0.90225 -0.259017,0.21237 -0.58616,0.31855 -0.98143,0.31855 -0.520485,0 -0.929261,-0.18659 -1.226328,-0.55977 -0.355991,-0.44928 -0.533987,-1.1809 -0.533986,-2.19486 z m 0.681293,0 c -10e-7,0.88629 0.103727,1.47613 0.311185,1.76952 0.207455,0.29338 0.4634,0.44008 0.767836,0.44008 0.304431,0 0.560376,-0.14731 0.767836,-0.44192 0.207454,-0.29462 0.311182,-0.88384 0.311185,-1.76768 -3e-6,-0.88875 -0.103731,-1.4792 -0.311185,-1.77137 -0.20746,-0.29215 -0.46586,-0.43823 -0.775201,-0.43823 -0.304436,0 -0.547492,0.12889 -0.729168,0.38668 -0.228327,0.32899 -0.342489,0.93662 -0.342488,1.82292 z"
           id="path3088"
           inkscape:connector-curvature="0" />
      </g>
      <g
         style="font-size:7.54209995px;font-weight:normal;line-height:125%;fill:#000000;font-family:Sans;-inkscape-font-specification:Sans Bold"
         id="text3022-1"
         transform="matrix(2.9818206,0,0,2.9818206,-103.66231,-973.92997)">
        <path
           d="m 91.123505,445.63306 c 0,-0.63833 0.06567,-1.15206 0.197022,-1.5412 0.131348,-0.38913 0.326529,-0.68927 0.585544,-0.90041 0.259013,-0.21114 0.584929,-0.31671 0.977748,-0.31671 0.289701,0 0.543805,0.0583 0.762312,0.17493 0.218502,0.11662 0.398952,0.28479 0.541352,0.50452 0.142393,0.21974 0.2541,0.48735 0.335123,0.80282 0.08101,0.31549 0.121524,0.74084 0.121528,1.27605 -4e-6,0.63342 -0.06506,1.14469 -0.195182,1.53383 -0.130124,0.38913 -0.324691,0.68988 -0.583702,0.90225 -0.259017,0.21237 -0.58616,0.31855 -0.981431,0.31855 -0.520485,0 -0.92926,-0.18659 -1.226328,-0.55976 -0.355991,-0.44929 -0.533986,-1.18091 -0.533986,-2.19487 z m 0.681293,0 c -1e-6,0.88629 0.103727,1.47613 0.311185,1.76952 0.207456,0.29338 0.463401,0.44008 0.767836,0.44008 0.304432,0 0.560377,-0.14731 0.767836,-0.44192 0.207454,-0.29462 0.311182,-0.88384 0.311185,-1.76768 -3e-6,-0.88875 -0.103731,-1.4792 -0.311185,-1.77137 -0.207459,-0.29215 -0.46586,-0.43823 -0.775201,-0.43823 -0.304436,0 -0.547491,0.12889 -0.729168,0.38668 -0.228326,0.32899 -0.342489,0.93662 -0.342488,1.82292 z"
           id="path3091"
           inkscape:connector-curvature="0" />
        <path
           d="m 95.678963,448.29562 0,-0.75494 0.754946,0 0,0.75494 c -10e-7,0.27743 -0.0491,0.50146 -0.147306,0.67209 -0.09821,0.17063 -0.254105,0.30259 -0.467699,0.39589 l -0.184133,-0.28357 c 0.13994,-0.0614 0.243055,-0.1516 0.309344,-0.27067 0.06629,-0.11908 0.103113,-0.29032 0.11048,-0.51374 z"
           id="path3093"
           inkscape:connector-curvature="0" />
        <path
           d="m 97.413498,445.63306 c 0,-0.63833 0.06567,-1.15206 0.197023,-1.5412 0.131348,-0.38913 0.326529,-0.68927 0.585544,-0.90041 0.259012,-0.21114 0.584928,-0.31671 0.977747,-0.31671 0.289701,0 0.543805,0.0583 0.762312,0.17493 0.218506,0.11662 0.398956,0.28479 0.541356,0.50452 0.14239,0.21974 0.2541,0.48735 0.33512,0.80282 0.081,0.31549 0.12152,0.74084 0.12153,1.27605 -1e-5,0.63342 -0.0651,1.14469 -0.19518,1.53383 -0.13013,0.38913 -0.3247,0.68988 -0.58371,0.90225 -0.259014,0.21237 -0.586157,0.31855 -0.981428,0.31855 -0.520485,0 -0.92926,-0.18659 -1.226327,-0.55976 -0.355992,-0.44929 -0.533987,-1.18091 -0.533987,-2.19487 z m 0.681293,0 c -10e-7,0.88629 0.103728,1.47613 0.311186,1.76952 0.207455,0.29338 0.4634,0.44008 0.767835,0.44008 0.304432,0 0.560377,-0.14731 0.767836,-0.44192 0.207452,-0.29462 0.311182,-0.88384 0.311182,-1.76768 0,-0.88875 -0.10373,-1.4792 -0.311182,-1.77137 -0.207459,-0.29215 -0.465859,-0.43823 -0.775201,-0.43823 -0.304435,0 -0.547491,0.12889 -0.729168,0.38668 -0.228326,0.32899 -0.342489,0.93662 -0.342488,1.82292 z"
           id="path3095"
           inkscape:connector-curvature="0" />
        <path
           d="m 101.96896,445.13958 0,-0.75495 0.75494,0 0,0.75495 z m 0,3.15604 0,-0.75494 0.75494,0 0,0.75494 c 0,0.27743 -0.0491,0.50146 -0.1473,0.67209 -0.0982,0.17063 -0.25411,0.30259 -0.4677,0.39589 l -0.18414,-0.28357 c 0.13994,-0.0614 0.24306,-0.1516 0.30935,-0.27067 0.0663,-0.11908 0.10311,-0.29032 0.11048,-0.51374 z"
           id="path3097"
           inkscape:connector-curvature="0" />
        <path
           d="m 103.70349,445.63306 c 0,-0.63833 0.0657,-1.15206 0.19702,-1.5412 0.13135,-0.38913 0.32653,-0.68927 0.58555,-0.90041 0.25901,-0.21114 0.58493,-0.31671 0.97775,-0.31671 0.2897,0 0.5438,0.0583 0.76231,0.17493 0.2185,0.11662 0.39895,0.28479 0.54135,0.50452 0.14239,0.21974 0.2541,0.48735 0.33512,0.80282 0.081,0.31549 0.12153,0.74084 0.12153,1.27605 0,0.63342 -0.0651,1.14469 -0.19518,1.53383 -0.13013,0.38913 -0.32469,0.68988 -0.5837,0.90225 -0.25902,0.21237 -0.58616,0.31855 -0.98143,0.31855 -0.52049,0 -0.92926,-0.18659 -1.22633,-0.55976 -0.35599,-0.44929 -0.53399,-1.18091 -0.53399,-2.19487 z m 0.68129,0 c 0,0.88629 0.10373,1.47613 0.31119,1.76952 0.20746,0.29338 0.4634,0.44008 0.76784,0.44008 0.30443,0 0.56037,-0.14731 0.76783,-0.44192 0.20746,-0.29462 0.31118,-0.88384 0.31119,-1.76768 -10e-6,-0.88875 -0.10373,-1.4792 -0.31119,-1.77137 -0.20746,-0.29215 -0.46586,-0.43823 -0.7752,-0.43823 -0.30444,0 -0.54749,0.12889 -0.72917,0.38668 -0.22832,0.32899 -0.34249,0.93662 -0.34249,1.82292 z"
           id="path3099"
           inkscape:connector-curvature="0" />
        <path
           d="m 108.25895,448.29562 0,-0.75494 0.75495,0 0,0.75494 c 0,0.27743 -0.0491,0.50146 -0.14731,0.67209 -0.0982,0.17063 -0.2541,0.30259 -0.4677,0.39589 l -0.18413,-0.28357 c 0.13994,-0.0614 0.24305,-0.1516 0.30934,-0.27067 0.0663,-0.11908 0.10312,-0.29032 0.11048,-0.51374 z"
           id="path3101"
           inkscape:connector-curvature="0" />
        <path
           d="m 109.99348,445.63306 c 0,-0.63833 0.0657,-1.15206 0.19703,-1.5412 0.13135,-0.38913 0.32653,-0.68927 0.58554,-0.90041 0.25901,-0.21114 0.58493,-0.31671 0.97775,-0.31671 0.2897,0 0.5438,0.0583 0.76231,0.17493 0.2185,0.11662 0.39895,0.28479 0.54135,0.50452 0.1424,0.21974 0.2541,0.48735 0.33513,0.80282 0.081,0.31549 0.12152,0.74084 0.12152,1.27605 0,0.63342 -0.0651,1.14469 -0.19518,1.53383 -0.13012,0.38913 -0.32469,0.68988 -0.5837,0.90225 -0.25902,0.21237 -0.58616,0.31855 -0.98143,0.31855 -0.52049,0 -0.92926,-0.18659 -1.22633,-0.55976 -0.35599,-0.44929 -0.53399,-1.18091 -0.53399,-2.19487 z m 0.6813,0 c 0,0.88629 0.10373,1.47613 0.31118,1.76952 0.20746,0.29338 0.4634,0.44008 0.76784,0.44008 0.30443,0 0.56038,-0.14731 0.76783,-0.44192 0.20746,-0.29462 0.31119,-0.88384 0.31119,-1.76768 0,-0.88875 -0.10373,-1.4792 -0.31119,-1.77137 -0.20745,-0.29215 -0.46585,-0.43823 -0.7752,-0.43823 -0.30443,0 -0.54749,0.12889 -0.72916,0.38668 -0.22833,0.32899 -0.34249,0.93662 -0.34249,1.82292 z"
           id="path3103"
           inkscape:connector-curvature="0" />
        <path
           d="m 91.123505,455.06068 c 0,-0.63832 0.06567,-1.15206 0.197022,-1.54119 0.131348,-0.38913 0.326529,-0.68927 0.585544,-0.90042 0.259013,-0.21113 0.584929,-0.3167 0.977748,-0.31671 0.289701,10e-6 0.543805,0.0583 0.762312,0.17493 0.218502,0.11662 0.398952,0.2848 0.541352,0.50453 0.142393,0.21973 0.2541,0.48734 0.335123,0.80282 0.08101,0.31548 0.121524,0.74083 0.121528,1.27604 -4e-6,0.63342 -0.06506,1.1447 -0.195182,1.53383 -0.130124,0.38914 -0.324691,0.68989 -0.583702,0.90225 -0.259017,0.21237 -0.58616,0.31856 -0.981431,0.31856 -0.520485,0 -0.92926,-0.18659 -1.226328,-0.55977 -0.355991,-0.44928 -0.533986,-1.18091 -0.533986,-2.19487 z m 0.681293,0 c -1e-6,0.8863 0.103727,1.47614 0.311185,1.76952 0.207456,0.29339 0.463401,0.44008 0.767836,0.44008 0.304432,0 0.560377,-0.14731 0.767836,-0.44192 0.207454,-0.29461 0.311182,-0.88384 0.311185,-1.76768 -3e-6,-0.88875 -0.103731,-1.4792 -0.311185,-1.77136 -0.207459,-0.29215 -0.46586,-0.43823 -0.775201,-0.43824 -0.304436,10e-6 -0.547491,0.1289 -0.729168,0.38668 -0.228326,0.32899 -0.342489,0.93663 -0.342488,1.82292 z"
           id="path3105"
           inkscape:connector-curvature="0" />
        <path
           d="m 95.678963,457.72325 0,-0.75495 0.754946,0 0,0.75495 c -10e-7,0.27743 -0.0491,0.50145 -0.147306,0.67209 -0.09821,0.17062 -0.254105,0.30259 -0.467699,0.39588 l -0.184133,-0.28356 c 0.13994,-0.0614 0.243055,-0.15161 0.309344,-0.27068 0.06629,-0.11907 0.103113,-0.29032 0.11048,-0.51373 z"
           id="path3107"
           inkscape:connector-curvature="0" />
        <path
           d="m 97.413498,456.3091 0.696024,-0.0589 c 0.05156,0.33881 0.171243,0.59353 0.35906,0.76416 0.187814,0.17063 0.414298,0.25594 0.679452,0.25594 0.319162,0 0.589224,-0.1203 0.810186,-0.3609 0.22096,-0.2406 0.33144,-0.55976 0.33144,-0.95749 0,-0.37809 -0.10619,-0.67638 -0.31855,-0.89489 -0.21237,-0.2185 -0.490411,-0.32776 -0.834124,-0.32776 -0.213597,0 -0.406323,0.0485 -0.578179,0.14547 -0.171859,0.097 -0.30689,0.2228 -0.405093,0.37747 l -0.622371,-0.081 0.522939,-2.77305 2.684668,0 0,0.63342 -2.154364,0 -0.290931,1.45097 c 0.324073,-0.22586 0.664106,-0.3388 1.020099,-0.3388 0.471378,0 0.869106,0.16327 1.193186,0.48979 0.32407,0.32653 0.48611,0.74636 0.48611,1.25947 0,0.48857 -0.1424,0.91085 -0.42719,1.26684 -0.34617,0.43701 -0.818782,0.65552 -1.417826,0.65552 -0.491024,0 -0.89182,-0.13749 -1.202391,-0.41246 -0.310572,-0.27498 -0.487953,-0.63956 -0.532145,-1.09376 z"
           id="path3109"
           inkscape:connector-curvature="0" />
        <path
           d="m 101.96896,454.5672 0,-0.75494 0.75494,0 0,0.75494 z m 0,3.15605 0,-0.75495 0.75494,0 0,0.75495 c 0,0.27743 -0.0491,0.50145 -0.1473,0.67209 -0.0982,0.17062 -0.25411,0.30259 -0.4677,0.39588 l -0.18414,-0.28356 c 0.13994,-0.0614 0.24306,-0.15161 0.30935,-0.27068 0.0663,-0.11907 0.10311,-0.29032 0.11048,-0.51373 z"
           id="path3111"
           inkscape:connector-curvature="0" />
        <path
           d="m 106.20034,457.72325 -0.66288,0 0,-4.22402 c -0.15959,0.15222 -0.36888,0.30444 -0.6279,0.45665 -0.25901,0.15222 -0.49163,0.26638 -0.69786,0.34249 l 0,-0.64078 c 0.37072,-0.17431 0.69479,-0.38545 0.97222,-0.63342 0.27743,-0.24796 0.47384,-0.48856 0.58923,-0.72181 l 0.42719,0 z"
           id="path3113"
           inkscape:connector-curvature="0" />
        <path
           d="m 108.25895,457.72325 0,-0.75495 0.75495,0 0,0.75495 c 0,0.27743 -0.0491,0.50145 -0.14731,0.67209 -0.0982,0.17062 -0.2541,0.30259 -0.4677,0.39588 l -0.18413,-0.28356 c 0.13994,-0.0614 0.24305,-0.15161 0.30934,-0.27068 0.0663,-0.11907 0.10312,-0.29032 0.11048,-0.51373 z"
           id="path3115"
           inkscape:connector-curvature="0" />
        <path
           d="m 109.99348,455.06068 c 0,-0.63832 0.0657,-1.15206 0.19703,-1.54119 0.13135,-0.38913 0.32653,-0.68927 0.58554,-0.90042 0.25901,-0.21113 0.58493,-0.3167 0.97775,-0.31671 0.2897,10e-6 0.5438,0.0583 0.76231,0.17493 0.2185,0.11662 0.39895,0.2848 0.54135,0.50453 0.1424,0.21973 0.2541,0.48734 0.33513,0.80282 0.081,0.31548 0.12152,0.74083 0.12152,1.27604 0,0.63342 -0.0651,1.1447 -0.19518,1.53383 -0.13012,0.38914 -0.32469,0.68989 -0.5837,0.90225 -0.25902,0.21237 -0.58616,0.31856 -0.98143,0.31856 -0.52049,0 -0.92926,-0.18659 -1.22633,-0.55977 -0.35599,-0.44928 -0.53399,-1.18091 -0.53399,-2.19487 z m 0.6813,0 c 0,0.8863 0.10373,1.47614 0.31118,1.76952 0.20746,0.29339 0.4634,0.44008 0.76784,0.44008 0.30443,0 0.56038,-0.14731 0.76783,-0.44192 0.20746,-0.29461 0.31119,-0.88384 0.31119,-1.76768 0,-0.88875 -0.10373,-1.4792 -0.31119,-1.77136 -0.20745,-0.29215 -0.46585,-0.43823 -0.7752,-0.43824 -0.30443,10e-6 -0.54749,0.1289 -0.72916,0.38668 -0.22833,0.32899 -0.34249,0.93663 -0.34249,1.82292 z"
           id="path3117"
           inkscape:connector-curvature="0" />
        <path
           d="m 91.123505,464.48831 c 0,-0.63833 0.06567,-1.15206 0.197022,-1.5412 0.131348,-0.38913 0.326529,-0.68927 0.585544,-0.90041 0.259013,-0.21114 0.584929,-0.31671 0.977748,-0.31671 0.289701,0 0.543805,0.0583 0.762312,0.17493 0.218502,0.11662 0.398952,0.28479 0.541352,0.50452 0.142393,0.21974 0.2541,0.48734 0.335123,0.80282 0.08101,0.31549 0.121524,0.74084 0.121528,1.27605 -4e-6,0.63342 -0.06506,1.14469 -0.195182,1.53383 -0.130124,0.38913 -0.324691,0.68988 -0.583702,0.90225 -0.259017,0.21237 -0.58616,0.31855 -0.981431,0.31855 -0.520485,0 -0.92926,-0.18659 -1.226328,-0.55976 -0.355991,-0.44929 -0.533986,-1.18091 -0.533986,-2.19487 z m 0.681293,0 c -1e-6,0.88629 0.103727,1.47613 0.311185,1.76952 0.207456,0.29338 0.463401,0.44008 0.767836,0.44008 0.304432,0 0.560377,-0.14731 0.767836,-0.44192 0.207454,-0.29462 0.311182,-0.88384 0.311185,-1.76768 -3e-6,-0.88875 -0.103731,-1.4792 -0.311185,-1.77137 -0.207459,-0.29215 -0.46586,-0.43823 -0.775201,-0.43823 -0.304436,0 -0.547491,0.12889 -0.729168,0.38668 -0.228326,0.32899 -0.342489,0.93662 -0.342488,1.82292 z"
           id="path3119"
           inkscape:connector-curvature="0" />
        <path
           d="m 95.678963,467.15087 0,-0.75494 0.754946,0 0,0.75494 c -10e-7,0.27743 -0.0491,0.50146 -0.147306,0.67209 -0.09821,0.17063 -0.254105,0.30259 -0.467699,0.39589 l -0.184133,-0.28357 c 0.13994,-0.0614 0.243055,-0.1516 0.309344,-0.27067 0.06629,-0.11908 0.103113,-0.29032 0.11048,-0.51374 z"
           id="path3121"
           inkscape:connector-curvature="0" />
        <path
           d="m 97.51293,465.90245 0.637101,-0.0589 c 0.05401,0.29952 0.157126,0.5168 0.309344,0.65183 0.152216,0.13503 0.347397,0.20255 0.585544,0.20255 0.203772,0 0.382381,-0.0466 0.535828,-0.13995 0.153442,-0.0933 0.279266,-0.21789 0.377473,-0.37379 0.0982,-0.15589 0.18045,-0.36642 0.24674,-0.63157 0.0663,-0.26515 0.0994,-0.53522 0.0994,-0.81019 0,-0.0295 -0.001,-0.0736 -0.004,-0.13258 -0.13258,0.21115 -0.313645,0.38239 -0.543195,0.51374 -0.229555,0.13135 -0.478135,0.19702 -0.74574,0.19702 -0.446831,0 -0.824918,-0.16204 -1.134261,-0.48611 -0.309344,-0.32408 -0.464016,-0.75126 -0.464016,-1.28157 0,-0.54749 0.161423,-0.98818 0.484271,-1.32208 0.322846,-0.33389 0.727325,-0.50084 1.213438,-0.50084 0.351079,0 0.672084,0.0945 0.963013,0.28356 0.29093,0.18905 0.51189,0.4585 0.66288,0.80835 0.15099,0.34986 0.22648,0.85622 0.22649,1.5191 -1e-5,0.68989 -0.0749,1.23922 -0.22464,1.64799 -0.14977,0.40878 -0.37257,0.71996 -0.66841,0.93356 -0.295842,0.21359 -0.642626,0.32039 -1.040352,0.32039 -0.42228,0 -0.767223,-0.11723 -1.034829,-0.35169 -0.267607,-0.23447 -0.428417,-0.56407 -0.482429,-0.9888 z m 2.71412,-2.38269 c 0,-0.38053 -0.10127,-0.68251 -0.303815,-0.90593 -0.202549,-0.22341 -0.446219,-0.33512 -0.731009,-0.33512 -0.294615,0 -0.551174,0.1203 -0.769677,0.3609 -0.218506,0.2406 -0.327759,0.5524 -0.327758,0.93539 -10e-7,0.34372 0.103728,0.62299 0.311186,0.83781 0.207455,0.21483 0.4634,0.32224 0.767835,0.32223 0.306887,10e-6 0.559149,-0.1074 0.756788,-0.32223 0.19763,-0.21482 0.29645,-0.5125 0.29645,-0.89305 z"
           id="path3123"
           inkscape:connector-curvature="0" />
        <path
           d="m 101.96896,463.99483 0,-0.75495 0.75494,0 0,0.75495 z m 0,3.15604 0,-0.75494 0.75494,0 0,0.75494 c 0,0.27743 -0.0491,0.50146 -0.1473,0.67209 -0.0982,0.17063 -0.25411,0.30259 -0.4677,0.39589 l -0.18414,-0.28357 c 0.13994,-0.0614 0.24306,-0.1516 0.30935,-0.27067 0.0663,-0.11908 0.10311,-0.29032 0.11048,-0.51374 z"
           id="path3125"
           inkscape:connector-curvature="0" />
        <path
           d="m 106.20034,467.15087 -0.66288,0 0,-4.22401 c -0.15959,0.15222 -0.36888,0.30443 -0.6279,0.45665 -0.25901,0.15222 -0.49163,0.26638 -0.69786,0.34248 l 0,-0.64078 c 0.37072,-0.17431 0.69479,-0.38545 0.97222,-0.63342 0.27743,-0.24796 0.47384,-0.48856 0.58923,-0.7218 l 0.42719,0 z"
           id="path3127"
           inkscape:connector-curvature="0" />
        <path
           d="m 108.25895,467.15087 0,-0.75494 0.75495,0 0,0.75494 c 0,0.27743 -0.0491,0.50146 -0.14731,0.67209 -0.0982,0.17063 -0.2541,0.30259 -0.4677,0.39589 l -0.18413,-0.28357 c 0.13994,-0.0614 0.24305,-0.1516 0.30934,-0.27067 0.0663,-0.11908 0.10312,-0.29032 0.11048,-0.51374 z"
           id="path3129"
           inkscape:connector-curvature="0" />
        <path
           d="m 113.47729,466.51377 0,0.6371 -3.56851,0 c -0.005,-0.15958 0.0209,-0.31302 0.0773,-0.46033 0.0908,-0.24305 0.2363,-0.48243 0.4364,-0.71812 0.20009,-0.23569 0.48917,-0.50821 0.86726,-0.81755 0.58677,-0.4812 0.98327,-0.86236 1.1895,-1.14347 0.20623,-0.28111 0.30935,-0.54687 0.30935,-0.7973 0,-0.26269 -0.0939,-0.48426 -0.28173,-0.66472 -0.18781,-0.18044 -0.43271,-0.27067 -0.73469,-0.27067 -0.31916,0 -0.5745,0.0958 -0.76599,0.28724 -0.1915,0.19151 -0.28848,0.45666 -0.29093,0.79546 l -0.6813,-0.07 c 0.0466,-0.5082 0.22219,-0.8955 0.52663,-1.16188 0.30443,-0.26638 0.7132,-0.39957 1.22632,-0.39957 0.51803,0 0.92803,0.14363 1.23001,0.43087 0.30198,0.28725 0.45297,0.64324 0.45297,1.06797 0,0.21606 -0.0442,0.42842 -0.13257,0.63711 -0.0884,0.20868 -0.23508,0.42842 -0.44008,0.65919 -0.20501,0.23079 -0.54565,0.54749 -1.02194,0.95013 -0.39773,0.3339 -0.65306,0.56038 -0.766,0.67945 -0.11293,0.11908 -0.20623,0.23876 -0.27988,0.35906 z"
           id="path3131"
           inkscape:connector-curvature="0" />
        <path
           d="m 117.67553,466.51377 0,0.6371 -3.56851,0 c -0.005,-0.15958 0.0209,-0.31302 0.0773,-0.46033 0.0908,-0.24305 0.2363,-0.48243 0.4364,-0.71812 0.20009,-0.23569 0.48918,-0.50821 0.86726,-0.81755 0.58677,-0.4812 0.98327,-0.86236 1.1895,-1.14347 0.20623,-0.28111 0.30935,-0.54687 0.30935,-0.7973 0,-0.26269 -0.0939,-0.48426 -0.28173,-0.66472 -0.18781,-0.18044 -0.43271,-0.27067 -0.73469,-0.27067 -0.31916,0 -0.57449,0.0958 -0.76599,0.28724 -0.1915,0.19151 -0.28848,0.45666 -0.29093,0.79546 l -0.6813,-0.07 c 0.0466,-0.5082 0.22219,-0.8955 0.52663,-1.16188 0.30443,-0.26638 0.7132,-0.39957 1.22632,-0.39957 0.51803,0 0.92803,0.14363 1.23001,0.43087 0.30198,0.28725 0.45297,0.64324 0.45297,1.06797 0,0.21606 -0.0442,0.42842 -0.13257,0.63711 -0.0884,0.20868 -0.23508,0.42842 -0.44008,0.65919 -0.20501,0.23079 -0.54565,0.54749 -1.02194,0.95013 -0.39773,0.3339 -0.65306,0.56038 -0.766,0.67945 -0.11293,0.11908 -0.20623,0.23876 -0.27988,0.35906 z"
           id="path3133"
           inkscape:connector-curvature="0" />
        <path
           d="m 93.620352,476.5785 -0.66288,0 0,-4.22402 c -0.159584,0.15222 -0.368882,0.30444 -0.627894,0.45665 -0.259016,0.15222 -0.491637,0.26638 -0.697865,0.34249 l 0,-0.64078 c 0.37072,-0.17431 0.694795,-0.38545 0.972224,-0.63342 0.277425,-0.24796 0.473834,-0.48857 0.589226,-0.72181 l 0.427189,0 z"
           id="path3135"
           inkscape:connector-curvature="0" />
        <path
           d="m 95.678963,476.5785 0,-0.75495 0.754946,0 0,0.75495 c -10e-7,0.27743 -0.0491,0.50145 -0.147306,0.67209 -0.09821,0.17062 -0.254105,0.30259 -0.467699,0.39588 l -0.184133,-0.28356 c 0.13994,-0.0614 0.243055,-0.15161 0.309344,-0.27068 0.06629,-0.11907 0.103113,-0.29032 0.11048,-0.51373 z"
           id="path3137"
           inkscape:connector-curvature="0" />
        <path
           d="m 97.413498,473.91593 c 0,-0.63832 0.06567,-1.15206 0.197023,-1.54119 0.131348,-0.38914 0.326529,-0.68927 0.585544,-0.90042 0.259012,-0.21113 0.584928,-0.3167 0.977747,-0.31671 0.289701,1e-5 0.543805,0.0583 0.762312,0.17493 0.218506,0.11662 0.398956,0.2848 0.541356,0.50453 0.14239,0.21973 0.2541,0.48734 0.33512,0.80282 0.081,0.31548 0.12152,0.74083 0.12153,1.27604 -1e-5,0.63342 -0.0651,1.1447 -0.19518,1.53383 -0.13013,0.38914 -0.3247,0.68989 -0.58371,0.90225 -0.259014,0.21237 -0.586157,0.31856 -0.981428,0.31856 -0.520485,0 -0.92926,-0.18659 -1.226327,-0.55977 -0.355992,-0.44928 -0.533987,-1.18091 -0.533987,-2.19487 z m 0.681293,0 c -10e-7,0.8863 0.103728,1.47614 0.311186,1.76952 0.207455,0.29339 0.4634,0.44008 0.767835,0.44008 0.304432,0 0.560377,-0.14731 0.767836,-0.44192 0.207452,-0.29461 0.311182,-0.88384 0.311182,-1.76768 0,-0.88875 -0.10373,-1.4792 -0.311182,-1.77136 -0.207459,-0.29215 -0.465859,-0.43823 -0.775201,-0.43824 -0.304435,1e-5 -0.547491,0.1289 -0.729168,0.38668 -0.228326,0.32899 -0.342489,0.93663 -0.342488,1.82292 z"
           id="path3139"
           inkscape:connector-curvature="0" />
        <path
           d="m 101.96896,473.42245 0,-0.75494 0.75494,0 0,0.75494 z m 0,3.15605 0,-0.75495 0.75494,0 0,0.75495 c 0,0.27743 -0.0491,0.50145 -0.1473,0.67209 -0.0982,0.17062 -0.25411,0.30259 -0.4677,0.39588 l -0.18414,-0.28356 c 0.13994,-0.0614 0.24306,-0.15161 0.30935,-0.27068 0.0663,-0.11907 0.10311,-0.29032 0.11048,-0.51373 z"
           id="path3141"
           inkscape:connector-curvature="0" />
        <path
           d="m 107.18729,475.9414 0,0.6371 -3.5685,0 c -0.005,-0.15958 0.0209,-0.31303 0.0773,-0.46033 0.0908,-0.24306 0.2363,-0.48243 0.43639,-0.71812 0.20009,-0.23569 0.48918,-0.50821 0.86727,-0.81756 0.58677,-0.4812 0.98327,-0.86235 1.1895,-1.14346 0.20623,-0.28111 0.30934,-0.54688 0.30934,-0.7973 0,-0.26269 -0.0939,-0.48427 -0.28172,-0.66472 -0.18782,-0.18045 -0.43271,-0.27067 -0.73469,-0.27068 -0.31917,1e-5 -0.5745,0.0958 -0.766,0.28725 -0.1915,0.1915 -0.28847,0.45665 -0.29093,0.79546 l -0.68129,-0.07 c 0.0466,-0.5082 0.22219,-0.89549 0.52662,-1.16188 0.30443,-0.26637 0.71321,-0.39956 1.22633,-0.39957 0.51803,10e-6 0.92803,0.14363 1.23001,0.43088 0.30198,0.28725 0.45296,0.64324 0.45297,1.06797 -1e-5,0.21605 -0.0442,0.42842 -0.13258,0.6371 -0.0884,0.20869 -0.23508,0.42842 -0.44008,0.6592 -0.205,0.23078 -0.54565,0.54749 -1.02194,0.95013 -0.39773,0.33389 -0.65306,0.56038 -0.76599,0.67945 -0.11294,0.11907 -0.20623,0.23876 -0.27988,0.35906 z"
           id="path3143"
           inkscape:connector-curvature="0" />
        <path
           d="m 108.25895,476.5785 0,-0.75495 0.75495,0 0,0.75495 c 0,0.27743 -0.0491,0.50145 -0.14731,0.67209 -0.0982,0.17062 -0.2541,0.30259 -0.4677,0.39588 l -0.18413,-0.28356 c 0.13994,-0.0614 0.24305,-0.15161 0.30934,-0.27068 0.0663,-0.11907 0.10312,-0.29032 0.11048,-0.51373 z"
           id="path3145"
           inkscape:connector-curvature="0" />
        <path
           d="m 109.99717,475.15331 0.66288,-0.0884 c 0.0761,0.37564 0.20561,0.64631 0.38852,0.81203 0.1829,0.16572 0.4057,0.24858 0.6684,0.24858 0.3118,0 0.57511,-0.10802 0.78993,-0.32407 0.21482,-0.21605 0.32223,-0.48366 0.32224,-0.80283 -10e-6,-0.30443 -0.0994,-0.55546 -0.2983,-0.7531 -0.19887,-0.19763 -0.45174,-0.29645 -0.75863,-0.29645 -0.12521,0 -0.28111,0.0246 -0.4677,0.0737 l 0.0737,-0.58186 c 0.0442,0.005 0.0798,0.007 0.10679,0.007 0.28234,1e-5 0.53644,-0.0737 0.76232,-0.22096 0.22586,-0.1473 0.3388,-0.3744 0.3388,-0.68129 0,-0.24305 -0.0823,-0.44437 -0.24674,-0.60396 -0.16449,-0.15958 -0.37686,-0.23937 -0.6371,-0.23937 -0.25779,0 -0.47261,0.081 -0.64446,0.24305 -0.17186,0.16205 -0.28234,0.4051 -0.33144,0.72917 l -0.66288,-0.11784 c 0.081,-0.44437 0.26515,-0.7887 0.5524,-1.03299 0.28724,-0.24428 0.64446,-0.36642 1.07165,-0.36643 0.29461,1e-5 0.5659,0.0632 0.81387,0.18966 0.24796,0.12644 0.43762,0.29892 0.56897,0.51742 0.13135,0.21851 0.19702,0.45051 0.19702,0.69602 0,0.23324 -0.0626,0.44561 -0.18781,0.6371 -0.12522,0.1915 -0.31058,0.34372 -0.55608,0.45665 0.31916,0.0737 0.56712,0.22649 0.74389,0.45849 0.17677,0.23201 0.26515,0.52233 0.26516,0.87095 -1e-5,0.47139 -0.17186,0.87096 -0.51558,1.19871 -0.34372,0.32776 -0.77827,0.49164 -1.30366,0.49164 -0.47384,0 -0.86727,-0.14117 -1.18029,-0.42351 -0.31303,-0.28234 -0.49164,-0.64815 -0.53583,-1.09743 z"
           id="path3147"
           inkscape:connector-curvature="0" />
        <path
           d="m 114.19541,475.15331 0.66288,-0.0884 c 0.0761,0.37564 0.20561,0.64631 0.38852,0.81203 0.1829,0.16572 0.4057,0.24858 0.6684,0.24858 0.3118,0 0.57511,-0.10802 0.78993,-0.32407 0.21482,-0.21605 0.32223,-0.48366 0.32224,-0.80283 -10e-6,-0.30443 -0.0994,-0.55546 -0.2983,-0.7531 -0.19886,-0.19763 -0.45174,-0.29645 -0.75863,-0.29645 -0.12521,0 -0.28111,0.0246 -0.4677,0.0737 l 0.0737,-0.58186 c 0.0442,0.005 0.0798,0.007 0.10679,0.007 0.28234,1e-5 0.53644,-0.0737 0.76232,-0.22096 0.22586,-0.1473 0.3388,-0.3744 0.3388,-0.68129 0,-0.24305 -0.0822,-0.44437 -0.24674,-0.60396 -0.16449,-0.15958 -0.37686,-0.23937 -0.6371,-0.23937 -0.25779,0 -0.47261,0.081 -0.64446,0.24305 -0.17186,0.16205 -0.28234,0.4051 -0.33144,0.72917 l -0.66288,-0.11784 c 0.081,-0.44437 0.26515,-0.7887 0.5524,-1.03299 0.28724,-0.24428 0.64446,-0.36642 1.07165,-0.36643 0.29461,1e-5 0.5659,0.0632 0.81387,0.18966 0.24796,0.12644 0.43762,0.29892 0.56897,0.51742 0.13135,0.21851 0.19702,0.45051 0.19703,0.69602 -1e-5,0.23324 -0.0626,0.44561 -0.18782,0.6371 -0.12521,0.1915 -0.31058,0.34372 -0.55608,0.45665 0.31916,0.0737 0.56712,0.22649 0.7439,0.45849 0.17676,0.23201 0.26514,0.52233 0.26515,0.87095 -1e-5,0.47139 -0.17186,0.87096 -0.51558,1.19871 -0.34371,0.32776 -0.77827,0.49164 -1.30366,0.49164 -0.47384,0 -0.86727,-0.14117 -1.18029,-0.42351 -0.31303,-0.28234 -0.49164,-0.64815 -0.53583,-1.09743 z"
           id="path3149"
           inkscape:connector-curvature="0" />
        <path
           d="m 93.620352,486.00612 -0.66288,0 0,-4.22401 c -0.159584,0.15222 -0.368882,0.30443 -0.627894,0.45665 -0.259016,0.15222 -0.491637,0.26638 -0.697865,0.34248 l 0,-0.64078 c 0.37072,-0.17431 0.694795,-0.38545 0.972224,-0.63342 0.277425,-0.24796 0.473834,-0.48856 0.589226,-0.7218 l 0.427189,0 z"
           id="path3151"
           inkscape:connector-curvature="0" />
        <path
           d="m 95.678963,486.00612 0,-0.75494 0.754946,0 0,0.75494 c -10e-7,0.27743 -0.0491,0.50146 -0.147306,0.67209 -0.09821,0.17063 -0.254105,0.30259 -0.467699,0.39589 l -0.184133,-0.28357 c 0.13994,-0.0614 0.243055,-0.1516 0.309344,-0.27067 0.06629,-0.11908 0.103113,-0.29032 0.11048,-0.51374 z"
           id="path3153"
           inkscape:connector-curvature="0" />
        <path
           d="m 97.413498,484.59198 0.696024,-0.0589 c 0.05156,0.3388 0.171243,0.59352 0.35906,0.76415 0.187814,0.17063 0.414298,0.25595 0.679452,0.25595 0.319162,0 0.589224,-0.1203 0.810186,-0.36091 0.22096,-0.2406 0.33144,-0.55976 0.33144,-0.95749 0,-0.37808 -0.10619,-0.67638 -0.31855,-0.89489 -0.21237,-0.2185 -0.490411,-0.32775 -0.834124,-0.32775 -0.213597,0 -0.406323,0.0485 -0.578179,0.14546 -0.171859,0.097 -0.30689,0.22281 -0.405093,0.37747 l -0.622371,-0.081 0.522939,-2.77305 2.684668,0 0,0.63342 -2.154364,0 -0.290931,1.45097 c 0.324073,-0.22587 0.664106,-0.3388 1.020099,-0.33881 0.471378,10e-6 0.869106,0.16327 1.193186,0.4898 0.32407,0.32653 0.48611,0.74635 0.48611,1.25947 0,0.48857 -0.1424,0.91085 -0.42719,1.26684 -0.34617,0.43701 -0.818782,0.65551 -1.417826,0.65551 -0.491024,0 -0.89182,-0.13749 -1.202391,-0.41246 -0.310572,-0.27497 -0.487953,-0.63955 -0.532145,-1.09375 z"
           id="path3155"
           inkscape:connector-curvature="0" />
        <path
           d="m 101.96896,482.85008 0,-0.75495 0.75494,0 0,0.75495 z m 0,3.15604 0,-0.75494 0.75494,0 0,0.75494 c 0,0.27743 -0.0491,0.50146 -0.1473,0.67209 -0.0982,0.17063 -0.25411,0.30259 -0.4677,0.39589 l -0.18414,-0.28357 c 0.13994,-0.0614 0.24306,-0.1516 0.30935,-0.27067 0.0663,-0.11908 0.10311,-0.29032 0.11048,-0.51374 z"
           id="path3157"
           inkscape:connector-curvature="0" />
        <path
           d="m 103.70717,484.58093 0.66288,-0.0884 c 0.0761,0.37563 0.20562,0.64631 0.38853,0.81203 0.1829,0.16572 0.4057,0.24858 0.6684,0.24858 0.3118,0 0.57511,-0.10803 0.78993,-0.32408 0.21482,-0.21605 0.32223,-0.48365 0.32223,-0.80282 0,-0.30443 -0.0994,-0.55547 -0.29829,-0.75311 -0.19887,-0.19763 -0.45174,-0.29645 -0.75863,-0.29645 -0.12521,0 -0.28111,0.0245 -0.4677,0.0736 l 0.0737,-0.58186 c 0.0442,0.005 0.0798,0.007 0.1068,0.007 0.28234,0 0.53644,-0.0736 0.76231,-0.22096 0.22587,-0.14731 0.33881,-0.3744 0.33881,-0.6813 0,-0.24305 -0.0823,-0.44437 -0.24674,-0.60395 -0.1645,-0.15958 -0.37686,-0.23937 -0.6371,-0.23938 -0.25779,10e-6 -0.47261,0.081 -0.64447,0.24306 -0.17186,0.16204 -0.28234,0.4051 -0.33144,0.72917 l -0.66288,-0.11785 c 0.081,-0.44437 0.26515,-0.7887 0.5524,-1.03299 0.28725,-0.24427 0.64447,-0.36642 1.07166,-0.36642 0.29461,0 0.5659,0.0632 0.81387,0.18966 0.24796,0.12644 0.43762,0.29891 0.56897,0.51741 0.13134,0.21851 0.19702,0.45052 0.19702,0.69602 0,0.23324 -0.0626,0.44561 -0.18781,0.63711 -0.12522,0.1915 -0.31058,0.34371 -0.55609,0.45665 0.31916,0.0736 0.56713,0.22648 0.7439,0.45849 0.17677,0.23201 0.26515,0.52233 0.26515,0.87095 0,0.47138 -0.17186,0.87095 -0.51557,1.19871 -0.34372,0.32775 -0.77827,0.49163 -1.30366,0.49163 -0.47384,0 -0.86727,-0.14117 -1.1803,-0.4235 -0.31303,-0.28234 -0.49163,-0.64815 -0.53583,-1.09744 z"
           id="path3159"
           inkscape:connector-curvature="0" />
        <path
           d="m 108.25895,486.00612 0,-0.75494 0.75495,0 0,0.75494 c 0,0.27743 -0.0491,0.50146 -0.14731,0.67209 -0.0982,0.17063 -0.2541,0.30259 -0.4677,0.39589 l -0.18413,-0.28357 c 0.13994,-0.0614 0.24305,-0.1516 0.30934,-0.27067 0.0663,-0.11908 0.10312,-0.29032 0.11048,-0.51374 z"
           id="path3161"
           inkscape:connector-curvature="0" />
        <path
           d="m 109.99348,483.34356 c 0,-0.63833 0.0657,-1.15206 0.19703,-1.5412 0.13135,-0.38913 0.32653,-0.68927 0.58554,-0.90041 0.25901,-0.21114 0.58493,-0.31671 0.97775,-0.31671 0.2897,0 0.5438,0.0583 0.76231,0.17493 0.2185,0.11662 0.39895,0.28479 0.54135,0.50452 0.1424,0.21974 0.2541,0.48734 0.33513,0.80282 0.081,0.31549 0.12152,0.74084 0.12152,1.27605 0,0.63342 -0.0651,1.14469 -0.19518,1.53383 -0.13012,0.38913 -0.32469,0.68988 -0.5837,0.90225 -0.25902,0.21237 -0.58616,0.31855 -0.98143,0.31855 -0.52049,0 -0.92926,-0.18659 -1.22633,-0.55977 -0.35599,-0.44928 -0.53399,-1.1809 -0.53399,-2.19486 z m 0.6813,0 c 0,0.88629 0.10373,1.47613 0.31118,1.76952 0.20746,0.29338 0.4634,0.44008 0.76784,0.44008 0.30443,0 0.56038,-0.14731 0.76783,-0.44192 0.20746,-0.29462 0.31119,-0.88384 0.31119,-1.76768 0,-0.88875 -0.10373,-1.4792 -0.31119,-1.77137 -0.20745,-0.29215 -0.46585,-0.43823 -0.7752,-0.43823 -0.30443,0 -0.54749,0.12889 -0.72916,0.38668 -0.22833,0.32899 -0.34249,0.93662 -0.34249,1.82292 z"
           id="path3163"
           inkscape:connector-curvature="0" />
      </g>
      <rect
         style="fill:none;stroke:#000000;stroke-width:0.69662118;stroke-miterlimit:4;stroke-dasharray:none"
         id="rect3091"
         width="200.56779"
         height="206.53693"
         x="52.657162"
         y="281.79422"
         rx="0" />
      <path
         style="fill:none;stroke:#000000;stroke-width:1.2615006;stroke-linecap:butt;stroke-linejoin:miter;stroke-miterlimit:4;stroke-opacity:1;stroke-dasharray:5.04600204, 5.04600204;stroke-dashoffset:0"
         d="m 151.84617,482.84954 0,-147.75383"
         id="path3069"
         inkscape:connector-curvature="0" />
    </g>
  </g>
</svg>
