<?xml version="1.0" encoding="UTF-8" standalone="no"?>
<!-- Created with Inkscape (http://www.inkscape.org/) -->

<svg
   xmlns:dc="http://purl.org/dc/elements/1.1/"
   xmlns:cc="http://creativecommons.org/ns#"
   xmlns:rdf="http://www.w3.org/1999/02/22-rdf-syntax-ns#"
   xmlns:svg="http://www.w3.org/2000/svg"
   xmlns="http://www.w3.org/2000/svg"
   xmlns:sodipodi="http://sodipodi.sourceforge.net/DTD/sodipodi-0.dtd"
   xmlns:inkscape="http://www.inkscape.org/namespaces/inkscape"
   width="77.513542"
   height="89.566917"
   id="svg3037"
   version="1.1"
   inkscape:version="0.48.1 r9760"
   sodipodi:docname="lookuptablehelp.svg">
  <defs
     id="defs3039" />
  <sodipodi:namedview
     id="base"
     pagecolor="#ffffff"
     bordercolor="#666666"
     borderopacity="1.0"
     inkscape:pageopacity="0.0"
     inkscape:pageshadow="2"
     inkscape:zoom="7.6916389"
     inkscape:cx="38.756772"
     inkscape:cy="44.78346"
     inkscape:document-units="px"
     inkscape:current-layer="text3036"
     showgrid="false"
     inkscape:window-width="1440"
     inkscape:window-height="772"
     inkscape:window-x="0"
     inkscape:window-y="24"
     inkscape:window-maximized="1"
     fit-margin-top="5"
     fit-margin-left="5"
     fit-margin-right="5"
     fit-margin-bottom="5" />
  <metadata
     id="metadata3042">
    <rdf:RDF>
      <cc:Work
         rdf:about="">
        <dc:format>image/svg+xml</dc:format>
        <dc:type
           rdf:resource="http://purl.org/dc/dcmitype/StillImage" />
        <dc:title />
      </cc:Work>
    </rdf:RDF>
  </metadata>
  <g
     inkscape:label="Layer 1"
     inkscape:groupmode="layer"
     id="layer1"
     transform="translate(-47.299171,-416.00168)">
    <g
       style="font-size:40px;font-style:normal;font-weight:bold;line-height:125%;letter-spacing:0px;word-spacing:0px;fill:#000000;fill-opacity:1;stroke:none;font-family:Sans;-inkscape-font-specification:Sans Bold"
       id="text4022-7-5">
      <g
         style="font-weight:normal;line-height:125%;fill:#000000;font-family:Sans"
         id="text3036">
        <path
           d="m 56.676975,423.48572 c -0.34896,0.59896 -0.608075,1.19141 -0.777343,1.77734 -0.169273,0.58594 -0.253908,1.17969 -0.253907,1.78125 -10e-7,0.60157 0.08463,1.19792 0.253907,1.78906 0.171873,0.58855 0.430987,1.18099 0.777343,1.77735 l -0.625,0 c -0.390626,-0.61198 -0.683595,-1.21354 -0.878906,-1.80469 -0.192709,-0.59114 -0.289063,-1.17838 -0.289062,-1.76172 -10e-7,-0.58072 0.09635,-1.16536 0.289062,-1.7539 0.192707,-0.58854 0.485676,-1.1901 0.878906,-1.80469 l 0.625,0"
           style="font-size:8px"
           id="path3862" />
        <path
           d="m 61.8176,427.18884 0,0.35157 -3.304687,0 c 0.03125,0.49479 0.179686,0.87239 0.445312,1.13281 0.268228,0.25781 0.640623,0.38672 1.117188,0.38672 0.276038,0 0.542965,-0.0339 0.800781,-0.10157 0.260413,-0.0677 0.518225,-0.16927 0.773438,-0.30468 l 0,0.67968 c -0.257817,0.10938 -0.52214,0.19271 -0.792969,0.25 -0.270837,0.0573 -0.545576,0.0859 -0.824219,0.0859 -0.697919,0 -1.251304,-0.20312 -1.660156,-0.60937 -0.406251,-0.40625 -0.609376,-0.95573 -0.609375,-1.64844 -10e-7,-0.71614 0.192707,-1.28385 0.578125,-1.70313 0.388019,-0.42187 0.910154,-0.6328 1.566406,-0.63281 0.588538,1e-5 1.053382,0.19011 1.394531,0.57031 0.343746,0.37761 0.515621,0.89193 0.515625,1.54297 m -0.71875,-0.21093 c -0.0052,-0.39323 -0.115889,-0.70703 -0.332031,-0.94141 -0.213545,-0.23437 -0.497399,-0.35156 -0.851562,-0.35156 -0.401044,0 -0.722659,0.11328 -0.964844,0.33984 -0.239585,0.22657 -0.377606,0.54558 -0.414063,0.95703 l 2.5625,-0.004"
           style="font-size:8px"
           id="path3864" />
        <path
           d="m 66.493382,425.18103 -1.582032,2.12891 1.664063,2.24609 -0.847656,0 -1.273438,-1.71875 -1.273437,1.71875 -0.847657,0 1.699219,-2.28906 -1.554687,-2.08594 0.847656,0 1.160156,1.55859 1.160156,-1.55859 0.847657,0"
           style="font-size:8px"
           id="path3866" />
        <path
           d="m 69.579319,427.35681 c -0.580731,0 -0.983075,0.0664 -1.207031,0.19922 -0.22396,0.13281 -0.335939,0.35938 -0.335938,0.67969 -10e-7,0.25521 0.08333,0.45833 0.25,0.60937 0.169269,0.14844 0.398436,0.22266 0.6875,0.22266 0.398435,0 0.717445,-0.14063 0.957032,-0.42188 0.242184,-0.28385 0.363277,-0.66015 0.363281,-1.1289 l 0,-0.16016 -0.714844,0 m 1.433594,-0.29687 0,2.49609 -0.71875,0 0,-0.66406 c -0.164066,0.26562 -0.368493,0.46224 -0.613281,0.58984 -0.244795,0.125 -0.544274,0.1875 -0.898438,0.1875 -0.447918,0 -0.804689,-0.125 -1.070312,-0.375 -0.263022,-0.2526 -0.394532,-0.58984 -0.394532,-1.01172 0,-0.49218 0.164062,-0.86328 0.492188,-1.11328 0.330728,-0.25 0.822915,-0.375 1.476562,-0.375 l 1.007813,0 0,-0.0703 c -4e-6,-0.33073 -0.109379,-0.58594 -0.328125,-0.76563 -0.216149,-0.18228 -0.520836,-0.27343 -0.914063,-0.27343 -0.250002,0 -0.493491,0.03 -0.730468,0.0898 -0.236981,0.0599 -0.464845,0.14974 -0.683594,0.26953 l 0,-0.66406 c 0.26302,-0.10156 0.518228,-0.17708 0.765625,-0.22656 0.247394,-0.0521 0.488279,-0.0781 0.722656,-0.0781 0.63281,1e-5 1.105465,0.16407 1.417969,0.49219 0.312496,0.32813 0.468746,0.82552 0.46875,1.49219"
           style="font-size:8px"
           id="path3868" />
        <path
           d="m 75.903538,426.02087 c 0.179683,-0.32291 0.394526,-0.56119 0.644531,-0.71484 0.249995,-0.15364 0.544265,-0.23046 0.882813,-0.23047 0.455723,1e-5 0.807285,0.16016 1.054687,0.48047 0.247389,0.31771 0.371087,0.77084 0.371094,1.35938 l 0,2.64062 -0.722656,0 0,-2.61719 c -7e-6,-0.41927 -0.07423,-0.73046 -0.222657,-0.93359 -0.148443,-0.20312 -0.375006,-0.30468 -0.679687,-0.30469 -0.372401,1e-5 -0.666672,0.1237 -0.882813,0.3711 -0.21615,0.24739 -0.324223,0.58463 -0.324218,1.01171 l 0,2.47266 -0.722657,0 0,-2.61719 c -3e-6,-0.42187 -0.07422,-0.73307 -0.222656,-0.93359 -0.148441,-0.20312 -0.377607,-0.30468 -0.6875,-0.30469 -0.36719,1e-5 -0.658856,0.12501 -0.875,0.375 -0.216147,0.2474 -0.32422,0.58334 -0.324219,1.00781 l 0,2.47266 -0.722656,0 0,-4.375 0.722656,0 0,0.67969 c 0.164061,-0.26823 0.360676,-0.46614 0.589844,-0.59375 0.229164,-0.1276 0.5013,-0.1914 0.816406,-0.19141 0.317705,1e-5 0.587236,0.0807 0.808594,0.24219 0.223954,0.16146 0.389319,0.39584 0.496094,0.70312"
           style="font-size:8px"
           id="path3870" />
        <path
           d="m 80.989475,428.89978 0,2.32031 -0.722656,0 0,-6.03906 0.722656,0 0,0.66406 c 0.15104,-0.26041 0.341144,-0.45312 0.570313,-0.57812 0.231768,-0.1276 0.50781,-0.1914 0.828125,-0.19141 0.531246,1e-5 0.962236,0.21094 1.292969,0.63281 0.333328,0.42188 0.499995,0.97657 0.5,1.66407 -5e-6,0.6875 -0.166672,1.24218 -0.5,1.66406 -0.330733,0.42187 -0.761723,0.63281 -1.292969,0.63281 -0.320315,0 -0.596357,-0.0625 -0.828125,-0.1875 -0.229169,-0.1276 -0.419273,-0.32161 -0.570313,-0.58203 m 2.445313,-1.52734 c -4e-6,-0.52865 -0.109379,-0.94271 -0.328125,-1.24219 -0.216149,-0.30208 -0.514326,-0.45312 -0.894531,-0.45313 -0.380211,10e-6 -0.67969,0.15105 -0.898438,0.45313 -0.216147,0.29948 -0.32422,0.71354 -0.324219,1.24219 -10e-7,0.52864 0.108072,0.94401 0.324219,1.24609 0.218748,0.29948 0.518227,0.44922 0.898438,0.44922 0.380205,0 0.678382,-0.14974 0.894531,-0.44922 0.218746,-0.30208 0.328121,-0.71745 0.328125,-1.24609"
           style="font-size:8px"
           id="path3872" />
        <path
           d="m 85.372288,423.47791 0.71875,0 0,6.07812 -0.71875,0 0,-6.07812"
           style="font-size:8px"
           id="path3874" />
        <path
           d="m 91.333225,427.18884 0,0.35157 -3.304687,0 c 0.03125,0.49479 0.179686,0.87239 0.445312,1.13281 0.268228,0.25781 0.640623,0.38672 1.117188,0.38672 0.276038,0 0.542965,-0.0339 0.800781,-0.10157 0.260413,-0.0677 0.518225,-0.16927 0.773438,-0.30468 l 0,0.67968 c -0.257817,0.10938 -0.52214,0.19271 -0.792969,0.25 -0.270837,0.0573 -0.545576,0.0859 -0.824219,0.0859 -0.697919,0 -1.251304,-0.20312 -1.660156,-0.60937 -0.406251,-0.40625 -0.609376,-0.95573 -0.609375,-1.64844 -10e-7,-0.71614 0.192707,-1.28385 0.578125,-1.70313 0.388019,-0.42187 0.910154,-0.6328 1.566406,-0.63281 0.588538,1e-5 1.053382,0.19011 1.394531,0.57031 0.343746,0.37761 0.515621,0.89193 0.515625,1.54297 m -0.71875,-0.21093 c -0.0052,-0.39323 -0.115889,-0.70703 -0.332031,-0.94141 -0.213545,-0.23437 -0.497399,-0.35156 -0.851562,-0.35156 -0.401044,0 -0.722659,0.11328 -0.964844,0.33984 -0.239585,0.22657 -0.377606,0.54558 -0.414063,0.95703 l 2.5625,-0.004"
           style="font-size:8px"
           id="path3876" />
        <path
           d="m 92.614475,428.56384 0.824219,0 0,0.99219 -0.824219,0 0,-0.99219"
           style="font-size:8px"
           id="path3878" />
        <path
           d="m 98.208225,425.349 0,0.67187 c -0.203128,-0.11197 -0.407555,-0.1953 -0.613281,-0.25 -0.203128,-0.0573 -0.408857,-0.0859 -0.617187,-0.0859 -0.466149,0 -0.828127,0.14844 -1.085938,0.44531 -0.257814,0.29427 -0.38672,0.70834 -0.386719,1.24219 -10e-7,0.53385 0.128905,0.94922 0.386719,1.24609 0.257811,0.29427 0.619789,0.44141 1.085938,0.44141 0.20833,0 0.414059,-0.0273 0.617187,-0.082 0.205726,-0.0573 0.410153,-0.14193 0.613281,-0.25391 l 0,0.66406 c -0.200524,0.0937 -0.408857,0.16406 -0.625,0.21094 -0.213544,0.0469 -0.441409,0.0703 -0.683593,0.0703 -0.658857,0 -1.182294,-0.20703 -1.570313,-0.62109 -0.388021,-0.41406 -0.582032,-0.97266 -0.582031,-1.67578 -10e-7,-0.71354 0.195312,-1.27474 0.585937,-1.6836 0.393228,-0.40885 0.930988,-0.61327 1.613282,-0.61328 0.221351,1e-5 0.437496,0.0234 0.648437,0.0703 0.210934,0.0443 0.415361,0.11199 0.613281,0.20313"
           style="font-size:8px"
           id="path3880" />
        <path
           d="m 102.2551,425.30994 0,0.67968 c -0.20313,-0.10416 -0.41407,-0.18228 -0.63281,-0.23437 -0.21875,-0.0521 -0.44532,-0.0781 -0.67969,-0.0781 -0.35677,10e-6 -0.625,0.0547 -0.80469,0.16407 -0.177082,0.10938 -0.265623,0.27344 -0.265622,0.49218 -10e-7,0.16667 0.0638,0.29818 0.191402,0.39454 0.12761,0.0937 0.38412,0.18359 0.76954,0.26953 l 0.24609,0.0547 c 0.51041,0.10938 0.87239,0.26433 1.08594,0.46485 0.21614,0.19792 0.32421,0.47526 0.32422,0.83203 -1e-5,0.40625 -0.16147,0.72786 -0.48438,0.96484 -0.32032,0.23698 -0.76172,0.35547 -1.32422,0.35547 -0.23438,0 -0.47917,-0.0234 -0.734373,-0.0703 -0.252606,-0.0443 -0.519532,-0.11198 -0.800782,-0.20313 l 0,-0.74218 c 0.265625,0.13802 0.527343,0.24218 0.785157,0.3125 0.257808,0.0677 0.513018,0.10156 0.765628,0.10156 0.33854,0 0.59895,-0.0573 0.78125,-0.17188 0.18229,-0.11718 0.27343,-0.28125 0.27343,-0.49218 0,-0.19531 -0.0664,-0.34505 -0.19921,-0.44922 -0.13022,-0.10417 -0.41798,-0.20443 -0.86329,-0.30078 l -0.25,-0.0586 c -0.44531,-0.0937 -0.766924,-0.23697 -0.96484,-0.42968 -0.197917,-0.19531 -0.296875,-0.46224 -0.296875,-0.80079 0,-0.41145 0.145833,-0.72916 0.4375,-0.95312 0.291666,-0.22395 0.705725,-0.33593 1.242185,-0.33594 0.26563,1e-5 0.51563,0.0195 0.75,0.0586 0.23437,0.0391 0.45052,0.0977 0.64844,0.17578"
           style="font-size:8px"
           id="path3882" />
        <path
           d="m 103.12229,425.18103 0.76172,0 1.36718,3.67188 1.36719,-3.67188 0.76172,0 -1.64062,4.375 -0.97657,0 -1.64062,-4.375"
           style="font-size:8px"
           id="path3884" />
        <path
           d="m 108.25901,423.48572 0.625,0 c 0.39062,0.61459 0.68229,1.21615 0.875,1.80469 0.19531,0.58854 0.29296,1.17318 0.29297,1.7539 -1e-5,0.58334 -0.0977,1.17058 -0.29297,1.76172 -0.19271,0.59115 -0.48438,1.19271 -0.875,1.80469 l -0.625,0 c 0.34635,-0.59636 0.60416,-1.1888 0.77343,-1.77735 0.17188,-0.59114 0.25781,-1.18749 0.25782,-1.78906 -1e-5,-0.60156 -0.0859,-1.19531 -0.25782,-1.78125 -0.16927,-0.58593 -0.42708,-1.17838 -0.77343,-1.77734"
           style="font-size:8px"
           id="path3886" />
        <path
           d="m 56.739475,444.24353 c -0.406252,10e-6 -0.712241,0.20053 -0.917968,0.60156 -0.203127,0.39844 -0.304689,0.9987 -0.304688,1.80078 -10e-7,0.79949 0.101561,1.39975 0.304688,1.80079 0.205727,0.39843 0.511716,0.59765 0.917968,0.59765 0.408851,0 0.714841,-0.19922 0.917969,-0.59765 0.205726,-0.40104 0.30859,-1.0013 0.308594,-1.80079 -4e-6,-0.80208 -0.102868,-1.40234 -0.308594,-1.80078 -0.203128,-0.40103 -0.509118,-0.60155 -0.917969,-0.60156 m 0,-0.625 c 0.653643,10e-6 1.15234,0.25912 1.496094,0.77734 0.34635,0.51563 0.519527,1.26563 0.519531,2.25 -4e-6,0.98178 -0.173181,1.73178 -0.519531,2.25 -0.343754,0.51563 -0.842451,0.77344 -1.496094,0.77344 -0.653647,0 -1.153647,-0.25781 -1.5,-0.77344 -0.34375,-0.51822 -0.515625,-1.26822 -0.515625,-2.25 0,-0.98437 0.171875,-1.73437 0.515625,-2.25 0.346353,-0.51822 0.846353,-0.77733 1.5,-0.77734"
           style="font-size:8px"
           id="path3888" />
        <path
           d="m 60.227757,445.41931 0.824218,0 0,0.99219 -0.824218,0 0,-0.99219 m 0,3.14453 0.824218,0 0,0.67188 -0.640625,1.25 -0.503906,0 0.320313,-1.25 0,-0.67188"
           style="font-size:8px"
           id="path3890" />
        <path
           d="m 64.53635,444.24353 c -0.406252,10e-6 -0.712241,0.20053 -0.917968,0.60156 -0.203127,0.39844 -0.304689,0.9987 -0.304688,1.80078 -10e-7,0.79949 0.101561,1.39975 0.304688,1.80079 0.205727,0.39843 0.511716,0.59765 0.917968,0.59765 0.408851,0 0.714841,-0.19922 0.917969,-0.59765 0.205726,-0.40104 0.30859,-1.0013 0.308594,-1.80079 -4e-6,-0.80208 -0.102868,-1.40234 -0.308594,-1.80078 -0.203128,-0.40103 -0.509118,-0.60155 -0.917969,-0.60156 m 0,-0.625 c 0.653643,10e-6 1.15234,0.25912 1.496094,0.77734 0.34635,0.51563 0.519527,1.26563 0.519531,2.25 -4e-6,0.98178 -0.173181,1.73178 -0.519531,2.25 -0.343754,0.51563 -0.842451,0.77344 -1.496094,0.77344 -0.653647,0 -1.153647,-0.25781 -1.5,-0.77344 -0.34375,-0.51822 -0.515625,-1.26822 -0.515625,-2.25 0,-0.98437 0.171875,-1.73437 0.515625,-2.25 0.346353,-0.51822 0.846353,-0.77733 1.5,-0.77734"
           style="font-size:8px"
           id="path3892" />
        <path
           d="m 55.188694,458.89197 1.289063,0 0,-4.44922 -1.402344,0.28125 0,-0.71875 1.394531,-0.28125 0.789063,0 0,5.16797 1.289062,0 0,0.66406 -3.359375,0 0,-0.66406"
           style="font-size:8px"
           id="path3894" />
        <path
           d="m 60.227757,455.41931 0.824218,0 0,0.99219 -0.824218,0 0,-0.99219 m 0,3.14453 0.824218,0 0,0.67188 -0.640625,1.25 -0.503906,0 0.320313,-1.25 0,-0.67188"
           style="font-size:8px"
           id="path3896" />
        <path
           d="m 62.985569,458.89197 1.289063,0 0,-4.44922 -1.402344,0.28125 0,-0.71875 1.394531,-0.28125 0.789063,0 0,5.16797 1.289062,0 0,0.66406 -3.359375,0 0,-0.66406"
           style="font-size:8px"
           id="path3898" />
        <path
           d="m 55.731663,468.89197 2.753906,0 0,0.66406 -3.703125,0 0,-0.66406 c 0.299478,-0.3099 0.70703,-0.72526 1.222656,-1.2461 0.518227,-0.52343 0.843748,-0.86067 0.976563,-1.01171 0.252601,-0.28386 0.428382,-0.52344 0.527344,-0.71875 0.101559,-0.19792 0.15234,-0.39193 0.152343,-0.58204 -3e-6,-0.30989 -0.109378,-0.56249 -0.328125,-0.75781 -0.216149,-0.19531 -0.4987,-0.29296 -0.847656,-0.29297 -0.247398,10e-6 -0.509116,0.043 -0.785156,0.12891 -0.273439,0.0859 -0.566407,0.21615 -0.878906,0.39062 l 0,-0.79687 c 0.317707,-0.1276 0.614582,-0.22395 0.890625,-0.28906 0.276039,-0.0651 0.528643,-0.0976 0.757812,-0.0977 0.604164,10e-6 1.085934,0.15105 1.445313,0.45313 0.35937,0.30208 0.539058,0.70573 0.539062,1.21093 -4e-6,0.23959 -0.04558,0.46745 -0.136719,0.6836 -0.08854,0.21354 -0.251306,0.46615 -0.488281,0.75781 -0.06511,0.0755 -0.272139,0.29427 -0.621094,0.65625 -0.348961,0.35938 -0.841148,0.86328 -1.476562,1.51172"
           style="font-size:8px"
           id="path3900" />
        <path
           d="m 60.227757,465.41931 0.824218,0 0,0.99219 -0.824218,0 0,-0.99219 m 0,3.14453 0.824218,0 0,0.67188 -0.640625,1.25 -0.503906,0 0.320313,-1.25 0,-0.67188"
           style="font-size:8px"
           id="path3902" />
        <path
           d="m 65.016819,464.4115 -1.992187,3.11328 1.992187,0 0,-3.11328 m -0.207031,-0.6875 0.992187,0 0,3.80078 0.832032,0 0,0.65625 -0.832032,0 0,1.375 -0.785156,0 0,-1.375 -2.632812,0 0,-0.76172 2.425781,-3.69531"
           style="font-size:8px"
           id="path3904" />
        <path
           d="m 57.4426,476.4115 c 0.377601,0.0807 0.671871,0.2487 0.882813,0.50391 0.213537,0.25521 0.320308,0.57031 0.320312,0.94531 -4e-6,0.57552 -0.197921,1.02083 -0.59375,1.33594 -0.395837,0.3151 -0.958336,0.47265 -1.6875,0.47265 -0.244793,0 -0.497397,-0.0247 -0.757812,-0.0742 -0.257814,-0.0469 -0.524741,-0.11849 -0.800781,-0.21484 l 0,-0.76172 c 0.218749,0.12761 0.458332,0.22396 0.71875,0.28906 0.260415,0.0651 0.53255,0.0977 0.816406,0.0977 0.494789,0 0.87109,-0.0977 1.128906,-0.29297 0.260413,-0.19531 0.390621,-0.47917 0.390625,-0.85156 -4e-6,-0.34375 -0.121097,-0.61198 -0.363281,-0.80469 -0.239587,-0.19531 -0.574222,-0.29297 -1.003906,-0.29297 l -0.679688,0 0,-0.64844 0.710938,0 c 0.388018,10e-6 0.684892,-0.0768 0.890625,-0.23046 0.205725,-0.15625 0.30859,-0.38021 0.308593,-0.67188 -3e-6,-0.29947 -0.106774,-0.52864 -0.320312,-0.6875 -0.210941,-0.16145 -0.514326,-0.24218 -0.910156,-0.24219 -0.216148,10e-6 -0.447919,0.0234 -0.695313,0.0703 -0.247397,0.0469 -0.519532,0.11979 -0.816406,0.21875 l 0,-0.70313 c 0.299478,-0.0833 0.579425,-0.14583 0.839844,-0.1875 0.263018,-0.0417 0.510414,-0.0625 0.742187,-0.0625 0.598955,10e-6 1.072913,0.13672 1.421875,0.41016 0.348954,0.27084 0.523433,0.63802 0.523438,1.10156 -5e-6,0.32292 -0.09245,0.59636 -0.277344,0.82031 -0.1849,0.22136 -0.447921,0.375 -0.789063,0.46094"
           style="font-size:8px"
           id="path3906" />
        <path
           d="m 60.227757,475.41931 0.824218,0 0,0.99219 -0.824218,0 0,-0.99219 m 0,3.14453 0.824218,0 0,0.67188 -0.640625,1.25 -0.503906,0 0.320313,-1.25 0,-0.67188"
           style="font-size:8px"
           id="path3908" />
        <path
           d="m 62.872288,479.43494 0,-0.71875 c 0.197915,0.0937 0.398436,0.16536 0.601562,0.21484 0.203124,0.0495 0.402342,0.0742 0.597657,0.0742 0.52083,0 0.917965,-0.17448 1.191406,-0.52344 0.276038,-0.35156 0.43359,-0.88411 0.472656,-1.59765 -0.151045,0.22396 -0.342451,0.39583 -0.574219,0.51562 -0.231774,0.11979 -0.488284,0.17969 -0.769531,0.17969 -0.583335,0 -1.045574,-0.17578 -1.386719,-0.52735 -0.338542,-0.35416 -0.507813,-0.83723 -0.507812,-1.44921 -10e-7,-0.59896 0.177082,-1.07943 0.53125,-1.44141 0.354165,-0.36197 0.825519,-0.54296 1.414062,-0.54297 0.674476,10e-6 1.188799,0.25912 1.542969,0.77734 0.356766,0.51563 0.535152,1.26563 0.535156,2.25 -4e-6,0.91928 -0.218754,1.65365 -0.65625,2.20313 -0.434899,0.54687 -1.020836,0.82031 -1.757812,0.82031 -0.197919,0 -0.398439,-0.0195 -0.601563,-0.0586 -0.203126,-0.0391 -0.414063,-0.0977 -0.632812,-0.17578 m 1.570312,-2.47266 c 0.354164,0 0.634112,-0.12109 0.839844,-0.36328 0.20833,-0.24219 0.312496,-0.57422 0.3125,-0.99609 -4e-6,-0.41927 -0.10417,-0.75 -0.3125,-0.99219 -0.205732,-0.24479 -0.48568,-0.36718 -0.839844,-0.36719 -0.354169,10e-6 -0.635418,0.1224 -0.84375,0.36719 -0.20573,0.24219 -0.308595,0.57292 -0.308593,0.99219 -2e-6,0.42187 0.102863,0.7539 0.308593,0.99609 0.208332,0.24219 0.489581,0.36328 0.84375,0.36328"
           style="font-size:8px"
           id="path3910" />
        <path
           d="m 57.219944,484.4115 -1.992187,3.11328 1.992187,0 0,-3.11328 m -0.207031,-0.6875 0.992187,0 0,3.80078 0.832032,0 0,0.65625 -0.832032,0 0,1.375 -0.785156,0 0,-1.375 -2.632812,0 0,-0.76172 2.425781,-3.69531"
           style="font-size:8px"
           id="path3912" />
        <path
           d="m 60.227757,485.41931 0.824218,0 0,0.99219 -0.824218,0 0,-0.99219 m 0,3.14453 0.824218,0 0,0.67188 -0.640625,1.25 -0.503906,0 0.320313,-1.25 0,-0.67188"
           style="font-size:8px"
           id="path3914" />
        <path
           d="m 62.985569,488.89197 1.289063,0 0,-4.44922 -1.402344,0.28125 0,-0.71875 1.394531,-0.28125 0.789063,0 0,5.16797 1.289062,0 0,0.66406 -3.359375,0 0,-0.66406"
           style="font-size:8px"
           id="path3916" />
        <path
           d="m 69.727757,486.32556 c -0.354169,0 -0.635419,0.1211 -0.84375,0.36328 -0.205731,0.24219 -0.308596,0.57422 -0.308594,0.9961 -2e-6,0.41927 0.102863,0.7513 0.308594,0.99609 0.208331,0.24219 0.489581,0.36328 0.84375,0.36328 0.354163,0 0.634111,-0.12109 0.839843,-0.36328 0.20833,-0.24479 0.312496,-0.57682 0.3125,-0.99609 -4e-6,-0.42188 -0.10417,-0.75391 -0.3125,-0.9961 -0.205732,-0.24218 -0.48568,-0.36328 -0.839843,-0.36328 m 1.566406,-2.47265 0,0.71875 c -0.197921,-0.0937 -0.398442,-0.16536 -0.601563,-0.21485 -0.200524,-0.0495 -0.399743,-0.0742 -0.597656,-0.0742 -0.520836,10e-6 -0.919273,0.17579 -1.195312,0.52735 -0.27344,0.35156 -0.429689,0.88281 -0.46875,1.59375 0.153644,-0.22656 0.346352,-0.39974 0.578125,-0.51953 0.231768,-0.1224 0.486976,-0.18359 0.765625,-0.1836 0.585934,1e-5 1.048173,0.17839 1.386718,0.53516 0.341142,0.35417 0.511714,0.83724 0.511719,1.44922 -5e-6,0.59896 -0.177088,1.07942 -0.53125,1.4414 -0.35417,0.36198 -0.825524,0.54297 -1.414062,0.54297 -0.674482,0 -1.190106,-0.25781 -1.546875,-0.77344 -0.356772,-0.51822 -0.535157,-1.26822 -0.535157,-2.25 0,-0.92187 0.218749,-1.65624 0.65625,-2.20312 0.437499,-0.54947 1.024738,-0.82421 1.761719,-0.82422 0.197913,10e-6 0.397132,0.0195 0.597656,0.0586 0.203121,0.0391 0.414059,0.0977 0.632813,0.17579"
           style="font-size:8px"
           id="path3918" />
      </g>
      <rect
         style="fill:none;stroke:#000000;stroke-width:0.25;stroke-miterlimit:4;stroke-dasharray:none"
         id="rect3091"
         width="67.263542"
         height="79.316917"
         x="52.424171"
         y="421.12668"
         rx="0" />
    </g>
  </g>
</svg>
