<?xml version="1.0" encoding="UTF-8" standalone="no"?>
<!-- Created with Inkscape (http://www.inkscape.org/) -->

<svg
   xmlns:dc="http://purl.org/dc/elements/1.1/"
   xmlns:cc="http://creativecommons.org/ns#"
   xmlns:rdf="http://www.w3.org/1999/02/22-rdf-syntax-ns#"
   xmlns:svg="http://www.w3.org/2000/svg"
   xmlns="http://www.w3.org/2000/svg"
   xmlns:sodipodi="http://sodipodi.sourceforge.net/DTD/sodipodi-0.dtd"
   xmlns:inkscape="http://www.inkscape.org/namespaces/inkscape"
   width="203.25"
   height="209.25"
   id="svg3037"
   version="1.1"
   inkscape:version="0.48.2 r9819"
   sodipodi:docname="lookuptablehelp.svg">
  <defs
     id="defs3039" />
  <sodipodi:namedview
     id="base"
     pagecolor="#ffffff"
     bordercolor="#666666"
     borderopacity="1.0"
     inkscape:pageopacity="0.0"
     inkscape:pageshadow="2"
     inkscape:zoom="1.7277585"
     inkscape:cx="-40.789945"
     inkscape:cy="88.331928"
     inkscape:document-units="px"
     inkscape:current-layer="text4022-7-5"
     showgrid="false"
     inkscape:window-width="1440"
     inkscape:window-height="838"
     inkscape:window-x="-8"
     inkscape:window-y="-8"
     inkscape:window-maximized="1"
     fit-margin-top="1"
     fit-margin-left="1"
     fit-margin-right="1"
     fit-margin-bottom="1" />
  <metadata
     id="metadata3042">
    <rdf:RDF>
      <cc:Work
         rdf:about="">
        <dc:format>image/svg+xml</dc:format>
        <dc:type
           rdf:resource="http://purl.org/dc/dcmitype/StillImage" />
        <dc:title />
      </cc:Work>
    </rdf:RDF>
  </metadata>
  <g
     inkscape:label="Layer 1"
     inkscape:groupmode="layer"
     id="layer1"
     transform="translate(-51.3125,-280.4375)">
    <g
       style="font-size:40px;font-style:normal;font-weight:bold;line-height:125%;letter-spacing:0px;word-spacing:0px;fill:#000000;fill-opacity:1;stroke:none;font-family:Sans;-inkscape-font-specification:Sans Bold"
       id="text4022-7-5">
      <path
         inkscape:connector-curvature="0"
         id="path3862"
         style="font-size:8px;font-weight:normal;line-height:125%;fill:#000000;font-family:Sans"
         d="m 64.668069,287.71945 c -0.910101,1.56209 -1.58588,3.10723 -2.027337,4.63537 -0.441472,1.52812 -0.662202,3.07666 -0.662199,4.64556 -3e-6,1.56889 0.220718,3.1242 0.662199,4.66591 0.448249,1.53498 1.124029,3.08006 2.027337,4.63539 l -1.630022,0 c -1.018765,-1.59606 -1.782839,-3.16494 -2.292216,-4.7067 -0.502592,-1.5417 -0.753888,-3.07323 -0.753885,-4.5946 -3e-6,-1.51455 0.251285,-3.0393 0.753885,-4.57425 0.502584,-1.53494 1.266658,-3.10381 2.292216,-4.70668 l 1.630022,0" />
      <path
         inkscape:connector-curvature="0"
         id="path3864"
         style="font-size:8px;font-weight:normal;line-height:125%;fill:#000000;font-family:Sans"
         d="m 78.074994,297.37731 0,0.91689 -8.618736,0 c 0.08149,1.29044 0.468627,2.27524 1.161388,2.95443 0.699547,0.67236 1.670766,1.00857 2.913665,1.00857 0.719916,0 1.416072,-0.0884 2.088465,-0.26489 0.679166,-0.17654 1.351547,-0.44148 2.017151,-0.79462 l 0,1.77262 c -0.672395,0.28526 -1.361759,0.5026 -2.06809,0.65201 -0.706352,0.14941 -1.422882,0.22404 -2.14959,0.22404 -1.820197,0 -3.263445,-0.52975 -4.329743,-1.58927 -1.059517,-1.05951 -1.589275,-2.49256 -1.589271,-4.29919 -4e-6,-1.86771 0.502586,-3.34832 1.507769,-4.44181 1.011966,-1.10027 2.373711,-1.65037 4.08524,-1.6504 1.534927,3e-5 2.747255,0.49581 3.636984,1.4874 0.896503,0.98483 1.344758,2.32619 1.344768,4.0241 m -1.874523,-0.55011 c -0.01348,-1.02555 -0.302244,-1.84394 -0.86595,-2.45523 -0.556932,-0.61124 -1.297233,-0.91687 -2.220901,-0.91687 -1.045937,0 -1.88472,0.29544 -2.516349,0.88631 -0.624844,0.5909 -0.984808,1.4229 -1.079888,2.49596 l 6.683088,-0.0115" />
      <path
         inkscape:connector-curvature="0"
         id="path3866"
         style="font-size:8px;font-weight:normal;line-height:125%;fill:#000000;font-family:Sans"
         d="m 90.269592,292.14086 -4.125995,5.55227 4.339934,5.85788 -2.210715,0 -3.32117,-4.48255 -3.321166,4.48255 -2.21072,0 4.431621,-5.96993 -4.054677,-5.44022 2.210717,0 3.025726,4.06487 3.025728,-4.06487 2.210717,0" />
      <path
         inkscape:connector-curvature="0"
         id="path3868"
         style="font-size:8px;font-weight:normal;line-height:125%;fill:#000000;font-family:Sans"
         d="m 98.317822,297.81538 c -1.514562,0 -2.563891,0.17323 -3.147979,0.51957 -0.584095,0.34638 -0.87614,0.93728 -0.876138,1.77266 -2e-6,0.66558 0.217319,1.19534 0.65201,1.58926 0.44146,0.38714 1.039131,0.58071 1.793023,0.58071 1.03913,0 1.871119,-0.3668 2.495974,-1.10029 0.631625,-0.74028 0.947428,-1.72169 0.947448,-2.94421 l 0,-0.4177 -1.864338,0 m 3.738858,-0.77424 0,6.50987 -1.87452,0 0,-1.73189 c -0.427892,0.69276 -0.96104,1.20554 -1.599461,1.53834 -0.63843,0.32599 -1.419487,0.48899 -2.343156,0.48899 -1.168185,0 -2.098655,-0.326 -2.791408,-0.978 -0.685971,-0.6588 -1.028954,-1.53833 -1.028954,-2.63862 0,-1.28359 0.427879,-2.25145 1.283643,-2.90345 0.862549,-0.65202 2.14619,-0.97802 3.850925,-0.97802 l 2.628411,0 0,-0.18339 c -2e-5,-0.86257 -0.285263,-1.52815 -0.855759,-1.9968 -0.563726,-0.47537 -1.358359,-0.7131 -2.383915,-0.7131 -0.652013,0 -1.28704,0.0783 -1.905081,0.23419 -0.618056,0.15625 -1.212332,0.39053 -1.782836,0.70295 l 0,-1.7319 c 0.685964,-0.26487 1.351556,-0.46183 1.996774,-0.59087 0.645217,-0.13597 1.273448,-0.20368 1.884711,-0.20368 1.650394,2e-5 2.883096,0.42791 3.698116,1.28366 0.815,0.85576 1.2225,2.15298 1.22251,3.89167" />
      <path
         inkscape:connector-curvature="0"
         id="path3870"
         style="font-size:8px;font-weight:normal;line-height:125%;fill:#000000;font-family:Sans"
         d="m 114.8116,294.33121 c 0.46862,-0.84215 1.02894,-1.46362 1.68096,-1.86433 0.65199,-0.40071 1.41946,-0.60106 2.3024,-0.60108 1.18854,2e-5 2.10543,0.41772 2.75067,1.2531 0.6452,0.82857 0.9678,2.01036 0.96783,3.54528 l 0,6.88683 -1.88472,0 0,-6.82571 c -2e-5,-1.09348 -0.1936,-1.90506 -0.5807,-2.43482 -0.38714,-0.52976 -0.97803,-0.79463 -1.77264,-0.79465 -0.97124,2e-5 -1.73871,0.3226 -2.30241,0.96782 -0.56373,0.6452 -0.84559,1.52474 -0.84557,2.63859 l 0,6.44877 -1.88472,0 0,-6.82571 c -1e-5,-1.10025 -0.19358,-1.91188 -0.58069,-2.43482 -0.38714,-0.52976 -0.98482,-0.79463 -1.79303,-0.79465 -0.95764,2e-5 -1.71831,0.32602 -2.28202,0.978 -0.56372,0.64521 -0.84558,1.52139 -0.84558,2.62841 l 0,6.44877 -1.88471,0 0,-11.41015 1.88471,0 0,1.77265 c 0.42788,-0.69953 0.94066,-1.2157 1.53833,-1.5485 0.59767,-0.3328 1.30741,-0.49919 2.12922,-0.49921 0.82859,2e-5 1.53153,0.21052 2.10884,0.63163 0.58408,0.4211 1.01536,1.03238 1.29383,1.83378" />
      <path
         inkscape:connector-curvature="0"
         id="path3872"
         style="font-size:8px;font-weight:normal;line-height:125%;fill:#000000;font-family:Sans"
         d="m 128.0759,301.8395 0,6.05145 -1.88471,0 0,-15.75009 1.88471,0 0,1.73189 c 0.39391,-0.67913 0.88971,-1.18174 1.4874,-1.50774 0.60444,-0.3328 1.32437,-0.49919 2.15977,-0.49921 1.38552,2e-5 2.50954,0.55014 3.3721,1.65039 0.86934,1.10028 1.30401,2.54692 1.30403,4.33995 -2e-5,1.79302 -0.43469,3.23964 -1.30403,4.33991 -0.86256,1.10027 -1.98658,1.6504 -3.3721,1.6504 -0.8354,0 -1.55533,-0.16308 -2.15977,-0.48899 -0.59769,-0.3328 -1.09349,-0.83878 -1.4874,-1.51796 m 6.37746,-3.98336 c -2e-5,-1.37873 -0.28527,-2.45862 -0.85577,-3.23967 -0.56372,-0.78785 -1.34138,-1.18174 -2.33295,-1.18177 -0.99161,3e-5 -1.77267,0.39392 -2.34317,1.18177 -0.56372,0.78105 -0.84557,1.86094 -0.84557,3.23967 0,1.3787 0.28185,2.46201 0.84557,3.24983 0.5705,0.78108 1.35156,1.17161 2.34317,1.17161 0.99157,0 1.76923,-0.39053 2.33295,-1.17161 0.5705,-0.78782 0.85575,-1.87113 0.85577,-3.24983" />
      <path
         inkscape:connector-curvature="0"
         id="path3874"
         style="font-size:8px;font-weight:normal;line-height:125%;fill:#000000;font-family:Sans"
         d="m 139.50642,287.69907 1.87453,0 0,15.85194 -1.87453,0 0,-15.85194" />
      <path
         inkscape:connector-curvature="0"
         id="path3876"
         style="font-size:8px;font-weight:normal;line-height:125%;fill:#000000;font-family:Sans"
         d="m 155.05275,297.37731 0,0.91689 -8.61874,0 c 0.0814,1.29044 0.46863,2.27524 1.16139,2.95443 0.69955,0.67236 1.67078,1.00857 2.91367,1.00857 0.71991,0 1.41607,-0.0884 2.08847,-0.26489 0.67915,-0.17654 1.35154,-0.44148 2.01714,-0.79462 l 0,1.77262 c -0.67238,0.28526 -1.36176,0.5026 -2.06809,0.65201 -0.70635,0.14941 -1.42289,0.22404 -2.14959,0.22404 -1.82018,0 -3.26344,-0.52975 -4.32974,-1.58927 -1.05952,-1.05951 -1.58928,-2.49256 -1.58928,-4.29919 0,-1.86771 0.50259,-3.34832 1.50777,-4.44181 1.01198,-1.10027 2.37372,-1.65037 4.08525,-1.6504 1.53493,3e-5 2.74726,0.49581 3.63698,1.4874 0.89651,0.98483 1.34476,2.32619 1.34477,4.0241 m -1.87452,-0.55011 c -0.013,-1.02555 -0.30224,-1.84394 -0.86596,-2.45523 -0.55693,-0.61124 -1.29722,-0.91687 -2.22089,-0.91687 -1.04594,0 -1.88473,0.29544 -2.51636,0.88631 -0.62483,0.5909 -0.9848,1.4229 -1.07988,2.49596 l 6.68309,-0.0115" />
      <path
         inkscape:connector-curvature="0"
         id="path3878"
         style="font-size:8px;font-weight:normal;line-height:125%;fill:#000000;font-family:Sans"
         d="m 158.39429,300.96336 2.1496,0 0,2.58765 -2.1496,0 0,-2.58765" />
      <path
         inkscape:connector-curvature="0"
         id="path3880"
         style="font-size:8px;font-weight:normal;line-height:125%;fill:#000000;font-family:Sans"
         d="m 172.98298,292.57895 0,1.75226 c -0.52976,-0.29202 -1.06291,-0.50936 -1.59946,-0.65202 -0.52976,-0.1494 -1.06631,-0.22404 -1.60963,-0.22404 -1.21572,0 -2.15979,0.38715 -2.83216,1.16141 -0.67239,0.76746 -1.00858,1.84736 -1.00858,3.23965 0,1.39232 0.33619,2.4756 1.00858,3.24985 0.67237,0.76746 1.61644,1.15121 2.83216,1.15121 0.54332,0 1.07987,-0.0713 1.60963,-0.21382 0.53655,-0.14941 1.0697,-0.37017 1.59946,-0.66221 l 0,1.73188 c -0.52296,0.24438 -1.06631,0.42787 -1.63002,0.55014 -0.55694,0.12219 -1.15121,0.18339 -1.78283,0.18339 -1.71833,0 -3.08347,-0.53994 -4.09544,-1.61981 -1.01196,-1.07988 -1.51795,-2.53674 -1.51794,-4.3705 -1e-5,-1.86094 0.50939,-3.32457 1.52815,-4.39088 1.02554,-1.06631 2.42803,-1.59944 4.20748,-1.59947 0.57729,3e-5 1.14101,0.0609 1.69114,0.1834 0.55012,0.11566 1.08329,0.29207 1.59946,0.52976" />
      <path
         inkscape:connector-curvature="0"
         id="path3882"
         style="font-size:8px;font-weight:normal;line-height:125%;fill:#000000;font-family:Sans"
         d="m 183.53739,292.47707 0,1.77265 c -0.52979,-0.27169 -1.07992,-0.4754 -1.65041,-0.61127 -0.57049,-0.13597 -1.1614,-0.20368 -1.77267,-0.20368 -0.93046,10e-6 -1.62999,0.14249 -2.09864,0.4279 -0.46184,0.28526 -0.69276,0.71312 -0.69276,1.28361 0,0.43468 0.16639,0.77768 0.4992,1.02898 0.3328,0.24437 1.00178,0.47882 2.00696,0.70296 l 0.64183,0.14249 c 1.33117,0.28525 2.27522,0.68935 2.83217,1.21232 0.5637,0.51617 0.84554,1.23949 0.84557,2.16996 -3e-5,1.05952 -0.42112,1.89828 -1.26329,2.51634 -0.83539,0.61806 -1.98658,0.92706 -3.45359,0.92706 -0.61127,0 -1.2497,-0.0609 -1.91527,-0.18338 -0.65882,-0.11567 -1.35496,-0.29206 -2.08847,-0.52976 l 0,-1.93563 c 0.69275,0.35995 1.37533,0.6316 2.04771,0.81501 0.67237,0.17654 1.33795,0.26487 1.99679,0.26487 0.88293,0 1.56206,-0.14938 2.03754,-0.44828 0.4754,-0.3056 0.71309,-0.73351 0.71309,-1.28361 0,-0.50937 -0.17323,-0.8999 -0.51954,-1.1716 -0.33963,-0.27167 -1.09011,-0.53314 -2.25149,-0.78442 l -0.652,-0.15292 c -1.16141,-0.24437 -2.00018,-0.61804 -2.51634,-1.12063 -0.51617,-0.50937 -0.77427,-1.20553 -0.77427,-2.08849 0,-1.07306 0.38036,-1.90167 1.14101,-2.48577 0.7607,-0.58406 1.84058,-0.87612 3.23969,-0.87613 0.69275,10e-6 1.34477,0.0507 1.95602,0.15292 0.61124,0.1019 1.17497,0.25478 1.69116,0.45843" />
      <path
         inkscape:connector-curvature="0"
         id="path3884"
         style="font-size:8px;font-weight:normal;line-height:125%;fill:#000000;font-family:Sans"
         d="m 185.79903,292.14086 1.98659,0 3.56566,9.5764 3.56567,-9.5764 1.98659,0 -4.27878,11.41015 -2.54692,0 -4.27881,-11.41015" />
      <path
         inkscape:connector-curvature="0"
         id="path3886"
         style="font-size:8px;font-weight:normal;line-height:125%;fill:#000000;font-family:Sans"
         d="m 199.19579,287.71945 1.63001,0 c 1.01873,1.60287 1.77942,3.17174 2.28203,4.70668 0.50936,1.53495 0.76404,3.0597 0.76408,4.57425 -4e-5,1.52137 -0.25481,3.0529 -0.76408,4.5946 -0.50261,1.54176 -1.2633,3.11064 -2.28203,4.7067 l -1.63001,0 c 0.90327,-1.55533 1.57566,-3.10041 2.01712,-4.63539 0.44827,-1.54171 0.67237,-3.09702 0.67241,-4.66591 -4e-5,-1.5689 -0.22405,-3.11744 -0.67241,-4.64556 -0.44146,-1.52814 -1.11385,-3.07328 -2.01712,-4.63537" />
      <text
         sodipodi:linespacing="125%"
         id="text3014"
         y="453.04404"
         x="25.19725"
         style="font-size:10px;font-style:normal;font-weight:normal;line-height:125%;letter-spacing:0px;word-spacing:0px;fill:#000000;fill-opacity:1;stroke:none;font-family:Sans"
         xml:space="preserve"><tspan
           y="453.04404"
           x="25.19725"
           id="tspan3016"
           sodipodi:role="line" /></text>
      <text
         sodipodi:linespacing="125%"
         id="text3018"
         y="445.50339"
         x="25.327261"
         style="font-size:10px;font-style:normal;font-weight:normal;line-height:125%;letter-spacing:0px;word-spacing:0px;fill:#000000;fill-opacity:1;stroke:none;font-family:Sans"
         xml:space="preserve"><tspan
           y="445.50339"
           x="25.327261"
           id="tspan3020"
           sodipodi:role="line" /></text>
      <g
         style="font-size:7.54209995px;font-weight:normal;line-height:125%;fill:#000000;font-family:Sans"
         id="text3022"
         transform="matrix(2.9818206,0,0,2.9818206,-103.66231,-973.92997)">
        <path
           d="m 53.646748,445.63306 c -1e-6,-0.63833 0.06567,-1.15206 0.197022,-1.5412 0.131348,-0.38913 0.326529,-0.68927 0.585544,-0.90041 0.259013,-0.21114 0.584929,-0.31671 0.977748,-0.31671 0.289701,0 0.543805,0.0583 0.762312,0.17493 0.218502,0.11662 0.398952,0.28479 0.541352,0.50452 0.142393,0.21974 0.2541,0.48735 0.335122,0.80282 0.08102,0.31549 0.121525,0.74084 0.121528,1.27605 -3e-6,0.63342 -0.06506,1.14469 -0.195181,1.53383 -0.130124,0.38913 -0.324692,0.68988 -0.583702,0.90225 -0.259017,0.21237 -0.586161,0.31855 -0.981431,0.31855 -0.520485,0 -0.92926,-0.18659 -1.226328,-0.55976 -0.355991,-0.44929 -0.533987,-1.18091 -0.533986,-2.19487 z m 0.681293,0 c -10e-7,0.88629 0.103727,1.47613 0.311185,1.76952 0.207456,0.29338 0.463401,0.44008 0.767836,0.44008 0.304431,0 0.560376,-0.14731 0.767836,-0.44192 0.207454,-0.29462 0.311182,-0.88384 0.311185,-1.76768 -3e-6,-0.88875 -0.103731,-1.4792 -0.311185,-1.77137 -0.20746,-0.29215 -0.46586,-0.43823 -0.775201,-0.43823 -0.304436,0 -0.547491,0.12889 -0.729168,0.38668 -0.228326,0.32899 -0.342489,0.93662 -0.342488,1.82292 z"
           id="path3015"
           inkscape:connector-curvature="0" />
        <path
           d="m 58.216936,448.29562 0,-0.75494 0.754947,0 0,0.75494 z"
           id="path3017"
           inkscape:connector-curvature="0" />
        <path
           d="m 59.936741,445.63306 c 0,-0.63833 0.06567,-1.15206 0.197023,-1.5412 0.131347,-0.38913 0.326529,-0.68927 0.585544,-0.90041 0.259012,-0.21114 0.584928,-0.31671 0.977747,-0.31671 0.289701,0 0.543805,0.0583 0.762312,0.17493 0.218502,0.11662 0.398953,0.28479 0.541352,0.50452 0.142393,0.21974 0.2541,0.48735 0.335123,0.80282 0.08102,0.31549 0.121524,0.74084 0.121528,1.27605 -4e-6,0.63342 -0.06506,1.14469 -0.195182,1.53383 -0.130124,0.38913 -0.324691,0.68988 -0.583702,0.90225 -0.259017,0.21237 -0.58616,0.31855 -0.981431,0.31855 -0.520485,0 -0.92926,-0.18659 -1.226327,-0.55976 -0.355992,-0.44929 -0.533987,-1.18091 -0.533987,-2.19487 z m 0.681293,0 c -1e-6,0.88629 0.103728,1.47613 0.311186,1.76952 0.207455,0.29338 0.4634,0.44008 0.767835,0.44008 0.304432,0 0.560377,-0.14731 0.767836,-0.44192 0.207454,-0.29462 0.311182,-0.88384 0.311186,-1.76768 -4e-6,-0.88875 -0.103732,-1.4792 -0.311186,-1.77137 -0.207459,-0.29215 -0.465859,-0.43823 -0.775201,-0.43823 -0.304435,0 -0.547491,0.12889 -0.729168,0.38668 -0.228326,0.32899 -0.342489,0.93662 -0.342488,1.82292 z"
           id="path3019"
           inkscape:connector-curvature="0" />
        <path
           d="m 64.492199,448.29562 0,-0.75494 0.754947,0 0,0.75494 c -2e-6,0.27743 -0.0491,0.50146 -0.147307,0.67209 -0.09821,0.17063 -0.254105,0.30259 -0.467699,0.39589 l -0.184133,-0.28357 c 0.139941,-0.0614 0.243055,-0.1516 0.309344,-0.27067 0.06629,-0.11908 0.103114,-0.29032 0.11048,-0.51374 z"
           id="path3021"
           inkscape:connector-curvature="0" />
        <path
           d="m 66.226734,445.63306 c 0,-0.63833 0.06567,-1.15206 0.197023,-1.5412 0.131348,-0.38913 0.326529,-0.68927 0.585544,-0.90041 0.259013,-0.21114 0.584928,-0.31671 0.977748,-0.31671 0.2897,0 0.543804,0.0583 0.762312,0.17493 0.218501,0.11662 0.398952,0.28479 0.541351,0.50452 0.142393,0.21974 0.254101,0.48735 0.335123,0.80282 0.08102,0.31549 0.121524,0.74084 0.121528,1.27605 -4e-6,0.63342 -0.06506,1.14469 -0.195181,1.53383 -0.130125,0.38913 -0.324692,0.68988 -0.583703,0.90225 -0.259017,0.21237 -0.58616,0.31855 -0.98143,0.31855 -0.520485,0 -0.929261,-0.18659 -1.226328,-0.55976 -0.355992,-0.44929 -0.533987,-1.18091 -0.533987,-2.19487 z m 0.681294,0 c -10e-7,0.88629 0.103727,1.47613 0.311185,1.76952 0.207455,0.29338 0.4634,0.44008 0.767836,0.44008 0.304431,0 0.560376,-0.14731 0.767836,-0.44192 0.207453,-0.29462 0.311182,-0.88384 0.311185,-1.76768 -3e-6,-0.88875 -0.103732,-1.4792 -0.311185,-1.77137 -0.20746,-0.29215 -0.46586,-0.43823 -0.775202,-0.43823 -0.304435,0 -0.547491,0.12889 -0.729168,0.38668 -0.228326,0.32899 -0.342488,0.93662 -0.342487,1.82292 z"
           id="path3023"
           inkscape:connector-curvature="0" />
        <path
           d="m 70.796924,448.29562 0,-0.75494 0.754946,0 0,0.75494 z"
           id="path3025"
           inkscape:connector-curvature="0" />
        <path
           d="m 72.516728,445.63306 c -10e-7,-0.63833 0.06567,-1.15206 0.197022,-1.5412 0.131348,-0.38913 0.326529,-0.68927 0.585544,-0.90041 0.259013,-0.21114 0.584929,-0.31671 0.977748,-0.31671 0.289701,0 0.543804,0.0583 0.762312,0.17493 0.218502,0.11662 0.398952,0.28479 0.541352,0.50452 0.142393,0.21974 0.2541,0.48735 0.335122,0.80282 0.08101,0.31549 0.121524,0.74084 0.121528,1.27605 -4e-6,0.63342 -0.06506,1.14469 -0.195181,1.53383 -0.130124,0.38913 -0.324692,0.68988 -0.583703,0.90225 -0.259017,0.21237 -0.58616,0.31855 -0.98143,0.31855 -0.520485,0 -0.929261,-0.18659 -1.226328,-0.55976 -0.355991,-0.44929 -0.533987,-1.18091 -0.533986,-2.19487 z m 0.681293,0 c -10e-7,0.88629 0.103727,1.47613 0.311185,1.76952 0.207455,0.29338 0.4634,0.44008 0.767836,0.44008 0.304431,0 0.560376,-0.14731 0.767836,-0.44192 0.207454,-0.29462 0.311182,-0.88384 0.311185,-1.76768 -3e-6,-0.88875 -0.103731,-1.4792 -0.311185,-1.77137 -0.20746,-0.29215 -0.46586,-0.43823 -0.775201,-0.43823 -0.304436,0 -0.547492,0.12889 -0.729168,0.38668 -0.228327,0.32899 -0.342489,0.93662 -0.342488,1.82292 z"
           id="path3027"
           inkscape:connector-curvature="0" />
        <path
           d="m 53.646748,455.06068 c -1e-6,-0.63832 0.06567,-1.15206 0.197022,-1.54119 0.131348,-0.38913 0.326529,-0.68927 0.585544,-0.90042 0.259013,-0.21113 0.584929,-0.3167 0.977748,-0.31671 0.289701,10e-6 0.543805,0.0583 0.762312,0.17493 0.218502,0.11662 0.398952,0.2848 0.541352,0.50453 0.142393,0.21973 0.2541,0.48734 0.335122,0.80282 0.08102,0.31548 0.121525,0.74083 0.121528,1.27604 -3e-6,0.63342 -0.06506,1.1447 -0.195181,1.53383 -0.130124,0.38914 -0.324692,0.68989 -0.583702,0.90225 -0.259017,0.21237 -0.586161,0.31856 -0.981431,0.31856 -0.520485,0 -0.92926,-0.18659 -1.226328,-0.55977 -0.355991,-0.44928 -0.533987,-1.18091 -0.533986,-2.19487 z m 0.681293,0 c -10e-7,0.8863 0.103727,1.47614 0.311185,1.76952 0.207456,0.29339 0.463401,0.44008 0.767836,0.44008 0.304431,0 0.560376,-0.14731 0.767836,-0.44192 0.207454,-0.29461 0.311182,-0.88384 0.311185,-1.76768 -3e-6,-0.88875 -0.103731,-1.4792 -0.311185,-1.77136 -0.20746,-0.29215 -0.46586,-0.43823 -0.775201,-0.43824 -0.304436,10e-6 -0.547491,0.1289 -0.729168,0.38668 -0.228326,0.32899 -0.342489,0.93663 -0.342488,1.82292 z"
           id="path3029"
           inkscape:connector-curvature="0" />
        <path
           d="m 58.216936,457.72325 0,-0.75495 0.754947,0 0,0.75495 z"
           id="path3031"
           inkscape:connector-curvature="0" />
        <path
           d="m 59.936741,456.3091 0.696024,-0.0589 c 0.05156,0.33881 0.171243,0.59353 0.35906,0.76416 0.187814,0.17063 0.414298,0.25594 0.679452,0.25594 0.319162,0 0.589224,-0.1203 0.810186,-0.3609 0.220957,-0.2406 0.331437,-0.55976 0.33144,-0.95749 -3e-6,-0.37809 -0.106186,-0.67638 -0.31855,-0.89489 -0.21237,-0.2185 -0.490411,-0.32776 -0.834124,-0.32776 -0.213597,0 -0.406323,0.0485 -0.578179,0.14547 -0.171859,0.097 -0.30689,0.2228 -0.405093,0.37747 l -0.622371,-0.081 0.522939,-2.77305 2.684663,0 0,0.63342 -2.154359,0 -0.290931,1.45097 c 0.324073,-0.22586 0.664106,-0.3388 1.020099,-0.3388 0.471378,0 0.869106,0.16327 1.193183,0.48979 0.324071,0.32653 0.486109,0.74636 0.486112,1.25947 -3e-6,0.48857 -0.1424,0.91085 -0.427189,1.26684 -0.346174,0.43701 -0.818782,0.65552 -1.417826,0.65552 -0.491024,0 -0.89182,-0.13749 -1.202391,-0.41246 -0.310572,-0.27498 -0.487953,-0.63956 -0.532145,-1.09376 z"
           id="path3033"
           inkscape:connector-curvature="0" />
        <path
           d="m 64.492199,457.72325 0,-0.75495 0.754947,0 0,0.75495 c -2e-6,0.27743 -0.0491,0.50145 -0.147307,0.67209 -0.09821,0.17062 -0.254105,0.30259 -0.467699,0.39588 l -0.184133,-0.28356 c 0.139941,-0.0614 0.243055,-0.15161 0.309344,-0.27068 0.06629,-0.11907 0.103114,-0.29032 0.11048,-0.51373 z"
           id="path3035"
           inkscape:connector-curvature="0" />
        <path
           d="m 68.723582,457.72325 -0.66288,0 0,-4.22402 c -0.159584,0.15222 -0.368882,0.30444 -0.627895,0.45665 -0.259015,0.15222 -0.491636,0.26638 -0.697865,0.34249 l 0,-0.64078 c 0.370721,-0.17431 0.694795,-0.38545 0.972224,-0.63342 0.277426,-0.24796 0.473834,-0.48856 0.589227,-0.72181 l 0.427189,0 z"
           id="path3037"
           inkscape:connector-curvature="0" />
        <path
           d="m 70.796924,457.72325 0,-0.75495 0.754946,0 0,0.75495 z"
           id="path3039"
           inkscape:connector-curvature="0" />
        <path
           d="m 72.516728,455.06068 c -10e-7,-0.63832 0.06567,-1.15206 0.197022,-1.54119 0.131348,-0.38913 0.326529,-0.68927 0.585544,-0.90042 0.259013,-0.21113 0.584929,-0.3167 0.977748,-0.31671 0.289701,10e-6 0.543804,0.0583 0.762312,0.17493 0.218502,0.11662 0.398952,0.2848 0.541352,0.50453 0.142393,0.21973 0.2541,0.48734 0.335122,0.80282 0.08101,0.31548 0.121524,0.74083 0.121528,1.27604 -4e-6,0.63342 -0.06506,1.1447 -0.195181,1.53383 -0.130124,0.38914 -0.324692,0.68989 -0.583703,0.90225 -0.259017,0.21237 -0.58616,0.31856 -0.98143,0.31856 -0.520485,0 -0.929261,-0.18659 -1.226328,-0.55977 -0.355991,-0.44928 -0.533987,-1.18091 -0.533986,-2.19487 z m 0.681293,0 c -10e-7,0.8863 0.103727,1.47614 0.311185,1.76952 0.207455,0.29339 0.4634,0.44008 0.767836,0.44008 0.304431,0 0.560376,-0.14731 0.767836,-0.44192 0.207454,-0.29461 0.311182,-0.88384 0.311185,-1.76768 -3e-6,-0.88875 -0.103731,-1.4792 -0.311185,-1.77136 -0.20746,-0.29215 -0.46586,-0.43823 -0.775201,-0.43824 -0.304436,10e-6 -0.547492,0.1289 -0.729168,0.38668 -0.228327,0.32899 -0.342489,0.93663 -0.342488,1.82292 z"
           id="path3041"
           inkscape:connector-curvature="0" />
        <path
           d="m 53.646748,464.48831 c -1e-6,-0.63833 0.06567,-1.15206 0.197022,-1.5412 0.131348,-0.38913 0.326529,-0.68927 0.585544,-0.90041 0.259013,-0.21114 0.584929,-0.31671 0.977748,-0.31671 0.289701,0 0.543805,0.0583 0.762312,0.17493 0.218502,0.11662 0.398952,0.28479 0.541352,0.50452 0.142393,0.21974 0.2541,0.48734 0.335122,0.80282 0.08102,0.31549 0.121525,0.74084 0.121528,1.27605 -3e-6,0.63342 -0.06506,1.14469 -0.195181,1.53383 -0.130124,0.38913 -0.324692,0.68988 -0.583702,0.90225 -0.259017,0.21237 -0.586161,0.31855 -0.981431,0.31855 -0.520485,0 -0.92926,-0.18659 -1.226328,-0.55976 -0.355991,-0.44929 -0.533987,-1.18091 -0.533986,-2.19487 z m 0.681293,0 c -10e-7,0.88629 0.103727,1.47613 0.311185,1.76952 0.207456,0.29338 0.463401,0.44008 0.767836,0.44008 0.304431,0 0.560376,-0.14731 0.767836,-0.44192 0.207454,-0.29462 0.311182,-0.88384 0.311185,-1.76768 -3e-6,-0.88875 -0.103731,-1.4792 -0.311185,-1.77137 -0.20746,-0.29215 -0.46586,-0.43823 -0.775201,-0.43823 -0.304436,0 -0.547491,0.12889 -0.729168,0.38668 -0.228326,0.32899 -0.342489,0.93662 -0.342488,1.82292 z"
           id="path3043"
           inkscape:connector-curvature="0" />
        <path
           d="m 58.216936,467.15087 0,-0.75494 0.754947,0 0,0.75494 z"
           id="path3045"
           inkscape:connector-curvature="0" />
        <path
           d="m 60.036173,465.90245 0.637101,-0.0589 c 0.05401,0.29952 0.157126,0.5168 0.309344,0.65183 0.152216,0.13503 0.347397,0.20255 0.585544,0.20255 0.203772,0 0.382381,-0.0466 0.535828,-0.13995 0.153442,-0.0933 0.279266,-0.21789 0.377473,-0.37379 0.0982,-0.15589 0.180448,-0.36642 0.246739,-0.63157 0.06628,-0.26515 0.09943,-0.53522 0.09943,-0.81019 -3e-6,-0.0295 -0.0012,-0.0736 -0.0037,-0.13258 -0.132579,0.21115 -0.313643,0.38239 -0.543193,0.51374 -0.229555,0.13135 -0.478135,0.19702 -0.74574,0.19702 -0.446832,0 -0.824918,-0.16204 -1.134261,-0.48611 -0.309344,-0.32408 -0.464016,-0.75126 -0.464016,-1.28157 0,-0.54749 0.161423,-0.98818 0.484271,-1.32208 0.322846,-0.33389 0.727325,-0.50084 1.213438,-0.50084 0.351079,0 0.672084,0.0945 0.963017,0.28356 0.290928,0.18905 0.511887,0.4585 0.66288,0.80835 0.150986,0.34986 0.22648,0.85622 0.226484,1.5191 -4e-6,0.68989 -0.07489,1.23922 -0.224643,1.64799 -0.149765,0.40878 -0.372566,0.71996 -0.668403,0.93356 -0.295844,0.21359 -0.642628,0.32039 -1.040354,0.32039 -0.42228,0 -0.767223,-0.11723 -1.034829,-0.35169 -0.267607,-0.23447 -0.428417,-0.56407 -0.482429,-0.9888 z m 2.714125,-2.38269 c -3e-6,-0.38053 -0.101276,-0.68251 -0.30382,-0.90593 -0.202549,-0.22341 -0.446219,-0.33512 -0.731009,-0.33512 -0.294615,0 -0.551174,0.1203 -0.769677,0.3609 -0.218506,0.2406 -0.327759,0.5524 -0.327758,0.93539 -1e-6,0.34372 0.103728,0.62299 0.311186,0.83781 0.207455,0.21483 0.4634,0.32224 0.767835,0.32223 0.306887,10e-6 0.559149,-0.1074 0.756788,-0.32223 0.197634,-0.21482 0.296452,-0.5125 0.296455,-0.89305 z"
           id="path3047"
           inkscape:connector-curvature="0" />
        <path
           d="m 64.492199,467.15087 0,-0.75494 0.754947,0 0,0.75494 c -2e-6,0.27743 -0.0491,0.50146 -0.147307,0.67209 -0.09821,0.17063 -0.254105,0.30259 -0.467699,0.39589 l -0.184133,-0.28357 c 0.139941,-0.0614 0.243055,-0.1516 0.309344,-0.27067 0.06629,-0.11908 0.103114,-0.29032 0.11048,-0.51374 z"
           id="path3049"
           inkscape:connector-curvature="0" />
        <path
           d="m 68.723582,467.15087 -0.66288,0 0,-4.22401 c -0.159584,0.15222 -0.368882,0.30443 -0.627895,0.45665 -0.259015,0.15222 -0.491636,0.26638 -0.697865,0.34248 l 0,-0.64078 c 0.370721,-0.17431 0.694795,-0.38545 0.972224,-0.63342 0.277426,-0.24796 0.473834,-0.48856 0.589227,-0.7218 l 0.427189,0 z"
           id="path3051"
           inkscape:connector-curvature="0" />
        <path
           d="m 70.796924,467.15087 0,-0.75494 0.754946,0 0,0.75494 z"
           id="path3053"
           inkscape:connector-curvature="0" />
        <path
           d="m 76.00053,466.51377 0,0.6371 -3.568504,0 c -0.0049,-0.15958 0.02087,-0.31302 0.07734,-0.46033 0.09084,-0.24305 0.236304,-0.48243 0.436396,-0.71812 0.200091,-0.23569 0.48918,-0.50821 0.867268,-0.81755 0.586769,-0.4812 0.983269,-0.86236 1.189501,-1.14347 0.206226,-0.28111 0.309341,-0.54687 0.309344,-0.7973 -3e-6,-0.26269 -0.09391,-0.48426 -0.281724,-0.66472 -0.187818,-0.18044 -0.432715,-0.27067 -0.734692,-0.27067 -0.319166,0 -0.574497,0.0958 -0.765994,0.28724 -0.1915,0.19151 -0.288477,0.45666 -0.290931,0.79546 l -0.681293,-0.07 c 0.04665,-0.5082 0.222187,-0.8955 0.526621,-1.16188 0.304433,-0.26638 0.713208,-0.39957 1.226328,-0.39957 0.518026,0 0.928029,0.14363 1.23001,0.43087 0.301975,0.28725 0.452965,0.64324 0.452968,1.06797 -3e-6,0.21606 -0.04419,0.42842 -0.132576,0.63711 -0.08839,0.20868 -0.23508,0.42842 -0.440078,0.65919 -0.205005,0.23079 -0.545651,0.54749 -1.02194,0.95013 -0.39773,0.3339 -0.653061,0.56038 -0.765995,0.67945 -0.112936,0.11908 -0.20623,0.23876 -0.279882,0.35906 z"
           id="path3055"
           inkscape:connector-curvature="0" />
        <path
           d="m 80.19877,466.51377 0,0.6371 -3.568503,0 c -0.0049,-0.15958 0.02087,-0.31302 0.07734,-0.46033 0.09084,-0.24305 0.236303,-0.48243 0.436395,-0.71812 0.200091,-0.23569 0.48918,-0.50821 0.867268,-0.81755 0.58677,-0.4812 0.98327,-0.86236 1.189501,-1.14347 0.206227,-0.28111 0.309341,-0.54687 0.309344,-0.7973 -3e-6,-0.26269 -0.09391,-0.48426 -0.281724,-0.66472 -0.187818,-0.18044 -0.432715,-0.27067 -0.734691,-0.27067 -0.319167,0 -0.574498,0.0958 -0.765995,0.28724 -0.1915,0.19151 -0.288476,0.45666 -0.290931,0.79546 l -0.681293,-0.07 c 0.04665,-0.5082 0.222187,-0.8955 0.526621,-1.16188 0.304433,-0.26638 0.713209,-0.39957 1.226328,-0.39957 0.518026,0 0.928029,0.14363 1.230011,0.43087 0.301975,0.28725 0.452964,0.64324 0.452968,1.06797 -4e-6,0.21606 -0.0442,0.42842 -0.132576,0.63711 -0.08839,0.20868 -0.235081,0.42842 -0.440079,0.65919 -0.205005,0.23079 -0.545651,0.54749 -1.02194,0.95013 -0.397729,0.3339 -0.653061,0.56038 -0.765994,0.67945 -0.112937,0.11908 -0.206231,0.23876 -0.279883,0.35906 z"
           id="path3057"
           inkscape:connector-curvature="0" />
        <path
           d="m 56.143595,476.5785 -0.66288,0 0,-4.22402 c -0.159584,0.15222 -0.368882,0.30444 -0.627894,0.45665 -0.259016,0.15222 -0.491637,0.26638 -0.697865,0.34249 l 0,-0.64078 c 0.37072,-0.17431 0.694794,-0.38545 0.972223,-0.63342 0.277426,-0.24796 0.473835,-0.48857 0.589227,-0.72181 l 0.427189,0 z"
           id="path3059"
           inkscape:connector-curvature="0" />
        <path
           d="m 58.216936,476.5785 0,-0.75495 0.754947,0 0,0.75495 z"
           id="path3061"
           inkscape:connector-curvature="0" />
        <path
           d="m 59.936741,473.91593 c 0,-0.63832 0.06567,-1.15206 0.197023,-1.54119 0.131347,-0.38914 0.326529,-0.68927 0.585544,-0.90042 0.259012,-0.21113 0.584928,-0.3167 0.977747,-0.31671 0.289701,1e-5 0.543805,0.0583 0.762312,0.17493 0.218502,0.11662 0.398953,0.2848 0.541352,0.50453 0.142393,0.21973 0.2541,0.48734 0.335123,0.80282 0.08102,0.31548 0.121524,0.74083 0.121528,1.27604 -4e-6,0.63342 -0.06506,1.1447 -0.195182,1.53383 -0.130124,0.38914 -0.324691,0.68989 -0.583702,0.90225 -0.259017,0.21237 -0.58616,0.31856 -0.981431,0.31856 -0.520485,0 -0.92926,-0.18659 -1.226327,-0.55977 -0.355992,-0.44928 -0.533987,-1.18091 -0.533987,-2.19487 z m 0.681293,0 c -1e-6,0.8863 0.103728,1.47614 0.311186,1.76952 0.207455,0.29339 0.4634,0.44008 0.767835,0.44008 0.304432,0 0.560377,-0.14731 0.767836,-0.44192 0.207454,-0.29461 0.311182,-0.88384 0.311186,-1.76768 -4e-6,-0.88875 -0.103732,-1.4792 -0.311186,-1.77136 -0.207459,-0.29215 -0.465859,-0.43823 -0.775201,-0.43824 -0.304435,1e-5 -0.547491,0.1289 -0.729168,0.38668 -0.228326,0.32899 -0.342489,0.93663 -0.342488,1.82292 z"
           id="path3063"
           inkscape:connector-curvature="0" />
        <path
           d="m 64.492199,476.5785 0,-0.75495 0.754947,0 0,0.75495 c -2e-6,0.27743 -0.0491,0.50145 -0.147307,0.67209 -0.09821,0.17062 -0.254105,0.30259 -0.467699,0.39588 l -0.184133,-0.28356 c 0.139941,-0.0614 0.243055,-0.15161 0.309344,-0.27068 0.06629,-0.11907 0.103114,-0.29032 0.11048,-0.51373 z"
           id="path3065"
           inkscape:connector-curvature="0" />
        <path
           d="m 69.710536,475.9414 0,0.6371 -3.568503,0 c -0.0049,-0.15958 0.02087,-0.31303 0.07734,-0.46033 0.09084,-0.24306 0.236304,-0.48243 0.436396,-0.71812 0.200091,-0.23569 0.489179,-0.50821 0.867268,-0.81756 0.586769,-0.4812 0.983269,-0.86235 1.189501,-1.14346 0.206226,-0.28111 0.309341,-0.54688 0.309344,-0.7973 -3e-6,-0.26269 -0.09391,-0.48427 -0.281724,-0.66472 -0.187819,-0.18045 -0.432716,-0.27067 -0.734692,-0.27068 -0.319166,1e-5 -0.574497,0.0958 -0.765995,0.28725 -0.191499,0.1915 -0.288476,0.45665 -0.29093,0.79546 l -0.681293,-0.07 c 0.04665,-0.5082 0.222187,-0.89549 0.526621,-1.16188 0.304432,-0.26637 0.713208,-0.39956 1.226328,-0.39957 0.518025,10e-6 0.928028,0.14363 1.23001,0.43088 0.301975,0.28725 0.452964,0.64324 0.452968,1.06797 -4e-6,0.21605 -0.0442,0.42842 -0.132576,0.6371 -0.08839,0.20869 -0.23508,0.42842 -0.440079,0.6592 -0.205004,0.23078 -0.545651,0.54749 -1.021939,0.95013 -0.39773,0.33389 -0.653061,0.56038 -0.765995,0.67945 -0.112936,0.11907 -0.20623,0.23876 -0.279882,0.35906 z"
           id="path3067"
           inkscape:connector-curvature="0" />
        <path
           d="m 70.796924,476.5785 0,-0.75495 0.754946,0 0,0.75495 z"
           id="path3070"
           inkscape:connector-curvature="0" />
        <path
           d="m 72.52041,475.15331 0.66288,-0.0884 c 0.07611,0.37564 0.205615,0.64631 0.388521,0.81203 0.182905,0.16572 0.405706,0.24858 0.668404,0.24858 0.311797,0 0.575107,-0.10802 0.789932,-0.32407 0.214819,-0.21605 0.32223,-0.48366 0.322233,-0.80283 -3e-6,-0.30443 -0.09943,-0.55546 -0.298296,-0.7531 -0.198866,-0.19763 -0.451742,-0.29645 -0.758629,-0.29645 -0.125212,0 -0.281112,0.0246 -0.467698,0.0737 l 0.07365,-0.58186 c 0.04419,0.005 0.07979,0.007 0.106797,0.007 0.282336,1e-5 0.53644,-0.0737 0.762312,-0.22096 0.225868,-0.1473 0.338803,-0.3744 0.338805,-0.68129 -2e-6,-0.24305 -0.08225,-0.44437 -0.246738,-0.60396 -0.164495,-0.15958 -0.376862,-0.23937 -0.637101,-0.23937 -0.257789,0 -0.472611,0.081 -0.644467,0.24305 -0.171859,0.16205 -0.282339,0.4051 -0.33144,0.72917 l -0.66288,-0.11784 c 0.08102,-0.44437 0.265152,-0.7887 0.5524,-1.03299 0.287247,-0.24428 0.644465,-0.36642 1.071656,-0.36643 0.294611,1e-5 0.5659,0.0632 0.813869,0.18966 0.247963,0.12644 0.43762,0.29892 0.568972,0.51742 0.131345,0.21851 0.197019,0.45051 0.197023,0.69602 -4e-6,0.23324 -0.06261,0.44561 -0.187816,0.6371 -0.125214,0.1915 -0.310575,0.34372 -0.556083,0.45665 0.319161,0.0737 0.567127,0.22649 0.743899,0.45849 0.176764,0.23201 0.265148,0.52233 0.265152,0.87095 -4e-6,0.47139 -0.171862,0.87096 -0.515574,1.19871 -0.343718,0.32776 -0.778272,0.49164 -1.303663,0.49164 -0.473838,0 -0.867269,-0.14117 -1.180295,-0.42351 -0.313027,-0.28234 -0.491636,-0.64815 -0.535828,-1.09743 z"
           id="path3072"
           inkscape:connector-curvature="0" />
        <path
           d="m 76.718651,475.15331 0.662879,-0.0884 c 0.07611,0.37564 0.205615,0.64631 0.388522,0.81203 0.182904,0.16572 0.405705,0.24858 0.668404,0.24858 0.311796,0 0.575107,-0.10802 0.789931,-0.32407 0.21482,-0.21605 0.322231,-0.48366 0.322234,-0.80283 -3e-6,-0.30443 -0.09943,-0.55546 -0.298296,-0.7531 -0.198867,-0.19763 -0.451743,-0.29645 -0.758629,-0.29645 -0.125213,0 -0.281112,0.0246 -0.467699,0.0737 l 0.07365,-0.58186 c 0.04419,0.005 0.07979,0.007 0.106798,0.007 0.282335,1e-5 0.536439,-0.0737 0.762311,-0.22096 0.225868,-0.1473 0.338803,-0.3744 0.338806,-0.68129 -3e-6,-0.24305 -0.08225,-0.44437 -0.246739,-0.60396 -0.164495,-0.15958 -0.376862,-0.23937 -0.637101,-0.23937 -0.257788,0 -0.47261,0.081 -0.644467,0.24305 -0.171859,0.16205 -0.282338,0.4051 -0.33144,0.72917 l -0.662879,-0.11784 c 0.08102,-0.44437 0.265151,-0.7887 0.552399,-1.03299 0.287247,-0.24428 0.644465,-0.36642 1.071656,-0.36643 0.294611,1e-5 0.565901,0.0632 0.813869,0.18966 0.247964,0.12644 0.437621,0.29892 0.568972,0.51742 0.131345,0.21851 0.197019,0.45051 0.197023,0.69602 -4e-6,0.23324 -0.06261,0.44561 -0.187816,0.6371 -0.125214,0.1915 -0.310575,0.34372 -0.556083,0.45665 0.319162,0.0737 0.567128,0.22649 0.743899,0.45849 0.176764,0.23201 0.265148,0.52233 0.265152,0.87095 -4e-6,0.47139 -0.171861,0.87096 -0.515573,1.19871 -0.343719,0.32776 -0.778273,0.49164 -1.303664,0.49164 -0.473838,0 -0.867269,-0.14117 -1.180295,-0.42351 -0.313027,-0.28234 -0.491636,-0.64815 -0.535827,-1.09743 z"
           id="path3074"
           inkscape:connector-curvature="0" />
        <path
           d="m 56.143595,486.00612 -0.66288,0 0,-4.22401 c -0.159584,0.15222 -0.368882,0.30443 -0.627894,0.45665 -0.259016,0.15222 -0.491637,0.26638 -0.697865,0.34248 l 0,-0.64078 c 0.37072,-0.17431 0.694794,-0.38545 0.972223,-0.63342 0.277426,-0.24796 0.473835,-0.48856 0.589227,-0.7218 l 0.427189,0 z"
           id="path3076"
           inkscape:connector-curvature="0" />
        <path
           d="m 58.216936,486.00612 0,-0.75494 0.754947,0 0,0.75494 z"
           id="path3078"
           inkscape:connector-curvature="0" />
        <path
           d="m 59.936741,484.59198 0.696024,-0.0589 c 0.05156,0.3388 0.171243,0.59352 0.35906,0.76415 0.187814,0.17063 0.414298,0.25595 0.679452,0.25595 0.319162,0 0.589224,-0.1203 0.810186,-0.36091 0.220957,-0.2406 0.331437,-0.55976 0.33144,-0.95749 -3e-6,-0.37808 -0.106186,-0.67638 -0.31855,-0.89489 -0.21237,-0.2185 -0.490411,-0.32775 -0.834124,-0.32775 -0.213597,0 -0.406323,0.0485 -0.578179,0.14546 -0.171859,0.097 -0.30689,0.22281 -0.405093,0.37747 l -0.622371,-0.081 0.522939,-2.77305 2.684663,0 0,0.63342 -2.154359,0 -0.290931,1.45097 c 0.324073,-0.22587 0.664106,-0.3388 1.020099,-0.33881 0.471378,10e-6 0.869106,0.16327 1.193183,0.4898 0.324071,0.32653 0.486109,0.74635 0.486112,1.25947 -3e-6,0.48857 -0.1424,0.91085 -0.427189,1.26684 -0.346174,0.43701 -0.818782,0.65551 -1.417826,0.65551 -0.491024,0 -0.89182,-0.13749 -1.202391,-0.41246 -0.310572,-0.27497 -0.487953,-0.63955 -0.532145,-1.09375 z"
           id="path3080"
           inkscape:connector-curvature="0" />
        <path
           d="m 64.492199,486.00612 0,-0.75494 0.754947,0 0,0.75494 c -2e-6,0.27743 -0.0491,0.50146 -0.147307,0.67209 -0.09821,0.17063 -0.254105,0.30259 -0.467699,0.39589 l -0.184133,-0.28357 c 0.139941,-0.0614 0.243055,-0.1516 0.309344,-0.27067 0.06629,-0.11908 0.103114,-0.29032 0.11048,-0.51374 z"
           id="path3082"
           inkscape:connector-curvature="0" />
        <path
           d="m 66.230417,484.58093 0.66288,-0.0884 c 0.07611,0.37563 0.205614,0.64631 0.388521,0.81203 0.182904,0.16572 0.405705,0.24858 0.668404,0.24858 0.311797,0 0.575107,-0.10803 0.789932,-0.32408 0.214819,-0.21605 0.32223,-0.48365 0.322233,-0.80282 -3e-6,-0.30443 -0.09943,-0.55547 -0.298296,-0.75311 -0.198866,-0.19763 -0.451743,-0.29645 -0.758629,-0.29645 -0.125213,0 -0.281112,0.0245 -0.467699,0.0736 l 0.07365,-0.58186 c 0.04419,0.005 0.07979,0.007 0.106797,0.007 0.282336,0 0.536439,-0.0736 0.762312,-0.22096 0.225867,-0.14731 0.338802,-0.3744 0.338805,-0.6813 -3e-6,-0.24305 -0.08225,-0.44437 -0.246738,-0.60395 -0.164495,-0.15958 -0.376862,-0.23937 -0.637102,-0.23938 -0.257788,10e-6 -0.47261,0.081 -0.644466,0.24306 -0.171859,0.16204 -0.282339,0.4051 -0.33144,0.72917 l -0.66288,-0.11785 c 0.08102,-0.44437 0.265151,-0.7887 0.5524,-1.03299 0.287247,-0.24427 0.644465,-0.36642 1.071656,-0.36642 0.294611,0 0.5659,0.0632 0.813869,0.18966 0.247963,0.12644 0.43762,0.29891 0.568972,0.51741 0.131345,0.21851 0.197019,0.45052 0.197022,0.69602 -3e-6,0.23324 -0.06261,0.44561 -0.187816,0.63711 -0.125213,0.1915 -0.310574,0.34371 -0.556082,0.45665 0.319161,0.0736 0.567127,0.22648 0.743898,0.45849 0.176765,0.23201 0.265149,0.52233 0.265152,0.87095 -3e-6,0.47138 -0.171861,0.87095 -0.515573,1.19871 -0.343718,0.32775 -0.778273,0.49163 -1.303664,0.49163 -0.473838,0 -0.867269,-0.14117 -1.180294,-0.4235 -0.313027,-0.28234 -0.491636,-0.64815 -0.535828,-1.09744 z"
           id="path3084"
           inkscape:connector-curvature="0" />
        <path
           d="m 70.796924,486.00612 0,-0.75494 0.754946,0 0,0.75494 z"
           id="path3086"
           inkscape:connector-curvature="0" />
        <path
           d="m 72.516728,483.34356 c -10e-7,-0.63833 0.06567,-1.15206 0.197022,-1.5412 0.131348,-0.38913 0.326529,-0.68927 0.585544,-0.90041 0.259013,-0.21114 0.584929,-0.31671 0.977748,-0.31671 0.289701,0 0.543804,0.0583 0.762312,0.17493 0.218502,0.11662 0.398952,0.28479 0.541352,0.50452 0.142393,0.21974 0.2541,0.48734 0.335122,0.80282 0.08101,0.31549 0.121524,0.74084 0.121528,1.27605 -4e-6,0.63342 -0.06506,1.14469 -0.195181,1.53383 -0.130124,0.38913 -0.324692,0.68988 -0.583703,0.90225 -0.259017,0.21237 -0.58616,0.31855 -0.98143,0.31855 -0.520485,0 -0.929261,-0.18659 -1.226328,-0.55977 -0.355991,-0.44928 -0.533987,-1.1809 -0.533986,-2.19486 z m 0.681293,0 c -10e-7,0.88629 0.103727,1.47613 0.311185,1.76952 0.207455,0.29338 0.4634,0.44008 0.767836,0.44008 0.304431,0 0.560376,-0.14731 0.767836,-0.44192 0.207454,-0.29462 0.311182,-0.88384 0.311185,-1.76768 -3e-6,-0.88875 -0.103731,-1.4792 -0.311185,-1.77137 -0.20746,-0.29215 -0.46586,-0.43823 -0.775201,-0.43823 -0.304436,0 -0.547492,0.12889 -0.729168,0.38668 -0.228327,0.32899 -0.342489,0.93662 -0.342488,1.82292 z"
           id="path3088"
           inkscape:connector-curvature="0" />
      </g>
      <g
         style="font-size:7.54209995px;font-weight:normal;line-height:125%;fill:#000000;font-family:Sans;-inkscape-font-specification:Sans Bold"
         id="text3022-1"
         transform="matrix(2.9818206,0,0,2.9818206,-103.66231,-973.92997)">
        <path
           d="m 91.123505,445.63306 c 0,-0.63833 0.06567,-1.15206 0.197022,-1.5412 0.131348,-0.38913 0.326529,-0.68927 0.585544,-0.90041 0.259013,-0.21114 0.584929,-0.31671 0.977748,-0.31671 0.289701,0 0.543805,0.0583 0.762312,0.17493 0.218502,0.11662 0.398952,0.28479 0.541352,0.50452 0.142393,0.21974 0.2541,0.48735 0.335123,0.80282 0.08101,0.31549 0.121524,0.74084 0.121528,1.27605 -4e-6,0.63342 -0.06506,1.14469 -0.195182,1.53383 -0.130124,0.38913 -0.324691,0.68988 -0.583702,0.90225 -0.259017,0.21237 -0.58616,0.31855 -0.981431,0.31855 -0.520485,0 -0.92926,-0.18659 -1.226328,-0.55976 -0.355991,-0.44929 -0.533986,-1.18091 -0.533986,-2.19487 z m 0.681293,0 c -1e-6,0.88629 0.103727,1.47613 0.311185,1.76952 0.207456,0.29338 0.463401,0.44008 0.767836,0.44008 0.304432,0 0.560377,-0.14731 0.767836,-0.44192 0.207454,-0.29462 0.311182,-0.88384 0.311185,-1.76768 -3e-6,-0.88875 -0.103731,-1.4792 -0.311185,-1.77137 -0.207459,-0.29215 -0.46586,-0.43823 -0.775201,-0.43823 -0.304436,0 -0.547491,0.12889 -0.729168,0.38668 -0.228326,0.32899 -0.342489,0.93662 -0.342488,1.82292 z"
           id="path3091"
           inkscape:connector-curvature="0" />
        <path
           d="m 95.678963,448.29562 0,-0.75494 0.754946,0 0,0.75494 c -10e-7,0.27743 -0.0491,0.50146 -0.147306,0.67209 -0.09821,0.17063 -0.254105,0.30259 -0.467699,0.39589 l -0.184133,-0.28357 c 0.13994,-0.0614 0.243055,-0.1516 0.309344,-0.27067 0.06629,-0.11908 0.103113,-0.29032 0.11048,-0.51374 z"
           id="path3093"
           inkscape:connector-curvature="0" />
        <path
           d="m 97.413498,445.63306 c 0,-0.63833 0.06567,-1.15206 0.197023,-1.5412 0.131348,-0.38913 0.326529,-0.68927 0.585544,-0.90041 0.259012,-0.21114 0.584928,-0.31671 0.977747,-0.31671 0.289701,0 0.543805,0.0583 0.762312,0.17493 0.218506,0.11662 0.398956,0.28479 0.541356,0.50452 0.14239,0.21974 0.2541,0.48735 0.33512,0.80282 0.081,0.31549 0.12152,0.74084 0.12153,1.27605 -1e-5,0.63342 -0.0651,1.14469 -0.19518,1.53383 -0.13013,0.38913 -0.3247,0.68988 -0.58371,0.90225 -0.259014,0.21237 -0.586157,0.31855 -0.981428,0.31855 -0.520485,0 -0.92926,-0.18659 -1.226327,-0.55976 -0.355992,-0.44929 -0.533987,-1.18091 -0.533987,-2.19487 z m 0.681293,0 c -10e-7,0.88629 0.103728,1.47613 0.311186,1.76952 0.207455,0.29338 0.4634,0.44008 0.767835,0.44008 0.304432,0 0.560377,-0.14731 0.767836,-0.44192 0.207452,-0.29462 0.311182,-0.88384 0.311182,-1.76768 0,-0.88875 -0.10373,-1.4792 -0.311182,-1.77137 -0.207459,-0.29215 -0.465859,-0.43823 -0.775201,-0.43823 -0.304435,0 -0.547491,0.12889 -0.729168,0.38668 -0.228326,0.32899 -0.342489,0.93662 -0.342488,1.82292 z"
           id="path3095"
           inkscape:connector-curvature="0" />
        <path
           d="m 101.96896,445.13958 0,-0.75495 0.75494,0 0,0.75495 z m 0,3.15604 0,-0.75494 0.75494,0 0,0.75494 c 0,0.27743 -0.0491,0.50146 -0.1473,0.67209 -0.0982,0.17063 -0.25411,0.30259 -0.4677,0.39589 l -0.18414,-0.28357 c 0.13994,-0.0614 0.24306,-0.1516 0.30935,-0.27067 0.0663,-0.11908 0.10311,-0.29032 0.11048,-0.51374 z"
           id="path3097"
           inkscape:connector-curvature="0" />
        <path
           d="m 103.70349,445.63306 c 0,-0.63833 0.0657,-1.15206 0.19702,-1.5412 0.13135,-0.38913 0.32653,-0.68927 0.58555,-0.90041 0.25901,-0.21114 0.58493,-0.31671 0.97775,-0.31671 0.2897,0 0.5438,0.0583 0.76231,0.17493 0.2185,0.11662 0.39895,0.28479 0.54135,0.50452 0.14239,0.21974 0.2541,0.48735 0.33512,0.80282 0.081,0.31549 0.12153,0.74084 0.12153,1.27605 0,0.63342 -0.0651,1.14469 -0.19518,1.53383 -0.13013,0.38913 -0.32469,0.68988 -0.5837,0.90225 -0.25902,0.21237 -0.58616,0.31855 -0.98143,0.31855 -0.52049,0 -0.92926,-0.18659 -1.22633,-0.55976 -0.35599,-0.44929 -0.53399,-1.18091 -0.53399,-2.19487 z m 0.68129,0 c 0,0.88629 0.10373,1.47613 0.31119,1.76952 0.20746,0.29338 0.4634,0.44008 0.76784,0.44008 0.30443,0 0.56037,-0.14731 0.76783,-0.44192 0.20746,-0.29462 0.31118,-0.88384 0.31119,-1.76768 -10e-6,-0.88875 -0.10373,-1.4792 -0.31119,-1.77137 -0.20746,-0.29215 -0.46586,-0.43823 -0.7752,-0.43823 -0.30444,0 -0.54749,0.12889 -0.72917,0.38668 -0.22832,0.32899 -0.34249,0.93662 -0.34249,1.82292 z"
           id="path3099"
           inkscape:connector-curvature="0" />
        <path
           d="m 108.25895,448.29562 0,-0.75494 0.75495,0 0,0.75494 c 0,0.27743 -0.0491,0.50146 -0.14731,0.67209 -0.0982,0.17063 -0.2541,0.30259 -0.4677,0.39589 l -0.18413,-0.28357 c 0.13994,-0.0614 0.24305,-0.1516 0.30934,-0.27067 0.0663,-0.11908 0.10312,-0.29032 0.11048,-0.51374 z"
           id="path3101"
           inkscape:connector-curvature="0" />
        <path
           d="m 109.99348,445.63306 c 0,-0.63833 0.0657,-1.15206 0.19703,-1.5412 0.13135,-0.38913 0.32653,-0.68927 0.58554,-0.90041 0.25901,-0.21114 0.58493,-0.31671 0.97775,-0.31671 0.2897,0 0.5438,0.0583 0.76231,0.17493 0.2185,0.11662 0.39895,0.28479 0.54135,0.50452 0.1424,0.21974 0.2541,0.48735 0.33513,0.80282 0.081,0.31549 0.12152,0.74084 0.12152,1.27605 0,0.63342 -0.0651,1.14469 -0.19518,1.53383 -0.13012,0.38913 -0.32469,0.68988 -0.5837,0.90225 -0.25902,0.21237 -0.58616,0.31855 -0.98143,0.31855 -0.52049,0 -0.92926,-0.18659 -1.22633,-0.55976 -0.35599,-0.44929 -0.53399,-1.18091 -0.53399,-2.19487 z m 0.6813,0 c 0,0.88629 0.10373,1.47613 0.31118,1.76952 0.20746,0.29338 0.4634,0.44008 0.76784,0.44008 0.30443,0 0.56038,-0.14731 0.76783,-0.44192 0.20746,-0.29462 0.31119,-0.88384 0.31119,-1.76768 0,-0.88875 -0.10373,-1.4792 -0.31119,-1.77137 -0.20745,-0.29215 -0.46585,-0.43823 -0.7752,-0.43823 -0.30443,0 -0.54749,0.12889 -0.72916,0.38668 -0.22833,0.32899 -0.34249,0.93662 -0.34249,1.82292 z"
           id="path3103"
           inkscape:connector-curvature="0" />
        <path
           d="m 91.123505,455.06068 c 0,-0.63832 0.06567,-1.15206 0.197022,-1.54119 0.131348,-0.38913 0.326529,-0.68927 0.585544,-0.90042 0.259013,-0.21113 0.584929,-0.3167 0.977748,-0.31671 0.289701,10e-6 0.543805,0.0583 0.762312,0.17493 0.218502,0.11662 0.398952,0.2848 0.541352,0.50453 0.142393,0.21973 0.2541,0.48734 0.335123,0.80282 0.08101,0.31548 0.121524,0.74083 0.121528,1.27604 -4e-6,0.63342 -0.06506,1.1447 -0.195182,1.53383 -0.130124,0.38914 -0.324691,0.68989 -0.583702,0.90225 -0.259017,0.21237 -0.58616,0.31856 -0.981431,0.31856 -0.520485,0 -0.92926,-0.18659 -1.226328,-0.55977 -0.355991,-0.44928 -0.533986,-1.18091 -0.533986,-2.19487 z m 0.681293,0 c -1e-6,0.8863 0.103727,1.47614 0.311185,1.76952 0.207456,0.29339 0.463401,0.44008 0.767836,0.44008 0.304432,0 0.560377,-0.14731 0.767836,-0.44192 0.207454,-0.29461 0.311182,-0.88384 0.311185,-1.76768 -3e-6,-0.88875 -0.103731,-1.4792 -0.311185,-1.77136 -0.207459,-0.29215 -0.46586,-0.43823 -0.775201,-0.43824 -0.304436,10e-6 -0.547491,0.1289 -0.729168,0.38668 -0.228326,0.32899 -0.342489,0.93663 -0.342488,1.82292 z"
           id="path3105"
           inkscape:connector-curvature="0" />
        <path
           d="m 95.678963,457.72325 0,-0.75495 0.754946,0 0,0.75495 c -10e-7,0.27743 -0.0491,0.50145 -0.147306,0.67209 -0.09821,0.17062 -0.254105,0.30259 -0.467699,0.39588 l -0.184133,-0.28356 c 0.13994,-0.0614 0.243055,-0.15161 0.309344,-0.27068 0.06629,-0.11907 0.103113,-0.29032 0.11048,-0.51373 z"
           id="path3107"
           inkscape:connector-curvature="0" />
        <path
           d="m 97.413498,456.3091 0.696024,-0.0589 c 0.05156,0.33881 0.171243,0.59353 0.35906,0.76416 0.187814,0.17063 0.414298,0.25594 0.679452,0.25594 0.319162,0 0.589224,-0.1203 0.810186,-0.3609 0.22096,-0.2406 0.33144,-0.55976 0.33144,-0.95749 0,-0.37809 -0.10619,-0.67638 -0.31855,-0.89489 -0.21237,-0.2185 -0.490411,-0.32776 -0.834124,-0.32776 -0.213597,0 -0.406323,0.0485 -0.578179,0.14547 -0.171859,0.097 -0.30689,0.2228 -0.405093,0.37747 l -0.622371,-0.081 0.522939,-2.77305 2.684668,0 0,0.63342 -2.154364,0 -0.290931,1.45097 c 0.324073,-0.22586 0.664106,-0.3388 1.020099,-0.3388 0.471378,0 0.869106,0.16327 1.193186,0.48979 0.32407,0.32653 0.48611,0.74636 0.48611,1.25947 0,0.48857 -0.1424,0.91085 -0.42719,1.26684 -0.34617,0.43701 -0.818782,0.65552 -1.417826,0.65552 -0.491024,0 -0.89182,-0.13749 -1.202391,-0.41246 -0.310572,-0.27498 -0.487953,-0.63956 -0.532145,-1.09376 z"
           id="path3109"
           inkscape:connector-curvature="0" />
        <path
           d="m 101.96896,454.5672 0,-0.75494 0.75494,0 0,0.75494 z m 0,3.15605 0,-0.75495 0.75494,0 0,0.75495 c 0,0.27743 -0.0491,0.50145 -0.1473,0.67209 -0.0982,0.17062 -0.25411,0.30259 -0.4677,0.39588 l -0.18414,-0.28356 c 0.13994,-0.0614 0.24306,-0.15161 0.30935,-0.27068 0.0663,-0.11907 0.10311,-0.29032 0.11048,-0.51373 z"
           id="path3111"
           inkscape:connector-curvature="0" />
        <path
           d="m 106.20034,457.72325 -0.66288,0 0,-4.22402 c -0.15959,0.15222 -0.36888,0.30444 -0.6279,0.45665 -0.25901,0.15222 -0.49163,0.26638 -0.69786,0.34249 l 0,-0.64078 c 0.37072,-0.17431 0.69479,-0.38545 0.97222,-0.63342 0.27743,-0.24796 0.47384,-0.48856 0.58923,-0.72181 l 0.42719,0 z"
           id="path3113"
           inkscape:connector-curvature="0" />
        <path
           d="m 108.25895,457.72325 0,-0.75495 0.75495,0 0,0.75495 c 0,0.27743 -0.0491,0.50145 -0.14731,0.67209 -0.0982,0.17062 -0.2541,0.30259 -0.4677,0.39588 l -0.18413,-0.28356 c 0.13994,-0.0614 0.24305,-0.15161 0.30934,-0.27068 0.0663,-0.11907 0.10312,-0.29032 0.11048,-0.51373 z"
           id="path3115"
           inkscape:connector-curvature="0" />
        <path
           d="m 109.99348,455.06068 c 0,-0.63832 0.0657,-1.15206 0.19703,-1.54119 0.13135,-0.38913 0.32653,-0.68927 0.58554,-0.90042 0.25901,-0.21113 0.58493,-0.3167 0.97775,-0.31671 0.2897,10e-6 0.5438,0.0583 0.76231,0.17493 0.2185,0.11662 0.39895,0.2848 0.54135,0.50453 0.1424,0.21973 0.2541,0.48734 0.33513,0.80282 0.081,0.31548 0.12152,0.74083 0.12152,1.27604 0,0.63342 -0.0651,1.1447 -0.19518,1.53383 -0.13012,0.38914 -0.32469,0.68989 -0.5837,0.90225 -0.25902,0.21237 -0.58616,0.31856 -0.98143,0.31856 -0.52049,0 -0.92926,-0.18659 -1.22633,-0.55977 -0.35599,-0.44928 -0.53399,-1.18091 -0.53399,-2.19487 z m 0.6813,0 c 0,0.8863 0.10373,1.47614 0.31118,1.76952 0.20746,0.29339 0.4634,0.44008 0.76784,0.44008 0.30443,0 0.56038,-0.14731 0.76783,-0.44192 0.20746,-0.29461 0.31119,-0.88384 0.31119,-1.76768 0,-0.88875 -0.10373,-1.4792 -0.31119,-1.77136 -0.20745,-0.29215 -0.46585,-0.43823 -0.7752,-0.43824 -0.30443,10e-6 -0.54749,0.1289 -0.72916,0.38668 -0.22833,0.32899 -0.34249,0.93663 -0.34249,1.82292 z"
           id="path3117"
           inkscape:connector-curvature="0" />
        <path
           d="m 91.123505,464.48831 c 0,-0.63833 0.06567,-1.15206 0.197022,-1.5412 0.131348,-0.38913 0.326529,-0.68927 0.585544,-0.90041 0.259013,-0.21114 0.584929,-0.31671 0.977748,-0.31671 0.289701,0 0.543805,0.0583 0.762312,0.17493 0.218502,0.11662 0.398952,0.28479 0.541352,0.50452 0.142393,0.21974 0.2541,0.48734 0.335123,0.80282 0.08101,0.31549 0.121524,0.74084 0.121528,1.27605 -4e-6,0.63342 -0.06506,1.14469 -0.195182,1.53383 -0.130124,0.38913 -0.324691,0.68988 -0.583702,0.90225 -0.259017,0.21237 -0.58616,0.31855 -0.981431,0.31855 -0.520485,0 -0.92926,-0.18659 -1.226328,-0.55976 -0.355991,-0.44929 -0.533986,-1.18091 -0.533986,-2.19487 z m 0.681293,0 c -1e-6,0.88629 0.103727,1.47613 0.311185,1.76952 0.207456,0.29338 0.463401,0.44008 0.767836,0.44008 0.304432,0 0.560377,-0.14731 0.767836,-0.44192 0.207454,-0.29462 0.311182,-0.88384 0.311185,-1.76768 -3e-6,-0.88875 -0.103731,-1.4792 -0.311185,-1.77137 -0.207459,-0.29215 -0.46586,-0.43823 -0.775201,-0.43823 -0.304436,0 -0.547491,0.12889 -0.729168,0.38668 -0.228326,0.32899 -0.342489,0.93662 -0.342488,1.82292 z"
           id="path3119"
           inkscape:connector-curvature="0" />
        <path
           d="m 95.678963,467.15087 0,-0.75494 0.754946,0 0,0.75494 c -10e-7,0.27743 -0.0491,0.50146 -0.147306,0.67209 -0.09821,0.17063 -0.254105,0.30259 -0.467699,0.39589 l -0.184133,-0.28357 c 0.13994,-0.0614 0.243055,-0.1516 0.309344,-0.27067 0.06629,-0.11908 0.103113,-0.29032 0.11048,-0.51374 z"
           id="path3121"
           inkscape:connector-curvature="0" />
        <path
           d="m 97.51293,465.90245 0.637101,-0.0589 c 0.05401,0.29952 0.157126,0.5168 0.309344,0.65183 0.152216,0.13503 0.347397,0.20255 0.585544,0.20255 0.203772,0 0.382381,-0.0466 0.535828,-0.13995 0.153442,-0.0933 0.279266,-0.21789 0.377473,-0.37379 0.0982,-0.15589 0.18045,-0.36642 0.24674,-0.63157 0.0663,-0.26515 0.0994,-0.53522 0.0994,-0.81019 0,-0.0295 -0.001,-0.0736 -0.004,-0.13258 -0.13258,0.21115 -0.313645,0.38239 -0.543195,0.51374 -0.229555,0.13135 -0.478135,0.19702 -0.74574,0.19702 -0.446831,0 -0.824918,-0.16204 -1.134261,-0.48611 -0.309344,-0.32408 -0.464016,-0.75126 -0.464016,-1.28157 0,-0.54749 0.161423,-0.98818 0.484271,-1.32208 0.322846,-0.33389 0.727325,-0.50084 1.213438,-0.50084 0.351079,0 0.672084,0.0945 0.963013,0.28356 0.29093,0.18905 0.51189,0.4585 0.66288,0.80835 0.15099,0.34986 0.22648,0.85622 0.22649,1.5191 -1e-5,0.68989 -0.0749,1.23922 -0.22464,1.64799 -0.14977,0.40878 -0.37257,0.71996 -0.66841,0.93356 -0.295842,0.21359 -0.642626,0.32039 -1.040352,0.32039 -0.42228,0 -0.767223,-0.11723 -1.034829,-0.35169 -0.267607,-0.23447 -0.428417,-0.56407 -0.482429,-0.9888 z m 2.71412,-2.38269 c 0,-0.38053 -0.10127,-0.68251 -0.303815,-0.90593 -0.202549,-0.22341 -0.446219,-0.33512 -0.731009,-0.33512 -0.294615,0 -0.551174,0.1203 -0.769677,0.3609 -0.218506,0.2406 -0.327759,0.5524 -0.327758,0.93539 -10e-7,0.34372 0.103728,0.62299 0.311186,0.83781 0.207455,0.21483 0.4634,0.32224 0.767835,0.32223 0.306887,10e-6 0.559149,-0.1074 0.756788,-0.32223 0.19763,-0.21482 0.29645,-0.5125 0.29645,-0.89305 z"
           id="path3123"
           inkscape:connector-curvature="0" />
        <path
           d="m 101.96896,463.99483 0,-0.75495 0.75494,0 0,0.75495 z m 0,3.15604 0,-0.75494 0.75494,0 0,0.75494 c 0,0.27743 -0.0491,0.50146 -0.1473,0.67209 -0.0982,0.17063 -0.25411,0.30259 -0.4677,0.39589 l -0.18414,-0.28357 c 0.13994,-0.0614 0.24306,-0.1516 0.30935,-0.27067 0.0663,-0.11908 0.10311,-0.29032 0.11048,-0.51374 z"
           id="path3125"
           inkscape:connector-curvature="0" />
        <path
           d="m 106.20034,467.15087 -0.66288,0 0,-4.22401 c -0.15959,0.15222 -0.36888,0.30443 -0.6279,0.45665 -0.25901,0.15222 -0.49163,0.26638 -0.69786,0.34248 l 0,-0.64078 c 0.37072,-0.17431 0.69479,-0.38545 0.97222,-0.63342 0.27743,-0.24796 0.47384,-0.48856 0.58923,-0.7218 l 0.42719,0 z"
           id="path3127"
           inkscape:connector-curvature="0" />
        <path
           d="m 108.25895,467.15087 0,-0.75494 0.75495,0 0,0.75494 c 0,0.27743 -0.0491,0.50146 -0.14731,0.67209 -0.0982,0.17063 -0.2541,0.30259 -0.4677,0.39589 l -0.18413,-0.28357 c 0.13994,-0.0614 0.24305,-0.1516 0.30934,-0.27067 0.0663,-0.11908 0.10312,-0.29032 0.11048,-0.51374 z"
           id="path3129"
           inkscape:connector-curvature="0" />
        <path
           d="m 113.47729,466.51377 0,0.6371 -3.56851,0 c -0.005,-0.15958 0.0209,-0.31302 0.0773,-0.46033 0.0908,-0.24305 0.2363,-0.48243 0.4364,-0.71812 0.20009,-0.23569 0.48917,-0.50821 0.86726,-0.81755 0.58677,-0.4812 0.98327,-0.86236 1.1895,-1.14347 0.20623,-0.28111 0.30935,-0.54687 0.30935,-0.7973 0,-0.26269 -0.0939,-0.48426 -0.28173,-0.66472 -0.18781,-0.18044 -0.43271,-0.27067 -0.73469,-0.27067 -0.31916,0 -0.5745,0.0958 -0.76599,0.28724 -0.1915,0.19151 -0.28848,0.45666 -0.29093,0.79546 l -0.6813,-0.07 c 0.0466,-0.5082 0.22219,-0.8955 0.52663,-1.16188 0.30443,-0.26638 0.7132,-0.39957 1.22632,-0.39957 0.51803,0 0.92803,0.14363 1.23001,0.43087 0.30198,0.28725 0.45297,0.64324 0.45297,1.06797 0,0.21606 -0.0442,0.42842 -0.13257,0.63711 -0.0884,0.20868 -0.23508,0.42842 -0.44008,0.65919 -0.20501,0.23079 -0.54565,0.54749 -1.02194,0.95013 -0.39773,0.3339 -0.65306,0.56038 -0.766,0.67945 -0.11293,0.11908 -0.20623,0.23876 -0.27988,0.35906 z"
           id="path3131"
           inkscape:connector-curvature="0" />
        <path
           d="m 117.67553,466.51377 0,0.6371 -3.56851,0 c -0.005,-0.15958 0.0209,-0.31302 0.0773,-0.46033 0.0908,-0.24305 0.2363,-0.48243 0.4364,-0.71812 0.20009,-0.23569 0.48918,-0.50821 0.86726,-0.81755 0.58677,-0.4812 0.98327,-0.86236 1.1895,-1.14347 0.20623,-0.28111 0.30935,-0.54687 0.30935,-0.7973 0,-0.26269 -0.0939,-0.48426 -0.28173,-0.66472 -0.18781,-0.18044 -0.43271,-0.27067 -0.73469,-0.27067 -0.31916,0 -0.57449,0.0958 -0.76599,0.28724 -0.1915,0.19151 -0.28848,0.45666 -0.29093,0.79546 l -0.6813,-0.07 c 0.0466,-0.5082 0.22219,-0.8955 0.52663,-1.16188 0.30443,-0.26638 0.7132,-0.39957 1.22632,-0.39957 0.51803,0 0.92803,0.14363 1.23001,0.43087 0.30198,0.28725 0.45297,0.64324 0.45297,1.06797 0,0.21606 -0.0442,0.42842 -0.13257,0.63711 -0.0884,0.20868 -0.23508,0.42842 -0.44008,0.65919 -0.20501,0.23079 -0.54565,0.54749 -1.02194,0.95013 -0.39773,0.3339 -0.65306,0.56038 -0.766,0.67945 -0.11293,0.11908 -0.20623,0.23876 -0.27988,0.35906 z"
           id="path3133"
           inkscape:connector-curvature="0" />
        <path
           d="m 93.620352,476.5785 -0.66288,0 0,-4.22402 c -0.159584,0.15222 -0.368882,0.30444 -0.627894,0.45665 -0.259016,0.15222 -0.491637,0.26638 -0.697865,0.34249 l 0,-0.64078 c 0.37072,-0.17431 0.694795,-0.38545 0.972224,-0.63342 0.277425,-0.24796 0.473834,-0.48857 0.589226,-0.72181 l 0.427189,0 z"
           id="path3135"
           inkscape:connector-curvature="0" />
        <path
           d="m 95.678963,476.5785 0,-0.75495 0.754946,0 0,0.75495 c -10e-7,0.27743 -0.0491,0.50145 -0.147306,0.67209 -0.09821,0.17062 -0.254105,0.30259 -0.467699,0.39588 l -0.184133,-0.28356 c 0.13994,-0.0614 0.243055,-0.15161 0.309344,-0.27068 0.06629,-0.11907 0.103113,-0.29032 0.11048,-0.51373 z"
           id="path3137"
           inkscape:connector-curvature="0" />
        <path
           d="m 97.413498,473.91593 c 0,-0.63832 0.06567,-1.15206 0.197023,-1.54119 0.131348,-0.38914 0.326529,-0.68927 0.585544,-0.90042 0.259012,-0.21113 0.584928,-0.3167 0.977747,-0.31671 0.289701,1e-5 0.543805,0.0583 0.762312,0.17493 0.218506,0.11662 0.398956,0.2848 0.541356,0.50453 0.14239,0.21973 0.2541,0.48734 0.33512,0.80282 0.081,0.31548 0.12152,0.74083 0.12153,1.27604 -1e-5,0.63342 -0.0651,1.1447 -0.19518,1.53383 -0.13013,0.38914 -0.3247,0.68989 -0.58371,0.90225 -0.259014,0.21237 -0.586157,0.31856 -0.981428,0.31856 -0.520485,0 -0.92926,-0.18659 -1.226327,-0.55977 -0.355992,-0.44928 -0.533987,-1.18091 -0.533987,-2.19487 z m 0.681293,0 c -10e-7,0.8863 0.103728,1.47614 0.311186,1.76952 0.207455,0.29339 0.4634,0.44008 0.767835,0.44008 0.304432,0 0.560377,-0.14731 0.767836,-0.44192 0.207452,-0.29461 0.311182,-0.88384 0.311182,-1.76768 0,-0.88875 -0.10373,-1.4792 -0.311182,-1.77136 -0.207459,-0.29215 -0.465859,-0.43823 -0.775201,-0.43824 -0.304435,1e-5 -0.547491,0.1289 -0.729168,0.38668 -0.228326,0.32899 -0.342489,0.93663 -0.342488,1.82292 z"
           id="path3139"
           inkscape:connector-curvature="0" />
        <path
           d="m 101.96896,473.42245 0,-0.75494 0.75494,0 0,0.75494 z m 0,3.15605 0,-0.75495 0.75494,0 0,0.75495 c 0,0.27743 -0.0491,0.50145 -0.1473,0.67209 -0.0982,0.17062 -0.25411,0.30259 -0.4677,0.39588 l -0.18414,-0.28356 c 0.13994,-0.0614 0.24306,-0.15161 0.30935,-0.27068 0.0663,-0.11907 0.10311,-0.29032 0.11048,-0.51373 z"
           id="path3141"
           inkscape:connector-curvature="0" />
        <path
           d="m 107.18729,475.9414 0,0.6371 -3.5685,0 c -0.005,-0.15958 0.0209,-0.31303 0.0773,-0.46033 0.0908,-0.24306 0.2363,-0.48243 0.43639,-0.71812 0.20009,-0.23569 0.48918,-0.50821 0.86727,-0.81756 0.58677,-0.4812 0.98327,-0.86235 1.1895,-1.14346 0.20623,-0.28111 0.30934,-0.54688 0.30934,-0.7973 0,-0.26269 -0.0939,-0.48427 -0.28172,-0.66472 -0.18782,-0.18045 -0.43271,-0.27067 -0.73469,-0.27068 -0.31917,1e-5 -0.5745,0.0958 -0.766,0.28725 -0.1915,0.1915 -0.28847,0.45665 -0.29093,0.79546 l -0.68129,-0.07 c 0.0466,-0.5082 0.22219,-0.89549 0.52662,-1.16188 0.30443,-0.26637 0.71321,-0.39956 1.22633,-0.39957 0.51803,10e-6 0.92803,0.14363 1.23001,0.43088 0.30198,0.28725 0.45296,0.64324 0.45297,1.06797 -1e-5,0.21605 -0.0442,0.42842 -0.13258,0.6371 -0.0884,0.20869 -0.23508,0.42842 -0.44008,0.6592 -0.205,0.23078 -0.54565,0.54749 -1.02194,0.95013 -0.39773,0.33389 -0.65306,0.56038 -0.76599,0.67945 -0.11294,0.11907 -0.20623,0.23876 -0.27988,0.35906 z"
           id="path3143"
           inkscape:connector-curvature="0" />
        <path
           d="m 108.25895,476.5785 0,-0.75495 0.75495,0 0,0.75495 c 0,0.27743 -0.0491,0.50145 -0.14731,0.67209 -0.0982,0.17062 -0.2541,0.30259 -0.4677,0.39588 l -0.18413,-0.28356 c 0.13994,-0.0614 0.24305,-0.15161 0.30934,-0.27068 0.0663,-0.11907 0.10312,-0.29032 0.11048,-0.51373 z"
           id="path3145"
           inkscape:connector-curvature="0" />
        <path
           d="m 109.99717,475.15331 0.66288,-0.0884 c 0.0761,0.37564 0.20561,0.64631 0.38852,0.81203 0.1829,0.16572 0.4057,0.24858 0.6684,0.24858 0.3118,0 0.57511,-0.10802 0.78993,-0.32407 0.21482,-0.21605 0.32223,-0.48366 0.32224,-0.80283 -10e-6,-0.30443 -0.0994,-0.55546 -0.2983,-0.7531 -0.19887,-0.19763 -0.45174,-0.29645 -0.75863,-0.29645 -0.12521,0 -0.28111,0.0246 -0.4677,0.0737 l 0.0737,-0.58186 c 0.0442,0.005 0.0798,0.007 0.10679,0.007 0.28234,1e-5 0.53644,-0.0737 0.76232,-0.22096 0.22586,-0.1473 0.3388,-0.3744 0.3388,-0.68129 0,-0.24305 -0.0823,-0.44437 -0.24674,-0.60396 -0.16449,-0.15958 -0.37686,-0.23937 -0.6371,-0.23937 -0.25779,0 -0.47261,0.081 -0.64446,0.24305 -0.17186,0.16205 -0.28234,0.4051 -0.33144,0.72917 l -0.66288,-0.11784 c 0.081,-0.44437 0.26515,-0.7887 0.5524,-1.03299 0.28724,-0.24428 0.64446,-0.36642 1.07165,-0.36643 0.29461,1e-5 0.5659,0.0632 0.81387,0.18966 0.24796,0.12644 0.43762,0.29892 0.56897,0.51742 0.13135,0.21851 0.19702,0.45051 0.19702,0.69602 0,0.23324 -0.0626,0.44561 -0.18781,0.6371 -0.12522,0.1915 -0.31058,0.34372 -0.55608,0.45665 0.31916,0.0737 0.56712,0.22649 0.74389,0.45849 0.17677,0.23201 0.26515,0.52233 0.26516,0.87095 -1e-5,0.47139 -0.17186,0.87096 -0.51558,1.19871 -0.34372,0.32776 -0.77827,0.49164 -1.30366,0.49164 -0.47384,0 -0.86727,-0.14117 -1.18029,-0.42351 -0.31303,-0.28234 -0.49164,-0.64815 -0.53583,-1.09743 z"
           id="path3147"
           inkscape:connector-curvature="0" />
        <path
           d="m 114.19541,475.15331 0.66288,-0.0884 c 0.0761,0.37564 0.20561,0.64631 0.38852,0.81203 0.1829,0.16572 0.4057,0.24858 0.6684,0.24858 0.3118,0 0.57511,-0.10802 0.78993,-0.32407 0.21482,-0.21605 0.32223,-0.48366 0.32224,-0.80283 -10e-6,-0.30443 -0.0994,-0.55546 -0.2983,-0.7531 -0.19886,-0.19763 -0.45174,-0.29645 -0.75863,-0.29645 -0.12521,0 -0.28111,0.0246 -0.4677,0.0737 l 0.0737,-0.58186 c 0.0442,0.005 0.0798,0.007 0.10679,0.007 0.28234,1e-5 0.53644,-0.0737 0.76232,-0.22096 0.22586,-0.1473 0.3388,-0.3744 0.3388,-0.68129 0,-0.24305 -0.0822,-0.44437 -0.24674,-0.60396 -0.16449,-0.15958 -0.37686,-0.23937 -0.6371,-0.23937 -0.25779,0 -0.47261,0.081 -0.64446,0.24305 -0.17186,0.16205 -0.28234,0.4051 -0.33144,0.72917 l -0.66288,-0.11784 c 0.081,-0.44437 0.26515,-0.7887 0.5524,-1.03299 0.28724,-0.24428 0.64446,-0.36642 1.07165,-0.36643 0.29461,1e-5 0.5659,0.0632 0.81387,0.18966 0.24796,0.12644 0.43762,0.29892 0.56897,0.51742 0.13135,0.21851 0.19702,0.45051 0.19703,0.69602 -1e-5,0.23324 -0.0626,0.44561 -0.18782,0.6371 -0.12521,0.1915 -0.31058,0.34372 -0.55608,0.45665 0.31916,0.0737 0.56712,0.22649 0.7439,0.45849 0.17676,0.23201 0.26514,0.52233 0.26515,0.87095 -1e-5,0.47139 -0.17186,0.87096 -0.51558,1.19871 -0.34371,0.32776 -0.77827,0.49164 -1.30366,0.49164 -0.47384,0 -0.86727,-0.14117 -1.18029,-0.42351 -0.31303,-0.28234 -0.49164,-0.64815 -0.53583,-1.09743 z"
           id="path3149"
           inkscape:connector-curvature="0" />
        <path
           d="m 93.620352,486.00612 -0.66288,0 0,-4.22401 c -0.159584,0.15222 -0.368882,0.30443 -0.627894,0.45665 -0.259016,0.15222 -0.491637,0.26638 -0.697865,0.34248 l 0,-0.64078 c 0.37072,-0.17431 0.694795,-0.38545 0.972224,-0.63342 0.277425,-0.24796 0.473834,-0.48856 0.589226,-0.7218 l 0.427189,0 z"
           id="path3151"
           inkscape:connector-curvature="0" />
        <path
           d="m 95.678963,486.00612 0,-0.75494 0.754946,0 0,0.75494 c -10e-7,0.27743 -0.0491,0.50146 -0.147306,0.67209 -0.09821,0.17063 -0.254105,0.30259 -0.467699,0.39589 l -0.184133,-0.28357 c 0.13994,-0.0614 0.243055,-0.1516 0.309344,-0.27067 0.06629,-0.11908 0.103113,-0.29032 0.11048,-0.51374 z"
           id="path3153"
           inkscape:connector-curvature="0" />
        <path
           d="m 97.413498,484.59198 0.696024,-0.0589 c 0.05156,0.3388 0.171243,0.59352 0.35906,0.76415 0.187814,0.17063 0.414298,0.25595 0.679452,0.25595 0.319162,0 0.589224,-0.1203 0.810186,-0.36091 0.22096,-0.2406 0.33144,-0.55976 0.33144,-0.95749 0,-0.37808 -0.10619,-0.67638 -0.31855,-0.89489 -0.21237,-0.2185 -0.490411,-0.32775 -0.834124,-0.32775 -0.213597,0 -0.406323,0.0485 -0.578179,0.14546 -0.171859,0.097 -0.30689,0.22281 -0.405093,0.37747 l -0.622371,-0.081 0.522939,-2.77305 2.684668,0 0,0.63342 -2.154364,0 -0.290931,1.45097 c 0.324073,-0.22587 0.664106,-0.3388 1.020099,-0.33881 0.471378,10e-6 0.869106,0.16327 1.193186,0.4898 0.32407,0.32653 0.48611,0.74635 0.48611,1.25947 0,0.48857 -0.1424,0.91085 -0.42719,1.26684 -0.34617,0.43701 -0.818782,0.65551 -1.417826,0.65551 -0.491024,0 -0.89182,-0.13749 -1.202391,-0.41246 -0.310572,-0.27497 -0.487953,-0.63955 -0.532145,-1.09375 z"
           id="path3155"
           inkscape:connector-curvature="0" />
        <path
           d="m 101.96896,482.85008 0,-0.75495 0.75494,0 0,0.75495 z m 0,3.15604 0,-0.75494 0.75494,0 0,0.75494 c 0,0.27743 -0.0491,0.50146 -0.1473,0.67209 -0.0982,0.17063 -0.25411,0.30259 -0.4677,0.39589 l -0.18414,-0.28357 c 0.13994,-0.0614 0.24306,-0.1516 0.30935,-0.27067 0.0663,-0.11908 0.10311,-0.29032 0.11048,-0.51374 z"
           id="path3157"
           inkscape:connector-curvature="0" />
        <path
           d="m 103.70717,484.58093 0.66288,-0.0884 c 0.0761,0.37563 0.20562,0.64631 0.38853,0.81203 0.1829,0.16572 0.4057,0.24858 0.6684,0.24858 0.3118,0 0.57511,-0.10803 0.78993,-0.32408 0.21482,-0.21605 0.32223,-0.48365 0.32223,-0.80282 0,-0.30443 -0.0994,-0.55547 -0.29829,-0.75311 -0.19887,-0.19763 -0.45174,-0.29645 -0.75863,-0.29645 -0.12521,0 -0.28111,0.0245 -0.4677,0.0736 l 0.0737,-0.58186 c 0.0442,0.005 0.0798,0.007 0.1068,0.007 0.28234,0 0.53644,-0.0736 0.76231,-0.22096 0.22587,-0.14731 0.33881,-0.3744 0.33881,-0.6813 0,-0.24305 -0.0823,-0.44437 -0.24674,-0.60395 -0.1645,-0.15958 -0.37686,-0.23937 -0.6371,-0.23938 -0.25779,10e-6 -0.47261,0.081 -0.64447,0.24306 -0.17186,0.16204 -0.28234,0.4051 -0.33144,0.72917 l -0.66288,-0.11785 c 0.081,-0.44437 0.26515,-0.7887 0.5524,-1.03299 0.28725,-0.24427 0.64447,-0.36642 1.07166,-0.36642 0.29461,0 0.5659,0.0632 0.81387,0.18966 0.24796,0.12644 0.43762,0.29891 0.56897,0.51741 0.13134,0.21851 0.19702,0.45052 0.19702,0.69602 0,0.23324 -0.0626,0.44561 -0.18781,0.63711 -0.12522,0.1915 -0.31058,0.34371 -0.55609,0.45665 0.31916,0.0736 0.56713,0.22648 0.7439,0.45849 0.17677,0.23201 0.26515,0.52233 0.26515,0.87095 0,0.47138 -0.17186,0.87095 -0.51557,1.19871 -0.34372,0.32775 -0.77827,0.49163 -1.30366,0.49163 -0.47384,0 -0.86727,-0.14117 -1.1803,-0.4235 -0.31303,-0.28234 -0.49163,-0.64815 -0.53583,-1.09744 z"
           id="path3159"
           inkscape:connector-curvature="0" />
        <path
           d="m 108.25895,486.00612 0,-0.75494 0.75495,0 0,0.75494 c 0,0.27743 -0.0491,0.50146 -0.14731,0.67209 -0.0982,0.17063 -0.2541,0.30259 -0.4677,0.39589 l -0.18413,-0.28357 c 0.13994,-0.0614 0.24305,-0.1516 0.30934,-0.27067 0.0663,-0.11908 0.10312,-0.29032 0.11048,-0.51374 z"
           id="path3161"
           inkscape:connector-curvature="0" />
        <path
           d="m 109.99348,483.34356 c 0,-0.63833 0.0657,-1.15206 0.19703,-1.5412 0.13135,-0.38913 0.32653,-0.68927 0.58554,-0.90041 0.25901,-0.21114 0.58493,-0.31671 0.97775,-0.31671 0.2897,0 0.5438,0.0583 0.76231,0.17493 0.2185,0.11662 0.39895,0.28479 0.54135,0.50452 0.1424,0.21974 0.2541,0.48734 0.33513,0.80282 0.081,0.31549 0.12152,0.74084 0.12152,1.27605 0,0.63342 -0.0651,1.14469 -0.19518,1.53383 -0.13012,0.38913 -0.32469,0.68988 -0.5837,0.90225 -0.25902,0.21237 -0.58616,0.31855 -0.98143,0.31855 -0.52049,0 -0.92926,-0.18659 -1.22633,-0.55977 -0.35599,-0.44928 -0.53399,-1.1809 -0.53399,-2.19486 z m 0.6813,0 c 0,0.88629 0.10373,1.47613 0.31118,1.76952 0.20746,0.29338 0.4634,0.44008 0.76784,0.44008 0.30443,0 0.56038,-0.14731 0.76783,-0.44192 0.20746,-0.29462 0.31119,-0.88384 0.31119,-1.76768 0,-0.88875 -0.10373,-1.4792 -0.31119,-1.77137 -0.20745,-0.29215 -0.46585,-0.43823 -0.7752,-0.43823 -0.30443,0 -0.54749,0.12889 -0.72916,0.38668 -0.22833,0.32899 -0.34249,0.93662 -0.34249,1.82292 z"
           id="path3163"
           inkscape:connector-curvature="0" />
      </g>
      <rect
         style="fill:none;stroke:#000000;stroke-width:0.69662118;stroke-miterlimit:4;stroke-dasharray:none"
         id="rect3091"
         width="200.56779"
         height="206.53693"
         x="52.657162"
         y="281.79422"
         rx="0" />
      <path
         style="fill:none;stroke:#000000;stroke-width:1.2615006;stroke-linecap:butt;stroke-linejoin:miter;stroke-miterlimit:4;stroke-opacity:1;stroke-dasharray:5.04600204, 5.04600204;stroke-dashoffset:0"
         d="m 151.84617,482.84954 0,-147.75383"
         id="path3069"
         inkscape:connector-curvature="0" />
      <g
         style="font-size:12.72229099px;font-weight:normal;text-align:center;text-anchor:middle;fill:#000000;font-family:Sans"
         id="text3104">
        <path
           d="m 71.396812,322.49448 0,-9.10688 6.143723,0 0,1.07469 -4.938584,0 0,2.82027 4.273894,0 0,1.07469 -4.273894,0 0,4.13723 z"
           style=""
           id="path3116" />
        <path
           d="m 78.553101,319.19587 c -10e-7,-1.2217 0.339591,-2.12658 1.018777,-2.71466 0.567366,-0.48868 1.258974,-0.73302 2.074827,-0.73303 0.906955,1e-5 1.64826,0.29715 2.223916,0.89143 0.575644,0.5943 0.863469,1.41532 0.863475,2.46308 -6e-6,0.84899 -0.127353,1.51678 -0.382041,2.00339 -0.2547,0.48661 -0.625353,0.86451 -1.111958,1.1337 -0.486616,0.26919 -1.017746,0.40379 -1.593392,0.40379 -0.923529,0 -1.67001,-0.29611 -2.239447,-0.88833 -0.569439,-0.59221 -0.854158,-1.44533 -0.854157,-2.55937 z m 1.14923,0 c -2e-6,0.84485 0.184289,1.47744 0.552873,1.89779 0.36858,0.42035 0.832413,0.63052 1.391501,0.63052 0.554939,0 1.016702,-0.21121 1.385288,-0.63363 0.368577,-0.42242 0.552868,-1.0664 0.552873,-1.93195 -5e-6,-0.81584 -0.185332,-1.43394 -0.555979,-1.8543 -0.370657,-0.42034 -0.831384,-0.63051 -1.382182,-0.63052 -0.559088,10e-6 -1.022921,0.20914 -1.391501,0.62742 -0.368584,0.41828 -0.552875,1.04984 -0.552873,1.89467 z"
           style=""
           id="path3118" />
        <path
           d="m 86.038628,322.49448 0,-6.59721 1.006354,0 0,1.00014 c 0.256762,-0.46797 0.493856,-0.7765 0.71128,-0.92559 0.217419,-0.14909 0.456583,-0.22363 0.717492,-0.22364 0.376862,1e-5 0.759938,0.12011 1.149231,0.3603 l -0.385148,1.03742 c -0.273334,-0.16151 -0.546664,-0.24227 -0.819991,-0.24227 -0.244344,0 -0.463836,0.0735 -0.658478,0.22052 -0.194647,0.14703 -0.333383,0.35099 -0.416208,0.61189 -0.124243,0.39758 -0.186363,0.83242 -0.186361,1.30453 l 0,3.45391 z"
           style=""
           id="path3120" />
        <path
           d="m 90.300098,322.49448 0,-6.59721 1.000141,0 0,0.9256 c 0.207066,-0.32302 0.482467,-0.58289 0.826203,-0.77961 0.343731,-0.19671 0.73509,-0.29507 1.174079,-0.29508 0.488677,1e-5 0.889355,0.10147 1.202033,0.30439 0.312668,0.20294 0.533196,0.48662 0.661584,0.85106 0.521806,-0.77029 1.200991,-1.15544 2.037554,-1.15545 0.654329,1e-5 1.157505,0.18119 1.50953,0.54356 0.352007,0.36237 0.528015,0.92042 0.528025,1.67415 l 0,4.52859 -1.111958,0 0,-4.15587 c -9e-6,-0.44726 -0.03625,-0.76925 -0.108711,-0.96597 -0.07248,-0.19671 -0.203971,-0.35512 -0.394466,-0.47523 -0.190511,-0.12009 -0.414145,-0.18014 -0.670902,-0.18015 -0.46384,10e-6 -0.848988,0.15428 -1.155442,0.4628 -0.306468,0.30854 -0.459698,0.8024 -0.459693,1.48158 l 0,3.83284 -1.11817,0 0,-4.28632 c -4e-6,-0.49696 -0.09111,-0.86969 -0.27333,-1.11817 -0.182225,-0.24848 -0.480403,-0.37272 -0.894536,-0.37273 -0.314748,10e-6 -0.605679,0.0828 -0.872794,0.24849 -0.267121,0.16566 -0.46073,0.40793 -0.580827,0.72681 -0.120102,0.31889 -0.180152,0.77858 -0.18015,1.37907 l 0,3.42285 z"
           style=""
           id="path3122" />
        <path
           d="m 105.21525,321.6807 c -0.41415,0.35201 -0.81275,0.6005 -1.19582,0.74544 -0.38309,0.14495 -0.79412,0.21743 -1.2331,0.21743 -0.72474,0 -1.28175,-0.17705 -1.67104,-0.53114 -0.38929,-0.35408 -0.58393,-0.80653 -0.58393,-1.35733 0,-0.32302 0.0735,-0.6181 0.22052,-0.88522 0.14702,-0.26711 0.3396,-0.48143 0.57772,-0.64295 0.23813,-0.16151 0.50629,-0.28368 0.80447,-0.36651 0.21949,-0.058 0.5508,-0.11388 0.99393,-0.16772 0.90281,-0.10767 1.5675,-0.23606 1.99407,-0.38515 0.004,-0.15323 0.006,-0.25055 0.006,-0.29197 -1e-5,-0.45554 -0.10561,-0.7765 -0.31682,-0.96286 -0.28576,-0.25262 -0.71025,-0.37893 -1.27347,-0.37894 -0.52596,10e-6 -0.91421,0.0922 -1.16476,0.27644 -0.25055,0.18429 -0.43588,0.51043 -0.55598,0.9784 l -1.09332,-0.14909 c 0.0994,-0.46797 0.26298,-0.84587 0.49075,-1.1337 0.22778,-0.28782 0.55701,-0.50939 0.98772,-0.66469 0.4307,-0.1553 0.92973,-0.23295 1.4971,-0.23296 0.56323,1e-5 1.02085,0.0663 1.37287,0.19879 0.35201,0.13253 0.61085,0.29922 0.77651,0.50007 0.16564,0.20086 0.2816,0.45452 0.34787,0.76098 0.0373,0.1905 0.0559,0.53424 0.0559,1.0312 l 0,1.49089 c -1e-5,1.03949 0.0238,1.69693 0.0714,1.97233 0.0476,0.2754 0.14183,0.53941 0.28265,0.79204 l -1.16787,0 c -0.11596,-0.23192 -0.19051,-0.50318 -0.22363,-0.81378 z m -0.0932,-2.49725 c -0.40586,0.16566 -1.01464,0.30646 -1.82635,0.42242 -0.45969,0.0663 -0.78479,0.14081 -0.97529,0.22363 -0.19051,0.0828 -0.33753,0.20397 -0.44106,0.36341 -0.10353,0.15944 -0.1553,0.33649 -0.1553,0.53113 0,0.29818 0.11285,0.54666 0.33856,0.74545 0.2257,0.19878 0.55597,0.29818 0.99082,0.29818 0.4307,0 0.81378,-0.0942 1.14923,-0.28265 0.33545,-0.18843 0.58186,-0.44623 0.73924,-0.7734 0.12009,-0.25263 0.18014,-0.62535 0.18015,-1.11817 z"
           style=""
           id="path3124" />
        <path
           d="m 110.43337,321.49434 0.16152,0.98771 c -0.31475,0.0663 -0.59636,0.0994 -0.84484,0.0994 -0.40586,0 -0.7206,-0.0642 -0.94424,-0.19258 -0.22363,-0.12838 -0.381,-0.29714 -0.47211,-0.50628 -0.0911,-0.20914 -0.13667,-0.64916 -0.13667,-1.32006 l 0,-3.79557 -0.81999,0 0,-0.86969 0.81999,0 0,-1.63377 1.11196,-0.6709 0,2.30467 1.12438,0 0,0.86969 -1.12438,0 0,3.85769 c 0,0.31888 0.0197,0.52388 0.059,0.61499 0.0393,0.0911 0.10354,0.16359 0.19258,0.21742 0.089,0.0538 0.21638,0.0808 0.38204,0.0808 0.12424,0 0.28782,-0.0145 0.49075,-0.0435 z"
           style=""
           id="path3126" />
        <path
           d="m 118.9501,322.49448 -1.11817,0 0,-7.12523 c -0.26919,0.25677 -0.62224,0.51353 -1.05915,0.77029 -0.43692,0.25677 -0.82932,0.44935 -1.17719,0.57772 l 0,-1.08089 c 0.62535,-0.29403 1.17201,-0.65019 1.63998,-1.06848 0.46798,-0.41827 0.79929,-0.82412 0.99393,-1.21756 l 0.7206,0 z"
           style=""
           id="path3128" />
        <path
           d="m 68.706991,339.16639 c -0.617066,-0.77858 -1.138878,-1.68968 -1.565438,-2.7333 -0.426562,-1.04363 -0.639842,-2.12452 -0.639841,-3.2427 -10e-7,-0.98564 0.159441,-1.92987 0.478328,-2.83269 0.372722,-1.04776 0.948372,-2.09139 1.726951,-3.13088 l 0.801356,0 c -0.501109,0.86141 -0.832419,1.47641 -0.993929,1.84498 -0.252626,0.57152 -0.451412,1.16787 -0.596358,1.78907 -0.178081,0.77445 -0.26712,1.55302 -0.267118,2.33574 -2e-6,1.992 0.619132,3.98192 1.857405,5.96978 z"
           style=""
           id="path3130" />
        <path
           d="m 70.81909,339.0173 0,-9.12551 1.018778,0 0,0.85727 c 0.240197,-0.33545 0.511457,-0.58704 0.813779,-0.75477 0.302317,-0.16772 0.668828,-0.25158 1.099534,-0.25159 0.563222,10e-6 1.060186,0.14496 1.490893,0.43485 0.430697,0.2899 0.755795,0.69886 0.975293,1.22688 0.219486,0.52803 0.329233,1.10678 0.329239,1.73627 -6e-6,0.67504 -0.121141,1.28279 -0.363405,1.82324 -0.242276,0.54045 -0.594292,0.95458 -1.05605,1.24241 -0.461767,0.28782 -0.947342,0.43174 -1.456727,0.43174 -0.372726,0 -0.707142,-0.0787 -1.003247,-0.23606 -0.29611,-0.15737 -0.539415,-0.35616 -0.729916,-0.59636 l 0,3.21163 z m 1.012566,-5.78963 c -2e-6,0.84898 0.171865,1.4764 0.5156,1.88225 0.343731,0.40586 0.759939,0.60878 1.248624,0.60878 0.49696,0 0.922485,-0.21017 1.276577,-0.63052 0.354082,-0.42035 0.531126,-1.07158 0.531131,-1.95369 -5e-6,-0.8407 -0.172908,-1.47019 -0.518707,-1.88847 -0.345809,-0.41827 -0.75891,-0.62741 -1.239305,-0.62742 -0.476261,10e-6 -0.897645,0.22261 -1.264153,0.6678 -0.366514,0.4452 -0.549769,1.09229 -0.549767,1.94127 z"
           style=""
           id="path3132" />
        <path
           d="m 77.888411,336.489 0,-6.59721 1.006353,0 0,1.00014 c 0.256763,-0.46796 0.493856,-0.7765 0.71128,-0.92559 0.217419,-0.14908 0.456583,-0.22363 0.717493,-0.22364 0.376861,10e-6 0.759937,0.12011 1.14923,0.3603 l -0.385148,1.03742 c -0.273334,-0.16151 -0.546664,-0.24227 -0.819991,-0.24227 -0.244344,0 -0.463836,0.0735 -0.658478,0.22052 -0.194647,0.14703 -0.333382,0.35099 -0.416208,0.61189 -0.124243,0.39758 -0.186363,0.83242 -0.186361,1.30453 l 0,3.45391 z"
           style=""
           id="path3134" />
        <path
           d="m 86.666046,334.36447 1.155442,0.14288 c -0.182226,0.67505 -0.519748,1.19893 -1.012565,1.57165 -0.492828,0.37272 -1.122316,0.55909 -1.888465,0.55909 -0.964942,0 -1.730059,-0.29715 -2.295355,-0.89143 -0.565298,-0.59429 -0.847946,-1.42774 -0.847945,-2.50036 -10e-7,-1.10988 0.285753,-1.97128 0.857263,-2.58421 0.571508,-0.61292 1.312812,-0.91938 2.223916,-0.91939 0.882108,10e-6 1.602706,0.30026 2.161796,0.90075 0.559079,0.60051 0.838621,1.44534 0.838628,2.53452 -7e-6,0.0663 -0.0021,0.16566 -0.0062,0.29818 l -4.919949,0 c 0.04141,0.72474 0.24641,1.27968 0.614994,1.66483 0.368579,0.38515 0.828271,0.57772 1.379076,0.57772 0.409992,0 0.759937,-0.10767 1.049838,-0.32303 0.289891,-0.21535 0.519736,-0.55908 0.689538,-1.0312 z m -3.671325,-1.8077 3.683749,0 c -0.0497,-0.55494 -0.190508,-0.97115 -0.42242,-1.24863 -0.356162,-0.4307 -0.817925,-0.64605 -1.385288,-0.64605 -0.513533,0 -0.945271,0.17187 -1.295214,0.5156 -0.349948,0.34374 -0.543557,0.80343 -0.580827,1.37908 z"
           style=""
           id="path3136" />
        <path
           d="m 89.498744,336.489 0,-5.72752 -0.987717,0 0,-0.86969 0.987717,0 0,-0.70196 c -10e-7,-0.44312 0.03934,-0.77236 0.118029,-0.98772 0.107674,-0.28988 0.297142,-0.52491 0.568403,-0.70506 0.271258,-0.18015 0.651228,-0.27022 1.139912,-0.27023 0.314741,1e-5 0.662616,0.0373 1.043626,0.11182 l -0.167726,0.97529 c -0.23192,-0.0414 -0.451413,-0.0621 -0.658478,-0.0621 -0.339595,1e-5 -0.579794,0.0725 -0.720598,0.21742 -0.140809,0.14496 -0.211213,0.41622 -0.21121,0.81378 l 0,0.60878 1.285895,0 0,0.86969 -1.285895,0 0,5.72752 z"
           style=""
           id="path3138" />
        <path
           d="m 97.276238,334.36447 1.155443,0.14288 c -0.182227,0.67505 -0.519748,1.19893 -1.012566,1.57165 -0.492828,0.37272 -1.122315,0.55909 -1.888465,0.55909 -0.964942,0 -1.730059,-0.29715 -2.295354,-0.89143 -0.565298,-0.59429 -0.847947,-1.42774 -0.847946,-2.50036 -10e-7,-1.10988 0.285754,-1.97128 0.857264,-2.58421 0.571507,-0.61292 1.312812,-0.91938 2.223916,-0.91939 0.882107,10e-6 1.602705,0.30026 2.161795,0.90075 0.559079,0.60051 0.838621,1.44534 0.838628,2.53452 -7e-6,0.0663 -0.0021,0.16566 -0.0062,0.29818 l -4.919949,0 c 0.04141,0.72474 0.24641,1.27968 0.614994,1.66483 0.368579,0.38515 0.828271,0.57772 1.379076,0.57772 0.409992,0 0.759938,-0.10767 1.049838,-0.32303 0.289891,-0.21535 0.519737,-0.55908 0.689538,-1.0312 z m -3.671325,-1.8077 3.683749,0 c -0.0497,-0.55494 -0.190508,-0.97115 -0.42242,-1.24863 -0.356162,-0.4307 -0.817924,-0.64605 -1.385288,-0.64605 -0.513533,0 -0.945271,0.17187 -1.295214,0.5156 -0.349948,0.34374 -0.543556,0.80343 -0.580827,1.37908 z"
           style=""
           id="path3140" />
        <path
           d="m 99.829394,336.489 0,-6.59721 1.006356,0 0,1.00014 c 0.25676,-0.46796 0.49385,-0.7765 0.71128,-0.92559 0.21742,-0.14908 0.45658,-0.22363 0.71749,-0.22364 0.37686,10e-6 0.75994,0.12011 1.14923,0.3603 l -0.38515,1.03742 c -0.27333,-0.16151 -0.54666,-0.24227 -0.81999,-0.24227 -0.24434,0 -0.46383,0.0735 -0.65848,0.22052 -0.19464,0.14703 -0.33338,0.35099 -0.4162,0.61189 -0.12425,0.39758 -0.18637,0.83242 -0.18637,1.30453 l 0,3.45391 z"
           style=""
           id="path3142" />
        <path
           d="m 104.07844,336.489 0,-6.59721 1.00635,0 0,1.00014 c 0.25677,-0.46796 0.49386,-0.7765 0.71128,-0.92559 0.21742,-0.14908 0.45659,-0.22363 0.7175,-0.22364 0.37686,10e-6 0.75993,0.12011 1.14923,0.3603 l -0.38515,1.03742 c -0.27333,-0.16151 -0.54666,-0.24227 -0.81999,-0.24227 -0.24435,0 -0.46384,0.0735 -0.65848,0.22052 -0.19465,0.14703 -0.33338,0.35099 -0.41621,0.61189 -0.12424,0.39758 -0.18636,0.83242 -0.18636,1.30453 l 0,3.45391 z"
           style=""
           id="path3144" />
        <path
           d="m 112.85608,334.36447 1.15544,0.14288 c -0.18223,0.67505 -0.51975,1.19893 -1.01257,1.57165 -0.49282,0.37272 -1.12231,0.55909 -1.88846,0.55909 -0.96494,0 -1.73006,-0.29715 -2.29536,-0.89143 -0.56529,-0.59429 -0.84794,-1.42774 -0.84794,-2.50036 0,-1.10988 0.28575,-1.97128 0.85726,-2.58421 0.57151,-0.61292 1.31281,-0.91938 2.22392,-0.91939 0.88211,10e-6 1.6027,0.30026 2.16179,0.90075 0.55908,0.60051 0.83862,1.44534 0.83863,2.53452 -1e-5,0.0663 -0.002,0.16566 -0.006,0.29818 l -4.91995,0 c 0.0414,0.72474 0.24641,1.27968 0.61499,1.66483 0.36858,0.38515 0.82827,0.57772 1.37908,0.57772 0.40999,0 0.75994,-0.10767 1.04984,-0.32303 0.28989,-0.21535 0.51973,-0.55908 0.68954,-1.0312 z m -3.67133,-1.8077 3.68375,0 c -0.0497,-0.55494 -0.19051,-0.97115 -0.42242,-1.24863 -0.35616,-0.4307 -0.81792,-0.64605 -1.38529,-0.64605 -0.51353,0 -0.94527,0.17187 -1.29521,0.5156 -0.34995,0.34374 -0.54356,0.80343 -0.58083,1.37908 z"
           style=""
           id="path3146" />
        <path
           d="m 119.70176,336.489 0,-0.83242 c -0.41828,0.65434 -1.03328,0.98151 -1.84498,0.98151 -0.52596,0 -1.00946,-0.14495 -1.45052,-0.43485 -0.44105,-0.28989 -0.78272,-0.69471 -1.02499,-1.21445 -0.24227,-0.51974 -0.3634,-1.11714 -0.3634,-1.79218 0,-0.65848 0.10974,-1.25587 0.32924,-1.79218 0.21949,-0.5363 0.54873,-0.94733 0.98771,-1.23309 0.43899,-0.28575 0.92974,-0.42863 1.47226,-0.42864 0.39757,10e-6 0.75166,0.0839 1.06226,0.25159 0.3106,0.16773 0.56323,0.38619 0.75787,0.65537 l 0,-3.26754 1.11196,0 0,9.10688 z m -3.53466,-3.29239 c 0,0.84484 0.17808,1.4764 0.53424,1.89467 0.35615,0.41828 0.7765,0.62742 1.26104,0.62742 0.48868,0 0.90385,-0.19982 1.24552,-0.59946 0.34166,-0.39964 0.51249,-1.00946 0.5125,-1.82945 -1e-5,-0.90282 -0.17395,-1.56544 -0.52182,-1.98786 -0.34788,-0.42241 -0.77651,-0.63362 -1.28589,-0.63363 -0.49697,1e-5 -0.91214,0.20293 -1.24552,0.60878 -0.33338,0.40586 -0.50007,1.0457 -0.50007,1.91953 z"
           style=""
           id="path3148" />
        <path
           d="m 123.23642,339.16639 -0.80136,0 c 1.23827,-1.98786 1.85741,-3.97778 1.85741,-5.96978 0,-0.77858 -0.089,-1.55094 -0.26712,-2.3171 -0.14081,-0.6212 -0.33752,-1.21756 -0.59014,-1.78907 -0.16152,-0.37272 -0.4949,-0.99392 -1.00015,-1.86362 l 0.80136,0 c 0.77858,1.03949 1.35423,2.08312 1.72695,3.13088 0.31888,0.90282 0.47833,1.84705 0.47833,2.83269 0,1.11818 -0.21432,2.19907 -0.64295,3.2427 -0.42863,1.04362 -0.94941,1.95472 -1.56233,2.7333 z"
           style=""
           id="path3150" />
      </g>
      <g
         style="font-size:12.72229099px;font-weight:normal;fill:#000000;font-family:Sans"
         id="text3110">
        <path
           d="m 183.11168,330.75589 0,-9.10687 6.14372,0 0,1.07468 -4.93858,0 0,2.82027 4.27389,0 0,1.07469 -4.27389,0 0,4.13723 z"
           style=""
           id="path3154" />
        <path
           d="m 190.26797,327.45729 c 0,-1.2217 0.33959,-2.12659 1.01878,-2.71467 0.56736,-0.48868 1.25897,-0.73302 2.07482,-0.73302 0.90696,0 1.64826,0.29715 2.22392,0.89143 0.57564,0.59429 0.86347,1.41531 0.86347,2.46308 0,0.84898 -0.12735,1.51678 -0.38204,2.00339 -0.2547,0.48661 -0.62535,0.86451 -1.11196,1.1337 -0.48661,0.26918 -1.01774,0.40378 -1.59339,0.40378 -0.92353,0 -1.67001,-0.29611 -2.23944,-0.88832 -0.56944,-0.59222 -0.85416,-1.44534 -0.85416,-2.55937 z m 1.14923,0 c 0,0.84484 0.18429,1.47743 0.55287,1.89778 0.36858,0.42035 0.83241,0.63053 1.3915,0.63052 0.55494,10e-6 1.0167,-0.2112 1.38529,-0.63362 0.36858,-0.42242 0.55287,-1.06641 0.55287,-1.93195 0,-0.81585 -0.18533,-1.43395 -0.55598,-1.8543 -0.37065,-0.42035 -0.83138,-0.63052 -1.38218,-0.63053 -0.55909,1e-5 -1.02292,0.20915 -1.3915,0.62742 -0.36858,0.41828 -0.55287,1.04984 -0.55287,1.89468 z"
           style=""
           id="path3156" />
        <path
           d="m 197.7535,330.75589 0,-6.5972 1.00635,0 0,1.00014 c 0.25676,-0.46797 0.49386,-0.7765 0.71128,-0.9256 0.21742,-0.14908 0.45658,-0.22363 0.71749,-0.22363 0.37686,0 0.75994,0.1201 1.14923,0.3603 l -0.38514,1.03741 c -0.27334,-0.16151 -0.54667,-0.24227 -0.82,-0.24227 -0.24434,0 -0.46383,0.0735 -0.65847,0.22053 -0.19465,0.14702 -0.33339,0.35098 -0.41621,0.61188 -0.12425,0.39758 -0.18637,0.83242 -0.18636,1.30454 l 0,3.4539 z"
           style=""
           id="path3158" />
        <path
           d="m 202.01497,330.75589 0,-6.5972 1.00014,0 0,0.92559 c 0.20706,-0.32302 0.48246,-0.58289 0.8262,-0.77961 0.34373,-0.19671 0.73509,-0.29507 1.17408,-0.29507 0.48868,0 0.88935,0.10147 1.20203,0.30439 0.31267,0.20293 0.5332,0.48661 0.66159,0.85105 0.5218,-0.77029 1.20099,-1.15544 2.03755,-1.15544 0.65433,0 1.1575,0.18119 1.50953,0.54355 0.35201,0.36238 0.52801,0.92043 0.52802,1.67415 l 0,4.52859 -1.11195,0 0,-4.15587 c -1e-5,-0.44726 -0.0362,-0.76925 -0.10871,-0.96597 -0.0725,-0.19671 -0.20398,-0.35512 -0.39447,-0.47522 -0.19051,-0.1201 -0.41414,-0.18015 -0.6709,-0.18015 -0.46384,0 -0.84899,0.15427 -1.15544,0.4628 -0.30647,0.30853 -0.4597,0.80239 -0.4597,1.48157 l 0,3.83284 -1.11817,0 0,-4.28632 c 0,-0.49696 -0.0911,-0.86968 -0.27333,-1.11817 -0.18222,-0.24848 -0.4804,-0.37272 -0.89453,-0.37272 -0.31475,0 -0.60568,0.0828 -0.8728,0.24848 -0.26712,0.16566 -0.46073,0.40793 -0.58082,0.72681 -0.12011,0.31889 -0.18016,0.77858 -0.18015,1.37908 l 0,3.42284 z"
           style=""
           id="path3160" />
        <path
           d="m 216.93011,329.94211 c -0.41414,0.35202 -0.81274,0.6005 -1.19582,0.74545 -0.38308,0.14495 -0.79411,0.21742 -1.23309,0.21742 -0.72474,0 -1.28176,-0.17704 -1.67104,-0.53113 -0.38929,-0.35409 -0.58394,-0.80653 -0.58394,-1.35734 0,-0.32302 0.0735,-0.61809 0.22053,-0.88521 0.14702,-0.26712 0.33959,-0.48144 0.57772,-0.64295 0.23813,-0.16151 0.50628,-0.28368 0.80446,-0.36651 0.21949,-0.058 0.5508,-0.11389 0.99393,-0.16773 0.90282,-0.10767 1.56751,-0.23605 1.99407,-0.38515 0.004,-0.15322 0.006,-0.25054 0.006,-0.29196 -1e-5,-0.45555 -0.10561,-0.7765 -0.31682,-0.96287 -0.28576,-0.25262 -0.71025,-0.37893 -1.27347,-0.37894 -0.52596,1e-5 -0.91421,0.0922 -1.16476,0.27644 -0.25056,0.1843 -0.43588,0.51043 -0.55598,0.9784 l -1.09332,-0.14909 c 0.0994,-0.46797 0.26297,-0.84587 0.49075,-1.1337 0.22777,-0.28782 0.55701,-0.50938 0.98772,-0.66469 0.4307,-0.1553 0.92973,-0.23295 1.4971,-0.23295 0.56322,0 1.02085,0.0663 1.37287,0.19878 0.35201,0.13253 0.61084,0.29922 0.7765,0.50007 0.16565,0.20087 0.28161,0.45452 0.34788,0.76098 0.0373,0.19051 0.0559,0.53424 0.0559,1.0312 l 0,1.49089 c -1e-5,1.03949 0.0238,1.69693 0.0714,1.97233 0.0476,0.2754 0.14183,0.53942 0.28264,0.79204 l -1.16786,0 c -0.11597,-0.23192 -0.19051,-0.50318 -0.22364,-0.81378 z m -0.0932,-2.49725 c -0.40586,0.16566 -1.01464,0.30647 -1.82634,0.42242 -0.4597,0.0663 -0.78479,0.14081 -0.97529,0.22364 -0.19051,0.0828 -0.33753,0.20396 -0.44106,0.3634 -0.10354,0.15945 -0.1553,0.33649 -0.1553,0.53113 0,0.29818 0.11285,0.54667 0.33856,0.74545 0.2257,0.19879 0.55597,0.29818 0.99082,0.29818 0.4307,0 0.81377,-0.0942 1.14923,-0.28265 0.33545,-0.18843 0.58186,-0.44623 0.73923,-0.7734 0.1201,-0.25262 0.18015,-0.62534 0.18015,-1.11817 z"
           style=""
           id="path3162" />
        <path
           d="m 222.14824,329.75575 0.16151,0.98772 c -0.31474,0.0663 -0.59636,0.0994 -0.84484,0.0994 -0.40585,0 -0.7206,-0.0642 -0.94423,-0.19258 -0.22363,-0.12838 -0.38101,-0.29714 -0.47211,-0.50628 -0.0911,-0.20914 -0.13667,-0.64916 -0.13667,-1.32006 l 0,-3.79557 -0.81999,0 0,-0.86968 0.81999,0 0,-1.63377 1.11196,-0.67091 0,2.30468 1.12438,0 0,0.86968 -1.12438,0 0,3.85769 c 0,0.31889 0.0197,0.52389 0.059,0.61499 0.0393,0.0911 0.10353,0.16359 0.19258,0.21743 0.089,0.0538 0.21638,0.0808 0.38204,0.0808 0.12424,0 0.28782,-0.0145 0.49075,-0.0435 z"
           style=""
           id="path3164" />
        <path
           d="m 232.3298,329.6812 0,1.07469 -6.01948,0 c -0.008,-0.26919 0.0352,-0.52802 0.13045,-0.77651 0.15323,-0.40999 0.39861,-0.81377 0.73613,-1.21135 0.33752,-0.39757 0.82517,-0.85726 1.46294,-1.37907 0.98978,-0.81171 1.65861,-1.45466 2.00649,-1.92885 0.34787,-0.47418 0.52181,-0.92248 0.52182,-1.34491 -1e-5,-0.44312 -0.15842,-0.81688 -0.47523,-1.12127 -0.31682,-0.30439 -0.72992,-0.45658 -1.2393,-0.45659 -0.53838,1e-5 -0.96908,0.16152 -1.29211,0.48454 -0.32303,0.32303 -0.48661,0.7703 -0.49075,1.3418 l -1.14923,-0.11802 c 0.0787,-0.85726 0.37479,-1.51056 0.88832,-1.95991 0.51353,-0.44933 1.20307,-0.674 2.06862,-0.67401 0.87382,10e-6 1.56543,0.24228 2.07482,0.72681 0.50939,0.48455 0.76408,1.08505 0.76409,1.8015 -1e-5,0.36445 -0.0746,0.72268 -0.22364,1.07469 -0.14909,0.35202 -0.39654,0.72267 -0.74234,1.11195 -0.34581,0.3893 -0.92042,0.92353 -1.72384,1.60271 -0.67091,0.56323 -1.10161,0.94527 -1.29211,1.14613 -0.19051,0.20086 -0.34788,0.40275 -0.47212,0.60567 z"
           style=""
           id="path3166" />
      </g>
    </g>
  </g>
</svg>
