<?xml version="1.0" encoding="UTF-8" standalone="no"?>
<!-- Created with Inkscape (http://www.inkscape.org/) -->

<svg
   xmlns:dc="http://purl.org/dc/elements/1.1/"
   xmlns:cc="http://creativecommons.org/ns#"
   xmlns:rdf="http://www.w3.org/1999/02/22-rdf-syntax-ns#"
   xmlns:svg="http://www.w3.org/2000/svg"
   xmlns="http://www.w3.org/2000/svg"
   xmlns:sodipodi="http://sodipodi.sourceforge.net/DTD/sodipodi-0.dtd"
   xmlns:inkscape="http://www.inkscape.org/namespaces/inkscape"
   width="57.96875"
   height="66.90625"
   id="svg2"
   version="1.1"
   inkscape:version="0.48.2 r9819"
   sodipodi:docname="HydraulicTurboPump.svg">
  <defs
     id="defs4" />
  <sodipodi:namedview
     id="base"
     pagecolor="#ffffff"
     bordercolor="#666666"
     borderopacity="1.0"
     inkscape:pageopacity="0.0"
     inkscape:pageshadow="2"
     inkscape:zoom="5.6"
     inkscape:cx="28.074248"
     inkscape:cy="24.799787"
     inkscape:document-units="px"
     inkscape:current-layer="layer1"
     showgrid="false"
     fit-margin-top="0"
     fit-margin-left="0"
     fit-margin-right="0"
     fit-margin-bottom="0"
     inkscape:window-width="986"
     inkscape:window-height="716"
     inkscape:window-x="248"
     inkscape:window-y="155"
     inkscape:window-maximized="0" />
  <metadata
     id="metadata7">
    <rdf:RDF>
      <cc:Work
         rdf:about="">
        <dc:format>image/svg+xml</dc:format>
        <dc:type
           rdf:resource="http://purl.org/dc/dcmitype/StillImage" />
        <dc:title></dc:title>
      </cc:Work>
    </rdf:RDF>
  </metadata>
  <g
     inkscape:label="Layer 1"
     inkscape:groupmode="layer"
     id="layer1"
     transform="translate(-213.03125,-245.71875)">
    <path
       style="fill:#000000;fill-opacity:1;stroke:#000000;stroke-width:1;stroke-miterlimit:4;stroke-opacity:1;stroke-dasharray:none"
       d="m 218.62926,310.93446 c 0.22354,-0.34833 2.83952,-3.9283 5.81331,-7.95546 l 5.40688,-7.32213 -2.39448,-2.26722 c -2.45758,-2.32697 -7.15386,-10.92105 -7.15386,-12.84524 0,-0.8319 -0.25141,-0.39014 -1.75222,-0.39014 -1.28957,0 -1.84643,0.22922 -1.84643,0.76001 0,0.50667 -0.52756,0.76001 -1.58266,0.76001 l -1.58266,0 0,-5.32004 0,-5.32003 1.58266,0 c 1.0551,0 1.58266,0.25334 1.58266,0.76001 0,0.5308 0.55686,0.76001 1.84643,0.76001 1.50081,0 1.84643,0.80367 1.84643,-0.0283 0,-0.56291 1.04202,-4.00917 2.3156,-6.44194 4.61093,-8.80776 11.98821,-13.28996 21.87396,-13.28996 5.67093,0 11.81545,1.97264 15.50868,4.97892 0.869,0.70737 0.92322,0.47912 0.92322,-3.88706 0,-2.75458 -0.21428,-4.63855 -0.52755,-4.63855 -0.29016,0 -0.52756,-0.68401 -0.52756,-1.52001 l 0,-1.52001 5.27551,0 5.27552,0 0,1.52001 c 0,0.836 -0.23739,1.52001 -0.52755,1.52001 -0.33925,0 -0.53426,5.28984 -0.54635,14.82009 -0.0133,10.47097 -0.22308,15.63786 -0.71494,17.60676 -1.10846,4.43719 -3.63565,8.68608 -6.83855,11.49748 l -2.89535,2.54143 5.38608,7.29397 c 2.96234,4.01168 5.56897,7.57897 5.79251,7.9273 0.32303,0.50341 -4.96374,0.63334 -25.76964,0.63334 -20.80591,0 -26.09269,-0.12993 -25.76965,-0.63334 z m 50.74041,-0.28103 c -0.0967,-0.22423 -2.5418,-3.62229 -5.43353,-7.55125 l -5.25769,-7.14355 -3.53007,1.70735 c -6.9233,3.34851 -14.10521,3.32089 -21.13953,-0.0814 -2.034,-0.98377 -3.7636,-1.71702 -3.84353,-1.62948 -0.64964,0.7115 -10.82511,14.69055 -10.82511,14.87153 0,0.12893 11.2962,0.23441 25.10266,0.23441 13.80645,0 25.02353,-0.18346 24.9268,-0.40769 z m -21.09303,-11.26879 c 7.04738,-1.09828 14.6305,-6.19698 17.59577,-11.83095 2.75924,-5.24254 3.01825,-7.24432 3.03884,-23.48618 l 0.0188,-14.82009 -3.67441,0 -3.67441,0 -0.15034,5.18355 -0.15034,5.18354 -1.0551,-1.03789 c -3.11416,-3.06336 -9.67318,-5.27583 -15.64057,-5.27583 -9.82907,0 -16.91197,4.01585 -21.34808,12.78328 -3.38012,6.68038 -4.51236,6.47017 10.37249,6.47017 l 12.68642,0 1.2937,1.34065 c 1.58115,1.63857 1.64314,3.1627 0.2003,4.92439 l -1.0934,1.33499 -12.88672,0 c -12.58217,0 -13.07513,-0.69959 -13.07513,0.30078 0,1.76637 4.41243,9.98583 6.70263,12.28346 3.55026,3.56181 10.94026,6.7097 16.69804,7.11283 0.43523,0.0304 2.29891,-0.17955 4.14151,-0.4667 z M 216.1749,276.35425 c 0,-4.47558 -0.0741,-4.81336 -1.0551,-4.81336 -0.98106,0 -1.05509,0.33778 -1.05509,4.81336 0,4.47559 0.0741,4.81337 1.05509,4.81337 0.98107,0 1.0551,-0.33778 1.0551,-4.81337 z m 31.32864,2.04451 c 1.12046,-1.64235 1.07503,-2.39553 -0.2414,-4.00286 l -1.09339,-1.335 -14.73314,0 -14.73315,0 0,3.29335 0,3.29336 14.97454,0 14.97454,0 z m 22.48161,-30.67134 c 0,-0.93827 -0.3517,-1.01335 -4.74797,-1.01335 -4.39626,0 -4.74795,0.075 -4.74795,1.01335 0,0.93828 0.35169,1.01334 4.74795,1.01334 4.39627,0 4.74797,-0.075 4.74797,-1.01334 z"
       id="path2996"
       inkscape:connector-curvature="0"
       sodipodi:nodetypes="sscssssscccsssssssssscccssssscsssscscsssssccsscccccsssscsscssscccssssssscccccccssssss" />
    <path
       style="fill:#ffffff;fill-opacity:1;stroke:#ffffff;stroke-width:0.17857143;stroke-miterlimit:4;stroke-opacity:1;stroke-dasharray:none"
       d="m 80.967798,118.1514 c -6.123708,-0.80897 -13.190685,-4.08362 -16.053101,-7.43858 -1.960166,-2.29745 -5.999822,-9.66949 -6.000381,-10.950201 -6.7e-5,-0.155125 3.185703,-0.184825 12.81241,-0.119445 l 12.8125,0.08702 0.942891,-1.219839 c 1.962613,-2.539077 1.87907,-4.068989 -0.35311,-6.466439 l -1.017363,-1.092688 -9.696923,-0.0052 c -9.521801,-0.0051 -13.702628,-0.152475 -14.660724,-0.516743 -0.367818,-0.139844 -0.482628,-0.303926 -0.482628,-0.689758 0,-0.62069 2.341469,-5.259425 3.683098,-7.296668 1.180964,-1.793275 3.419226,-4.199499 5.04279,-5.421208 2.553323,-1.921338 6.067849,-3.317415 9.696071,-3.851572 2.914914,-0.429143 7.558529,-0.273298 10.14947,0.340627 4.30843,1.020885 7.297719,2.494615 9.730887,4.797359 l 1.647236,1.558939 0.113239,-1.198955 c 0.06228,-0.659425 0.114107,-2.002526 0.115164,-2.984669 0.0011,-0.982143 0.05431,-2.930803 0.118333,-4.330357 l 0.116408,-2.544643 3.097225,0 3.09722,0 -0.0103,7.098214 c -0.0137,9.4259 -0.27138,20.659645 -0.51716,22.544643 -0.33172,2.544183 -0.85986,4.267653 -2.05204,6.696423 -1.697,3.45721 -4.138153,6.16721 -7.650098,8.49261 -3.70783,2.45511 -7.93497,3.99124 -12.002538,4.36171 -0.6875,0.0626 -1.450892,0.13778 -1.696428,0.16703 -0.245536,0.0292 -0.6875,0.0213 -0.982143,-0.0176 l -5e-6,-1e-5 z"
       id="path3808"
       inkscape:connector-curvature="0"
       transform="translate(162.5127,181.05256)" />
    <path
       style="fill:#ffffff;fill-opacity:1;stroke:#ffffff;stroke-width:0.17857143;stroke-miterlimit:4;stroke-opacity:1;stroke-dasharray:none"
       d="m 58.266118,129.20742 c -0.213587,-0.13894 1.553269,-2.68458 6.746896,-9.72076 l 2.860466,-3.87527 0.88634,0.34936 c 0.487487,0.19215 1.194771,0.50671 1.571743,0.69903 4.08648,2.08477 9.228306,3.23189 13.22552,2.95058 3.777109,-0.26583 6.762547,-1.14645 10.892857,-3.21309 l 1.517858,-0.75948 1.964285,2.68395 c 1.080357,1.47617 3.277177,4.49982 4.881817,6.71922 l 2.91753,4.03526 -2.4711,0.11214 c -3.517204,0.15962 -44.751291,0.17708 -44.994212,0.0191 z"
       id="path3810"
       inkscape:connector-curvature="0"
       transform="translate(162.5127,181.05256)" />
    <path
       style="fill:#ffffff;fill-opacity:1;stroke:#ffffff;stroke-width:0.17857143;stroke-miterlimit:4;stroke-opacity:1;stroke-dasharray:none"
       d="m 52.24207,98.694158 c -0.146943,-1.072063 -0.146943,-5.663805 0,-6.735867 0.113324,-0.826791 0.456114,-1.105778 0.670908,-0.546033 0.141359,0.368375 0.141359,7.459557 0,7.827933 -0.214794,0.559744 -0.557584,0.280758 -0.670908,-0.546033 z"
       id="path3812"
       inkscape:connector-curvature="0"
       transform="translate(162.5127,181.05256)" />
    <path
       style="fill:#ffffff;fill-opacity:1;stroke:#ffffff;stroke-width:0.17857143;stroke-miterlimit:4;stroke-opacity:1;stroke-dasharray:none"
       d="m 54.807084,95.326224 0,-2.767857 14.279728,0 14.279727,0 0.898844,1.187345 c 0.563506,0.744374 0.898843,1.366943 0.898843,1.668743 0,0.26477 -0.319677,0.976 -0.710391,1.580513 l -0.710391,1.099113 -14.468181,0 -14.468179,0 0,-2.767857 z"
       id="path3814"
       inkscape:connector-curvature="0"
       transform="translate(162.5127,181.05256)" />
    <path
       style="fill:#ffffff;fill-opacity:1;stroke:#ffffff;stroke-width:0.17857143;stroke-miterlimit:4;stroke-opacity:1;stroke-dasharray:none"
       d="m 98.63403,66.824117 c -0.258238,-0.417838 0.48805,-0.510281 4.11948,-0.510281 3.67078,0 4.62965,0.125893 4.01786,0.527511 -0.38775,0.254541 -7.979311,0.238466 -8.13734,-0.01723 z"
       id="path3816"
       inkscape:connector-curvature="0"
       transform="translate(162.5127,181.05256)" />
  </g>
</svg>
