<?xml version="1.0" encoding="UTF-8" standalone="no"?>
<!-- Created with Inkscape (http://www.inkscape.org/) -->

<svg
   xmlns:dc="http://purl.org/dc/elements/1.1/"
   xmlns:cc="http://creativecommons.org/ns#"
   xmlns:rdf="http://www.w3.org/1999/02/22-rdf-syntax-ns#"
   xmlns:svg="http://www.w3.org/2000/svg"
   xmlns="http://www.w3.org/2000/svg"
   xmlns:sodipodi="http://sodipodi.sourceforge.net/DTD/sodipodi-0.dtd"
   xmlns:inkscape="http://www.inkscape.org/namespaces/inkscape"
   width="25"
   height="25"
   id="svg3464"
   sodipodi:version="0.32"
   inkscape:version="0.48.0 r9654"
   version="1.0"
   sodipodi:docname="abs.svg"
   inkscape:output_extension="org.inkscape.output.svg.inkscape">
  <sodipodi:namedview
     id="base"
     pagecolor="#ffffff"
     bordercolor="#666666"
     borderopacity="1.0"
     gridtolerance="10000"
     guidetolerance="10"
     objecttolerance="10"
     inkscape:pageopacity="0.0"
     inkscape:pageshadow="2"
     inkscape:zoom="19.721032"
     inkscape:cx="10.775537"
     inkscape:cy="11.995688"
     inkscape:document-units="px"
     inkscape:current-layer="layer1"
     showgrid="false"
     inkscape:window-width="1598"
     inkscape:window-height="948"
     inkscape:window-x="0"
     inkscape:window-y="68"
     inkscape:window-maximized="0" />
  <defs
     id="defs3466">
    <inkscape:perspective
       sodipodi:type="inkscape:persp3d"
       inkscape:vp_x="0 : 526.18109 : 1"
       inkscape:vp_y="0 : 1000 : 0"
       inkscape:vp_z="744.09448 : 526.18109 : 1"
       inkscape:persp3d-origin="372.04724 : 350.78739 : 1"
       id="perspective3472" />
    <inkscape:perspective
       id="perspective3638"
       inkscape:persp3d-origin="0.5 : 0.33333333 : 1"
       inkscape:vp_z="1 : 0.5 : 1"
       inkscape:vp_y="0 : 1000 : 0"
       inkscape:vp_x="0 : 0.5 : 1"
       sodipodi:type="inkscape:persp3d" />
  </defs>
  <metadata
     id="metadata3469">
    <rdf:RDF>
      <cc:Work
         rdf:about="">
        <dc:format>image/svg+xml</dc:format>
        <dc:type
           rdf:resource="http://purl.org/dc/dcmitype/StillImage" />
      </cc:Work>
    </rdf:RDF>
  </metadata>
  <g
     inkscape:label="Layer 1"
     inkscape:groupmode="layer"
     id="layer1"
     transform="translate(-221.51094,-603.1616)">
    <rect
       style="fill:#ffffff;stroke:#000000;stroke-width:2;stroke-miterlimit:3;stroke-dasharray:none"
       id="rect3585"
       width="22.596849"
       height="22.596849"
       x="222.75716"
       y="604.40784" />
    <g
       style="font-size:14px;font-style:normal;font-variant:normal;font-weight:normal;font-stretch:normal;line-height:125%;letter-spacing:0px;word-spacing:0px;fill:#000000;fill-opacity:1;stroke:none;font-family:Calibri;-inkscape-font-specification:Calibri"
       id="text2989">
      <path
         d="m 230.31343,619.80981 c 0,0.0593 -0.0212,0.1058 -0.0635,0.13965 -0.0423,0.0339 -0.10897,0.0582 -0.19995,0.073 -0.091,0.0148 -0.22534,0.0222 -0.40307,0.0222 -0.19044,0 -0.32903,-0.007 -0.41577,-0.0222 -0.0868,-0.0148 -0.14812,-0.0391 -0.18409,-0.073 -0.036,-0.0339 -0.054,-0.0804 -0.0539,-0.13965 l 0,-0.45068 c -0.23275,0.24968 -0.4983,0.44434 -0.79663,0.58399 -0.29835,0.13964 -0.62948,0.20947 -0.99341,0.20947 -0.30046,0 -0.57658,-0.0392 -0.82837,-0.11743 -0.25179,-0.0783 -0.46973,-0.19467 -0.65381,-0.34912 -0.18408,-0.15446 -0.3269,-0.34595 -0.42847,-0.57447 -0.10156,-0.22851 -0.15234,-0.49511 -0.15234,-0.7998 0,-0.33008 0.0645,-0.61678 0.1936,-0.86011 0.12907,-0.24332 0.32162,-0.44433 0.57764,-0.60303 0.25602,-0.15869 0.57446,-0.27612 0.95532,-0.35229 0.38086,-0.0762 0.82308,-0.11426 1.32666,-0.11426 l 0.55225,0 0,-0.34277 c 0,-0.17773 -0.018,-0.33325 -0.054,-0.46656 -0.036,-0.13329 -0.0952,-0.24438 -0.17773,-0.33325 -0.0825,-0.0889 -0.19255,-0.15445 -0.33008,-0.19678 -0.13753,-0.0423 -0.30786,-0.0635 -0.51098,-0.0635 -0.26661,0 -0.50465,0.0296 -0.71412,0.0889 -0.20947,0.0592 -0.39461,0.12484 -0.55542,0.19677 -0.1608,0.072 -0.29516,0.13754 -0.40307,0.19678 -0.10791,0.0593 -0.19572,0.0889 -0.26343,0.0889 -0.0465,0 -0.0878,-0.0148 -0.12378,-0.0444 -0.036,-0.0296 -0.0656,-0.0719 -0.0889,-0.12695 -0.0233,-0.055 -0.0413,-0.12272 -0.054,-0.20312 -0.0127,-0.0804 -0.019,-0.16927 -0.019,-0.26661 0,-0.13118 0.0106,-0.23485 0.0317,-0.31103 0.0212,-0.0762 0.0614,-0.14493 0.12061,-0.2063 0.0592,-0.0614 0.16292,-0.12906 0.31104,-0.20313 0.14811,-0.074 0.32161,-0.14281 0.5205,-0.20629 0.19889,-0.0635 0.41577,-0.11531 0.65064,-0.15552 0.23486,-0.0402 0.47713,-0.0603 0.7268,-0.0603 0.44434,0 0.82414,0.0434 1.13941,0.13012 0.31526,0.0868 0.57446,0.22006 0.77759,0.3999 0.20312,0.17986 0.35123,0.41155 0.44433,0.69507 0.0931,0.28354 0.13965,0.61996 0.13965,1.00928 z m -1.56787,-2.4248 -0.60938,0 c -0.25814,0 -0.47819,0.019 -0.66015,0.0571 -0.18197,0.0381 -0.33008,0.0952 -0.44434,0.17139 -0.11426,0.0762 -0.19783,0.16821 -0.25073,0.27612 -0.0529,0.10791 -0.0794,0.23169 -0.0794,0.37134 0,0.23698 0.0751,0.42317 0.22535,0.55859 0.15022,0.13542 0.35864,0.20313 0.62524,0.20313 0.22428,0 0.43058,-0.0571 0.6189,-0.17139 0.18831,-0.11426 0.37979,-0.28141 0.57446,-0.50147 z"
         style="font-size:13px;font-weight:bold;-inkscape-font-specification:Calibri Bold"
         id="path2994" />
      <path
         d="m 237.61324,616.88354 c -1e-5,0.50359 -0.055,0.95639 -0.16504,1.3584 -0.11004,0.40202 -0.26873,0.7448 -0.47608,1.02832 -0.20736,0.28353 -0.46232,0.50147 -0.76489,0.65381 -0.30258,0.15235 -0.64641,0.22852 -1.03149,0.22852 -0.19044,0 -0.36817,-0.018 -0.53321,-0.054 -0.16504,-0.036 -0.32267,-0.0942 -0.4729,-0.17456 -0.15023,-0.0804 -0.29834,-0.18196 -0.44433,-0.30469 -0.146,-0.12272 -0.29517,-0.27083 -0.44751,-0.44433 l 0,0.61572 c -1e-5,0.0466 -0.0116,0.0857 -0.0349,0.11743 -0.0233,0.0317 -0.0614,0.0582 -0.11425,0.0794 -0.0529,0.0212 -0.12378,0.036 -0.21265,0.0444 -0.0889,0.008 -0.19678,0.0127 -0.32373,0.0127 -0.13119,0 -0.24015,-0.004 -0.3269,-0.0127 -0.0868,-0.008 -0.15658,-0.0233 -0.20948,-0.0444 -0.0529,-0.0212 -0.0899,-0.0476 -0.11108,-0.0794 -0.0212,-0.0317 -0.0317,-0.0709 -0.0317,-0.11743 l 0,-8.34717 c 0,-0.0423 0.0127,-0.0804 0.0381,-0.11425 0.0254,-0.0339 0.0688,-0.0624 0.13012,-0.0857 0.0614,-0.0233 0.14282,-0.0412 0.24439,-0.0539 0.10156,-0.0127 0.23063,-0.019 0.3872,-0.019 0.15658,10e-6 0.28565,0.006 0.38721,0.019 0.10156,0.0127 0.18302,0.0307 0.24439,0.0539 0.0614,0.0233 0.10473,0.0518 0.13012,0.0857 0.0254,0.0339 0.0381,0.0719 0.0381,0.11425 l 0,3.1294 c 0.14388,-0.14388 0.28776,-0.2666 0.43164,-0.36817 0.14388,-0.10155 0.28776,-0.18513 0.43164,-0.25073 0.14388,-0.0656 0.29199,-0.11319 0.44434,-0.14282 0.15234,-0.0296 0.31314,-0.0444 0.48242,-0.0444 0.41894,0 0.77441,0.0836 1.0664,0.25073 0.29199,0.16716 0.53003,0.3925 0.71412,0.67602 0.18407,0.28354 0.31843,0.61467 0.40307,0.99341 0.0846,0.37875 0.12695,0.77759 0.12696,1.19653 z m -1.65674,0.11426 c -1e-5,-0.2412 -0.018,-0.47395 -0.054,-0.69824 -0.036,-0.22428 -0.0984,-0.42317 -0.18725,-0.59668 -0.0889,-0.1735 -0.20419,-0.31209 -0.34595,-0.41577 -0.14177,-0.10367 -0.32056,-0.15551 -0.53638,-0.15552 -0.1058,1e-5 -0.20947,0.0148 -0.31103,0.0444 -0.10157,0.0296 -0.20631,0.0804 -0.31421,0.15234 -0.10792,0.0719 -0.219,0.16504 -0.33325,0.2793 -0.11426,0.11426 -0.23487,0.25602 -0.36182,0.42529 l 0,1.87891 c 0.22428,0.28776 0.43904,0.50675 0.64429,0.65698 0.20523,0.15023 0.42,0.22534 0.64428,0.22534 0.20736,0 0.38297,-0.0529 0.52686,-0.15869 0.14388,-0.10579 0.26342,-0.24333 0.35864,-0.4126 0.0952,-0.16927 0.16398,-0.36181 0.2063,-0.57764 0.0423,-0.21581 0.0635,-0.43163 0.0635,-0.64746 z"
         style="font-size:13px;font-weight:bold;-inkscape-font-specification:Calibri Bold"
         id="path2996" />
      <path
         d="m 242.88179,618.19116 c 0,0.32162 -0.0603,0.60515 -0.18091,0.85059 -0.12061,0.24544 -0.29094,0.45068 -0.51098,0.61572 -0.22006,0.16504 -0.48031,0.28882 -0.78077,0.37134 -0.30045,0.0825 -0.6263,0.12378 -0.97754,0.12378 -0.21159,0 -0.41365,-0.0159 -0.6062,-0.0476 -0.19254,-0.0317 -0.36499,-0.0719 -0.51733,-0.12061 -0.15235,-0.0487 -0.2793,-0.0984 -0.38086,-0.14916 -0.10156,-0.0508 -0.17562,-0.0984 -0.22217,-0.14283 -0.0465,-0.0444 -0.0825,-0.11425 -0.10791,-0.20947 -0.0254,-0.0952 -0.0381,-0.23592 -0.0381,-0.42212 0,-0.12272 0.004,-0.22111 0.0127,-0.29517 0.008,-0.0741 0.0212,-0.13329 0.0381,-0.17773 0.0169,-0.0444 0.0381,-0.0741 0.0635,-0.0889 0.0254,-0.0148 0.0571,-0.0222 0.0952,-0.0222 0.0465,0 0.11531,0.0264 0.2063,0.0793 0.091,0.0529 0.20418,0.11109 0.3396,0.17456 0.13541,0.0635 0.29305,0.12273 0.4729,0.17774 0.17985,0.055 0.38403,0.0825 0.61255,0.0825 0.14387,0 0.27189,-0.0148 0.38403,-0.0444 0.11214,-0.0296 0.20947,-0.0719 0.29199,-0.12695 0.0825,-0.055 0.14494,-0.12484 0.18726,-0.20947 0.0423,-0.0846 0.0635,-0.18197 0.0635,-0.29199 0,-0.12696 -0.0391,-0.23592 -0.11743,-0.32691 -0.0783,-0.091 -0.18197,-0.17033 -0.31103,-0.23804 -0.12907,-0.0677 -0.27507,-0.13118 -0.43799,-0.19043 -0.16293,-0.0592 -0.33008,-0.12483 -0.50147,-0.19677 -0.17138,-0.0719 -0.33854,-0.15446 -0.50146,-0.24756 -0.16292,-0.0931 -0.30892,-0.20736 -0.43799,-0.34278 -0.12907,-0.13541 -0.23275,-0.29833 -0.31103,-0.48876 -0.0783,-0.19043 -0.11744,-0.41895 -0.11744,-0.68555 0,-0.27083 0.0529,-0.51945 0.1587,-0.74585 0.10579,-0.2264 0.25813,-0.42 0.45703,-0.58081 0.19889,-0.1608 0.44116,-0.28564 0.7268,-0.37451 0.28565,-0.0889 0.6062,-0.1333 0.96167,-0.1333 0.17774,0 0.35018,0.0127 0.51734,0.0381 0.16715,0.0254 0.31843,0.0571 0.45386,0.0952 0.13541,0.0381 0.24967,0.0793 0.34277,0.12378 0.0931,0.0444 0.15974,0.0825 0.19995,0.11425 0.0402,0.0317 0.0688,0.0635 0.0857,0.0952 0.0169,0.0317 0.0296,0.0698 0.0381,0.11426 0.008,0.0444 0.0159,0.0994 0.0222,0.16504 0.006,0.0656 0.01,0.14705 0.01,0.24438 -1e-5,0.11426 -0.003,0.20736 -0.01,0.2793 -0.006,0.0719 -0.0169,0.12907 -0.0317,0.17138 -0.0148,0.0423 -0.0349,0.0709 -0.0603,0.0857 -0.0254,0.0148 -0.055,0.0222 -0.0889,0.0222 -0.0381,1e-5 -0.0973,-0.0222 -0.17774,-0.0666 -0.0804,-0.0444 -0.18091,-0.092 -0.30151,-0.14282 -0.12061,-0.0508 -0.26026,-0.0984 -0.41895,-0.14282 -0.15869,-0.0444 -0.3396,-0.0666 -0.54272,-0.0666 -0.14388,0 -0.26872,0.0148 -0.37451,0.0444 -0.1058,0.0296 -0.19255,0.072 -0.26026,0.12696 -0.0677,0.055 -0.11849,0.11955 -0.15234,0.1936 -0.0339,0.0741 -0.0508,0.15341 -0.0508,0.23804 0,0.13119 0.0402,0.24121 0.1206,0.33007 0.0804,0.0889 0.1862,0.16716 0.31739,0.23487 0.13118,0.0677 0.28035,0.13119 0.44751,0.19043 0.16715,0.0593 0.33642,0.12378 0.50781,0.1936 0.17138,0.0698 0.34065,0.15129 0.50781,0.24439 0.16715,0.0931 0.31632,0.20736 0.44751,0.34277 0.13118,0.13542 0.23698,0.29728 0.31738,0.48559 0.0804,0.18832 0.12061,0.41155 0.12061,0.66968 z"
         style="font-size:13px;font-weight:bold;-inkscape-font-specification:Calibri Bold"
         id="path2998" />
    </g>
  </g>
</svg>
