<?xml version="1.0" encoding="UTF-8" standalone="no"?>
<!-- Created with Inkscape (http://www.inkscape.org/) -->

<svg
   xmlns:dc="http://purl.org/dc/elements/1.1/"
   xmlns:cc="http://creativecommons.org/ns#"
   xmlns:rdf="http://www.w3.org/1999/02/22-rdf-syntax-ns#"
   xmlns:svg="http://www.w3.org/2000/svg"
   xmlns="http://www.w3.org/2000/svg"
   xmlns:sodipodi="http://sodipodi.sourceforge.net/DTD/sodipodi-0.dtd"
   xmlns:inkscape="http://www.inkscape.org/namespaces/inkscape"
   version="1.0"
   width="46"
   height="55"
   id="svg2"
   sodipodi:version="0.32"
   inkscape:version="0.48.0 r9654"
   sodipodi:docname="con2sep2.svg"
   inkscape:output_extension="org.inkscape.output.svg.inkscape">
  <metadata
     id="metadata17">
    <rdf:RDF>
      <cc:Work
         rdf:about="">
        <dc:format>image/svg+xml</dc:format>
        <dc:type
           rdf:resource="http://purl.org/dc/dcmitype/StillImage" />
        <dc:title></dc:title>
      </cc:Work>
    </rdf:RDF>
  </metadata>
  <sodipodi:namedview
     inkscape:window-height="1020"
     inkscape:window-width="1920"
     inkscape:pageshadow="2"
     inkscape:pageopacity="0.0"
     guidetolerance="10.0"
     gridtolerance="10"
     objecttolerance="10.0"
     borderopacity="1.0"
     bordercolor="#666666"
     pagecolor="#ffffff"
     id="base"
     showgrid="true"
     inkscape:zoom="10.578571"
     inkscape:cx="35.393819"
     inkscape:cy="29.072716"
     inkscape:window-x="-4"
     inkscape:window-y="-4"
     inkscape:current-layer="svg2"
     inkscape:window-maximized="1"
     borderlayer="true"
     showborder="true"
     fit-margin-top="0"
     fit-margin-left="0"
     fit-margin-right="0"
     fit-margin-bottom="0">
    <inkscape:grid
       empspacing="5"
       visible="true"
       enabled="true"
       snapvisiblegridlinesonly="true"
       spacingx="1px"
       spacingy="1px"
       type="xygrid"
       id="grid3460"
       dotted="false" />
  </sodipodi:namedview>
  <defs
     id="defs4">
    <linearGradient
       id="linearGradient5994">
      <stop
         style="stop-color:#808000;stop-opacity:1;"
         offset="0"
         id="stop5996" />
      <stop
         style="stop-color:#808000;stop-opacity:0;"
         offset="1"
         id="stop5998" />
    </linearGradient>
    <inkscape:perspective
       sodipodi:type="inkscape:persp3d"
       inkscape:vp_x="0 : 10.000112 : 1"
       inkscape:vp_y="0 : 1000 : 0"
       inkscape:vp_z="33.335991 : 10.000112 : 1"
       inkscape:persp3d-origin="16.667995 : 6.6667411 : 1"
       id="perspective19" />
  </defs>
  <path
     style="fill:#008080;fill-opacity:1;fill-rule:evenodd;stroke:#000000;stroke-width:1.5;stroke-linecap:butt;stroke-linejoin:round;stroke-miterlimit:4;stroke-opacity:1;stroke-dasharray:none;marker-start:none"
     d="m 20,1 0,5 c 0,4 -5.921021,2.640607 -8,5 -3.1552367,3.580818 -6,13 -6,13 l -5,0 0,3 0,2 0,2 5,0 c 6,16 32,15 32,15 l 7,0 0,-7 -7,0 c 0,0 -13.386342,0.09806 -19,-3 -3.102304,-1.712094 -6.380179,-4.51125 -7,-8 -0.812134,-4.571214 2.297452,-12.655768 5,-13 1.662792,-0.113581 3,2 3,4 l 0,5 6,0 0,-23 z"
     id="path3081"
     inkscape:connector-curvature="0"
     sodipodi:nodetypes="cssccccccccccaacscccc" />
  <path
     style="fill:#008080;fill-opacity:1;fill-rule:evenodd;stroke:#000000;stroke-width:1.5;stroke-linecap:butt;stroke-linejoin:round;stroke-miterlimit:4;stroke-opacity:1;stroke-dasharray:none;marker-start:none"
     d="m 31,1 0,23 6,0 0,-5 c 0,-2 1,-3 3,-3 l 5,0 0,-7 -5,0 C 38,9 37,8 37,6 l 0,-5 -6,0 z"
     id="path3079"
     inkscape:connector-curvature="0" />
</svg>
