<?xml version="1.0" encoding="UTF-8" standalone="no"?>
<svg
   xmlns:dc="http://purl.org/dc/elements/1.1/"
   xmlns:cc="http://creativecommons.org/ns#"
   xmlns:rdf="http://www.w3.org/1999/02/22-rdf-syntax-ns#"
   xmlns:svg="http://www.w3.org/2000/svg"
   xmlns="http://www.w3.org/2000/svg"
   xmlns:sodipodi="http://sodipodi.sourceforge.net/DTD/sodipodi-0.dtd"
   xmlns:inkscape="http://www.inkscape.org/namespaces/inkscape"
   sodipodi:docname="mechanicRotPowerSensor_base.svg"
   inkscape:version="1.0 (4035a4fb49, 2020-05-01)"
   version="1.1"
   id="svg4097"
   height="36.000698"
   width="36.000698">
  <defs
     id="defs4099" />
  <sodipodi:namedview
     inkscape:snap-intersection-paths="true"
     inkscape:snap-center="true"
     inkscape:guide-bbox="true"
     showguides="true"
     inkscape:document-rotation="0"
     fit-margin-bottom="0"
     fit-margin-right="0"
     fit-margin-left="0"
     fit-margin-top="0"
     inkscape:window-maximized="0"
     inkscape:window-y="0"
     inkscape:window-x="-7"
     inkscape:window-height="1008"
     inkscape:window-width="958"
     showgrid="false"
     inkscape:current-layer="layer1"
     inkscape:document-units="px"
     inkscape:cy="27.657832"
     inkscape:cx="15.474708"
     inkscape:zoom="8.6510095"
     inkscape:pageshadow="2"
     inkscape:pageopacity="0.0"
     borderopacity="1.0"
     bordercolor="#666666"
     pagecolor="#ffffff"
     id="base">
    <sodipodi:guide
       inkscape:color="rgb(0,0,255)"
       inkscape:locked="true"
       inkscape:label=""
       id="guide838"
       orientation="-1,0"
       position="18,18.000698" />
    <sodipodi:guide
       inkscape:color="rgb(0,0,255)"
       inkscape:locked="true"
       inkscape:label=""
       id="guide840"
       orientation="0,1"
       position="18.002471,18.000698" />
    <sodipodi:guide
       inkscape:color="rgb(0,0,255)"
       inkscape:locked="true"
       inkscape:label=""
       id="guide842"
       orientation="-0.5,0.8660254"
       position="18,18.000698" />
    <sodipodi:guide
       inkscape:color="rgb(0,0,255)"
       inkscape:locked="true"
       inkscape:label=""
       id="guide844"
       orientation="-0.8660254,0.5"
       position="18,18.000698" />
    <sodipodi:guide
       inkscape:color="rgb(0,0,255)"
       inkscape:locked="true"
       inkscape:label=""
       id="guide846"
       orientation="-0.8660254,-0.5"
       position="18,18.000698" />
    <sodipodi:guide
       inkscape:color="rgb(0,0,255)"
       inkscape:locked="true"
       inkscape:label=""
       id="guide848"
       orientation="-0.5,-0.8660254"
       position="18,18.000698" />
    <sodipodi:guide
       inkscape:color="rgb(0,0,255)"
       inkscape:locked="true"
       inkscape:label=""
       id="guide883"
       orientation="0,1"
       position="18,32.500698" />
  </sodipodi:namedview>
  <metadata
     id="metadata4102">
    <rdf:RDF>
      <cc:Work
         rdf:about="">
        <dc:format>image/svg+xml</dc:format>
        <dc:type
           rdf:resource="http://purl.org/dc/dcmitype/StillImage" />
        <dc:title />
      </cc:Work>
    </rdf:RDF>
  </metadata>
  <g
     transform="translate(-354.57099,-487.52014)"
     id="layer1"
     inkscape:groupmode="layer"
     inkscape:label="Layer 1">
    <g
       id="g909">
      <path
         sodipodi:cx="220.27011"
         sodipodi:cy="486.64642"
         sodipodi:rx="35.903057"
         sodipodi:ry="35.903057"
         sodipodi:type="arc"
         d="m 256.17317,486.64642 c 0,19.82871 -16.07435,35.90306 -35.90306,35.90306 -19.82871,0 -35.90306,-16.07435 -35.90306,-35.90306 0,-19.82871 16.07435,-35.90305 35.90306,-35.90305 19.82871,0 35.90306,16.07434 35.90306,35.90305 z"
         style="fill:#ffffff;stroke:#000000;stroke-width:4.22387648000000040;stroke-linecap:square;stroke-miterlimit:4;stroke-opacity:1;stroke-dasharray:none;stroke-dashoffset:0;fill-opacity:1"
         id="path4105"
         transform="matrix(0.4734987,0,0,0.4734987,268.27585,275.09679)" />
      <path
         style="fill:none;stroke:#000000;stroke-width:2;stroke-linecap:butt;stroke-linejoin:miter;stroke-miterlimit:4;stroke-dasharray:none;stroke-opacity:1"
         d="m 381.04795,500.62596 6.24603,-3.60614"
         id="path4615-5-4-0"
         inkscape:connector-curvature="0"
         inkscape:transform-center-x="7" />
      <g
         style="font-size:18px;font-style:normal;font-variant:normal;font-weight:normal;font-stretch:normal;line-height:125%;letter-spacing:0px;word-spacing:0px;fill:#800000;fill-opacity:1;stroke:none;font-family:Calibri;-inkscape-font-specification:Calibri"
         id="text4991">
        <path
           style=""
           d="m 376.68674,511.67163 c -10e-6,0.56837 -0.0938,1.08106 -0.28125,1.53809 -0.18751,0.45703 -0.45558,0.84668 -0.8042,1.16894 -0.34864,0.32227 -0.77638,0.5713 -1.28321,0.74707 -0.50684,0.17579 -1.11182,0.26368 -1.81494,0.26367 l -1.29199,0 0,4.09571 c 0,0.0469 -0.0132,0.0879 -0.0395,0.12304 -0.0264,0.0352 -0.0674,0.063 -0.12305,0.0835 -0.0557,0.0205 -0.13184,0.0381 -0.22851,0.0527 -0.0967,0.0147 -0.21827,0.022 -0.36475,0.022 -0.14648,0 -0.26807,-0.007 -0.36474,-0.022 -0.0967,-0.0146 -0.17432,-0.0322 -0.23291,-0.0527 -0.0586,-0.0205 -0.0996,-0.0483 -0.12305,-0.0835 -0.0234,-0.0352 -0.0352,-0.0762 -0.0352,-0.12304 l 0,-10.49414 c 0,-0.23437 0.0615,-0.40136 0.18457,-0.50098 0.12305,-0.0996 0.26074,-0.1494 0.41309,-0.14941 l 2.43457,0 c 0.24609,1e-5 0.48193,0.0103 0.70752,0.0308 0.22558,0.0205 0.49218,0.0645 0.7998,0.13183 0.30761,0.0674 0.62109,0.19337 0.94043,0.37793 0.31933,0.18458 0.59033,0.41164 0.81299,0.68116 0.22265,0.26954 0.39404,0.58155 0.51416,0.93603 0.12011,0.3545 0.18017,0.74561 0.18018,1.17334 z m -1.59082,0.12305 c -10e-6,-0.46288 -0.0864,-0.8496 -0.25928,-1.16016 -0.17286,-0.31054 -0.38673,-0.54198 -0.6416,-0.69433 -0.25489,-0.15234 -0.51856,-0.24902 -0.79102,-0.29004 -0.27246,-0.041 -0.5376,-0.0615 -0.79541,-0.0615 l -1.39746,0 0,4.56153 1.36231,0 c 0.45702,0 0.83642,-0.0586 1.13818,-0.17578 0.30175,-0.11719 0.55517,-0.27978 0.76025,-0.4878 0.20507,-0.208 0.36035,-0.45702 0.46582,-0.74707 0.10547,-0.29003 0.1582,-0.60497 0.15821,-0.94482 z"
           id="path3759" />
      </g>
      <path
         inkscape:transform-center-x="6.062175"
         inkscape:connector-curvature="0"
         id="path4615-5-4-0-7"
         d="m 377.46413,497.04494 3.60616,-6.24602"
         style="fill:none;stroke:#000000;stroke-width:2;stroke-linecap:butt;stroke-linejoin:miter;stroke-miterlimit:4;stroke-dasharray:none;stroke-opacity:1"
         inkscape:transform-center-y="3.5" />
      <path
         inkscape:transform-center-x="3.5"
         inkscape:connector-curvature="0"
         id="path4615-5-4-0-1"
         d="m 372.57098,495.73548 10e-6,-7.21229"
         style="fill:none;stroke:#000000;stroke-width:2;stroke-linecap:butt;stroke-linejoin:miter;stroke-miterlimit:4;stroke-dasharray:none;stroke-opacity:1"
         inkscape:transform-center-y="6.062175" />
      <path
         inkscape:transform-center-x="5e-06"
         inkscape:connector-curvature="0"
         id="path4615-5-4-0-73"
         d="m 367.67906,497.04709 -3.60614,-6.24603"
         style="fill:none;stroke:#000000;stroke-width:2;stroke-linecap:butt;stroke-linejoin:miter;stroke-miterlimit:4;stroke-dasharray:none;stroke-opacity:1"
         inkscape:transform-center-y="7.000005" />
      <path
         inkscape:transform-center-x="-3.12301"
         inkscape:connector-curvature="0"
         id="path4615-5-4-0-3"
         d="m 364.09773,500.62811 -6.24602,-3.60615"
         style="fill:none;stroke:#000000;stroke-width:2;stroke-linecap:butt;stroke-linejoin:miter;stroke-miterlimit:4;stroke-dasharray:none;stroke-opacity:1"
         inkscape:transform-center-y="1.803075" />
    </g>
  </g>
</svg>
