<?xml version="1.0" encoding="UTF-8" standalone="no"?>
<!-- Created with Inkscape (http://www.inkscape.org/) -->

<svg
   xmlns:dc="http://purl.org/dc/elements/1.1/"
   xmlns:cc="http://creativecommons.org/ns#"
   xmlns:rdf="http://www.w3.org/1999/02/22-rdf-syntax-ns#"
   xmlns:svg="http://www.w3.org/2000/svg"
   xmlns="http://www.w3.org/2000/svg"
   xmlns:sodipodi="http://sodipodi.sourceforge.net/DTD/sodipodi-0.dtd"
   xmlns:inkscape="http://www.inkscape.org/namespaces/inkscape"
   width="40.004864"
   height="40.004864"
   id="svg4097"
   version="1.1"
   inkscape:version="0.48.5 r10040"
   sodipodi:docname="powersensor_iso.svg">
  <defs
     id="defs4099" />
  <sodipodi:namedview
     id="base"
     pagecolor="#ffffff"
     bordercolor="#666666"
     borderopacity="1.0"
     inkscape:pageopacity="0.0"
     inkscape:pageshadow="2"
     inkscape:zoom="9.3549958"
     inkscape:cx="-18.240053"
     inkscape:cy="7.2811061"
     inkscape:document-units="px"
     inkscape:current-layer="flowRoot2985"
     showgrid="false"
     inkscape:window-width="1920"
     inkscape:window-height="1049"
     inkscape:window-x="-10"
     inkscape:window-y="-10"
     inkscape:window-maximized="1"
     fit-margin-top="0"
     fit-margin-left="0"
     fit-margin-right="0"
     fit-margin-bottom="0" />
  <metadata
     id="metadata4102">
    <rdf:RDF>
      <cc:Work
         rdf:about="">
        <dc:format>image/svg+xml</dc:format>
        <dc:type
           rdf:resource="http://purl.org/dc/dcmitype/StillImage" />
        <dc:title />
      </cc:Work>
    </rdf:RDF>
  </metadata>
  <g
     inkscape:label="Layer 1"
     inkscape:groupmode="layer"
     id="layer1"
     transform="translate(-354.56647,-483.51491)">
    <path
       sodipodi:type="arc"
       style="fill:none;stroke:#000000;stroke-width:1.84118247;stroke-linecap:square;stroke-miterlimit:4;stroke-opacity:1;stroke-dasharray:none;stroke-dashoffset:0"
       id="path4105"
       sodipodi:cx="220.27011"
       sodipodi:cy="486.64642"
       sodipodi:rx="35.903057"
       sodipodi:ry="35.903057"
       d="m 256.17317,486.64642 c 0,19.82871 -16.07435,35.90306 -35.90306,35.90306 -19.82871,0 -35.90306,-16.07435 -35.90306,-35.90306 0,-19.82871 16.07435,-35.90305 35.90306,-35.90305 19.82871,0 35.90306,16.07434 35.90306,35.90305 z"
       transform="matrix(0.54312924,0,0,0.54312924,254.93376,239.20544)" />
    <g
       style="font-size:30px;font-style:normal;font-variant:normal;font-weight:normal;font-stretch:normal;line-height:125%;letter-spacing:0px;word-spacing:0px;fill:#000000;fill-opacity:1;stroke:none;font-family:Calibri;-inkscape-font-specification:Calibri"
       id="text6255">
      <g
         transform="matrix(0.65958799,0,0,0.65958799,416.75204,482.9713)"
         style="font-size:40px;line-height:125%;fill:#000000;font-family:Sans"
         id="flowRoot2985">
        <path
           d="m -74.101562,45.641689 0,-28.632812 10.800781,0 c 1.901026,2.8e-5 3.352847,0.09117 4.355469,0.273437 1.40623,0.234403 2.584614,0.680366 3.535156,1.337891 0.950498,0.657578 1.715471,1.578801 2.294922,2.763672 0.579402,1.184918 0.869115,2.487001 0.86914,3.90625 -2.5e-5,2.434913 -0.774764,4.495458 -2.324218,6.18164 -1.549501,1.686211 -4.348977,2.529309 -8.398438,2.529297 l -7.34375,0 0,11.640625 z m 3.789062,-15.019531 7.402344,0 c 2.4479,1.5e-5 4.186179,-0.455714 5.214844,-1.367188 1.028625,-0.911441 1.542947,-2.193992 1.542968,-3.847656 -2.1e-5,-1.197895 -0.302755,-2.223285 -0.908203,-3.076172 -0.605488,-0.85284 -1.403013,-1.415991 -2.392578,-1.689453 -0.638038,-0.169246 -1.816422,-0.253881 -3.535156,-0.253906 l -7.324219,0 z"
           style=""
           id="path2994" />
      </g>
    </g>
  </g>
</svg>
