<?xml version="1.0" encoding="UTF-8" standalone="no"?>
<!-- Created with Inkscape (http://www.inkscape.org/) -->

<svg
   xmlns:dc="http://purl.org/dc/elements/1.1/"
   xmlns:cc="http://creativecommons.org/ns#"
   xmlns:rdf="http://www.w3.org/1999/02/22-rdf-syntax-ns#"
   xmlns:svg="http://www.w3.org/2000/svg"
   xmlns="http://www.w3.org/2000/svg"
   xmlns:sodipodi="http://sodipodi.sourceforge.net/DTD/sodipodi-0.dtd"
   xmlns:inkscape="http://www.inkscape.org/namespaces/inkscape"
   width="195.3221"
   height="70.061096"
   id="svg2477"
   sodipodi:version="0.32"
   inkscape:version="0.48.1 r9760"
   version="1.0"
   sodipodi:docname="33shuttlevalve_user.svg"
   inkscape:output_extension="org.inkscape.output.svg.inkscape">
  <defs
     id="defs2479">
    <inkscape:perspective
       sodipodi:type="inkscape:persp3d"
       inkscape:vp_x="0 : 526.18109 : 1"
       inkscape:vp_y="0 : 1000 : 0"
       inkscape:vp_z="744.09448 : 526.18109 : 1"
       inkscape:persp3d-origin="372.04724 : 350.78739 : 1"
       id="perspective2485" />
    <inkscape:perspective
       id="perspective4275"
       inkscape:persp3d-origin="0.5 : 0.33333333 : 1"
       inkscape:vp_z="1 : 0.5 : 1"
       inkscape:vp_y="0 : 1000 : 0"
       inkscape:vp_x="0 : 0.5 : 1"
       sodipodi:type="inkscape:persp3d" />
    <inkscape:perspective
       id="perspective4297"
       inkscape:persp3d-origin="0.5 : 0.33333333 : 1"
       inkscape:vp_z="1 : 0.5 : 1"
       inkscape:vp_y="0 : 1000 : 0"
       inkscape:vp_x="0 : 0.5 : 1"
       sodipodi:type="inkscape:persp3d" />
  </defs>
  <sodipodi:namedview
     id="base"
     pagecolor="#ffffff"
     bordercolor="#666666"
     borderopacity="1.0"
     gridtolerance="10000"
     guidetolerance="10"
     objecttolerance="10"
     inkscape:pageopacity="0.0"
     inkscape:pageshadow="2"
     inkscape:zoom="4.3255048"
     inkscape:cx="95.699888"
     inkscape:cy="32.048328"
     inkscape:document-units="px"
     inkscape:current-layer="g4285"
     showgrid="false"
     inkscape:window-width="1440"
     inkscape:window-height="771"
     inkscape:window-x="0"
     inkscape:window-y="24"
     showguides="true"
     inkscape:guide-bbox="true"
     inkscape:window-maximized="1"
     fit-margin-top="0"
     fit-margin-left="0"
     fit-margin-right="0"
     fit-margin-bottom="0" />
  <metadata
     id="metadata2482">
    <rdf:RDF>
      <cc:Work
         rdf:about="">
        <dc:format>image/svg+xml</dc:format>
        <dc:type
           rdf:resource="http://purl.org/dc/dcmitype/StillImage" />
      </cc:Work>
    </rdf:RDF>
  </metadata>
  <g
     inkscape:label="Layer 1"
     inkscape:groupmode="layer"
     id="layer1"
     transform="translate(-303.83982,-508.0271)">
    <g
       id="g4285"
       transform="matrix(1.2499995,0,0,1.2499995,299.84912,506.27469)">
      <rect
         transform="matrix(0,-1,-1,0,0,0)"
         x="-37.292969"
         y="-128.30014"
         width="30.800013"
         height="94.600037"
         class="st4"
         id="rect2655"
         style="fill:#ffffff;fill-opacity:1;stroke:#000000;stroke-width:1.20000052;stroke-linecap:butt;stroke-miterlimit:3;stroke-opacity:1;stroke-dasharray:none" />
      <path
         style="stroke:#000000;stroke-width:1.20000052;stroke-miterlimit:3;stroke-opacity:1;stroke-dasharray:none"
         id="path2691"
         class="st3"
         d="m 73.368035,6.3948409 c 0,5.5499991 0,5.5499991 0,5.5499991"
         inkscape:connector-curvature="0" />
      <path
         style="stroke:#000000;stroke-width:1.20000052;stroke-miterlimit:3;stroke-opacity:1;stroke-dasharray:none"
         id="path2715"
         class="st3"
         d="m 76.148035,12.559 c -5.56,0 -5.56,0 -5.56,0"
         inkscape:connector-curvature="0" />
      <path
         style="stroke:#000000;stroke-width:1.20000041;stroke-miterlimit:3;stroke-opacity:1;stroke-dasharray:none"
         id="path2653"
         class="st3"
         d="m 73.368035,31.259923 c 0,5.697446 0,5.697446 0,5.697446"
         inkscape:connector-curvature="0" />
      <path
         style="stroke:#000000;stroke-width:1.20000052;stroke-miterlimit:3;stroke-opacity:1;stroke-dasharray:none"
         id="path2703"
         class="st3"
         d="m 76.148035,30.78578 c -5.56,0 -5.56,0 -5.56,0"
         inkscape:connector-curvature="0" />
      <path
         style="stroke:#000000;stroke-width:1.20000052;stroke-miterlimit:3;stroke-opacity:1;stroke-dasharray:none"
         id="path2679"
         class="st3"
         d="m 97.288,6.6870409 c 0,30.4084661 0,30.4084661 0,30.4084661"
         inkscape:connector-curvature="0" />
      <path
         style="stroke:#000000;stroke-width:1.20000052;stroke-miterlimit:3;stroke-opacity:1;stroke-dasharray:none"
         id="path2677"
         class="st3"
         d="m 65.274145,6.6870409 c 0,30.4084661 0,30.4084661 0,30.4084661"
         inkscape:connector-curvature="0" />
      <path
         style="stroke:#000000;stroke-width:1.20000052;stroke-linecap:square;stroke-miterlimit:3;stroke-opacity:1;stroke-dasharray:none"
         id="path2661"
         class="st3"
         d="m 33.700109,40.295511 c 94.597771,0 94.597771,0 94.597771,0"
         inkscape:connector-curvature="0" />
      <path
         style="stroke:#000000;stroke-width:1.20000052;stroke-linecap:square;stroke-miterlimit:3;stroke-opacity:1;stroke-dasharray:none"
         id="path2667"
         class="st3"
         d="m 33.700109,3.4953534 c 94.597771,0 94.597771,0 94.597771,0"
         inkscape:connector-curvature="0" />
      <path
         style="stroke:#000000;stroke-width:1.20000052;stroke-miterlimit:3;stroke-opacity:1;stroke-dasharray:none"
         id="path2685"
         class="st3"
         d="m 89.273663,31.154614 c 0,5.802765 0,5.802765 0,5.802765"
         inkscape:connector-curvature="0" />
      <path
         style="stroke:#000000;stroke-width:1.20000052;stroke-miterlimit:3;stroke-opacity:1;stroke-dasharray:none"
         id="path2709"
         class="st3"
         d="m 92.053663,30.78578 c -5.56,0 -5.56,0 -5.56,0"
         inkscape:connector-curvature="0" />
      <path
         style="stroke:#000000;stroke-width:1.20000052;stroke-linecap:square;stroke-miterlimit:3;stroke-opacity:1;stroke-dasharray:none"
         id="path2409"
         class="st3"
         d="m 73.368035,2.0019279 c 0,1.3972005 0,1.3972005 0,1.3972005"
         inkscape:connector-curvature="0" />
      <path
         style="stroke:#000000;stroke-width:1.20000052;stroke-linecap:square;stroke-miterlimit:3;stroke-opacity:1;stroke-dasharray:none"
         id="path3183"
         class="st3"
         d="m 73.368035,40.681603 c 0,1.397201 0,1.397201 0,1.397201"
         inkscape:connector-curvature="0" />
      <path
         style="stroke:#000000;stroke-width:1.20000052;stroke-linecap:square;stroke-miterlimit:3;stroke-opacity:1;stroke-dasharray:none"
         id="path3185"
         class="st3"
         d="m 89.273663,40.681828 c 0,1.397201 0,1.397201 0,1.397201"
         inkscape:connector-curvature="0" />
      <g
         id="g3796"
         transform="translate(63.992557,0)">
        <path
           inkscape:connector-curvature="0"
           d="m 41.282625,10.685508 c 0,24.180965 0,24.180965 0,24.180965"
           class="st3"
           id="path2725"
           style="stroke:#000000;stroke-width:1.20000052;stroke-miterlimit:3;stroke-opacity:1;stroke-dasharray:none" />
        <path
           inkscape:connector-curvature="0"
           d="m 43.682626,12.246879 -2.396547,-4.0000115 -2.403455,4.0000115 4.800002,0 z"
           class="st5"
           id="path211"
           style="fill:#000000;stroke:#000000;stroke-width:1.20000052;stroke-linecap:butt;stroke-miterlimit:3;stroke-opacity:1;stroke-dasharray:none" />
        <path
           d="m 57.294313,31.280989 c 0,5.676382 0,5.676382 0,5.676382"
           class="st3"
           id="path2653-7"
           style="stroke:#000000;stroke-width:1.20000052;stroke-miterlimit:3;stroke-opacity:1;stroke-dasharray:none"
           inkscape:connector-curvature="0" />
        <path
           d="m 60.074311,30.78578 c -5.56,0 -5.56,0 -5.56,0"
           class="st3"
           id="path2703-1"
           style="stroke:#000000;stroke-width:1.20000052;stroke-miterlimit:3;stroke-opacity:1;stroke-dasharray:none"
           inkscape:connector-curvature="0" />
        <path
           style="fill:#000000;stroke:#000000;stroke-width:1.20000052;stroke-linecap:butt;stroke-miterlimit:3;stroke-opacity:1;stroke-dasharray:none"
           id="path3785"
           class="st5"
           d="m 43.682626,31.596754 -2.396547,4.000012 -2.403455,-4.000012 4.800002,0 z"
           inkscape:connector-curvature="0" />
      </g>
      <g
         id="g3789"
         transform="translate(-62.143059,0)">
        <path
           sodipodi:nodetypes="cc"
           inkscape:connector-curvature="0"
           style="stroke:#000000;stroke-width:1.20000052;stroke-linecap:butt;stroke-miterlimit:3;stroke-opacity:1;stroke-dasharray:none"
           id="path2728"
           class="st6"
           d="M 118.11648,33.033455 C 105.37245,6.6452983 106.71333,9.3733047 106.71333,9.3733047" />
        <path
           inkscape:connector-curvature="0"
           d="m 115.45531,33.074735 3.87208,2.598184 0.47071,-4.642748 -4.34279,2.044564 z"
           class="st5"
           id="path3321"
           style="fill:#000000;stroke:#000000;stroke-width:1.20000052;stroke-linecap:butt;stroke-miterlimit:3;stroke-opacity:1;stroke-dasharray:none" />
        <path
           d="m 108.14814,30.78578 c -5.56,0 -5.56,0 -5.56,0"
           class="st3"
           id="path2703-13"
           style="stroke:#000000;stroke-width:1.20000052;stroke-miterlimit:3;stroke-opacity:1;stroke-dasharray:none"
           inkscape:connector-curvature="0" />
        <path
           d="m 105.36814,31.238861 c 0,5.718509 0,5.718509 0,5.718509"
           class="st3"
           id="path2653-5"
           style="stroke:#000000;stroke-width:1.20000052;stroke-miterlimit:3;stroke-opacity:1;stroke-dasharray:none"
           inkscape:connector-curvature="0" />
        <path
           style="fill:#000000;stroke:#000000;stroke-width:1.20000052;stroke-linecap:butt;stroke-miterlimit:3;stroke-opacity:1;stroke-dasharray:none"
           id="path3787"
           class="st5"
           d="m 109.94953,10.740844 -3.87208,-2.5981846 -0.47071,4.6427486 4.34279,-2.044564 z"
           inkscape:connector-curvature="0" />
      </g>
      <g
         id="g3812">
        <path
           sodipodi:nodetypes="ccccc"
           transform="matrix(0.80000032,0,0,0.80000032,1.7000967,1.8929528)"
           inkscape:connector-curvature="0"
           id="path3013"
           d="m 89.558109,48.022989 -20.674329,20.674329 -66.2681986,0 0,-43.545338 37.1085566,0"
           style="fill:none;stroke:#000000;stroke-width:1.5;stroke-linecap:butt;stroke-linejoin:miter;stroke-miterlimit:4;stroke-opacity:1;stroke-dasharray:12, 6;stroke-dashoffset:0" />
        <g
           transform="translate(8.2390837,15.402275)"
           id="g3808">
          <path
             style="fill:none;stroke:#000000;stroke-width:1.20000052;stroke-miterlimit:4;stroke-dasharray:none;stroke-dashoffset:0"
             d="m 1.3149474,3.4389983 c 0.6227427,0.7876955 1.5679126,1.3000005 2.6500011,1.3000005 1.0820884,0 2.0522584,-0.512305 2.675001,-1.3000005"
             id="path3804"
             inkscape:connector-curvature="0" />
          <path
             id="path3806"
             d="M 1.3149474,9.5390007 C 1.9376901,8.7513052 2.88286,8.2390002 3.9649485,8.2390002 c 1.0820884,0 2.0522584,0.512305 2.675001,1.3000005"
             style="fill:none;stroke:#000000;stroke-width:1.20000052;stroke-miterlimit:4;stroke-dasharray:none;stroke-dashoffset:0"
             inkscape:connector-curvature="0" />
        </g>
        <path
           style="fill:#ffffff;stroke:#000000;stroke-width:1.20000052;stroke-linecap:butt;stroke-linejoin:miter;stroke-miterlimit:4;stroke-opacity:1;stroke-dasharray:none"
           d="m 25.785404,25.601198 c 2.110674,0 3.821705,-1.660983 3.821705,-3.709908 0,-2.048925 -1.711031,-3.709908 -3.821695,-3.709908 l -1.9e-5,-3.2e-5 -3.502379,3.2e-5 8e-6,0 c -2.110664,0 -3.821695,1.660983 -3.821695,3.709908 0,2.048925 1.711032,3.709908 3.821691,3.709908 z"
           id="path3795"
           inkscape:connector-curvature="0"
           sodipodi:nodetypes="csccccscc" />
      </g>
      <g
         id="g3819"
         transform="matrix(-1,0,0,1,162.64287,0)">
        <path
           style="fill:none;stroke:#000000;stroke-width:1.5;stroke-linecap:butt;stroke-linejoin:miter;stroke-miterlimit:4;stroke-opacity:1;stroke-dasharray:12, 6;stroke-dashoffset:0"
           d="m 89.558109,48.022989 -20.674329,20.674329 -66.2681986,0 0,-43.545338 37.1085566,0"
           id="path3821"
           inkscape:connector-curvature="0"
           transform="matrix(0.80000032,0,0,0.80000032,1.7000967,1.8929528)"
           sodipodi:nodetypes="ccccc" />
        <g
           id="g3823"
           transform="translate(8.2390837,15.402275)">
          <path
             inkscape:connector-curvature="0"
             id="path3825"
             d="m 1.3149474,3.4389983 c 0.6227427,0.7876955 1.5679126,1.3000005 2.6500011,1.3000005 1.0820884,0 2.0522584,-0.512305 2.675001,-1.3000005"
             style="fill:none;stroke:#000000;stroke-width:1.20000052;stroke-miterlimit:4;stroke-dasharray:none;stroke-dashoffset:0" />
          <path
             inkscape:connector-curvature="0"
             style="fill:none;stroke:#000000;stroke-width:1.20000052;stroke-miterlimit:4;stroke-dasharray:none;stroke-dashoffset:0"
             d="M 1.3149474,9.5390007 C 1.9376901,8.7513052 2.88286,8.2390002 3.9649485,8.2390002 c 1.0820884,0 2.0522584,0.512305 2.675001,1.3000005"
             id="path3827" />
        </g>
        <path
           sodipodi:nodetypes="csccccscc"
           inkscape:connector-curvature="0"
           id="path3829"
           d="m 25.785404,25.601198 c 2.110674,0 3.821705,-1.660983 3.821705,-3.709908 0,-2.048925 -1.711031,-3.709908 -3.821695,-3.709908 l -1.9e-5,-3.2e-5 -3.502379,3.2e-5 8e-6,0 c -2.110664,0 -3.821695,1.660983 -3.821695,3.709908 0,2.048925 1.711032,3.709908 3.821691,3.709908 z"
           style="fill:#ffffff;stroke:#000000;stroke-width:1.20000052;stroke-linecap:butt;stroke-linejoin:miter;stroke-miterlimit:4;stroke-opacity:1;stroke-dasharray:none" />
      </g>
    </g>
  </g>
</svg>
