<?xml version="1.0" encoding="UTF-8" standalone="no"?>
<!DOCTYPE svg PUBLIC "-//W3C//DTD SVG 1.0//EN" "http://www.w3.org/TR/2001/REC-SVG-20010904/DTD/svg10.dtd">
<!-- Generated by Microsoft Visio 11.0, SVG Export, v1.0 43valve.svg svg2531 -->
<svg xmlns="http://www.w3.org/2000/svg" xmlns:v="http://schemas.microsoft.com/visio/2003/SVGExtensions/" width="1.35417in"
		height="0.559479in" viewBox="0 0 97.5 40.2825" xml:space="preserve" color-interpolation-filters="sRGB" class="st9">
	<v:documentProperties v:langID="1033" v:metric="true" v:viewMarkup="false"/>

	<style type="text/css">
	<![CDATA[
		.st1 {fill:none}
		.st2 {stroke:#000000;stroke-width:1.94282}
		.st3 {fill:none;stroke:#000000;stroke-linecap:butt;stroke-width:1.9425}
		.st4 {stroke:#000000;stroke-width:1.90988}
		.st5 {stroke:#000000;stroke-width:1.9425}
		.st6 {stroke:#000000;stroke-width:1.9422}
		.st7 {marker-start:url(#mrkr1-45);stroke:#000000;stroke-width:1.9422}
		.st8 {fill:#000000;fill-opacity:1;stroke:#000000;stroke-opacity:1;stroke-width:0.32906427520912}
		.st9 {fill:none;fill-rule:evenodd;font-size:12;overflow:visible;stroke-linecap:square;stroke-miterlimit:3}
	]]>
	</style>

	<defs id="Markers">
		<g id="lend1">
			<path d="M 1 -1 L -0 0 L 1 1 " style="stroke-linecap:round;stroke-linejoin:round;fill:none"/>
		</g>
		<marker id="mrkr1-45" class="st8" v:arrowType="1" v:arrowSize="4" orient="auto" markerUnits="strokeWidth">
			<use xlink:href="#lend1" transform="scale(3.0389199780635) "/>
		</marker>
	</defs>
	<g v:mID="0" v:index="1" v:groupContext="foregroundPage">
		<title>svg2531</title>
		<v:pageProperties v:drawingScale="1" v:pageScale="1" v:drawingUnits="19" v:shadowOffsetX="9" v:shadowOffsetY="-9"/>
		<g id="group1-1" transform="translate(0.938903,-0.971249)" v:mID="1" v:groupContext="group">
			<title>layer1</title>
			<g id="shape2-2" v:mID="2" v:groupContext="shape" transform="translate(39.8508,-3.88517)">
				<title>path3184</title>
				<path d="M0 34.73 C0 40.28 0 40.28 0 40.28 L0 34.73 Z" class="st1"/>
				<path d="M0 34.73 C0 40.28 0 40.28 0 40.28" class="st2"/>
			</g>
			<g id="shape3-5" v:mID="3" v:groupContext="shape" transform="translate(40.3149,36.3975) rotate(90) scale(-1,1)">
				<title>rect4023</title>
				<rect x="0" y="-55.2748" width="30.5736" height="95.5573" class="st3"/>
			</g>
			<g id="shape4-7" v:mID="4" v:groupContext="shape">
				<title>path3174</title>
				<path d="M0 40.28 C95.62 40.28 95.62 40.28 95.62 40.28 L0 40.28 Z" class="st1"/>
				<path d="M0 40.28 C95.62 40.28 95.62 40.28 95.62 40.28" class="st4"/>
			</g>
			<g id="shape5-10" v:mID="5" v:groupContext="shape" transform="translate(0.0323475,-38.34)">
				<title>path3176</title>
				<path d="M0 40.28 C95.62 40.28 95.62 40.28 95.62 40.28 L0 40.28 Z" class="st1"/>
				<path d="M0 40.28 C95.62 40.28 95.62 40.28 95.62 40.28" class="st5"/>
			</g>
			<g id="shape6-13" v:mID="6" v:groupContext="shape" transform="translate(31.5609,-3.88485)">
				<title>path3178</title>
				<path d="M0 9.71 C0 40.28 0 40.28 0 40.28 L0 9.71 Z" class="st1"/>
				<path d="M0 9.71 C0 40.28 0 40.28 0 40.28" class="st6"/>
			</g>
			<g id="shape7-16" v:mID="7" v:groupContext="shape" transform="translate(64.0609,-3.88485)">
				<title>path3182</title>
				<path d="M0 9.71 C0 40.28 0 40.28 0 40.28 L0 9.71 Z" class="st1"/>
				<path d="M0 9.71 C0 40.28 0 40.28 0 40.28" class="st6"/>
			</g>
			<g id="shape8-19" v:mID="8" v:groupContext="shape" transform="translate(56.0996,-3.88516)">
				<title>path3186</title>
				<path d="M0 34.73 C0 40.28 0 40.28 0 40.28 L0 34.73 Z" class="st1"/>
				<path d="M0 34.73 C0 40.28 0 40.28 0 40.28" class="st2"/>
			</g>
			<g id="shape9-22" v:mID="9" v:groupContext="shape" transform="translate(39.8508,-28.8977)">
				<title>path3192</title>
				<path d="M0 34.73 C0 40.28 0 40.28 0 40.28 L0 34.73 Z" class="st1"/>
				<path d="M0 34.73 C0 40.28 0 40.28 0 40.28" class="st2"/>
			</g>
			<g id="shape10-25" v:mID="10" v:groupContext="shape" transform="translate(56.0996,-28.8977)">
				<title>path3194</title>
				<path d="M0 34.73 C0 40.28 0 40.28 0 40.28 L0 34.73 Z" class="st1"/>
				<path d="M0 34.73 C0 40.28 0 40.28 0 40.28" class="st2"/>
			</g>
			<g id="shape11-28" v:mID="11" v:groupContext="shape" transform="translate(37.0721,-10.4139)">
				<title>path3196</title>
				<path d="M5.56 40.28 C0 40.28 -0 40.28 0 40.28 L5.56 40.28 Z" class="st1"/>
				<path d="M5.56 40.28 C0 40.28 -0 40.28 0 40.28" class="st2"/>
			</g>
			<g id="shape12-31" v:mID="12" v:groupContext="shape" transform="translate(53.3209,-10.4139)">
				<title>path3198</title>
				<path d="M5.56 40.28 C0 40.28 -0 40.28 0 40.28 L5.56 40.28 Z" class="st1"/>
				<path d="M5.56 40.28 C0 40.28 -0 40.28 0 40.28" class="st2"/>
			</g>
			<g id="shape13-34" v:mID="13" v:groupContext="shape" transform="translate(37.0721,-27.9264)">
				<title>path3200</title>
				<path d="M5.56 40.28 C0 40.28 -0 40.28 0 40.28 L5.56 40.28 Z" class="st1"/>
				<path d="M5.56 40.28 C0 40.28 -0 40.28 0 40.28" class="st2"/>
			</g>
			<g id="shape14-37" v:mID="14" v:groupContext="shape" transform="translate(53.3209,-27.9264)">
				<title>path3202</title>
				<path d="M5.56 40.28 C0 40.28 -0 40.28 0 40.28 L5.56 40.28 Z" class="st1"/>
				<path d="M5.56 40.28 C0 40.28 -0 40.28 0 40.28" class="st2"/>
			</g>
			<g id="shape15-40" v:mID="15" v:groupContext="shape" transform="translate(8.15657,-5.77875)">
				<title>path3204</title>
				<path d="M0 15.56 C0 40.28 0 40.28 0 40.28" class="st7"/>
			</g>
			<g id="shape16-46" v:mID="16" v:groupContext="shape" transform="translate(23.8656,-7.95176)">
				<title>path8767</title>
				<path d="M0 40.28 C0 15.46 0 15.46 0 15.46" class="st7"/>
			</g>
			<g id="shape17-51" v:mID="17" v:groupContext="shape" transform="translate(72.0866,-4.33689)">
				<title>path8769</title>
				<path d="M14.72 13.77 C0 40.28 -0 40.28 0 40.28" class="st7"/>
			</g>
			<g id="shape18-56" v:mID="18" v:groupContext="shape" transform="translate(72.68,-7.61247)">
				<title>path8771</title>
				<path d="M14.13 40.28 C0 14.27 0 14.27 0 14.27" class="st7"/>
			</g>
		</g>
	</g>
</svg>
