<?xml version="1.0" encoding="UTF-8" standalone="no"?>
<!-- Created with Inkscape (http://www.inkscape.org/) -->
<svg
   xmlns:dc="http://purl.org/dc/elements/1.1/"
   xmlns:cc="http://creativecommons.org/ns#"
   xmlns:rdf="http://www.w3.org/1999/02/22-rdf-syntax-ns#"
   xmlns:svg="http://www.w3.org/2000/svg"
   xmlns="http://www.w3.org/2000/svg"
   xmlns:sodipodi="http://sodipodi.sourceforge.net/DTD/sodipodi-0.dtd"
   xmlns:inkscape="http://www.inkscape.org/namespaces/inkscape"
   width="148.0515"
   height="48.557411"
   id="svg2477"
   sodipodi:version="0.32"
   inkscape:version="0.46"
   version="1.0"
   sodipodi:docname="43valve.svg"
   inkscape:output_extension="org.inkscape.output.svg.inkscape">
  <defs
     id="defs2479">
    <inkscape:perspective
       sodipodi:type="inkscape:persp3d"
       inkscape:vp_x="0 : 526.18109 : 1"
       inkscape:vp_y="0 : 1000 : 0"
       inkscape:vp_z="744.09448 : 526.18109 : 1"
       inkscape:persp3d-origin="372.04724 : 350.78739 : 1"
       id="perspective2485" />
  </defs>
  <sodipodi:namedview
     id="base"
     pagecolor="#ffffff"
     bordercolor="#666666"
     borderopacity="1.0"
     gridtolerance="10000"
     guidetolerance="10"
     objecttolerance="10"
     inkscape:pageopacity="0.0"
     inkscape:pageshadow="2"
     inkscape:zoom="7.9195959"
     inkscape:cx="74.210277"
     inkscape:cy="30.124414"
     inkscape:document-units="px"
     inkscape:current-layer="g4285"
     showgrid="false"
     inkscape:window-width="1680"
     inkscape:window-height="948"
     inkscape:window-x="-4"
     inkscape:window-y="-4" />
  <metadata
     id="metadata2482">
    <rdf:RDF>
      <cc:Work
         rdf:about="">
        <dc:format>image/svg+xml</dc:format>
        <dc:type
           rdf:resource="http://purl.org/dc/dcmitype/StillImage" />
      </cc:Work>
    </rdf:RDF>
  </metadata>
  <g
     inkscape:label="Layer 1"
     inkscape:groupmode="layer"
     id="layer1"
     transform="translate(-300.97424,-508.08347)">
    <g
       id="g4285"
       transform="matrix(1.2499995,0,0,1.2499995,299.84912,506.27469)">
      <path
         style="fill:none;stroke:none;stroke-width:1.60000062;stroke-miterlimit:3;stroke-dasharray:none"
         id="path19"
         class="st1"
         d="M 62.7398,30.60483 C 62.7398,36.15483 62.7398,36.15483 62.7398,36.15483 L 62.7398,30.60483 z" />
      <path
         style="fill:none;stroke-width:1.60000062;stroke-miterlimit:3;stroke-dasharray:none"
         id="path24"
         class="st2"
         d="M 62.7398,30.60483 C 62.7398,36.15483 62.7398,36.15483 62.7398,36.15483 L 62.7398,30.60483 z" />
      <path
         style="stroke:#000000;stroke-width:1.60000062;stroke-miterlimit:3;stroke-dasharray:none"
         id="path26"
         class="st3"
         d="M 62.7398,30.60483 C 62.7398,36.15483 62.7398,36.15483 62.7398,36.15483" />
      <rect
         transform="matrix(0,-1,-1,0,0,0)"
         x="-36.157501"
         y="-118.4787"
         width="30.573601"
         height="95.557297"
         class="st4"
         id="rect31"
         style="fill:none;stroke:#000000;stroke-width:1.60000062;stroke-linecap:butt;stroke-miterlimit:3;stroke-dasharray:none" />
      <path
         style="fill:none;stroke:none;stroke-width:1.60000062;stroke-miterlimit:3;stroke-dasharray:none"
         id="path39"
         class="st1"
         d="M 22.889,40.04 C 118.509,40.04 118.509,40.04 118.509,40.04 L 22.889,40.04 z" />
      <path
         style="fill:none;stroke-width:1.60000062;stroke-miterlimit:3;stroke-dasharray:none"
         id="path44"
         class="st2"
         d="M 22.889,40.04 C 118.509,40.04 118.509,40.04 118.509,40.04 L 22.889,40.04 z" />
      <path
         style="stroke:#000000;stroke-width:1.60000062000000010;stroke-miterlimit:3;stroke-dasharray:none;stroke-linecap:square"
         id="path46"
         class="st3"
         d="M 22.889,39.492971 C 118.509,39.492971 118.509,39.492971 118.509,39.492971" />
      <path
         style="fill:none;stroke:none;stroke-width:1.60000062;stroke-miterlimit:3;stroke-dasharray:none"
         id="path54"
         class="st1"
         d="M 22.921347,1.7 C 118.54135,1.7 118.54135,1.7 118.54135,1.7 L 22.921347,1.7 z" />
      <path
         style="fill:none;stroke-width:1.60000062;stroke-miterlimit:3;stroke-dasharray:none"
         id="path59"
         class="st2"
         d="M 22.921347,1.7 C 118.54135,1.7 118.54135,1.7 118.54135,1.7 L 22.921347,1.7 z" />
      <path
         style="stroke:#000000;stroke-width:1.60000062000000010;stroke-miterlimit:3;stroke-dasharray:none;stroke-linecap:square"
         id="path61"
         class="st3"
         d="M 22.921347,2.2470269 C 118.54135,2.2470269 118.54135,2.2470269 118.54135,2.2470269" />
      <path
         style="fill:none;stroke:none;stroke-width:1.60000062;stroke-miterlimit:3;stroke-dasharray:none"
         id="path69"
         class="st1"
         d="M 54.4499,5.58515 C 54.4499,36.15515 54.4499,36.15515 54.4499,36.15515 L 54.4499,5.58515 z" />
      <path
         style="fill:none;stroke-width:1.60000062;stroke-miterlimit:3;stroke-dasharray:none"
         id="path74"
         class="st2"
         d="M 54.4499,5.58515 C 54.4499,36.15515 54.4499,36.15515 54.4499,36.15515 L 54.4499,5.58515 z" />
      <path
         style="stroke:#000000;stroke-width:1.60000062;stroke-miterlimit:3;stroke-dasharray:none"
         id="path76"
         class="st3"
         d="M 54.4499,5.58515 C 54.4499,36.15515 54.4499,36.15515 54.4499,36.15515" />
      <path
         style="fill:none;stroke:none;stroke-width:1.60000062;stroke-miterlimit:3;stroke-dasharray:none"
         id="path84"
         class="st1"
         d="M 86.9499,5.58515 C 86.9499,36.15515 86.9499,36.15515 86.9499,36.15515 L 86.9499,5.58515 z" />
      <path
         style="fill:none;stroke-width:1.60000062;stroke-miterlimit:3;stroke-dasharray:none"
         id="path89"
         class="st2"
         d="M 86.9499,5.58515 C 86.9499,36.15515 86.9499,36.15515 86.9499,36.15515 L 86.9499,5.58515 z" />
      <path
         style="stroke:#000000;stroke-width:1.60000062;stroke-miterlimit:3;stroke-dasharray:none"
         id="path91"
         class="st3"
         d="M 86.9499,5.58515 C 86.9499,36.15515 86.9499,36.15515 86.9499,36.15515" />
      <path
         style="fill:none;stroke:none;stroke-width:1.60000062;stroke-miterlimit:3;stroke-dasharray:none"
         id="path99"
         class="st1"
         d="M 78.9886,30.60484 C 78.9886,36.15484 78.9886,36.15484 78.9886,36.15484 L 78.9886,30.60484 z" />
      <path
         style="fill:none;stroke-width:1.60000062;stroke-miterlimit:3;stroke-dasharray:none"
         id="path104"
         class="st2"
         d="M 78.9886,30.60484 C 78.9886,36.15484 78.9886,36.15484 78.9886,36.15484 L 78.9886,30.60484 z" />
      <path
         style="stroke:#000000;stroke-width:1.60000062;stroke-miterlimit:3;stroke-dasharray:none"
         id="path106"
         class="st3"
         d="M 78.9886,30.60484 C 78.9886,36.15484 78.9886,36.15484 78.9886,36.15484" />
      <path
         style="fill:none;stroke:none;stroke-width:1.60000062;stroke-miterlimit:3;stroke-dasharray:none"
         id="path114"
         class="st1"
         d="M 62.7398,5.5923 C 62.7398,11.1423 62.7398,11.1423 62.7398,11.1423 L 62.7398,5.5923 z" />
      <path
         style="fill:none;stroke-width:1.60000062;stroke-miterlimit:3;stroke-dasharray:none"
         id="path119"
         class="st2"
         d="M 62.7398,5.5923 C 62.7398,11.1423 62.7398,11.1423 62.7398,11.1423 L 62.7398,5.5923 z" />
      <path
         style="stroke:#000000;stroke-width:1.60000062;stroke-miterlimit:3;stroke-dasharray:none"
         id="path121"
         class="st3"
         d="M 62.7398,5.5923 C 62.7398,11.1423 62.7398,11.1423 62.7398,11.1423" />
      <path
         style="fill:none;stroke:none;stroke-width:1.60000062;stroke-miterlimit:3;stroke-dasharray:none"
         id="path129"
         class="st1"
         d="M 78.9886,5.5923 C 78.9886,11.1423 78.9886,11.1423 78.9886,11.1423 L 78.9886,5.5923 z" />
      <path
         style="fill:none;stroke-width:1.60000062;stroke-miterlimit:3;stroke-dasharray:none"
         id="path134"
         class="st2"
         d="M 78.9886,5.5923 C 78.9886,11.1423 78.9886,11.1423 78.9886,11.1423 L 78.9886,5.5923 z" />
      <path
         style="stroke:#000000;stroke-width:1.60000062;stroke-miterlimit:3;stroke-dasharray:none"
         id="path136"
         class="st3"
         d="M 78.9886,5.5923 C 78.9886,11.1423 78.9886,11.1423 78.9886,11.1423" />
      <path
         style="fill:none;stroke:none;stroke-width:1.60000062;stroke-miterlimit:3;stroke-dasharray:none"
         id="path144"
         class="st1"
         d="M 65.5211,29.6261 C 59.9611,29.6261 59.9611,29.6261 59.9611,29.6261 L 65.5211,29.6261 z" />
      <path
         style="fill:none;stroke-width:1.60000062;stroke-miterlimit:3;stroke-dasharray:none"
         id="path149"
         class="st2"
         d="M 65.5211,29.6261 C 59.9611,29.6261 59.9611,29.6261 59.9611,29.6261 L 65.5211,29.6261 z" />
      <path
         style="stroke:#000000;stroke-width:1.60000062;stroke-miterlimit:3;stroke-dasharray:none"
         id="path151"
         class="st3"
         d="M 65.5211,29.98324 C 59.9611,29.98324 59.9611,29.98324 59.9611,29.98324" />
      <path
         style="fill:none;stroke:none;stroke-width:1.60000062;stroke-miterlimit:3;stroke-dasharray:none"
         id="path159"
         class="st1"
         d="M 81.7699,29.6261 C 76.2099,29.6261 76.2099,29.6261 76.2099,29.6261 L 81.7699,29.6261 z" />
      <path
         style="fill:none;stroke-width:1.60000062;stroke-miterlimit:3;stroke-dasharray:none"
         id="path164"
         class="st2"
         d="M 81.7699,29.6261 C 76.2099,29.6261 76.2099,29.6261 76.2099,29.6261 L 81.7699,29.6261 z" />
      <path
         style="stroke:#000000;stroke-width:1.60000062;stroke-miterlimit:3;stroke-dasharray:none"
         id="path166"
         class="st3"
         d="M 81.7699,29.98324 C 76.2099,29.98324 76.2099,29.98324 76.2099,29.98324" />
      <path
         style="fill:none;stroke:none;stroke-width:1.60000062;stroke-miterlimit:3;stroke-dasharray:none"
         id="path174"
         class="st1"
         d="M 65.5211,12.1136 C 59.9611,12.1136 59.9611,12.1136 59.9611,12.1136 L 65.5211,12.1136 z" />
      <path
         style="fill:none;stroke-width:1.60000062;stroke-miterlimit:3;stroke-dasharray:none"
         id="path179"
         class="st2"
         d="M 65.5211,12.1136 C 59.9611,12.1136 59.9611,12.1136 59.9611,12.1136 L 65.5211,12.1136 z" />
      <path
         style="stroke:#000000;stroke-width:1.60000062;stroke-miterlimit:3;stroke-dasharray:none"
         id="path181"
         class="st3"
         d="M 65.5211,11.75646 C 59.9611,11.75646 59.9611,11.75646 59.9611,11.75646" />
      <path
         style="fill:none;stroke:none;stroke-width:1.60000062;stroke-miterlimit:3;stroke-dasharray:none"
         id="path189"
         class="st1"
         d="M 81.7699,12.1136 C 76.2099,12.1136 76.2099,12.1136 76.2099,12.1136 L 81.7699,12.1136 z" />
      <path
         style="fill:none;stroke-width:1.60000062;stroke-miterlimit:3;stroke-dasharray:none"
         id="path194"
         class="st2"
         d="M 81.7699,12.1136 C 76.2099,12.1136 76.2099,12.1136 76.2099,12.1136 L 81.7699,12.1136 z" />
      <path
         style="stroke:#000000;stroke-width:1.60000062;stroke-miterlimit:3;stroke-dasharray:none"
         id="path196"
         class="st3"
         d="M 81.7699,11.75646 C 76.2099,11.75646 76.2099,11.75646 76.2099,11.75646" />
      <path
         d="M 46.7546,32.08824 C 46.7546,6.13824 46.7546,6.13824 46.7546,6.13824"
         class="st3"
         id="path201"
         style="stroke:#000000;stroke-width:1.60000062;stroke-miterlimit:3;stroke-dasharray:none" />
      <path
         style="stroke:#000000;stroke-width:1.60000062;stroke-miterlimit:3;stroke-dasharray:none"
         id="path206"
         class="st3"
         d="M 31.0456,9.54375 C 31.0456,35.95375 31.0456,35.95375 31.0456,35.95375" />
      <path
         style="fill:#000000;stroke:#000000;stroke-width:1.60000074;stroke-linecap:butt;stroke-miterlimit:3;stroke-dasharray:none"
         id="path211"
         class="st5"
         d="M 34.046194,13.178503 L 31.030519,7.979519 L 28.006152,13.178503 L 34.046194,13.178503 z" />
      <path
         style="stroke:#000000;stroke-width:1.60000062;stroke-linecap:butt;stroke-miterlimit:3;stroke-dasharray:none"
         id="path216"
         class="st6"
         d="M 109.25781,10.458085 C 94.666554,36.039283 94.666554,36.039283 94.666554,36.039283" />
      <path
         d="M 109.26305,31.27543 C 94.339838,5.1122492 94.339838,5.1122492 94.339838,5.1122492"
         class="st6"
         id="path224"
         style="stroke:#000000;stroke-width:1.60000062;stroke-linecap:butt;stroke-miterlimit:3;stroke-dasharray:none" />
      <path
         style="fill:#000000;stroke:#000000;stroke-width:1.60000074;stroke-linecap:butt;stroke-miterlimit:3;stroke-dasharray:none"
         id="path229"
         class="st5"
         d="M 43.714395,28.577357 L 46.730071,33.776349 L 49.754437,28.577357 L 43.714395,28.577357 z" />
      <path
         style="fill:#000000;stroke:#000000;stroke-width:1.60000074;stroke-linecap:butt;stroke-miterlimit:3;stroke-dasharray:none"
         id="path234"
         class="st5"
         d="M 105.67386,30.965168 L 110.90147,33.969246 L 110.90475,27.964089 L 105.67386,30.965168 z" />
      <path
         style="fill:#000000;stroke:#000000;stroke-width:1.60000074;stroke-linecap:butt;stroke-miterlimit:3;stroke-dasharray:none"
         id="path239"
         class="st5"
         d="M 110.90765,13.757274 L 110.91191,7.756434 L 105.67682,10.756194 L 110.90765,13.757274 z" />
      <rect
         transform="matrix(0,-1,-1,0,0,0)"
         style="fill:none;stroke:#000000;stroke-width:1.60000062;stroke-linecap:butt;stroke-miterlimit:3;stroke-dasharray:none"
         id="rect244"
         class="st4"
         height="21.0937"
         width="11.25"
         y="-22.7938"
         x="-26.3887" />
      <path
         style="stroke:#000000;stroke-width:1.60000062;stroke-miterlimit:3;stroke-dasharray:none"
         id="path249"
         class="st3"
         d="M 9.915681,26.107469 C 13.732625,15.6205 13.732625,15.6205 13.732625,15.6205" />
    </g>
  </g>
</svg>
