<?xml version="1.0" encoding="UTF-8" standalone="no"?>
<!-- Created with Inkscape (http://www.inkscape.org/) -->

<svg
   xmlns:dc="http://purl.org/dc/elements/1.1/"
   xmlns:cc="http://creativecommons.org/ns#"
   xmlns:rdf="http://www.w3.org/1999/02/22-rdf-syntax-ns#"
   xmlns:svg="http://www.w3.org/2000/svg"
   xmlns="http://www.w3.org/2000/svg"
   xmlns:sodipodi="http://sodipodi.sourceforge.net/DTD/sodipodi-0.dtd"
   xmlns:inkscape="http://www.inkscape.org/namespaces/inkscape"
   width="357.43811"
   height="182.68234"
   id="svg5667"
   version="1.1"
   inkscape:version="0.48.0 r9654"
   sodipodi:docname="43valvehelp.svg">
  <defs
     id="defs5669" />
  <sodipodi:namedview
     id="base"
     pagecolor="#ffffff"
     bordercolor="#666666"
     borderopacity="1.0"
     inkscape:pageopacity="0.0"
     inkscape:pageshadow="2"
     inkscape:zoom="2"
     inkscape:cx="262.81984"
     inkscape:cy="148.62605"
     inkscape:document-units="px"
     inkscape:current-layer="layer1"
     showgrid="false"
     inkscape:window-width="1680"
     inkscape:window-height="982"
     inkscape:window-x="-8"
     inkscape:window-y="38"
     inkscape:window-maximized="1"
     fit-margin-top="5"
     fit-margin-left="0"
     fit-margin-right="0"
     fit-margin-bottom="5" />
  <metadata
     id="metadata5672">
    <rdf:RDF>
      <cc:Work
         rdf:about="">
        <dc:format>image/svg+xml</dc:format>
        <dc:type
           rdf:resource="http://purl.org/dc/dcmitype/StillImage" />
        <dc:title></dc:title>
      </cc:Work>
    </rdf:RDF>
  </metadata>
  <g
     inkscape:label="Layer 1"
     inkscape:groupmode="layer"
     id="layer1"
     transform="translate(-1207.7216,-670.38371)">
    <g
       id="g7236"
       transform="matrix(0.63920346,0,0,0.63920346,479.49985,282.94216)">
      <path
         sodipodi:nodetypes="ccccccccccccccccccccc"
         inkscape:connector-curvature="0"
         id="path5686"
         d="m 1222.5978,640.86481 0,146.06115 58.2281,0 0,-43.81835 102.2428,0 0,43.81835 58.4244,0 0,-43.81835 102.2429,0 0,43.81835 58.4244,0 0,-146.06115 -58.4244,0 0,43.81834 -102.2429,0 0,-43.81834 -58.4244,0 0,43.81834 -102.2428,0 0,-43.81834 z"
         style="fill:#d0d0d0;fill-opacity:1;stroke:#000000;stroke-width:2;stroke-linecap:butt;stroke-linejoin:miter;stroke-miterlimit:4;stroke-opacity:1;stroke-dasharray:none" />
      <path
         sodipodi:nodetypes="cccccccc"
         inkscape:connector-curvature="0"
         id="path5690"
         d="m 1388.9111,810.29575 0,-17.52734 -113.7816,0 0,37.9759 274.4489,0 0,-37.9759 -113.9277,0 0,17.52734"
         style="fill:none;stroke:#000000;stroke-width:2;stroke-linecap:butt;stroke-linejoin:miter;stroke-miterlimit:4;stroke-opacity:1;stroke-dasharray:none" />
      <path
         sodipodi:nodetypes="cccccccc"
         inkscape:connector-curvature="0"
         id="path5692"
         d="m 1310.0381,617.49503 0,17.52733 -146.0611,0 0,157.74605 64.2669,0 -0.04,73.03057 160.7068,0 0,17.30743"
         style="fill:none;stroke:#000000;stroke-width:2;stroke-linecap:butt;stroke-linejoin:miter;stroke-miterlimit:4;stroke-opacity:1;stroke-dasharray:none" />
      <path
         sodipodi:nodetypes="cccccccc"
         inkscape:connector-curvature="0"
         id="path5692-2"
         d="m 1514.5237,617.49503 0,17.52733 146.0611,0 0,157.74608 -64.644,0 0.04,73.03057 -160.7068,0 0,17.30741"
         style="fill:none;stroke:#000000;stroke-width:2;stroke-linecap:butt;stroke-linejoin:miter;stroke-miterlimit:4;stroke-opacity:1;stroke-dasharray:none" />
      <path
         sodipodi:nodetypes="cccc"
         inkscape:connector-curvature="0"
         id="path5714"
         d="m 1353.8565,617.49503 0,17.52733 116.8488,0 0,-17.52733"
         style="fill:none;stroke:#000000;stroke-width:2;stroke-linecap:butt;stroke-linejoin:miter;stroke-miterlimit:4;stroke-opacity:1;stroke-dasharray:none" />
      <g
         style="font-size:16px;font-style:normal;font-weight:normal;line-height:125%;letter-spacing:0px;word-spacing:0px;fill:#000000;fill-opacity:1;stroke:none;font-family:Sans"
         id="text5716">
        <path
           d="m 1405.9557,815.948 0,-11.47656 1.2812,0 0,1.07812 c 0.3021,-0.42187 0.6433,-0.73827 1.0235,-0.94922 0.3802,-0.21093 0.8411,-0.3164 1.3828,-0.3164 0.7083,0 1.3333,0.1823 1.875,0.54687 0.5416,0.36459 0.9505,0.87891 1.2266,1.54297 0.276,0.66407 0.414,1.39193 0.414,2.18359 0,0.84896 -0.1523,1.61329 -0.457,2.29297 -0.3047,0.67969 -0.7474,1.20052 -1.3281,1.5625 -0.5808,0.36198 -1.1915,0.54297 -1.8321,0.54297 -0.4687,0 -0.8893,-0.099 -1.2617,-0.29687 -0.3724,-0.19792 -0.6784,-0.44792 -0.918,-0.75 l 0,4.03906 z m 1.2734,-7.28125 c 0,1.06771 0.2162,1.85677 0.6485,2.36719 0.4323,0.51041 0.9557,0.76562 1.5703,0.76562 0.625,0 1.1601,-0.26432 1.6054,-0.79297 0.4454,-0.52864 0.668,-1.34765 0.668,-2.45703 0,-1.05729 -0.2174,-1.84895 -0.6523,-2.375 -0.4349,-0.52603 -0.9545,-0.78905 -1.5586,-0.78906 -0.599,10e-6 -1.1289,0.27995 -1.5899,0.83984 -0.4609,0.5599 -0.6914,1.3737 -0.6914,2.44141 z"
           style=""
           id="path7791" />
        <path
           d="m 1414.6096,815.96831 0,-7.44464 2.8082,0 c 0.4943,10e-6 0.8718,0.0237 1.1325,0.0711 0.3656,0.0609 0.672,0.1769 0.9191,0.34786 0.2472,0.17097 0.4461,0.41049 0.5967,0.71856 0.1507,0.30808 0.226,0.64663 0.226,1.01564 0,0.63309 -0.2014,1.16884 -0.6043,1.60725 -0.4029,0.43842 -1.1307,0.65763 -2.1836,0.65763 l -1.9094,0 0,3.0266 z m 0.9852,-3.90513 1.9246,0 c 0.6365,0 1.0884,-0.11849 1.3559,-0.35548 0.2674,-0.23697 0.4012,-0.57044 0.4012,-1.0004 0,-0.31146 -0.079,-0.57806 -0.2362,-0.79982 -0.1574,-0.22174 -0.3648,-0.36816 -0.622,-0.43926 -0.1659,-0.044 -0.4723,-0.066 -0.9192,-0.066 l -1.9043,0 z"
           style="font-size:65.00091553%;baseline-shift:sub"
           id="path7793" />
      </g>
      <g
         style="font-size:16px;font-style:normal;font-weight:normal;line-height:125%;letter-spacing:0px;word-spacing:0px;fill:#000000;fill-opacity:1;stroke:none;font-family:Sans"
         id="text5716-2">
        <path
           d="m 1406.9485,882.91278 0,-11.47656 1.2812,0 0,1.07812 c 0.3021,-0.42186 0.6433,-0.73827 1.0235,-0.94922 0.3802,-0.21092 0.8411,-0.31639 1.3828,-0.3164 0.7083,10e-6 1.3333,0.1823 1.875,0.54687 0.5416,0.36459 0.9505,0.87892 1.2265,1.54297 0.2761,0.66407 0.4141,1.39193 0.4141,2.1836 0,0.84896 -0.1523,1.61328 -0.457,2.29296 -0.3047,0.67969 -0.7474,1.20053 -1.3281,1.5625 -0.5808,0.36198 -1.1915,0.54297 -1.8321,0.54297 -0.4687,0 -0.8893,-0.099 -1.2617,-0.29687 -0.3724,-0.19792 -0.6784,-0.44792 -0.918,-0.75 l 0,4.03906 z m 1.2734,-7.28125 c 0,1.06771 0.2162,1.85677 0.6485,2.36719 0.4322,0.51042 0.9557,0.76562 1.5703,0.76562 0.625,0 1.1601,-0.26432 1.6054,-0.79297 0.4453,-0.52864 0.668,-1.34765 0.668,-2.45703 0,-1.05728 -0.2174,-1.84895 -0.6523,-2.375 -0.4349,-0.52603 -0.9545,-0.78905 -1.5586,-0.78906 -0.599,10e-6 -1.1289,0.27996 -1.5899,0.83984 -0.4609,0.55991 -0.6914,1.37371 -0.6914,2.44141 z"
           style=""
           id="path7796" />
        <path
           d="m 1417.4966,882.93309 0,-6.5661 -2.4528,0 0,-0.87853 5.9009,0 0,0.87853 -2.463,0 0,6.5661 z"
           style="font-size:65.00091553%;baseline-shift:sub"
           id="path7798" />
      </g>
      <g
         style="font-size:16px;font-style:normal;font-weight:normal;line-height:125%;letter-spacing:0px;word-spacing:0px;fill:#000000;fill-opacity:1;stroke:none;font-family:Sans"
         id="text5716-4">
        <path
           d="m 1324.8187,625.6181 0,-11.47656 1.2813,0 0,1.07813 c 0.3021,-0.42187 0.6432,-0.73828 1.0234,-0.94922 0.3802,-0.21093 0.8412,-0.3164 1.3828,-0.31641 0.7084,1e-5 1.3334,0.1823 1.875,0.54688 0.5417,0.36459 0.9505,0.87891 1.2266,1.54296 0.276,0.66407 0.414,1.39194 0.4141,2.1836 -10e-5,0.84896 -0.1524,1.61328 -0.4571,2.29297 -0.3047,0.67969 -0.7474,1.20052 -1.3281,1.5625 -0.5807,0.36198 -1.1914,0.54297 -1.832,0.54297 -0.4688,0 -0.8894,-0.099 -1.2618,-0.29688 -0.3724,-0.19792 -0.6783,-0.44792 -0.9179,-0.75 l 0,4.03906 z m 1.2735,-7.28125 c 0,1.06771 0.2161,1.85678 0.6484,2.36719 0.4323,0.51042 0.9557,0.76563 1.5703,0.76563 0.625,0 1.1602,-0.26433 1.6055,-0.79297 0.4453,-0.52865 0.6679,-1.34766 0.668,-2.45703 -10e-5,-1.05729 -0.2175,-1.84896 -0.6524,-2.375 -0.4349,-0.52604 -0.9544,-0.78906 -1.5586,-0.78907 -0.5989,10e-6 -1.1289,0.27996 -1.5898,0.83985 -0.461,0.5599 -0.6914,1.3737 -0.6914,2.4414 z"
           style=""
           id="path7801" />
        <path
           d="m 1332.6551,625.63842 2.859,-7.44464 1.0613,0 3.0469,7.44464 -1.1222,0 -0.8684,-2.25472 -3.1129,0 -0.8176,2.25472 z m 2.148,-3.05708 2.5239,0 -0.777,-2.06175 c -0.237,-0.6263 -0.413,-1.14089 -0.5281,-1.54377 -0.095,0.47736 -0.2285,0.95132 -0.4012,1.4219 z"
           style="font-size:65.00091553%;baseline-shift:sub"
           id="path7803" />
      </g>
      <g
         style="font-size:16px;font-style:normal;font-weight:normal;line-height:125%;letter-spacing:0px;word-spacing:0px;fill:#000000;fill-opacity:1;stroke:none;font-family:Sans"
         id="text5716-4-7">
        <path
           d="m 1484.8806,625.6181 0,-11.47656 1.2813,0 0,1.07813 c 0.302,-0.42187 0.6432,-0.73828 1.0234,-0.94922 0.3802,-0.21093 0.8411,-0.3164 1.3828,-0.31641 0.7083,1e-5 1.3333,0.1823 1.875,0.54688 0.5417,0.36459 0.9505,0.87891 1.2266,1.54296 0.276,0.66407 0.414,1.39194 0.414,2.1836 0,0.84896 -0.1523,1.61328 -0.457,2.29297 -0.3047,0.67969 -0.7474,1.20052 -1.3281,1.5625 -0.5808,0.36198 -1.1914,0.54297 -1.832,0.54297 -0.4688,0 -0.8894,-0.099 -1.2618,-0.29688 -0.3724,-0.19792 -0.6784,-0.44792 -0.9179,-0.75 l 0,4.03906 z m 1.2735,-7.28125 c 0,1.06771 0.2161,1.85678 0.6484,2.36719 0.4323,0.51042 0.9557,0.76563 1.5703,0.76563 0.625,0 1.1602,-0.26433 1.6055,-0.79297 0.4453,-0.52865 0.6679,-1.34766 0.6679,-2.45703 0,-1.05729 -0.2174,-1.84896 -0.6523,-2.375 -0.4349,-0.52604 -0.9544,-0.78906 -1.5586,-0.78907 -0.599,10e-6 -1.1289,0.27996 -1.5898,0.83985 -0.461,0.5599 -0.6914,1.3737 -0.6914,2.4414 z"
           style=""
           id="path7806" />
        <path
           d="m 1493.4939,625.63842 0,-7.44464 2.793,0 c 0.5688,1e-5 1.025,0.0753 1.3686,0.22598 0.3436,0.15066 0.6128,0.38256 0.8074,0.69571 0.1947,0.31316 0.292,0.64071 0.292,0.98263 0,0.31824 -0.086,0.61786 -0.259,0.89884 -0.1726,0.281 -0.4333,0.50783 -0.782,0.68048 0.4502,0.13204 0.7964,0.35717 1.0385,0.6754 0.242,0.31824 0.3631,0.69403 0.3631,1.12736 0,0.34871 -0.074,0.67286 -0.2209,0.97248 -0.1473,0.29961 -0.3293,0.53067 -0.5459,0.69317 -0.2167,0.1625 -0.4884,0.28523 -0.8151,0.36817 -0.3267,0.0829 -0.727,0.12442 -1.201,0.12442 z m 0.9852,-4.31647 1.6098,0 c 0.4367,0 0.7498,-0.0288 0.9394,-0.0863 0.2506,-0.0745 0.4393,-0.19805 0.5663,-0.37071 0.1269,-0.17265 0.1904,-0.38932 0.1904,-0.65001 0,-0.24713 -0.059,-0.46465 -0.1778,-0.65255 -0.1184,-0.18788 -0.2877,-0.31653 -0.5078,-0.38594 -0.22,-0.0694 -0.5975,-0.1041 -1.1324,-0.1041 l -1.4879,0 z m 0,3.43794 1.8535,0 c 0.3182,0 0.5417,-0.0119 0.6703,-0.0356 0.2269,-0.0406 0.4164,-0.10833 0.5688,-0.20313 0.1523,-0.0948 0.2776,-0.23275 0.3758,-0.41387 0.098,-0.18112 0.1472,-0.39017 0.1473,-0.62716 -10e-5,-0.2776 -0.071,-0.51882 -0.2133,-0.72364 -0.1422,-0.20482 -0.3394,-0.3487 -0.5916,-0.43165 -0.2523,-0.0829 -0.6154,-0.12441 -1.0893,-0.12441 l -1.7215,0 z"
           style="font-size:65.00091553%;baseline-shift:sub"
           id="path7808" />
      </g>
    </g>
    <path
       style="fill:#000080;stroke:#000080;stroke-width:1.28974795;stroke-linecap:butt;stroke-linejoin:miter;stroke-miterlimit:2;stroke-opacity:1;stroke-dasharray:none;stroke-dashoffset:0;marker-start:none;marker-mid:none;marker-end:none"
       d="m 1254.317,698.42427 -24.3083,0"
       id="path5151"
       inkscape:connector-curvature="0"
       sodipodi:nodetypes="cc" />
    <path
       transform="matrix(0,0.22695077,-0.34588872,0,1411.0407,668.60376)"
       style="fill:#000080;fill-opacity:1;stroke:#000080;stroke-width:5;stroke-linecap:square;stroke-linejoin:miter;stroke-miterlimit:4;stroke-opacity:1"
       inkscape:transform-center-x="-1.0790807"
       d="m 142.4375,460.41996 -22.08219,0 11.0411,-19.12374 z"
       id="path6895" />
    <path
       transform="matrix(0,-0.22695077,0.34588872,0,1073.3999,728.24478)"
       style="fill:#000080;fill-opacity:1;stroke:#000080;stroke-width:5;stroke-linecap:square;stroke-linejoin:miter;stroke-miterlimit:4;stroke-opacity:1"
       inkscape:transform-center-x="1.0790754"
       d="m 142.4375,460.41996 -22.08219,0 11.0411,-19.12374 z"
       id="path6895-1" />
    <g
       style="font-size:48.25111389px;font-style:normal;font-weight:bold;line-height:125%;letter-spacing:0px;word-spacing:0px;fill:#000080;fill-opacity:1;stroke:none;font-family:Sans;-inkscape-font-specification:Sans Bold"
       id="text4852-2">
      <path
         d="m 1232.6198,707.23792 0.6394,-0.90198 c 0.071,-0.0913 0.129,-0.18182 0.1748,-0.27155 0.046,-0.0897 0.069,-0.17645 0.069,-0.26019 0,-0.0547 -0.022,-0.10113 -0.065,-0.13934 -0.043,-0.0382 -0.1557,-0.075 -0.3371,-0.11042 l 0,-0.49365 2.1365,0 0,0.4845 c -0.1885,0.0547 -0.3534,0.13922 -0.4946,0.2536 -0.1412,0.11438 -0.3197,0.30585 -0.5352,0.5744 l -1.1591,1.38757 1.284,1.69043 c 0.1877,0.25318 0.3511,0.44208 0.4901,0.56672 0.1391,0.12463 0.3022,0.22296 0.4895,0.29498 l 0,0.47424 -2.5675,0 0,-0.50061 c 0.3181,-0.0383 0.4771,-0.12305 0.4771,-0.25415 0,-0.0637 -0.012,-0.12817 -0.036,-0.19336 -0.024,-0.0652 -0.071,-0.14416 -0.1419,-0.23694 l -0.7204,-1.0957 -0.7796,1.10522 c -0.06,0.0776 -0.1045,0.14521 -0.1341,0.2027 -0.03,0.0575 -0.044,0.1225 -0.044,0.19501 0,0.0725 0.024,0.13159 0.072,0.17725 0.048,0.0457 0.1713,0.0784 0.3698,0.0981 l 0,0.50244 -2.1764,0 0,-0.4779 c 0.1734,-0.063 0.3046,-0.12476 0.3937,-0.18531 0.089,-0.0605 0.1862,-0.1452 0.2912,-0.25396 0.1049,-0.10877 0.2423,-0.26679 0.4119,-0.47406 l 1.1668,-1.41138 -1.1997,-1.60547 c -0.1636,-0.22338 -0.2943,-0.3858 -0.392,-0.48724 -0.098,-0.10144 -0.183,-0.17523 -0.2557,-0.22138 -0.073,-0.0461 -0.175,-0.0874 -0.307,-0.12378 l 0,-0.48596 2.5096,0 0,0.49878 c -0.3025,0.0462 -0.4537,0.13148 -0.4537,0.25598 0,0.074 0.017,0.14924 0.053,0.22577 0.035,0.0765 0.095,0.16974 0.1815,0.2796 z"
         style="font-size:12px;font-variant:normal;font-stretch:normal;fill:#000080;font-family:Cambria Math;-inkscape-font-specification:Sans Bold"
         id="path7813" />
      <path
         d="m 1236.9795,709.46499 0,0.31826 c -0.1506,0.036 -0.244,0.0636 -0.2803,0.0827 -0.036,0.0191 -0.063,0.0428 -0.079,0.0709 -0.017,0.0282 -0.025,0.0692 -0.025,0.12318 0,0.0649 0.01,0.13109 0.022,0.19853 0.015,0.0675 0.035,0.13759 0.062,0.21043 l 0.5906,1.87123 0.6763,-1.7634 c 0.05,-0.12029 0.083,-0.2153 0.1015,-0.28505 0.018,-0.0697 0.027,-0.1358 0.027,-0.19817 0,-0.0843 -0.021,-0.14727 -0.064,-0.18901 -0.043,-0.0417 -0.152,-0.0817 -0.3281,-0.11997 l 0,-0.31969 1.5641,0 0,0.31993 c -0.1268,0.026 -0.2118,0.056 -0.2549,0.09 -0.043,0.034 -0.09,0.0929 -0.1394,0.17686 -0.05,0.084 -0.1102,0.20448 -0.1813,0.36159 l -1.2782,2.81125 -0.5582,0 -1.0303,-2.83958 c -0.068,-0.18805 -0.1214,-0.31465 -0.1591,-0.37979 -0.038,-0.0651 -0.076,-0.11148 -0.1142,-0.13902 -0.038,-0.0275 -0.1191,-0.0547 -0.2423,-0.0815 l 0,-0.31969 z"
         style="font-size:65.00091553%;baseline-shift:sub;fill:#000080;-inkscape-font-specification:Cambria Math Bold"
         id="path7815" />
      <path
         d="m 1240.3932,712.16842 c 0.045,0.22439 0.067,0.42157 0.067,0.59153 0,0.18377 -0.032,0.35206 -0.095,0.50488 -0.063,0.15282 -0.1625,0.30331 -0.2977,0.45145 -0.1353,0.14814 -0.3414,0.31536 -0.6181,0.50167 l -0.2733,-0.30779 c 0.1379,-0.14743 0.2333,-0.26545 0.2861,-0.35408 0.053,-0.0886 0.091,-0.19111 0.115,-0.30743 0.024,-0.11633 0.036,-0.26423 0.036,-0.44371 0,-0.18377 -0.01,-0.39594 -0.026,-0.63652 z"
         style="font-size:65.00091553%;baseline-shift:sub;fill:#000080;-inkscape-font-specification:Cambria Math Bold"
         id="path7817" />
      <path
         d="m 1242.2092,710.06176 -0.059,-0.007 c 0.1263,-0.1333 0.2391,-0.23931 0.3385,-0.31802 0.099,-0.0787 0.1973,-0.1429 0.294,-0.19258 0.097,-0.0497 0.1873,-0.0852 0.272,-0.10676 0.085,-0.0215 0.172,-0.0322 0.2617,-0.0323 0.267,10e-6 0.487,0.0631 0.6598,0.18925 0.1728,0.12616 0.2791,0.29581 0.319,0.50893 0.1195,-0.17647 0.2386,-0.31068 0.3575,-0.40265 0.1189,-0.092 0.2436,-0.1642 0.3742,-0.21673 0.1306,-0.0525 0.2711,-0.0788 0.4216,-0.0788 0.1771,10e-6 0.3323,0.0269 0.4657,0.0806 0.1334,0.0537 0.2459,0.13589 0.3374,0.24649 0.092,0.11062 0.1576,0.24578 0.1982,0.4055 0.041,0.15973 0.061,0.37036 0.061,0.63188 l 0,1.40777 c 0,0.18583 0.01,0.31168 0.017,0.37754 0.011,0.0659 0.026,0.1141 0.044,0.14472 0.018,0.0306 0.046,0.0575 0.084,0.0805 0.038,0.023 0.1289,0.0536 0.2726,0.0919 l 0,0.31516 -1.6351,0 0,-0.31374 c 0.131,-0.0401 0.2133,-0.0691 0.2467,-0.0868 0.033,-0.0177 0.061,-0.0418 0.083,-0.0723 0.022,-0.0305 0.04,-0.084 0.055,-0.16056 0.015,-0.0766 0.022,-0.19705 0.022,-0.36146 l 0,-0.97835 c 0,-0.20693 -0.01,-0.37824 -0.016,-0.51393 -0.011,-0.13568 -0.027,-0.24144 -0.049,-0.3173 -0.022,-0.0759 -0.048,-0.13493 -0.078,-0.17722 -0.03,-0.0423 -0.062,-0.0778 -0.097,-0.10641 -0.035,-0.0286 -0.077,-0.0514 -0.1254,-0.0683 -0.049,-0.0169 -0.1142,-0.0253 -0.1964,-0.0254 -0.085,10e-6 -0.1665,0.0178 -0.2433,0.0534 -0.077,0.0356 -0.1621,0.0973 -0.2556,0.18508 -0.094,0.0878 -0.1603,0.17468 -0.2007,0.26077 -0.04,0.0861 -0.06,0.18929 -0.06,0.30957 l 0,1.36302 c 0,0.18583 0.01,0.31168 0.017,0.37754 0.011,0.0659 0.026,0.1141 0.044,0.14472 0.018,0.0306 0.046,0.0575 0.084,0.0805 0.038,0.023 0.1289,0.0536 0.2725,0.0919 l 0,0.31516 -1.6351,0 0,-0.31374 c 0.1309,-0.0401 0.2131,-0.0691 0.2466,-0.0868 0.034,-0.0177 0.061,-0.0418 0.083,-0.0723 0.022,-0.0305 0.04,-0.084 0.055,-0.16056 0.015,-0.0766 0.022,-0.19705 0.022,-0.36146 l 0,-0.97835 c 0,-0.21677 -0.01,-0.3932 -0.018,-0.52928 -0.012,-0.13608 -0.03,-0.24379 -0.055,-0.32314 -0.025,-0.0793 -0.055,-0.14167 -0.09,-0.18698 -0.035,-0.0453 -0.07,-0.0788 -0.1034,-0.10033 -0.033,-0.0216 -0.075,-0.0384 -0.126,-0.0506 -0.051,-0.0121 -0.1071,-0.0182 -0.1693,-0.0182 -0.088,10e-6 -0.1714,0.0206 -0.2513,0.0617 -0.08,0.0411 -0.1634,0.10212 -0.2501,0.18305 -0.087,0.0809 -0.1516,0.16429 -0.1945,0.25006 -0.043,0.0858 -0.064,0.17802 -0.064,0.27672 l 0,1.40039 c 0,0.14505 0,0.25173 0.01,0.32005 0.01,0.0683 0.017,0.11942 0.03,0.1533 0.013,0.0339 0.029,0.0608 0.048,0.0808 0.019,0.02 0.048,0.0399 0.087,0.0598 0.039,0.0198 0.121,0.0468 0.2474,0.0809 l 0,0.31493 -1.6316,0 0,-0.31374 c 0.1278,-0.0401 0.2079,-0.0691 0.2403,-0.0869 0.033,-0.0178 0.061,-0.0422 0.084,-0.0734 0.024,-0.0312 0.042,-0.0837 0.055,-0.15758 0.013,-0.0739 0.02,-0.19618 0.02,-0.36694 l 0,-1.62819 c 0,-0.15616 -0,-0.27986 -0.01,-0.37111 -0,-0.0912 -0.019,-0.16063 -0.043,-0.20817 -0.024,-0.0475 -0.06,-0.0824 -0.1073,-0.1045 -0.047,-0.0221 -0.1466,-0.0467 -0.298,-0.0737 l 0,-0.33373 0.9822,-0.0379 0.287,0 z"
         style="font-size:65.00091553%;baseline-shift:sub;fill:#000080;-inkscape-font-specification:Cambria Math Bold"
         id="path7819" />
      <path
         d="m 1249.5752,712.63379 0.054,0.005 c -0.2003,0.2117 -0.4007,0.36607 -0.6013,0.46311 -0.2006,0.097 -0.4148,0.14556 -0.6427,0.14556 -0.2062,0 -0.3877,-0.0399 -0.5447,-0.11985 -0.1569,-0.0799 -0.2774,-0.19234 -0.3615,-0.33731 -0.084,-0.14496 -0.1262,-0.31171 -0.1262,-0.50024 0,-0.39213 0.1893,-0.69234 0.5678,-0.90063 0.3786,-0.20828 0.9088,-0.32774 1.5905,-0.35837 l 0,-0.17138 c 0,-0.25026 -0.023,-0.44442 -0.069,-0.58249 -0.046,-0.13806 -0.1149,-0.23704 -0.207,-0.29695 -0.092,-0.0599 -0.2186,-0.0899 -0.3796,-0.0899 -0.1721,0 -0.3103,0.0451 -0.4148,0.1352 -0.1045,0.0901 -0.1901,0.24923 -0.2568,0.47727 l -0.637,0 0,-0.60533 c 0.2749,-0.14298 0.4919,-0.24367 0.6511,-0.30208 0.1592,-0.0584 0.3224,-0.10525 0.4896,-0.14056 0.1673,-0.0353 0.3353,-0.053 0.504,-0.053 0.2597,0 0.472,0.0432 0.6368,0.12973 0.1648,0.0865 0.2875,0.21698 0.3681,0.39146 0.08,0.17448 0.1208,0.42946 0.1208,0.76494 l 0,1.29946 c 0,0.2071 9e-4,0.34151 0,0.40324 0,0.0617 0.01,0.12208 0.02,0.18103 0.011,0.059 0.026,0.10295 0.045,0.132 0.019,0.029 0.048,0.0548 0.088,0.0774 0.04,0.0225 0.1311,0.0532 0.2733,0.0919 l 0,0.31469 -1.1907,0 z m -0.064,-1.1495 c -0.4343,0.005 -0.767,0.0668 -0.9981,0.18567 -0.231,0.11886 -0.3466,0.2943 -0.3466,0.52631 0,0.12838 0.024,0.22673 0.071,0.29505 0.048,0.0683 0.1082,0.11561 0.1818,0.14187 0.073,0.0263 0.1654,0.0394 0.2755,0.0394 0.1525,0 0.2915,-0.0372 0.4169,-0.11176 0.1255,-0.0745 0.2234,-0.1696 0.2937,-0.28529 0.07,-0.11569 0.1054,-0.22931 0.1054,-0.34088 z"
         style="font-size:65.00091553%;baseline-shift:sub;fill:#000080;-inkscape-font-specification:Cambria Math Bold"
         id="path7821" />
      <path
         d="m 1252.8311,710.88014 0.4156,-0.58629 c 0.046,-0.0593 0.084,-0.11818 0.1137,-0.17651 0.03,-0.0583 0.045,-0.11469 0.045,-0.16913 0,-0.0355 -0.014,-0.0657 -0.042,-0.0906 -0.028,-0.0248 -0.1013,-0.0487 -0.2192,-0.0718 l 0,-0.32088 1.3888,0 0,0.31493 c -0.1226,0.0356 -0.2297,0.0905 -0.3215,0.16484 -0.092,0.0743 -0.2078,0.19881 -0.3479,0.37337 l -0.7534,0.90194 0.8346,1.09879 c 0.122,0.16457 0.2282,0.28736 0.3186,0.36837 0.09,0.081 0.1964,0.14492 0.3181,0.19174 l 0,0.30826 -1.6689,0 0,-0.3254 c 0.2068,-0.0249 0.3102,-0.08 0.3102,-0.1652 0,-0.0414 -0.01,-0.0833 -0.024,-0.12569 -0.016,-0.0424 -0.046,-0.0937 -0.092,-0.15401 l -0.4682,-0.71221 -0.5068,0.7184 c -0.039,0.0505 -0.068,0.0944 -0.087,0.13176 -0.019,0.0374 -0.029,0.0796 -0.029,0.12675 0,0.0471 0.016,0.0855 0.047,0.11522 0.031,0.0297 0.1114,0.0509 0.2404,0.0638 l 0,0.32659 -1.4147,0 0,-0.31064 c 0.1127,-0.0409 0.198,-0.0811 0.2559,-0.12045 0.058,-0.0394 0.121,-0.0944 0.1892,-0.16508 0.068,-0.0707 0.1575,-0.17341 0.2678,-0.30814 l 0.7584,-0.91741 -0.7798,-1.04357 c -0.1063,-0.1452 -0.1913,-0.25077 -0.2548,-0.31671 -0.064,-0.0659 -0.119,-0.1139 -0.1662,-0.1439 -0.047,-0.03 -0.1137,-0.0568 -0.1996,-0.0805 l 0,-0.31588 1.6313,0 0,0.32421 c -0.1966,0.03 -0.2949,0.0855 -0.2949,0.16639 0,0.0481 0.011,0.097 0.034,0.14676 0.023,0.0498 0.062,0.11033 0.1179,0.18174 z"
         style="font-size:65.00091553%;baseline-shift:sub;fill:#000080;-inkscape-font-specification:Cambria Math Bold"
         id="path7823" />
    </g>
    <path
       transform="matrix(0,-0.22695077,0.34588872,0,1114.5604,829.07862)"
       style="fill:#800000;fill-opacity:1;stroke:#800000;stroke-width:5;stroke-linecap:square;stroke-linejoin:miter;stroke-miterlimit:4;stroke-opacity:1"
       inkscape:transform-center-x="1.0790754"
       d="m 142.4375,460.41996 -22.08219,0 11.0411,-19.12374 z"
       id="path6895-1-2" />
    <path
       transform="matrix(0,0.22695077,-0.34588872,0,1411.1318,769.43759)"
       style="fill:#800000;fill-opacity:1;stroke:#800000;stroke-width:5;stroke-linecap:square;stroke-linejoin:miter;stroke-miterlimit:4;stroke-opacity:1"
       inkscape:transform-center-x="-1.0790695"
       inkscape:transform-center-y="1.1931514e-005"
       d="m 142.4375,460.41996 -22.08219,0 11.0411,-19.12374 z"
       id="path6895-1-2-0" />
    <g
       style="font-size:48.25111389px;font-style:normal;font-weight:bold;line-height:125%;letter-spacing:0px;word-spacing:0px;fill:#800000;fill-opacity:1;stroke:none;font-family:Sans;-inkscape-font-specification:Sans Bold"
       id="text4852-2-0">
      <path
         d="m 1210.3037,802.34253 c -0.8381,0 -1.478,-0.24701 -1.9197,-0.74103 -0.4416,-0.49402 -0.6624,-1.21478 -0.6624,-2.16229 0,-0.65039 0.1145,-1.20257 0.3435,-1.65656 0.229,-0.45397 0.5462,-0.79351 0.9517,-1.01861 0.4056,-0.22509 0.8652,-0.33764 1.3788,-0.33765 0.8592,10e-6 1.511,0.25153 1.9554,0.75458 0.4445,0.50306 0.6667,1.21357 0.6667,2.13153 0,0.65088 -0.1101,1.20447 -0.3301,1.66077 -0.2201,0.4563 -0.5342,0.79858 -0.9423,1.02685 -0.4081,0.22827 -0.8886,0.34241 -1.4416,0.34241 z m -1.2385,-3.02417 c 0,0.77027 0.1166,1.35217 0.3499,1.74573 0.2333,0.39355 0.5582,0.59033 0.9747,0.59033 0.2282,0 0.4221,-0.0552 0.5817,-0.16553 0.1595,-0.11035 0.2925,-0.26483 0.399,-0.46344 0.1064,-0.19861 0.1836,-0.43164 0.2316,-0.6991 0.048,-0.26745 0.072,-0.54986 0.072,-0.84722 0,-0.54981 -0.06,-1.00262 -0.1787,-1.35846 -0.1192,-0.35583 -0.2756,-0.61249 -0.4693,-0.76996 -0.1938,-0.15747 -0.4116,-0.2362 -0.6535,-0.23621 -0.4134,10e-6 -0.7346,0.18647 -0.9637,0.55939 -0.2292,0.37293 -0.3437,0.92108 -0.3437,1.64447 z"
         style="font-size:12px;font-variant:normal;font-stretch:normal;fill:#800000;font-family:Cambria Math;-inkscape-font-specification:Sans Bold"
         id="path7828" />
      <path
         d="m 1216.0873,796.52417 0,0.48962 c -0.2317,0.0554 -0.3754,0.0978 -0.4312,0.12726 -0.056,0.0294 -0.096,0.0658 -0.1222,0.10913 -0.026,0.0433 -0.038,0.10651 -0.038,0.18952 0,0.0999 0.011,0.20166 0.034,0.30542 0.023,0.10376 0.054,0.21167 0.095,0.32373 l 0.9086,2.87878 1.0404,-2.71289 c 0.076,-0.18505 0.1284,-0.33123 0.1562,-0.43854 0.028,-0.10729 0.042,-0.20892 0.042,-0.30487 0,-0.12963 -0.033,-0.22655 -0.098,-0.29077 -0.066,-0.0642 -0.2338,-0.12573 -0.5048,-0.18457 l 0,-0.49182 2.4063,0 0,0.49219 c -0.195,0.04 -0.3258,0.0862 -0.3922,0.13843 -0.066,0.0522 -0.1379,0.14294 -0.2144,0.27209 -0.076,0.12915 -0.1695,0.31458 -0.2789,0.55627 l -1.9665,4.32496 -0.8588,0 -1.5849,-4.36853 c -0.1053,-0.28931 -0.1869,-0.48407 -0.2448,-0.58429 -0.058,-0.10022 -0.1166,-0.17151 -0.1756,-0.21387 -0.059,-0.0424 -0.1834,-0.0842 -0.3728,-0.12543 l 0,-0.49182 z"
         style="font-size:12px;font-variant:normal;font-stretch:normal;fill:#800000;font-family:Cambria Math;-inkscape-font-specification:Sans Bold"
         id="path7830" />
      <path
         d="m 1224.7346,801.1593 c -0.2729,0.31372 -0.5153,0.54578 -0.7271,0.69617 -0.2118,0.15039 -0.4474,0.26916 -0.7068,0.35632 -0.2594,0.0872 -0.5444,0.13074 -0.8549,0.13074 -0.8318,0 -1.4595,-0.24915 -1.8832,-0.74744 -0.4237,-0.49829 -0.6356,-1.22277 -0.6356,-2.17346 0,-0.58642 0.1065,-1.10675 0.3195,-1.56097 0.213,-0.45422 0.52,-0.80682 0.9209,-1.0578 0.4008,-0.25097 0.8614,-0.37646 1.3817,-0.37647 0.4052,10e-6 0.7531,0.0654 1.0435,0.19611 0.2904,0.13074 0.5229,0.31024 0.6976,0.53851 0.1747,0.22828 0.3084,0.50892 0.401,0.84192 0.093,0.33301 0.1455,0.80481 0.1584,1.4154 l -3.6193,0 0,-0.0139 c 0,0.44409 0.048,0.81098 0.1431,1.10065 0.095,0.28967 0.2478,0.51342 0.4575,0.67126 0.2097,0.15784 0.4855,0.23676 0.8273,0.23676 0.292,0 0.5559,-0.0549 0.7918,-0.1648 0.2358,-0.10986 0.504,-0.30395 0.8045,-0.58227 z m -1.2228,-2.45215 c -0.023,-0.31908 -0.072,-0.60357 -0.1486,-0.85345 -0.076,-0.24987 -0.1846,-0.43554 -0.3243,-0.55701 -0.1398,-0.12145 -0.3222,-0.18218 -0.5473,-0.18219 -0.3487,10e-6 -0.6314,0.14558 -0.8484,0.43671 -0.2169,0.29114 -0.345,0.67646 -0.3843,1.15594 z"
         style="font-size:12px;font-variant:normal;font-stretch:normal;fill:#800000;font-family:Cambria Math;-inkscape-font-specification:Sans Bold"
         id="path7832" />
      <path
         d="m 1227.4611,797.50415 -0.1018,-0.009 c 0.1816,-0.23022 0.3668,-0.42273 0.5557,-0.57752 0.1888,-0.15478 0.3952,-0.27532 0.6191,-0.36163 0.2238,-0.0863 0.4763,-0.12945 0.7573,-0.12946 0.2234,10e-6 0.4674,0.0168 0.732,0.0505 l 0,1.53955 -0.8661,0 c -0.1057,-0.23852 -0.2015,-0.39679 -0.2874,-0.47479 -0.086,-0.078 -0.2002,-0.117 -0.3428,-0.11701 -0.1113,1e-5 -0.227,0.0355 -0.347,0.10639 -0.12,0.0709 -0.2385,0.17725 -0.3556,0.31897 -0.117,0.14172 -0.1973,0.2735 -0.2408,0.39532 -0.043,0.12183 -0.065,0.2688 -0.065,0.44092 l 0,2.01086 c 0,0.34229 0.018,0.56873 0.053,0.67932 0.035,0.1106 0.092,0.19044 0.1701,0.23951 0.078,0.0491 0.2412,0.0955 0.4892,0.13916 l 0,0.49548 -2.573,0 0,-0.48267 c 0.1966,-0.0618 0.3198,-0.10632 0.3697,-0.13366 0.05,-0.0273 0.093,-0.065 0.1291,-0.11298 0.036,-0.048 0.064,-0.12878 0.085,-0.24243 0.021,-0.11365 0.031,-0.30182 0.031,-0.56451 l 0,-2.50489 c 0,-0.24023 -0,-0.43053 -0.011,-0.57092 -0.01,-0.14038 -0.029,-0.24713 -0.067,-0.32025 -0.037,-0.0731 -0.092,-0.12671 -0.165,-0.16077 -0.073,-0.034 -0.2256,-0.0718 -0.4585,-0.11334 l 0,-0.50757 1.5073,-0.0641 0.4453,0 z"
         style="font-size:12px;font-variant:normal;font-stretch:normal;fill:#800000;font-family:Cambria Math;-inkscape-font-specification:Sans Bold"
         id="path7834" />
      <path
         d="m 1232.3423,800.69714 c 0,0.32349 0.013,0.54041 0.04,0.65076 0.026,0.11035 0.073,0.19183 0.141,0.24445 0.068,0.0526 0.2219,0.10968 0.4629,0.1712 l 0,0.48706 -2.5386,0 0,-0.48596 c 0.2347,-0.061 0.3823,-0.11334 0.443,-0.15692 0.061,-0.0436 0.1037,-0.0946 0.1292,-0.15308 0.026,-0.0585 0.045,-0.14941 0.058,-0.27283 0.013,-0.12341 0.019,-0.28497 0.019,-0.48468 l 0,-4.80835 c 0,-0.364 -0,-0.61577 -0.01,-0.75531 -0.01,-0.13952 -0.02,-0.25652 -0.043,-0.35101 -0.023,-0.0945 -0.051,-0.16228 -0.082,-0.20343 -0.032,-0.0411 -0.077,-0.0755 -0.1371,-0.10309 -0.06,-0.0276 -0.2169,-0.0637 -0.4708,-0.1084 l 0,-0.50793 1.5491,-0.0644 0.438,0 z"
         style="font-size:12px;font-variant:normal;font-stretch:normal;fill:#800000;font-family:Cambria Math;-inkscape-font-specification:Sans Bold"
         id="path7836" />
      <path
         d="m 1237.0822,801.39917 0.084,0.007 c -0.3081,0.32568 -0.6164,0.56317 -0.925,0.71246 -0.3086,0.14929 -0.6382,0.22394 -0.9888,0.22394 -0.3171,0 -0.5964,-0.0615 -0.8379,-0.18439 -0.2414,-0.12292 -0.4269,-0.2959 -0.5563,-0.51892 -0.1294,-0.22302 -0.1941,-0.47955 -0.1941,-0.76959 0,-0.60327 0.2912,-1.06512 0.8736,-1.38556 0.5824,-0.32043 1.398,-0.50421 2.4469,-0.55133 l 0,-0.26367 c 0,-0.38501 -0.035,-0.68371 -0.106,-0.89612 -0.071,-0.2124 -0.1769,-0.36468 -0.3185,-0.45685 -0.1416,-0.0922 -0.3363,-0.13824 -0.5841,-0.13824 -0.2646,0 -0.4773,0.0693 -0.6381,0.208 -0.1608,0.13868 -0.2924,0.38343 -0.395,0.73426 l -0.9799,0 0,-0.93128 c 0.4228,-0.21996 0.7567,-0.37487 1.0016,-0.46472 0.2448,-0.0898 0.4959,-0.16192 0.7533,-0.21625 0.2573,-0.0543 0.5157,-0.0815 0.7752,-0.0815 0.3997,10e-6 0.7263,0.0665 0.9798,0.19959 0.2536,0.13306 0.4423,0.3338 0.5662,0.60223 0.1239,0.26844 0.1858,0.66071 0.1858,1.17682 l 0,1.99914 c 0,0.31861 0,0.5254 0,0.62037 0,0.095 0.013,0.1878 0.031,0.2785 0.017,0.0907 0.041,0.15839 0.069,0.20306 0.029,0.0447 0.074,0.0844 0.1355,0.11902 0.062,0.0347 0.2016,0.0818 0.4204,0.14136 l 0,0.48413 -1.8318,0 z m -0.098,-1.76843 c -0.6682,0.008 -1.1801,0.10278 -1.5355,0.28564 -0.3555,0.18287 -0.5333,0.45276 -0.5333,0.80969 0,0.19752 0.037,0.34882 0.1099,0.45392 0.073,0.10511 0.1665,0.17786 0.2796,0.21826 0.1132,0.0404 0.2545,0.0606 0.4239,0.0606 0.2346,0 0.4484,-0.0573 0.6414,-0.17193 0.193,-0.11463 0.3436,-0.26093 0.4517,-0.43891 0.1082,-0.17797 0.1623,-0.35278 0.1623,-0.52441 z"
         style="font-size:12px;font-variant:normal;font-stretch:normal;fill:#800000;font-family:Cambria Math;-inkscape-font-specification:Sans Bold"
         id="path7838" />
      <path
         d="m 1241.3419,802.07812 0,1.09498 c 0,0.24804 0.01,0.42761 0.023,0.53869 0.015,0.11108 0.041,0.19428 0.075,0.24957 0.035,0.0553 0.085,0.1015 0.1515,0.13862 0.066,0.0371 0.2187,0.0804 0.457,0.13 l 0,0.49109 -2.6019,0 0,-0.48486 c 0.1863,-0.0518 0.316,-0.0947 0.3891,-0.12873 0.073,-0.0341 0.1275,-0.0817 0.1631,-0.14282 0.036,-0.0612 0.061,-0.15497 0.075,-0.28143 0.014,-0.12647 0.022,-0.29651 0.022,-0.51013 l 0,-4.92884 c 0,-0.26977 -0,-0.46038 -0.011,-0.57184 -0.01,-0.11144 -0.021,-0.2008 -0.041,-0.26806 -0.02,-0.0673 -0.046,-0.11877 -0.078,-0.15454 -0.032,-0.0358 -0.079,-0.0683 -0.1426,-0.0976 -0.063,-0.0293 -0.2082,-0.0665 -0.4343,-0.11169 l 0,-0.50977 1.5168,-0.0582 0.4417,0 -0.075,0.969 -0.085,-0.01 c 0.2088,-0.22143 0.384,-0.38824 0.5256,-0.50043 0.1416,-0.11217 0.2905,-0.20678 0.4469,-0.28381 0.1564,-0.077 0.3083,-0.13214 0.4558,-0.16534 0.1474,-0.0332 0.3021,-0.0498 0.464,-0.0498 0.6782,1e-5 1.1967,0.25037 1.5556,0.7511 0.3589,0.50074 0.5383,1.21814 0.5384,2.15222 -10e-5,0.64576 -0.1003,1.19397 -0.3007,1.64465 -0.2005,0.45069 -0.494,0.79041 -0.8806,1.01917 -0.3866,0.22876 -0.8459,0.34314 -1.3778,0.34314 -0.2964,0 -0.5624,-0.0245 -0.7978,-0.0734 -0.2355,-0.0489 -0.3939,-0.11261 -0.4752,-0.19098 z m 0,-2.01306 c 0,0.36231 0.021,0.63605 0.064,0.82123 0.043,0.18518 0.1153,0.33228 0.2175,0.44129 0.1022,0.10901 0.224,0.19073 0.3653,0.24517 0.1414,0.0544 0.3346,0.0817 0.5797,0.0817 0.4126,0 0.7269,-0.17798 0.943,-0.53394 0.2161,-0.35595 0.3241,-0.89916 0.3241,-1.62964 0,-1.42333 -0.3955,-2.135 -1.1865,-2.13501 -0.1951,10e-6 -0.3625,0.0302 -0.5023,0.0906 -0.1397,0.0604 -0.2802,0.15955 -0.4215,0.29737 -0.1412,0.13782 -0.2405,0.26996 -0.2977,0.39642 -0.057,0.12647 -0.086,0.26258 -0.086,0.40832 z"
         style="font-size:12px;font-variant:normal;font-stretch:normal;fill:#800000;font-family:Cambria Math;-inkscape-font-specification:Sans Bold"
         id="path7840" />
    </g>
    <g
       id="g7729">
      <path
         sodipodi:nodetypes="cc"
         inkscape:connector-curvature="0"
         id="path5151-4"
         d="m 1552.7458,782.82972 0,-87.43658"
         style="fill:#008000;stroke:#008000;stroke-width:1.28974795;stroke-linecap:butt;stroke-linejoin:miter;stroke-miterlimit:2;stroke-opacity:1;stroke-dasharray:none;stroke-dashoffset:0;marker-start:none;marker-mid:none;marker-end:none" />
      <path
         transform="matrix(-0.22695077,0,0,-0.34588872,1582.5663,936.10464)"
         style="fill:#008000;fill-opacity:1;stroke:#008000;stroke-width:5;stroke-linecap:square;stroke-linejoin:miter;stroke-miterlimit:4;stroke-opacity:1"
         inkscape:transform-center-y="1.0790796"
         d="m 142.4375,460.41996 -22.08219,0 11.0411,-19.12374 z"
         id="path6895-6" />
      <path
         transform="matrix(0.22695077,0,0,0.34588872,1522.9253,542.59684)"
         style="fill:#008000;fill-opacity:1;stroke:#008000;stroke-width:5;stroke-linecap:square;stroke-linejoin:miter;stroke-miterlimit:4;stroke-opacity:1"
         inkscape:transform-center-x="-1.3031515e-005"
         inkscape:transform-center-y="-1.0790765"
         d="m 142.4375,460.41996 -22.08219,0 11.0411,-19.12374 z"
         id="path6895-1-23" />
    </g>
    <path
       style="fill:#008000;stroke:#008000;stroke-width:1.14999998;stroke-linecap:butt;stroke-linejoin:miter;stroke-miterlimit:2;stroke-opacity:1;stroke-dasharray:2.3, 2.3;stroke-dashoffset:0"
       d="m 1504.6938,692.67318 c 2.6755,0 53.5554,0 53.5554,0"
       id="path6915-7"
       inkscape:connector-curvature="0"
       sodipodi:nodetypes="cc" />
    <path
       style="fill:#008000;stroke:#008000;stroke-width:1.14999998;stroke-linecap:butt;stroke-linejoin:miter;stroke-miterlimit:2;stroke-opacity:1;stroke-dasharray:2.3, 2.3;stroke-dashoffset:0"
       d="m 1504.6938,785.96424 c 2.6755,0 53.5554,0 53.5554,0"
       id="path6915-7-0"
       inkscape:connector-curvature="0"
       sodipodi:nodetypes="cc" />
    <g
       transform="translate(1163.8309,613.95404)"
       style="font-size:40px;font-style:normal;font-weight:normal;line-height:125%;letter-spacing:0px;word-spacing:0px;fill:#000000;fill-opacity:1;stroke:none;font-family:Sans"
       id="text7701" />
    <g
       style="font-size:48.25111389px;font-style:normal;font-weight:bold;line-height:125%;letter-spacing:0px;word-spacing:0px;fill:#008000;fill-opacity:1;stroke:none;font-family:Sans;-inkscape-font-specification:Sans Bold"
       id="text4852-2-4">
      <path
         d="m 1563.207,737.17072 c 0,-0.36401 -0,-0.61578 -0.01,-0.75531 -0.01,-0.13952 -0.02,-0.25653 -0.043,-0.35102 -0.023,-0.0945 -0.051,-0.16228 -0.082,-0.20343 -0.031,-0.0411 -0.077,-0.0755 -0.1371,-0.10309 -0.06,-0.0276 -0.2169,-0.0637 -0.4708,-0.10839 l 0,-0.50794 1.5546,-0.0644 0.4325,0 0,6.76977 c 0,0.3064 0.01,0.51673 0.015,0.63098 0.01,0.11426 0.03,0.20154 0.061,0.26185 0.03,0.0603 0.078,0.10968 0.1443,0.14813 0.066,0.0385 0.2282,0.0839 0.4865,0.13641 l 0,0.50317 -1.485,0.0626 -0.4735,0 0.069,-0.97303 0.085,0.008 c -0.2114,0.23585 -0.4097,0.42048 -0.5949,0.5539 -0.1851,0.13342 -0.3851,0.24109 -0.5998,0.323 -0.2147,0.0819 -0.4454,0.12286 -0.692,0.12286 -0.6762,0 -1.1942,-0.25153 -1.554,-0.75458 -0.3597,-0.50305 -0.5396,-1.21746 -0.5396,-2.14325 0,-0.64648 0.1154,-1.1975 0.3463,-1.65307 0.2308,-0.45556 0.546,-0.79699 0.9457,-1.02429 0.3996,-0.22729 0.8469,-0.34094 1.3418,-0.34095 0.2561,10e-6 0.4929,0.0211 0.7104,0.0634 0.2176,0.0422 0.3802,0.1073 0.4878,0.19519 z m 0,2.83776 c 0,-0.28637 -0.013,-0.51745 -0.039,-0.69323 -0.026,-0.17578 -0.067,-0.31775 -0.1231,-0.42591 -0.056,-0.10815 -0.1307,-0.19915 -0.2247,-0.27301 -0.094,-0.0738 -0.1985,-0.12798 -0.3136,-0.16241 -0.1151,-0.0344 -0.2541,-0.0516 -0.4169,-0.0516 -0.4415,10e-6 -0.7812,0.1822 -1.0194,0.54657 -0.2382,0.36439 -0.3572,0.90339 -0.3572,1.61701 0,0.71826 0.097,1.2536 0.2907,1.60601 0.1939,0.35242 0.4792,0.52863 0.8559,0.52863 0.1599,0 0.2878,-0.0123 0.3836,-0.037 0.096,-0.0246 0.1929,-0.066 0.2913,-0.12396 0.098,-0.058 0.1997,-0.1391 0.304,-0.24335 0.1042,-0.10424 0.1791,-0.19689 0.2246,-0.27795 0.046,-0.0811 0.081,-0.17755 0.1062,-0.28949 0.025,-0.11194 0.038,-0.25641 0.038,-0.43341 z"
         style="font-size:12px;font-variant:normal;font-stretch:normal;fill:#008000;font-family:Cambria Math;-inkscape-font-specification:Sans Bold"
         id="path7846" />
    </g>
    <g
       id="g7785">
      <path
         sodipodi:nodetypes="cc"
         inkscape:connector-curvature="0"
         id="path5151-4-1"
         d="m 1435.2059,751.63654 0,-26.80217"
         style="fill:#008000;stroke:#008000;stroke-width:1.28974795;stroke-linecap:butt;stroke-linejoin:miter;stroke-miterlimit:2;stroke-opacity:1;stroke-dasharray:none;stroke-dashoffset:0;marker-start:none;marker-mid:none;marker-end:none" />
      <path
         transform="matrix(-0.22695077,0,0,-0.34588872,1465.0264,908.28646)"
         style="fill:#008000;fill-opacity:1;stroke:#008000;stroke-width:5;stroke-linecap:square;stroke-linejoin:miter;stroke-miterlimit:4;stroke-opacity:1"
         inkscape:transform-center-y="1.0790796"
         d="m 142.4375,460.41996 -22.08219,0 11.0411,-19.12374 z"
         id="path6895-6-4" />
      <path
         transform="matrix(0.22695077,0,0,0.34588872,1405.3854,570.02866)"
         style="fill:#008000;fill-opacity:1;stroke:#008000;stroke-width:5;stroke-linecap:square;stroke-linejoin:miter;stroke-miterlimit:4;stroke-opacity:1"
         inkscape:transform-center-x="-1.3031515e-005"
         inkscape:transform-center-y="-1.0790765"
         d="m 142.4375,460.41996 -22.08219,0 11.0411,-19.12374 z"
         id="path6895-1-23-0" />
    </g>
    <g
       style="font-size:48.25111389px;font-style:normal;font-weight:bold;line-height:125%;letter-spacing:0px;word-spacing:0px;fill:#008000;fill-opacity:1;stroke:none;font-family:Sans;-inkscape-font-specification:Sans Bold"
       id="text4852-2-4-4">
      <path
         d="m 1445.6772,735.76514 c 0,-0.36401 -0,-0.61578 -0.01,-0.75531 -0.01,-0.13952 -0.02,-0.25653 -0.043,-0.35102 -0.023,-0.0945 -0.051,-0.16228 -0.082,-0.20343 -0.031,-0.0411 -0.077,-0.0755 -0.1371,-0.10309 -0.06,-0.0276 -0.2169,-0.0637 -0.4708,-0.10839 l 0,-0.50794 1.5546,-0.0644 0.4325,0 0,6.76977 c 0,0.3064 0.01,0.51673 0.015,0.63099 0.01,0.11425 0.03,0.20153 0.061,0.26184 0.03,0.0603 0.078,0.10968 0.1443,0.14813 0.066,0.0384 0.2282,0.0839 0.4865,0.13641 l 0,0.50318 -1.485,0.0626 -0.4735,0 0.069,-0.97302 0.085,0.008 c -0.2115,0.23584 -0.4098,0.42047 -0.5949,0.55389 -0.1852,0.13342 -0.3852,0.24109 -0.5999,0.323 -0.2147,0.0819 -0.4454,0.12286 -0.692,0.12286 -0.6762,0 -1.1942,-0.25152 -1.554,-0.75458 -0.3597,-0.50305 -0.5396,-1.21746 -0.5396,-2.14325 0,-0.64648 0.1154,-1.1975 0.3463,-1.65307 0.2308,-0.45556 0.546,-0.79699 0.9457,-1.02429 0.3997,-0.22729 0.8469,-0.34094 1.3418,-0.34095 0.2561,10e-6 0.4929,0.0211 0.7105,0.0634 0.2175,0.0422 0.3801,0.1073 0.4877,0.19519 z m 0,2.83777 c 0,-0.28638 -0.013,-0.51746 -0.039,-0.69324 -0.026,-0.17578 -0.067,-0.31775 -0.1231,-0.42591 -0.056,-0.10814 -0.1306,-0.19915 -0.2246,-0.27301 -0.094,-0.0738 -0.1986,-0.12798 -0.3137,-0.16241 -0.1151,-0.0344 -0.2541,-0.0516 -0.4169,-0.0516 -0.4414,10e-6 -0.7812,0.1822 -1.0194,0.54657 -0.2381,0.36439 -0.3572,0.90339 -0.3572,1.61701 0,0.71826 0.097,1.2536 0.2908,1.60602 0.1938,0.35241 0.4791,0.52862 0.8558,0.52862 0.1599,0 0.2878,-0.0123 0.3836,-0.037 0.096,-0.0246 0.1929,-0.066 0.2913,-0.12396 0.098,-0.058 0.1997,-0.1391 0.304,-0.24335 0.1042,-0.10424 0.1791,-0.19689 0.2246,-0.27795 0.046,-0.0811 0.081,-0.17755 0.1062,-0.28949 0.025,-0.11194 0.038,-0.25641 0.038,-0.43341 z"
         style="font-size:12px;font-variant:normal;font-stretch:normal;fill:#008000;font-family:Cambria Math;-inkscape-font-specification:Sans Bold"
         id="path7851" />
      <path
         d="m 1450.067,739.10278 c 0,1.3252 0.2098,2.41108 0.6294,3.25763 0.4195,0.84656 1.0829,1.42401 1.9901,1.73236 l -0.1776,0.63098 c -1.2402,-0.30688 -2.1659,-0.95886 -2.777,-1.95593 -0.6111,-0.99707 -0.9166,-2.19958 -0.9166,-3.60754 0,-1.40283 0.3065,-2.60473 0.9196,-3.60571 0.613,-1.00097 1.5361,-1.65539 2.7693,-1.96326 l 0.1995,0.63171 c -0.9192,0.30909 -1.5884,0.88032 -2.0077,1.71369 -0.4193,0.83338 -0.629,1.88873 -0.629,3.16607 z"
         style="font-size:12px;font-variant:normal;font-stretch:normal;fill:#008000;font-family:Cambria Math;-inkscape-font-specification:Sans Bold"
         id="path7853" />
      <path
         d="m 1456.9302,740.5105 c 0,0.21826 0.011,0.37659 0.032,0.47497 0.022,0.0984 0.057,0.17499 0.1058,0.2298 0.049,0.0548 0.1249,0.0997 0.2278,0.13458 0.1029,0.0349 0.2426,0.0626 0.4191,0.0831 0.1765,0.0205 0.4491,0.0356 0.8178,0.0454 l 0,0.64856 -4.5033,0 0,-0.64636 c 0.4912,-0.0222 0.8244,-0.0489 0.9996,-0.0802 0.1751,-0.0312 0.3002,-0.0724 0.3751,-0.12341 0.075,-0.051 0.1317,-0.12848 0.1701,-0.23236 0.039,-0.10388 0.058,-0.28192 0.058,-0.53412 l 0,-4.6593 c 0,-0.12695 -0.017,-0.21289 -0.051,-0.25782 -0.034,-0.0449 -0.079,-0.0674 -0.1358,-0.0674 -0.098,1e-5 -0.2538,0.0594 -0.4662,0.17816 -0.2124,0.11878 -0.526,0.29682 -0.9408,0.53412 l -0.3366,-0.59766 2.7821,-1.68164 0.4805,0 c -0.023,0.43019 -0.034,0.97853 -0.034,1.64502 z"
         style="font-size:12px;font-variant:normal;font-stretch:normal;fill:#008000;font-family:Cambria Math;-inkscape-font-specification:Sans Bold"
         id="path7855" />
      <path
         d="m 1462.7625,739.54736 -2.9235,0 0,-1.12463 2.9235,0 z"
         style="font-size:12px;font-variant:normal;font-stretch:normal;fill:#008000;font-family:Cambria Math;-inkscape-font-specification:Sans Bold"
         id="path7857" />
      <path
         d="m 1466.9241,737.21497 -1.373,0 0,3.35852 c 0,0.2561 0.011,0.44171 0.033,0.55682 0.022,0.11511 0.052,0.19965 0.091,0.2536 0.038,0.054 0.089,0.097 0.1522,0.12927 0.063,0.0322 0.2085,0.0736 0.4365,0.12415 l 0,0.48962 -2.6074,0 0,-0.48449 c 0.2151,-0.0586 0.3528,-0.10535 0.4131,-0.14026 0.06,-0.0349 0.1056,-0.077 0.136,-0.12616 0.03,-0.0492 0.055,-0.1319 0.073,-0.24811 0.018,-0.11621 0.027,-0.30102 0.027,-0.55444 l 0,-3.35852 -0.6954,0 0,-0.5083 c 0.2133,-0.0337 0.339,-0.0559 0.377,-0.0665 0.038,-0.0106 0.072,-0.0251 0.1025,-0.0436 0.03,-0.0184 0.058,-0.0461 0.082,-0.0829 0.024,-0.0369 0.048,-0.10119 0.071,-0.19299 0.023,-0.0918 0.042,-0.2207 0.057,-0.38672 0.036,-0.43041 0.1148,-0.78228 0.2375,-1.0556 0.1227,-0.27331 0.3034,-0.50793 0.5422,-0.70386 0.2388,-0.19592 0.4933,-0.33349 0.7636,-0.41272 0.2702,-0.0792 0.5839,-0.11883 0.9411,-0.11884 0.3064,1e-5 0.606,0.0292 0.8987,0.0875 l 0,1.24988 -0.7943,0 c -0.085,-0.2622 -0.1662,-0.43121 -0.245,-0.50702 -0.079,-0.0758 -0.1871,-0.1137 -0.3248,-0.11371 -0.1077,1e-5 -0.1963,0.0139 -0.2659,0.0418 -0.07,0.0278 -0.1358,0.0732 -0.1987,0.13604 -0.063,0.0629 -0.117,0.14839 -0.1626,0.25654 -0.045,0.10816 -0.08,0.24958 -0.1042,0.42425 -0.024,0.17469 -0.036,0.40681 -0.036,0.69635 l 0,0.48596 1.373,0 z"
         style="font-size:12px;font-variant:normal;font-stretch:normal;fill:#008000;font-family:Cambria Math;-inkscape-font-specification:Sans Bold"
         id="path7859" />
      <path
         d="m 1469.5974,739.10278 c 0,-1.27514 -0.2091,-2.33007 -0.6273,-3.16479 -0.4182,-0.83471 -1.0881,-1.40661 -2.0098,-1.7157 l 0.1981,-0.63098 c 1.233,0.30787 2.1563,0.96277 2.7701,1.96472 0.6137,1.00196 0.9206,2.20337 0.9206,3.60425 0,1.40601 -0.3059,2.60803 -0.9177,3.60608 -0.6118,0.99804 -1.5377,1.65051 -2.7777,1.95739 l -0.1762,-0.63061 c 0.9063,-0.3086 1.5695,-0.88678 1.9897,-1.73456 0.4201,-0.84778 0.6302,-1.93304 0.6302,-3.2558 z"
         style="font-size:12px;font-variant:normal;font-stretch:normal;fill:#008000;font-family:Cambria Math;-inkscape-font-specification:Sans Bold"
         id="path7861" />
    </g>
  </g>
</svg>
