<?xml version="1.0" encoding="UTF-8" standalone="no"?>
<!-- Created with Inkscape (http://www.inkscape.org/) -->

<svg
   xmlns:dc="http://purl.org/dc/elements/1.1/"
   xmlns:cc="http://creativecommons.org/ns#"
   xmlns:rdf="http://www.w3.org/1999/02/22-rdf-syntax-ns#"
   xmlns:svg="http://www.w3.org/2000/svg"
   xmlns="http://www.w3.org/2000/svg"
   xmlns:sodipodi="http://sodipodi.sourceforge.net/DTD/sodipodi-0.dtd"
   xmlns:inkscape="http://www.inkscape.org/namespaces/inkscape"
   width="159"
   height="50"
   id="svg2477"
   sodipodi:version="0.32"
   inkscape:version="0.48.0 r9654"
   version="1.0"
   sodipodi:docname="43valveneutraltotank_iso.svg"
   inkscape:output_extension="org.inkscape.output.svg.inkscape">
  <defs
     id="defs2479">
    <inkscape:perspective
       sodipodi:type="inkscape:persp3d"
       inkscape:vp_x="0 : 526.18109 : 1"
       inkscape:vp_y="0 : 1000 : 0"
       inkscape:vp_z="744.09448 : 526.18109 : 1"
       inkscape:persp3d-origin="372.04724 : 350.78739 : 1"
       id="perspective2485" />
    <inkscape:perspective
       id="perspective4275"
       inkscape:persp3d-origin="0.5 : 0.33333333 : 1"
       inkscape:vp_z="1 : 0.5 : 1"
       inkscape:vp_y="0 : 1000 : 0"
       inkscape:vp_x="0 : 0.5 : 1"
       sodipodi:type="inkscape:persp3d" />
    <inkscape:perspective
       id="perspective4297"
       inkscape:persp3d-origin="0.5 : 0.33333333 : 1"
       inkscape:vp_z="1 : 0.5 : 1"
       inkscape:vp_y="0 : 1000 : 0"
       inkscape:vp_x="0 : 0.5 : 1"
       sodipodi:type="inkscape:persp3d" />
  </defs>
  <sodipodi:namedview
     id="base"
     pagecolor="#ffffff"
     bordercolor="#666666"
     borderopacity="1.0"
     gridtolerance="10000"
     guidetolerance="10"
     objecttolerance="10"
     inkscape:pageopacity="0.0"
     inkscape:pageshadow="2"
     inkscape:zoom="2.1627524"
     inkscape:cx="109.56474"
     inkscape:cy="38.269345"
     inkscape:document-units="px"
     inkscape:current-layer="g4285"
     showgrid="false"
     inkscape:window-width="1680"
     inkscape:window-height="982"
     inkscape:window-x="-8"
     inkscape:window-y="38"
     showguides="true"
     inkscape:guide-bbox="true"
     inkscape:window-maximized="1">
    <sodipodi:guide
       orientation="1,0"
       position="177.13025,54.447222"
       id="guide3301" />
    <sodipodi:guide
       orientation="1,0"
       position="7.0710678,64.700271"
       id="guide3309" />
    <sodipodi:guide
       orientation="0,1"
       position="-4.75,15.25"
       id="guide3253" />
  </sodipodi:namedview>
  <metadata
     id="metadata2482">
    <rdf:RDF>
      <cc:Work
         rdf:about="">
        <dc:format>image/svg+xml</dc:format>
        <dc:type
           rdf:resource="http://purl.org/dc/dcmitype/StillImage" />
      </cc:Work>
    </rdf:RDF>
  </metadata>
  <g
     inkscape:label="Layer 1"
     inkscape:groupmode="layer"
     id="layer1"
     transform="translate(-301.97424,-508.64088)">
    <g
       id="g4285"
       transform="matrix(1.2499995,0,0,1.2499995,299.84912,506.27469)">
      <path
         style="fill:none;stroke:none;stroke-width:0.80000031;stroke-miterlimit:3;stroke-dasharray:none"
         id="path19"
         class="st1"
         d="M 62.7398,30.60483 C 62.7398,36.15483 62.7398,36.15483 62.7398,36.15483 L 62.7398,30.60483 z" />
      <path
         style="fill:none;stroke-width:0.80000031;stroke-miterlimit:3;stroke-dasharray:none"
         id="path24"
         class="st2"
         d="M 62.7398,30.60483 C 62.7398,36.15483 62.7398,36.15483 62.7398,36.15483 L 62.7398,30.60483 z" />
      <rect
         transform="matrix(0,-1,-1,0,0,0)"
         x="-37.49297"
         y="-128.50015"
         width="31.200014"
         height="95.200043"
         class="st4"
         id="rect31"
         style="fill:#ffffff;stroke:#000000;stroke-width:0.80000037000000002;stroke-linecap:butt;stroke-miterlimit:3;stroke-dasharray:none;fill-opacity:1" />
      <path
         style="fill:none;stroke:none;stroke-width:0.80000031;stroke-miterlimit:3;stroke-dasharray:none"
         id="path39"
         class="st1"
         d="M 22.889,40.04 C 118.509,40.04 118.509,40.04 118.509,40.04 L 22.889,40.04 z" />
      <path
         style="fill:none;stroke-width:0.80000031;stroke-miterlimit:3;stroke-dasharray:none"
         id="path44"
         class="st2"
         d="M 22.889,40.04 C 118.509,40.04 118.509,40.04 118.509,40.04 L 22.889,40.04 z" />
      <path
         style="stroke:#000000;stroke-width:0.80000025;stroke-linecap:square;stroke-miterlimit:3;stroke-dasharray:none"
         id="path46"
         class="st3"
         d="M 36.100105,41.492969 C 123.30015,41.492969 123.30015,41.492969 123.30015,41.492969" />
      <path
         style="fill:none;stroke:none;stroke-width:0.80000031;stroke-miterlimit:3;stroke-dasharray:none"
         id="path54"
         class="st1"
         d="M 22.921347,1.7 C 118.54135,1.7 118.54135,1.7 118.54135,1.7 L 22.921347,1.7 z" />
      <path
         style="fill:none;stroke-width:0.80000031;stroke-miterlimit:3;stroke-dasharray:none"
         id="path59"
         class="st2"
         d="M 22.921347,1.7 C 118.54135,1.7 118.54135,1.7 118.54135,1.7 L 22.921347,1.7 z" />
      <path
         style="stroke:#000000;stroke-width:0.80000031;stroke-linecap:square;stroke-miterlimit:3;stroke-dasharray:none"
         id="path61"
         class="st3"
         d="M 36.100106,2.2929529 C 123.30015,2.2929529 123.30015,2.2929529 123.30015,2.2929529" />
      <path
         style="fill:none;stroke:none;stroke-width:0.80000031;stroke-miterlimit:3;stroke-dasharray:none"
         id="path69"
         class="st1"
         d="M 54.4499,5.58515 C 54.4499,36.15515 54.4499,36.15515 54.4499,36.15515 L 54.4499,5.58515 z" />
      <path
         style="fill:none;stroke-width:0.80000031;stroke-miterlimit:3;stroke-dasharray:none"
         id="path74"
         class="st2"
         d="M 54.4499,5.58515 C 54.4499,36.15515 54.4499,36.15515 54.4499,36.15515 L 54.4499,5.58515 z" />
      <path
         style="fill:none;stroke:none;stroke-width:0.80000031;stroke-miterlimit:3;stroke-dasharray:none"
         id="path84"
         class="st1"
         d="M 86.9499,5.58515 C 86.9499,36.15515 86.9499,36.15515 86.9499,36.15515 L 86.9499,5.58515 z" />
      <path
         style="fill:none;stroke-width:0.80000031;stroke-miterlimit:3;stroke-dasharray:none"
         id="path89"
         class="st2"
         d="M 86.9499,5.58515 C 86.9499,36.15515 86.9499,36.15515 86.9499,36.15515 L 86.9499,5.58515 z" />
      <path
         style="fill:none;stroke:none;stroke-width:0.80000031;stroke-miterlimit:3;stroke-dasharray:none"
         id="path99"
         class="st1"
         d="M 78.9886,30.60484 C 78.9886,36.15484 78.9886,36.15484 78.9886,36.15484 L 78.9886,30.60484 z" />
      <path
         style="fill:none;stroke-width:0.80000031;stroke-miterlimit:3;stroke-dasharray:none"
         id="path104"
         class="st2"
         d="M 78.9886,30.60484 C 78.9886,36.15484 78.9886,36.15484 78.9886,36.15484 L 78.9886,30.60484 z" />
      <path
         style="fill:none;stroke:none;stroke-width:0.80000031;stroke-miterlimit:3;stroke-dasharray:none"
         id="path114"
         class="st1"
         d="M 62.7398,5.5923 C 62.7398,11.1423 62.7398,11.1423 62.7398,11.1423 L 62.7398,5.5923 z" />
      <path
         style="fill:none;stroke-width:0.80000031;stroke-miterlimit:3;stroke-dasharray:none"
         id="path119"
         class="st2"
         d="M 62.7398,5.5923 C 62.7398,11.1423 62.7398,11.1423 62.7398,11.1423 L 62.7398,5.5923 z" />
      <path
         style="fill:none;stroke:none;stroke-width:0.80000031;stroke-miterlimit:3;stroke-dasharray:none"
         id="path129"
         class="st1"
         d="M 78.9886,5.5923 C 78.9886,11.1423 78.9886,11.1423 78.9886,11.1423 L 78.9886,5.5923 z" />
      <path
         style="fill:none;stroke-width:0.80000031;stroke-miterlimit:3;stroke-dasharray:none"
         id="path134"
         class="st2"
         d="M 78.9886,5.5923 C 78.9886,11.1423 78.9886,11.1423 78.9886,11.1423 L 78.9886,5.5923 z" />
      <path
         style="fill:none;stroke:none;stroke-width:0.80000031;stroke-miterlimit:3;stroke-dasharray:none"
         id="path144"
         class="st1"
         d="M 65.5211,29.6261 C 59.9611,29.6261 59.9611,29.6261 59.9611,29.6261 L 65.5211,29.6261 z" />
      <path
         style="fill:none;stroke-width:0.80000031;stroke-miterlimit:3;stroke-dasharray:none"
         id="path149"
         class="st2"
         d="M 65.5211,29.6261 C 59.9611,29.6261 59.9611,29.6261 59.9611,29.6261 L 65.5211,29.6261 z" />
      <path
         style="fill:none;stroke:none;stroke-width:0.80000031;stroke-miterlimit:3;stroke-dasharray:none"
         id="path159"
         class="st1"
         d="M 81.7699,29.6261 C 76.2099,29.6261 76.2099,29.6261 76.2099,29.6261 L 81.7699,29.6261 z" />
      <path
         style="fill:none;stroke-width:0.80000031;stroke-miterlimit:3;stroke-dasharray:none"
         id="path164"
         class="st2"
         d="M 81.7699,29.6261 C 76.2099,29.6261 76.2099,29.6261 76.2099,29.6261 L 81.7699,29.6261 z" />
      <path
         style="fill:none;stroke:none;stroke-width:0.80000031;stroke-miterlimit:3;stroke-dasharray:none"
         id="path174"
         class="st1"
         d="M 65.5211,12.1136 C 59.9611,12.1136 59.9611,12.1136 59.9611,12.1136 L 65.5211,12.1136 z" />
      <path
         style="fill:none;stroke-width:0.80000031;stroke-miterlimit:3;stroke-dasharray:none"
         id="path179"
         class="st2"
         d="M 65.5211,12.1136 C 59.9611,12.1136 59.9611,12.1136 59.9611,12.1136 L 65.5211,12.1136 z" />
      <path
         style="fill:none;stroke:none;stroke-width:0.80000031;stroke-miterlimit:3;stroke-dasharray:none"
         id="path189"
         class="st1"
         d="M 81.7699,12.1136 C 76.2099,12.1136 76.2099,12.1136 76.2099,12.1136 L 81.7699,12.1136 z" />
      <path
         style="fill:none;stroke-width:0.80000031;stroke-miterlimit:3;stroke-dasharray:none"
         id="path194"
         class="st2"
         d="M 81.7699,12.1136 C 76.2099,12.1136 76.2099,12.1136 76.2099,12.1136 L 81.7699,12.1136 z" />
      <path
         style="stroke:#000000;stroke-width:0.80000031;stroke-linecap:square;stroke-miterlimit:3;stroke-dasharray:none"
         id="path26"
         class="st3"
         d="M 73.300125,30.281329 C 73.300125,37.481119 73.300125,37.481119 73.300125,37.481119" />
      <path
         style="stroke:#000000;stroke-width:0.80000031;stroke-miterlimit:3;stroke-dasharray:none"
         id="path76"
         class="st3"
         d="M 65.300122,6.2929669 C 65.300122,37.492967 65.300122,37.492967 65.300122,37.492967" />
      <path
         style="stroke:#000000;stroke-width:0.80000031;stroke-miterlimit:3;stroke-dasharray:none"
         id="path91"
         class="st3"
         d="M 97.300135,6.2929669 C 97.300135,37.492967 97.300135,37.492967 97.300135,37.492967" />
      <path
         style="stroke:#000000;stroke-width:0.80000031;stroke-linecap:butt;stroke-miterlimit:3;stroke-dasharray:none"
         id="path121"
         class="st3"
         d="m 73.300123,6.0664893 c 0,16.2264717 0,16.2264717 0,16.2264717"
         inkscape:connector-curvature="0" />
      <path
         style="stroke:#000000;stroke-width:0.80000037;stroke-miterlimit:3;stroke-dasharray:none"
         id="path136"
         class="st3"
         d="m 89.300134,6.2931692 c 0,26.5403348 0,26.5403348 0,26.5403348"
         inkscape:connector-curvature="0" />
      <path
         style="stroke:#000000;stroke-width:0.80000025;stroke-linecap:square;stroke-miterlimit:3;stroke-dasharray:none"
         id="path151"
         class="st3"
         d="M 76.900159,29.492964 C 69.700091,29.492964 69.700091,29.492964 69.700091,29.492964" />
      <path
         style="stroke:#000000;stroke-width:0.80000049;stroke-linecap:square;stroke-miterlimit:3;stroke-dasharray:none"
         id="path166"
         class="st3"
         d="m 88.921293,21.892962 c -15.491948,0 -15.491948,0 -15.491948,0"
         inkscape:connector-curvature="0" />
      <path
         d="M 57.300119,32.08824 C 57.300119,6.13824 57.300119,6.13824 57.300119,6.13824"
         class="st3"
         id="path201"
         style="stroke:#000000;stroke-width:0.80000031;stroke-miterlimit:3;stroke-dasharray:none" />
      <path
         style="stroke:#000000;stroke-width:0.80000025;stroke-miterlimit:3;stroke-dasharray:none"
         id="path206"
         class="st3"
         d="M 41.300113,9.8954409 C 41.300113,37.12902 41.300113,37.12902 41.300113,37.12902" />
      <path
         d="M 118.70551,34.303703 C 105.10014,6.2929562 105.10014,6.2929562 105.10014,6.2929562"
         class="st6"
         id="path224"
         style="stroke:#000000;stroke-width:0.80000031;stroke-linecap:butt;stroke-miterlimit:3;stroke-dasharray:none" />
      <path
         style="fill:#000000;stroke:none"
         id="path229"
         class="st5"
         d="m 55.156518,29.219851 2.140516,8.000003 2.146686,-8.000003 -4.287202,0 z" />
      <g
         id="g3249"
         transform="translate(0.8000003,8.000003)"
         style="fill:#ffffff;fill-opacity:1">
        <rect
           x="-29.492964"
           y="-32.500111"
           width="15.200006"
           height="31.200014"
           class="st4"
           id="rect244"
           style="fill:#ffffff;stroke:#000000;stroke-width:0.80000024999999986;stroke-linecap:butt;stroke-miterlimit:3;stroke-dasharray:none;fill-opacity:1"
           transform="matrix(0,-1,-1,0,0,0)" />
        <path
           d="M 13.300102,29.492964 C 20.500105,14.292958 20.500105,14.292958 20.500105,14.292958"
           class="st3"
           id="path249"
           style="stroke:#000000;stroke-width:0.80000031000000005;stroke-linecap:butt;stroke-linejoin:miter;stroke-miterlimit:3;stroke-dasharray:none;fill:#ffffff;fill-opacity:1" />
      </g>
      <path
         style="stroke:#000000;stroke-width:0.80000031;stroke-linecap:butt;stroke-miterlimit:3;stroke-dasharray:none"
         id="path216"
         class="st6"
         d="M 119.24503,8.8031856 C 105.30014,37.492969 105.30014,37.492969 105.30014,37.492969" />
      <path
         sodipodi:type="star"
         style="fill:#000000;fill-opacity:1;fill-rule:nonzero;stroke:none"
         id="path3213"
         sodipodi:sides="3"
         sodipodi:cx="60.89957"
         sodipodi:cy="58.297245"
         sodipodi:r1="6.7420382"
         sodipodi:r2="3.3710191"
         sodipodi:arg1="0.52359878"
         sodipodi:arg2="1.5707963"
         inkscape:flatsided="false"
         inkscape:rounded="0"
         inkscape:randomized="0"
         d="m 66.738347,61.668264 -5.838776,0 -5.838777,0 2.919388,-5.056528 2.919388,-5.056529 2.919389,5.056528 z"
         transform="matrix(0.36713186,0,0,0.79105684,18.94194,-34.247394)" />
      <path
         style="fill:#000000;fill-opacity:1;stroke:none"
         id="path229-7"
         class="st5"
         d="m 114.69706,30.90963 5.42601,6.256218 -1.57125,-8.132617 -3.85476,1.876399 z" />
      <path
         style="fill:#000000;fill-opacity:1;stroke:none"
         id="path229-7-4"
         class="st5"
         d="m 118.77279,14.754633 1.55297,-8.134502 -5.41321,6.269405 3.86024,1.865097 z" />
      <path
         inkscape:connector-curvature="0"
         style="fill:#000000;stroke:none"
         id="path229-0"
         class="st5"
         d="m 87.156532,29.692964 2.140516,8.000003 2.146686,-8.000003 -4.287202,0 z" />
      <path
         sodipodi:type="arc"
         style="fill:#000000;fill-opacity:1;fill-rule:nonzero;stroke:none"
         id="path3055"
         sodipodi:cx="98.138832"
         sodipodi:cy="18.096209"
         sodipodi:rx="1.6183082"
         sodipodi:ry="1.6183082"
         d="m 99.75714,18.096209 a 1.6183082,1.6183082 0 1 1 -3.236616,0 1.6183082,1.6183082 0 1 1 3.236616,0 z"
         transform="matrix(0.74151542,0,0,0.74151542,16.528677,8.4743443)" />
    </g>
  </g>
</svg>
