<?xml version="1.0" encoding="UTF-8" standalone="no"?>
<!DOCTYPE svg PUBLIC "-//W3C//DTD SVG 1.0//EN" "http://www.w3.org/TR/2001/REC-SVG-20010904/DTD/svg10.dtd">
<!-- Generated by Microsoft Visio 11.0, SVG Export, v1.0 43valve.svg Page-1 -->
<svg xmlns="http://www.w3.org/2000/svg" xmlns:v="http://schemas.microsoft.com/visio/2003/SVGExtensions/" width="1.67002in"
		height="0.579722in" viewBox="0 0 120.241 41.74" xml:space="preserve" color-interpolation-filters="sRGB" class="st7">
	<v:documentProperties v:langID="1033" v:metric="true" v:viewMarkup="false"/>

	<style type="text/css">
	<![CDATA[
		.st1 {fill:none;stroke:none;stroke-width:1.7}
		.st2 {fill:none}
		.st3 {stroke:#000000;stroke-width:1.7}
		.st4 {fill:none;stroke:#000000;stroke-linecap:butt;stroke-width:1.7}
		.st5 {fill:#000000;stroke:#000000;stroke-linecap:butt;stroke-width:1.7}
		.st6 {stroke:#000000;stroke-linecap:butt;stroke-width:1.7}
		.st7 {fill:none;fill-rule:evenodd;font-size:12;overflow:visible;stroke-linecap:square;stroke-miterlimit:3}
	]]>
	</style>

	<g v:mID="0" v:index="1" v:groupContext="foregroundPage">
		<title>Page-1</title>
		<v:pageProperties v:drawingScale="1" v:pageScale="1" v:drawingUnits="19" v:shadowOffsetX="9" v:shadowOffsetY="-9"/>
		<g id="group1-1" transform="translate(22.889,-1.7)" v:mID="1" v:groupContext="group">
			<title>layer1</title>
			<g id="group2-2" transform="translate(39.8508,-3.88517)" v:mID="2" v:groupContext="group">
				<title>path3184</title>
				<g id="shape3-3" v:mID="3" v:groupContext="shape">
					<title>Sheet.3</title>
					<path d="M0 36.19 C0 41.74 0 41.74 0 41.74 L0 36.19 Z" class="st1"/>
				</g>
				<g id="shape4-5" v:mID="4" v:groupContext="shape">
					<title>Sheet.4</title>
					<path d="M0 36.19 C0 41.74 0 41.74 0 41.74 L0 36.19 Z" class="st2"/>
					<path d="M0 36.19 C0 41.74 0 41.74 0 41.74" class="st3"/>
				</g>
			</g>
			<g id="shape5-8" v:mID="5" v:groupContext="shape" transform="translate(41.7724,37.8575) rotate(90) scale(-1,1)">
				<title>rect4023</title>
				<rect x="0" y="-53.8173" width="30.5736" height="95.5573" class="st4"/>
			</g>
			<g id="group6-10" v:mID="6" v:groupContext="group">
				<title>path3174</title>
				<g id="shape7-11" v:mID="7" v:groupContext="shape">
					<title>Sheet.7</title>
					<path d="M0 41.74 C95.62 41.74 95.62 41.74 95.62 41.74 L0 41.74 Z" class="st1"/>
				</g>
				<g id="shape8-13" v:mID="8" v:groupContext="shape">
					<title>Sheet.8</title>
					<path d="M0 41.74 C95.62 41.74 95.62 41.74 95.62 41.74 L0 41.74 Z" class="st2"/>
					<path d="M0 41.74 C95.62 41.74 95.62 41.74 95.62 41.74" class="st3"/>
				</g>
			</g>
			<g id="group9-16" transform="translate(0.0323475,-38.34)" v:mID="9" v:groupContext="group">
				<title>path3176</title>
				<g id="shape10-17" v:mID="10" v:groupContext="shape">
					<title>Sheet.10</title>
					<path d="M0 41.74 C95.62 41.74 95.62 41.74 95.62 41.74 L0 41.74 Z" class="st1"/>
				</g>
				<g id="shape11-19" v:mID="11" v:groupContext="shape">
					<title>Sheet.11</title>
					<path d="M0 41.74 C95.62 41.74 95.62 41.74 95.62 41.74 L0 41.74 Z" class="st2"/>
					<path d="M0 41.74 C95.62 41.74 95.62 41.74 95.62 41.74" class="st3"/>
				</g>
			</g>
			<g id="group12-22" transform="translate(31.5609,-3.88485)" v:mID="12" v:groupContext="group">
				<title>path3178</title>
				<g id="shape13-23" v:mID="13" v:groupContext="shape">
					<title>Sheet.13</title>
					<path d="M0 11.17 C0 41.74 0 41.74 0 41.74 L0 11.17 Z" class="st1"/>
				</g>
				<g id="shape14-25" v:mID="14" v:groupContext="shape">
					<title>Sheet.14</title>
					<path d="M0 11.17 C0 41.74 0 41.74 0 41.74 L0 11.17 Z" class="st2"/>
					<path d="M0 11.17 C0 41.74 0 41.74 0 41.74" class="st3"/>
				</g>
			</g>
			<g id="group15-28" transform="translate(64.0609,-3.88485)" v:mID="15" v:groupContext="group">
				<title>path3182</title>
				<g id="shape16-29" v:mID="16" v:groupContext="shape">
					<title>Sheet.16</title>
					<path d="M0 11.17 C0 41.74 0 41.74 0 41.74 L0 11.17 Z" class="st1"/>
				</g>
				<g id="shape17-31" v:mID="17" v:groupContext="shape">
					<title>Sheet.17</title>
					<path d="M0 11.17 C0 41.74 0 41.74 0 41.74 L0 11.17 Z" class="st2"/>
					<path d="M0 11.17 C0 41.74 0 41.74 0 41.74" class="st3"/>
				</g>
			</g>
			<g id="group18-34" transform="translate(56.0996,-3.88516)" v:mID="18" v:groupContext="group">
				<title>path3186</title>
				<g id="shape19-35" v:mID="19" v:groupContext="shape">
					<title>Sheet.19</title>
					<path d="M0 36.19 C0 41.74 0 41.74 0 41.74 L0 36.19 Z" class="st1"/>
				</g>
				<g id="shape20-37" v:mID="20" v:groupContext="shape">
					<title>Sheet.20</title>
					<path d="M0 36.19 C0 41.74 0 41.74 0 41.74 L0 36.19 Z" class="st2"/>
					<path d="M0 36.19 C0 41.74 0 41.74 0 41.74" class="st3"/>
				</g>
			</g>
			<g id="group21-40" transform="translate(39.8508,-28.8977)" v:mID="21" v:groupContext="group">
				<title>path3192</title>
				<g id="shape22-41" v:mID="22" v:groupContext="shape">
					<title>Sheet.22</title>
					<path d="M0 36.19 C0 41.74 0 41.74 0 41.74 L0 36.19 Z" class="st1"/>
				</g>
				<g id="shape23-43" v:mID="23" v:groupContext="shape">
					<title>Sheet.23</title>
					<path d="M0 36.19 C0 41.74 0 41.74 0 41.74 L0 36.19 Z" class="st2"/>
					<path d="M0 36.19 C0 41.74 0 41.74 0 41.74" class="st3"/>
				</g>
			</g>
			<g id="group24-46" transform="translate(56.0996,-28.8977)" v:mID="24" v:groupContext="group">
				<title>path3194</title>
				<g id="shape25-47" v:mID="25" v:groupContext="shape">
					<title>Sheet.25</title>
					<path d="M0 36.19 C0 41.74 0 41.74 0 41.74 L0 36.19 Z" class="st1"/>
				</g>
				<g id="shape26-49" v:mID="26" v:groupContext="shape">
					<title>Sheet.26</title>
					<path d="M0 36.19 C0 41.74 0 41.74 0 41.74 L0 36.19 Z" class="st2"/>
					<path d="M0 36.19 C0 41.74 0 41.74 0 41.74" class="st3"/>
				</g>
			</g>
			<g id="group27-52" transform="translate(37.0721,-10.4139)" v:mID="27" v:groupContext="group">
				<title>path3196</title>
				<g id="shape28-53" v:mID="28" v:groupContext="shape">
					<title>Sheet.28</title>
					<path d="M5.56 41.74 C0 41.74 -0 41.74 0 41.74 L5.56 41.74 Z" class="st1"/>
				</g>
				<g id="shape29-55" v:mID="29" v:groupContext="shape">
					<title>Sheet.29</title>
					<path d="M5.56 41.74 C0 41.74 -0 41.74 0 41.74 L5.56 41.74 Z" class="st2"/>
					<path d="M5.56 41.74 C0 41.74 -0 41.74 0 41.74" class="st3"/>
				</g>
			</g>
			<g id="group30-58" transform="translate(53.3209,-10.4139)" v:mID="30" v:groupContext="group">
				<title>path3198</title>
				<g id="shape31-59" v:mID="31" v:groupContext="shape">
					<title>Sheet.31</title>
					<path d="M5.56 41.74 C0 41.74 -0 41.74 0 41.74 L5.56 41.74 Z" class="st1"/>
				</g>
				<g id="shape32-61" v:mID="32" v:groupContext="shape">
					<title>Sheet.32</title>
					<path d="M5.56 41.74 C0 41.74 -0 41.74 0 41.74 L5.56 41.74 Z" class="st2"/>
					<path d="M5.56 41.74 C0 41.74 -0 41.74 0 41.74" class="st3"/>
				</g>
			</g>
			<g id="group33-64" transform="translate(37.0721,-27.9264)" v:mID="33" v:groupContext="group">
				<title>path3200</title>
				<g id="shape34-65" v:mID="34" v:groupContext="shape">
					<title>Sheet.34</title>
					<path d="M5.56 41.74 C0 41.74 -0 41.74 0 41.74 L5.56 41.74 Z" class="st1"/>
				</g>
				<g id="shape35-67" v:mID="35" v:groupContext="shape">
					<title>Sheet.35</title>
					<path d="M5.56 41.74 C0 41.74 -0 41.74 0 41.74 L5.56 41.74 Z" class="st2"/>
					<path d="M5.56 41.74 C0 41.74 -0 41.74 0 41.74" class="st3"/>
				</g>
			</g>
			<g id="group36-70" transform="translate(53.3209,-27.9264)" v:mID="36" v:groupContext="group">
				<title>path3202</title>
				<g id="shape37-71" v:mID="37" v:groupContext="shape">
					<title>Sheet.37</title>
					<path d="M5.56 41.74 C0 41.74 -0 41.74 0 41.74 L5.56 41.74 Z" class="st1"/>
				</g>
				<g id="shape38-73" v:mID="38" v:groupContext="shape">
					<title>Sheet.38</title>
					<path d="M5.56 41.74 C0 41.74 -0 41.74 0 41.74 L5.56 41.74 Z" class="st2"/>
					<path d="M5.56 41.74 C0 41.74 -0 41.74 0 41.74" class="st3"/>
				</g>
			</g>
			<g id="shape40-76" v:mID="40" v:groupContext="shape" transform="translate(23.8656,-7.95176)">
				<title>path8767</title>
				<path d="M0 41.74 C0 15.79 0 15.79 0 15.79" class="st3"/>
			</g>
		</g>
		<g id="shape39-79" v:mID="39" v:groupContext="shape" transform="translate(31.0456,-5.78625)">
			<title>path3204</title>
			<path d="M0 15.33 C0 41.74 0 41.74 0 41.74" class="st3"/>
		</g>
		<g id="shape43-82" v:mID="43" v:groupContext="shape" transform="translate(28.0268,-27.6155)">
			<title>Triangle</title>
			<v:userDefs>
				<v:ud v:nameU="visVersion" v:val="VT0(12):26"/>
			</v:userDefs>
			<path d="M6.48 41.74 L3.01 35.72 L-0.47 41.74 L6.48 41.74 Z" class="st5"/>
		</g>
		<g id="shape42-84" v:mID="42" v:groupContext="shape" transform="translate(115.347,-0.217396) rotate(29.7)">
			<title>path3204.42</title>
			<path d="M0 12.29 C0 41.74 0 41.74 0 41.74" class="st6"/>
		</g>
		<g id="group46-87" transform="translate(111.684,47.7965) rotate(-20.1) scale(1,-1)" v:mID="46" v:groupContext="group">
			<title>Sheet.46</title>
			<g id="shape48-88" v:mID="48" v:groupContext="shape" transform="translate(5.34198,4.88955) rotate(9.6)">
				<title>path3204</title>
				<path d="M0 11.62 C0 41.74 0 41.74 0 41.74" class="st6"/>
			</g>
		</g>
		<g id="shape47-91" v:mID="47" v:groupContext="shape" transform="translate(49.7085,69.4242) rotate(180)">
			<title>Triangle.47</title>
			<v:userDefs>
				<v:ud v:nameU="visVersion" v:val="VT0(12):26"/>
			</v:userDefs>
			<path d="M6.48 41.74 L3.01 35.72 L-0.47 41.74 L6.48 41.74 Z" class="st5"/>
		</g>
		<g id="shape44-93" v:mID="44" v:groupContext="shape" transform="translate(131.066,63.2329) rotate(150)">
			<title>Triangle.44</title>
			<v:userDefs>
				<v:ud v:nameU="visVersion" v:val="VT0(12):26"/>
			</v:userDefs>
			<path d="M6.48 41.74 L3.01 35.72 L-0.47 41.74 L6.48 41.74 Z" class="st5"/>
		</g>
		<g id="shape41-95" v:mID="41" v:groupContext="shape" transform="translate(125.911,-24.5733) rotate(30)">
			<title>Triangle.41</title>
			<v:userDefs>
				<v:ud v:nameU="visVersion" v:val="VT0(12):26"/>
			</v:userDefs>
			<path d="M6.48 41.74 L3.01 35.72 L-0.47 41.74 L6.48 41.74 Z" class="st5"/>
		</g>
		<g id="shape45-97" v:mID="45" v:groupContext="shape" transform="translate(43.44,26.3887) rotate(90) scale(-1,1)">
			<title>rect4023</title>
			<rect x="0" y="20.6462" width="11.25" height="21.0937" class="st4"/>
		</g>
		<g id="shape49-99" v:mID="49" v:groupContext="shape" transform="translate(24.1916,-13.1153) rotate(20)">
			<title>path8767</title>
			<path d="M0 41.74 C0 30.58 0 30.58 0 30.58" class="st3"/>
		</g>
	</g>
</svg>
