<?xml version="1.0" encoding="UTF-8" standalone="no"?>
<!-- Created with Inkscape (http://www.inkscape.org/) -->

<svg
   xmlns:dc="http://purl.org/dc/elements/1.1/"
   xmlns:cc="http://creativecommons.org/ns#"
   xmlns:rdf="http://www.w3.org/1999/02/22-rdf-syntax-ns#"
   xmlns:svg="http://www.w3.org/2000/svg"
   xmlns="http://www.w3.org/2000/svg"
   xmlns:sodipodi="http://sodipodi.sourceforge.net/DTD/sodipodi-0.dtd"
   xmlns:inkscape="http://www.inkscape.org/namespaces/inkscape"
   width="40"
   height="20"
   id="svg3336"
   sodipodi:version="0.32"
   inkscape:version="0.48.0 r9654"
   sodipodi:docname="stopsimulation_user.svg"
   inkscape:output_extension="org.inkscape.output.svg.inkscape"
   version="1.0">
  <defs
     id="defs3338">
    <marker
       inkscape:stockid="Arrow2Mend"
       orient="auto"
       refY="0"
       refX="0"
       id="Arrow2Mend"
       style="overflow:visible">
      <path
         id="path3629"
         style="font-size:12px;fill-rule:evenodd;stroke-width:0.625;stroke-linejoin:round"
         d="M 8.7185878,4.0337352 -2.2072895,0.01601326 8.7185884,-4.0017078 c -1.7454984,2.3720609 -1.7354408,5.6174519 -6e-7,8.035443 l 0,0 z"
         transform="scale(-0.6,-0.6)"
         inkscape:connector-curvature="0" />
    </marker>
    <marker
       inkscape:stockid="DotM"
       orient="auto"
       refY="0"
       refX="0"
       id="DotM"
       style="overflow:visible">
      <path
         id="path3667"
         d="m -2.5,-1 c 0,2.76 -2.24,5 -5,5 -2.76,0 -5,-2.24 -5,-5 0,-2.76 2.24,-5 5,-5 2.76,0 5,2.24 5,5 z"
         style="fill-rule:evenodd;stroke:#000000;stroke-width:1pt;marker-start:none;marker-end:none"
         transform="matrix(0.4,0,0,0.4,2.96,0.4)"
         inkscape:connector-curvature="0" />
    </marker>
    <marker
       inkscape:stockid="DotL"
       orient="auto"
       refY="0"
       refX="0"
       id="DotL"
       style="overflow:visible">
      <path
         id="path3664"
         d="m -2.5,-1 c 0,2.76 -2.24,5 -5,5 -2.76,0 -5,-2.24 -5,-5 0,-2.76 2.24,-5 5,-5 2.76,0 5,2.24 5,5 z"
         style="fill-rule:evenodd;stroke:#000000;stroke-width:1pt;marker-start:none;marker-end:none"
         transform="matrix(0.8,0,0,0.8,5.92,0.8)"
         inkscape:connector-curvature="0" />
    </marker>
    <marker
       style="overflow:visible"
       id="TriangleOutL"
       refX="0"
       refY="0"
       orient="auto"
       inkscape:stockid="TriangleOutL">
      <path
         transform="scale(0.8,0.8)"
         style="fill-rule:evenodd;stroke:#000000;stroke-width:1pt;marker-start:none"
         d="m 5.77,0 -8.65,5 0,-10 8.65,5 z"
         id="path8118"
         inkscape:connector-curvature="0" />
    </marker>
    <inkscape:perspective
       sodipodi:type="inkscape:persp3d"
       inkscape:vp_x="0 : 526.18109 : 1"
       inkscape:vp_y="0 : 1000 : 0"
       inkscape:vp_z="744.09448 : 526.18109 : 1"
       inkscape:persp3d-origin="372.04724 : 350.78739 : 1"
       id="perspective3344" />
  </defs>
  <sodipodi:namedview
     id="base"
     pagecolor="#ffffff"
     bordercolor="#666666"
     borderopacity="1.0"
     gridtolerance="10000"
     guidetolerance="10"
     objecttolerance="10"
     inkscape:pageopacity="0.0"
     inkscape:pageshadow="2"
     inkscape:zoom="5.6568542"
     inkscape:cx="-41.222181"
     inkscape:cy="31.348722"
     inkscape:document-units="px"
     inkscape:current-layer="layer1"
     showgrid="false"
     inkscape:window-width="1680"
     inkscape:window-height="982"
     inkscape:window-x="-8"
     inkscape:window-y="-8"
     showguides="true"
     inkscape:snap-global="true"
     inkscape:snap-intersection-line-segments="true"
     inkscape:snap-center="true"
     inkscape:window-maximized="1"
     fit-margin-top="0"
     fit-margin-left="0"
     fit-margin-right="0"
     fit-margin-bottom="0">
    <inkscape:grid
       type="xygrid"
       id="grid2405"
       visible="true"
       enabled="true"
       empspacing="5"
       snapvisiblegridlinesonly="true" />
  </sodipodi:namedview>
  <metadata
     id="metadata3341">
    <rdf:RDF>
      <cc:Work
         rdf:about="">
        <dc:format>image/svg+xml</dc:format>
        <dc:type
           rdf:resource="http://purl.org/dc/dcmitype/StillImage" />
      </cc:Work>
    </rdf:RDF>
  </metadata>
  <g
     inkscape:label="Layer 1"
     inkscape:groupmode="layer"
     id="layer1"
     transform="translate(-211.8125,-383.40625)">
    <rect
       style="fill:#ffffff;fill-opacity:1;stroke:#0000bb;stroke-width:1.50000000000000000;stroke-linecap:square;stroke-linejoin:miter;stroke-miterlimit:4;stroke-opacity:1;stroke-dasharray:none;stroke-dashoffset:0"
       id="rect3623"
       width="38.5"
       height="18.5"
       x="212.57785"
       y="384.15201" />
    <g
       style="font-size:16px;font-style:normal;font-weight:bold;line-height:125%;letter-spacing:0px;word-spacing:0px;fill:#cc0000;fill-opacity:1;stroke:none;font-family:Sans;-inkscape-font-specification:Calibri Bold"
       id="text2995"
       transform="translate(0.02501034,-0.24999694)">
      <path
         d="m 221.48254,395.67545 c 0,0.53125 -0.099,0.99739 -0.29687,1.39843 -0.19792,0.40105 -0.46615,0.73568 -0.80469,1.00391 -0.33855,0.26823 -0.73438,0.47005 -1.1875,0.60547 -0.45313,0.13541 -0.9375,0.20312 -1.45312,0.20312 -0.34896,0 -0.67318,-0.0286 -0.97266,-0.0859 -0.29948,-0.0573 -0.5638,-0.12631 -0.79297,-0.20704 -0.22917,-0.0807 -0.42057,-0.16536 -0.57422,-0.2539 -0.15364,-0.0885 -0.26432,-0.16667 -0.33203,-0.23438 -0.0677,-0.0677 -0.11588,-0.16536 -0.14453,-0.29297 -0.0286,-0.1276 -0.043,-0.31119 -0.043,-0.55078 0,-0.16145 0.005,-0.29687 0.0156,-0.40625 0.0104,-0.10937 0.0273,-0.19791 0.0508,-0.26562 0.0234,-0.0677 0.0547,-0.11589 0.0937,-0.14453 0.0391,-0.0286 0.0846,-0.043 0.13672,-0.043 0.0729,0 0.17578,0.043 0.30859,0.1289 0.13281,0.0859 0.30338,0.181 0.51172,0.28516 0.20833,0.10417 0.45703,0.19922 0.74609,0.28516 0.28906,0.0859 0.6237,0.1289 1.00391,0.1289 0.25,0 0.47395,-0.0299 0.67187,-0.0898 0.19792,-0.0599 0.36588,-0.14453 0.50391,-0.25391 0.13802,-0.10937 0.24348,-0.24479 0.31641,-0.40625 0.0729,-0.16145 0.10937,-0.34114 0.10937,-0.53906 0,-0.22916 -0.0625,-0.42578 -0.1875,-0.58984 -0.125,-0.16406 -0.28776,-0.3099 -0.48828,-0.4375 -0.20052,-0.1276 -0.42839,-0.24739 -0.68359,-0.35938 -0.25522,-0.11197 -0.51824,-0.23046 -0.78907,-0.35547 -0.27083,-0.12499 -0.53385,-0.26692 -0.78906,-0.42578 -0.25521,-0.15885 -0.48307,-0.34895 -0.68359,-0.57031 -0.20052,-0.22135 -0.36328,-0.48307 -0.48828,-0.78516 -0.125,-0.30207 -0.1875,-0.66405 -0.1875,-1.08593 0,-0.48437 0.0898,-0.91015 0.26953,-1.27735 0.17968,-0.36718 0.42187,-0.67186 0.72656,-0.91406 0.30469,-0.24218 0.66406,-0.42317 1.07813,-0.54297 0.41405,-0.11978 0.85286,-0.17968 1.3164,-0.17969 0.23958,1e-5 0.47916,0.0182 0.71875,0.0547 0.23958,0.0365 0.46354,0.0859 0.67188,0.14844 0.20832,0.0625 0.39322,0.13282 0.55468,0.21094 0.16146,0.0781 0.26823,0.14323 0.32032,0.19531 0.0521,0.0521 0.0872,0.0964 0.10547,0.13281 0.0182,0.0365 0.0338,0.0846 0.0469,0.14453 0.013,0.0599 0.0221,0.13543 0.0273,0.22656 0.005,0.0912 0.008,0.20444 0.008,0.33985 -1e-5,0.15105 -0.004,0.27865 -0.0117,0.38281 -0.008,0.10418 -0.0208,0.19011 -0.0391,0.25781 -0.0182,0.0677 -0.0443,0.1172 -0.0781,0.14844 -0.0339,0.0313 -0.0794,0.0469 -0.13672,0.0469 -0.0573,0 -0.14844,-0.0365 -0.27344,-0.10938 -0.125,-0.0729 -0.27865,-0.15233 -0.46093,-0.23828 -0.1823,-0.0859 -0.39324,-0.16405 -0.63282,-0.23438 -0.23958,-0.0703 -0.5026,-0.10546 -0.78906,-0.10546 -0.22396,0 -0.41927,0.0274 -0.58594,0.082 -0.16667,0.0547 -0.30599,0.13021 -0.41796,0.22656 -0.11199,0.0964 -0.19532,0.21225 -0.25,0.34766 -0.0547,0.13542 -0.082,0.27865 -0.082,0.42968 0,0.22397 0.0612,0.41798 0.1836,0.58203 0.12239,0.16407 0.28645,0.30991 0.49219,0.4375 0.20572,0.12761 0.43879,0.24741 0.69921,0.35938 0.26042,0.11198 0.52604,0.23047 0.79688,0.35547 0.27083,0.125 0.53645,0.26693 0.79687,0.42578 0.26041,0.15886 0.49219,0.34896 0.69532,0.57031 0.20311,0.22136 0.36718,0.48178 0.49218,0.78125 0.125,0.29948 0.1875,0.65235 0.1875,1.0586 z"
         style="font-variant:normal;font-stretch:normal;fill:#cc0000;fill-opacity:1;font-family:Calibri;-inkscape-font-specification:Calibri Bold"
         id="path3000"
         inkscape:connector-curvature="0" />
      <path
         d="m 229.77942,389.44107 c -10e-6,0.15105 -0.007,0.27996 -0.0195,0.38672 -0.013,0.10678 -0.0326,0.19272 -0.0586,0.25781 -0.026,0.0651 -0.0586,0.11329 -0.0976,0.14453 -0.0391,0.0313 -0.082,0.0469 -0.12891,0.0469 l -2.53125,0 0,8.14844 c 0,0.0521 -0.0169,0.099 -0.0508,0.14062 -0.0339,0.0417 -0.0898,0.0755 -0.16797,0.10156 -0.0781,0.026 -0.1836,0.0469 -0.3164,0.0625 -0.13282,0.0156 -0.29819,0.0234 -0.4961,0.0234 -0.19792,0 -0.36328,-0.008 -0.49609,-0.0234 -0.13282,-0.0156 -0.23829,-0.0365 -0.31641,-0.0625 -0.0781,-0.026 -0.13412,-0.0599 -0.16797,-0.10156 -0.0339,-0.0417 -0.0508,-0.0885 -0.0508,-0.14062 l 0,-8.14844 -2.53125,0 c -0.0521,10e-6 -0.0964,-0.0156 -0.13281,-0.0469 -0.0365,-0.0312 -0.0677,-0.0794 -0.0937,-0.14453 -0.026,-0.0651 -0.0456,-0.15103 -0.0586,-0.25781 -0.013,-0.10676 -0.0195,-0.23567 -0.0195,-0.38672 0,-0.15624 0.007,-0.28905 0.0195,-0.39844 0.013,-0.10936 0.0325,-0.1966 0.0586,-0.26172 0.026,-0.0651 0.0573,-0.11196 0.0937,-0.14062 0.0365,-0.0286 0.0807,-0.043 0.13281,-0.043 l 7.125,0 c 0.0469,1e-5 0.0898,0.0143 0.12891,0.043 0.039,0.0287 0.0716,0.0755 0.0976,0.14062 0.026,0.0651 0.0456,0.15236 0.0586,0.26172 0.013,0.10939 0.0195,0.2422 0.0195,0.39844 z"
         style="font-variant:normal;font-stretch:normal;fill:#cc0000;fill-opacity:1;font-family:Calibri;-inkscape-font-specification:Calibri Bold"
         id="path3002"
         inkscape:connector-curvature="0" />
      <path
         d="m 240.08411,393.53482 c -1e-5,0.83855 -0.10418,1.58855 -0.3125,2.25 -0.20835,0.66146 -0.51824,1.22266 -0.92969,1.68359 -0.41147,0.46094 -0.92058,0.8125 -1.52734,1.05469 -0.60678,0.24219 -1.3086,0.36328 -2.10547,0.36328 -0.78647,0 -1.47266,-0.10286 -2.0586,-0.30859 -0.58594,-0.20573 -1.07422,-0.51953 -1.46484,-0.94141 -0.39063,-0.42187 -0.6836,-0.95833 -0.87891,-1.60937 -0.19531,-0.65104 -0.29297,-1.42187 -0.29297,-2.3125 0,-0.8177 0.10417,-1.55338 0.3125,-2.20703 0.20834,-0.65364 0.51823,-1.20963 0.92969,-1.66797 0.41146,-0.45833 0.92057,-0.80989 1.52735,-1.05469 0.60676,-0.24478 1.31119,-0.36718 2.11328,-0.36719 0.76562,1e-5 1.4414,0.10158 2.02734,0.30469 0.58593,0.20314 1.07551,0.51564 1.46875,0.9375 0.39322,0.42188 0.69009,0.95444 0.89063,1.59766 0.20051,0.64323 0.30077,1.40235 0.30078,2.27734 z m -2.15625,0.10938 c -1e-5,-0.53125 -0.0417,-1.01432 -0.125,-1.44922 -0.0833,-0.43489 -0.22527,-0.80729 -0.42578,-1.11719 -0.20053,-0.30989 -0.46746,-0.54947 -0.80079,-0.71875 -0.33334,-0.16926 -0.75,-0.2539 -1.25,-0.25391 -0.50521,1e-5 -0.92708,0.0951 -1.26562,0.28516 -0.33855,0.19011 -0.61198,0.44402 -0.82031,0.76172 -0.20834,0.31771 -0.35548,0.68881 -0.44141,1.11328 -0.0859,0.42448 -0.12891,0.8737 -0.12891,1.34766 0,0.55208 0.0417,1.04818 0.125,1.48828 0.0833,0.4401 0.22396,0.81641 0.42188,1.1289 0.19791,0.31251 0.46354,0.55079 0.79687,0.71485 0.33333,0.16406 0.7526,0.24609 1.25782,0.24609 0.5052,0 0.92707,-0.0937 1.26562,-0.28125 0.33854,-0.1875 0.61197,-0.44271 0.82031,-0.76562 0.20833,-0.32292 0.35546,-0.69922 0.44141,-1.12891 0.0859,-0.42968 0.1289,-0.88671 0.12891,-1.37109 z"
         style="font-variant:normal;font-stretch:normal;fill:#cc0000;fill-opacity:1;font-family:Calibri;-inkscape-font-specification:Calibri Bold"
         id="path3004"
         inkscape:connector-curvature="0" />
      <path
         d="m 248.72473,391.66763 c -1e-5,0.56772 -0.0885,1.07032 -0.26562,1.50782 -0.17709,0.4375 -0.43491,0.80599 -0.77344,1.10546 -0.33855,0.29949 -0.75391,0.52735 -1.24609,0.6836 -0.4922,0.15625 -1.07162,0.23438 -1.73829,0.23437 l -0.84375,0 0,3.22657 c 0,0.0521 -0.0169,0.099 -0.0508,0.14062 -0.0339,0.0417 -0.0898,0.0755 -0.16797,0.10156 -0.0781,0.026 -0.18229,0.0469 -0.3125,0.0625 -0.13021,0.0156 -0.29687,0.0234 -0.5,0.0234 -0.19791,0 -0.36328,-0.008 -0.49609,-0.0234 -0.13281,-0.0156 -0.23828,-0.0365 -0.31641,-0.0625 -0.0781,-0.026 -0.13281,-0.0599 -0.16406,-0.10156 -0.0312,-0.0417 -0.0469,-0.0885 -0.0469,-0.14062 l 0,-9.09375 c 0,-0.24479 0.0638,-0.42838 0.1914,-0.55079 0.12761,-0.12238 0.29557,-0.18358 0.50391,-0.18359 l 2.38281,0 c 0.23958,10e-6 0.46744,0.009 0.6836,0.0273 0.21614,0.0182 0.47525,0.0573 0.77734,0.11719 0.30208,0.0599 0.60807,0.17058 0.91797,0.33203 0.30989,0.16147 0.57421,0.3659 0.79297,0.61328 0.21874,0.24741 0.38541,0.53647 0.5,0.86719 0.11457,0.33074 0.17186,0.70183 0.17187,1.11328 z m -2.14844,0.14844 c 0,-0.35416 -0.0625,-0.64583 -0.1875,-0.875 -0.125,-0.22916 -0.27865,-0.39843 -0.46093,-0.50781 -0.1823,-0.10937 -0.37371,-0.17838 -0.57422,-0.20703 -0.20053,-0.0286 -0.40756,-0.043 -0.6211,-0.043 l -0.875,0 0,3.42969 0.92188,0 c 0.32812,0 0.60286,-0.0443 0.82422,-0.13282 0.22135,-0.0885 0.40234,-0.21223 0.54297,-0.37109 0.14062,-0.15885 0.24739,-0.34895 0.32031,-0.57031 0.0729,-0.22135 0.10937,-0.46224 0.10937,-0.72266 z"
         style="font-variant:normal;font-stretch:normal;fill:#cc0000;fill-opacity:1;font-family:Calibri;-inkscape-font-specification:Calibri Bold"
         id="path3006"
         inkscape:connector-curvature="0" />
    </g>
  </g>
</svg>
