<?xml version="1.0" encoding="UTF-8" standalone="no"?>
<!-- Created with Inkscape (http://www.inkscape.org/) -->

<svg
   xmlns:dc="http://purl.org/dc/elements/1.1/"
   xmlns:cc="http://creativecommons.org/ns#"
   xmlns:rdf="http://www.w3.org/1999/02/22-rdf-syntax-ns#"
   xmlns:svg="http://www.w3.org/2000/svg"
   xmlns="http://www.w3.org/2000/svg"
   xmlns:sodipodi="http://sodipodi.sourceforge.net/DTD/sodipodi-0.dtd"
   xmlns:inkscape="http://www.inkscape.org/namespaces/inkscape"
   version="1.0"
   width="33.335991"
   height="20.000223"
   id="svg2"
   sodipodi:version="0.32"
   inkscape:version="0.48.0 r9654"
   sodipodi:docname="spring_user.svg"
   inkscape:output_extension="org.inkscape.output.svg.inkscape">
  <metadata
     id="metadata17">
    <rdf:RDF>
      <cc:Work
         rdf:about="">
        <dc:format>image/svg+xml</dc:format>
        <dc:type
           rdf:resource="http://purl.org/dc/dcmitype/StillImage" />
      </cc:Work>
    </rdf:RDF>
  </metadata>
  <sodipodi:namedview
     inkscape:window-height="948"
     inkscape:window-width="1680"
     inkscape:pageshadow="2"
     inkscape:pageopacity="0.0"
     guidetolerance="10.0"
     gridtolerance="10.0"
     objecttolerance="10.0"
     borderopacity="1.0"
     bordercolor="#666666"
     pagecolor="#ffffff"
     id="base"
     showgrid="false"
     inkscape:zoom="22.627417"
     inkscape:cx="24.670784"
     inkscape:cy="10.127864"
     inkscape:window-x="-4"
     inkscape:window-y="-4"
     inkscape:current-layer="svg2"
     inkscape:window-maximized="0" />
  <defs
     id="defs4">
    <inkscape:perspective
       sodipodi:type="inkscape:persp3d"
       inkscape:vp_x="0 : 10.000112 : 1"
       inkscape:vp_y="0 : 1000 : 0"
       inkscape:vp_z="33.335991 : 10.000112 : 1"
       inkscape:persp3d-origin="16.667995 : 6.6667411 : 1"
       id="perspective19" />
  </defs>
  <path
     style="fill:none;stroke:#000000;stroke-width:1.5;stroke-linecap:square;stroke-linejoin:miter;stroke-miterlimit:3.55555558;stroke-opacity:1;stroke-dasharray:none;stroke-dashoffset:0"
     id="path2451"
     d="m 0.75,9.3257376 c -0.0133975,-2.965739 1.0477841,-5.7173411 2.3746176,-7.2077351 1.3268335,-1.49039366 2.9654372,-1.49039366 4.2922707,1e-7 1.3268332,1.4903941 2.1378626,4.2419963 2.1244648,7.2077353"
     inkscape:connector-curvature="0"
     sodipodi:nodetypes="cssc" />
  <path
     style="fill:none;fill-opacity:1;fill-rule:nonzero;stroke:#000000;stroke-width:1.5;stroke-linecap:square;stroke-linejoin:miter;stroke-miterlimit:3.55555558;stroke-dasharray:none;stroke-dashoffset:0;stroke-opacity:1"
     id="path3251"
     d="M 6.7008126,9.3257376 C 6.6874151,6.3599986 7.4984441,3.6083965 8.8252776,2.1180025 C 10.152111,0.62760884 11.790715,0.62760884 13.117548,2.1180026 C 14.444382,3.6083967 15.255411,6.3599989 15.242013,9.3257379" />
  <path
     style="fill:none;fill-opacity:1;fill-rule:nonzero;stroke:#000000;stroke-width:1.5;stroke-linecap:square;stroke-linejoin:miter;stroke-miterlimit:3.55555558;stroke-dasharray:none;stroke-dashoffset:0;stroke-opacity:1"
     id="path3253"
     d="M 12.398184,10.712898 C 12.393718,13.652977 12.664061,16.380773 13.106339,17.858272 C 13.548617,19.335771 14.094819,19.335771 14.537097,17.858272 C 14.979374,16.380773 15.249718,13.652977 15.245252,10.712897" />
  <path
     style="fill:none;fill-opacity:1;fill-rule:nonzero;stroke:#000000;stroke-width:1.5;stroke-linecap:square;stroke-linejoin:miter;stroke-miterlimit:3.55555558;stroke-dasharray:none;stroke-dashoffset:0;stroke-opacity:1"
     id="path3257"
     d="M 12.398433,9.3595876 C 12.385035,6.3938486 13.196064,3.6422465 14.522898,2.1518525 C 15.849731,0.66145884 17.488335,0.66145884 18.815168,2.1518526 C 20.142002,3.6422467 20.953031,6.3938489 20.939633,9.3595879" />
  <path
     style="fill:none;fill-opacity:1;fill-rule:nonzero;stroke:#000000;stroke-width:1.5;stroke-linecap:square;stroke-linejoin:miter;stroke-miterlimit:3.55555558;stroke-dasharray:none;stroke-dashoffset:0;stroke-opacity:1"
     id="path3259"
     d="M 18.095794,10.746748 C 18.091328,13.686827 18.361671,16.414623 18.803949,17.892122 C 19.246227,19.369621 19.792429,19.369621 20.234707,17.892122 C 20.676984,16.414623 20.947328,13.686827 20.942862,10.746747" />
  <path
     style="fill:none;fill-opacity:1;fill-rule:nonzero;stroke:#000000;stroke-width:1.5;stroke-linecap:square;stroke-linejoin:miter;stroke-miterlimit:3.55555558;stroke-dasharray:none;stroke-dashoffset:0;stroke-opacity:1"
     id="path3263"
     d="M 18.094903,9.3257376 C 18.081505,6.3599986 18.892534,3.6083965 20.219368,2.1180025 C 21.546201,0.62760884 23.184805,0.62760884 24.511638,2.1180026 C 25.838472,3.6083967 26.649501,6.3599989 26.636103,9.3257379" />
  <path
     style="fill:none;fill-opacity:1;fill-rule:nonzero;stroke:#000000;stroke-width:1.5;stroke-linecap:square;stroke-linejoin:miter;stroke-miterlimit:3.55555558;stroke-dasharray:none;stroke-dashoffset:0;stroke-opacity:1"
     id="path3265"
     d="M 23.792264,10.712898 C 23.787798,13.652977 24.058141,16.380773 24.500419,17.858272 C 24.942697,19.335771 25.488899,19.335771 25.931177,17.858272 C 26.373454,16.380773 26.643798,13.652977 26.639332,10.712897" />
  <path
     style="fill:none;stroke:#000000;stroke-width:1.5;stroke-linecap:square;stroke-linejoin:miter;stroke-miterlimit:3.55555558;stroke-opacity:1;stroke-dasharray:none;stroke-dashoffset:0"
     id="path3269"
     d="m 23.794623,9.3257276 c -0.0134,-2.965739 0.797631,-5.7173411 2.124465,-7.2077351 1.326834,-1.49039366 2.965438,-1.49039366 4.292272,10e-8 1.326833,1.4903941 2.392038,4.2419963 2.37864,7.2077353"
     inkscape:connector-curvature="0"
     sodipodi:nodetypes="cssc" />
  <path
     style="fill:none;fill-opacity:1;fill-rule:nonzero;stroke:#000000;stroke-width:1.5;stroke-linecap:square;stroke-linejoin:miter;stroke-miterlimit:3.55555558;stroke-dasharray:none;stroke-dashoffset:0;stroke-opacity:1"
     id="path3199"
     d="M 6.6967657,10.746725 C 6.6922998,13.686804 6.9626427,16.4146 7.4049207,17.892099 C 7.8471988,19.369598 8.3934007,19.369598 8.8356787,17.892099 C 9.2779558,16.4146 9.5482997,13.686804 9.5438337,10.746724" />
  <rect
     style="fill:#000000;fill-opacity:1;fill-rule:nonzero;stroke:#000000;stroke-width:1.25;stroke-miterlimit:4;stroke-opacity:1;stroke-dasharray:none"
     id="rect3761"
     width="0.25"
     height="0.25"
     x="0.625"
     y="9.8751116" />
  <rect
     style="fill:#000000;fill-opacity:1;fill-rule:nonzero;stroke:#000000;stroke-width:1.25;stroke-miterlimit:4;stroke-opacity:1;stroke-dasharray:none"
     id="rect3761-4"
     width="0.25"
     height="0.25"
     x="32.460991"
     y="9.8751116" />
</svg>
