<?xml version="1.0" encoding="UTF-8" standalone="no"?>
<!-- Created with Inkscape (http://www.inkscape.org/) -->

<svg
   xmlns:dc="http://purl.org/dc/elements/1.1/"
   xmlns:cc="http://creativecommons.org/ns#"
   xmlns:rdf="http://www.w3.org/1999/02/22-rdf-syntax-ns#"
   xmlns:svg="http://www.w3.org/2000/svg"
   xmlns="http://www.w3.org/2000/svg"
   xmlns:sodipodi="http://sodipodi.sourceforge.net/DTD/sodipodi-0.dtd"
   xmlns:inkscape="http://www.inkscape.org/namespaces/inkscape"
   width="40.004864"
   height="40.004864"
   id="svg4097"
   version="1.1"
   inkscape:version="0.48.0 r9654"
   sodipodi:docname="anglesensor_iso.svg">
  <defs
     id="defs4099" />
  <sodipodi:namedview
     id="base"
     pagecolor="#ffffff"
     bordercolor="#666666"
     borderopacity="1.0"
     inkscape:pageopacity="0.0"
     inkscape:pageshadow="2"
     inkscape:zoom="4.3255048"
     inkscape:cx="-26.336607"
     inkscape:cy="37.039725"
     inkscape:document-units="px"
     inkscape:current-layer="layer1"
     showgrid="false"
     inkscape:window-width="1680"
     inkscape:window-height="982"
     inkscape:window-x="-8"
     inkscape:window-y="38"
     inkscape:window-maximized="1"
     fit-margin-top="0"
     fit-margin-left="0"
     fit-margin-right="0"
     fit-margin-bottom="0" />
  <metadata
     id="metadata4102">
    <rdf:RDF>
      <cc:Work
         rdf:about="">
        <dc:format>image/svg+xml</dc:format>
        <dc:type
           rdf:resource="http://purl.org/dc/dcmitype/StillImage" />
        <dc:title></dc:title>
      </cc:Work>
    </rdf:RDF>
  </metadata>
  <g
     inkscape:label="Layer 1"
     inkscape:groupmode="layer"
     id="layer1"
     transform="translate(-355.06854,-483.01771)">
    <path
       sodipodi:type="arc"
       style="fill:none;stroke:#000000;stroke-width:1.84118247;stroke-linecap:square;stroke-miterlimit:4;stroke-opacity:1;stroke-dasharray:none;stroke-dashoffset:0"
       id="path4105"
       sodipodi:cx="220.27011"
       sodipodi:cy="486.64642"
       sodipodi:rx="35.903057"
       sodipodi:ry="35.903057"
       d="m 256.17317,486.64642 c 0,19.82871 -16.07435,35.90306 -35.90306,35.90306 -19.82871,0 -35.90306,-16.07435 -35.90306,-35.90306 0,-19.82871 16.07435,-35.90305 35.90306,-35.90305 19.82871,0 35.90306,16.07434 35.90306,35.90305 z"
       transform="matrix(0.54312924,0,0,0.54312924,255.43827,238.71139)" />
    <g
       style="font-size:30px;font-style:normal;font-variant:normal;font-weight:normal;font-stretch:normal;line-height:125%;letter-spacing:0px;word-spacing:0px;fill:#000000;fill-opacity:1;stroke:none;font-family:Calibri;-inkscape-font-specification:Calibri"
       id="text4614">
      <path
         d="m 382.57098,508.85754 c -1e-5,0.30274 -0.0171,0.52735 -0.0513,0.67383 -0.0342,0.14649 -0.083,0.24903 -0.14648,0.30762 -0.0635,0.0586 -0.15382,0.1123 -0.271,0.16113 -0.1172,0.0488 -0.26368,0.0903 -0.43945,0.12451 -0.1758,0.0342 -0.35158,0.0635 -0.52734,0.0879 -0.1758,0.0244 -0.36135,0.0366 -0.55664,0.0366 -0.36135,0 -0.71291,-0.0439 -1.05469,-0.13184 -0.34181,-0.0879 -0.64699,-0.2417 -0.91553,-0.46143 -0.26857,-0.21972 -0.49562,-0.51269 -0.68115,-0.8789 -0.18556,-0.36621 -0.30763,-0.83252 -0.36621,-1.39893 -0.18556,0.41993 -0.42482,0.80567 -0.71778,1.15723 -0.29297,0.35156 -0.63233,0.65674 -1.01806,0.91553 -0.38575,0.25879 -0.813,0.45898 -1.28174,0.60058 -0.46876,0.1416 -0.97169,0.2124 -1.50879,0.2124 -0.97657,0 -1.81153,-0.18066 -2.50488,-0.54199 -0.69336,-0.36133 -1.25733,-0.85937 -1.6919,-1.49414 -0.43457,-0.63476 -0.75439,-1.38671 -0.95947,-2.25586 -0.20508,-0.86913 -0.30762,-1.80175 -0.30762,-2.79785 0,-1.1328 0.12696,-2.15331 0.38086,-3.06152 0.25391,-0.9082 0.63233,-1.68456 1.13526,-2.3291 0.50292,-0.64452 1.1206,-1.14013 1.85302,-1.48682 0.73242,-0.34667 1.58203,-0.52001 2.54883,-0.52002 0.62499,10e-6 1.21093,0.10011 1.75782,0.30029 0.54686,0.20021 1.03026,0.49562 1.45019,0.88623 0.41991,0.39064 0.76659,0.87648 1.04004,1.45752 0.27343,0.58107 0.45409,1.25734 0.54199,2.02881 0.16601,-0.70311 0.2954,-1.31346 0.38819,-1.83105 0.0928,-0.51757 0.16112,-0.9497 0.20507,-1.29639 0.0439,-0.34667 0.0781,-0.61522 0.10254,-0.80566 0.0244,-0.19042 0.0561,-0.30517 0.0952,-0.34424 0.0293,-0.0195 0.0683,-0.0415 0.11718,-0.0659 0.0488,-0.0244 0.11474,-0.0464 0.19776,-0.0659 0.083,-0.0195 0.18553,-0.0342 0.30762,-0.0439 0.12205,-0.01 0.2661,-0.0146 0.43212,-0.0147 0.23437,1e-5 0.42724,0.007 0.57862,0.022 0.15135,0.0147 0.27098,0.0415 0.35888,0.0806 0.0879,0.0391 0.15136,0.0879 0.19043,0.14648 0.0391,0.0586 0.0586,0.12208 0.0586,0.19043 -2e-5,0.15626 -0.0244,0.39796 -0.0732,0.7251 -0.0489,0.32716 -0.11721,0.7129 -0.20508,1.15722 -0.0879,0.44435 -0.19533,0.92775 -0.32227,1.4502 -0.12697,0.52247 -0.26124,1.0547 -0.40283,1.59668 -0.14162,0.542 -0.29542,1.06934 -0.46143,1.58203 -0.16602,0.5127 -0.33692,0.98389 -0.51269,1.41358 0.01,0.83008 0.0586,1.49658 0.14648,1.99951 0.0879,0.50293 0.20751,0.89355 0.35889,1.17187 0.15135,0.27832 0.31981,0.46387 0.50537,0.55664 0.18553,0.0928 0.38085,0.13916 0.58594,0.13916 0.17577,0 0.3369,-0.0171 0.4834,-0.0513 0.14647,-0.0342 0.27586,-0.0659 0.38818,-0.0952 0.11229,-0.0293 0.20995,-0.061 0.29297,-0.0952 0.083,-0.0342 0.15379,-0.0513 0.2124,-0.0513 0.0488,1e-5 0.0879,0.0122 0.11719,0.0366 0.0293,0.0244 0.0561,0.0708 0.0806,0.13916 0.0244,0.0684 0.0415,0.16357 0.0513,0.28564 0.01,0.12207 0.0146,0.28076 0.0146,0.47607 z m -5.66894,-5.91796 c -10e-6,-0.91797 -0.0952,-1.7041 -0.28565,-2.3584 -0.19044,-0.65429 -0.4419,-1.18896 -0.75439,-1.60401 -0.31251,-0.41502 -0.6714,-0.71776 -1.07666,-0.9082 -0.40528,-0.19042 -0.82765,-0.28563 -1.26709,-0.28564 -0.61524,1e-5 -1.14014,0.14649 -1.57471,0.43945 -0.43457,0.29298 -0.79102,0.68116 -1.06933,1.16455 -0.27833,0.48341 -0.48096,1.03272 -0.60791,1.64795 -0.12696,0.61524 -0.19044,1.24512 -0.19043,1.88965 -1e-5,0.69336 0.0488,1.35987 0.14648,1.99951 0.0976,0.63965 0.27343,1.20606 0.52734,1.69922 0.25391,0.49316 0.58838,0.88867 1.00342,1.18652 0.41504,0.29785 0.94482,0.44678 1.58936,0.44678 0.57616,0 1.08642,-0.13184 1.53076,-0.39551 0.44433,-0.26367 0.81542,-0.63232 1.11328,-1.10596 0.29784,-0.47363 0.52489,-1.03027 0.68115,-1.66992 0.15624,-0.63964 0.23437,-1.33544 0.23438,-2.0874 z"
         style="font-family:Calibri;-inkscape-font-specification:Calibri"
         id="path4619" />
    </g>
  </g>
</svg>
