<?xml version="1.0" encoding="UTF-8" standalone="no"?>
<!-- Created with Inkscape (http://www.inkscape.org/) -->

<svg
   xmlns:dc="http://purl.org/dc/elements/1.1/"
   xmlns:cc="http://creativecommons.org/ns#"
   xmlns:rdf="http://www.w3.org/1999/02/22-rdf-syntax-ns#"
   xmlns:svg="http://www.w3.org/2000/svg"
   xmlns="http://www.w3.org/2000/svg"
   xmlns:sodipodi="http://sodipodi.sourceforge.net/DTD/sodipodi-0.dtd"
   xmlns:inkscape="http://www.inkscape.org/namespaces/inkscape"
   width="40.004864"
   height="40.004864"
   id="svg4097"
   version="1.1"
   inkscape:version="0.48.0 r9654"
   sodipodi:docname="torquesensor_iso.svg">
  <defs
     id="defs4099" />
  <sodipodi:namedview
     id="base"
     pagecolor="#ffffff"
     bordercolor="#666666"
     borderopacity="1.0"
     inkscape:pageopacity="0.0"
     inkscape:pageshadow="2"
     inkscape:zoom="4.6774979"
     inkscape:cx="19.941979"
     inkscape:cy="19.831276"
     inkscape:document-units="px"
     inkscape:current-layer="layer1"
     showgrid="false"
     inkscape:window-width="1680"
     inkscape:window-height="982"
     inkscape:window-x="-8"
     inkscape:window-y="38"
     inkscape:window-maximized="1"
     fit-margin-top="0"
     fit-margin-left="0"
     fit-margin-right="0"
     fit-margin-bottom="0" />
  <metadata
     id="metadata4102">
    <rdf:RDF>
      <cc:Work
         rdf:about="">
        <dc:format>image/svg+xml</dc:format>
        <dc:type
           rdf:resource="http://purl.org/dc/dcmitype/StillImage" />
        <dc:title />
      </cc:Work>
    </rdf:RDF>
  </metadata>
  <g
     inkscape:label="Layer 1"
     inkscape:groupmode="layer"
     id="layer1"
     transform="translate(-354.56647,-483.51491)">
    <path
       sodipodi:type="arc"
       style="fill:none;stroke:#000000;stroke-width:1.84118247;stroke-linecap:square;stroke-miterlimit:4;stroke-opacity:1;stroke-dasharray:none;stroke-dashoffset:0"
       id="path4105"
       sodipodi:cx="220.27011"
       sodipodi:cy="486.64642"
       sodipodi:rx="35.903057"
       sodipodi:ry="35.903057"
       d="m 256.17317,486.64642 a 35.903057,35.903057 0 1 1 -71.80612,0 35.903057,35.903057 0 1 1 71.80612,0 z"
       transform="matrix(0.54312924,0,0,0.54312924,254.93376,239.20544)" />
    <g
       style="font-size:30px;font-style:normal;font-variant:normal;font-weight:normal;font-stretch:normal;line-height:125%;letter-spacing:0px;word-spacing:0px;fill:#000000;fill-opacity:1;stroke:none;font-family:Calibri;-inkscape-font-specification:Calibri"
       id="text6255">
      <path
         d="m 381.65875,495.07983 c -10e-6,0.18557 -0.01,0.3467 -0.0293,0.4834 -0.0195,0.13674 -0.0513,0.2466 -0.0952,0.32959 -0.044,0.083 -0.0977,0.14406 -0.16113,0.18311 -0.0635,0.0391 -0.13429,0.0586 -0.2124,0.0586 l -5.33204,0 0,16.43555 c 0,0.0781 -0.0195,0.14648 -0.0586,0.20508 -0.0391,0.0586 -0.10743,0.10498 -0.20508,0.13916 -0.0977,0.0342 -0.22706,0.0635 -0.38818,0.0879 -0.16114,0.0244 -0.36378,0.0366 -0.60791,0.0366 -0.23438,0 -0.43458,-0.0122 -0.60059,-0.0366 -0.16602,-0.0244 -0.29786,-0.0537 -0.39551,-0.0879 -0.0977,-0.0342 -0.16602,-0.0806 -0.20507,-0.13916 -0.0391,-0.0586 -0.0586,-0.12696 -0.0586,-0.20508 l 0,-16.43555 -5.33203,0 c -0.0781,2e-5 -0.14892,-0.0195 -0.2124,-0.0586 -0.0635,-0.0391 -0.11475,-0.10008 -0.15381,-0.18311 -0.0391,-0.083 -0.0708,-0.19285 -0.0952,-0.32959 -0.0244,-0.1367 -0.0366,-0.29783 -0.0366,-0.4834 0,-0.18552 0.0122,-0.3491 0.0366,-0.49072 0.0244,-0.14158 0.0562,-0.25633 0.0952,-0.34424 0.0391,-0.0879 0.0903,-0.15135 0.15381,-0.19043 0.0635,-0.039 0.13428,-0.0586 0.2124,-0.0586 l 13.1836,0 c 0.0781,2e-5 0.14891,0.0195 0.2124,0.0586 0.0635,0.0391 0.11717,0.10256 0.16113,0.19043 0.0439,0.0879 0.0757,0.20266 0.0952,0.34424 0.0195,0.14162 0.0293,0.3052 0.0293,0.49072 z"
         style=""
         id="path6260" />
    </g>
  </g>
</svg>
