<?xml version="1.0" encoding="UTF-8" standalone="no"?>
<!-- Created with Inkscape (http://www.inkscape.org/) -->

<svg
   xmlns:dc="http://purl.org/dc/elements/1.1/"
   xmlns:cc="http://creativecommons.org/ns#"
   xmlns:rdf="http://www.w3.org/1999/02/22-rdf-syntax-ns#"
   xmlns:svg="http://www.w3.org/2000/svg"
   xmlns="http://www.w3.org/2000/svg"
   xmlns:sodipodi="http://sodipodi.sourceforge.net/DTD/sodipodi-0.dtd"
   xmlns:inkscape="http://www.inkscape.org/namespaces/inkscape"
   width="25"
   height="33.333332"
   id="svg3336"
   sodipodi:version="0.32"
   inkscape:version="0.48.0 r9654"
   sodipodi:docname="tripleroute.svg"
   inkscape:output_extension="org.inkscape.output.svg.inkscape"
   version="1.0">
  <defs
     id="defs3338">
    <marker
       inkscape:stockid="Arrow2Mend"
       orient="auto"
       refY="0"
       refX="0"
       id="Arrow2Mend"
       style="overflow:visible">
      <path
         id="path3629"
         style="font-size:12px;fill-rule:evenodd;stroke-width:0.625;stroke-linejoin:round"
         d="M 8.7185878,4.0337352 -2.2072895,0.01601326 8.7185884,-4.0017078 c -1.7454984,2.3720609 -1.7354408,5.6174519 -6e-7,8.035443 l 0,0 z"
         transform="scale(-0.6,-0.6)"
         inkscape:connector-curvature="0" />
    </marker>
    <marker
       inkscape:stockid="DotM"
       orient="auto"
       refY="0"
       refX="0"
       id="DotM"
       style="overflow:visible">
      <path
         id="path3667"
         d="m -2.5,-1 c 0,2.76 -2.24,5 -5,5 -2.76,0 -5,-2.24 -5,-5 0,-2.76 2.24,-5 5,-5 2.76,0 5,2.24 5,5 z"
         style="fill-rule:evenodd;stroke:#000000;stroke-width:1pt;marker-start:none;marker-end:none"
         transform="matrix(0.4,0,0,0.4,2.96,0.4)"
         inkscape:connector-curvature="0" />
    </marker>
    <marker
       inkscape:stockid="DotL"
       orient="auto"
       refY="0"
       refX="0"
       id="DotL"
       style="overflow:visible">
      <path
         id="path3664"
         d="m -2.5,-1 c 0,2.76 -2.24,5 -5,5 -2.76,0 -5,-2.24 -5,-5 0,-2.76 2.24,-5 5,-5 2.76,0 5,2.24 5,5 z"
         style="fill-rule:evenodd;stroke:#000000;stroke-width:1pt;marker-start:none;marker-end:none"
         transform="matrix(0.8,0,0,0.8,5.92,0.8)"
         inkscape:connector-curvature="0" />
    </marker>
    <marker
       style="overflow:visible"
       id="TriangleOutL"
       refX="0"
       refY="0"
       orient="auto"
       inkscape:stockid="TriangleOutL">
      <path
         transform="scale(0.8,0.8)"
         style="fill-rule:evenodd;stroke:#000000;stroke-width:1pt;marker-start:none"
         d="m 5.77,0 -8.65,5 0,-10 8.65,5 z"
         id="path8118"
         inkscape:connector-curvature="0" />
    </marker>
    <inkscape:perspective
       sodipodi:type="inkscape:persp3d"
       inkscape:vp_x="0 : 526.18109 : 1"
       inkscape:vp_y="0 : 1000 : 0"
       inkscape:vp_z="744.09448 : 526.18109 : 1"
       inkscape:persp3d-origin="372.04724 : 350.78739 : 1"
       id="perspective3344" />
  </defs>
  <sodipodi:namedview
     id="base"
     pagecolor="#ffffff"
     bordercolor="#666666"
     borderopacity="1.0"
     gridtolerance="10000"
     guidetolerance="10"
     objecttolerance="10"
     inkscape:pageopacity="0.0"
     inkscape:pageshadow="2"
     inkscape:zoom="6.1171876"
     inkscape:cx="51.948437"
     inkscape:cy="6.6749898"
     inkscape:document-units="px"
     inkscape:current-layer="layer1"
     showgrid="false"
     inkscape:window-width="1680"
     inkscape:window-height="982"
     inkscape:window-x="-8"
     inkscape:window-y="38"
     showguides="true"
     inkscape:snap-global="true"
     inkscape:snap-intersection-line-segments="true"
     inkscape:snap-center="true"
     inkscape:window-maximized="1"
     fit-margin-top="0"
     fit-margin-left="0"
     fit-margin-right="0"
     fit-margin-bottom="0"
     inkscape:guide-bbox="true">
    <inkscape:grid
       type="xygrid"
       id="grid2405"
       visible="true"
       enabled="true"
       empspacing="5"
       snapvisiblegridlinesonly="true" />
    <sodipodi:guide
       orientation="0,1"
       position="16.061304,3.7598889"
       id="guide4423" />
  </sodipodi:namedview>
  <metadata
     id="metadata3341">
    <rdf:RDF>
      <cc:Work
         rdf:about="">
        <dc:format>image/svg+xml</dc:format>
        <dc:type
           rdf:resource="http://purl.org/dc/dcmitype/StillImage" />
        <dc:title />
      </cc:Work>
    </rdf:RDF>
  </metadata>
  <g
     inkscape:label="Layer 1"
     inkscape:groupmode="layer"
     id="layer1"
     transform="translate(-212.06827,-395.9581)">
    <rect
       style="fill:#ffffff;fill-opacity:1;stroke:#0000bb;stroke-width:1.49999976;stroke-linecap:square;stroke-linejoin:miter;stroke-miterlimit:4;stroke-opacity:1;stroke-dasharray:none;stroke-dashoffset:0"
       id="rect3623"
       width="23.5"
       height="31.833332"
       x="212.81827"
       y="396.7081" />
    <path
       sodipodi:type="arc"
       style="fill:#0000bb;fill-opacity:1;stroke:#0000bb;stroke-width:1.24145961;stroke-miterlimit:4;stroke-opacity:1;stroke-dasharray:none"
       id="path3862"
       sodipodi:cx="30"
       sodipodi:cy="35.5"
       sodipodi:rx="2.5625"
       sodipodi:ry="2.5625"
       d="m 32.5625,35.5 c 0,1.41523 -1.14727,2.5625 -2.5625,2.5625 -1.41523,0 -2.5625,-1.14727 -2.5625,-2.5625 0,-1.41523 1.14727,-2.5625 2.5625,-2.5625 1.41523,0 2.5625,1.14727 2.5625,2.5625 z"
       transform="matrix(0.47121952,0,0,0.47121951,216.70456,395.86362)" />
    <path
       inkscape:connector-curvature="0"
       id="path3852"
       d="m 231.60087,412.62477 4.22698,0"
       style="fill:none;stroke:#0000bb;stroke-width:1.5;stroke-linecap:square;stroke-linejoin:miter;stroke-miterlimit:4;stroke-opacity:1;stroke-dasharray:none"
       sodipodi:nodetypes="cc" />
    <path
       inkscape:connector-curvature="0"
       id="path3852-3"
       d="m 224.76951,409.71033 6.07164,2.88158"
       style="fill:none;stroke:#0000bb;stroke-width:1.5;stroke-linecap:square;stroke-linejoin:miter;stroke-miterlimit:4;stroke-opacity:1;stroke-dasharray:none"
       sodipodi:nodetypes="cc" />
    <g
       style="font-size:8px;font-style:normal;font-variant:normal;font-weight:bold;font-stretch:normal;line-height:125%;letter-spacing:0px;word-spacing:0px;fill:#0000bb;fill-opacity:1;stroke:none;font-family:Calibri;-inkscape-font-specification:Calibri Bold"
       id="text3816">
      <path
         d="m 222.02864,406.11823 c 0,0.0729 -0.004,0.13476 -0.0117,0.18554 -0.008,0.0508 -0.0189,0.0912 -0.0332,0.1211 -0.0143,0.0299 -0.0306,0.0514 -0.0488,0.0645 -0.0182,0.013 -0.0391,0.0195 -0.0625,0.0195 l -2.78906,0 c -0.0208,0 -0.0404,-0.007 -0.0586,-0.0195 -0.0182,-0.013 -0.0345,-0.0345 -0.0488,-0.0645 -0.0143,-0.0299 -0.0254,-0.0703 -0.0332,-0.1211 -0.008,-0.0508 -0.0117,-0.11263 -0.0117,-0.18554 0,-0.0755 0.003,-0.13868 0.01,-0.18946 0.007,-0.0508 0.0169,-0.0918 0.0312,-0.12304 0.0143,-0.0312 0.0306,-0.054 0.0488,-0.0684 0.0182,-0.0143 0.0391,-0.0215 0.0625,-0.0215 l 0.9414,0 0,-3.28906 -0.8125,0.44922 c -0.0599,0.0287 -0.10872,0.0462 -0.14648,0.0527 -0.0378,0.007 -0.0677,-0.001 -0.0898,-0.0234 -0.0221,-0.0221 -0.0371,-0.0605 -0.0449,-0.11523 -0.008,-0.0547 -0.0117,-0.13151 -0.0117,-0.23047 0,-0.0625 0.001,-0.11393 0.004,-0.1543 0.003,-0.0404 0.009,-0.0749 0.0195,-0.10351 0.0104,-0.0286 0.0247,-0.0521 0.043,-0.0703 0.0182,-0.0182 0.043,-0.0378 0.0742,-0.0586 l 1.08594,-0.70312 c 0.013,-0.0104 0.0293,-0.0189 0.0488,-0.0254 0.0195,-0.007 0.0449,-0.0117 0.0762,-0.0156 0.0312,-0.004 0.0723,-0.006 0.12305,-0.008 0.0508,-10e-4 0.11653,-0.002 0.19726,-0.002 0.099,0 0.17903,0.002 0.24024,0.006 0.0612,0.004 0.10741,0.0104 0.13867,0.0195 0.0312,0.009 0.0521,0.0215 0.0625,0.0371 0.0104,0.0156 0.0156,0.0352 0.0156,0.0586 l 0,4.17578 0.82422,0 c 0.0234,0 0.0449,0.007 0.0644,0.0215 0.0195,0.0143 0.0365,0.0371 0.0508,0.0684 0.0143,0.0312 0.0247,0.0723 0.0312,0.12304 0.007,0.0508 0.01,0.11393 0.01,0.18946 z"
         id="path3992"
         inkscape:connector-curvature="0" />
    </g>
    <g
       style="font-size:8px;font-style:normal;font-variant:normal;font-weight:bold;font-stretch:normal;line-height:125%;letter-spacing:0px;word-spacing:0px;fill:#0000bb;fill-opacity:1;stroke:none;font-family:Calibri;-inkscape-font-specification:Calibri Bold"
       id="text3816-9">
      <path
         d="m 222.16927,414.45224 c -1e-5,0.0755 -0.003,0.13997 -0.01,0.19336 -0.007,0.0534 -0.0163,0.097 -0.0293,0.13086 -0.013,0.0339 -0.03,0.0579 -0.0508,0.0723 -0.0208,0.0143 -0.0443,0.0215 -0.0703,0.0215 l -2.90625,0 c -0.0573,0 -0.10677,-0.005 -0.14844,-0.0156 -0.0417,-0.0104 -0.0755,-0.0306 -0.10156,-0.0605 -0.026,-0.0299 -0.0449,-0.0736 -0.0566,-0.13086 -0.0117,-0.0573 -0.0176,-0.13151 -0.0176,-0.22266 0,-0.0859 0.004,-0.1595 0.0117,-0.2207 0.008,-0.0612 0.0221,-0.11589 0.043,-0.16406 0.0208,-0.0482 0.0475,-0.0951 0.0801,-0.14063 0.0326,-0.0456 0.0749,-0.0957 0.12695,-0.15039 l 0.875,-0.9375 c 0.17448,-0.18229 0.3151,-0.3483 0.42187,-0.49805 0.10677,-0.14973 0.19011,-0.28645 0.25,-0.41015 0.0599,-0.1237 0.10091,-0.23763 0.12305,-0.3418 0.0221,-0.10416 0.0332,-0.20312 0.0332,-0.29688 0,-0.0859 -0.0137,-0.16731 -0.041,-0.24414 -0.0274,-0.0768 -0.0677,-0.14387 -0.12109,-0.20117 -0.0534,-0.0573 -0.12045,-0.10221 -0.20118,-0.13476 -0.0807,-0.0326 -0.17578,-0.0488 -0.28515,-0.0488 -0.15365,0 -0.28972,0.0195 -0.40821,0.0586 -0.11849,0.0391 -0.22265,0.0827 -0.3125,0.13086 -0.0898,0.0482 -0.16471,0.0924 -0.22461,0.13281 -0.0599,0.0404 -0.10677,0.0606 -0.14062,0.0605 -0.0234,10e-6 -0.0436,-0.008 -0.0606,-0.0234 -0.0169,-0.0156 -0.0306,-0.0417 -0.041,-0.0781 -0.0104,-0.0365 -0.0189,-0.0853 -0.0254,-0.14649 -0.007,-0.0612 -0.01,-0.13606 -0.01,-0.22461 0,-0.0599 0.002,-0.11002 0.006,-0.15039 0.004,-0.0404 0.01,-0.0755 0.0176,-0.10546 0.008,-0.03 0.0182,-0.056 0.0312,-0.0781 0.013,-0.0221 0.0358,-0.0488 0.0684,-0.0801 0.0325,-0.0312 0.0924,-0.071 0.17969,-0.11914 0.0872,-0.0482 0.19466,-0.0951 0.32226,-0.14062 0.1276,-0.0456 0.26823,-0.084 0.42188,-0.11524 0.15364,-0.0312 0.3138,-0.0469 0.48046,-0.0469 0.26302,0 0.49284,0.0332 0.68946,0.0996 0.19661,0.0664 0.36002,0.15886 0.49023,0.27734 0.13021,0.11849 0.22721,0.25912 0.29102,0.42188 0.0638,0.16276 0.0957,0.33789 0.0957,0.52539 0,0.16406 -0.0156,0.32552 -0.0469,0.48437 -0.0313,0.15886 -0.0964,0.33008 -0.19532,0.51367 -0.099,0.1836 -0.23828,0.38672 -0.41797,0.60938 -0.17969,0.22266 -0.41797,0.48112 -0.71484,0.77539 l -0.58984,0.60547 1.99218,0 c 0.026,0 0.0501,0.008 0.0723,0.0234 0.0221,0.0156 0.041,0.0397 0.0566,0.0723 0.0156,0.0326 0.0273,0.0755 0.0352,0.12891 0.008,0.0534 0.0117,0.11653 0.0117,0.18945 z"
         id="path3989"
         inkscape:connector-curvature="0" />
    </g>
    <path
       inkscape:connector-curvature="0"
       id="path3852-1"
       d="m 212.81827,412.29794 4.22698,0"
       style="fill:none;stroke:#0000bb;stroke-width:1.5;stroke-linecap:square;stroke-linejoin:miter;stroke-miterlimit:4;stroke-opacity:1;stroke-dasharray:none"
       sodipodi:nodetypes="cc" />
    <path
       inkscape:connector-curvature="0"
       id="path3852-1-7"
       d="m 212.81827,420.63144 4.22698,0"
       style="fill:none;stroke:#0000bb;stroke-width:1.5;stroke-linecap:square;stroke-linejoin:miter;stroke-miterlimit:4;stroke-opacity:1;stroke-dasharray:none"
       sodipodi:nodetypes="cc" />
    <path
       inkscape:connector-curvature="0"
       id="path3852-1-0"
       d="m 212.81827,403.96394 4.22698,0"
       style="fill:none;stroke:#0000bb;stroke-width:1.5;stroke-linecap:square;stroke-linejoin:miter;stroke-miterlimit:4;stroke-opacity:1;stroke-dasharray:none"
       sodipodi:nodetypes="cc" />
    <g
       style="font-size:8px;font-style:normal;font-variant:normal;font-weight:bold;font-stretch:normal;line-height:125%;letter-spacing:0px;word-spacing:0px;fill:#0000bb;fill-opacity:1;stroke:none;font-family:Calibri;-inkscape-font-specification:Calibri Bold"
       id="text3816-9-3">
      <path
         d="m 222.14583,421.67831 c -1e-5,0.25261 -0.0482,0.47657 -0.14453,0.67188 -0.0964,0.19531 -0.23048,0.35937 -0.40235,0.49219 -0.17187,0.13281 -0.3776,0.23372 -0.61718,0.30273 -0.23959,0.069 -0.50131,0.10352 -0.78516,0.10352 -0.17188,0 -0.33334,-0.0124 -0.48438,-0.0371 -0.15104,-0.0247 -0.2845,-0.0553 -0.40039,-0.0918 -0.11588,-0.0365 -0.21159,-0.0742 -0.28711,-0.11328 -0.0755,-0.0391 -0.125,-0.069 -0.14843,-0.0898 -0.0234,-0.0208 -0.041,-0.0443 -0.0527,-0.0703 -0.0117,-0.026 -0.0221,-0.0566 -0.0312,-0.0918 -0.009,-0.0352 -0.0156,-0.0794 -0.0195,-0.13282 -0.004,-0.0534 -0.006,-0.11783 -0.006,-0.19336 0,-0.12499 0.0104,-0.21158 0.0312,-0.25976 0.0208,-0.0482 0.0521,-0.0723 0.0937,-0.0723 0.026,0 0.071,0.0176 0.13477,0.0527 0.0638,0.0351 0.14518,0.0729 0.24414,0.11328 0.099,0.0404 0.21484,0.0781 0.34765,0.11328 0.13282,0.0352 0.28386,0.0527 0.45313,0.0527 0.14323,0 0.26953,-0.0169 0.37891,-0.0508 0.10937,-0.0338 0.20247,-0.0814 0.27929,-0.14258 0.0768,-0.0612 0.13411,-0.13541 0.17188,-0.22265 0.0378,-0.0872 0.0566,-0.18424 0.0566,-0.29102 0,-0.11718 -0.0228,-0.22265 -0.0684,-0.3164 -0.0456,-0.0937 -0.11328,-0.17383 -0.20313,-0.24024 -0.0898,-0.0664 -0.20312,-0.11783 -0.33984,-0.15429 -0.13672,-0.0365 -0.29753,-0.0547 -0.48242,-0.0547 l -0.4375,0 c -0.0339,0 -0.0625,-0.005 -0.0859,-0.0137 -0.0234,-0.009 -0.043,-0.028 -0.0586,-0.0566 -0.0156,-0.0287 -0.0267,-0.0684 -0.0332,-0.11915 -0.007,-0.0508 -0.01,-0.11653 -0.01,-0.19726 0,-0.0755 0.003,-0.13737 0.01,-0.18555 0.007,-0.0482 0.0169,-0.0853 0.0312,-0.11133 0.0143,-0.026 0.0326,-0.0443 0.0547,-0.0547 0.0221,-0.0104 0.0488,-0.0156 0.0801,-0.0156 l 0.44141,0 c 0.15104,0 0.28515,-0.0176 0.40234,-0.0527 0.11719,-0.0352 0.21549,-0.0853 0.29492,-0.15039 0.0794,-0.0651 0.13997,-0.14388 0.18164,-0.23633 0.0417,-0.0924 0.0625,-0.19466 0.0625,-0.30664 0,-0.0859 -0.0143,-0.16732 -0.043,-0.24414 -0.0286,-0.0768 -0.071,-0.14323 -0.12695,-0.19922 -0.056,-0.056 -0.12826,-0.10026 -0.2168,-0.13281 -0.0885,-0.0325 -0.19271,-0.0488 -0.3125,-0.0488 -0.13541,0 -0.26302,0.0202 -0.38281,0.0605 -0.11979,0.0404 -0.22721,0.0846 -0.32226,0.13282 -0.0951,0.0482 -0.17579,0.0931 -0.24219,0.13476 -0.0664,0.0417 -0.11524,0.0625 -0.14649,0.0625 -0.0208,10e-6 -0.0391,-0.005 -0.0547,-0.0137 -0.0156,-0.009 -0.0286,-0.0267 -0.0391,-0.0527 -0.0104,-0.026 -0.0182,-0.0638 -0.0234,-0.11328 -0.005,-0.0495 -0.008,-0.11328 -0.008,-0.19141 0,-0.0651 10e-4,-0.11914 0.004,-0.16211 0.003,-0.043 0.008,-0.0788 0.0156,-0.10742 0.008,-0.0286 0.0176,-0.0534 0.0293,-0.0742 0.0117,-0.0208 0.0306,-0.0436 0.0566,-0.0684 0.026,-0.0247 0.0794,-0.0618 0.16016,-0.11133 0.0807,-0.0495 0.18229,-0.0976 0.30469,-0.14453 0.12239,-0.0469 0.26367,-0.0866 0.42382,-0.11914 0.16016,-0.0326 0.33399,-0.0488 0.52149,-0.0488 0.24479,10e-6 0.46158,0.0286 0.65039,0.0859 0.1888,0.0573 0.34765,0.13998 0.47656,0.24805 0.1289,0.10807 0.22656,0.24089 0.29297,0.39843 0.0664,0.15756 0.0996,0.33529 0.0996,0.53321 0,0.15365 -0.0195,0.29688 -0.0586,0.42968 -0.0391,0.13282 -0.0964,0.25131 -0.17188,0.35547 -0.0755,0.10417 -0.16992,0.19271 -0.2832,0.26563 -0.11329,0.0729 -0.24415,0.1276 -0.39258,0.16406 l 0,0.0117 c 0.17708,0.0208 0.33593,0.0658 0.47656,0.13476 0.14062,0.069 0.25976,0.15561 0.35742,0.25977 0.0977,0.10417 0.17253,0.22201 0.22461,0.35352 0.0521,0.13151 0.0781,0.27278 0.0781,0.42382 z"
         id="path3986"
         inkscape:connector-curvature="0" />
    </g>
  </g>
</svg>
