<?xml version="1.0" encoding="UTF-8" standalone="no"?>
<!-- Created with Inkscape (http://www.inkscape.org/) -->

<svg
   xmlns:dc="http://purl.org/dc/elements/1.1/"
   xmlns:cc="http://creativecommons.org/ns#"
   xmlns:rdf="http://www.w3.org/1999/02/22-rdf-syntax-ns#"
   xmlns:svg="http://www.w3.org/2000/svg"
   xmlns="http://www.w3.org/2000/svg"
   xmlns:sodipodi="http://sodipodi.sourceforge.net/DTD/sodipodi-0.dtd"
   xmlns:inkscape="http://www.inkscape.org/namespaces/inkscape"
   width="40"
   height="25"
   id="svg3336"
   sodipodi:version="0.32"
   inkscape:version="0.48.4 r9939"
   sodipodi:docname="Signal1DPLOLookupTable.svg"
   inkscape:output_extension="org.inkscape.output.svg.inkscape"
   version="1.0">
  <defs
     id="defs3338" />
  <sodipodi:namedview
     id="base"
     pagecolor="#ffffff"
     bordercolor="#666666"
     borderopacity="1.0"
     gridtolerance="10000"
     guidetolerance="10"
     objecttolerance="10"
     inkscape:pageopacity="0.0"
     inkscape:pageshadow="2"
     inkscape:zoom="17.302019"
     inkscape:cx="27.443765"
     inkscape:cy="5.1898252"
     inkscape:document-units="px"
     inkscape:current-layer="layer1"
     showgrid="false"
     inkscape:window-width="1680"
     inkscape:window-height="995"
     inkscape:window-x="-2"
     inkscape:window-y="-3"
     showguides="true"
     inkscape:snap-global="true"
     inkscape:snap-intersection-line-segments="true"
     inkscape:snap-center="true"
     inkscape:window-maximized="1"
     fit-margin-top="0"
     fit-margin-left="0"
     fit-margin-right="0"
     fit-margin-bottom="0">
    <inkscape:grid
       type="xygrid"
       id="grid2405"
       visible="true"
       enabled="true"
       empspacing="5"
       snapvisiblegridlinesonly="true" />
  </sodipodi:namedview>
  <metadata
     id="metadata3341">
    <rdf:RDF>
      <cc:Work
         rdf:about="">
        <dc:format>image/svg+xml</dc:format>
        <dc:type
           rdf:resource="http://purl.org/dc/dcmitype/StillImage" />
      </cc:Work>
    </rdf:RDF>
  </metadata>
  <g
     inkscape:label="Layer 1"
     inkscape:groupmode="layer"
     id="layer1"
     transform="translate(-211.57785,-381.15201)">
    <rect
       style="fill:#ffffff;fill-opacity:1;stroke:#0000bb;stroke-width:1.5;stroke-linecap:square;stroke-linejoin:miter;stroke-miterlimit:4;stroke-opacity:1;stroke-dasharray:none;stroke-dashoffset:0"
       id="rect3623"
       width="38.5"
       height="23.5"
       x="212.32785"
       y="381.90201" />
    <g
       id="g3011">
      <path
         id="path2411"
         d="m 221.47795,385.65201 20.19981,0"
         style="fill:none;stroke:#0000bb;stroke-width:0.99999988;stroke-linecap:square;stroke-linejoin:miter;stroke-miterlimit:4;stroke-opacity:1;stroke-dasharray:none"
         inkscape:connector-curvature="0" />
      <path
         sodipodi:nodetypes="cc"
         id="path3207"
         d="m 221.57785,385.65196 0,13.63042"
         style="fill:none;stroke:#0000bb;stroke-width:1;stroke-linecap:square;stroke-linejoin:miter;stroke-miterlimit:4;stroke-opacity:1;stroke-dasharray:none"
         inkscape:connector-curvature="0" />
      <path
         sodipodi:nodetypes="cc"
         inkscape:connector-curvature="0"
         style="fill:none;stroke:#0000bb;stroke-width:1;stroke-linecap:square;stroke-linejoin:miter;stroke-miterlimit:4;stroke-opacity:1;stroke-dasharray:none"
         d="m 241.57785,385.65196 0,13.65932"
         id="path2997" />
      <path
         inkscape:connector-curvature="0"
         style="fill:none;stroke:#0000bb;stroke-width:0.99999988;stroke-linecap:square;stroke-linejoin:miter;stroke-miterlimit:4;stroke-opacity:1;stroke-dasharray:none"
         d="m 221.47795,399.45573 20.19981,0"
         id="path2999" />
      <path
         id="path3001"
         d="m 221.47795,389.65201 20.19981,0"
         style="fill:none;stroke:#0000bb;stroke-width:0.5;stroke-linecap:square;stroke-linejoin:miter;stroke-miterlimit:4;stroke-opacity:1;stroke-dasharray:none"
         inkscape:connector-curvature="0" />
      <path
         sodipodi:nodetypes="cc"
         id="path3797"
         d="m 231.57785,385.65196 0,13.91941"
         style="fill:none;stroke:#0000bb;stroke-width:0.5;stroke-linecap:square;stroke-linejoin:miter;stroke-miterlimit:4;stroke-opacity:1;stroke-dasharray:none"
         inkscape:connector-curvature="0" />
      <path
         inkscape:connector-curvature="0"
         style="fill:none;stroke:#0000bb;stroke-width:0.5;stroke-linecap:square;stroke-linejoin:miter;stroke-miterlimit:4;stroke-opacity:1;stroke-dasharray:none"
         d="m 221.47795,391.65201 20.19981,0"
         id="path3799" />
      <path
         id="path3801"
         d="m 221.47795,393.65201 20.19981,0"
         style="fill:none;stroke:#0000bb;stroke-width:0.5;stroke-linecap:square;stroke-linejoin:miter;stroke-miterlimit:4;stroke-opacity:1;stroke-dasharray:none"
         inkscape:connector-curvature="0" />
      <path
         inkscape:connector-curvature="0"
         style="fill:none;stroke:#0000bb;stroke-width:0.5;stroke-linecap:square;stroke-linejoin:miter;stroke-miterlimit:4;stroke-opacity:1;stroke-dasharray:none"
         d="m 221.47795,395.65201 20.19981,0"
         id="path3803" />
      <path
         id="path3805"
         d="m 221.47795,397.65201 20.19981,0"
         style="fill:none;stroke:#0000bb;stroke-width:0.5;stroke-linecap:square;stroke-linejoin:miter;stroke-miterlimit:4;stroke-opacity:1;stroke-dasharray:none"
         inkscape:connector-curvature="0" />
    </g>
    <g
       style="font-size:6px;font-style:normal;font-weight:bold;line-height:125%;letter-spacing:0px;word-spacing:0px;fill:#000000;fill-opacity:1;stroke:none;font-family:Sans;-inkscape-font-specification:Sans Bold"
       id="text3000">
      <path
         d="m 213.34235,399.92847 1.87207,0 c 0.55663,0 0.98339,0.12402 1.28027,0.37207 0.29882,0.24609 0.44824,0.59766 0.44824,1.05468 0,0.45899 -0.14942,0.81251 -0.44824,1.06055 -0.29688,0.2461 -0.72364,0.36914 -1.28027,0.36914 l -0.74414,0 0,1.51758 -1.12793,0 0,-4.37402 m 1.12793,0.81738 0,1.22168 0.62402,0 c 0.21875,0 0.38769,-0.0527 0.50684,-0.1582 0.11913,-0.10742 0.1787,-0.25879 0.17871,-0.45411 -1e-5,-0.1953 -0.0596,-0.3457 -0.17871,-0.45117 -0.11915,-0.10546 -0.28809,-0.1582 -0.50684,-0.1582 l -0.62402,0"
         style=""
         id="path3033" />
      <path
         d="m 217.73688,399.92847 1.12793,0 0,3.52148 1.98047,0 0,0.85254 -3.1084,0 0,-4.37402"
         style=""
         id="path3035" />
      <path
         d="m 223.3443,400.66675 c -0.34375,0 -0.61035,0.12695 -0.79981,0.38086 -0.18945,0.25391 -0.28418,0.61133 -0.28418,1.07226 0,0.45899 0.0947,0.81543 0.28418,1.06934 0.18946,0.25391 0.45606,0.38086 0.79981,0.38086 0.3457,0 0.61328,-0.12695 0.80273,-0.38086 0.18945,-0.25391 0.28418,-0.61035 0.28418,-1.06934 0,-0.46093 -0.0947,-0.81835 -0.28418,-1.07226 -0.18945,-0.25391 -0.45703,-0.38086 -0.80273,-0.38086 m 0,-0.81738 c 0.70312,0 1.2539,0.20117 1.65234,0.60351 0.39844,0.40235 0.59765,0.95801 0.59766,1.66699 -1e-5,0.70704 -0.19922,1.26172 -0.59766,1.66407 -0.39844,0.40234 -0.94922,0.60351 -1.65234,0.60351 -0.70117,0 -1.25196,-0.20117 -1.65234,-0.60351 -0.39844,-0.40235 -0.59766,-0.95703 -0.59766,-1.66407 0,-0.70898 0.19922,-1.26464 0.59766,-1.66699 0.40038,-0.40234 0.95117,-0.60351 1.65234,-0.60351"
         style=""
         id="path3037" />
    </g>
  </g>
</svg>
