<?xml version="1.0" encoding="UTF-8" standalone="no"?>
<!-- Created with Inkscape (http://www.inkscape.org/) -->

<svg
   xmlns:dc="http://purl.org/dc/elements/1.1/"
   xmlns:cc="http://creativecommons.org/ns#"
   xmlns:rdf="http://www.w3.org/1999/02/22-rdf-syntax-ns#"
   xmlns:svg="http://www.w3.org/2000/svg"
   xmlns="http://www.w3.org/2000/svg"
   xmlns:sodipodi="http://sodipodi.sourceforge.net/DTD/sodipodi-0.dtd"
   xmlns:inkscape="http://www.inkscape.org/namespaces/inkscape"
   width="119"
   height="50"
   id="svg2477"
   sodipodi:version="0.32"
   inkscape:version="0.48.0 r9654"
   version="1.0"
   sodipodi:docname="42valve_iso.svg"
   inkscape:output_extension="org.inkscape.output.svg.inkscape">
  <defs
     id="defs2479">
    <inkscape:perspective
       sodipodi:type="inkscape:persp3d"
       inkscape:vp_x="0 : 526.18109 : 1"
       inkscape:vp_y="0 : 1000 : 0"
       inkscape:vp_z="744.09448 : 526.18109 : 1"
       inkscape:persp3d-origin="372.04724 : 350.78739 : 1"
       id="perspective2485" />
    <inkscape:perspective
       id="perspective4275"
       inkscape:persp3d-origin="0.5 : 0.33333333 : 1"
       inkscape:vp_z="1 : 0.5 : 1"
       inkscape:vp_y="0 : 1000 : 0"
       inkscape:vp_x="0 : 0.5 : 1"
       sodipodi:type="inkscape:persp3d" />
    <inkscape:perspective
       id="perspective4297"
       inkscape:persp3d-origin="0.5 : 0.33333333 : 1"
       inkscape:vp_z="1 : 0.5 : 1"
       inkscape:vp_y="0 : 1000 : 0"
       inkscape:vp_x="0 : 0.5 : 1"
       sodipodi:type="inkscape:persp3d" />
  </defs>
  <sodipodi:namedview
     id="base"
     pagecolor="#ffffff"
     bordercolor="#666666"
     borderopacity="1.0"
     gridtolerance="10000"
     guidetolerance="10"
     objecttolerance="10"
     inkscape:pageopacity="0.0"
     inkscape:pageshadow="2"
     inkscape:zoom="3.867695"
     inkscape:cx="24.502335"
     inkscape:cy="22.880345"
     inkscape:document-units="px"
     inkscape:current-layer="layer1"
     showgrid="false"
     inkscape:window-width="1680"
     inkscape:window-height="982"
     inkscape:window-x="-8"
     inkscape:window-y="38"
     showguides="true"
     inkscape:guide-bbox="true"
     inkscape:window-maximized="1"
     fit-margin-top="0"
     fit-margin-left="0"
     fit-margin-right="0"
     fit-margin-bottom="0">
    <sodipodi:guide
       orientation="1,0"
       position="177.12256,54.462588"
       id="guide3301" />
    <sodipodi:guide
       orientation="1,0"
       position="7.0633738,64.715637"
       id="guide3309" />
    <sodipodi:guide
       orientation="0,1"
       position="96.245955,3.0379851"
       id="guide3253" />
  </sodipodi:namedview>
  <metadata
     id="metadata2482">
    <rdf:RDF>
      <cc:Work
         rdf:about="">
        <dc:format>image/svg+xml</dc:format>
        <dc:type
           rdf:resource="http://purl.org/dc/dcmitype/StillImage" />
      </cc:Work>
    </rdf:RDF>
  </metadata>
  <g
     inkscape:label="Layer 1"
     inkscape:groupmode="layer"
     id="layer1"
     transform="translate(-301.98193,-508.65625)">
    <path
       inkscape:connector-curvature="0"
       d="m 378.27384,544.53071 c 0,6.9375 0,6.9375 0,6.9375 l 0,-6.9375 z"
       class="st1"
       id="path19"
       style="fill:none;stroke:none" />
    <path
       inkscape:connector-curvature="0"
       d="m 378.27384,544.53071 c 0,6.9375 0,6.9375 0,6.9375 l 0,-6.9375 z"
       class="st2"
       id="path24"
       style="fill:none;stroke-width:0.80000031;stroke-miterlimit:3;stroke-dasharray:none" />
    <rect
       style="fill:#ffffff;fill-opacity:1;stroke:#000000;stroke-width:0.9998976;stroke-linecap:butt;stroke-miterlimit:3;stroke-dasharray:none"
       id="rect31"
       class="st4"
       height="79.000099"
       width="39.000103"
       y="-420.48196"
       x="-553.15631"
       transform="matrix(0,-1,-1,0,0,0)" />
    <path
       inkscape:connector-curvature="0"
       d="m 328.46036,556.32467 c 119.52495,0 119.52495,0 119.52495,0 l -119.52495,0 z"
       class="st1"
       id="path39"
       style="fill:none;stroke:none" />
    <path
       inkscape:connector-curvature="0"
       d="m 328.46036,556.32467 c 119.52495,0 119.52495,0 119.52495,0 l -119.52495,0 z"
       class="st2"
       id="path44"
       style="fill:none;stroke-width:0.80000031;stroke-miterlimit:3;stroke-dasharray:none" />
    <path
       inkscape:connector-curvature="0"
       d="m 343.98216,558.15625 c 73.99954,0 73.99954,0 73.99954,0"
       class="st3"
       id="path46"
       style="stroke:#000000;stroke-width:1;stroke-linecap:square;stroke-miterlimit:3;stroke-dasharray:none" />
    <path
       inkscape:connector-curvature="0"
       d="m 328.50079,508.39969 c 119.52496,0 119.52496,0 119.52496,0 l -119.52496,0 z"
       class="st1"
       id="path54"
       style="fill:none;stroke:none" />
    <path
       inkscape:connector-curvature="0"
       d="m 328.50079,508.39969 c 119.52496,0 119.52496,0 119.52496,0 l -119.52496,0 z"
       class="st2"
       id="path59"
       style="fill:none;stroke-width:0.80000031;stroke-miterlimit:3;stroke-dasharray:none" />
    <path
       inkscape:connector-curvature="0"
       d="m 343.98205,509.15625 c 73.99977,0 73.99977,0 73.99977,0"
       class="st3"
       id="path61"
       style="stroke:#000000;stroke-width:1;stroke-linecap:square;stroke-miterlimit:3;stroke-dasharray:none" />
    <path
       inkscape:connector-curvature="0"
       d="m 367.91147,513.25612 c 0,38.21249 0,38.21249 0,38.21249 l 0,-38.21249 z"
       class="st1"
       id="path69"
       style="fill:none;stroke:none" />
    <path
       inkscape:connector-curvature="0"
       d="m 367.91147,513.25612 c 0,38.21249 0,38.21249 0,38.21249 l 0,-38.21249 z"
       class="st2"
       id="path74"
       style="fill:none;stroke-width:0.80000031;stroke-miterlimit:3;stroke-dasharray:none" />
    <path
       inkscape:connector-curvature="0"
       d="m 408.53645,513.25612 c 0,38.21249 0,38.21249 0,38.21249 l 0,-38.21249 z"
       class="st1"
       id="path84"
       style="fill:none;stroke:none" />
    <path
       inkscape:connector-curvature="0"
       d="m 408.53645,513.25612 c 0,38.21249 0,38.21249 0,38.21249 l 0,-38.21249 z"
       class="st2"
       id="path89"
       style="fill:none;stroke-width:0.80000031;stroke-miterlimit:3;stroke-dasharray:none" />
    <path
       inkscape:connector-curvature="0"
       d="m 398.58483,544.53072 c 0,6.9375 0,6.9375 0,6.9375 l 0,-6.9375 z"
       class="st1"
       id="path99"
       style="fill:none;stroke:none" />
    <path
       inkscape:connector-curvature="0"
       d="m 398.58483,544.53072 c 0,6.9375 0,6.9375 0,6.9375 l 0,-6.9375 z"
       class="st2"
       id="path104"
       style="fill:none;stroke-width:0.80000031;stroke-miterlimit:3;stroke-dasharray:none" />
    <path
       inkscape:connector-curvature="0"
       d="m 378.27384,513.26506 c 0,6.9375 0,6.9375 0,6.9375 l 0,-6.9375 z"
       class="st1"
       id="path114"
       style="fill:none;stroke:none" />
    <path
       inkscape:connector-curvature="0"
       d="m 378.27384,513.26506 c 0,6.9375 0,6.9375 0,6.9375 l 0,-6.9375 z"
       class="st2"
       id="path119"
       style="fill:none;stroke-width:0.80000031;stroke-miterlimit:3;stroke-dasharray:none" />
    <path
       inkscape:connector-curvature="0"
       d="m 398.58483,513.26506 c 0,6.9375 0,6.9375 0,6.9375 l 0,-6.9375 z"
       class="st1"
       id="path129"
       style="fill:none;stroke:none" />
    <path
       inkscape:connector-curvature="0"
       d="m 398.58483,513.26506 c 0,6.9375 0,6.9375 0,6.9375 l 0,-6.9375 z"
       class="st2"
       id="path134"
       style="fill:none;stroke-width:0.80000031;stroke-miterlimit:3;stroke-dasharray:none" />
    <path
       inkscape:connector-curvature="0"
       d="m 381.75046,543.3073 c -6.94999,0 -6.94999,0 -6.94999,0 l 6.94999,0 z"
       class="st1"
       id="path144"
       style="fill:none;stroke:none" />
    <path
       inkscape:connector-curvature="0"
       d="m 381.75046,543.3073 c -6.94999,0 -6.94999,0 -6.94999,0 l 6.94999,0 z"
       class="st2"
       id="path149"
       style="fill:none;stroke-width:0.80000031;stroke-miterlimit:3;stroke-dasharray:none" />
    <path
       inkscape:connector-curvature="0"
       d="m 402.06145,543.3073 c -6.94999,0 -6.94999,0 -6.94999,0 l 6.94999,0 z"
       class="st1"
       id="path159"
       style="fill:none;stroke:none" />
    <path
       inkscape:connector-curvature="0"
       d="m 402.06145,543.3073 c -6.94999,0 -6.94999,0 -6.94999,0 l 6.94999,0 z"
       class="st2"
       id="path164"
       style="fill:none;stroke-width:0.80000031;stroke-miterlimit:3;stroke-dasharray:none" />
    <path
       inkscape:connector-curvature="0"
       d="m 381.75046,521.41668 c -6.94999,0 -6.94999,0 -6.94999,0 l 6.94999,0 z"
       class="st1"
       id="path174"
       style="fill:none;stroke:none" />
    <path
       inkscape:connector-curvature="0"
       d="m 381.75046,521.41668 c -6.94999,0 -6.94999,0 -6.94999,0 l 6.94999,0 z"
       class="st2"
       id="path179"
       style="fill:none;stroke-width:0.80000031;stroke-miterlimit:3;stroke-dasharray:none" />
    <path
       inkscape:connector-curvature="0"
       d="m 402.06145,521.41668 c -6.94999,0 -6.94999,0 -6.94999,0 l 6.94999,0 z"
       class="st1"
       id="path189"
       style="fill:none;stroke:none" />
    <path
       inkscape:connector-curvature="0"
       d="m 402.06145,521.41668 c -6.94999,0 -6.94999,0 -6.94999,0 l 6.94999,0 z"
       class="st2"
       id="path194"
       style="fill:none;stroke-width:0.80000031;stroke-miterlimit:3;stroke-dasharray:none" />
    <path
       inkscape:connector-curvature="0"
       d="m 380.97425,514.1409 c 0,38.99998 0,38.99998 0,38.99998"
       class="st3"
       id="path76"
       style="stroke:#000000;stroke-width:1;stroke-miterlimit:3;stroke-dasharray:none" />
    <path
       inkscape:connector-curvature="0"
       d="m 351.48193,518.61429 c 0,34.04196 0,34.04196 0,34.04196"
       class="st3"
       id="path206"
       style="stroke:#000000;stroke-width:0.99999994;stroke-miterlimit:3;stroke-dasharray:none" />
    <g
       style="fill:#ffffff;fill-opacity:1"
       transform="matrix(1.2499995,0,0,1.2499995,300.85681,516.29006)"
       id="g3249">
      <rect
         transform="matrix(0,-1,-1,0,0,0)"
         style="fill:#ffffff;fill-opacity:1;stroke:#000000;stroke-width:0.80000025;stroke-linecap:butt;stroke-miterlimit:3;stroke-dasharray:none"
         id="rect244"
         class="st4"
         height="31.200014"
         width="15.200006"
         y="-32.500111"
         x="-29.492964" />
      <path
         inkscape:connector-curvature="0"
         style="fill:#ffffff;fill-opacity:1;stroke:#000000;stroke-width:0.80000031;stroke-linecap:butt;stroke-linejoin:miter;stroke-miterlimit:3;stroke-dasharray:none"
         id="path249"
         class="st3"
         d="M 13.300102,29.492964 C 20.500105,14.292958 20.500105,14.292958 20.500105,14.292958" />
    </g>
    <path
       transform="matrix(0.45891464,0,0,0.98882065,323.53423,463.46546)"
       d="m 66.738347,61.668264 -5.838776,0 -5.838777,0 2.919388,-5.056528 2.919388,-5.056529 2.919389,5.056528 z"
       inkscape:randomized="0"
       inkscape:rounded="0"
       inkscape:flatsided="false"
       sodipodi:arg2="1.5707963"
       sodipodi:arg1="0.52359878"
       sodipodi:r2="3.3710191"
       sodipodi:r1="6.7420382"
       sodipodi:cy="58.297245"
       sodipodi:cx="60.89957"
       sodipodi:sides="3"
       id="path3213"
       style="fill:#000000;fill-opacity:1;fill-rule:nonzero;stroke:none"
       sodipodi:type="star" />
    <path
       inkscape:connector-curvature="0"
       d="m 390.98193,544.12615 c 0,8.99973 0,8.99973 0,8.99973"
       class="st3"
       id="path26-5"
       style="stroke:#000000;stroke-width:1;stroke-linecap:square;stroke-miterlimit:3;stroke-dasharray:none" />
    <path
       inkscape:connector-curvature="0"
       d="m 395.48197,543.15625 c -9.00008,0 -9.00008,0 -9.00008,0"
       class="st3"
       id="path151-1"
       style="stroke:#000000;stroke-width:1;stroke-linecap:square;stroke-miterlimit:3;stroke-dasharray:none" />
    <path
       inkscape:connector-curvature="0"
       d="m 370.98193,514.61429 c 0,34.04196 0,34.04196 0,34.04196"
       class="st3"
       id="path206-1"
       style="stroke:#000000;stroke-width:0.99999994;stroke-miterlimit:3;stroke-dasharray:none" />
    <path
       transform="matrix(0.45891464,0,0,-0.98882065,343.03423,603.69452)"
       d="m 66.738347,61.668264 -5.838776,0 -5.838777,0 2.919388,-5.056528 2.919388,-5.056529 2.919389,5.056528 z"
       inkscape:randomized="0"
       inkscape:rounded="0"
       inkscape:flatsided="false"
       sodipodi:arg2="1.5707963"
       sodipodi:arg1="0.52359878"
       sodipodi:r2="3.3710191"
       sodipodi:r1="6.7420382"
       sodipodi:cy="58.297245"
       sodipodi:cx="60.89957"
       sodipodi:sides="3"
       id="path3213-7"
       style="fill:#000000;fill-opacity:1;fill-rule:nonzero;stroke:none"
       sodipodi:type="star" />
    <path
       inkscape:connector-curvature="0"
       d="m 410.48197,544.12615 c 0,8.99973 0,8.99973 0,8.99973"
       class="st3"
       id="path26-5-2"
       style="stroke:#000000;stroke-width:1;stroke-linecap:square;stroke-miterlimit:3;stroke-dasharray:none" />
    <path
       inkscape:connector-curvature="0"
       d="m 414.98201,543.15625 c -9.00008,0 -9.00008,0 -9.00008,0"
       class="st3"
       id="path151-1-4"
       style="stroke:#000000;stroke-width:1;stroke-linecap:square;stroke-miterlimit:3;stroke-dasharray:none" />
    <path
       inkscape:connector-curvature="0"
       d="m 390.98193,515.0693 c 0,8.99973 0,8.99973 0,8.99973"
       class="st3"
       id="path26-5-3"
       style="stroke:#000000;stroke-width:1;stroke-linecap:square;stroke-miterlimit:3;stroke-dasharray:none" />
    <path
       inkscape:connector-curvature="0"
       d="m 410.48197,514.54461 c 0,8.99973 0,8.99973 0,8.99973"
       class="st3"
       id="path26-5-0"
       style="stroke:#000000;stroke-width:1;stroke-linecap:square;stroke-miterlimit:3;stroke-dasharray:none" />
    <path
       inkscape:connector-curvature="0"
       d="m 395.48197,524.15625 c -9.00008,0 -9.00008,0 -9.00008,0"
       class="st3"
       id="path151-1-41"
       style="stroke:#000000;stroke-width:1;stroke-linecap:square;stroke-miterlimit:3;stroke-dasharray:none" />
    <path
       inkscape:connector-curvature="0"
       d="m 414.98201,524.15625 c -9.00008,0 -9.00008,0 -9.00008,0"
       class="st3"
       id="path151-1-41-4"
       style="stroke:#000000;stroke-width:1;stroke-linecap:square;stroke-miterlimit:3;stroke-dasharray:none" />
  </g>
</svg>
