<?xml version="1.0" encoding="UTF-8" standalone="no"?>
<!-- Created with Inkscape (http://www.inkscape.org/) -->

<svg
   xmlns:dc="http://purl.org/dc/elements/1.1/"
   xmlns:cc="http://creativecommons.org/ns#"
   xmlns:rdf="http://www.w3.org/1999/02/22-rdf-syntax-ns#"
   xmlns:svg="http://www.w3.org/2000/svg"
   xmlns="http://www.w3.org/2000/svg"
   xmlns:sodipodi="http://sodipodi.sourceforge.net/DTD/sodipodi-0.dtd"
   xmlns:inkscape="http://www.inkscape.org/namespaces/inkscape"
   width="25.000002"
   height="25"
   id="svg3336"
   sodipodi:version="0.32"
   inkscape:version="0.48.0 r9654"
   sodipodi:docname="time.svg"
   inkscape:output_extension="org.inkscape.output.svg.inkscape"
   version="1.0">
  <defs
     id="defs3338">
    <marker
       inkscape:stockid="Arrow2Mend"
       orient="auto"
       refY="0"
       refX="0"
       id="Arrow2Mend"
       style="overflow:visible">
      <path
         id="path3629"
         style="font-size:12px;fill-rule:evenodd;stroke-width:0.625;stroke-linejoin:round"
         d="M 8.7185878,4.0337352 L -2.2072895,0.01601326 L 8.7185884,-4.0017078 C 6.97309,-1.6296469 6.9831476,1.6157441 8.7185878,4.0337352 L 8.7185878,4.0337352 z"
         transform="scale(-0.6,-0.6)" />
    </marker>
    <marker
       inkscape:stockid="DotM"
       orient="auto"
       refY="0"
       refX="0"
       id="DotM"
       style="overflow:visible">
      <path
         id="path3667"
         d="M -2.5,-1 C -2.5,1.76 -4.74,4 -7.5,4 C -10.26,4 -12.5,1.76 -12.5,-1 C -12.5,-3.76 -10.26,-6 -7.5,-6 C -4.74,-6 -2.5,-3.76 -2.5,-1 z"
         style="fill-rule:evenodd;stroke:#000000;stroke-width:1pt;marker-start:none;marker-end:none"
         transform="matrix(0.4,0,0,0.4,2.96,0.4)" />
    </marker>
    <marker
       inkscape:stockid="DotL"
       orient="auto"
       refY="0"
       refX="0"
       id="DotL"
       style="overflow:visible">
      <path
         id="path3664"
         d="M -2.5,-1 C -2.5,1.76 -4.74,4 -7.5,4 C -10.26,4 -12.5,1.76 -12.5,-1 C -12.5,-3.76 -10.26,-6 -7.5,-6 C -4.74,-6 -2.5,-3.76 -2.5,-1 z"
         style="fill-rule:evenodd;stroke:#000000;stroke-width:1pt;marker-start:none;marker-end:none"
         transform="matrix(0.8,0,0,0.8,5.92,0.8)" />
    </marker>
    <marker
       style="overflow:visible"
       id="TriangleOutL"
       refX="0"
       refY="0"
       orient="auto"
       inkscape:stockid="TriangleOutL">
      <path
         transform="scale(0.8,0.8)"
         style="fill-rule:evenodd;stroke:#000000;stroke-width:1pt;marker-start:none"
         d="M 5.77,0 L -2.88,5 L -2.88,-5 L 5.77,0 z"
         id="path8118" />
    </marker>
    <inkscape:perspective
       sodipodi:type="inkscape:persp3d"
       inkscape:vp_x="0 : 526.18109 : 1"
       inkscape:vp_y="0 : 1000 : 0"
       inkscape:vp_z="744.09448 : 526.18109 : 1"
       inkscape:persp3d-origin="372.04724 : 350.78739 : 1"
       id="perspective3344" />
  </defs>
  <sodipodi:namedview
     id="base"
     pagecolor="#ffffff"
     bordercolor="#666666"
     borderopacity="1.0"
     gridtolerance="10000"
     guidetolerance="10"
     objecttolerance="10"
     inkscape:pageopacity="0.0"
     inkscape:pageshadow="2"
     inkscape:zoom="1.4142136"
     inkscape:cx="-182.56853"
     inkscape:cy="38.466216"
     inkscape:document-units="px"
     inkscape:current-layer="layer1"
     showgrid="false"
     inkscape:window-width="1680"
     inkscape:window-height="982"
     inkscape:window-x="-8"
     inkscape:window-y="-8"
     showguides="true"
     inkscape:snap-global="true"
     inkscape:snap-intersection-line-segments="true"
     inkscape:snap-center="true"
     inkscape:window-maximized="1">
    <inkscape:grid
       type="xygrid"
       id="grid2405"
       visible="true"
       enabled="true"
       empspacing="5"
       snapvisiblegridlinesonly="true" />
  </sodipodi:namedview>
  <metadata
     id="metadata3341">
    <rdf:RDF>
      <cc:Work
         rdf:about="">
        <dc:format>image/svg+xml</dc:format>
        <dc:type
           rdf:resource="http://purl.org/dc/dcmitype/StillImage" />
        <dc:title></dc:title>
      </cc:Work>
    </rdf:RDF>
  </metadata>
  <g
     inkscape:label="Layer 1"
     inkscape:groupmode="layer"
     id="layer1"
     transform="translate(-211.57785,-381.15201)">
    <rect
       style="fill:#ffffff;fill-opacity:1;stroke:#0000bb;stroke-width:1.5;stroke-linecap:square;stroke-linejoin:miter;stroke-miterlimit:4;stroke-opacity:1;stroke-dasharray:none;stroke-dashoffset:0"
       id="rect3623"
       width="23.499998"
       height="23.5"
       x="212.32785"
       y="381.90201" />
    <g
       style="font-size:16px;font-style:normal;font-variant:normal;font-weight:bold;font-stretch:normal;line-height:125%;letter-spacing:0px;word-spacing:0px;fill:#0000bb;fill-opacity:1;stroke:none;font-family:Calibri;-inkscape-font-specification:Sans Bold"
       id="text3789">
      <path
         d="m 224.27707,397.99576 c -1e-5,0.22917 -0.0586,0.40495 -0.17578,0.52734 -0.1172,0.1224 -0.27735,0.1836 -0.48047,0.1836 l -7.26563,0 c -0.20312,0 -0.36198,-0.0612 -0.47656,-0.1836 -0.11458,-0.12239 -0.17187,-0.29817 -0.17187,-0.52734 l 0,-0.28125 c 0,-0.0729 0.005,-0.15365 0.0156,-0.24219 0.0104,-0.0885 0.0273,-0.1862 0.0508,-0.29297 0.0234,-0.10677 0.0547,-0.22656 0.0937,-0.35937 0.0391,-0.13281 0.0872,-0.28516 0.14453,-0.45703 l 2.57032,-7.40625 c 0.0312,-0.0885 0.0664,-0.16015 0.10547,-0.21485 0.0391,-0.0547 0.10416,-0.0963 0.19531,-0.125 0.0911,-0.0286 0.21874,-0.0469 0.38281,-0.0547 0.16406,-0.008 0.38151,-0.0117 0.65234,-0.0117 0.30729,10e-6 0.55208,0.004 0.73438,0.0117 0.18229,0.008 0.32421,0.0261 0.42578,0.0547 0.10156,0.0287 0.17317,0.0716 0.21484,0.12891 0.0417,0.0573 0.0807,0.13542 0.11719,0.23437 l 2.55469,7.375 c 0.0625,0.17188 0.11327,0.32683 0.15234,0.46485 0.0391,0.13802 0.0716,0.25911 0.0977,0.36328 0.026,0.10417 0.043,0.20182 0.0508,0.29297 0.008,0.0911 0.0117,0.17057 0.0117,0.23828 z m -4.38281,-7.42969 -0.0156,0 -2.10937,6.53125 4.22656,0 z"
         style="fill:#0000bb;fill-opacity:1"
         id="path3794" />
      <path
         d="m 232.44894,389.44107 c 0,0.15105 -0.007,0.27996 -0.0195,0.38672 -0.013,0.10678 -0.0326,0.19272 -0.0586,0.25781 -0.026,0.0651 -0.0586,0.11329 -0.0977,0.14453 -0.0391,0.0313 -0.082,0.0469 -0.1289,0.0469 l -2.53125,0 0,8.14844 c -1e-5,0.0521 -0.0169,0.099 -0.0508,0.14062 -0.0339,0.0417 -0.0899,0.0755 -0.16797,0.10156 -0.0781,0.026 -0.1836,0.0469 -0.31641,0.0625 -0.13282,0.0156 -0.29818,0.0234 -0.49609,0.0234 -0.19792,0 -0.36329,-0.008 -0.4961,-0.0234 -0.13281,-0.0156 -0.23828,-0.0365 -0.3164,-0.0625 -0.0781,-0.026 -0.13412,-0.0599 -0.16797,-0.10156 -0.0339,-0.0417 -0.0508,-0.0885 -0.0508,-0.14062 l 0,-8.14844 -2.53125,0 c -0.0521,10e-6 -0.0964,-0.0156 -0.13282,-0.0469 -0.0365,-0.0312 -0.0677,-0.0794 -0.0937,-0.14453 -0.026,-0.0651 -0.0456,-0.15103 -0.0586,-0.25781 -0.013,-0.10676 -0.0195,-0.23567 -0.0195,-0.38672 0,-0.15624 0.007,-0.28905 0.0195,-0.39844 0.013,-0.10936 0.0325,-0.1966 0.0586,-0.26172 0.026,-0.0651 0.0573,-0.11196 0.0937,-0.14062 0.0365,-0.0286 0.0807,-0.043 0.13282,-0.043 l 7.125,0 c 0.0469,10e-6 0.0898,0.0143 0.1289,0.043 0.0391,0.0287 0.0716,0.0755 0.0977,0.14062 0.026,0.0651 0.0456,0.15236 0.0586,0.26172 0.013,0.10939 0.0195,0.2422 0.0195,0.39844 z"
         style="fill:#0000bb;fill-opacity:1"
         id="path3796" />
    </g>
  </g>
</svg>
