<?xml version="1.0" encoding="UTF-8" standalone="no"?>
<!-- Created with Inkscape (http://www.inkscape.org/) -->

<svg
   xmlns:dc="http://purl.org/dc/elements/1.1/"
   xmlns:cc="http://creativecommons.org/ns#"
   xmlns:rdf="http://www.w3.org/1999/02/22-rdf-syntax-ns#"
   xmlns:svg="http://www.w3.org/2000/svg"
   xmlns="http://www.w3.org/2000/svg"
   xmlns:sodipodi="http://sodipodi.sourceforge.net/DTD/sodipodi-0.dtd"
   xmlns:inkscape="http://www.inkscape.org/namespaces/inkscape"
   width="80"
   height="40"
   id="svg2531"
   sodipodi:version="0.32"
   inkscape:version="0.48.0 r9654"
   sodipodi:docname="generatedcomponenticon.svg"
   inkscape:output_extension="org.inkscape.output.svg.inkscape"
   version="1.0">
  <defs
     id="defs2533" />
  <sodipodi:namedview
     id="base"
     pagecolor="#ffffff"
     bordercolor="#666666"
     borderopacity="1.0"
     gridtolerance="10000"
     guidetolerance="10"
     objecttolerance="10"
     inkscape:pageopacity="0.0"
     inkscape:pageshadow="2"
     inkscape:zoom="2.6710913"
     inkscape:cx="-14.244124"
     inkscape:cy="-5.8940215"
     inkscape:document-units="px"
     inkscape:current-layer="layer1"
     showgrid="false"
     inkscape:window-width="1152"
     inkscape:window-height="802"
     inkscape:window-x="-8"
     inkscape:window-y="-8"
     inkscape:window-maximized="1"
     showguides="true"
     inkscape:guide-bbox="true"
     fit-margin-top="0"
     fit-margin-left="0"
     fit-margin-right="0"
     fit-margin-bottom="0">
    <sodipodi:guide
       orientation="1,0"
       position="89.144605,85.537571"
       id="guide3946" />
  </sodipodi:namedview>
  <metadata
     id="metadata2536">
    <rdf:RDF>
      <cc:Work
         rdf:about="">
        <dc:format>image/svg+xml</dc:format>
        <dc:type
           rdf:resource="http://purl.org/dc/dcmitype/StillImage" />
        <dc:title />
      </cc:Work>
    </rdf:RDF>
  </metadata>
  <g
     inkscape:label="Layer 1"
     inkscape:groupmode="layer"
     id="layer1"
     transform="translate(-362.86157,-480.25504)">
    <rect
       style="fill:#ffffff;fill-opacity:1;stroke:#000000;stroke-width:2;stroke-miterlimit:4;stroke-dasharray:none"
       id="rect2878"
       width="78"
       height="38"
       x="363.86157"
       y="481.25504"
       ry="0" />
    <g
       style="font-size:16px;font-style:normal;font-variant:normal;font-weight:normal;font-stretch:normal;text-align:center;line-height:100%;letter-spacing:0px;word-spacing:0px;text-anchor:middle;fill:#ff0000;fill-opacity:1;stroke:none;font-family:Arial;-inkscape-font-specification:Arial"
       id="text2986">
      <g
         style="font-size:12px;line-height:125%;fill:#000000;font-family:Sans"
         id="text3097">
        <path
           d="m 377.83032,492.7814 0,-1.44726 3.73828,0 0,3.42187 c -0.36329,0.35157 -0.88965,0.66114 -1.5791,0.92871 -0.68946,0.26758 -1.3877,0.40137 -2.09472,0.40137 -0.89845,0 -1.68165,-0.18848 -2.34961,-0.56543 -0.66797,-0.37695 -1.16993,-0.91601 -1.50586,-1.61719 -0.33594,-0.70117 -0.50391,-1.46386 -0.50391,-2.28808 0,-0.89453 0.1875,-1.68945 0.5625,-2.38477 0.375,-0.6953 0.92383,-1.22851 1.64648,-1.59961 0.55078,-0.28515 1.23633,-0.42772 2.05665,-0.42773 1.0664,10e-6 1.8994,0.22364 2.49902,0.6709 0.5996,0.44727 0.98534,1.06543 1.15723,1.85449 l -1.72266,0.32226 c -0.1211,-0.42186 -0.34864,-0.75487 -0.68262,-0.99902 -0.33399,-0.24413 -0.75098,-0.3662 -1.25097,-0.36621 -0.75782,10e-6 -1.36036,0.24024 -1.80762,0.7207 -0.44727,0.48048 -0.6709,1.19337 -0.6709,2.13867 0,1.01954 0.22656,1.78419 0.67969,2.29395 0.45312,0.50977 1.04687,0.76465 1.78125,0.76465 0.36327,0 0.72753,-0.0713 1.09277,-0.21387 0.36523,-0.14258 0.67871,-0.31543 0.94043,-0.51855 l 0,-1.08985 z"
           style="font-weight:bold;-inkscape-font-specification:Sans Bold"
           id="path2997" />
        <path
           d="m 386.75415,493.95914 1.64063,0.27539 c -0.21095,0.60156 -0.54396,1.05957 -0.99903,1.37402 -0.45508,0.31445 -1.02442,0.47168 -1.70801,0.47168 -1.08203,0 -1.88281,-0.35351 -2.40234,-1.06055 -0.41016,-0.5664 -0.61523,-1.28124 -0.61523,-2.14453 0,-1.03124 0.26953,-1.83886 0.80859,-2.42285 0.53906,-0.58398 1.2207,-0.87597 2.04492,-0.87598 0.92578,10e-6 1.65625,0.30567 2.19141,0.917 0.53515,0.61133 0.79101,1.54785 0.76758,2.80957 l -4.125,0 c 0.0117,0.48828 0.14453,0.86816 0.39843,1.13965 0.25391,0.27148 0.57031,0.40722 0.94922,0.40722 0.25781,0 0.47461,-0.0703 0.65039,-0.21094 0.17578,-0.14062 0.30859,-0.36718 0.39844,-0.67968 z m 0.0937,-1.66407 c -0.0117,-0.47655 -0.13477,-0.83886 -0.36914,-1.08691 -0.23438,-0.24804 -0.51954,-0.37206 -0.85547,-0.37207 -0.35938,10e-6 -0.65625,0.13086 -0.89062,0.39258 -0.23438,0.26172 -0.34962,0.61719 -0.34571,1.0664 z"
           style="font-weight:bold;-inkscape-font-specification:Sans Bold"
           id="path2999" />
        <path
           d="m 395.49048,495.93961 -1.64649,0 0,-3.17579 c 0,-0.67187 -0.0352,-1.10644 -0.10546,-1.30371 -0.0703,-0.19726 -0.18458,-0.35058 -0.34278,-0.45996 -0.15821,-0.10937 -0.34863,-0.16405 -0.57129,-0.16406 -0.28516,10e-6 -0.54102,0.0781 -0.76758,0.23438 -0.22656,0.15625 -0.38183,0.36328 -0.46582,0.62109 -0.084,0.25782 -0.12597,0.73438 -0.12597,1.42969 l 0,2.81836 -1.64649,0 0,-6.22266 1.5293,0 0,0.91406 c 0.54297,-0.70312 1.22656,-1.05468 2.05078,-1.05469 0.36328,10e-6 0.69531,0.0654 0.9961,0.19629 0.30077,0.13087 0.52831,0.29786 0.68261,0.50098 0.15429,0.20313 0.26171,0.4336 0.32227,0.69141 0.0605,0.25781 0.0908,0.62695 0.0908,1.10742 z"
           style="font-weight:bold;-inkscape-font-specification:Sans Bold"
           id="path3001" />
        <path
           d="m 400.76978,493.95914 1.64062,0.27539 c -0.21094,0.60156 -0.54395,1.05957 -0.99902,1.37402 -0.45509,0.31445 -1.02442,0.47168 -1.70801,0.47168 -1.08203,0 -1.88281,-0.35351 -2.40234,-1.06055 -0.41016,-0.5664 -0.61524,-1.28124 -0.61524,-2.14453 0,-1.03124 0.26953,-1.83886 0.80859,-2.42285 0.53907,-0.58398 1.22071,-0.87597 2.04493,-0.87598 0.92577,10e-6 1.65624,0.30567 2.1914,0.917 0.53515,0.61133 0.79101,1.54785 0.76758,2.80957 l -4.125,0 c 0.0117,0.48828 0.14453,0.86816 0.39844,1.13965 0.2539,0.27148 0.57031,0.40722 0.94922,0.40722 0.25781,0 0.4746,-0.0703 0.65039,-0.21094 0.17577,-0.14062 0.30859,-0.36718 0.39844,-0.67968 z m 0.0937,-1.66407 c -0.0117,-0.47655 -0.13477,-0.83886 -0.36915,-1.08691 -0.23437,-0.24804 -0.51953,-0.37206 -0.85546,-0.37207 -0.35938,10e-6 -0.65626,0.13086 -0.89063,0.39258 -0.23438,0.26172 -0.34961,0.61719 -0.3457,1.0664 z"
           style="font-weight:bold;-inkscape-font-specification:Sans Bold"
           id="path3003" />
        <path
           d="m 405.42212,495.93961 -1.64649,0 0,-6.22266 1.5293,0 0,0.88477 c 0.26172,-0.41797 0.49707,-0.69336 0.70606,-0.82618 0.20898,-0.1328 0.44628,-0.19921 0.71191,-0.19922 0.375,10e-6 0.73632,0.10353 1.08398,0.31055 l -0.50976,1.43555 c -0.27735,-0.17968 -0.53516,-0.26953 -0.77344,-0.26953 -0.23047,0 -0.42578,0.0635 -0.58594,0.19043 -0.16015,0.12695 -0.28613,0.35645 -0.37793,0.68847 -0.0918,0.33204 -0.13769,1.02735 -0.13769,2.08594 z"
           style="font-weight:bold;-inkscape-font-specification:Sans Bold"
           id="path3005" />
        <path
           d="m 409.74048,491.61539 -1.49414,-0.26953 c 0.16797,-0.60156 0.45703,-1.04687 0.86719,-1.33594 0.41015,-0.28906 1.01952,-0.43359 1.82812,-0.4336 0.73437,10e-6 1.28125,0.0869 1.64063,0.26075 0.35937,0.17383 0.61229,0.39453 0.75878,0.66211 0.14648,0.26758 0.21973,0.75879 0.21973,1.47363 l -0.0176,1.92187 c 0,0.54688 0.0264,0.9502 0.0791,1.20996 0.0527,0.25977 0.15137,0.53809 0.2959,0.83497 l -1.6289,0 c -0.043,-0.10938 -0.0957,-0.27149 -0.15821,-0.48633 -0.0273,-0.0977 -0.0469,-0.16211 -0.0586,-0.19336 -0.28125,0.27344 -0.58204,0.47851 -0.90234,0.61523 -0.32032,0.13672 -0.66212,0.20508 -1.02539,0.20508 -0.64063,0 -1.14551,-0.17383 -1.51465,-0.52148 -0.36914,-0.34766 -0.55371,-0.78711 -0.55371,-1.31836 0,-0.35156 0.084,-0.66504 0.25195,-0.94043 0.16797,-0.27539 0.40332,-0.48633 0.70605,-0.63282 0.30274,-0.14648 0.73926,-0.27441 1.30957,-0.38378 0.76953,-0.14453 1.30273,-0.2793 1.59961,-0.4043 l 0,-0.16406 c 0,-0.31641 -0.0781,-0.54199 -0.23437,-0.67676 -0.15626,-0.13476 -0.45118,-0.20214 -0.88477,-0.20215 -0.29297,10e-6 -0.52148,0.0576 -0.68554,0.17285 -0.16407,0.11524 -0.29688,0.31739 -0.39844,0.60645 z m 2.20312,1.33593 c -0.21094,0.0703 -0.54492,0.1543 -1.00195,0.25196 -0.45703,0.0977 -0.75586,0.19336 -0.89648,0.28711 -0.21485,0.15234 -0.32227,0.3457 -0.32227,0.58008 0,0.23047 0.0859,0.42968 0.25781,0.59765 0.17188,0.16797 0.39063,0.25196 0.65625,0.25195 0.29687,10e-6 0.58008,-0.0976 0.84961,-0.29296 0.19922,-0.14844 0.33008,-0.33008 0.39258,-0.54493 0.043,-0.14062 0.0645,-0.4082 0.0645,-0.80273 z"
           style="font-weight:bold;-inkscape-font-specification:Sans Bold"
           id="path3007" />
        <path
           d="m 418.04321,489.71695 0,1.3125 -1.125,0 0,2.50781 c 0,0.50782 0.0107,0.80371 0.0322,0.8877 0.0215,0.084 0.0703,0.15332 0.14648,0.20801 0.0762,0.0547 0.16895,0.082 0.27832,0.082 0.15234,0 0.37305,-0.0527 0.66211,-0.15821 l 0.14063,1.27735 c -0.38282,0.16406 -0.81641,0.24609 -1.30078,0.24609 -0.29688,0 -0.56446,-0.0498 -0.80274,-0.14941 -0.23828,-0.0996 -0.41308,-0.22852 -0.52441,-0.38672 -0.11133,-0.1582 -0.18848,-0.37207 -0.23145,-0.6416 -0.0351,-0.19141 -0.0527,-0.57813 -0.0527,-1.16016 l 0,-2.71289 -0.75586,0 0,-1.3125 0.75586,0 0,-1.23633 1.65234,-0.96094 0,2.19727 z"
           style="font-weight:bold;-inkscape-font-specification:Sans Bold"
           id="path3009" />
        <path
           d="m 422.80103,493.95914 1.64062,0.27539 c -0.21094,0.60156 -0.54395,1.05957 -0.99902,1.37402 -0.45509,0.31445 -1.02442,0.47168 -1.70801,0.47168 -1.08203,0 -1.88281,-0.35351 -2.40234,-1.06055 -0.41016,-0.5664 -0.61524,-1.28124 -0.61524,-2.14453 0,-1.03124 0.26953,-1.83886 0.80859,-2.42285 0.53907,-0.58398 1.22071,-0.87597 2.04493,-0.87598 0.92577,10e-6 1.65624,0.30567 2.1914,0.917 0.53515,0.61133 0.79101,1.54785 0.76758,2.80957 l -4.125,0 c 0.0117,0.48828 0.14453,0.86816 0.39844,1.13965 0.2539,0.27148 0.57031,0.40722 0.94922,0.40722 0.25781,0 0.4746,-0.0703 0.65039,-0.21094 0.17577,-0.14062 0.30859,-0.36718 0.39844,-0.67968 z m 0.0937,-1.66407 c -0.0117,-0.47655 -0.13477,-0.83886 -0.36915,-1.08691 -0.23437,-0.24804 -0.51953,-0.37206 -0.85546,-0.37207 -0.35938,10e-6 -0.65626,0.13086 -0.89063,0.39258 -0.23438,0.26172 -0.34961,0.61719 -0.3457,1.0664 z"
           style="font-weight:bold;-inkscape-font-specification:Sans Bold"
           id="path3011" />
        <path
           d="m 431.58423,495.93961 -1.5293,0 0,-0.91407 c -0.25391,0.35547 -0.55371,0.62012 -0.89941,0.79395 -0.34571,0.17383 -0.69434,0.26074 -1.0459,0.26074 -0.71485,0 -1.32715,-0.28809 -1.83691,-0.86426 -0.50977,-0.57617 -0.76465,-1.37988 -0.76465,-2.41113 0,-1.05468 0.24804,-1.85644 0.74414,-2.40527 0.49609,-0.54883 1.12304,-0.82324 1.88086,-0.82325 0.69531,10e-6 1.29687,0.28907 1.80468,0.86719 l 0,-3.09375 1.64649,0 z m -4.39453,-3.2461 c 0,0.66407 0.0918,1.14454 0.27539,1.44141 0.26562,0.42969 0.63671,0.64453 1.11328,0.64453 0.3789,0 0.70117,-0.16113 0.9668,-0.4834 0.26562,-0.32226 0.39843,-0.80371 0.39843,-1.44433 0,-0.71484 -0.12891,-1.22949 -0.38672,-1.54395 -0.25781,-0.31445 -0.58789,-0.47167 -0.99023,-0.47168 -0.39063,10e-6 -0.71778,0.15528 -0.98144,0.46582 -0.26368,0.31055 -0.39551,0.77442 -0.39551,1.3916 z"
           style="font-weight:bold;-inkscape-font-specification:Sans Bold"
           id="path3013" />
        <path
           d="m 375.67407,507.7814 1.68164,0.53321 c -0.25782,0.9375 -0.68653,1.63379 -1.28613,2.08886 -0.59962,0.45508 -1.36036,0.68262 -2.28223,0.68262 -1.14062,0 -2.07812,-0.38965 -2.8125,-1.16895 -0.73437,-0.77929 -1.10156,-1.84472 -1.10156,-3.19628 0,-1.42969 0.36914,-2.54004 1.10742,-3.33106 0.73828,-0.79101 1.70898,-1.18651 2.91211,-1.18652 1.05078,10e-6 1.90429,0.31055 2.56055,0.93164 0.39062,0.36719 0.68359,0.89454 0.87891,1.58203 l -1.7168,0.41016 c -0.10157,-0.44531 -0.31348,-0.79687 -0.63574,-1.05469 -0.32227,-0.25781 -0.71388,-0.38671 -1.17481,-0.38672 -0.63672,10e-6 -1.15332,0.22852 -1.5498,0.68555 -0.39649,0.45703 -0.59473,1.19727 -0.59473,2.2207 0,1.08594 0.19531,1.85938 0.58594,2.32031 0.39062,0.46094 0.89843,0.69141 1.52344,0.69141 0.46093,0 0.85741,-0.14648 1.18945,-0.43945 0.33202,-0.29297 0.5703,-0.75391 0.71484,-1.38282 z"
           style="font-weight:bold;-inkscape-font-specification:Sans Bold"
           id="path3015" />
        <path
           d="m 378.45728,507.74039 c -1e-5,-0.54687 0.13476,-1.07617 0.40429,-1.58789 0.26953,-0.51172 0.65137,-0.90234 1.14551,-1.17188 0.49414,-0.26952 1.0459,-0.40429 1.65527,-0.4043 0.94141,10e-6 1.71289,0.30567 2.31446,0.917 0.60155,0.61133 0.90233,1.38379 0.90234,2.31738 -10e-6,0.94141 -0.30372,1.72168 -0.91113,2.34082 -0.60743,0.61914 -1.37208,0.92871 -2.29395,0.92871 -0.57031,0 -1.11426,-0.12891 -1.63183,-0.38672 -0.51758,-0.25781 -0.91114,-0.63574 -1.18067,-1.13379 -0.26953,-0.49804 -0.4043,-1.10449 -0.40429,-1.81933 z m 1.6875,0.0879 c -1e-5,0.61719 0.14648,1.08984 0.43945,1.41797 0.29296,0.32812 0.65429,0.49219 1.08398,0.49218 0.42969,1e-5 0.79004,-0.16406 1.08106,-0.49218 0.29101,-0.32813 0.43652,-0.80469 0.43652,-1.42969 0,-0.60937 -0.14551,-1.07812 -0.43652,-1.40625 -0.29102,-0.32812 -0.65137,-0.49218 -1.08106,-0.49219 -0.42969,1e-5 -0.79102,0.16407 -1.08398,0.49219 -0.29297,0.32813 -0.43946,0.80078 -0.43945,1.41797 z"
           style="font-weight:bold;-inkscape-font-specification:Sans Bold"
           id="path3017" />
        <path
           d="m 386.05103,504.71695 1.51757,0 0,0.84961 c 0.54297,-0.66015 1.18945,-0.99023 1.93946,-0.99024 0.39843,10e-6 0.74413,0.082 1.03711,0.2461 0.29296,0.16407 0.53319,0.41211 0.7207,0.74414 0.27343,-0.33203 0.56835,-0.58007 0.88476,-0.74414 0.3164,-0.16406 0.65429,-0.24609 1.01368,-0.2461 0.45702,10e-6 0.84374,0.0928 1.16015,0.27832 0.3164,0.18556 0.55273,0.45802 0.70899,0.81739 0.11327,0.26563 0.16991,0.69531 0.16992,1.28906 l 0,3.97852 -1.64649,0 0,-3.55664 c 0,-0.61719 -0.0566,-1.01563 -0.16992,-1.19532 -0.15235,-0.23437 -0.38672,-0.35155 -0.70312,-0.35156 -0.23048,10e-6 -0.44727,0.0703 -0.65039,0.21094 -0.20313,0.14063 -0.34962,0.34668 -0.43946,0.61816 -0.0899,0.27149 -0.13477,0.7002 -0.13476,1.28613 l 0,2.98829 -1.64649,0 0,-3.41016 c 0,-0.60547 -0.0293,-0.99609 -0.0879,-1.17188 -0.0586,-0.17577 -0.14941,-0.30663 -0.27246,-0.39257 -0.12305,-0.0859 -0.29004,-0.1289 -0.50097,-0.12891 -0.25391,10e-6 -0.48243,0.0684 -0.68555,0.20508 -0.20313,0.13672 -0.34864,0.33399 -0.43652,0.5918 -0.0879,0.25781 -0.13184,0.68555 -0.13184,1.2832 l 0,3.02344 -1.64648,0 z"
           style="font-weight:bold;-inkscape-font-specification:Sans Bold"
           id="path3019" />
        <path
           d="m 396.79126,504.71695 1.53516,0 0,0.91406 c 0.19921,-0.31249 0.46874,-0.5664 0.80859,-0.76172 0.33984,-0.1953 0.71679,-0.29296 1.13086,-0.29297 0.72265,10e-6 1.33593,0.28321 1.83984,0.84961 0.5039,0.56642 0.75586,1.35548 0.75586,2.36719 0,1.03907 -0.25391,1.84668 -0.76172,2.42285 -0.50781,0.57617 -1.12305,0.86426 -1.8457,0.86426 -0.34375,0 -0.65528,-0.0684 -0.93457,-0.20508 -0.2793,-0.13672 -0.57324,-0.37109 -0.88184,-0.70312 l 0,3.13476 -1.64648,0 z m 1.62891,3.00586 c -10e-6,0.69922 0.13867,1.21582 0.41601,1.5498 0.27734,0.33399 0.61523,0.50098 1.01367,0.50098 0.38281,0 0.70117,-0.15332 0.95508,-0.45996 0.2539,-0.30664 0.38086,-0.80957 0.38086,-1.50879 0,-0.65234 -0.13086,-1.13671 -0.39258,-1.45312 -0.26172,-0.31641 -0.58594,-0.47461 -0.97265,-0.47461 -0.40235,0 -0.73633,0.15527 -1.00196,0.46582 -0.26562,0.31055 -0.39844,0.77051 -0.39843,1.37988 z"
           style="font-weight:bold;-inkscape-font-specification:Sans Bold"
           id="path3021" />
        <path
           d="m 403.79321,507.74039 c 0,-0.54687 0.13477,-1.07617 0.4043,-1.58789 0.26953,-0.51172 0.65137,-0.90234 1.14551,-1.17188 0.49414,-0.26952 1.04589,-0.40429 1.65527,-0.4043 0.9414,10e-6 1.71289,0.30567 2.31445,0.917 0.60156,0.61133 0.90234,1.38379 0.90235,2.31738 -10e-6,0.94141 -0.30372,1.72168 -0.91113,2.34082 -0.60743,0.61914 -1.37208,0.92871 -2.29395,0.92871 -0.57032,0 -1.11426,-0.12891 -1.63184,-0.38672 -0.51758,-0.25781 -0.91113,-0.63574 -1.18066,-1.13379 -0.26953,-0.49804 -0.4043,-1.10449 -0.4043,-1.81933 z m 1.6875,0.0879 c 0,0.61719 0.14648,1.08984 0.43946,1.41797 0.29296,0.32812 0.65429,0.49219 1.08398,0.49218 0.42968,1e-5 0.79003,-0.16406 1.08106,-0.49218 0.29101,-0.32813 0.43651,-0.80469 0.43652,-1.42969 -10e-6,-0.60937 -0.14551,-1.07812 -0.43652,-1.40625 -0.29103,-0.32812 -0.65138,-0.49218 -1.08106,-0.49219 -0.42969,1e-5 -0.79102,0.16407 -1.08398,0.49219 -0.29298,0.32813 -0.43946,0.80078 -0.43946,1.41797 z"
           style="font-weight:bold;-inkscape-font-specification:Sans Bold"
           id="path3023" />
        <path
           d="m 417.17017,510.93961 -1.64649,0 0,-3.17579 c 0,-0.67187 -0.0352,-1.10644 -0.10547,-1.30371 -0.0703,-0.19726 -0.18457,-0.35058 -0.34277,-0.45996 -0.15821,-0.10937 -0.34864,-0.16405 -0.57129,-0.16406 -0.28516,10e-6 -0.54102,0.0781 -0.76758,0.23438 -0.22656,0.15625 -0.38184,0.36328 -0.46582,0.62109 -0.084,0.25782 -0.12598,0.73438 -0.12597,1.42969 l 0,2.81836 -1.64649,0 0,-6.22266 1.5293,0 0,0.91406 c 0.54296,-0.70312 1.22656,-1.05468 2.05078,-1.05469 0.36328,10e-6 0.69531,0.0654 0.99609,0.19629 0.30078,0.13087 0.52832,0.29786 0.68262,0.50098 0.15429,0.20313 0.26171,0.4336 0.32227,0.69141 0.0605,0.25781 0.0908,0.62695 0.0908,1.10742 z"
           style="font-weight:bold;-inkscape-font-specification:Sans Bold"
           id="path3025" />
        <path
           d="m 422.44946,508.95914 1.64063,0.27539 c -0.21095,0.60156 -0.54395,1.05957 -0.99903,1.37402 -0.45508,0.31445 -1.02441,0.47168 -1.708,0.47168 -1.08204,0 -1.88282,-0.35351 -2.40235,-1.06055 -0.41015,-0.5664 -0.61523,-1.28124 -0.61523,-2.14453 0,-1.03124 0.26953,-1.83886 0.80859,-2.42285 0.53906,-0.58398 1.2207,-0.87597 2.04492,-0.87598 0.92578,10e-6 1.65625,0.30567 2.19141,0.917 0.53515,0.61133 0.79101,1.54785 0.76758,2.80957 l -4.125,0 c 0.0117,0.48828 0.14453,0.86816 0.39844,1.13965 0.2539,0.27148 0.57031,0.40722 0.94921,0.40722 0.25781,0 0.47461,-0.0703 0.6504,-0.21094 0.17577,-0.14062 0.30858,-0.36718 0.39843,-0.67968 z m 0.0937,-1.66407 c -0.0117,-0.47655 -0.13477,-0.83886 -0.36914,-1.08691 -0.23438,-0.24804 -0.51953,-0.37206 -0.85547,-0.37207 -0.35937,10e-6 -0.65625,0.13086 -0.89062,0.39258 -0.23438,0.26172 -0.34961,0.61719 -0.3457,1.0664 z"
           style="font-weight:bold;-inkscape-font-specification:Sans Bold"
           id="path3027" />
        <path
           d="m 431.18579,510.93961 -1.64648,0 0,-3.17579 c -10e-6,-0.67187 -0.0352,-1.10644 -0.10547,-1.30371 -0.0703,-0.19726 -0.18458,-0.35058 -0.34278,-0.45996 -0.1582,-0.10937 -0.34863,-0.16405 -0.57128,-0.16406 -0.28516,10e-6 -0.54102,0.0781 -0.76758,0.23438 -0.22657,0.15625 -0.38184,0.36328 -0.46582,0.62109 -0.084,0.25782 -0.12598,0.73438 -0.12598,1.42969 l 0,2.81836 -1.64648,0 0,-6.22266 1.52929,0 0,0.91406 c 0.54297,-0.70312 1.22656,-1.05468 2.05078,-1.05469 0.36328,10e-6 0.69531,0.0654 0.9961,0.19629 0.30077,0.13087 0.52831,0.29786 0.68262,0.50098 0.15429,0.20313 0.26171,0.4336 0.32226,0.69141 0.0605,0.25781 0.0908,0.62695 0.0908,1.10742 z"
           style="font-weight:bold;-inkscape-font-specification:Sans Bold"
           id="path3029" />
        <path
           d="m 435.71509,504.71695 0,1.3125 -1.125,0 0,2.50781 c 0,0.50782 0.0107,0.80371 0.0322,0.8877 0.0215,0.084 0.0703,0.15332 0.14649,0.20801 0.0762,0.0547 0.16894,0.082 0.27832,0.082 0.15234,0 0.37304,-0.0527 0.66211,-0.15821 l 0.14062,1.27735 c -0.38281,0.16406 -0.81641,0.24609 -1.30078,0.24609 -0.29687,0 -0.56445,-0.0498 -0.80273,-0.14941 -0.23828,-0.0996 -0.41309,-0.22852 -0.52442,-0.38672 -0.11133,-0.1582 -0.18847,-0.37207 -0.23144,-0.6416 -0.0352,-0.19141 -0.0527,-0.57813 -0.0527,-1.16016 l 0,-2.71289 -0.75586,0 0,-1.3125 0.75586,0 0,-1.23633 1.65235,-0.96094 0,2.19727 z"
           style="font-weight:bold;-inkscape-font-specification:Sans Bold"
           id="path3031" />
      </g>
    </g>
  </g>
</svg>
