<?xml version="1.0" encoding="UTF-8" standalone="no"?>
<!-- Created with Inkscape (http://www.inkscape.org/) -->

<svg
   xmlns:dc="http://purl.org/dc/elements/1.1/"
   xmlns:cc="http://creativecommons.org/ns#"
   xmlns:rdf="http://www.w3.org/1999/02/22-rdf-syntax-ns#"
   xmlns:svg="http://www.w3.org/2000/svg"
   xmlns="http://www.w3.org/2000/svg"
   xmlns:sodipodi="http://sodipodi.sourceforge.net/DTD/sodipodi-0.dtd"
   xmlns:inkscape="http://www.inkscape.org/namespaces/inkscape"
   width="120"
   height="149.61"
   id="svg5328"
   version="1.1"
   inkscape:version="0.48.3.1 r9886"
   sodipodi:docname="gingerman1_base.svg">
  <defs
     id="defs5330" />
  <sodipodi:namedview
     id="base"
     pagecolor="#ffffff"
     bordercolor="#666666"
     borderopacity="1.0"
     inkscape:pageopacity="0.0"
     inkscape:pageshadow="2"
     inkscape:zoom="2.8"
     inkscape:cx="19.760488"
     inkscape:cy="71.936043"
     inkscape:document-units="px"
     inkscape:current-layer="layer1"
     showgrid="false"
     showguides="true"
     fit-margin-top="0"
     fit-margin-left="0"
     fit-margin-right="0"
     fit-margin-bottom="0"
     inkscape:guide-bbox="true">
    <sodipodi:guide
       orientation="1,0"
       position="-98.489873,140.66374"
       id="guide3876" />
    <sodipodi:guide
       orientation="0,1"
       position="-50.255089,2.7779195"
       id="guide3878" />
  </sodipodi:namedview>
  <metadata
     id="metadata5333">
    <rdf:RDF>
      <cc:Work
         rdf:about="">
        <dc:format>image/svg+xml</dc:format>
        <dc:type
           rdf:resource="http://purl.org/dc/dcmitype/StillImage" />
        <dc:title />
      </cc:Work>
    </rdf:RDF>
  </metadata>
  <g
     inkscape:label="Layer 1"
     inkscape:groupmode="layer"
     id="layer1"
     transform="translate(-31.976139,-704.98269)">
    <rect
       style="fill:#744900;fill-opacity:1;stroke:none"
       id="rect3029"
       width="39.901024"
       height="58.500301"
       x="72.968819"
       y="745.74878"
       rx="11.421641"
       ry="10.349394" />
    <g
       id="g3072"
       transform="matrix(0.80698042,0.5905782,-0.5905782,0.80698042,513.72604,141.85227)">
      <rect
         inkscape:transform-center-y="21.999245"
         inkscape:transform-center-x="7.4655654"
         transform="matrix(-0.95573989,-0.29421296,0.29421296,-0.95573989,0,0)"
         rx="11.421641"
         ry="11.421641"
         y="-770.50153"
         x="-247.21066"
         height="68.529854"
         width="22.843283"
         id="rect5336-47-8-3-7"
         style="fill:#744900;fill-opacity:1;stroke:none" />
      <path
         sodipodi:nodetypes="czzc"
         inkscape:connector-curvature="0"
         id="path5933-9-4-3"
         d="m 11.304879,793.44734 c 0,0 -3.403621,0.88295 -5.316069,0.41902 -1.912443,-0.46393 -3.500951,-2.87834 -5.50426396,-3.40991 -2.00331304,-0.53157 -5.95708004,0.21393 -5.95708004,0.21393"
         style="fill:#744900;fill-opacity:1;stroke:#ffffff;stroke-width:2.22087479;stroke-linecap:round;stroke-linejoin:miter;stroke-miterlimit:4;stroke-opacity:1;stroke-dasharray:none" />
    </g>
    <rect
       style="fill:#744900;fill-opacity:1;stroke:none"
       id="rect5336-47-8-3"
       width="22.843283"
       height="68.529854"
       x="-371.22928"
       y="-776.8963"
       ry="11.421641"
       rx="11.421641"
       transform="matrix(-0.93586167,-0.35236761,0.35236761,-0.93586167,0,0)"
       inkscape:transform-center-x="7.4655654"
       inkscape:transform-center-y="21.999245" />
    <rect
       style="fill:#744900;fill-opacity:1;stroke:none"
       id="rect5336-47-8-3-5"
       width="22.843283"
       height="68.529854"
       x="-197.31001"
       y="-842.37988"
       ry="11.421641"
       rx="11.421641"
       transform="matrix(0.93586167,-0.35236761,-0.35236761,-0.93586167,0,0)"
       inkscape:transform-center-x="7.4655654"
       inkscape:transform-center-y="21.999245" />
    <path
       style="fill:#000000;fill-opacity:1;stroke:#ffffff;stroke-width:2.22087479;stroke-linecap:round;stroke-linejoin:miter;stroke-miterlimit:4;stroke-opacity:1;stroke-dasharray:none"
       d="m 108.97983,842.13302 c 0,0 3.50117,0.32567 5.31447,-0.43895 1.81328,-0.76463 2.99401,-3.40254 4.88614,-4.24852 1.89213,-0.84597 5.91428,-0.74421 5.91428,-0.74421"
       id="path5933-9-4-9"
       inkscape:connector-curvature="0"
       sodipodi:nodetypes="czzc" />
    <path
       sodipodi:type="arc"
       style="fill:#744900;fill-opacity:1;stroke:none"
       id="path3900"
       sodipodi:cx="48.108517"
       sodipodi:cy="39.629642"
       sodipodi:rx="15.531096"
       sodipodi:ry="15.531096"
       d="m 63.639613,39.629642 a 15.531096,15.531096 0 1 1 -31.062193,0 15.531096,15.531096 0 1 1 31.062193,0 z"
       transform="matrix(1.146341,0,0,1.146341,37.770565,683.77846)" />
    <path
       style="fill:#744900;fill-opacity:1;stroke:#ffffff;stroke-width:2.22087479;stroke-linecap:round;stroke-linejoin:miter;stroke-miterlimit:4;stroke-opacity:1;stroke-dasharray:none"
       d="m 76.10121,841.31798 c 0,0 -3.451432,0.67221 -5.33177,0.0917 -1.880332,-0.58053 -3.317525,-3.08796 -5.284401,-3.74159 -1.966876,-0.65363 -5.958971,-0.15241 -5.958971,-0.15241"
       id="path5933-9-4"
       inkscape:connector-curvature="0"
       sodipodi:nodetypes="czzc" />
    <path
       style="fill:#744900;fill-opacity:1;stroke:#ffffff;stroke-width:2.22087479;stroke-linecap:round;stroke-linejoin:miter;stroke-miterlimit:4;stroke-opacity:1;stroke-dasharray:none"
       d="m 109.33779,786.49468 c 0,0 -4.1507,1.91767 -6.35253,1.8296 -2.58833,-0.10352 -3.872471,-2.29493 -7.272015,-2.74031 -1.802344,-0.23613 -4.485817,2.15815 -6.746973,2.18944 -2.261156,0.0313 -4.139141,-1.84635 -6.211693,-1.82736 -2.072553,0.019 -5.686836,1.78675 -5.686836,1.78675"
       id="path5933-9-4-8"
       inkscape:connector-curvature="0"
       sodipodi:nodetypes="caszsc" />
    <path
       sodipodi:type="arc"
       style="fill:#ffffff;fill-opacity:1;stroke:none"
       id="path3943"
       sodipodi:cx="60.44643"
       sodipodi:cy="66.663574"
       sodipodi:rx="2.5892856"
       sodipodi:ry="2.5892856"
       d="m 63.035716,66.663574 a 2.5892856,2.5892856 0 1 1 -5.178571,0 2.5892856,2.5892856 0 1 1 5.178571,0 z"
       transform="translate(32.4729,708.91126)" />
    <path
       sodipodi:type="arc"
       style="fill:#ffffff;fill-opacity:1;stroke:none"
       id="path3943-3"
       sodipodi:cx="60.44643"
       sodipodi:cy="66.663574"
       sodipodi:rx="2.5892856"
       sodipodi:ry="2.5892856"
       d="m 63.035716,66.663574 a 2.5892856,2.5892856 0 1 1 -5.178571,0 2.5892856,2.5892856 0 1 1 5.178571,0 z"
       transform="translate(32.4729,695.07197)" />
    <path
       sodipodi:type="arc"
       style="fill:#ffffff;fill-opacity:1;stroke:none"
       id="path3943-3-4"
       sodipodi:cx="60.44643"
       sodipodi:cy="66.663574"
       sodipodi:rx="2.5892856"
       sodipodi:ry="2.5892856"
       d="m 63.035716,66.663574 a 2.5892856,2.5892856 0 1 1 -5.178571,0 2.5892856,2.5892856 0 1 1 5.178571,0 z"
       transform="matrix(0.79310344,0,0,0.79310344,37.121915,672.07873)" />
    <path
       sodipodi:type="arc"
       style="fill:#ffffff;fill-opacity:1;stroke:none"
       id="path3943-3-4-4"
       sodipodi:cx="60.44643"
       sodipodi:cy="66.663574"
       sodipodi:rx="2.5892856"
       sodipodi:ry="2.5892856"
       d="m 63.035716,66.663574 a 2.5892856,2.5892856 0 1 1 -5.178571,0 2.5892856,2.5892856 0 1 1 5.178571,0 z"
       transform="matrix(0.79310344,0,0,0.79310344,52.836201,672.07873)" />
    <path
       style="fill:#744900;fill-opacity:1;stroke:#ffffff;stroke-width:2.22087479;stroke-linecap:round;stroke-linejoin:miter;stroke-miterlimit:4;stroke-opacity:1;stroke-dasharray:none"
       d="m 100.62446,736.46139 c -4.906197,3.7982 -10.319918,3.80975 -15.410261,-0.0179"
       id="path5933-9-4-8-2"
       inkscape:connector-curvature="0"
       sodipodi:nodetypes="cc" />
  </g>
</svg>
