<?xml version="1.0" encoding="UTF-8" standalone="no"?>
<!-- Created with Inkscape (http://www.inkscape.org/) -->

<svg
   xmlns:dc="http://purl.org/dc/elements/1.1/"
   xmlns:cc="http://creativecommons.org/ns#"
   xmlns:rdf="http://www.w3.org/1999/02/22-rdf-syntax-ns#"
   xmlns:svg="http://www.w3.org/2000/svg"
   xmlns="http://www.w3.org/2000/svg"
   xmlns:xlink="http://www.w3.org/1999/xlink"
   xmlns:sodipodi="http://sodipodi.sourceforge.net/DTD/sodipodi-0.dtd"
   xmlns:inkscape="http://www.inkscape.org/namespaces/inkscape"
   width="165.9375"
   height="91.28125"
   id="svg2"
   version="1.1"
   inkscape:version="0.48.3.1 r9886"
   sodipodi:docname="santa_movable.svg">
  <defs
     id="defs4">
    <linearGradient
       id="linearGradient3788">
      <stop
         style="stop-color:#f1ff18;stop-opacity:0.7846154;"
         offset="0"
         id="stop3790" />
      <stop
         style="stop-color:#fbff14;stop-opacity:0;"
         offset="1"
         id="stop3792" />
    </linearGradient>
    <linearGradient
       id="linearGradient3780">
      <stop
         style="stop-color:#000000;stop-opacity:1;"
         offset="0"
         id="stop3782" />
      <stop
         style="stop-color:#000000;stop-opacity:0;"
         offset="1"
         id="stop3784" />
    </linearGradient>
    <radialGradient
       inkscape:collect="always"
       xlink:href="#linearGradient3788"
       id="radialGradient3794"
       cx="237.38585"
       cy="442.23004"
       fx="237.38585"
       fy="442.23004"
       r="103.03556"
       gradientUnits="userSpaceOnUse" />
  </defs>
  <sodipodi:namedview
     id="base"
     pagecolor="#ffffff"
     bordercolor="#666666"
     borderopacity="1.0"
     inkscape:pageopacity="0.0"
     inkscape:pageshadow="2"
     inkscape:zoom="7.9195959"
     inkscape:cx="76.175217"
     inkscape:cy="36.736182"
     inkscape:document-units="px"
     inkscape:current-layer="layer1"
     showgrid="false"
     fit-margin-top="0"
     fit-margin-left="0"
     fit-margin-right="0"
     fit-margin-bottom="0" />
  <metadata
     id="metadata7">
    <rdf:RDF>
      <cc:Work
         rdf:about="">
        <dc:format>image/svg+xml</dc:format>
        <dc:type
           rdf:resource="http://purl.org/dc/dcmitype/StillImage" />
        <dc:title />
      </cc:Work>
    </rdf:RDF>
  </metadata>
  <g
     inkscape:label="Layer 1"
     inkscape:groupmode="layer"
     id="layer1"
     transform="translate(-132.41279,-447.54685)">
    <g
       id="g3231"
       transform="matrix(-0.22334416,0,0,0.22334416,256.28367,390.94782)">
      <path
         id="path2528"
         d="m 313.50032,253.40495 c -15.21305,2.11369 -25.93727,16.30359 -32.32978,29.27088 4.73604,10.99982 -6.26086,18.64558 -12.31876,25.6241 5.1444,4.12668 13.46636,4.62665 2.18981,5.98511 -12.74731,5.80292 2.66282,21.84385 -11.84142,24.86228 -7.44038,10.26562 -17.60268,25.9867 -10.58916,38.45709 8.31032,10.22222 -4.66889,21.87633 -10.21813,30.24588 -14.66757,4.50146 -13.33477,25.45082 -29.35822,26.05963 -16.80477,-2.95175 -8.78485,-26.84598 -16.96218,-38.32173 -1.63912,-3.85989 -4.48028,-13.47983 -5.36992,-10.2915 -0.58819,-12.55913 4.66125,-34.10459 -12.12347,-37.71652 -12.33305,-4.72811 -25.26352,-11.64619 -37.31469,-14.37817 6.02577,-10.38426 14.80647,-19.94993 17.84501,-32.02046 -2.01939,-15.50524 -23.72975,-0.90972 -33.83843,-1.91473 -15.88497,0.89128 -29.889596,8.88819 -45.246046,11.72462 -9.93418,-3.31883 -22.04025,2.84816 -14.18314,14.16935 1.97259,11.01033 16.69454,13.99429 20.59876,19.75619 -19.38845,8.64797 -36.02481,23.94698 -46.73632,42.31498 -2.05636,14.59513 -21.47404,19.44066 -20.19649,35.68975 -1.26826,15.56329 8.22337,29.19351 10.77176,44.20649 4.19229,13.93013 7.3474,29.1278 2.00966,43.23144 -4.37595,17.34197 -7.7085,35.12225 -7.44449,53.07586 -23.02178,4.6371 -48.64021,2.21763 -68.15788,-11.74603 -16.97341,-10.37029 -31.74019,-23.91139 -48.18578,-34.97577 -12.673844,-3.43621 -5.837904,12.41607 -0.61808,16.59535 6.66077,12.99837 7.98936,30.72254 21.79796,38.57703 14.97011,5.73363 30.71412,9.38404 45.82361,14.8886 23.46207,6.84048 48.15244,12.44083 72.63176,8.16277 16.42109,-2.14771 32.32846,4.21031 48.71127,2.43999 15.140956,-2.07911 13.864186,18.95961 -0.4754,18.34156 -13.37762,2.9103 -27.4482,2.99816 -40.76992,0.15017 -15.59182,-0.89769 -31.19126,2.63737 -46.71293,-0.35961 -18.0673,-2.21748 -38.45441,-5.98895 -49.44298,-22.1934 -4.5094,-11.31154 -29.32473,-19.10111 -24.18,-0.0185 4.56913,14.61007 10.65054,28.78866 16.95279,42.71098 9.25893,14.01214 29.06668,8.17082 43.40942,10.34966 30.05826,2.53961 60.39756,1.49149 90.24585,6.43242 17.76702,1.03072 35.452226,3.39933 53.221766,3.97939 13.63613,-0.41892 26.99177,3.86006 40.64695,1.42402 24.93088,-3.05197 49.8619,-6.55294 74.27341,-12.54848 5.23697,-1.81033 14.0828,-4.11927 11.60757,-5.91645 16.91657,-3.16429 34.15203,-8.11122 51.31295,-11.5726 11.37615,-2.00834 21.99762,-6.04858 32.46113,-10.59276 12.72773,-2.77617 23.9411,-9.56896 36.439,-13.10323 17.66593,-7.25636 32.70108,-20.31264 43.26623,-36.10207 10.95657,-12.37065 18.50262,-28.9077 15.77008,-45.68596 0.11515,-21.59658 -30.80154,-33.5927 -45.71575,-18.59414 -10.7064,12.58224 2.50574,24.78897 12.78196,29.72224 -1.96542,12.1558 -11.80239,22.58955 -21.47167,29.91047 -24.288,16.79438 -52.72692,25.9219 -80.20632,35.99689 -14.27628,4.45994 -29.69683,6.752 -44.59266,5.63265 -9.32762,-1.63863 -16.92207,-15.85428 -2.71046,-15.95235 15.43515,-1.33787 29.51886,-8.01128 44.29461,-11.97956 12.51715,0.43123 31.44603,0.9193 32.85572,-15.05335 -4.48478,-3.85791 -13.86534,-10.95291 -1.05187,-9.55696 16.15054,0.34072 24.08616,-16.19561 31.48285,-27.86828 7.66608,-12.0814 8.10429,-28.4636 -3.19726,-37.25177 -1.89011,-11.57903 11.89998,-15.61446 17.44737,-23.62688 8.59882,-9.34744 17.81764,-18.66636 29.82687,-23.46163 10.53183,-8.63618 9.69072,-23.91403 14.91874,-35.5578 4.54458,-22.41902 -11.32968,-46.77512 -34.10715,-50.67836 -15.22339,-3.93451 -32.1426,-3.27473 -46.24817,4.04778 -15.03402,-1.59402 -5.59493,-23.49992 -11.67814,-30.97284 6.39797,-10.2471 1.58397,-29.63802 19.90685,-23.52319 9.80345,-6.25662 25.91023,8.94203 31.00973,-6.31408 3.93793,-16.0323 -18.04609,-21.17303 -27.21588,-13.53494 -13.95786,-5.1321 -20.71231,-19.55665 -32.3814,-27.64331 -3.41566,-1.97969 -7.35541,-3.139 -11.3211,-3.00821 z m -85.28846,341.23459 c 12.68552,7.40642 -4.06251,13.91003 -11.98476,14.15951 -15.58501,3.08324 -31.36273,4.83102 -47.00908,7.49413 -14.32201,-0.0275 -29.89136,2.23443 -43.41229,-2.95918 -6.24942,-6.15067 -6.15656,-20.4797 5.75936,-16.17709 20.8476,0.15368 41.76697,4.56667 62.52082,0.66261 11.26068,-1.23566 23.54115,1.01009 34.12595,-3.17998 z"
         style="fill:#000000"
         inkscape:connector-curvature="0" />
      <path
         id="path2526"
         d="m 292.77168,295.66026 c 11.30636,8.7872 28.51137,14.97616 34.39236,27.38427 -9.56195,-0.1965 -25.4703,-15.6303 -39.79676,-13.82782 -16.56868,0.63592 -1.73221,-12.79111 5.4044,-13.55645 z"
         style="fill:#ffffff"
         inkscape:connector-curvature="0" />
      <path
         id="path2407"
         d="m 461.48661,644.04817 c 1.33491,-0.49749 -1.40835,-1.02031 0,0 z"
         style="fill:#000000"
         inkscape:connector-curvature="0" />
      <path
         id="path2405"
         d="m 462.93107,647.11906 0.15277,-0.65807 -0.15276,0.65808 -1e-5,-10e-6 z"
         style="fill:#000000"
         inkscape:connector-curvature="0" />
      <path
         id="path2403"
         d="m 468.29081,659.45769 c 4.97178,10.65363 -5.42782,-15.09793 -0.26684,-0.72561 l 0.24314,0.66116 0.0237,0.0645 z"
         style="fill:#000000"
         inkscape:connector-curvature="0" />
      <path
         id="path2437"
         d="m 260.06559,383.40478 c -7.53715,8.04349 -9.96099,19.70067 -17.35604,27.72891 9.29264,5.5201 21.84238,7.67975 29.93222,16.60855 7.91202,9.93209 19.41421,11.08119 26.34268,-0.46164 10.29195,-4.98556 0.22601,-18.24678 7.49575,-22.08037 5.95989,4.97637 3.4836,2.33232 7.43001,-3.38005 9.78216,-10.85329 2.69683,10.7891 -1.06781,13.87941 -6.32697,13.13566 -19.09434,21.63445 -27.61692,32.00582 6.98057,5.83726 16.97825,15.879 14.16781,24.75865 9.48263,1.16894 21.12282,7.18843 29.10181,0.60319 10.23625,-9.39202 17.26277,-21.61508 28.05492,-30.43719 5.15129,-9.10025 4.82425,-20.71295 5.13262,-31.22347 0.26861,-14.57403 -11.64756,-25.51106 -21.38002,-34.69671 -12.34132,-7.4156 -21.88699,11.34445 -33.72701,5.18892 -10.29872,-7.71391 -21.07771,0.49988 -32.10054,-0.90903 -5.3214,-1.20641 -9.63803,1.72846 -14.40948,2.41501 z"
         style="fill:#ff0000"
         inkscape:connector-curvature="0" />
      <path
         id="path2419"
         d="m -92.084746,528.27196 c 8.54703,11.48309 7.40454,34.06015 22.84578,37.6004 30.48421,8.6574 60.46721,22.31784 92.73605,22.06841 13.31288,2.02187 0.58508,-12.68493 -4.21542,-16.6389 -14.47018,3.94001 -30.13003,2.26832 -44.69135,-1.02944 -26.35943,-7.66403 -46.33827,-27.60576 -67.4639,-44.04761 -0.10536,0.69638 0.62297,1.37402 0.78884,2.04714 z"
         style="fill:#ffcc00"
         inkscape:connector-curvature="0" />
      <path
         id="path2415"
         d="m -61.578016,594.10808 c 5.84055,14.75782 10.04462,32.82693 21.25412,43.8022 11.81202,2.99746 24.30548,0.28955 36.38062,2.19984 17.81008,1.53702 35.73732,1.61437 53.53929,2.24681 15.33723,1.33849 30.44397,4.2462 45.67145,6.15065 15.631546,0.19494 30.875916,4.14609 46.553146,2.76346 16.05235,2.4734 32.11237,2.10076 48.10315,-1.31525 18.87955,-0.93365 37.09081,-6.95238 55.60468,-10.04019 29.30277,-12.63078 61.34152,-15.78722 91.54587,-25.49655 23.27671,-6.77174 45.35787,-17.4395 64.53244,-32.33619 11.95254,-7.40921 19.67423,-19.98642 23.67934,-33.17839 6.52683,-12.53897 14.2012,-32.71498 -0.11453,-42.74087 -10.57149,-9.63558 -37.713,4.64304 -22.17828,16.45492 8.96504,3.22244 21.14083,7.5019 11.40687,18.00124 -5.04314,10.06459 -12.05874,20.25208 -19.84253,22.88617 -3.65433,2.42245 -11.05959,9.03037 -2.34163,3.90231 -22.95506,16.99568 -50.24107,26.34294 -76.85855,35.8163 -13.00396,4.25189 -26.01746,8.42647 -39.87782,7.61229 -12.35172,1.24355 -29.4509,2.05525 -30.39199,-14.49097 -7.0468,-9.3196 -8.69253,5.31177 -7.28459,11.03807 -12.57142,7.99001 -30.51722,8.17136 -45.5877,10.61165 -18.2643,3.77239 -37.00548,4.8525 -55.57084,3.05975 -11.72954,2.5249 -23.4293,-5.28514 -18.45814,-18.16211 0.0264,-9.78576 -10.50304,-3.8582 -9.34012,-1.74818 0.90008,3.72301 0.70189,20.41899 -11.633166,19.27923 -15.34312,3.41019 -31.07985,5.05047 -46.72173,2.71287 -16.42542,-2.34111 -33.00672,1.86772 -49.34956,-1.68172 -17.57897,-2.87542 -36.78993,-6.2762 -48.76601,-20.88531 -2.8077,-3.13432 -18.42734,-24.06686 -13.95379,-6.46203 z"
         style="fill:#ffd42a"
         inkscape:connector-curvature="0" />
      <path
         id="path2395"
         d="m 20.898204,436.03705 c 9.41874,7.89202 9.04279,21.67403 13.2081,32.42141 5.61685,15.79912 4.49099,32.99194 -1.08731,48.6187 -3.65157,15.76197 -7.29641,32.12844 -4.02171,48.32657 0.59558,16.67294 19.65582,21.27931 33.12688,22.81218 34.61819,7.35149 70.184756,-0.33087 105.041236,4.70264 17.53258,0.47279 34.91052,-2.95279 52.43663,-2.76162 21.51375,-1.98833 42.36618,-7.91046 63.44551,-12.33073 11.36182,-6.27402 24.67427,-8.21967 37.44565,-7.62374 13.26896,-7.28854 -11.23329,-14.39843 -5.24594,-25.52268 4.12947,-15.95485 14.48148,-29.52076 23.13263,-43.30935 9.87928,-10.87402 18.11258,-23.04844 27.65191,-34.20264 12.85446,-9.7592 22.15571,-24.58131 37.72301,-30.40937 8.7023,-3.96381 6.53449,-16.47914 -3.94715,-10.00842 -12.39394,3.44605 -32.11043,2.50619 -36.42592,16.51883 -10.81914,9.92539 -20.27044,20.90745 -29.50267,32.31528 -9.81966,13.01514 -23.23428,-0.46975 -35.33583,5.074 -13.52195,-3.65796 -27.96234,-8.09311 -42.08503,-5.22304 -13.42775,-1.47198 -27.13826,-4.73286 -38.97048,-11.27445 -9.11784,-12.35779 -22.98811,-12.51587 -36.64509,-9.98867 -29.42743,-0.7112 -56.99231,-11.78788 -85.042616,-19.31813 -14.46194,-3.80198 -30.38712,-4.46312 -42.33176,-14.57788 -7.82452,-8.3405 -31.62481,-18.87415 -31.29572,-0.13723 -0.45592,5.28997 -1.94811,10.55789 -1.27433,15.89834 z"
         style="fill:#217821"
         inkscape:connector-curvature="0" />
      <path
         id="path2389"
         d="m 35.230714,403.3315 c 9.30455,5.26207 18.9682,9.92649 27.09847,16.97852 11.52508,6.0875 24.98851,6.31068 37.38653,9.797 23.620146,4.29593 45.834876,14.26035 69.784066,16.88523 9.17553,0.63482 27.37621,5.01277 24.85311,-9.33319 0.93481,-11.08579 -2.53809,-26.4085 -7.12219,-37.84463 -7.88505,-13.30629 -1.37086,-30.56775 -9.36349,-43.2095 -11.16552,-7.09975 -24.08806,-11.11132 -35.61432,-17.68792 -9.03584,-2.6974 -10.75113,7.47469 -19.33329,2.15002 -11.95057,1.54279 -23.162946,-2.53483 -31.466576,7.51426 -11.31232,5.31042 -23.89368,8.07651 -32.24182,18.50814 -10.99573,9.39196 -20.35668,22.79902 -24.00962,36.21087 l 0.0291,0.0312 -10e-6,0 z"
         style="fill:#ffe680"
         inkscape:connector-curvature="0" />
      <path
         id="path2373"
         d="m 67.570064,323.41246 c 2.59227,9.77922 20.24296,21.07945 26.85134,16.2936 9.168846,-7.00084 22.506756,2.43356 31.503626,-5.11809 10.45531,-9.09614 19.48129,-21.1482 22.23653,-34.96394 -10.45857,0.20112 -20.01302,5.65938 -30.60994,5.46417 -14.87534,0.41176 -27.327596,11.39858 -42.073026,10.47886 -5.52194,-0.79242 -15.0861,0.32106 -7.90853,7.8454 z"
         style="fill:#ffeeaa"
         inkscape:connector-curvature="0" />
      <path
         id="path2333"
         d="m 198.20674,445.65336 c 7.59247,3.3906 21.12359,2.40637 16.87815,-8.7887 -7.59896,-2.01774 -15.03144,2.13913 -16.87815,8.7887 z"
         style="fill:#ffd5d5;fill-opacity:1"
         inkscape:connector-curvature="0" />
      <path
         id="path2327"
         d="m 217.5782,455.18037 c 7.64634,7.98232 25.13112,14.18155 32.80646,10.38563 -3.34135,-12.11812 24.17683,-16.10321 8.35988,-21.20473 -10.56239,-3.68784 -24.88717,-17.56218 -34.24802,-11.76633 -3.863,6.57699 -8.97311,14.66823 -6.91832,22.58543 z"
         style="fill:#ff0000"
         inkscape:connector-curvature="0" />
      <path
         id="path2303"
         d="m 253.16734,367.62401 c 0.0198,20.20892 19.93858,2.03627 30.7831,6.45704 11.38334,0.45658 21.64207,-2.28967 31.6819,3.74156 6.90984,-6.94703 22.87106,-6.29473 17.36698,-19.65964 -0.0283,-7.65714 -21.17029,11.65837 -13.3474,-1.77033 6.76581,-2.32574 11.93951,-7.08263 8.83171,-12.92718 6.31472,-7.43103 -6.73957,-10.11137 -5.23111,-14.92514 -8.31099,-1.55971 -9.04921,14.54705 -19.74283,15.24126 -9.71738,2.92335 -21.01262,3.68933 -30.92393,1.10299 -5.43801,-4.5829 -16.55606,6.65292 -11.82363,10.85037 -2.90611,3.4961 -8.73745,6.50381 -7.59479,11.88907 z"
         style="fill:#ffffff"
         inkscape:connector-curvature="0" />
      <path
         id="path2299"
         d="m 258.95469,469.14506 c 10.50514,-5.93821 26.63382,6.14729 34.13597,0.0884 -2.43104,-11.64047 -12.21478,-20.64372 -23.62278,-15.0484 -10.29872,-2.26533 -12.34772,9.76452 -12.26542,15.00303 l 1.75222,-0.043 1e-5,-10e-6 z"
         style="fill:#ffd5d5"
         inkscape:connector-curvature="0" />
      <path
         id="path2291"
         d="m 271.02119,326.31938 c 4.62611,-4.44169 21.65546,-1.24331 9.54016,3.21323 -14.26478,4.13221 -0.35383,18.1435 6.72807,8.90778 -7.30034,-5.09565 -5.1618,-11.30539 3.03024,-6.38767 6.76946,11.36381 31.66008,-2.33515 18.81144,-9.97559 -10.18987,-4.88469 -22.65518,-12.14726 -32.35107,-4.09723 -3.65521,0.76869 -8.04769,4.14644 -5.75884,8.33948 z"
         style="fill:#ffd5d5"
         inkscape:connector-curvature="0" />
      <path
         id="path2289"
         d="m 290.59166,321.00086 c 12.33489,-11.03178 2.404,15.89221 0,0 z"
         style="fill:#000000"
         inkscape:connector-curvature="0" />
      <path
         id="path2519"
         d="m 314.62159,260.3448 c -13.83657,1.82546 -21.95494,15.40282 -27.53079,26.85643 10.95587,3.7411 22.22592,11.84863 32.42501,18.85707 6.26927,9.29555 16.6364,2.91374 11.45729,-6.72232 -1.97919,-10.33661 7.84268,-11.24782 11.54147,-2.92649 7.00719,4.17935 25.16575,-0.0608 14.32715,-5.11052 -12.27788,-3.15494 -20.78781,-14.11194 -29.15916,-22.94738 -3.31402,-3.91229 -7.56042,-8.06245 -13.06097,-8.00679 z"
         style="fill:#ff0000"
         inkscape:connector-curvature="0" />
      <path
         id="path2279"
         d="m 365.05928,288.39715 c -10.64993,11.01488 21.97996,15.14887 9.78481,0.24392 -2.30904,-3.79258 -7.36247,-3.92488 -9.78481,-0.24392 z"
         style="fill:#ffffff"
         inkscape:connector-curvature="0" />
      <path
         id="path2271"
         d="m 290.71434,341.16212 c 1.21193,-0.74659 -1.21241,-0.40177 0,0 z"
         style="fill:#000000"
         inkscape:connector-curvature="0" />
      <path
         id="path2243"
         d="m 324.19963,546.12404 c 15.24037,4.53832 26.26957,-9.33105 32.80703,-20.95445 7.09467,-7.5435 13.99956,-35.29633 -2.9934,-31.0384 -10.5608,10.03667 -17.06082,23.6492 -24.73296,35.90752 -2.08965,4.73233 -6.10588,11.41831 -5.08067,16.08533 z"
         style="fill:#ffd42a"
         inkscape:connector-curvature="0" />
      <path
         id="path2233"
         d="m 339.22355,371.08143 c 11.13296,2.44313 15.99221,14.4982 23.07724,22.14609 7.97756,10.17537 0.19095,26.04337 5.91256,34.88321 11.44292,-4.12391 22.64966,-8.2799 35.17366,-8.57878 13.99495,-1.58281 16.88234,-17.6354 14.31515,-29.01335 -3.62696,-17.1585 -18.95152,-30.82632 -36.58137,-31.91791 -13.35512,-2.7554 -26.86978,1.22997 -39.01245,6.59007 -2.06071,0.9197 -4.36787,3.56832 -2.88479,5.89067 z"
         style="fill:#ffcc00"
         inkscape:connector-curvature="0" />
    </g>
  </g>
</svg>
